<?xml version="1.0" encoding="UTF-8" standalone="no"?>
<svg xmlns="http://www.w3.org/2000/svg" version="1.2" baseProfile="tiny" viewBox="0.00 0.00 500.00 500.00">
<path fill="#0e0e0d" fill-opacity="0.996" d="
  M 268.43 500.00
  L 267.21 500.00
  Q 256.03 498.45 245.38 495.28
  Q 244.90 495.13 244.44 495.32
  C 231.45 500.57 213.79 501.29 201.63 493.00
  A 1.41 1.41 0.0 0 1 201.06 492.21
  C 199.79 487.79 196.29 491.61 193.43 490.23
  Q 192.94 489.99 193.16 489.50
  C 194.29 487.03 196.50 485.60 197.69 483.62
  Q 203.46 473.97 204.75 466.25
  Q 207.87 447.69 208.49 431.75
  C 209.02 418.24 209.92 406.86 209.50 394.06
  A 0.87 0.87 0.0 0 0 208.22 393.33
  Q 202.11 396.63 195.47 398.62
  Q 194.94 398.78 194.78 399.30
  Q 193.70 402.88 193.40 405.69
  Q 191.72 421.20 191.67 436.61
  A 0.44 0.44 0.0 0 0 192.43 436.91
  Q 197.22 431.94 203.05 428.22
  A 0.88 0.87 -40.8 0 1 204.09 428.29
  Q 205.29 429.32 204.93 430.99
  Q 201.92 444.81 196.16 457.93
  A 0.42 0.42 0.0 0 0 196.81 458.42
  Q 198.59 456.91 200.90 455.74
  Q 202.10 455.13 202.63 455.35
  A 1.78 1.69 -66.1 0 1 203.47 457.71
  Q 199.71 465.85 194.36 473.10
  A 1.19 1.16 57.7 0 0 194.16 474.04
  L 195.49 480.26
  A 1.81 1.81 0.0 0 1 193.85 482.44
  Q 183.24 483.20 172.58 482.40
  Q 171.92 482.35 171.89 483.02
  L 171.62 490.02
  A 0.84 0.84 0.0 0 1 170.32 490.68
  Q 165.93 487.74 162.86 483.47
  A 0.68 0.67 36.2 0 0 161.67 483.65
  L 161.07 485.47
  A 1.76 1.76 0.0 0 1 157.81 485.68
  Q 157.50 485.03 156.93 484.54
  Q 156.50 484.17 155.95 484.29
  C 146.44 486.34 120.80 489.90 115.40 480.44
  C 111.48 473.58 119.99 467.11 125.56 464.65
  Q 126.03 464.44 126.28 463.99
  C 130.50 456.37 133.90 447.61 137.35 439.58
  Q 146.80 417.55 145.25 393.50
  Q 143.40 364.77 138.12 336.47
  Q 138.01 335.89 137.45 335.72
  L 134.13 334.72
  A 0.79 0.79 0.0 0 1 133.70 333.53
  L 135.99 330.03
  Q 136.29 329.57 136.12 329.05
  L 134.36 323.47
  Q 133.91 322.02 132.50 322.60
  Q 123.91 326.10 114.52 326.45
  C 110.84 326.59 108.69 325.24 106.93 321.91
  Q 101.71 312.06 100.60 300.82
  C 99.27 287.41 97.49 273.74 97.94 260.32
  C 98.84 233.64 105.21 206.78 113.12 181.58
  A 1.57 1.57 0.0 0 0 111.85 179.56
  Q 102.09 178.15 94.10 174.35
  Q 92.38 173.54 90.33 173.48
  C 84.09 173.29 74.66 170.42 72.13 163.81
  Q 71.97 163.38 72.20 162.98
  C 77.18 154.05 91.91 159.66 97.33 164.84
  Q 97.76 165.25 98.29 164.99
  L 104.42 161.95
  Q 105.01 161.65 104.68 161.08
  Q 98.74 151.01 99.65 139.20
  Q 99.81 137.10 97.71 137.06
  Q 97.18 137.05 96.40 137.85
  C 94.50 139.80 87.26 142.23 84.04 143.62
  A 1.15 1.15 0.0 0 1 82.47 142.27
  C 85.25 131.69 96.07 119.89 105.47 113.62
  A 0.47 0.46 -48.1 0 0 105.43 112.82
  C 91.19 105.55 77.37 88.70 78.78 71.47
  A 0.80 0.80 0.0 0 1 80.02 70.87
  Q 83.21 72.96 86.12 75.88
  Q 92.69 82.50 99.95 88.02
  A 0.45 0.45 0.0 0 0 100.45 88.05
  L 100.72 87.88
  Q 101.21 87.60 100.85 87.16
  Q 98.14 83.83 97.51 82.00
  Q 92.14 66.46 91.15 50.12
  C 90.58 40.72 92.41 27.78 96.78 19.40
  A 1.24 1.24 0.0 0 1 98.56 18.94
  Q 100.95 20.51 102.14 23.33
  C 107.83 36.84 113.85 50.46 118.31 64.43
  A 0.52 0.52 0.0 0 0 119.29 64.46
  C 127.17 44.28 139.62 29.48 157.00 16.69
  C 167.97 8.63 177.54 3.56 189.97 0.04
  A 0.99 0.99 0.0 0 1 191.15 1.38
  L 180.13 26.76
  Q 179.96 27.15 180.37 27.27
  Q 180.68 27.37 181.09 27.10
  Q 193.70 18.89 208.23 17.07
  A 1.22 1.22 0.0 0 1 209.38 18.97
  L 199.98 32.48
  A 0.44 0.44 0.0 0 0 200.37 33.17
  Q 216.77 31.94 232.48 36.82
  C 239.16 38.90 246.04 40.86 252.27 44.10
  C 254.35 45.17 256.92 45.84 258.80 46.78
  Q 270.84 52.79 284.28 61.47
  Q 286.42 62.85 287.64 64.42
  A 0.55 0.55 0.0 0 1 287.44 65.25
  C 277.13 70.08 263.80 71.56 252.66 72.76
  A 0.71 0.71 0.0 0 0 252.65 74.17
  Q 255.73 74.54 258.76 76.18
  Q 278.51 86.83 293.79 102.95
  A 1.62 1.62 0.0 0 1 293.23 105.56
  Q 285.49 108.77 277.09 109.43
  A 0.64 0.64 0.0 0 0 276.78 110.59
  L 284.19 115.83
  A 1.32 1.31 -30.2 0 1 283.56 118.21
  C 278.21 118.77 273.05 118.18 267.70 118.29
  A 0.58 0.57 67.0 0 0 267.31 119.27
  Q 273.28 125.34 278.15 132.37
  Q 286.61 144.60 293.52 157.76
  Q 294.43 159.49 293.28 160.55
  A 0.98 0.95 26.5 0 1 292.49 160.80
  Q 274.55 158.44 258.07 150.97
  A 0.82 0.82 0.0 0 0 257.04 152.15
  Q 261.70 159.65 264.53 168.02
  A 0.58 0.58 0.0 0 1 264.15 168.76
  Q 262.11 169.36 260.27 168.56
  Q 249.20 163.73 238.01 159.29
  A 0.79 0.78 11.2 0 0 236.93 160.01
  C 236.77 173.98 236.16 189.06 232.95 201.73
  Q 232.42 203.83 232.84 205.82
  Q 237.13 225.91 240.24 246.09
  A 0.45 0.44 71.8 0 0 240.88 246.42
  C 248.04 242.72 258.22 237.55 266.29 236.77
  A 0.84 0.83 -16.7 0 1 267.10 237.20
  Q 267.79 238.45 266.68 239.94
  Q 259.01 250.12 251.09 260.13
  A 0.41 0.40 -79.0 0 0 251.52 260.77
  C 263.40 257.25 276.10 253.68 288.52 252.86
  A 1.81 1.81 0.0 0 1 290.44 254.85
  Q 290.29 256.38 288.97 257.99
  Q 279.15 270.01 267.94 279.84
  A 0.86 0.86 0.0 0 0 268.38 281.34
  Q 275.04 282.29 281.25 282.36
  C 294.88 282.50 307.94 277.32 320.77 280.10
  A 0.69 0.68 4.6 0 0 321.60 279.40
  C 321.40 274.98 321.52 270.82 322.64 266.40
  C 325.90 253.57 329.69 241.52 337.54 230.74
  A 0.99 0.98 -36.1 0 1 339.27 231.01
  Q 342.00 239.33 342.69 248.06
  A 0.54 0.54 0.0 0 0 343.69 248.30
  C 354.69 230.63 358.76 213.85 362.54 193.42
  Q 366.52 171.88 368.56 157.76
  Q 369.15 153.70 369.63 151.59
  A 0.69 0.68 -81.9 0 1 370.33 151.06
  C 378.94 151.52 387.51 170.52 390.19 177.43
  A 0.66 0.66 0.0 0 0 391.47 177.25
  Q 392.13 170.39 395.28 164.22
  A 1.43 1.43 0.0 0 1 397.64 163.93
  Q 399.36 165.92 400.34 168.60
  Q 410.56 196.34 411.20 225.91
  C 411.30 230.66 411.72 234.59 410.38 239.22
  A 0.62 0.62 0.0 0 0 411.48 239.75
  Q 414.70 235.20 419.29 231.94
  A 1.10 1.10 0.0 0 1 421.02 232.68
  C 421.93 239.22 420.92 244.71 419.48 252.14
  Q 416.12 269.45 407.40 284.67
  C 402.68 292.91 396.24 299.87 389.17 306.21
  A 0.48 0.48 0.0 0 0 389.56 307.04
  Q 394.81 306.30 400.03 307.40
  Q 400.56 307.51 400.71 308.03
  Q 401.10 309.38 399.58 310.82
  Q 382.70 326.81 359.36 325.39
  A 0.37 0.37 0.0 0 0 358.98 325.87
  Q 363.06 340.01 366.24 354.50
  C 368.65 365.43 370.05 374.04 374.47 383.42
  Q 376.84 388.44 379.64 393.23
  C 387.74 407.09 394.07 421.28 398.98 436.60
  A 0.54 0.54 0.0 0 0 399.96 436.70
  Q 408.62 421.43 422.83 411.02
  Q 423.20 410.75 423.61 410.95
  Q 426.06 412.13 425.55 415.26
  Q 422.66 433.14 416.66 450.71
  A 0.47 0.47 0.0 0 0 417.44 451.20
  C 419.64 449.04 423.73 444.48 426.98 444.25
  A 1.27 1.26 8.7 0 1 428.25 445.97
  Q 422.22 461.44 411.75 474.35
  A 1.29 1.29 0.0 0 0 411.66 475.87
  L 419.02 487.40
  A 0.94 0.93 -13.2 0 1 418.13 488.83
  L 405.95 487.57
  A 0.43 0.42 -13.1 0 0 405.54 488.22
  L 407.76 491.71
  A 1.28 1.27 -6.3 0 1 406.25 493.59
  L 395.50 489.74
  A 0.45 0.45 0.0 0 0 394.92 490.27
  L 395.78 493.83
  A 0.98 0.98 0.0 0 1 394.30 494.89
  L 387.17 490.41
  A 1.10 1.10 0.0 0 0 385.66 490.76
  C 381.90 496.80 370.51 497.14 364.13 497.30
  C 358.75 497.43 339.77 494.36 340.25 486.20
  A 0.95 0.94 76.4 0 0 338.83 485.33
  Q 337.37 486.20 335.83 485.44
  A 0.70 0.70 0.0 0 1 335.54 484.45
  L 338.89 478.93
  A 1.10 1.09 -0.1 0 0 337.38 477.43
  L 336.73 477.82
  Q 336.39 478.03 336.02 477.86
  L 332.63 476.26
  Q 332.21 476.06 331.82 476.30
  Q 330.56 477.06 329.72 478.29
  Q 329.43 478.70 328.99 478.96
  C 320.45 483.92 308.91 484.10 299.49 482.26
  C 294.72 481.33 287.43 478.97 289.58 472.80
  A 1.30 1.25 42.5 0 0 289.52 471.83
  Q 288.63 470.03 290.07 468.33
  C 292.03 466.02 294.43 462.23 296.63 459.25
  C 302.92 450.75 298.89 419.12 291.75 411.09
  Q 281.97 400.09 273.78 387.84
  Q 273.47 387.38 272.97 387.62
  L 263.34 392.17
  A 1.46 1.45 -4.7 0 1 261.32 390.46
  L 262.68 385.63
  A 0.59 0.59 0.0 0 0 261.76 385.00
  L 257.23 388.39
  A 1.00 1.00 0.0 0 0 256.83 389.19
  Q 256.91 399.03 257.37 408.81
  C 257.78 417.37 259.89 426.42 260.91 435.36
  A 0.46 0.46 0.0 0 0 261.72 435.60
  Q 269.07 426.48 276.97 417.71
  Q 277.73 416.88 278.49 416.32
  A 0.89 0.88 -17.9 0 1 279.90 417.04
  C 279.73 430.67 277.17 443.85 274.51 457.10
  A 0.36 0.35 84.6 0 0 274.99 457.50
  L 281.05 455.06
  A 1.64 1.64 0.0 0 1 283.18 457.22
  C 279.60 465.71 276.31 475.14 271.95 482.64
  Q 271.70 483.07 271.75 483.56
  C 272.07 486.83 274.91 489.02 277.17 491.35
  A 1.28 1.28 0.0 0 1 276.64 493.46
  Q 271.75 495.01 266.66 494.63
  A 0.67 0.67 0.0 0 0 266.34 495.92
  Q 268.21 496.72 269.41 498.35
  Q 270.24 499.46 268.43 500.00
  Z
  M 343.66 259.10
  L 343.26 260.00
  Q 343.08 260.39 342.97 259.97
  Q 342.05 256.38 341.69 251.73
  Q 340.99 242.63 338.25 232.63
  Q 338.09 232.05 337.75 232.55
  C 331.31 241.77 328.02 251.88 324.77 263.00
  Q 322.32 271.40 323.10 279.61
  Q 323.14 280.05 323.35 280.33
  Q 323.71 280.81 324.02 280.77
  Q 324.10 281.82 323.59 281.97
  C 311.57 279.26 301.60 281.60 287.26 283.74
  C 284.84 284.10 271.34 284.49 266.66 282.02
  Q 266.23 281.79 265.86 282.11
  L 259.53 287.61
  L 249.16 295.02
  A 0.27 0.27 0.0 0 0 249.40 295.50
  Q 257.02 293.15 265.25 292.36
  Q 266.25 292.26 266.38 292.37
  A 2.09 2.09 0.0 0 1 266.29 295.56
  Q 248.72 309.68 228.76 318.96
  C 220.83 322.65 212.79 326.89 204.55 329.68
  C 198.45 331.75 192.60 333.99 186.00 333.45
  Q 185.51 333.41 185.32 332.96
  C 180.23 321.50 178.78 314.26 176.59 303.90
  L 174.04 289.72
  C 170.95 264.88 171.00 241.34 171.74 215.59
  L 174.95 178.73
  A 0.29 0.29 0.0 0 0 174.42 178.54
  Q 164.63 192.63 161.75 211.77
  A 0.06 0.05 -43.6 0 1 161.64 211.77
  Q 161.18 204.15 163.54 197.00
  L 167.74 187.08
  A 1.04 1.04 0.0 0 0 167.72 186.23
  Q 165.61 181.73 162.13 178.13
  Q 161.85 177.84 161.44 177.92
  L 144.13 181.33
  Q 143.73 181.40 143.84 181.79
  L 146.94 192.53
  L 148.60 196.72
  A 0.53 0.53 0.0 0 1 147.73 197.30
  Q 143.30 192.94 137.49 190.70
  A 0.46 0.46 0.0 0 0 136.88 191.26
  C 138.38 196.21 144.10 208.52 149.23 210.70
  Q 149.67 210.88 149.50 211.34
  L 143.67 226.48
  Q 135.92 247.33 131.35 269.84
  Q 131.21 270.54 131.85 270.87
  L 142.03 276.11
  L 150.69 281.23
  A 0.56 0.55 -61.5 0 1 150.90 281.96
  Q 150.67 282.40 150.32 282.19
  C 138.77 275.02 124.59 267.61 111.47 265.93
  A 1.09 1.09 0.0 0 0 110.32 267.41
  C 116.55 283.43 130.68 298.05 144.60 307.87
  A 0.53 0.53 0.0 0 1 144.22 308.82
  Q 133.50 307.23 123.02 309.94
  Q 121.73 310.27 122.77 311.10
  Q 133.11 319.37 144.81 323.04
  C 145.99 323.42 146.49 323.00 147.54 323.10
  A 0.56 0.56 0.0 0 1 147.72 324.17
  Q 140.71 327.47 135.61 333.34
  Q 134.86 334.21 136.00 334.31
  L 153.25 335.79
  Q 150.58 337.01 146.01 336.80
  L 140.19 336.02
  A 0.65 0.65 0.0 0 0 139.46 336.79
  C 142.77 354.58 145.61 372.87 146.44 390.93
  C 147.06 404.21 146.64 415.75 143.22 427.00
  Q 140.76 435.09 136.14 445.63
  L 128.69 462.53
  Q 128.48 463.00 128.99 462.94
  L 138.58 461.86
  Q 139.17 461.79 139.36 461.22
  L 142.94 450.62
  L 148.38 439.87
  Q 148.62 439.39 149.15 439.49
  Q 149.42 439.54 149.65 439.77
  Q 148.19 441.57 147.95 442.19
  C 144.34 451.50 140.38 459.92 139.72 469.88
  A 0.40 0.40 0.0 0 0 140.43 470.15
  L 147.97 460.75
  A 0.67 0.67 0.0 0 1 149.15 461.01
  Q 152.19 473.61 159.48 484.31
  A 0.42 0.42 0.0 0 0 160.23 484.20
  Q 161.22 480.85 162.28 477.30
  Q 162.34 477.10 162.54 477.04
  Q 163.02 476.91 162.94 477.40
  L 162.49 480.24
  Q 162.41 480.80 162.78 481.21
  L 168.97 487.96
  Q 170.91 490.07 170.74 487.21
  Q 170.53 483.80 171.71 480.68
  Q 171.87 480.24 172.30 480.42
  Q 174.39 481.33 177.59 481.28
  Q 185.12 482.01 194.15 480.63
  A 0.41 0.41 0.0 0 0 194.46 480.06
  L 192.30 474.97
  A 1.09 1.07 52.0 0 1 192.42 473.91
  Q 198.18 465.98 202.04 456.97
  A 0.39 0.39 0.0 0 0 201.47 456.49
  L 195.59 460.35
  A 1.66 1.61 89.0 0 0 195.05 460.93
  L 192.15 466.10
  A 0.42 0.42 0.0 0 1 191.40 465.74
  C 196.04 454.24 200.46 443.19 203.80 430.84
  A 0.97 0.97 0.0 0 0 202.29 429.81
  Q 196.72 433.90 192.16 439.06
  Q 191.83 439.44 191.80 439.95
  Q 191.50 446.19 191.46 452.43
  Q 191.45 452.81 191.18 452.89
  Q 190.80 453.01 190.76 452.62
  C 189.41 441.08 190.16 430.42 190.88 415.68
  Q 191.22 408.61 192.91 400.96
  Q 193.25 399.39 191.69 399.75
  C 180.38 402.37 189.70 391.77 191.72 389.62
  A 0.25 0.25 0.0 0 0 191.45 389.22
  Q 181.95 392.97 171.74 393.85
  A 0.80 0.79 81.8 0 1 170.90 393.21
  C 169.78 387.70 187.89 375.79 191.70 373.95
  Q 194.25 372.72 191.91 374.33
  Q 181.24 381.69 172.89 391.64
  Q 172.50 392.11 173.10 392.05
  C 181.68 391.32 189.67 388.26 197.48 384.98
  A 0.43 0.43 0.0 0 1 197.94 385.70
  Q 192.08 390.89 187.97 397.57
  A 0.84 0.84 0.0 0 0 188.83 398.84
  Q 199.35 396.90 208.61 391.57
  Q 209.06 391.32 209.06 390.80
  Q 209.10 379.79 207.39 370.13
  L 206.37 359.62
  Q 206.32 359.09 206.83 359.24
  Q 207.27 359.37 207.42 360.07
  C 209.07 367.84 210.15 375.06 210.41 383.39
  C 210.77 394.89 211.32 405.77 210.53 417.93
  C 209.06 440.68 210.32 465.97 197.23 486.77
  Q 196.39 488.11 195.13 488.90
  A 0.42 0.42 0.0 0 0 195.45 489.66
  L 199.54 488.66
  Q 199.93 488.57 200.04 488.17
  C 202.48 479.46 214.05 474.94 222.45 474.75
  L 227.96 474.73
  Q 228.51 474.73 228.40 474.19
  L 226.64 465.82
  L 225.98 452.76
  Q 226.11 452.75 226.24 452.75
  Q 227.57 457.43 228.39 465.06
  Q 229.56 475.94 233.73 486.02
  A 0.45 0.45 0.0 0 0 234.59 485.94
  L 237.94 469.89
  A 0.42 0.41 -36.4 0 1 238.76 470.01
  L 238.00 477.54
  Q 237.95 478.04 238.26 478.44
  L 244.82 487.02
  L 250.67 492.82
  A 0.39 0.39 0.0 0 0 251.33 492.48
  L 249.82 483.62
  L 249.44 478.20
  Q 249.41 477.66 249.92 477.82
  Q 250.21 477.92 250.23 478.25
  Q 250.34 480.01 250.74 481.79
  L 253.08 493.44
  A 1.26 1.25 8.0 0 1 251.27 494.80
  L 247.69 492.93
  A 0.62 0.62 0.0 0 0 246.79 493.40
  L 246.73 493.82
  A 0.77 0.76 9.3 0 0 247.34 494.66
  L 266.47 498.33
  A 0.55 0.55 0.0 0 0 266.88 497.34
  L 262.54 494.44
  A 0.49 0.49 0.0 0 1 262.78 493.54
  L 275.54 492.83
  A 0.64 0.64 0.0 0 0 275.96 491.74
  L 270.99 486.73
  Q 270.59 486.33 270.02 486.40
  L 269.31 486.50
  Q 268.53 486.61 268.89 485.91
  Q 276.19 471.99 281.53 457.21
  A 0.64 0.64 0.0 0 0 280.67 456.41
  L 274.32 459.18
  A 1.27 1.25 87.0 0 0 273.63 459.96
  Q 272.58 463.24 271.64 466.41
  Q 271.26 467.71 269.92 467.73
  Q 276.99 444.52 278.97 420.51
  Q 279.09 419.00 277.95 418.49
  A 0.59 0.59 0.0 0 0 277.25 418.65
  L 261.92 437.34
  A 0.83 0.82 -33.4 0 0 261.77 438.05
  Q 263.81 445.69 264.55 453.55
  A 0.05 0.05 0.0 0 1 264.46 453.57
  C 262.44 446.77 260.43 439.88 259.13 433.13
  Q 253.37 403.32 256.51 373.01
  Q 257.20 366.38 258.92 359.97
  Q 258.98 359.74 259.21 359.75
  Q 259.36 359.75 259.53 359.74
  Q 259.88 359.72 259.83 360.07
  L 258.17 371.14
  L 257.06 386.30
  Q 257.00 387.11 257.60 386.56
  L 268.02 377.02
  A 0.42 0.42 0.0 0 1 268.66 377.56
  Q 264.86 383.43 262.82 390.12
  A 0.49 0.49 0.0 0 0 263.47 390.72
  Q 280.28 383.95 291.35 369.63
  Q 291.49 369.44 291.67 369.59
  Q 291.78 369.68 291.81 369.82
  Q 291.84 369.99 291.70 370.21
  Q 288.91 374.70 284.75 378.98
  L 276.00 385.68
  A 1.46 1.46 0.0 0 0 275.67 387.65
  Q 282.56 398.07 290.65 407.37
  C 299.98 418.11 303.19 441.50 300.19 455.01
  C 299.29 458.53 296.93 460.91 295.13 463.79
  Q 293.97 465.65 292.22 467.46
  Q 291.77 467.94 291.83 468.50
  Q 291.88 469.03 292.25 468.64
  Q 300.87 459.42 313.60 461.71
  C 314.61 461.89 315.46 462.61 316.50 462.96
  A 0.35 0.34 88.3 0 0 316.93 462.50
  L 314.74 457.22
  L 314.49 454.75
  Q 314.37 453.50 314.95 454.62
  L 316.45 457.48
  L 321.82 468.99
  A 0.39 0.39 0.0 0 0 322.53 468.98
  Q 322.91 468.12 322.72 467.17
  A 0.97 0.92 50.7 0 1 322.76 466.63
  L 323.75 463.73
  A 0.28 0.28 0.0 0 1 324.29 463.86
  L 324.04 465.98
  A 0.63 0.61 -61.7 0 0 324.17 466.44
  Q 327.28 470.37 331.52 473.40
  L 334.74 475.91
  Q 335.29 476.34 335.91 476.02
  Q 337.86 475.04 339.43 476.79
  A 0.50 0.50 0.0 0 0 340.22 476.72
  L 347.53 465.29
  A 1.77 1.72 61.4 0 0 347.80 464.32
  C 347.71 458.08 346.92 451.85 346.72 445.72
  Q 346.43 436.83 345.18 428.01
  C 344.60 423.91 335.74 415.09 332.81 411.66
  C 329.96 408.34 329.65 404.12 326.59 401.06
  C 320.58 395.05 313.26 388.37 308.45 381.42
  Q 306.94 379.24 305.53 377.53
  L 297.51 365.64
  L 297.15 364.42
  A 0.48 0.48 0.0 0 1 298.01 364.02
  Q 302.43 370.66 307.18 376.98
  C 315.37 387.88 325.64 397.88 335.66 407.23
  C 341.78 412.95 345.61 417.85 346.76 426.41
  Q 347.99 435.70 348.27 445.05
  C 348.47 451.98 351.42 462.00 347.56 468.05
  Q 342.55 475.91 337.47 483.79
  Q 337.20 484.22 337.69 484.36
  Q 339.51 484.87 340.24 483.29
  C 344.77 473.46 355.16 471.52 365.27 471.77
  Q 365.93 471.78 365.64 471.20
  Q 363.32 466.54 361.92 461.58
  Q 361.89 461.48 361.78 461.31
  Q 361.63 461.11 361.76 460.94
  Q 361.95 460.71 362.03 460.99
  C 363.92 467.52 370.82 475.32 375.77 480.45
  Q 376.15 480.84 376.12 480.29
  L 375.62 472.04
  A 0.36 0.36 0.0 0 1 376.34 471.98
  L 376.65 474.72
  Q 376.71 475.24 377.20 475.45
  Q 382.76 477.85 386.00 483.04
  Q 387.07 485.26 386.86 487.62
  Q 386.81 488.12 387.24 488.39
  L 393.60 492.38
  Q 394.21 492.76 394.16 492.04
  L 393.95 489.09
  A 1.47 1.47 0.0 0 1 395.96 487.62
  L 405.78 491.54
  A 0.32 0.32 0.0 0 0 406.15 491.04
  Q 404.29 488.74 403.50 485.85
  Q 403.34 485.29 403.91 485.37
  L 416.42 487.10
  A 0.37 0.37 0.0 0 0 416.78 486.54
  L 411.12 477.57
  Q 410.82 477.10 410.29 476.90
  L 409.73 476.70
  Q 409.33 476.55 409.55 476.17
  Q 409.75 475.82 409.66 475.43
  L 410.04 474.58
  Q 420.19 461.64 426.65 445.99
  A 0.59 0.58 -7.1 0 0 425.76 445.30
  Q 420.59 449.14 416.36 454.58
  Q 414.02 457.59 411.80 460.29
  A 0.37 0.37 0.0 0 1 411.18 459.91
  C 412.52 456.97 413.92 454.39 414.90 451.51
  C 419.68 437.43 422.77 426.09 423.74 412.71
  A 0.63 0.62 -17.5 0 0 422.72 412.18
  Q 406.65 425.19 397.69 443.80
  Q 397.17 444.87 397.22 443.69
  Q 397.29 441.42 398.34 439.43
  Q 398.56 439.00 398.41 438.54
  Q 391.67 419.02 382.31 400.67
  C 378.12 392.49 372.63 385.20 369.77 375.95
  Q 368.68 372.44 367.00 364.50
  Q 362.94 345.32 357.69 326.48
  Q 354.49 313.12 348.13 300.82
  Q 348.91 300.85 349.40 301.30
  C 349.69 303.84 351.66 305.65 352.50 307.24
  Q 356.67 315.03 358.41 323.74
  Q 358.51 324.23 359.01 324.28
  C 373.71 325.78 389.16 318.96 399.39 308.95
  A 0.36 0.36 0.0 0 0 399.18 308.34
  Q 393.07 307.64 386.95 308.28
  A 0.41 0.37 21.3 0 0 386.74 308.36
  L 378.57 313.82
  A 0.23 0.23 0.0 0 1 378.29 313.45
  C 387.77 305.45 397.63 297.74 404.62 286.54
  Q 409.72 278.37 413.08 269.30
  C 416.91 258.86 420.89 243.66 419.90 233.71
  A 0.57 0.57 0.0 0 0 418.95 233.35
  Q 415.27 236.64 412.30 240.65
  C 408.83 245.34 409.42 252.03 406.97 257.38
  A 0.28 0.27 -27.6 0 1 406.45 257.22
  L 408.20 248.23
  Q 411.12 231.31 409.02 214.20
  C 406.92 197.07 404.33 180.86 396.89 165.07
  Q 396.52 164.29 396.04 165.01
  C 393.09 169.49 391.76 180.14 393.39 184.40
  Q 400.32 202.44 402.86 220.73
  Q 402.92 221.20 402.35 221.52
  Q 402.00 221.72 401.92 221.32
  C 397.70 198.76 390.52 174.80 376.89 156.69
  C 375.61 154.99 373.72 153.57 372.05 152.34
  A 1.02 1.02 0.0 0 0 370.44 153.02
  Q 367.06 177.98 362.15 202.72
  Q 356.72 230.02 343.54 250.93
  Q 343.28 251.35 343.30 251.84
  L 343.66 259.10
  Z
  M 343.18 421.77
  Q 343.41 422.06 343.74 421.87
  Q 344.14 421.64 343.93 421.01
  C 341.71 414.32 337.00 410.90 332.14 406.03
  A 0.38 0.37 22.7 0 0 331.50 406.29
  L 331.50 407.21
  Q 331.50 407.75 331.84 408.16
  L 343.18 421.77
  Z"
/>
<g stroke-width="2.00" fill="none" stroke-linecap="butt">
<path stroke="#e8efe1" vector-effect="non-scaling-stroke" d="
  M 239.49 74.19
  Q 238.69 74.18 238.07 74.76
  A 1.26 1.25 -66.5 0 1 237.25 75.09
  C 230.92 75.21 222.67 76.49 218.84 80.95
  Q 217.15 82.93 215.62 83.99
  C 211.26 87.00 206.58 91.80 200.92 91.78
  Q 189.83 91.74 179.11 88.80
  Q 178.63 88.67 178.15 88.80
  Q 169.02 91.45 160.85 96.24
  C 155.20 99.55 148.49 99.16 140.23 99.74
  A 0.63 0.62 -0.9 0 1 139.56 99.10
  C 139.58 97.49 140.28 96.20 141.75 95.13
  Q 144.62 93.06 145.67 89.12
  A 1.45 1.45 0.0 0 0 144.30 87.29
  L 137.67 87.15
  A 3.26 3.26 0.0 0 0 134.66 89.02
  L 132.47 93.68
  A 1.46 1.44 -2.3 0 1 131.85 94.34
  C 129.20 95.78 125.19 98.49 122.27 98.94
  C 119.29 99.39 116.28 97.34 113.75 96.04"
/>
<path stroke="#c9cdbf" vector-effect="non-scaling-stroke" d="
  M 267.56 121.46
  C 252.39 132.01 235.47 137.64 217.41 141.34"
/>
<path stroke="#e8efe1" vector-effect="non-scaling-stroke" d="
  M 236.59 230.76
  Q 231.37 233.81 227.53 237.94
  C 225.43 240.19 223.39 240.80 223.30 244.68
  A 0.85 0.84 81.3 0 1 222.73 245.47
  L 219.04 246.76
  Q 218.71 246.88 218.48 247.14
  L 214.26 252.02
  Q 213.92 252.42 213.40 252.55
  C 210.74 253.22 204.29 252.29 202.19 250.20
  Q 201.99 250.00 202.27 250.00
  L 202.73 250.00
  Q 203.80 250.00 202.79 249.64
  C 199.83 248.58 197.01 247.56 193.94 246.80
  Q 191.42 246.18 189.77 243.91
  A 1.46 1.42 -7.8 0 0 189.05 243.38
  C 186.82 242.62 185.67 243.80 184.76 245.88
  Q 183.67 248.38 181.43 249.92
  A 0.05 0.05 0.0 0 0 181.46 250.01
  Q 181.63 250.00 181.81 250.00
  A 0.16 0.16 0.0 0 1 181.88 250.31
  Q 177.85 252.17 173.29 252.50"
/>
<path stroke="#e8efe1" vector-effect="non-scaling-stroke" d="
  M 181.63 119.70
  C 184.22 123.46 188.50 130.02 193.50 129.75
  Q 198.22 129.50 199.83 130.81"
/>
<path stroke="#e8efe1" vector-effect="non-scaling-stroke" d="
  M 146.73 133.81
  Q 141.64 134.13 140.70 131.10
  A 0.90 0.89 83.7 0 0 139.92 130.47
  L 129.30 129.57"
/>
<path stroke="#999c94" vector-effect="non-scaling-stroke" d="
  M 129.30 129.57
  L 129.22 126.88
  A 0.07 0.06 52.2 0 0 129.09 126.86
  L 127.81 132.95"
/>
<path stroke="#e8efe1" vector-effect="non-scaling-stroke" d="
  M 127.81 132.95
  Q 122.21 133.04 118.47 129.06
  A 0.56 0.56 0.0 0 0 117.52 129.32
  L 117.41 129.76"
/>
<path stroke="#c9cdbf" vector-effect="non-scaling-stroke" d="
  M 115.30 145.74
  L 101.08 141.51"
/>
<path stroke="#e8efe1" vector-effect="non-scaling-stroke" d="
  M 112.54 96.29
  C 110.20 96.90 108.70 100.57 107.68 102.61
  Q 107.47 103.04 107.01 103.20
  Q 102.74 104.63 102.45 109.36"
/>
<path stroke="#ced0c1" vector-effect="non-scaling-stroke" d="
  M 135.05 159.62
  L 132.09 154.81
  Q 131.69 154.15 131.83 154.91
  Q 132.37 157.70 134.77 159.76"
/>
<path stroke="#c9cdbf" vector-effect="non-scaling-stroke" d="
  M 287.80 150.54
  Q 283.89 153.05 283.00 157.46"
/>
<path stroke="#9e9e97" vector-effect="non-scaling-stroke" d="
  M 129.30 129.57
  C 127.99 138.64 129.63 145.66 131.63 153.85
  A 0.04 0.03 -69.0 0 1 131.57 153.88
  Q 126.48 144.16 127.81 132.95"
/>
<path stroke="#7d7b7b" vector-effect="non-scaling-stroke" d="
  M 100.23 165.50
  Q 100.25 165.87 100.46 166.12
  Q 100.63 166.32 101.01 166.35
  C 105.83 166.70 109.04 166.45 114.16 164.93
  Q 118.47 163.65 123.02 164.56
  Q 125.67 165.09 126.34 163.24
  A 1.12 1.11 -77.2 0 0 125.41 161.76
  Q 120.10 161.20 115.19 158.98
  A 1.28 1.23 47.8 0 0 114.30 158.92
  Q 112.44 159.50 111.17 159.25"
/>
<path stroke="#ced0c1" vector-effect="non-scaling-stroke" d="
  M 166.25 146.71
  L 161.23 147.96"
/>
<path stroke="#ced0c1" vector-effect="non-scaling-stroke" d="
  M 146.80 157.04
  Q 148.41 154.76 151.72 153.21"
/>
<path stroke="#787d76" vector-effect="non-scaling-stroke" d="
  M 343.66 259.10
  L 343.26 260.00
  Q 343.08 260.39 342.97 259.97
  Q 342.05 256.38 341.69 251.73
  Q 340.99 242.63 338.25 232.63
  Q 338.09 232.05 337.75 232.55
  C 331.31 241.77 328.02 251.88 324.77 263.00
  Q 322.32 271.40 323.10 279.61
  Q 323.14 280.05 323.35 280.33
  Q 323.71 280.81 324.02 280.77"
/>
<path stroke="#2f2d2c" vector-effect="non-scaling-stroke" d="
  M 324.02 280.77
  Q 324.10 281.82 323.59 281.97"
/>
<path stroke="#7e8078" vector-effect="non-scaling-stroke" d="
  M 323.59 281.97
  C 311.57 279.26 301.60 281.60 287.26 283.74
  C 284.84 284.10 271.34 284.49 266.66 282.02
  Q 266.23 281.79 265.86 282.11
  L 259.53 287.61"
/>
<path stroke="#787d76" vector-effect="non-scaling-stroke" d="
  M 259.53 287.61
  L 249.16 295.02
  A 0.27 0.27 0.0 0 0 249.40 295.50
  Q 257.02 293.15 265.25 292.36
  Q 266.25 292.26 266.38 292.37
  A 2.09 2.09 0.0 0 1 266.29 295.56
  Q 248.72 309.68 228.76 318.96
  C 220.83 322.65 212.79 326.89 204.55 329.68
  C 198.45 331.75 192.60 333.99 186.00 333.45
  Q 185.51 333.41 185.32 332.96
  C 180.23 321.50 178.78 314.26 176.59 303.90"
/>
<path stroke="#7e8078" vector-effect="non-scaling-stroke" d="
  M 176.59 303.90
  L 174.04 289.72"
/>
<path stroke="#787d76" vector-effect="non-scaling-stroke" d="
  M 174.04 289.72
  C 170.95 264.88 171.00 241.34 171.74 215.59"
/>
<path stroke="#5f5e56" vector-effect="non-scaling-stroke" d="
  M 171.74 215.59
  L 174.95 178.73
  A 0.29 0.29 0.0 0 0 174.42 178.54
  Q 164.63 192.63 161.75 211.77
  A 0.06 0.05 -43.6 0 1 161.64 211.77
  Q 161.18 204.15 163.54 197.00"
/>
<path stroke="#545252" vector-effect="non-scaling-stroke" d="
  M 163.54 197.00
  L 167.74 187.08
  A 1.04 1.04 0.0 0 0 167.72 186.23
  Q 165.61 181.73 162.13 178.13
  Q 161.85 177.84 161.44 177.92
  L 144.13 181.33
  Q 143.73 181.40 143.84 181.79
  L 146.94 192.53"
/>
<path stroke="#5f5e56" vector-effect="non-scaling-stroke" d="
  M 146.94 192.53
  L 148.60 196.72
  A 0.53 0.53 0.0 0 1 147.73 197.30
  Q 143.30 192.94 137.49 190.70
  A 0.46 0.46 0.0 0 0 136.88 191.26
  C 138.38 196.21 144.10 208.52 149.23 210.70
  Q 149.67 210.88 149.50 211.34
  L 143.67 226.48"
/>
<path stroke="#787d76" vector-effect="non-scaling-stroke" d="
  M 143.67 226.48
  Q 135.92 247.33 131.35 269.84
  Q 131.21 270.54 131.85 270.87
  L 142.03 276.11"
/>
<path stroke="#7e8078" vector-effect="non-scaling-stroke" d="
  M 142.03 276.11
  L 150.69 281.23
  A 0.56 0.55 -61.5 0 1 150.90 281.96
  Q 150.67 282.40 150.32 282.19
  C 138.77 275.02 124.59 267.61 111.47 265.93
  A 1.09 1.09 0.0 0 0 110.32 267.41
  C 116.55 283.43 130.68 298.05 144.60 307.87
  A 0.53 0.53 0.0 0 1 144.22 308.82
  Q 133.50 307.23 123.02 309.94
  Q 121.73 310.27 122.77 311.10
  Q 133.11 319.37 144.81 323.04
  C 145.99 323.42 146.49 323.00 147.54 323.10
  A 0.56 0.56 0.0 0 1 147.72 324.17
  Q 140.71 327.47 135.61 333.34
  Q 134.86 334.21 136.00 334.31
  L 153.25 335.79"
/>
<path stroke="#787d76" vector-effect="non-scaling-stroke" d="
  M 153.25 335.79
  Q 150.58 337.01 146.01 336.80"
/>
<path stroke="#5f5e56" vector-effect="non-scaling-stroke" d="
  M 146.01 336.80
  L 140.19 336.02
  A 0.65 0.65 0.0 0 0 139.46 336.79
  C 142.77 354.58 145.61 372.87 146.44 390.93
  C 147.06 404.21 146.64 415.75 143.22 427.00
  Q 140.76 435.09 136.14 445.63"
/>
<path stroke="#787d76" vector-effect="non-scaling-stroke" d="
  M 136.14 445.63
  L 128.69 462.53
  Q 128.48 463.00 128.99 462.94
  L 138.58 461.86
  Q 139.17 461.79 139.36 461.22
  L 142.94 450.62"
/>
<path stroke="#5f5e56" vector-effect="non-scaling-stroke" d="
  M 142.94 450.62
  L 148.38 439.87
  Q 148.62 439.39 149.15 439.49
  Q 149.42 439.54 149.65 439.77"
/>
<path stroke="#787d76" vector-effect="non-scaling-stroke" d="
  M 149.65 439.77
  Q 148.19 441.57 147.95 442.19
  C 144.34 451.50 140.38 459.92 139.72 469.88
  A 0.40 0.40 0.0 0 0 140.43 470.15
  L 147.97 460.75
  A 0.67 0.67 0.0 0 1 149.15 461.01
  Q 152.19 473.61 159.48 484.31
  A 0.42 0.42 0.0 0 0 160.23 484.20
  Q 161.22 480.85 162.28 477.30
  Q 162.34 477.10 162.54 477.04
  Q 163.02 476.91 162.94 477.40
  L 162.49 480.24
  Q 162.41 480.80 162.78 481.21
  L 168.97 487.96
  Q 170.91 490.07 170.74 487.21
  Q 170.53 483.80 171.71 480.68
  Q 171.87 480.24 172.30 480.42
  Q 174.39 481.33 177.59 481.28"
/>
<path stroke="#5f5e56" vector-effect="non-scaling-stroke" d="
  M 177.59 481.28
  Q 185.12 482.01 194.15 480.63
  A 0.41 0.41 0.0 0 0 194.46 480.06
  L 192.30 474.97
  A 1.09 1.07 52.0 0 1 192.42 473.91
  Q 198.18 465.98 202.04 456.97
  A 0.39 0.39 0.0 0 0 201.47 456.49
  L 195.59 460.35
  A 1.66 1.61 89.0 0 0 195.05 460.93
  L 192.15 466.10
  A 0.42 0.42 0.0 0 1 191.40 465.74
  C 196.04 454.24 200.46 443.19 203.80 430.84
  A 0.97 0.97 0.0 0 0 202.29 429.81
  Q 196.72 433.90 192.16 439.06
  Q 191.83 439.44 191.80 439.95
  Q 191.50 446.19 191.46 452.43
  Q 191.45 452.81 191.18 452.89
  Q 190.80 453.01 190.76 452.62
  C 189.41 441.08 190.16 430.42 190.88 415.68
  Q 191.22 408.61 192.91 400.96
  Q 193.25 399.39 191.69 399.75
  C 180.38 402.37 189.70 391.77 191.72 389.62
  A 0.25 0.25 0.0 0 0 191.45 389.22
  Q 181.95 392.97 171.74 393.85
  A 0.80 0.79 81.8 0 1 170.90 393.21
  C 169.78 387.70 187.89 375.79 191.70 373.95
  Q 194.25 372.72 191.91 374.33
  Q 181.24 381.69 172.89 391.64
  Q 172.50 392.11 173.10 392.05
  C 181.68 391.32 189.67 388.26 197.48 384.98
  A 0.43 0.43 0.0 0 1 197.94 385.70
  Q 192.08 390.89 187.97 397.57
  A 0.84 0.84 0.0 0 0 188.83 398.84
  Q 199.35 396.90 208.61 391.57
  Q 209.06 391.32 209.06 390.80
  Q 209.10 379.79 207.39 370.13"
/>
<path stroke="#787d76" vector-effect="non-scaling-stroke" d="
  M 207.39 370.13
  L 206.37 359.62
  Q 206.32 359.09 206.83 359.24
  Q 207.27 359.37 207.42 360.07
  C 209.07 367.84 210.15 375.06 210.41 383.39
  C 210.77 394.89 211.32 405.77 210.53 417.93
  C 209.06 440.68 210.32 465.97 197.23 486.77
  Q 196.39 488.11 195.13 488.90
  A 0.42 0.42 0.0 0 0 195.45 489.66
  L 199.54 488.66
  Q 199.93 488.57 200.04 488.17
  C 202.48 479.46 214.05 474.94 222.45 474.75"
/>
<path stroke="#5f5e56" vector-effect="non-scaling-stroke" d="
  M 222.45 474.75
  L 227.96 474.73
  Q 228.51 474.73 228.40 474.19
  L 226.64 465.82"
/>
<path stroke="#787d76" vector-effect="non-scaling-stroke" d="
  M 226.64 465.82
  L 225.98 452.76"
/>
<path stroke="#5f5e56" vector-effect="non-scaling-stroke" d="
  M 225.98 452.76
  Q 226.11 452.75 226.24 452.75"
/>
<path stroke="#787d76" vector-effect="non-scaling-stroke" d="
  M 226.24 452.75
  Q 227.57 457.43 228.39 465.06
  Q 229.56 475.94 233.73 486.02
  A 0.45 0.45 0.0 0 0 234.59 485.94
  L 237.94 469.89
  A 0.42 0.41 -36.4 0 1 238.76 470.01
  L 238.00 477.54
  Q 237.95 478.04 238.26 478.44
  L 244.82 487.02"
/>
<path stroke="#5f5e56" vector-effect="non-scaling-stroke" d="
  M 244.82 487.02
  L 250.67 492.82
  A 0.39 0.39 0.0 0 0 251.33 492.48
  L 249.82 483.62"
/>
<path stroke="#787d76" vector-effect="non-scaling-stroke" d="
  M 249.82 483.62
  L 249.44 478.20
  Q 249.41 477.66 249.92 477.82
  Q 250.21 477.92 250.23 478.25
  Q 250.34 480.01 250.74 481.79"
/>
<path stroke="#5f5e56" vector-effect="non-scaling-stroke" d="
  M 250.74 481.79
  L 253.08 493.44
  A 1.26 1.25 8.0 0 1 251.27 494.80
  L 247.69 492.93
  A 0.62 0.62 0.0 0 0 246.79 493.40
  L 246.73 493.82
  A 0.77 0.76 9.3 0 0 247.34 494.66
  L 266.47 498.33
  A 0.55 0.55 0.0 0 0 266.88 497.34
  L 262.54 494.44
  A 0.49 0.49 0.0 0 1 262.78 493.54
  L 275.54 492.83
  A 0.64 0.64 0.0 0 0 275.96 491.74
  L 270.99 486.73
  Q 270.59 486.33 270.02 486.40
  L 269.31 486.50
  Q 268.53 486.61 268.89 485.91
  Q 276.19 471.99 281.53 457.21
  A 0.64 0.64 0.0 0 0 280.67 456.41
  L 274.32 459.18
  A 1.27 1.25 87.0 0 0 273.63 459.96
  Q 272.58 463.24 271.64 466.41
  Q 271.26 467.71 269.92 467.73"
/>
<path stroke="#787d76" vector-effect="non-scaling-stroke" d="
  M 269.92 467.73
  Q 276.99 444.52 278.97 420.51
  Q 279.09 419.00 277.95 418.49
  A 0.59 0.59 0.0 0 0 277.25 418.65
  L 261.92 437.34
  A 0.83 0.82 -33.4 0 0 261.77 438.05
  Q 263.81 445.69 264.55 453.55
  A 0.05 0.05 0.0 0 1 264.46 453.57
  C 262.44 446.77 260.43 439.88 259.13 433.13
  Q 253.37 403.32 256.51 373.01
  Q 257.20 366.38 258.92 359.97
  Q 258.98 359.74 259.21 359.75
  Q 259.36 359.75 259.53 359.74
  Q 259.88 359.72 259.83 360.07
  L 258.17 371.14"
/>
<path stroke="#5f5e56" vector-effect="non-scaling-stroke" d="
  M 258.17 371.14
  L 257.06 386.30
  Q 257.00 387.11 257.60 386.56
  L 268.02 377.02
  A 0.42 0.42 0.0 0 1 268.66 377.56
  Q 264.86 383.43 262.82 390.12
  A 0.49 0.49 0.0 0 0 263.47 390.72
  Q 280.28 383.95 291.35 369.63
  Q 291.49 369.44 291.67 369.59
  Q 291.78 369.68 291.81 369.82
  Q 291.84 369.99 291.70 370.21
  Q 288.91 374.70 284.75 378.98"
/>
<path stroke="#545252" vector-effect="non-scaling-stroke" d="
  M 284.75 378.98
  L 276.00 385.68
  A 1.46 1.46 0.0 0 0 275.67 387.65
  Q 282.56 398.07 290.65 407.37
  C 299.98 418.11 303.19 441.50 300.19 455.01"
/>
<path stroke="#5f5e56" vector-effect="non-scaling-stroke" d="
  M 300.19 455.01
  C 299.29 458.53 296.93 460.91 295.13 463.79
  Q 293.97 465.65 292.22 467.46
  Q 291.77 467.94 291.83 468.50
  Q 291.88 469.03 292.25 468.64
  Q 300.87 459.42 313.60 461.71
  C 314.61 461.89 315.46 462.61 316.50 462.96
  A 0.35 0.34 88.3 0 0 316.93 462.50
  L 314.74 457.22"
/>
<path stroke="#545252" vector-effect="non-scaling-stroke" d="
  M 314.74 457.22
  L 314.49 454.75
  Q 314.37 453.50 314.95 454.62
  L 316.45 457.48"
/>
<path stroke="#5f5e56" vector-effect="non-scaling-stroke" d="
  M 316.45 457.48
  L 321.82 468.99
  A 0.39 0.39 0.0 0 0 322.53 468.98
  Q 322.91 468.12 322.72 467.17
  A 0.97 0.92 50.7 0 1 322.76 466.63
  L 323.75 463.73
  A 0.28 0.28 0.0 0 1 324.29 463.86
  L 324.04 465.98
  A 0.63 0.61 -61.7 0 0 324.17 466.44
  Q 327.28 470.37 331.52 473.40"
/>
<path stroke="#545252" vector-effect="non-scaling-stroke" d="
  M 331.52 473.40
  L 334.74 475.91
  Q 335.29 476.34 335.91 476.02
  Q 337.86 475.04 339.43 476.79
  A 0.50 0.50 0.0 0 0 340.22 476.72
  L 347.53 465.29
  A 1.77 1.72 61.4 0 0 347.80 464.32
  C 347.71 458.08 346.92 451.85 346.72 445.72
  Q 346.43 436.83 345.18 428.01
  C 344.60 423.91 335.74 415.09 332.81 411.66
  C 329.96 408.34 329.65 404.12 326.59 401.06
  C 320.58 395.05 313.26 388.37 308.45 381.42
  Q 306.94 379.24 305.53 377.53"
/>
<path stroke="#5f5e56" vector-effect="non-scaling-stroke" d="
  M 305.53 377.53
  L 297.51 365.64"
/>
<path stroke="#787d76" vector-effect="non-scaling-stroke" d="
  M 297.51 365.64
  L 297.15 364.42
  A 0.48 0.48 0.0 0 1 298.01 364.02
  Q 302.43 370.66 307.18 376.98
  C 315.37 387.88 325.64 397.88 335.66 407.23
  C 341.78 412.95 345.61 417.85 346.76 426.41
  Q 347.99 435.70 348.27 445.05
  C 348.47 451.98 351.42 462.00 347.56 468.05
  Q 342.55 475.91 337.47 483.79
  Q 337.20 484.22 337.69 484.36
  Q 339.51 484.87 340.24 483.29
  C 344.77 473.46 355.16 471.52 365.27 471.77
  Q 365.93 471.78 365.64 471.20
  Q 363.32 466.54 361.92 461.58
  Q 361.89 461.48 361.78 461.31
  Q 361.63 461.11 361.76 460.94
  Q 361.95 460.71 362.03 460.99
  C 363.92 467.52 370.82 475.32 375.77 480.45
  Q 376.15 480.84 376.12 480.29
  L 375.62 472.04
  A 0.36 0.36 0.0 0 1 376.34 471.98
  L 376.65 474.72
  Q 376.71 475.24 377.20 475.45
  Q 382.76 477.85 386.00 483.04"
/>
<path stroke="#5f5e56" vector-effect="non-scaling-stroke" d="
  M 386.00 483.04
  Q 387.07 485.26 386.86 487.62
  Q 386.81 488.12 387.24 488.39
  L 393.60 492.38
  Q 394.21 492.76 394.16 492.04
  L 393.95 489.09
  A 1.47 1.47 0.0 0 1 395.96 487.62
  L 405.78 491.54
  A 0.32 0.32 0.0 0 0 406.15 491.04
  Q 404.29 488.74 403.50 485.85
  Q 403.34 485.29 403.91 485.37
  L 416.42 487.10
  A 0.37 0.37 0.0 0 0 416.78 486.54
  L 411.12 477.57
  Q 410.82 477.10 410.29 476.90
  L 409.73 476.70
  Q 409.33 476.55 409.55 476.17
  Q 409.75 475.82 409.66 475.43"
/>
<path stroke="#787d76" vector-effect="non-scaling-stroke" d="
  M 409.66 475.43
  L 410.04 474.58"
/>
<path stroke="#7e8078" vector-effect="non-scaling-stroke" d="
  M 410.04 474.58
  Q 420.19 461.64 426.65 445.99
  A 0.59 0.58 -7.1 0 0 425.76 445.30
  Q 420.59 449.14 416.36 454.58
  Q 414.02 457.59 411.80 460.29
  A 0.37 0.37 0.0 0 1 411.18 459.91
  C 412.52 456.97 413.92 454.39 414.90 451.51
  C 419.68 437.43 422.77 426.09 423.74 412.71
  A 0.63 0.62 -17.5 0 0 422.72 412.18
  Q 406.65 425.19 397.69 443.80
  Q 397.17 444.87 397.22 443.69
  Q 397.29 441.42 398.34 439.43
  Q 398.56 439.00 398.41 438.54
  Q 391.67 419.02 382.31 400.67"
/>
<path stroke="#787d76" vector-effect="non-scaling-stroke" d="
  M 382.31 400.67
  C 378.12 392.49 372.63 385.20 369.77 375.95
  Q 368.68 372.44 367.00 364.50
  Q 362.94 345.32 357.69 326.48"
/>
<path stroke="#7e8078" vector-effect="non-scaling-stroke" d="
  M 357.69 326.48
  Q 354.49 313.12 348.13 300.82"
/>
<path stroke="#787d76" vector-effect="non-scaling-stroke" d="
  M 348.13 300.82
  Q 348.91 300.85 349.40 301.30"
/>
<path stroke="#5f5e56" vector-effect="non-scaling-stroke" d="
  M 349.40 301.30
  C 349.69 303.84 351.66 305.65 352.50 307.24
  Q 356.67 315.03 358.41 323.74
  Q 358.51 324.23 359.01 324.28
  C 373.71 325.78 389.16 318.96 399.39 308.95
  A 0.36 0.36 0.0 0 0 399.18 308.34
  Q 393.07 307.64 386.95 308.28
  A 0.41 0.37 21.3 0 0 386.74 308.36
  L 378.57 313.82
  A 0.23 0.23 0.0 0 1 378.29 313.45
  C 387.77 305.45 397.63 297.74 404.62 286.54
  Q 409.72 278.37 413.08 269.30"
/>
<path stroke="#787d76" vector-effect="non-scaling-stroke" d="
  M 413.08 269.30
  C 416.91 258.86 420.89 243.66 419.90 233.71
  A 0.57 0.57 0.0 0 0 418.95 233.35
  Q 415.27 236.64 412.30 240.65
  C 408.83 245.34 409.42 252.03 406.97 257.38
  A 0.28 0.27 -27.6 0 1 406.45 257.22
  L 408.20 248.23"
/>
<path stroke="#7e8078" vector-effect="non-scaling-stroke" d="
  M 408.20 248.23
  Q 411.12 231.31 409.02 214.20
  C 406.92 197.07 404.33 180.86 396.89 165.07
  Q 396.52 164.29 396.04 165.01
  C 393.09 169.49 391.76 180.14 393.39 184.40
  Q 400.32 202.44 402.86 220.73
  Q 402.92 221.20 402.35 221.52
  Q 402.00 221.72 401.92 221.32
  C 397.70 198.76 390.52 174.80 376.89 156.69
  C 375.61 154.99 373.72 153.57 372.05 152.34
  A 1.02 1.02 0.0 0 0 370.44 153.02
  Q 367.06 177.98 362.15 202.72
  Q 356.72 230.02 343.54 250.93
  Q 343.28 251.35 343.30 251.84
  L 343.66 259.10"
/>
<path stroke="#e8efe1" vector-effect="non-scaling-stroke" d="
  M 408.20 248.23
  Q 407.36 247.62 406.51 248.55
  A 0.10 0.10 0.0 0 1 406.34 248.51
  Q 406.28 248.34 406.22 248.19
  Q 406.07 247.80 405.66 247.87
  Q 397.30 249.36 390.47 254.35
  Q 390.08 254.64 390.01 255.12
  Q 389.92 255.65 389.51 255.75
  Q 384.60 256.94 381.48 260.28
  C 377.98 264.03 375.85 262.57 371.82 264.55
  Q 369.25 265.81 364.70 265.66
  Q 364.22 265.64 363.81 265.38
  Q 361.42 263.84 358.79 262.90
  C 354.67 261.42 351.91 258.78 346.94 261.13
  Q 346.51 261.34 346.06 261.17
  Q 344.23 260.47 343.66 259.10"
/>
<path stroke="#c9cdbf" vector-effect="non-scaling-stroke" d="
  M 413.08 269.30
  Q 410.38 270.82 409.17 273.68
  A 0.47 0.47 0.0 0 1 408.36 273.77
  L 407.06 272.05
  Q 406.75 271.63 406.88 271.12
  Q 407.41 269.00 408.47 267.08
  Q 408.53 266.99 408.51 266.92
  Q 408.48 266.82 408.33 266.74
  Q 408.18 266.67 408.09 266.81
  Q 400.94 276.70 392.19 285.18
  Q 391.80 285.55 391.29 285.48
  Q 390.55 285.38 391.07 284.85
  C 393.16 282.71 393.15 280.27 394.24 278.12
  Q 395.08 276.47 395.89 274.89
  A 0.34 0.34 0.0 0 0 395.36 274.49
  C 384.60 284.78 370.41 293.09 358.19 299.19
  Q 354.95 300.81 349.40 301.30"
/>
<path stroke="#e8efe1" vector-effect="non-scaling-stroke" d="
  M 348.13 300.82
  Q 346.01 296.91 342.43 294.13"
/>
<path stroke="#999c94" vector-effect="non-scaling-stroke" d="
  M 342.43 294.13
  C 340.04 288.05 329.94 282.78 324.02 280.77"
/>
<path stroke="#9e9e97" vector-effect="non-scaling-stroke" d="
  M 323.59 281.97
  Q 334.06 285.92 342.43 294.13"
/>
<path stroke="#e8efe1" vector-effect="non-scaling-stroke" d="
  M 357.69 326.48
  Q 356.62 328.42 354.65 326.88
  A 0.54 0.52 47.1 0 0 354.04 326.85
  L 342.61 334.07
  Q 342.11 334.38 341.66 334.01
  Q 336.98 330.18 331.43 327.75
  C 327.18 325.90 326.90 321.70 322.18 320.22
  C 315.71 318.19 309.75 317.89 303.36 316.33
  Q 302.91 316.23 302.49 316.42
  Q 297.91 318.58 294.75 315.32
  C 291.34 311.80 289.67 312.19 285.34 311.00
  Q 284.92 310.88 284.68 310.50
  L 283.34 308.39
  Q 283.01 307.87 282.40 307.83
  Q 280.69 307.71 279.18 306.99
  A 0.50 0.50 0.0 0 1 279.01 306.21
  L 280.81 304.06
  Q 281.21 303.59 280.90 303.05
  Q 279.69 300.95 280.99 299.06
  A 0.60 0.60 0.0 0 0 280.84 298.23
  C 277.77 296.16 275.20 295.67 272.75 292.45
  C 270.49 289.49 266.75 291.22 263.87 290.18
  Q 261.32 289.26 259.53 287.61"
/>
<path stroke="#e8efe1" vector-effect="non-scaling-stroke" d="
  M 382.31 400.67
  Q 381.50 401.63 380.62 401.53
  Q 379.44 401.38 379.39 401.39
  C 377.04 401.76 377.64 403.34 376.87 404.77
  Q 375.58 407.18 373.62 405.44
  Q 371.16 403.25 369.20 404.89
  A 0.62 0.61 29.2 0 1 368.69 405.03
  Q 366.68 404.65 365.07 405.77
  Q 364.39 406.25 365.21 406.25
  L 365.74 406.25
  Q 366.07 406.25 365.83 406.48
  Q 362.80 409.45 359.64 412.28
  C 356.68 414.92 355.64 419.83 355.17 423.58
  C 354.83 426.34 351.53 431.01 355.98 432.58
  Q 359.95 433.99 361.75 436.67
  C 361.98 437.01 362.49 437.33 362.84 437.48
  Q 363.25 437.65 363.56 437.96
  L 367.80 442.09
  A 0.72 0.69 -76.1 0 1 367.98 442.40
  Q 369.99 450.15 377.35 451.36
  C 381.48 452.04 392.66 447.36 392.52 454.89
  Q 392.52 455.30 392.72 455.66
  L 393.68 457.31
  A 0.65 0.65 0.0 0 1 393.68 457.95
  L 392.28 460.47
  Q 392.08 460.82 392.13 461.22
  Q 392.37 463.38 393.96 462.92
  A 0.69 0.68 -19.9 0 1 394.78 463.30
  L 396.02 466.04
  Q 396.24 466.53 396.76 466.67
  Q 398.30 467.08 399.73 467.69
  C 401.95 468.63 403.64 471.52 405.71 473.11
  Q 405.84 473.21 405.97 473.20
  Q 406.13 473.19 406.25 473.07
  Q 406.47 472.86 406.74 472.99
  L 410.04 474.58"
/>
<path stroke="#c9cdbf" vector-effect="non-scaling-stroke" d="
  M 409.66 475.43
  Q 408.41 476.66 406.76 476.84
  Q 406.27 476.89 405.85 477.15
  Q 402.87 479.01 399.50 478.76
  Q 397.88 478.64 396.92 479.57
  Q 396.56 479.91 396.08 480.05
  L 386.00 483.04"
/>
<path stroke="#c9cdbf" vector-effect="non-scaling-stroke" d="
  M 297.51 365.64
  Q 292.79 366.84 288.04 367.48
  C 278.04 368.85 268.33 370.64 258.17 371.14"
/>
<path stroke="#c9cdbf" vector-effect="non-scaling-stroke" d="
  M 269.92 467.73
  L 264.45 477.53
  A 0.87 0.87 0.0 0 1 262.85 476.90
  L 263.40 474.60
  Q 263.55 474.00 262.93 474.00
  L 261.92 474.00
  Q 261.30 474.00 261.53 473.43
  L 262.15 471.89
  A 0.43 0.43 0.0 0 0 261.70 471.30
  Q 260.61 471.43 260.14 472.69
  Q 259.02 475.63 256.87 477.82
  A 1.54 1.49 13.7 0 1 256.17 478.23
  C 253.68 478.89 253.99 481.33 250.74 481.79"
/>
<path stroke="#c9cdbf" vector-effect="non-scaling-stroke" d="
  M 249.82 483.62
  L 244.82 487.02"
/>
<path stroke="#c9cdbf" vector-effect="non-scaling-stroke" d="
  M 226.24 452.75
  L 226.52 447.69
  Q 226.52 447.59 226.43 447.56
  Q 226.30 447.52 226.18 447.48
  Q 226.04 447.43 226.04 447.58
  L 225.98 452.76"
/>
<path stroke="#c9cdbf" vector-effect="non-scaling-stroke" d="
  M 226.64 465.82
  L 222.45 474.75"
/>
<path stroke="#c9cdbf" vector-effect="non-scaling-stroke" d="
  M 207.39 370.13
  Q 204.52 368.23 201.84 367.70
  C 192.34 365.83 182.20 361.88 175.30 358.46
  C 170.82 356.24 162.13 351.62 155.55 346.29
  Q 153.68 344.77 151.57 344.13"
/>
<path stroke="#787d76" vector-effect="non-scaling-stroke" d="
  M 151.57 344.13
  Q 151.40 343.37 150.38 342.63"
/>
<path stroke="#c9cdbf" vector-effect="non-scaling-stroke" d="
  M 150.38 342.63
  L 146.01 336.80"
/>
<path stroke="#5f5e56" vector-effect="non-scaling-stroke" d="
  M 150.38 342.63
  C 150.56 347.14 161.28 359.59 165.37 359.89
  A 0.38 0.38 0.0 0 0 165.62 359.21
  Q 157.23 353.10 151.57 344.13"
/>
<path stroke="#c9cdbf" vector-effect="non-scaling-stroke" d="
  M 177.59 481.28
  Q 175.61 475.46 177.02 471.13
  Q 177.16 470.72 176.84 470.42
  C 172.59 466.50 167.10 463.89 162.19 460.96
  C 159.53 459.37 158.87 457.37 158.45 454.51
  A 0.41 0.41 0.0 0 0 157.63 454.53
  L 156.82 463.09
  Q 156.76 463.76 156.34 463.23
  C 153.84 460.14 156.73 450.98 153.60 449.69
  Q 153.11 449.49 153.17 448.97
  L 153.81 443.23
  A 0.40 0.39 -32.2 0 0 153.04 443.06
  L 150.46 450.31
  A 0.35 0.34 53.2 0 1 149.79 450.21
  C 149.47 445.32 150.41 441.56 150.88 436.74
  Q 150.98 435.72 150.51 436.63
  Q 149.83 437.97 149.65 439.77"
/>
<path stroke="#c9cdbf" vector-effect="non-scaling-stroke" d="
  M 142.94 450.62
  Q 140.42 447.58 136.14 445.63"
/>
<path stroke="#e8efe1" vector-effect="non-scaling-stroke" d="
  M 176.59 303.90
  L 171.42 306.32
  Q 171.01 306.52 170.84 306.94
  Q 170.17 308.58 168.51 308.29
  C 160.83 306.92 154.83 313.64 149.96 318.49
  A 0.47 0.47 0.0 0 0 150.06 319.24
  Q 158.37 323.88 153.73 332.74
  A 0.92 0.90 -42.7 0 0 153.69 333.51
  Q 154.23 334.89 153.25 335.79"
/>
<path stroke="#a4a29b" vector-effect="non-scaling-stroke" d="
  M 305.53 377.53
  C 301.08 378.72 299.45 382.22 295.09 383.34
  A 0.68 0.64 -39.8 0 1 294.63 383.31
  L 289.48 381.01
  Q 289.13 380.86 288.93 380.53
  Q 287.99 378.95 284.75 378.98"
/>
<path stroke="#e8efe1" vector-effect="non-scaling-stroke" d="
  M 174.04 289.72
  Q 168.49 290.53 162.99 289.31
  A 1.39 1.38 0.3 0 1 161.92 288.23
  C 161.24 284.87 161.26 281.45 159.64 278.50
  Q 158.18 275.85 156.22 273.51
  Q 155.91 273.13 155.42 273.12
  Q 148.28 272.97 142.03 276.11"
/>
<path stroke="#a4a29b" vector-effect="non-scaling-stroke" d="
  M 331.52 473.40
  C 334.48 472.13 334.95 469.24 333.38 466.55
  Q 329.54 459.96 322.15 457.30
  C 320.81 456.82 319.60 457.31 318.25 456.55
  Q 317.83 456.32 317.39 456.52
  Q 316.65 456.86 316.45 457.48"
/>
<path stroke="#a4a29b" vector-effect="non-scaling-stroke" d="
  M 314.74 457.22
  L 307.88 457.54
  Q 307.26 457.57 306.88 457.07
  L 305.66 455.45
  A 1.03 1.03 0.0 0 0 304.86 455.04
  L 300.19 455.01"
/>
<path stroke="#c9cdbf" vector-effect="non-scaling-stroke" d="
  M 171.74 215.59
  Q 166.55 217.66 163.27 222.17
  Q 163.14 222.35 162.94 222.23
  L 162.65 222.06
  A 0.37 0.36 -47.4 0 0 162.24 222.08
  C 160.84 223.16 158.70 227.02 157.98 227.34
  Q 157.44 227.58 156.82 227.31
  Q 156.33 227.10 156.02 227.53
  L 153.53 230.95
  Q 153.08 231.55 153.02 230.80
  Q 152.92 229.66 153.51 228.46
  A 1.94 1.94 0.0 0 0 151.57 225.67
  L 143.67 226.48"
/>
<path stroke="#a4a29b" vector-effect="non-scaling-stroke" d="
  M 163.54 197.00
  Q 157.11 196.71 152.04 192.95
  Q 151.67 192.67 151.21 192.73
  Q 149.10 193.02 147.81 191.42
  A 0.46 0.45 40.4 0 0 147.06 191.48
  Q 146.83 191.88 146.94 192.53"
/>
<path stroke="#a4a29b" vector-effect="non-scaling-stroke" d="
  M 145.20 219.00
  Q 141.20 219.58 137.22 221.88
  Q 135.24 223.02 133.46 223.05
  C 131.35 223.08 124.27 222.58 123.16 220.55
  Q 120.15 215.02 113.84 215.31
  A 1.45 1.44 61.5 0 1 112.90 215.03
  Q 108.32 211.75 105.64 214.33"
/>
<path stroke="#c9cdbf" vector-effect="non-scaling-stroke" d="
  M 125.35 323.17
  Q 119.16 320.90 113.08 320.70
  A 1.33 1.31 68.2 0 1 112.16 320.30
  Q 109.66 317.71 106.23 317.31"
/>
<path stroke="#585655" vector-effect="non-scaling-stroke" d="
  M 136.80 479.06
  Q 130.75 480.81 124.02 478.68"
/>
<path stroke="#585655" vector-effect="non-scaling-stroke" d="
  M 365.16 487.52
  Q 359.29 488.41 357.25 488.00
  Q 354.27 487.41 352.62 487.78"
/>
<path stroke="#585655" vector-effect="non-scaling-stroke" d="
  M 350.83 486.38
  L 346.88 486.25
  Q 346.41 486.24 346.05 485.94
  Q 344.75 484.90 342.27 484.97"
/>
<path stroke="#585655" vector-effect="non-scaling-stroke" d="
  M 243.04 487.75
  Q 236.46 490.34 229.31 491.15"
/>
<path stroke="#7d7b7b" vector-effect="non-scaling-stroke" d="
  M 228.77 483.24
  Q 228.79 482.42 228.07 482.43
  Q 221.28 482.49 216.75 481.94"
/>
<path stroke="#7d7b7b" vector-effect="non-scaling-stroke" d="
  M 215.01 481.68
  L 207.39 480.71"
/>
<path stroke="#7d7b7b" vector-effect="non-scaling-stroke" d="
  M 227.61 485.73
  C 225.23 486.57 223.57 487.46 220.95 487.34
  Q 216.75 487.14 212.34 487.39"
/>
<path stroke="#7d7b7b" vector-effect="non-scaling-stroke" d="
  M 210.91 486.98
  C 207.69 486.31 207.82 483.91 206.77 481.47"
/>
<path stroke="#585655" vector-effect="non-scaling-stroke" d="
  M 227.43 491.04
  L 212.41 490.84
  Q 211.86 490.84 211.79 490.30
  L 211.64 489.20"
/>
</g>
<path fill="#edf1e3" d="
  M 239.49 74.19
  Q 238.69 74.18 238.07 74.76
  A 1.26 1.25 -66.5 0 1 237.25 75.09
  C 230.92 75.21 222.67 76.49 218.84 80.95
  Q 217.15 82.93 215.62 83.99
  C 211.26 87.00 206.58 91.80 200.92 91.78
  Q 189.83 91.74 179.11 88.80
  Q 178.63 88.67 178.15 88.80
  Q 169.02 91.45 160.85 96.24
  C 155.20 99.55 148.49 99.16 140.23 99.74
  A 0.63 0.62 -0.9 0 1 139.56 99.10
  C 139.58 97.49 140.28 96.20 141.75 95.13
  Q 144.62 93.06 145.67 89.12
  A 1.45 1.45 0.0 0 0 144.30 87.29
  L 137.67 87.15
  A 3.26 3.26 0.0 0 0 134.66 89.02
  L 132.47 93.68
  A 1.46 1.44 -2.3 0 1 131.85 94.34
  C 129.20 95.78 125.19 98.49 122.27 98.94
  C 119.29 99.39 116.28 97.34 113.75 96.04
  Q 109.16 93.40 104.76 90.44
  C 101.28 88.10 98.65 80.80 97.58 77.48
  C 91.44 58.45 90.23 39.82 97.00 21.31
  Q 97.86 18.95 99.25 21.05
  Q 100.49 22.90 101.91 26.25
  Q 110.54 46.51 118.28 67.11
  A 1.62 1.60 42.9 0 1 118.32 68.10
  Q 115.32 78.64 114.41 86.96
  Q 114.34 87.62 114.87 88.15
  Q 115.23 88.50 115.30 88.00
  C 117.37 73.74 121.32 59.72 129.15 47.38
  C 135.40 37.52 141.72 30.17 150.85 23.17
  C 162.12 14.52 175.04 4.73 189.00 1.51
  A 0.37 0.37 0.0 0 1 189.43 2.01
  C 183.37 16.98 176.48 32.81 166.82 45.79
  A 0.14 0.14 0.0 0 0 167.01 45.98
  C 173.12 41.46 174.58 32.57 180.55 28.75
  Q 192.95 20.84 207.26 18.07
  A 0.67 0.66 11.4 0 1 207.94 19.09
  Q 197.58 34.59 183.42 46.93
  Q 182.46 47.76 182.08 48.56
  Q 181.67 49.41 182.43 48.86
  Q 190.76 42.80 197.46 34.98
  A 1.23 1.22 17.8 0 1 198.30 34.55
  C 228.86 31.82 261.15 47.00 285.75 63.89
  A 0.47 0.47 0.0 0 1 285.64 64.72
  C 271.28 69.97 254.28 70.98 240.32 73.58
  Q 239.82 73.67 239.49 74.19
  Z"
/>
<path fill="#edf1e3" d="
  M 112.54 96.29
  C 110.20 96.90 108.70 100.57 107.68 102.61
  Q 107.47 103.04 107.01 103.20
  Q 102.74 104.63 102.45 109.36
  C 90.09 102.01 80.17 88.05 79.99 73.29
  A 0.56 0.56 0.0 0 1 80.93 72.88
  C 90.80 82.26 98.74 89.74 112.54 96.29
  Z"
/>
<path fill="#e2ecde" d="
  M 267.56 121.46
  C 252.39 132.01 235.47 137.64 217.41 141.34
  L 214.34 132.92
  Q 214.21 132.54 214.26 132.14
  Q 214.32 131.73 214.07 131.44
  Q 213.60 130.89 213.69 131.53
  C 214.86 139.71 217.62 148.12 219.84 156.09
  C 226.73 180.82 231.37 205.66 236.59 230.76
  Q 231.37 233.81 227.53 237.94
  C 225.43 240.19 223.39 240.80 223.30 244.68
  A 0.85 0.84 81.3 0 1 222.73 245.47
  L 219.04 246.76
  Q 218.71 246.88 218.48 247.14
  L 214.26 252.02
  Q 213.92 252.42 213.40 252.55
  C 210.74 253.22 204.29 252.29 202.19 250.20
  Q 201.99 250.00 202.27 250.00
  L 202.73 250.00
  Q 203.80 250.00 202.79 249.64
  C 199.83 248.58 197.01 247.56 193.94 246.80
  Q 191.42 246.18 189.77 243.91
  A 1.46 1.42 -7.8 0 0 189.05 243.38
  C 186.82 242.62 185.67 243.80 184.76 245.88
  Q 183.67 248.38 181.43 249.92
  A 0.05 0.05 0.0 0 0 181.46 250.01
  Q 181.63 250.00 181.81 250.00
  A 0.16 0.16 0.0 0 1 181.88 250.31
  Q 177.85 252.17 173.29 252.50
  Q 171.64 215.41 176.47 178.09
  C 177.35 171.20 178.10 162.49 179.40 154.79
  A 0.60 0.60 0.0 0 1 180.16 154.31
  L 187.99 156.60
  A 1.06 1.06 0.0 0 0 189.26 155.17
  L 185.38 146.07
  Q 185.13 145.47 185.66 145.10
  Q 205.77 131.01 216.35 108.82
  Q 216.87 107.72 216.96 107.06
  A 2.05 2.05 0.0 0 0 214.53 104.77
  C 202.70 107.07 191.80 111.92 181.53 118.16
  Q 181.07 118.44 180.60 118.19
  Q 172.60 114.07 163.75 112.38
  Q 161.76 112.00 163.64 112.75
  L 178.63 118.68
  Q 179.51 119.02 178.78 119.62
  Q 174.02 123.53 171.32 126.77
  Q 171.07 127.06 171.27 127.27
  Q 171.53 127.53 171.82 127.31
  L 181.63 119.70
  C 184.22 123.46 188.50 130.02 193.50 129.75
  Q 198.22 129.50 199.83 130.81
  Q 193.45 138.20 185.81 143.36
  C 185.03 143.89 184.10 143.95 183.37 143.44
  A 0.44 0.44 0.0 0 0 182.71 143.98
  L 187.27 153.95
  Q 187.50 154.45 186.97 154.31
  C 171.42 150.38 160.23 140.88 149.08 130.17
  Q 148.63 129.74 148.37 130.30
  L 146.73 133.81
  Q 141.64 134.13 140.70 131.10
  A 0.90 0.89 83.7 0 0 139.92 130.47
  L 129.30 129.57
  L 129.22 126.88
  A 0.07 0.06 52.2 0 0 129.09 126.86
  L 127.81 132.95
  Q 122.21 133.04 118.47 129.06
  A 0.56 0.56 0.0 0 0 117.52 129.32
  L 117.41 129.76
  Q 116.66 120.66 118.57 111.34
  A 0.19 0.19 0.0 0 0 118.21 111.23
  C 114.53 119.83 115.33 130.60 117.43 139.51
  Q 117.55 139.99 117.37 140.45
  L 115.30 145.74
  L 101.08 141.51
  Q 100.61 134.96 103.39 127.07
  A 0.49 0.49 0.0 0 0 102.50 126.68
  Q 100.60 130.40 100.01 134.54
  Q 99.93 135.12 99.40 135.36
  L 84.15 142.42
  Q 83.22 142.85 83.64 141.91
  Q 92.10 123.16 109.44 112.09
  A 0.45 0.45 0.0 0 0 109.05 111.28
  L 107.41 111.84
  Q 106.98 111.99 106.60 111.77
  L 102.45 109.36
  Q 102.74 104.63 107.01 103.20
  Q 107.47 103.04 107.68 102.61
  C 108.70 100.57 110.20 96.90 112.54 96.29
  Q 113.31 96.37 113.75 96.04
  C 116.28 97.34 119.29 99.39 122.27 98.94
  C 125.19 98.49 129.20 95.78 131.85 94.34
  A 1.46 1.44 -2.3 0 0 132.47 93.68
  L 134.66 89.02
  A 3.26 3.26 0.0 0 1 137.67 87.15
  L 144.30 87.29
  A 1.45 1.45 0.0 0 1 145.67 89.12
  Q 144.62 93.06 141.75 95.13
  C 140.28 96.20 139.58 97.49 139.56 99.10
  A 0.63 0.62 -0.9 0 0 140.23 99.74
  C 148.49 99.16 155.20 99.55 160.85 96.24
  Q 169.02 91.45 178.15 88.80
  Q 178.63 88.67 179.11 88.80
  Q 189.83 91.74 200.92 91.78
  C 206.58 91.80 211.26 87.00 215.62 83.99
  Q 217.15 82.93 218.84 80.95
  C 222.67 76.49 230.92 75.21 237.25 75.09
  A 1.26 1.25 -66.5 0 0 238.07 74.76
  Q 238.69 74.18 239.49 74.19
  C 242.80 75.67 247.31 72.51 251.89 74.71
  Q 274.71 85.67 292.46 103.54
  A 0.58 0.58 0.0 0 1 292.24 104.49
  Q 283.40 107.59 274.11 108.85
  A 1.04 1.00 -34.8 0 1 273.49 108.75
  L 271.21 107.60
  A 0.38 0.38 0.0 0 0 270.83 108.26
  L 282.42 115.95
  A 0.52 0.52 0.0 0 1 282.21 116.89
  C 277.63 117.59 267.47 118.61 263.64 115.76
  A 0.30 0.29 -1.1 0 0 263.23 116.18
  L 267.56 121.46
  Z"
/>
<path fill="#edf1e3" d="
  M 199.83 130.81
  Q 198.22 129.50 193.50 129.75
  C 188.50 130.02 184.22 123.46 181.63 119.70
  Q 196.74 110.09 214.25 105.59
  A 1.15 1.15 0.0 0 1 215.62 107.09
  C 214.36 110.52 212.38 113.39 210.41 116.48
  Q 205.50 124.21 199.83 130.81
  Z"
/>
<path fill="#afae9f" d="
  M 267.56 121.46
  C 275.50 130.16 280.89 139.42 287.80 150.54
  Q 283.89 153.05 283.00 157.46
  L 254.87 148.93
  Q 254.28 148.75 254.47 149.34
  C 256.19 154.82 260.23 160.39 262.64 166.22
  Q 263.45 168.21 261.46 167.39
  L 237.03 157.38
  A 1.29 1.28 9.2 0 0 235.26 158.65
  C 236.04 171.91 234.53 186.65 232.50 199.51
  A 0.36 0.35 -46.3 0 1 231.80 199.53
  Q 226.00 170.14 217.41 141.34
  C 235.47 137.64 252.39 132.01 267.56 121.46
  Z"
/>
<path fill="#4f4b4a" d="
  M 129.30 129.57
  C 127.99 138.64 129.63 145.66 131.63 153.85
  A 0.04 0.03 -69.0 0 1 131.57 153.88
  Q 126.48 144.16 127.81 132.95
  L 129.09 126.86
  A 0.07 0.06 52.2 0 1 129.22 126.88
  L 129.30 129.57
  Z"
/>
<path fill="#edf1e3" d="
  M 127.81 132.95
  Q 126.48 144.16 131.57 153.88
  A 0.04 0.03 -69.0 0 0 131.63 153.85
  C 129.63 145.66 127.99 138.64 129.30 129.57
  L 139.92 130.47
  A 0.90 0.89 83.7 0 1 140.70 131.10
  Q 141.64 134.13 146.73 133.81
  Q 143.14 150.58 143.84 165.83
  A 0.44 0.44 0.0 0 1 143.13 166.19
  L 135.05 159.62
  L 132.09 154.81
  Q 131.69 154.15 131.83 154.91
  Q 132.37 157.70 134.77 159.76
  L 137.54 163.16
  Q 137.77 163.44 137.52 163.71
  Q 137.30 163.96 137.02 163.74
  C 126.06 155.48 118.15 144.41 117.41 129.76
  L 117.52 129.32
  A 0.56 0.56 0.0 0 1 118.47 129.06
  Q 122.21 133.04 127.81 132.95
  Z"
/>
<path fill="#61605f" d="
  M 161.31 143.00
  Q 161.62 143.27 161.33 143.57
  C 158.31 146.60 150.56 149.47 146.48 151.02
  A 0.45 0.44 81.6 0 1 145.88 150.57
  C 146.14 146.71 146.56 136.43 149.93 134.01
  A 0.76 0.76 0.0 0 1 150.87 134.05
  L 161.31 143.00
  Z"
/>
<path fill="#afae9f" d="
  M 101.08 141.51
  L 115.30 145.74
  Q 113.05 150.23 111.30 156.32
  Q 110.60 158.75 106.80 160.49
  Q 106.40 160.67 106.17 160.30
  Q 100.99 151.98 101.08 141.51
  Z"
/>
<path fill="#61605f" d="
  M 100.23 165.50
  Q 100.25 165.87 100.46 166.12
  Q 100.63 166.32 101.01 166.35
  C 105.83 166.70 109.04 166.45 114.16 164.93
  Q 118.47 163.65 123.02 164.56
  Q 125.67 165.09 126.34 163.24
  A 1.12 1.11 -77.2 0 0 125.41 161.76
  Q 120.10 161.20 115.19 158.98
  A 1.28 1.23 47.8 0 0 114.30 158.92
  Q 112.44 159.50 111.17 159.25
  L 117.80 142.99
  A 0.43 0.43 0.0 0 1 118.60 142.99
  C 122.98 153.93 132.86 165.72 144.62 168.60
  A 0.57 0.56 6.4 0 0 145.32 168.05
  L 145.22 158.82
  A 0.90 0.90 0.0 0 1 146.59 158.05
  C 157.04 164.57 165.09 160.65 170.21 150.07
  Q 170.47 149.53 171.00 149.79
  L 177.80 153.16
  A 0.75 0.74 17.4 0 1 178.20 153.92
  L 176.21 169.36
  Q 176.16 169.76 175.87 170.02
  Q 175.01 170.77 173.95 171.23
  C 149.65 181.68 119.02 183.34 94.72 173.52
  A 0.58 0.58 0.0 0 1 94.75 172.43
  Q 98.87 171.02 98.49 166.83
  Q 98.44 166.37 98.85 166.17
  L 100.23 165.50
  Z"
/>
<path fill="#afae9f" d="
  M 166.25 146.71
  L 161.23 147.96
  Q 160.26 145.55 162.69 144.64
  Q 163.19 144.45 163.62 144.77
  L 166.25 146.71
  Z"
/>
<path fill="#edf1e3" d="
  M 166.25 146.71
  C 168.23 147.47 168.93 148.86 168.01 150.91
  Q 161.82 164.79 146.80 157.04
  Q 148.41 154.76 151.72 153.21
  Q 153.24 157.19 157.68 157.19
  C 161.03 157.19 161.58 150.13 161.23 147.96
  L 166.25 146.71
  Z"
/>
<path fill="#999596" d="
  M 158.05 147.35
  A 0.97 0.97 0.0 0 1 159.34 147.83
  L 159.47 148.11
  A 6.10 4.03 65.3 0 1 158.35 155.33
  L 158.19 155.41
  A 6.10 4.03 65.3 0 1 151.98 151.55
  L 151.85 151.27
  A 0.97 0.97 0.0 0 1 152.33 149.98
  L 158.05 147.35
  Z"
/>
<path fill="#e2ecde" d="
  M 287.80 150.54
  L 292.11 158.41
  Q 292.48 159.09 291.72 158.96
  L 283.00 157.46
  Q 283.89 153.05 287.80 150.54
  Z"
/>
<path fill="#afae9f" d="
  M 151.72 153.21
  Q 148.41 154.76 146.80 157.04
  L 145.87 156.29
  Q 145.43 155.94 145.53 155.39
  Q 146.79 148.24 151.72 153.21
  Z"
/>
<path fill="#edf1e3" d="
  M 408.20 248.23
  Q 407.36 247.62 406.51 248.55
  A 0.10 0.10 0.0 0 1 406.34 248.51
  Q 406.28 248.34 406.22 248.19
  Q 406.07 247.80 405.66 247.87
  Q 397.30 249.36 390.47 254.35
  Q 390.08 254.64 390.01 255.12
  Q 389.92 255.65 389.51 255.75
  Q 384.60 256.94 381.48 260.28
  C 377.98 264.03 375.85 262.57 371.82 264.55
  Q 369.25 265.81 364.70 265.66
  Q 364.22 265.64 363.81 265.38
  Q 361.42 263.84 358.79 262.90
  C 354.67 261.42 351.91 258.78 346.94 261.13
  Q 346.51 261.34 346.06 261.17
  Q 344.23 260.47 343.66 259.10
  L 343.30 251.84
  Q 343.28 251.35 343.54 250.93
  Q 356.72 230.02 362.15 202.72
  Q 367.06 177.98 370.44 153.02
  A 1.02 1.02 0.0 0 1 372.05 152.34
  C 373.72 153.57 375.61 154.99 376.89 156.69
  C 390.52 174.80 397.70 198.76 401.92 221.32
  Q 402.00 221.72 402.35 221.52
  Q 402.92 221.20 402.86 220.73
  Q 400.32 202.44 393.39 184.40
  C 391.76 180.14 393.09 169.49 396.04 165.01
  Q 396.52 164.29 396.89 165.07
  C 404.33 180.86 406.92 197.07 409.02 214.20
  Q 411.12 231.31 408.20 248.23
  Z"
/>
<path fill="#afae9f" d="
  M 135.05 159.62
  Q 134.91 159.69 134.77 159.76
  Q 132.37 157.70 131.83 154.91
  Q 131.69 154.15 132.09 154.81
  L 135.05 159.62
  Z"
/>
<path fill="#999596" d="
  M 100.23 165.50
  L 111.17 159.25
  Q 112.44 159.50 114.30 158.92
  A 1.28 1.23 47.8 0 1 115.19 158.98
  Q 120.10 161.20 125.41 161.76
  A 1.12 1.11 -77.2 0 1 126.34 163.24
  Q 125.67 165.09 123.02 164.56
  Q 118.47 163.65 114.16 164.93
  C 109.04 166.45 105.83 166.70 101.01 166.35
  Q 100.63 166.32 100.46 166.12
  Q 100.25 165.87 100.23 165.50
  Z"
/>
<path fill="#6c939e" d="
  M 76.56 161.05
  C 82.79 158.28 94.63 160.89 97.58 167.87
  Q 97.78 168.34 97.47 168.76
  C 90.44 178.08 66.39 165.57 76.56 161.05
  Z"
/>
<path fill="#edf1e3" d="
  M 79.6784 162.6915
  A 1.64 0.91 2.5 0 1 78.0003 163.5291
  A 1.64 0.91 2.5 0 1 76.4016 162.5485
  A 1.64 0.91 2.5 0 1 78.0797 161.7109
  A 1.64 0.91 2.5 0 1 79.6784 162.6915
  Z"
/>
<path fill="#4f4b4a" d="
  M 169.69 183.53
  A 0.97 0.96 47.3 0 1 168.11 183.46
  L 164.26 177.53
  A 0.50 0.50 0.0 0 1 164.49 176.80
  L 175.01 172.44
  A 0.63 0.63 0.0 0 1 175.82 173.29
  Q 173.35 178.75 169.69 183.53
  Z"
/>
<path fill="#999596" d="
  M 163.54 197.00
  Q 157.11 196.71 152.04 192.95
  Q 151.67 192.67 151.21 192.73
  Q 149.10 193.02 147.81 191.42
  A 0.46 0.45 40.4 0 0 147.06 191.48
  Q 146.83 191.88 146.94 192.53
  L 143.84 181.79
  Q 143.73 181.40 144.13 181.33
  L 161.44 177.92
  Q 161.85 177.84 162.13 178.13
  Q 165.61 181.73 167.72 186.23
  A 1.04 1.04 0.0 0 1 167.74 187.08
  L 163.54 197.00
  Z"
/>
<path fill="#afae9f" d="
  M 171.74 215.59
  Q 166.55 217.66 163.27 222.17
  Q 163.14 222.35 162.94 222.23
  L 162.65 222.06
  A 0.37 0.36 -47.4 0 0 162.24 222.08
  C 160.84 223.16 158.70 227.02 157.98 227.34
  Q 157.44 227.58 156.82 227.31
  Q 156.33 227.10 156.02 227.53
  L 153.53 230.95
  Q 153.08 231.55 153.02 230.80
  Q 152.92 229.66 153.51 228.46
  A 1.94 1.94 0.0 0 0 151.57 225.67
  L 143.67 226.48
  L 149.50 211.34
  Q 149.67 210.88 149.23 210.70
  C 144.10 208.52 138.38 196.21 136.88 191.26
  A 0.46 0.46 0.0 0 1 137.49 190.70
  Q 143.30 192.94 147.73 197.30
  A 0.53 0.53 0.0 0 0 148.60 196.72
  L 146.94 192.53
  Q 146.83 191.88 147.06 191.48
  A 0.46 0.45 40.4 0 1 147.81 191.42
  Q 149.10 193.02 151.21 192.73
  Q 151.67 192.67 152.04 192.95
  Q 157.11 196.71 163.54 197.00
  Q 161.18 204.15 161.64 211.77
  A 0.06 0.05 -43.6 0 0 161.75 211.77
  Q 164.63 192.63 174.42 178.54
  A 0.29 0.29 0.0 0 1 174.95 178.73
  L 171.74 215.59
  Z"
/>
<path fill="#999596" d="
  M 145.20 219.00
  Q 141.20 219.58 137.22 221.88
  Q 135.24 223.02 133.46 223.05
  C 131.35 223.08 124.27 222.58 123.16 220.55
  Q 120.15 215.02 113.84 215.31
  A 1.45 1.44 61.5 0 1 112.90 215.03
  Q 108.32 211.75 105.64 214.33
  L 114.50 181.17
  Q 114.62 180.71 115.11 180.75
  Q 128.26 181.91 141.46 181.42
  Q 141.80 181.40 141.89 181.73
  L 144.31 190.56
  Q 144.79 192.27 143.17 191.53
  L 136.93 188.65
  A 1.39 1.38 4.8 0 0 135.01 190.27
  C 137.47 199.29 141.82 204.76 147.42 212.43
  A 0.94 0.92 38.6 0 1 147.53 213.32
  L 145.20 219.00
  Z"
/>
<path fill="#afae9f" d="
  M 145.20 219.00
  Q 134.82 244.19 130.28 269.60
  A 0.52 0.52 0.0 0 1 129.56 269.99
  C 124.18 267.63 116.93 264.74 111.00 264.98
  A 1.97 1.97 0.0 0 0 109.24 267.65
  Q 115.10 282.94 126.82 294.37
  A 1.40 1.39 -70.6 0 1 127.25 295.28
  Q 127.69 300.73 129.71 305.78
  A 0.47 0.47 0.0 0 1 129.40 306.40
  L 121.35 308.61
  A 1.39 1.39 0.0 0 0 120.69 310.89
  Q 125.70 316.37 132.34 319.67
  A 0.87 0.86 -39.4 0 1 132.18 321.28
  L 125.35 323.17
  Q 119.16 320.90 113.08 320.70
  A 1.33 1.31 68.2 0 1 112.16 320.30
  Q 109.66 317.71 106.23 317.31
  Q 103.67 311.39 102.68 304.56
  C 100.76 291.44 99.09 276.60 99.23 263.56
  Q 99.49 238.79 105.64 214.33
  Q 108.32 211.75 112.90 215.03
  A 1.45 1.44 61.5 0 0 113.84 215.31
  Q 120.15 215.02 123.16 220.55
  C 124.27 222.58 131.35 223.08 133.46 223.05
  Q 135.24 223.02 137.22 221.88
  Q 141.20 219.58 145.20 219.00
  Z"
/>
<path fill="#e2ecde" d="
  M 171.74 215.59
  C 171.00 241.34 170.95 264.88 174.04 289.72
  Q 168.49 290.53 162.99 289.31
  A 1.39 1.38 0.3 0 1 161.92 288.23
  C 161.24 284.87 161.26 281.45 159.64 278.50
  Q 158.18 275.85 156.22 273.51
  Q 155.91 273.13 155.42 273.12
  Q 148.28 272.97 142.03 276.11
  L 131.85 270.87
  Q 131.21 270.54 131.35 269.84
  Q 135.92 247.33 143.67 226.48
  L 151.57 225.67
  A 1.94 1.94 0.0 0 1 153.51 228.46
  Q 152.92 229.66 153.02 230.80
  Q 153.08 231.55 153.53 230.95
  L 156.02 227.53
  Q 156.33 227.10 156.82 227.31
  Q 157.44 227.58 157.98 227.34
  C 158.70 227.02 160.84 223.16 162.24 222.08
  A 0.37 0.36 -47.4 0 1 162.65 222.06
  L 162.94 222.23
  Q 163.14 222.35 163.27 222.17
  Q 166.55 217.66 171.74 215.59
  Z"
/>
<path fill="#edf1e3" d="
  M 236.59 230.76
  L 241.58 260.32
  Q 241.65 260.77 241.98 260.47
  Q 242.32 260.17 242.28 259.74
  Q 241.84 254.17 240.77 248.68
  Q 240.67 248.16 241.13 247.89
  C 248.56 243.61 256.31 240.73 264.79 237.95
  A 0.74 0.74 0.0 0 1 265.76 238.69
  Q 265.75 238.91 265.76 239.11
  Q 265.78 239.32 265.64 239.49
  L 246.23 264.22
  A 0.41 0.41 0.0 0 0 246.76 264.82
  C 247.98 264.10 248.40 263.13 249.83 262.65
  Q 268.79 256.31 288.64 253.96
  Q 289.56 253.85 289.10 254.65
  Q 287.52 257.42 283.83 261.57
  Q 267.28 280.19 249.93 292.97
  C 243.90 297.41 236.03 301.16 229.17 305.44
  A 0.22 0.22 0.0 0 0 229.36 305.83
  Q 236.26 303.10 242.43 299.71
  C 249.02 296.09 256.76 294.81 264.03 293.42
  Q 264.74 293.28 265.31 293.55
  A 0.28 0.28 0.0 0 1 265.38 294.01
  Q 257.65 300.86 249.10 306.11
  C 230.81 317.34 210.37 327.32 189.50 332.55
  C 183.05 334.16 177.71 301.56 176.82 297.07
  C 173.91 282.46 173.06 267.49 173.29 252.50
  Q 177.85 252.17 181.88 250.31
  A 0.16 0.16 0.0 0 0 181.81 250.00
  Q 181.63 250.00 181.46 250.01
  A 0.05 0.05 0.0 0 1 181.43 249.92
  Q 183.67 248.38 184.76 245.88
  C 185.67 243.80 186.82 242.62 189.05 243.38
  A 1.46 1.42 -7.8 0 1 189.77 243.91
  Q 191.42 246.18 193.94 246.80
  C 197.01 247.56 199.83 248.58 202.79 249.64
  Q 203.80 250.00 202.73 250.00
  L 202.27 250.00
  Q 201.99 250.00 202.19 250.20
  C 204.29 252.29 210.74 253.22 213.40 252.55
  Q 213.92 252.42 214.26 252.02
  L 218.48 247.14
  Q 218.71 246.88 219.04 246.76
  L 222.73 245.47
  A 0.85 0.84 81.3 0 0 223.30 244.68
  C 223.39 240.80 225.43 240.19 227.53 237.94
  Q 231.37 233.81 236.59 230.76
  Z"
/>
<path fill="#e2ecde" d="
  M 343.66 259.10
  Q 344.23 260.47 346.06 261.17
  Q 346.51 261.34 346.94 261.13
  C 351.91 258.78 354.67 261.42 358.79 262.90
  Q 361.42 263.84 363.81 265.38
  Q 364.22 265.64 364.70 265.66
  Q 369.25 265.81 371.82 264.55
  C 375.85 262.57 377.98 264.03 381.48 260.28
  Q 384.60 256.94 389.51 255.75
  Q 389.92 255.65 390.01 255.12
  Q 390.08 254.64 390.47 254.35
  Q 397.30 249.36 405.66 247.87
  Q 406.07 247.80 406.22 248.19
  Q 406.28 248.34 406.34 248.51
  A 0.10 0.10 0.0 0 0 406.51 248.55
  Q 407.36 247.62 408.20 248.23
  L 406.45 257.22
  A 0.28 0.27 -27.6 0 0 406.97 257.38
  C 409.42 252.03 408.83 245.34 412.30 240.65
  Q 415.27 236.64 418.95 233.35
  A 0.57 0.57 0.0 0 1 419.90 233.71
  C 420.89 243.66 416.91 258.86 413.08 269.30
  Q 410.38 270.82 409.17 273.68
  A 0.47 0.47 0.0 0 1 408.36 273.77
  L 407.06 272.05
  Q 406.75 271.63 406.88 271.12
  Q 407.41 269.00 408.47 267.08
  Q 408.53 266.99 408.51 266.92
  Q 408.48 266.82 408.33 266.74
  Q 408.18 266.67 408.09 266.81
  Q 400.94 276.70 392.19 285.18
  Q 391.80 285.55 391.29 285.48
  Q 390.55 285.38 391.07 284.85
  C 393.16 282.71 393.15 280.27 394.24 278.12
  Q 395.08 276.47 395.89 274.89
  A 0.34 0.34 0.0 0 0 395.36 274.49
  C 384.60 284.78 370.41 293.09 358.19 299.19
  Q 354.95 300.81 349.40 301.30
  Q 348.91 300.85 348.13 300.82
  Q 346.01 296.91 342.43 294.13
  C 340.04 288.05 329.94 282.78 324.02 280.77
  Q 323.71 280.81 323.35 280.33
  Q 323.14 280.05 323.10 279.61
  Q 322.32 271.40 324.77 263.00
  C 328.02 251.88 331.31 241.77 337.75 232.55
  Q 338.09 232.05 338.25 232.63
  Q 340.99 242.63 341.69 251.73
  Q 342.05 256.38 342.97 259.97
  Q 343.08 260.39 343.26 260.00
  L 343.66 259.10
  Z"
/>
<path fill="#edf1e3" d="
  M 142.03 276.11
  Q 148.28 272.97 155.42 273.12
  Q 155.91 273.13 156.22 273.51
  Q 158.18 275.85 159.64 278.50
  C 161.26 281.45 161.24 284.87 161.92 288.23
  A 1.39 1.38 0.3 0 0 162.99 289.31
  Q 168.49 290.53 174.04 289.72
  L 176.59 303.90
  L 171.42 306.32
  Q 171.01 306.52 170.84 306.94
  Q 170.17 308.58 168.51 308.29
  C 160.83 306.92 154.83 313.64 149.96 318.49
  A 0.47 0.47 0.0 0 0 150.06 319.24
  Q 158.37 323.88 153.73 332.74
  A 0.92 0.90 -42.7 0 0 153.69 333.51
  Q 154.23 334.89 153.25 335.79
  L 136.00 334.31
  Q 134.86 334.21 135.61 333.34
  Q 140.71 327.47 147.72 324.17
  A 0.56 0.56 0.0 0 0 147.54 323.10
  C 146.49 323.00 145.99 323.42 144.81 323.04
  Q 133.11 319.37 122.77 311.10
  Q 121.73 310.27 123.02 309.94
  Q 133.50 307.23 144.22 308.82
  A 0.53 0.53 0.0 0 0 144.60 307.87
  C 130.68 298.05 116.55 283.43 110.32 267.41
  A 1.09 1.09 0.0 0 1 111.47 265.93
  C 124.59 267.61 138.77 275.02 150.32 282.19
  Q 150.67 282.40 150.90 281.96
  A 0.56 0.55 -61.5 0 0 150.69 281.23
  L 142.03 276.11
  Z"
/>
<path fill="#afae9f" d="
  M 413.08 269.30
  Q 409.72 278.37 404.62 286.54
  C 397.63 297.74 387.77 305.45 378.29 313.45
  A 0.23 0.23 0.0 0 0 378.57 313.82
  L 386.74 308.36
  A 0.41 0.37 21.3 0 1 386.95 308.28
  Q 393.07 307.64 399.18 308.34
  A 0.36 0.36 0.0 0 1 399.39 308.95
  C 389.16 318.96 373.71 325.78 359.01 324.28
  Q 358.51 324.23 358.41 323.74
  Q 356.67 315.03 352.50 307.24
  C 351.66 305.65 349.69 303.84 349.40 301.30
  Q 354.95 300.81 358.19 299.19
  C 370.41 293.09 384.60 284.78 395.36 274.49
  A 0.34 0.34 0.0 0 1 395.89 274.89
  Q 395.08 276.47 394.24 278.12
  C 393.15 280.27 393.16 282.71 391.07 284.85
  Q 390.55 285.38 391.29 285.48
  Q 391.80 285.55 392.19 285.18
  Q 400.94 276.70 408.09 266.81
  Q 408.18 266.67 408.33 266.74
  Q 408.48 266.82 408.51 266.92
  Q 408.53 266.99 408.47 267.08
  Q 407.41 269.00 406.88 271.12
  Q 406.75 271.63 407.06 272.05
  L 408.36 273.77
  A 0.47 0.47 0.0 0 0 409.17 273.68
  Q 410.38 270.82 413.08 269.30
  Z"
/>
<path fill="#edf1e3" d="
  M 323.59 281.97
  Q 334.06 285.92 342.43 294.13
  Q 346.01 296.91 348.13 300.82
  Q 354.49 313.12 357.69 326.48
  Q 356.62 328.42 354.65 326.88
  A 0.54 0.52 47.1 0 0 354.04 326.85
  L 342.61 334.07
  Q 342.11 334.38 341.66 334.01
  Q 336.98 330.18 331.43 327.75
  C 327.18 325.90 326.90 321.70 322.18 320.22
  C 315.71 318.19 309.75 317.89 303.36 316.33
  Q 302.91 316.23 302.49 316.42
  Q 297.91 318.58 294.75 315.32
  C 291.34 311.80 289.67 312.19 285.34 311.00
  Q 284.92 310.88 284.68 310.50
  L 283.34 308.39
  Q 283.01 307.87 282.40 307.83
  Q 280.69 307.71 279.18 306.99
  A 0.50 0.50 0.0 0 1 279.01 306.21
  L 280.81 304.06
  Q 281.21 303.59 280.90 303.05
  Q 279.69 300.95 280.99 299.06
  A 0.60 0.60 0.0 0 0 280.84 298.23
  C 277.77 296.16 275.20 295.67 272.75 292.45
  C 270.49 289.49 266.75 291.22 263.87 290.18
  Q 261.32 289.26 259.53 287.61
  L 265.86 282.11
  Q 266.23 281.79 266.66 282.02
  C 271.34 284.49 284.84 284.10 287.26 283.74
  C 301.60 281.60 311.57 279.26 323.59 281.97
  Z"
/>
<path fill="#4f4b4a" d="
  M 324.02 280.77
  C 329.94 282.78 340.04 288.05 342.43 294.13
  Q 334.06 285.92 323.59 281.97
  Q 324.10 281.82 324.02 280.77
  Z"
/>
<path fill="#e2ecde" d="
  M 259.53 287.61
  Q 261.32 289.26 263.87 290.18
  C 266.75 291.22 270.49 289.49 272.75 292.45
  C 275.20 295.67 277.77 296.16 280.84 298.23
  A 0.60 0.60 0.0 0 1 280.99 299.06
  Q 279.69 300.95 280.90 303.05
  Q 281.21 303.59 280.81 304.06
  L 279.01 306.21
  A 0.50 0.50 0.0 0 0 279.18 306.99
  Q 280.69 307.71 282.40 307.83
  Q 283.01 307.87 283.34 308.39
  L 284.68 310.50
  Q 284.92 310.88 285.34 311.00
  C 289.67 312.19 291.34 311.80 294.75 315.32
  Q 297.91 318.58 302.49 316.42
  Q 302.91 316.23 303.36 316.33
  C 309.75 317.89 315.71 318.19 322.18 320.22
  C 326.90 321.70 327.18 325.90 331.43 327.75
  Q 336.98 330.18 341.66 334.01
  Q 342.11 334.38 342.61 334.07
  L 354.04 326.85
  A 0.54 0.52 47.1 0 1 354.65 326.88
  Q 356.62 328.42 357.69 326.48
  Q 362.94 345.32 367.00 364.50
  Q 368.68 372.44 369.77 375.95
  C 372.63 385.20 378.12 392.49 382.31 400.67
  Q 381.50 401.63 380.62 401.53
  Q 379.44 401.38 379.39 401.39
  C 377.04 401.76 377.64 403.34 376.87 404.77
  Q 375.58 407.18 373.62 405.44
  Q 371.16 403.25 369.20 404.89
  A 0.62 0.61 29.2 0 1 368.69 405.03
  Q 366.68 404.65 365.07 405.77
  Q 364.39 406.25 365.21 406.25
  L 365.74 406.25
  Q 366.07 406.25 365.83 406.48
  Q 362.80 409.45 359.64 412.28
  C 356.68 414.92 355.64 419.83 355.17 423.58
  C 354.83 426.34 351.53 431.01 355.98 432.58
  Q 359.95 433.99 361.75 436.67
  C 361.98 437.01 362.49 437.33 362.84 437.48
  Q 363.25 437.65 363.56 437.96
  L 367.80 442.09
  A 0.72 0.69 -76.1 0 1 367.98 442.40
  Q 369.99 450.15 377.35 451.36
  C 381.48 452.04 392.66 447.36 392.52 454.89
  Q 392.52 455.30 392.72 455.66
  L 393.68 457.31
  A 0.65 0.65 0.0 0 1 393.68 457.95
  L 392.28 460.47
  Q 392.08 460.82 392.13 461.22
  Q 392.37 463.38 393.96 462.92
  A 0.69 0.68 -19.9 0 1 394.78 463.30
  L 396.02 466.04
  Q 396.24 466.53 396.76 466.67
  Q 398.30 467.08 399.73 467.69
  C 401.95 468.63 403.64 471.52 405.71 473.11
  Q 405.84 473.21 405.97 473.20
  Q 406.13 473.19 406.25 473.07
  Q 406.47 472.86 406.74 472.99
  L 410.04 474.58
  L 409.66 475.43
  Q 408.41 476.66 406.76 476.84
  Q 406.27 476.89 405.85 477.15
  Q 402.87 479.01 399.50 478.76
  Q 397.88 478.64 396.92 479.57
  Q 396.56 479.91 396.08 480.05
  L 386.00 483.04
  Q 382.76 477.85 377.20 475.45
  Q 376.71 475.24 376.65 474.72
  L 376.34 471.98
  A 0.36 0.36 0.0 0 0 375.62 472.04
  L 376.12 480.29
  Q 376.15 480.84 375.77 480.45
  C 370.82 475.32 363.92 467.52 362.03 460.99
  Q 361.95 460.71 361.76 460.94
  Q 361.63 461.11 361.78 461.31
  Q 361.89 461.48 361.92 461.58
  Q 363.32 466.54 365.64 471.20
  Q 365.93 471.78 365.27 471.77
  C 355.16 471.52 344.77 473.46 340.24 483.29
  Q 339.51 484.87 337.69 484.36
  Q 337.20 484.22 337.47 483.79
  Q 342.55 475.91 347.56 468.05
  C 351.42 462.00 348.47 451.98 348.27 445.05
  Q 347.99 435.70 346.76 426.41
  C 345.61 417.85 341.78 412.95 335.66 407.23
  C 325.64 397.88 315.37 387.88 307.18 376.98
  Q 302.43 370.66 298.01 364.02
  A 0.48 0.48 0.0 0 0 297.15 364.42
  L 297.51 365.64
  Q 292.79 366.84 288.04 367.48
  C 278.04 368.85 268.33 370.64 258.17 371.14
  L 259.83 360.07
  Q 259.88 359.72 259.53 359.74
  Q 259.36 359.75 259.21 359.75
  Q 258.98 359.74 258.92 359.97
  Q 257.20 366.38 256.51 373.01
  Q 253.37 403.32 259.13 433.13
  C 260.43 439.88 262.44 446.77 264.46 453.57
  A 0.05 0.05 0.0 0 0 264.55 453.55
  Q 263.81 445.69 261.77 438.05
  A 0.83 0.82 -33.4 0 1 261.92 437.34
  L 277.25 418.65
  A 0.59 0.59 0.0 0 1 277.95 418.49
  Q 279.09 419.00 278.97 420.51
  Q 276.99 444.52 269.92 467.73
  L 264.45 477.53
  A 0.87 0.87 0.0 0 1 262.85 476.90
  L 263.40 474.60
  Q 263.55 474.00 262.93 474.00
  L 261.92 474.00
  Q 261.30 474.00 261.53 473.43
  L 262.15 471.89
  A 0.43 0.43 0.0 0 0 261.70 471.30
  Q 260.61 471.43 260.14 472.69
  Q 259.02 475.63 256.87 477.82
  A 1.54 1.49 13.7 0 1 256.17 478.23
  C 253.68 478.89 253.99 481.33 250.74 481.79
  Q 250.34 480.01 250.23 478.25
  Q 250.21 477.92 249.92 477.82
  Q 249.41 477.66 249.44 478.20
  L 249.82 483.62
  L 244.82 487.02
  L 238.26 478.44
  Q 237.95 478.04 238.00 477.54
  L 238.76 470.01
  A 0.42 0.41 -36.4 0 0 237.94 469.89
  L 234.59 485.94
  A 0.45 0.45 0.0 0 1 233.73 486.02
  Q 229.56 475.94 228.39 465.06
  Q 227.57 457.43 226.24 452.75
  L 226.52 447.69
  Q 226.52 447.59 226.43 447.56
  Q 226.30 447.52 226.18 447.48
  Q 226.04 447.43 226.04 447.58
  L 225.98 452.76
  L 226.64 465.82
  L 222.45 474.75
  C 214.05 474.94 202.48 479.46 200.04 488.17
  Q 199.93 488.57 199.54 488.66
  L 195.45 489.66
  A 0.42 0.42 0.0 0 1 195.13 488.90
  Q 196.39 488.11 197.23 486.77
  C 210.32 465.97 209.06 440.68 210.53 417.93
  C 211.32 405.77 210.77 394.89 210.41 383.39
  C 210.15 375.06 209.07 367.84 207.42 360.07
  Q 207.27 359.37 206.83 359.24
  Q 206.32 359.09 206.37 359.62
  L 207.39 370.13
  Q 204.52 368.23 201.84 367.70
  C 192.34 365.83 182.20 361.88 175.30 358.46
  C 170.82 356.24 162.13 351.62 155.55 346.29
  Q 153.68 344.77 151.57 344.13
  Q 151.40 343.37 150.38 342.63
  L 146.01 336.80
  Q 150.58 337.01 153.25 335.79
  Q 154.23 334.89 153.69 333.51
  A 0.92 0.90 -42.7 0 1 153.73 332.74
  Q 158.37 323.88 150.06 319.24
  A 0.47 0.47 0.0 0 1 149.96 318.49
  C 154.83 313.64 160.83 306.92 168.51 308.29
  Q 170.17 308.58 170.84 306.94
  Q 171.01 306.52 171.42 306.32
  L 176.59 303.90
  C 178.78 314.26 180.23 321.50 185.32 332.96
  Q 185.51 333.41 186.00 333.45
  C 192.60 333.99 198.45 331.75 204.55 329.68
  C 212.79 326.89 220.83 322.65 228.76 318.96
  Q 248.72 309.68 266.29 295.56
  A 2.09 2.09 0.0 0 0 266.38 292.37
  Q 266.25 292.26 265.25 292.36
  Q 257.02 293.15 249.40 295.50
  A 0.27 0.27 0.0 0 1 249.16 295.02
  L 259.53 287.61
  Z"
/>
<path fill="#e2ecde" d="
  M 139.27 306.36
  L 131.71 306.20
  A 0.71 0.71 0.0 0 1 131.03 305.66
  L 129.14 298.34
  A 0.37 0.37 0.0 0 1 129.73 297.97
  L 139.36 306.11
  A 0.14 0.14 0.0 0 1 139.27 306.36
  Z"
/>
<path fill="#e2ecde" d="
  M 125.35 323.17
  Q 118.57 325.34 112.82 325.18
  C 109.24 325.07 107.76 320.79 106.23 317.31
  Q 109.66 317.71 112.16 320.30
  A 1.33 1.31 68.2 0 0 113.08 320.70
  Q 119.16 320.90 125.35 323.17
  Z"
/>
<path fill="#e2ecde" d="
  M 142.71 325.14
  L 140.87 326.07
  Q 140.45 326.28 140.11 326.58
  L 137.99 328.41
  A 0.40 0.40 0.0 0 1 137.35 328.23
  L 135.13 321.67
  A 0.25 0.24 -88.5 0 1 135.45 321.36
  L 142.67 324.27
  Q 143.65 324.66 142.71 325.14
  Z"
/>
<path fill="#edf1e3" d="
  M 235.80 327.59
  Q 237.93 325.34 240.88 324.82
  A 0.78 0.78 0.0 0 1 241.75 325.29
  L 242.40 326.88
  Q 242.67 327.54 241.99 327.32
  C 240.10 326.72 239.27 329.44 239.53 330.87
  Q 239.61 331.30 239.30 331.61
  Q 238.87 332.06 238.95 332.58
  Q 239.00 332.89 239.34 333.22
  Q 240.33 334.21 241.48 335.03
  C 242.42 335.70 244.67 336.27 245.86 337.53
  Q 246.23 337.92 246.17 338.45
  Q 245.66 343.02 247.61 347.17
  Q 247.88 347.75 248.51 347.74
  Q 249.80 347.73 250.25 349.09
  Q 250.40 349.56 250.36 350.05
  C 250.02 354.30 250.77 358.05 249.99 362.90
  C 249.01 368.93 244.20 374.85 244.80 380.61
  Q 244.85 381.12 244.59 381.55
  C 240.78 387.82 236.84 392.54 235.08 400.52
  C 234.60 402.68 234.91 405.15 234.30 407.56
  Q 234.18 408.04 234.40 408.48
  C 235.68 411.09 234.81 412.85 234.60 415.31
  C 234.24 419.40 237.09 422.13 236.91 426.15
  C 236.76 429.62 237.03 432.45 235.88 435.92
  C 234.60 439.82 237.47 446.15 233.62 448.71
  Q 231.62 450.04 229.04 449.06
  Q 228.59 448.89 228.20 449.17
  Q 227.81 449.45 227.33 448.97
  Q 227.02 448.65 227.02 448.21
  Q 227.05 444.86 228.25 441.78
  A 1.67 1.60 -41.9 0 0 228.32 440.83
  Q 226.88 434.29 225.40 427.80
  C 224.72 424.80 225.44 421.75 224.89 418.52
  C 224.15 414.21 224.65 410.07 223.36 406.34
  Q 221.53 401.06 220.73 395.51
  C 220.40 393.23 219.06 391.01 219.10 388.67
  C 219.20 383.36 216.50 380.50 213.75 376.69
  C 211.90 374.12 212.74 371.19 213.95 368.61
  Q 214.74 366.93 215.37 364.72
  C 216.74 359.88 221.83 360.31 223.14 355.76
  Q 225.05 349.16 222.22 343.13
  Q 222.00 342.68 222.08 342.19
  C 222.68 338.42 224.34 336.14 227.51 333.55
  C 229.93 331.57 232.00 328.96 235.16 327.99
  A 1.56 1.56 0.0 0 0 235.80 327.59
  Z"
/>
<path fill="#afae9f" d="
  M 146.01 336.80
  L 150.38 342.63
  C 150.56 347.14 161.28 359.59 165.37 359.89
  A 0.38 0.38 0.0 0 0 165.62 359.21
  Q 157.23 353.10 151.57 344.13
  Q 153.68 344.77 155.55 346.29
  C 162.13 351.62 170.82 356.24 175.30 358.46
  C 182.20 361.88 192.34 365.83 201.84 367.70
  Q 204.52 368.23 207.39 370.13
  Q 209.10 379.79 209.06 390.80
  Q 209.06 391.32 208.61 391.57
  Q 199.35 396.90 188.83 398.84
  A 0.84 0.84 0.0 0 1 187.97 397.57
  Q 192.08 390.89 197.94 385.70
  A 0.43 0.43 0.0 0 0 197.48 384.98
  C 189.67 388.26 181.68 391.32 173.10 392.05
  Q 172.50 392.11 172.89 391.64
  Q 181.24 381.69 191.91 374.33
  Q 194.25 372.72 191.70 373.95
  C 187.89 375.79 169.78 387.70 170.90 393.21
  A 0.80 0.79 81.8 0 0 171.74 393.85
  Q 181.95 392.97 191.45 389.22
  A 0.25 0.25 0.0 0 1 191.72 389.62
  C 189.70 391.77 180.38 402.37 191.69 399.75
  Q 193.25 399.39 192.91 400.96
  Q 191.22 408.61 190.88 415.68
  C 190.16 430.42 189.41 441.08 190.76 452.62
  Q 190.80 453.01 191.18 452.89
  Q 191.45 452.81 191.46 452.43
  Q 191.50 446.19 191.80 439.95
  Q 191.83 439.44 192.16 439.06
  Q 196.72 433.90 202.29 429.81
  A 0.97 0.97 0.0 0 1 203.80 430.84
  C 200.46 443.19 196.04 454.24 191.40 465.74
  A 0.42 0.42 0.0 0 0 192.15 466.10
  L 195.05 460.93
  A 1.66 1.61 89.0 0 1 195.59 460.35
  L 201.47 456.49
  A 0.39 0.39 0.0 0 1 202.04 456.97
  Q 198.18 465.98 192.42 473.91
  A 1.09 1.07 52.0 0 0 192.30 474.97
  L 194.46 480.06
  A 0.41 0.41 0.0 0 1 194.15 480.63
  Q 185.12 482.01 177.59 481.28
  Q 175.61 475.46 177.02 471.13
  Q 177.16 470.72 176.84 470.42
  C 172.59 466.50 167.10 463.89 162.19 460.96
  C 159.53 459.37 158.87 457.37 158.45 454.51
  A 0.41 0.41 0.0 0 0 157.63 454.53
  L 156.82 463.09
  Q 156.76 463.76 156.34 463.23
  C 153.84 460.14 156.73 450.98 153.60 449.69
  Q 153.11 449.49 153.17 448.97
  L 153.81 443.23
  A 0.40 0.39 -32.2 0 0 153.04 443.06
  L 150.46 450.31
  A 0.35 0.34 53.2 0 1 149.79 450.21
  C 149.47 445.32 150.41 441.56 150.88 436.74
  Q 150.98 435.72 150.51 436.63
  Q 149.83 437.97 149.65 439.77
  Q 149.42 439.54 149.15 439.49
  Q 148.62 439.39 148.38 439.87
  L 142.94 450.62
  Q 140.42 447.58 136.14 445.63
  Q 140.76 435.09 143.22 427.00
  C 146.64 415.75 147.06 404.21 146.44 390.93
  C 145.61 372.87 142.77 354.58 139.46 336.79
  A 0.65 0.65 0.0 0 1 140.19 336.02
  L 146.01 336.80
  Z"
/>
<path fill="#0e0e0d" fill-opacity="0.996" d="
  M 150.38 342.63
  Q 151.40 343.37 151.57 344.13
  Q 157.23 353.10 165.62 359.21
  A 0.38 0.38 0.0 0 1 165.37 359.89
  C 161.28 359.59 150.56 347.14 150.38 342.63
  Z"
/>
<path fill="#afae9f" d="
  M 297.51 365.64
  L 305.53 377.53
  C 301.08 378.72 299.45 382.22 295.09 383.34
  A 0.68 0.64 -39.8 0 1 294.63 383.31
  L 289.48 381.01
  Q 289.13 380.86 288.93 380.53
  Q 287.99 378.95 284.75 378.98
  Q 288.91 374.70 291.70 370.21
  Q 291.84 369.99 291.81 369.82
  Q 291.78 369.68 291.67 369.59
  Q 291.49 369.44 291.35 369.63
  Q 280.28 383.95 263.47 390.72
  A 0.49 0.49 0.0 0 1 262.82 390.12
  Q 264.86 383.43 268.66 377.56
  A 0.42 0.42 0.0 0 0 268.02 377.02
  L 257.60 386.56
  Q 257.00 387.11 257.06 386.30
  L 258.17 371.14
  C 268.33 370.64 278.04 368.85 288.04 367.48
  Q 292.79 366.84 297.51 365.64
  Z"
/>
<path fill="#999596" d="
  M 305.53 377.53
  Q 306.94 379.24 308.45 381.42
  C 313.26 388.37 320.58 395.05 326.59 401.06
  C 329.65 404.12 329.96 408.34 332.81 411.66
  C 335.74 415.09 344.60 423.91 345.18 428.01
  Q 346.43 436.83 346.72 445.72
  C 346.92 451.85 347.71 458.08 347.80 464.32
  A 1.77 1.72 61.4 0 1 347.53 465.29
  L 340.22 476.72
  A 0.50 0.50 0.0 0 1 339.43 476.79
  Q 337.86 475.04 335.91 476.02
  Q 335.29 476.34 334.74 475.91
  L 331.52 473.40
  C 334.48 472.13 334.95 469.24 333.38 466.55
  Q 329.54 459.96 322.15 457.30
  C 320.81 456.82 319.60 457.31 318.25 456.55
  Q 317.83 456.32 317.39 456.52
  Q 316.65 456.86 316.45 457.48
  L 314.95 454.62
  Q 314.37 453.50 314.49 454.75
  L 314.74 457.22
  L 307.88 457.54
  Q 307.26 457.57 306.88 457.07
  L 305.66 455.45
  A 1.03 1.03 0.0 0 0 304.86 455.04
  L 300.19 455.01
  C 303.19 441.50 299.98 418.11 290.65 407.37
  Q 282.56 398.07 275.67 387.65
  A 1.46 1.46 0.0 0 1 276.00 385.68
  L 284.75 378.98
  Q 287.99 378.95 288.93 380.53
  Q 289.13 380.86 289.48 381.01
  L 294.63 383.31
  A 0.68 0.64 -39.8 0 0 295.09 383.34
  C 299.45 382.22 301.08 378.72 305.53 377.53
  Z"
/>
<path fill="#edf1e3" d="
  M 382.31 400.67
  Q 391.67 419.02 398.41 438.54
  Q 398.56 439.00 398.34 439.43
  Q 397.29 441.42 397.22 443.69
  Q 397.17 444.87 397.69 443.80
  Q 406.65 425.19 422.72 412.18
  A 0.63 0.62 -17.5 0 1 423.74 412.71
  C 422.77 426.09 419.68 437.43 414.90 451.51
  C 413.92 454.39 412.52 456.97 411.18 459.91
  A 0.37 0.37 0.0 0 0 411.80 460.29
  Q 414.02 457.59 416.36 454.58
  Q 420.59 449.14 425.76 445.30
  A 0.59 0.58 -7.1 0 1 426.65 445.99
  Q 420.19 461.64 410.04 474.58
  L 406.74 472.99
  Q 406.47 472.86 406.25 473.07
  Q 406.13 473.19 405.97 473.20
  Q 405.84 473.21 405.71 473.11
  C 403.64 471.52 401.95 468.63 399.73 467.69
  Q 398.30 467.08 396.76 466.67
  Q 396.24 466.53 396.02 466.04
  L 394.78 463.30
  A 0.69 0.68 -19.9 0 0 393.96 462.92
  Q 392.37 463.38 392.13 461.22
  Q 392.08 460.82 392.28 460.47
  L 393.68 457.95
  A 0.65 0.65 0.0 0 0 393.68 457.31
  L 392.72 455.66
  Q 392.52 455.30 392.52 454.89
  C 392.66 447.36 381.48 452.04 377.35 451.36
  Q 369.99 450.15 367.98 442.40
  A 0.72 0.69 -76.1 0 0 367.80 442.09
  L 363.56 437.96
  Q 363.25 437.65 362.84 437.48
  C 362.49 437.33 361.98 437.01 361.75 436.67
  Q 359.95 433.99 355.98 432.58
  C 351.53 431.01 354.83 426.34 355.17 423.58
  C 355.64 419.83 356.68 414.92 359.64 412.28
  Q 362.80 409.45 365.83 406.48
  Q 366.07 406.25 365.74 406.25
  L 365.21 406.25
  Q 364.39 406.25 365.07 405.77
  Q 366.68 404.65 368.69 405.03
  A 0.62 0.61 29.2 0 0 369.20 404.89
  Q 371.16 403.25 373.62 405.44
  Q 375.58 407.18 376.87 404.77
  C 377.64 403.34 377.04 401.76 379.39 401.39
  Q 379.44 401.38 380.62 401.53
  Q 381.50 401.63 382.31 400.67
  Z"
/>
<path fill="#e2ecde" d="
  M 177.59 481.28
  Q 174.39 481.33 172.30 480.42
  Q 171.87 480.24 171.71 480.68
  Q 170.53 483.80 170.74 487.21
  Q 170.91 490.07 168.97 487.96
  L 162.78 481.21
  Q 162.41 480.80 162.49 480.24
  L 162.94 477.40
  Q 163.02 476.91 162.54 477.04
  Q 162.34 477.10 162.28 477.30
  Q 161.22 480.85 160.23 484.20
  A 0.42 0.42 0.0 0 1 159.48 484.31
  Q 152.19 473.61 149.15 461.01
  A 0.67 0.67 0.0 0 0 147.97 460.75
  L 140.43 470.15
  A 0.40 0.40 0.0 0 1 139.72 469.88
  C 140.38 459.92 144.34 451.50 147.95 442.19
  Q 148.19 441.57 149.65 439.77
  Q 149.83 437.97 150.51 436.63
  Q 150.98 435.72 150.88 436.74
  C 150.41 441.56 149.47 445.32 149.79 450.21
  A 0.35 0.34 53.2 0 0 150.46 450.31
  L 153.04 443.06
  A 0.40 0.39 -32.2 0 1 153.81 443.23
  L 153.17 448.97
  Q 153.11 449.49 153.60 449.69
  C 156.73 450.98 153.84 460.14 156.34 463.23
  Q 156.76 463.76 156.82 463.09
  L 157.63 454.53
  A 0.41 0.41 0.0 0 1 158.45 454.51
  C 158.87 457.37 159.53 459.37 162.19 460.96
  C 167.10 463.89 172.59 466.50 176.84 470.42
  Q 177.16 470.72 177.02 471.13
  Q 175.61 475.46 177.59 481.28
  Z"
/>
<path fill="#e2ecde" d="
  M 136.14 445.63
  Q 140.42 447.58 142.94 450.62
  L 139.36 461.22
  Q 139.17 461.79 138.58 461.86
  L 128.99 462.94
  Q 128.48 463.00 128.69 462.53
  L 136.14 445.63
  Z"
/>
<path fill="#afae9f" d="
  M 226.24 452.75
  Q 226.11 452.75 225.98 452.76
  L 226.04 447.58
  Q 226.04 447.43 226.18 447.48
  Q 226.30 447.52 226.43 447.56
  Q 226.52 447.59 226.52 447.69
  L 226.24 452.75
  Z"
/>
<path fill="#afae9f" d="
  M 300.19 455.01
  L 304.86 455.04
  A 1.03 1.03 0.0 0 1 305.66 455.45
  L 306.88 457.07
  Q 307.26 457.57 307.88 457.54
  L 314.74 457.22
  L 316.93 462.50
  A 0.35 0.34 88.3 0 1 316.50 462.96
  C 315.46 462.61 314.61 461.89 313.60 461.71
  Q 300.87 459.42 292.25 468.64
  Q 291.88 469.03 291.83 468.50
  Q 291.77 467.94 292.22 467.46
  Q 293.97 465.65 295.13 463.79
  C 296.93 460.91 299.29 458.53 300.19 455.01
  Z"
/>
<path fill="#afae9f" d="
  M 331.52 473.40
  Q 327.28 470.37 324.17 466.44
  A 0.63 0.61 -61.7 0 1 324.04 465.98
  L 324.29 463.86
  A 0.28 0.28 0.0 0 0 323.75 463.73
  L 322.76 466.63
  A 0.97 0.92 50.7 0 0 322.72 467.17
  Q 322.91 468.12 322.53 468.98
  A 0.39 0.39 0.0 0 1 321.82 468.99
  L 316.45 457.48
  Q 316.65 456.86 317.39 456.52
  Q 317.83 456.32 318.25 456.55
  C 319.60 457.31 320.81 456.82 322.15 457.30
  Q 329.54 459.96 333.38 466.55
  C 334.95 469.24 334.48 472.13 331.52 473.40
  Z"
/>
<path fill="#afae9f" d="
  M 250.74 481.79
  C 253.99 481.33 253.68 478.89 256.17 478.23
  A 1.54 1.49 13.7 0 0 256.87 477.82
  Q 259.02 475.63 260.14 472.69
  Q 260.61 471.43 261.70 471.30
  A 0.43 0.43 0.0 0 1 262.15 471.89
  L 261.53 473.43
  Q 261.30 474.00 261.92 474.00
  L 262.93 474.00
  Q 263.55 474.00 263.40 474.60
  L 262.85 476.90
  A 0.87 0.87 0.0 0 0 264.45 477.53
  L 269.92 467.73
  Q 271.26 467.71 271.64 466.41
  Q 272.58 463.24 273.63 459.96
  A 1.27 1.25 87.0 0 1 274.32 459.18
  L 280.67 456.41
  A 0.64 0.64 0.0 0 1 281.53 457.21
  Q 276.19 471.99 268.89 485.91
  Q 268.53 486.61 269.31 486.50
  L 270.02 486.40
  Q 270.59 486.33 270.99 486.73
  L 275.96 491.74
  A 0.64 0.64 0.0 0 1 275.54 492.83
  L 262.78 493.54
  A 0.49 0.49 0.0 0 0 262.54 494.44
  L 266.88 497.34
  A 0.55 0.55 0.0 0 1 266.47 498.33
  L 247.34 494.66
  A 0.77 0.76 9.3 0 1 246.73 493.82
  L 246.79 493.40
  A 0.62 0.62 0.0 0 1 247.69 492.93
  L 251.27 494.80
  A 1.26 1.25 8.0 0 0 253.08 493.44
  L 250.74 481.79
  Z"
/>
<path fill="#4f4b4a" d="
  M 314.11 465.43
  C 309.19 468.88 307.39 476.46 312.70 481.07
  A 0.27 0.27 0.0 0 1 312.53 481.54
  C 309.10 481.63 302.65 482.44 300.29 479.28
  Q 295.09 472.37 299.86 465.68
  C 303.39 460.72 315.91 461.89 318.98 467.30
  Q 320.16 469.37 321.76 471.11
  A 0.98 0.98 0.0 0 0 323.38 470.85
  L 323.91 469.67
  Q 324.20 469.02 324.73 469.50
  L 330.32 474.56
  Q 330.64 474.85 330.42 475.22
  C 327.84 479.67 320.16 481.12 315.50 481.47
  Q 315.00 481.50 314.62 481.20
  C 308.53 476.35 310.93 471.21 314.87 466.23
  A 0.56 0.56 0.0 0 0 314.11 465.43
  Z"
/>
<path fill="#61605f" d="
  M 136.80 479.06
  Q 130.75 480.81 124.02 478.68
  Q 125.08 471.12 132.68 466.66
  Q 133.14 466.39 133.14 466.03
  Q 133.13 465.47 132.63 465.72
  C 126.81 468.59 119.55 475.68 123.79 482.60
  A 0.94 0.94 0.0 0 0 124.24 482.99
  Q 124.79 483.22 124.99 483.73
  Q 125.21 484.26 124.65 484.15
  Q 120.00 483.25 117.98 481.68
  C 115.53 479.76 115.62 475.52 117.54 473.05
  Q 125.21 463.23 138.32 463.19
  Q 138.92 463.19 138.76 463.77
  Q 137.76 467.57 137.99 471.48
  Q 138.02 472.02 137.93 472.56
  L 136.80 479.06
  Z"
/>
<path fill="#61605f" d="
  M 147.03 463.64
  Q 147.34 462.84 147.98 463.24
  A 0.44 0.40 -80.5 0 1 148.18 463.55
  Q 149.68 473.46 155.39 481.70
  A 0.64 0.63 -22.5 0 1 154.98 482.68
  L 142.62 484.97
  A 1.06 1.06 0.0 0 1 141.73 484.74
  C 137.42 481.09 136.86 476.34 140.48 471.98
  C 142.18 469.92 146.15 465.94 147.03 463.64
  Z"
/>
<path fill="#4f4b4a" d="
  M 299.08 480.59
  C 294.36 480.33 287.18 476.96 291.94 471.06
  Q 294.47 467.94 298.07 465.20
  A 0.19 0.19 0.0 0 1 298.34 465.45
  Q 293.53 473.12 299.29 480.18
  Q 299.64 480.62 299.08 480.59
  Z"
/>
<path fill="#afae9f" d="
  M 226.64 465.82
  L 228.40 474.19
  Q 228.51 474.73 227.96 474.73
  L 222.45 474.75
  L 226.64 465.82
  Z"
/>
<path fill="#61605f" d="
  M 365.16 487.52
  Q 359.29 488.41 357.25 488.00
  Q 354.27 487.41 352.62 487.78
  Q 352.06 481.53 356.57 476.91
  Q 356.87 476.60 356.53 476.33
  Q 356.11 475.99 355.76 476.31
  Q 351.72 480.08 350.83 486.38
  L 346.88 486.25
  Q 346.41 486.24 346.05 485.94
  Q 344.75 484.90 342.27 484.97
  C 344.13 474.58 357.71 472.79 366.39 473.35
  Q 366.82 473.37 367.10 473.70
  L 369.29 476.28
  A 0.67 0.66 -44.0 0 1 369.27 477.17
  Q 365.06 481.61 365.16 487.52
  Z"
/>
<path fill="#afae9f" d="
  M 409.66 475.43
  Q 409.75 475.82 409.55 476.17
  Q 409.33 476.55 409.73 476.70
  L 410.29 476.90
  Q 410.82 477.10 411.12 477.57
  L 416.78 486.54
  A 0.37 0.37 0.0 0 1 416.42 487.10
  L 403.91 485.37
  Q 403.34 485.29 403.50 485.85
  Q 404.29 488.74 406.15 491.04
  A 0.32 0.32 0.0 0 1 405.78 491.54
  L 395.96 487.62
  A 1.47 1.47 0.0 0 0 393.95 489.09
  L 394.16 492.04
  Q 394.21 492.76 393.60 492.38
  L 387.24 488.39
  Q 386.81 488.12 386.86 487.62
  Q 387.07 485.26 386.00 483.04
  L 396.08 480.05
  Q 396.56 479.91 396.92 479.57
  Q 397.88 478.64 399.50 478.76
  Q 402.87 479.01 405.85 477.15
  Q 406.27 476.89 406.76 476.84
  Q 408.41 476.66 409.66 475.43
  Z"
/>
<path fill="#61605f" d="
  M 243.04 487.75
  Q 236.46 490.34 229.31 491.15
  Q 228.48 488.13 229.58 484.29
  Q 229.71 483.87 229.70 483.54
  Q 229.70 482.14 228.77 483.24
  Q 228.79 482.42 228.07 482.43
  Q 221.28 482.49 216.75 481.94
  Q 217.38 481.34 217.47 481.04
  Q 217.59 480.64 216.83 480.87
  Q 215.61 481.25 215.01 481.68
  L 207.39 480.71
  C 214.50 476.58 219.65 476.48 226.82 475.75
  A 1.81 1.81 0.0 0 1 228.70 476.93
  L 232.52 487.54
  A 1.58 1.58 0.0 0 0 235.54 487.39
  L 237.12 481.02
  A 0.50 0.50 0.0 0 1 238.01 480.84
  L 243.04 487.75
  Z"
/>
<path fill="#4f4b4a" d="
  M 385.57 487.44
  C 383.00 494.64 371.89 498.10 367.50 490.01
  C 365.46 486.24 367.24 481.32 369.87 478.24
  A 0.57 0.57 0.0 0 1 370.69 478.19
  L 376.28 483.30
  A 0.77 0.77 0.0 0 0 377.57 482.69
  L 377.31 477.70
  Q 377.29 477.27 377.67 477.47
  Q 383.35 480.46 385.56 486.44
  A 1.45 1.43 44.7 0 1 385.57 487.44
  Z"
/>
<path fill="#4f4b4a" d="
  M 136.80 479.06
  Q 136.87 481.49 138.96 484.28
  Q 139.29 484.72 138.75 484.82
  C 132.69 485.92 126.14 485.94 124.02 478.68
  Q 130.75 480.81 136.80 479.06
  Z"
/>
<path fill="#999596" d="
  M 207.39 480.71
  L 215.01 481.68
  L 210.91 486.98
  C 207.69 486.31 207.82 483.91 206.77 481.47
  L 207.39 480.71
  Z"
/>
<path fill="#61605f" d="
  M 206.77 481.47
  C 207.82 483.91 207.69 486.31 210.91 486.98
  Q 208.98 491.28 210.90 495.31
  A 0.51 0.51 0.0 0 1 210.25 496.00
  C 206.20 494.38 202.98 493.60 201.61 488.46
  A 1.29 1.29 0.0 0 1 201.67 487.58
  Q 203.19 484.00 206.77 481.47
  Z"
/>
<path fill="#999596" d="
  M 216.75 481.94
  Q 221.28 482.49 228.07 482.43
  Q 228.79 482.42 228.77 483.24
  L 227.61 485.73
  C 225.23 486.57 223.57 487.46 220.95 487.34
  Q 216.75 487.14 212.34 487.39
  Q 214.26 483.50 216.75 481.94
  Z"
/>
<path fill="#afae9f" d="
  M 249.82 483.62
  L 251.33 492.48
  A 0.39 0.39 0.0 0 1 250.67 492.82
  L 244.82 487.02
  L 249.82 483.62
  Z"
/>
<path fill="#4f4b4a" d="
  M 342.27 484.97
  Q 344.75 484.90 346.05 485.94
  Q 346.41 486.24 346.88 486.25
  L 350.83 486.38
  Q 350.71 490.47 354.05 493.90
  Q 354.64 494.51 353.80 494.42
  C 349.00 493.92 341.67 491.06 342.27 484.97
  Z"
/>
<path fill="#61605f" d="
  M 227.61 485.73
  Q 226.71 488.19 227.43 491.04
  L 212.41 490.84
  Q 211.86 490.84 211.79 490.30
  L 211.64 489.20
  L 212.34 487.39
  Q 216.75 487.14 220.95 487.34
  C 223.57 487.46 225.23 486.57 227.61 485.73
  Z"
/>
<path fill="#4f4b4a" d="
  M 243.04 487.75
  L 246.34 491.28
  A 0.58 0.57 50.6 0 1 246.26 492.14
  Q 240.89 495.93 233.74 496.69
  C 231.18 496.96 229.91 493.34 229.31 491.15
  Q 236.46 490.34 243.04 487.75
  Z"
/>
<path fill="#4f4b4a" d="
  M 365.16 487.52
  Q 365.69 491.78 368.89 494.64
  A 0.39 0.39 0.0 0 1 368.65 495.32
  C 362.01 495.75 353.84 496.87 352.62 487.78
  Q 354.27 487.41 357.25 488.00
  Q 359.29 488.41 365.16 487.52
  Z"
/>
<path fill="#4f4b4a" d="
  M 211.64 489.20
  L 211.79 490.30
  Q 211.86 490.84 212.41 490.84
  L 227.43 491.04
  Q 228.28 494.04 230.70 496.43
  A 0.56 0.56 0.0 0 1 230.34 497.39
  Q 222.15 497.88 214.02 496.80
  A 1.13 1.12 -16.7 0 1 213.35 496.44
  Q 210.66 493.37 211.64 489.20
  Z"
/>
</svg>
