<?xml version="1.0" encoding="UTF-8" standalone="no"?>
<svg xmlns="http://www.w3.org/2000/svg" version="1.2" baseProfile="tiny" viewBox="0.00 0.00 500.00 500.00">
<path fill="#000000" d="
  M 85.43 274.88
  C 85.83 267.84 85.08 262.03 87.16 255.17
  A 0.91 0.90 18.9 0 0 86.61 254.06
  Q 71.65 248.59 56.11 246.86
  C 46.57 245.80 42.66 240.31 44.11 230.55
  C 46.86 212.02 54.85 194.35 67.21 179.56
  Q 76.34 168.64 80.64 164.38
  C 93.27 151.88 106.57 143.86 123.53 137.02
  Q 139.56 130.55 145.24 128.96
  C 151.23 127.29 156.70 126.85 160.30 123.08
  Q 166.13 116.98 169.93 114.93
  C 176.87 111.19 184.07 107.01 190.98 104.23
  Q 210.35 96.42 231.15 94.20
  C 237.77 93.50 244.69 94.18 251.74 94.31
  A 1.90 1.90 0.0 0 0 253.66 92.29
  Q 251.66 62.11 277.46 46.45
  C 289.79 38.96 303.87 35.21 317.82 35.56
  C 331.07 35.89 346.40 41.33 359.36 46.32
  C 373.33 51.69 390.19 57.97 404.96 51.90
  C 414.92 47.81 421.02 37.93 417.75 27.39
  C 414.01 15.31 401.08 11.54 389.83 13.71
  A 1.16 1.16 0.0 0 1 388.52 12.18
  C 392.33 1.64 407.27 -0.42 416.59 0.86
  C 435.01 3.40 451.63 21.77 456.13 38.91
  C 458.09 46.40 459.97 54.10 459.63 61.93
  Q 459.02 75.72 452.42 88.42
  C 443.57 105.48 431.80 117.22 413.41 123.35
  A 1.14 1.14 0.0 0 0 412.64 124.54
  C 412.78 125.87 412.98 127.76 412.31 129.03
  C 403.10 146.47 381.32 152.78 362.96 150.85
  Q 362.12 150.76 361.61 151.08
  A 0.78 0.78 0.0 0 0 361.45 152.25
  Q 367.24 158.71 373.13 165.11
  Q 394.46 188.26 426.42 190.61
  Q 433.53 191.13 439.86 189.88
  C 444.88 188.90 451.17 188.36 450.46 195.99
  C 449.07 210.95 438.48 224.07 425.51 230.74
  A 0.70 0.70 0.0 0 0 425.66 232.04
  Q 430.50 233.19 428.58 238.61
  C 427.39 241.99 422.48 245.69 419.08 248.00
  Q 411.06 253.45 401.27 254.85
  Q 398.47 255.26 399.27 258.10
  C 401.43 265.69 401.62 273.97 401.49 281.72
  A 1.19 1.19 0.0 0 0 403.09 282.85
  Q 423.10 275.47 441.77 265.48
  C 445.67 263.40 455.64 256.58 461.28 258.22
  Q 461.78 258.36 462.08 258.78
  Q 463.09 260.18 463.40 261.07
  C 468.55 275.69 469.29 289.60 465.86 305.06
  C 461.11 326.49 451.53 347.27 434.64 362.37
  Q 429.58 366.89 424.41 371.29
  C 420.46 374.66 415.97 376.82 411.83 379.90
  C 405.63 384.53 398.72 386.68 391.82 389.15
  A 0.56 0.56 0.0 0 0 392.07 390.23
  C 396.47 389.79 412.49 387.85 415.16 391.71
  A 1.06 1.05 -49.1 0 1 415.23 392.78
  Q 414.15 394.88 411.32 397.31
  C 393.28 412.77 367.63 419.22 344.77 412.20
  Q 329.12 407.41 315.32 399.42
  A 1.93 1.93 0.0 0 0 313.28 399.49
  Q 298.05 409.69 280.02 413.88
  Q 276.95 414.59 273.83 414.47
  A 0.56 0.56 0.0 0 0 273.64 415.57
  C 283.43 418.60 302.17 431.85 301.25 444.11
  A 1.45 1.44 69.1 0 1 300.86 444.99
  Q 296.87 449.20 290.74 448.54
  Q 279.46 447.32 268.04 443.21
  A 0.62 0.61 9.9 0 0 267.22 443.78
  C 267.25 465.01 272.99 483.99 250.47 496.68
  C 246.43 498.96 240.57 500.82 236.78 497.07
  C 233.47 493.78 229.44 493.15 226.13 490.99
  C 217.50 485.35 208.93 477.04 205.23 467.19
  C 200.98 455.91 201.63 438.97 203.42 427.26
  A 0.46 0.45 81.6 0 0 202.78 426.78
  C 195.86 430.02 171.26 440.95 164.85 435.47
  Q 161.19 432.34 163.97 427.45
  Q 172.01 413.30 185.39 404.54
  A 0.87 0.86 -50.4 0 0 185.25 403.02
  C 180.64 401.13 175.76 399.99 171.49 397.86
  C 166.17 395.22 160.73 392.72 155.86 389.47
  Q 148.01 384.22 140.45 378.54
  C 139.47 377.80 137.88 378.42 136.80 379.13
  C 125.52 386.60 112.97 387.15 100.01 383.27
  Q 94.54 381.63 91.17 378.57
  A 1.25 1.23 -71.8 0 1 90.76 377.74
  C 90.36 372.62 104.20 370.64 107.94 369.24
  A 0.65 0.65 0.0 0 0 107.61 367.99
  C 105.31 368.36 103.21 368.41 100.84 367.91
  C 90.22 365.66 79.31 362.21 70.38 355.83
  C 63.11 350.63 56.73 345.66 50.99 338.66
  C 42.67 328.53 35.06 317.72 32.93 304.53
  Q 30.10 287.01 34.92 269.43
  C 38.29 257.15 44.05 249.92 56.25 259.83
  Q 68.76 270.00 83.97 275.83
  A 1.08 1.08 0.0 0 0 85.43 274.88
  Z"
/>
<g stroke-width="2.00" fill="none" stroke-linecap="butt">
<path stroke="#eea2ae" vector-effect="non-scaling-stroke" d="
  M 453.80 39.52
  L 449.81 42.56
  A 1.56 1.43 15.5 0 1 449.34 42.80
  Q 447.41 43.39 446.48 45.26
  C 444.67 48.94 441.80 48.46 438.43 49.26
  Q 436.49 49.71 435.45 49.79
  Q 425.25 50.56 418.16 43.19"
/>
<path stroke="#de8395" vector-effect="non-scaling-stroke" d="
  M 388.46 127.44
  L 388.61 127.84
  Q 388.78 128.31 388.41 128.65
  Q 379.47 136.86 376.42 138.16
  C 370.57 140.67 366.11 143.81 359.25 145.49
  Q 358.77 145.61 358.45 145.99
  L 357.10 147.59"
/>
<path stroke="#eea2ae" vector-effect="non-scaling-stroke" d="
  M 419.36 191.93
  C 417.80 199.41 409.62 193.11 408.76 200.55
  Q 408.64 201.65 408.31 202.10
  Q 407.63 203.02 406.61 202.56
  A 1.30 1.30 0.0 0 0 404.93 204.35
  L 406.93 208.23
  A 0.53 0.53 0.0 0 1 406.41 209.00
  Q 405.78 208.94 406.01 209.82
  Q 406.11 210.21 406.34 210.54
  Q 407.02 211.52 406.77 212.76
  Q 405.45 219.18 404.92 224.63
  C 404.70 226.97 402.49 230.90 402.93 232.79
  Q 403.22 234.05 404.46 234.27"
/>
<path stroke="#d17a8a" vector-effect="non-scaling-stroke" d="
  M 403.75 234.81
  Q 402.43 234.51 401.44 234.91
  Q 400.49 235.30 401.52 235.25
  Q 402.80 235.18 403.21 235.51"
/>
<path stroke="#eea2ae" vector-effect="non-scaling-stroke" d="
  M 403.21 235.51
  Q 404.99 241.99 411.39 246.28
  A 0.72 0.71 -64.2 0 1 411.67 247.11
  Q 411.03 248.91 412.32 249.68"
/>
<path stroke="#de8395" vector-effect="non-scaling-stroke" d="
  M 390.60 255.34
  Q 390.92 269.37 385.29 280.82
  Q 382.81 285.84 382.58 289.42"
/>
<path stroke="#de8395" vector-effect="non-scaling-stroke" d="
  M 465.45 284.57
  Q 463.48 283.96 462.52 284.53
  C 446.44 293.97 429.92 302.18 412.13 308.36
  C 383.47 318.32 357.27 326.28 327.38 331.43
  Q 309.04 334.58 290.76 338.08
  Q 290.39 338.15 290.05 338.45
  Q 289.70 338.75 289.25 338.74
  Q 284.39 338.62 279.71 340.05"
/>
<path stroke="#d17a8a" vector-effect="non-scaling-stroke" d="
  M 279.71 340.05
  L 269.82 340.51"
/>
<path stroke="#de8395" vector-effect="non-scaling-stroke" d="
  M 269.82 340.51
  Q 265.49 340.50 261.25 340.85
  C 255.20 341.34 249.13 341.09 243.04 341.82
  Q 236.63 342.58 233.41 342.68
  C 212.46 343.32 193.94 343.12 174.22 343.45
  C 166.38 343.58 158.53 342.43 151.50 341.27
  Q 142.35 339.75 133.91 339.51
  C 128.07 339.35 123.04 338.17 117.49 337.21
  C 113.47 336.53 109.12 334.95 104.72 334.22"
/>
<path stroke="#eea2ae" vector-effect="non-scaling-stroke" d="
  M 89.01 293.08
  L 93.52 292.99
  A 0.98 0.95 68.5 0 1 94.27 293.33
  Q 97.23 296.73 99.44 300.66
  C 102.11 305.43 105.57 302.94 106.96 299.05
  A 0.60 0.59 13.3 0 1 107.60 298.66
  Q 108.86 298.82 110.01 298.48"
/>
<path stroke="#eea2ae" vector-effect="non-scaling-stroke" d="
  M 232.57 126.33
  L 234.81 123.67
  Q 235.14 123.29 235.63 123.19
  C 242.06 121.93 248.68 123.97 253.93 119.05
  C 256.56 116.58 258.09 112.66 261.17 109.85"
/>
<path stroke="#d28e96" vector-effect="non-scaling-stroke" d="
  M 403.21 235.51
  Q 403.50 235.42 403.79 235.32"
/>
<path stroke="#c26f7d" vector-effect="non-scaling-stroke" d="
  M 405.91 391.57
  C 403.14 396.62 398.70 402.11 392.86 403.47
  C 384.93 405.31 376.11 407.21 368.82 410.91
  A 0.97 0.97 0.0 0 0 369.22 412.75
  L 370.01 412.79"
/>
<path stroke="#c26f7d" vector-effect="non-scaling-stroke" d="
  M 297.11 435.64
  Q 294.64 440.12 291.20 443.01
  Q 290.83 443.33 290.34 443.32
  L 280.56 443.27
  Q 280.02 443.27 279.74 443.73
  Q 279.52 444.09 279.42 444.59"
/>
<path stroke="#c26f7d" vector-effect="non-scaling-stroke" d="
  M 199.36 405.59
  Q 201.09 405.81 202.16 404.45
  A 0.81 0.81 0.0 0 0 202.22 403.55
  C 200.41 400.40 193.41 397.99 189.89 396.86
  Q 187.59 396.12 182.81 395.70
  C 177.82 395.25 173.14 394.21 168.95 391.01
  C 163.56 386.88 156.98 382.09 150.41 379.08
  Q 149.94 378.86 149.43 378.96
  C 146.43 379.53 146.01 377.15 144.46 376.04
  Q 141.40 373.84 138.05 372.22
  Q 137.46 371.94 136.95 372.00
  Q 135.82 372.12 136.06 372.91"
/>
<path stroke="#c26f7d" vector-effect="non-scaling-stroke" d="
  M 105.73 336.03
  Q 112.65 339.34 120.59 340.62
  C 127.52 341.74 134.22 343.49 141.12 343.76
  C 145.74 343.94 150.90 345.17 156.01 344.66
  Q 156.12 344.65 156.16 344.75
  Q 156.22 344.89 156.25 345.07
  Q 156.32 345.53 156.79 345.57
  Q 164.06 346.07 171.25 347.18
  Q 178.34 348.28 195.99 347.42
  C 200.24 347.22 204.24 347.62 207.98 347.13
  Q 214.16 346.32 217.01 346.40
  Q 243.63 347.09 269.82 340.51"
/>
<path stroke="#c26f7d" vector-effect="non-scaling-stroke" d="
  M 394.16 255.60
  C 393.75 261.54 394.44 267.55 392.20 271.73
  Q 391.97 272.17 392.00 272.66
  Q 392.10 274.27 391.08 275.45
  Q 390.73 275.86 390.64 276.39
  Q 389.90 281.09 387.02 284.89
  Q 386.70 285.31 386.76 285.83
  L 387.02 288.20"
/>
<path stroke="#c26f7d" vector-effect="non-scaling-stroke" d="
  M 465.77 288.23
  L 463.83 288.23
  A 1.47 1.43 -61.4 0 0 463.02 288.48
  Q 450.91 296.53 437.29 301.51
  C 429.43 304.38 422.31 308.55 414.40 311.18
  C 406.10 313.93 398.02 316.86 389.40 318.97
  Q 383.91 320.32 380.49 321.72
  Q 362.19 329.17 343.75 331.49
  C 339.42 332.03 334.92 333.36 331.63 333.91
  Q 316.67 336.43 301.67 338.64
  C 294.84 339.65 287.08 339.22 279.71 340.05"
/>
<path stroke="#eea2ae" vector-effect="non-scaling-stroke" d="
  M 395.07 56.46
  L 394.68 62.24
  Q 394.67 62.39 394.80 62.43
  Q 394.94 62.48 395.06 62.52
  A 0.45 0.45 0.0 0 1 395.33 62.84
  Q 396.69 69.18 394.56 73.32
  Q 392.92 76.50 392.90 78.90
  A 1.07 1.05 19.0 0 0 393.32 79.74
  Q 394.48 80.61 394.28 81.92
  Q 394.15 82.74 394.95 82.50
  Q 397.99 81.60 401.41 81.77
  A 2.07 2.07 0.0 0 1 402.95 85.09
  C 401.46 87.05 398.92 87.60 397.54 89.45
  C 395.37 92.35 395.79 94.51 391.40 95.15
  C 384.86 96.12 377.29 102.25 372.05 94.60
  A 1.27 1.26 38.5 0 1 371.91 93.41
  Q 373.12 90.25 376.30 89.00
  A 0.52 0.52 0.0 0 0 376.53 88.21
  Q 376.16 87.72 375.51 87.59
  C 374.13 87.31 369.46 90.29 367.13 90.54
  Q 358.45 91.48 349.72 91.85
  C 345.82 92.02 342.14 90.84 338.25 90.20
  C 334.88 89.65 330.10 92.33 326.95 93.57
  C 324.17 94.66 323.24 96.88 319.56 96.79
  C 315.44 96.69 311.16 96.74 307.50 94.44
  C 303.80 92.13 299.23 90.87 296.47 88.26
  C 293.20 85.15 286.95 81.08 282.74 81.46
  C 276.15 82.04 271.04 80.04 269.33 73.58
  Q 268.39 70.01 266.16 67.01
  Q 265.86 66.61 265.73 66.13
  L 264.07 60.37"
/>
<path stroke="#c26f7d" vector-effect="non-scaling-stroke" d="
  M 361.95 148.76
  Q 378.14 143.88 388.26 131.64
  C 389.35 130.32 389.68 129.11 390.32 127.53"
/>
<path stroke="#c1bfcb" vector-effect="non-scaling-stroke" d="
  M 118.64 273.81
  C 119.42 278.16 121.45 281.94 125.34 284.03
  C 127.87 285.39 129.64 288.39 132.98 286.00
  C 141.53 279.88 149.27 274.98 155.30 265.37
  C 160.95 256.37 131.79 246.42 126.21 244.37
  Q 118.66 241.59 110.48 240.40
  C 92.35 237.76 73.25 237.16 55.52 241.08
  C 53.76 241.46 52.39 242.67 51.04 243.79"
/>
<path stroke="#e2e3ee" vector-effect="non-scaling-stroke" d="
  M 45.75 232.28
  Q 45.70 232.63 45.76 232.80
  A 0.12 0.12 0.0 0 0 46.00 232.76
  L 46.00 232.23
  Q 46.00 231.79 46.42 231.66
  C 48.45 231.05 50.47 230.91 52.18 229.51
  Q 55.53 226.79 59.05 224.30
  Q 59.46 224.01 59.96 224.01
  C 63.51 223.98 65.75 223.35 68.54 220.80
  Q 73.55 216.22 79.11 212.21
  Q 79.54 211.90 79.48 211.36
  C 78.67 204.04 85.59 204.95 88.21 201.22
  C 91.49 196.54 96.44 189.98 102.14 189.80
  A 1.83 1.76 56.0 0 1 103.02 189.99
  C 107.08 192.06 111.82 188.84 114.50 185.87
  A 1.42 1.39 -22.2 0 0 114.85 185.06
  C 115.56 177.52 109.24 174.29 109.94 166.64
  Q 109.98 166.15 110.45 166.01
  L 111.43 165.70
  Q 111.82 165.58 111.82 165.17
  C 111.84 161.36 115.92 158.79 118.90 157.01
  C 122.77 154.69 126.05 150.88 129.03 149.26
  Q 139.40 143.61 149.79 137.98
  A 0.81 0.80 -15.4 0 0 150.22 137.24
  L 150.01 129.83"
/>
<path stroke="#e57954" vector-effect="non-scaling-stroke" d="
  M 262.93 268.84
  Q 255.08 260.43 245.70 254.42"
/>
<path stroke="#702d1c" vector-effect="non-scaling-stroke" d="
  M 245.70 254.42
  C 251.96 243.74 255.81 224.57 255.10 212.14
  C 254.79 206.72 252.69 195.52 246.23 195.44"
/>
<path stroke="#e3a092" vector-effect="non-scaling-stroke" d="
  M 246.23 195.44
  C 248.59 189.16 247.13 175.77 236.29 182.44
  Q 220.43 192.22 222.59 211.90
  C 222.66 212.60 223.17 213.46 223.52 214.05"
/>
<path stroke="#b06954" vector-effect="non-scaling-stroke" d="
  M 223.52 214.05
  Q 222.64 214.51 223.16 215.03"
/>
<path stroke="#702d1c" vector-effect="non-scaling-stroke" d="
  M 223.16 215.03
  C 216.81 228.19 214.30 242.36 216.90 256.42"
/>
<path stroke="#e57954" vector-effect="non-scaling-stroke" d="
  M 216.90 256.42
  Q 214.81 259.28 211.51 260.53
  Q 209.40 261.32 207.96 263.69
  A 1.03 1.01 -79.7 0 1 207.31 264.15
  L 202.73 265.21"
/>
<path stroke="#754d39" vector-effect="non-scaling-stroke" d="
  M 245.70 254.42
  Q 242.82 259.90 238.77 264.27
  C 229.10 274.72 219.43 268.21 216.90 256.42"
/>
<path stroke="#413c39" vector-effect="non-scaling-stroke" d="
  M 223.16 215.03
  Q 223.97 215.42 224.24 217.28"
/>
<path stroke="#222222" vector-effect="non-scaling-stroke" d="
  M 224.24 217.28
  C 220.68 223.75 219.06 234.19 218.10 241.49
  C 217.57 245.50 217.85 249.54 218.05 253.57"
/>
<path stroke="#413c39" vector-effect="non-scaling-stroke" d="
  M 218.05 253.57
  C 218.90 261.81 224.28 271.51 233.86 265.88
  Q 240.66 261.89 244.28 252.85"
/>
<path stroke="#222222" vector-effect="non-scaling-stroke" d="
  M 244.28 252.85
  C 250.76 241.15 253.33 224.15 252.78 211.52
  Q 252.44 203.43 246.99 197.31"
/>
<path stroke="#413c39" vector-effect="non-scaling-stroke" d="
  M 246.99 197.31
  Q 247.04 197.18 246.98 196.81
  Q 246.94 196.53 246.75 196.40
  Q 246.54 196.26 246.17 196.09"
/>
<path stroke="#747476" vector-effect="non-scaling-stroke" d="
  M 246.23 195.44
  Q 246.36 196.60 246.17 196.09"
/>
<path stroke="#b4b0af" vector-effect="non-scaling-stroke" d="
  M 246.17 196.09
  C 244.17 205.03 236.92 217.74 226.50 217.59"
/>
<path stroke="#969598" vector-effect="non-scaling-stroke" d="
  M 226.50 217.59
  L 225.59 217.14"
/>
<path stroke="#b4b0af" vector-effect="non-scaling-stroke" d="
  M 225.59 217.14
  Q 225.09 215.51 223.52 214.05"
/>
<path stroke="#635e5b" vector-effect="non-scaling-stroke" d="
  M 246.99 197.31
  Q 245.28 201.19 243.86 204.73
  C 241.16 211.48 234.65 219.19 226.50 217.59"
/>
<path stroke="#635e5b" vector-effect="non-scaling-stroke" d="
  M 244.28 252.85
  L 241.77 250.87
  A 1.07 1.05 55.5 0 0 240.80 250.68
  Q 239.10 251.18 237.93 250.11
  Q 237.54 249.75 237.00 249.75
  L 233.32 249.75
  Q 232.77 249.75 232.37 250.12
  L 227.84 254.22
  A 0.45 0.44 -63.1 0 1 227.49 254.34
  L 218.05 253.57"
/>
<path stroke="#635e5b" vector-effect="non-scaling-stroke" d="
  M 224.24 217.28
  Q 224.76 217.63 225.59 217.14"
/>
<path stroke="#635e5b" vector-effect="non-scaling-stroke" d="
  M 321.69 202.88
  Q 321.99 204.78 321.23 206.49
  C 319.20 211.03 321.22 214.53 318.05 219.28
  C 314.72 224.26 314.79 227.93 315.35 233.95
  C 315.58 236.45 316.42 238.08 318.90 238.55
  Q 319.41 238.65 319.84 238.96
  L 321.72 240.34
  Q 322.15 240.66 322.22 241.19
  Q 322.61 243.74 325.02 244.12"
/>
<path stroke="#635e5b" vector-effect="non-scaling-stroke" d="
  M 295.02 265.49
  Q 294.50 271.04 296.85 276.65"
/>
<path stroke="#d17a8a" vector-effect="non-scaling-stroke" d="
  M 102.10 332.70
  Q 101.96 334.44 101.00 334.33
  C 96.04 333.76 92.09 334.05 87.07 333.66
  C 82.08 333.27 77.59 335.07 72.16 334.66
  C 66.65 334.25 61.00 331.79 55.69 329.80
  C 52.98 328.78 52.50 326.80 50.33 325.52
  C 47.82 324.04 45.35 321.30 43.32 319.19
  C 42.08 317.90 40.95 318.05 39.34 318.44"
/>
<path stroke="#99518c" vector-effect="non-scaling-stroke" d="
  M 265.78 462.27
  Q 260.90 461.36 259.68 466.12
  Q 259.56 466.61 259.15 466.89
  C 254.52 470.03 250.06 467.58 245.17 469.85
  Q 244.72 470.06 244.22 470.03
  Q 240.15 469.83 237.19 471.44
  C 235.67 472.26 234.47 472.13 233.39 472.64
  Q 230.47 474.02 229.50 476.94"
/>
<path stroke="#763e75" vector-effect="non-scaling-stroke" d="
  M 226.00 466.69
  Q 225.21 465.36 223.69 464.97
  Q 223.21 464.85 222.74 464.99
  C 218.31 466.28 217.17 463.39 214.15 462.29
  Q 209.57 460.63 205.83 462.63"
/>
</g>
<path fill="#efb6ba" d="
  M 453.80 39.52
  L 449.81 42.56
  A 1.56 1.43 15.5 0 1 449.34 42.80
  Q 447.41 43.39 446.48 45.26
  C 444.67 48.94 441.80 48.46 438.43 49.26
  Q 436.49 49.71 435.45 49.79
  Q 425.25 50.56 418.16 43.19
  C 423.65 32.95 419.98 21.39 410.66 15.18
  C 405.02 11.42 397.76 10.90 391.08 11.74
  A 0.57 0.56 -71.3 0 1 390.61 10.78
  C 404.09 -2.99 424.30 1.34 437.36 13.07
  C 439.84 15.30 444.36 20.07 446.14 23.26
  C 449.32 28.98 452.42 31.87 453.80 39.52
  Z"
/>
<path fill="#efb6ba" d="
  M 395.07 56.46
  L 394.68 62.24
  Q 394.67 62.39 394.80 62.43
  Q 394.94 62.48 395.06 62.52
  A 0.45 0.45 0.0 0 1 395.33 62.84
  Q 396.69 69.18 394.56 73.32
  Q 392.92 76.50 392.90 78.90
  A 1.07 1.05 19.0 0 0 393.32 79.74
  Q 394.48 80.61 394.28 81.92
  Q 394.15 82.74 394.95 82.50
  Q 397.99 81.60 401.41 81.77
  A 2.07 2.07 0.0 0 1 402.95 85.09
  C 401.46 87.05 398.92 87.60 397.54 89.45
  C 395.37 92.35 395.79 94.51 391.40 95.15
  C 384.86 96.12 377.29 102.25 372.05 94.60
  A 1.27 1.26 38.5 0 1 371.91 93.41
  Q 373.12 90.25 376.30 89.00
  A 0.52 0.52 0.0 0 0 376.53 88.21
  Q 376.16 87.72 375.51 87.59
  C 374.13 87.31 369.46 90.29 367.13 90.54
  Q 358.45 91.48 349.72 91.85
  C 345.82 92.02 342.14 90.84 338.25 90.20
  C 334.88 89.65 330.10 92.33 326.95 93.57
  C 324.17 94.66 323.24 96.88 319.56 96.79
  C 315.44 96.69 311.16 96.74 307.50 94.44
  C 303.80 92.13 299.23 90.87 296.47 88.26
  C 293.20 85.15 286.95 81.08 282.74 81.46
  C 276.15 82.04 271.04 80.04 269.33 73.58
  Q 268.39 70.01 266.16 67.01
  Q 265.86 66.61 265.73 66.13
  L 264.07 60.37
  C 279.26 43.72 301.15 35.68 323.33 37.77
  C 332.64 38.65 342.81 42.64 352.10 45.77
  C 361.65 48.99 372.14 53.15 383.26 55.73
  Q 389.69 57.23 395.07 56.46
  Z"
/>
<path fill="#ed8ea2" d="
  M 453.80 39.52
  C 458.76 50.77 457.87 61.24 455.71 73.01
  C 451.98 93.37 436.44 112.13 417.45 120.15
  C 405.70 125.11 396.46 125.80 382.25 125.38
  Q 367.35 124.94 353.50 119.51
  Q 352.37 119.07 351.41 118.34
  Q 351.21 118.20 351.09 118.28
  Q 351.04 118.32 351.03 118.38
  Q 351.00 118.47 351.10 118.55
  C 360.82 126.04 376.45 127.20 388.46 127.44
  L 388.61 127.84
  Q 388.78 128.31 388.41 128.65
  Q 379.47 136.86 376.42 138.16
  C 370.57 140.67 366.11 143.81 359.25 145.49
  Q 358.77 145.61 358.45 145.99
  L 357.10 147.59
  Q 343.92 134.89 326.19 126.80
  Q 322.22 124.99 325.46 127.90
  Q 326.88 129.17 329.71 130.38
  C 345.49 137.16 356.71 149.98 368.97 163.16
  C 381.38 176.50 393.27 186.09 410.60 189.99
  Q 414.96 190.97 419.36 191.93
  C 417.80 199.41 409.62 193.11 408.76 200.55
  Q 408.64 201.65 408.31 202.10
  Q 407.63 203.02 406.61 202.56
  A 1.30 1.30 0.0 0 0 404.93 204.35
  L 406.93 208.23
  A 0.53 0.53 0.0 0 1 406.41 209.00
  Q 405.78 208.94 406.01 209.82
  Q 406.11 210.21 406.34 210.54
  Q 407.02 211.52 406.77 212.76
  Q 405.45 219.18 404.92 224.63
  C 404.70 226.97 402.49 230.90 402.93 232.79
  Q 403.22 234.05 404.46 234.27
  L 403.75 234.81
  Q 402.43 234.51 401.44 234.91
  Q 400.49 235.30 401.52 235.25
  Q 402.80 235.18 403.21 235.51
  Q 404.99 241.99 411.39 246.28
  A 0.72 0.71 -64.2 0 1 411.67 247.11
  Q 411.03 248.91 412.32 249.68
  L 407.76 251.54
  Q 407.32 251.72 406.85 251.71
  C 403.83 251.69 401.15 252.91 398.58 253.17
  C 389.52 254.08 383.79 252.24 376.00 251.25
  Q 375.13 251.13 374.98 251.27
  A 0.67 0.64 -60.5 0 0 375.27 252.40
  L 390.60 255.34
  Q 390.92 269.37 385.29 280.82
  Q 382.81 285.84 382.58 289.42
  Q 365.34 293.82 347.30 296.75
  C 341.81 297.64 334.43 298.30 328.01 299.42
  A 0.53 0.53 0.0 0 0 327.95 300.45
  Q 328.45 300.60 329.25 300.55
  C 372.99 297.52 417.90 283.12 454.82 260.82
  C 465.40 254.42 465.57 280.10 465.45 284.57
  Q 463.48 283.96 462.52 284.53
  C 446.44 293.97 429.92 302.18 412.13 308.36
  C 383.47 318.32 357.27 326.28 327.38 331.43
  Q 309.04 334.58 290.76 338.08
  Q 290.39 338.15 290.05 338.45
  Q 289.70 338.75 289.25 338.74
  Q 284.39 338.62 279.71 340.05
  L 269.82 340.51
  Q 265.49 340.50 261.25 340.85
  C 255.20 341.34 249.13 341.09 243.04 341.82
  Q 236.63 342.58 233.41 342.68
  C 212.46 343.32 193.94 343.12 174.22 343.45
  C 166.38 343.58 158.53 342.43 151.50 341.27
  Q 142.35 339.75 133.91 339.51
  C 128.07 339.35 123.04 338.17 117.49 337.21
  C 113.47 336.53 109.12 334.95 104.72 334.22
  C 98.70 321.45 90.81 307.66 89.01 293.08
  L 93.52 292.99
  A 0.98 0.95 68.5 0 1 94.27 293.33
  Q 97.23 296.73 99.44 300.66
  C 102.11 305.43 105.57 302.94 106.96 299.05
  A 0.60 0.59 13.3 0 1 107.60 298.66
  Q 108.86 298.82 110.01 298.48
  Q 115.08 306.39 121.63 313.21
  C 131.03 322.98 147.35 330.28 160.37 333.33
  Q 183.64 338.79 208.50 335.00
  C 227.40 332.12 240.63 322.55 254.67 310.05
  C 260.80 304.59 265.88 297.73 271.16 291.16
  Q 272.36 289.67 274.74 284.22
  A 1.27 1.27 0.0 0 1 275.40 283.56
  Q 277.03 282.85 277.83 282.80
  C 287.77 282.13 310.76 277.03 314.72 265.74
  C 315.63 263.14 314.27 262.12 311.74 262.48
  Q 301.11 263.97 296.93 263.59
  Q 293.41 263.26 291.56 263.56
  Q 291.20 263.61 290.95 263.34
  Q 290.85 263.22 290.73 263.11
  A 0.15 0.15 0.0 0 1 290.79 262.86
  C 311.13 256.57 331.27 244.75 345.12 228.49
  C 352.59 219.71 361.67 207.10 361.94 195.06
  C 362.04 190.69 359.26 189.65 355.47 190.85
  C 350.75 192.34 345.96 194.84 341.65 195.99
  C 326.03 200.14 310.17 202.94 294.41 202.21
  Q 293.89 202.18 293.84 201.67
  C 289.88 164.91 264.96 138.53 232.57 126.33
  L 234.81 123.67
  Q 235.14 123.29 235.63 123.19
  C 242.06 121.93 248.68 123.97 253.93 119.05
  C 256.56 116.58 258.09 112.66 261.17 109.85
  L 267.56 114.02
  A 0.30 0.30 0.0 0 0 267.89 113.52
  C 249.66 101.27 253.48 76.44 264.07 60.37
  L 265.73 66.13
  Q 265.86 66.61 266.16 67.01
  Q 268.39 70.01 269.33 73.58
  C 271.04 80.04 276.15 82.04 282.74 81.46
  C 286.95 81.08 293.20 85.15 296.47 88.26
  C 299.23 90.87 303.80 92.13 307.50 94.44
  C 311.16 96.74 315.44 96.69 319.56 96.79
  C 323.24 96.88 324.17 94.66 326.95 93.57
  C 330.10 92.33 334.88 89.65 338.25 90.20
  C 342.14 90.84 345.82 92.02 349.72 91.85
  Q 358.45 91.48 367.13 90.54
  C 369.46 90.29 374.13 87.31 375.51 87.59
  Q 376.16 87.72 376.53 88.21
  A 0.52 0.52 0.0 0 1 376.30 89.00
  Q 373.12 90.25 371.91 93.41
  A 1.27 1.26 38.5 0 0 372.05 94.60
  C 377.29 102.25 384.86 96.12 391.40 95.15
  C 395.79 94.51 395.37 92.35 397.54 89.45
  C 398.92 87.60 401.46 87.05 402.95 85.09
  A 2.07 2.07 0.0 0 0 401.41 81.77
  Q 397.99 81.60 394.95 82.50
  Q 394.15 82.74 394.28 81.92
  Q 394.48 80.61 393.32 79.74
  A 1.07 1.05 19.0 0 1 392.90 78.90
  Q 392.92 76.50 394.56 73.32
  Q 396.69 69.18 395.33 62.84
  A 0.45 0.45 0.0 0 0 395.06 62.52
  Q 394.94 62.48 394.80 62.43
  Q 394.67 62.39 394.68 62.24
  L 395.07 56.46
  C 404.36 55.29 413.24 51.29 418.16 43.19
  Q 425.25 50.56 435.45 49.79
  Q 436.49 49.71 438.43 49.26
  C 441.80 48.46 444.67 48.94 446.48 45.26
  Q 447.41 43.39 449.34 42.80
  A 1.56 1.43 15.5 0 0 449.81 42.56
  L 453.80 39.52
  Z"
/>
<path fill="#efb6ba" d="
  M 261.17 109.85
  C 258.09 112.66 256.56 116.58 253.93 119.05
  C 248.68 123.97 242.06 121.93 235.63 123.19
  Q 235.14 123.29 234.81 123.67
  L 232.57 126.33
  C 225.80 124.39 218.99 121.56 212.33 120.73
  C 195.90 118.67 179.70 120.77 164.01 123.81
  A 0.71 0.70 20.6 0 1 163.44 122.56
  C 187.31 103.99 214.90 95.52 245.52 96.10
  Q 250.50 96.19 254.13 97.33
  Q 254.63 97.49 254.78 97.99
  Q 256.84 104.81 261.17 109.85
  Z"
/>
<path fill="#dcdff0" d="
  M 118.64 273.81
  C 119.42 278.16 121.45 281.94 125.34 284.03
  C 127.87 285.39 129.64 288.39 132.98 286.00
  C 141.53 279.88 149.27 274.98 155.30 265.37
  C 160.95 256.37 131.79 246.42 126.21 244.37
  Q 118.66 241.59 110.48 240.40
  C 92.35 237.76 73.25 237.16 55.52 241.08
  C 53.76 241.46 52.39 242.67 51.04 243.79
  C 46.34 241.16 44.64 237.77 45.75 232.28
  Q 45.70 232.63 45.76 232.80
  A 0.12 0.12 0.0 0 0 46.00 232.76
  L 46.00 232.23
  Q 46.00 231.79 46.42 231.66
  C 48.45 231.05 50.47 230.91 52.18 229.51
  Q 55.53 226.79 59.05 224.30
  Q 59.46 224.01 59.96 224.01
  C 63.51 223.98 65.75 223.35 68.54 220.80
  Q 73.55 216.22 79.11 212.21
  Q 79.54 211.90 79.48 211.36
  C 78.67 204.04 85.59 204.95 88.21 201.22
  C 91.49 196.54 96.44 189.98 102.14 189.80
  A 1.83 1.76 56.0 0 1 103.02 189.99
  C 107.08 192.06 111.82 188.84 114.50 185.87
  A 1.42 1.39 -22.2 0 0 114.85 185.06
  C 115.56 177.52 109.24 174.29 109.94 166.64
  Q 109.98 166.15 110.45 166.01
  L 111.43 165.70
  Q 111.82 165.58 111.82 165.17
  C 111.84 161.36 115.92 158.79 118.90 157.01
  C 122.77 154.69 126.05 150.88 129.03 149.26
  Q 139.40 143.61 149.79 137.98
  A 0.81 0.80 -15.4 0 0 150.22 137.24
  L 150.01 129.83
  Q 165.36 124.59 181.37 122.84
  C 191.94 121.69 203.18 122.29 213.88 123.28
  C 215.84 123.46 217.84 124.34 220.05 124.62
  Q 221.64 124.82 222.54 125.08
  C 259.37 135.91 285.29 160.74 292.17 200.30
  Q 292.41 201.67 291.05 201.35
  C 284.76 199.88 282.76 192.71 280.02 187.59
  C 279.19 186.05 277.40 184.30 276.71 182.11
  A 1.79 1.69 -79.5 0 0 276.19 181.31
  C 268.46 174.51 262.50 169.83 251.68 170.68
  C 242.27 171.42 228.98 179.60 222.78 186.54
  C 205.50 205.87 195.61 236.60 200.06 262.68
  C 201.90 273.42 206.08 285.63 214.54 293.10
  C 229.21 306.06 249.60 299.65 262.24 286.86
  C 265.34 283.73 268.36 283.11 272.50 283.56
  Q 272.98 283.61 272.75 284.03
  C 263.65 301.03 248.64 314.01 231.91 324.89
  C 227.57 327.72 220.66 330.45 215.52 331.63
  C 193.53 336.72 169.76 335.88 148.76 327.28
  Q 137.95 322.85 130.95 318.22
  C 117.95 309.61 106.22 292.08 102.38 276.86
  C 101.32 272.66 100.04 266.23 100.73 262.11
  A 1.08 1.08 0.0 0 1 102.36 261.37
  Q 107.58 264.57 112.10 267.49
  C 114.70 269.16 116.40 271.71 118.64 273.81
  Z"
/>
<path fill="#b56672" d="
  M 361.95 148.76
  Q 378.14 143.88 388.26 131.64
  C 389.35 130.32 389.68 129.11 390.32 127.53
  Q 399.75 127.31 409.17 124.97
  A 1.37 1.37 0.0 0 1 410.80 126.73
  C 409.36 131.09 405.24 135.47 401.01 139.15
  C 391.33 147.55 374.42 151.28 361.95 148.76
  Z"
/>
<path fill="#cf7788" d="
  M 388.46 127.44
  L 390.32 127.53
  C 389.68 129.11 389.35 130.32 388.26 131.64
  Q 378.14 143.88 361.95 148.76
  L 357.10 147.59
  L 358.45 145.99
  Q 358.77 145.61 359.25 145.49
  C 366.11 143.81 370.57 140.67 376.42 138.16
  Q 379.47 136.86 388.41 128.65
  Q 388.78 128.31 388.61 127.84
  L 388.46 127.44
  Z"
/>
<path fill="#e7e7ec" d="
  M 150.01 129.83
  L 150.22 137.24
  A 0.81 0.80 -15.4 0 1 149.79 137.98
  Q 139.40 143.61 129.03 149.26
  C 126.05 150.88 122.77 154.69 118.90 157.01
  C 115.92 158.79 111.84 161.36 111.82 165.17
  Q 111.82 165.58 111.43 165.70
  L 110.45 166.01
  Q 109.98 166.15 109.94 166.64
  C 109.24 174.29 115.56 177.52 114.85 185.06
  A 1.42 1.39 -22.2 0 1 114.50 185.87
  C 111.82 188.84 107.08 192.06 103.02 189.99
  A 1.83 1.76 56.0 0 0 102.14 189.80
  C 96.44 189.98 91.49 196.54 88.21 201.22
  C 85.59 204.95 78.67 204.04 79.48 211.36
  Q 79.54 211.90 79.11 212.21
  Q 73.55 216.22 68.54 220.80
  C 65.75 223.35 63.51 223.98 59.96 224.01
  Q 59.46 224.01 59.05 224.30
  Q 55.53 226.79 52.18 229.51
  C 50.47 230.91 48.45 231.05 46.42 231.66
  Q 46.00 231.79 46.00 232.23
  L 46.00 232.76
  A 0.12 0.12 0.0 0 1 45.76 232.80
  Q 45.70 232.63 45.75 232.28
  C 49.79 203.14 66.20 180.15 87.51 160.75
  C 104.45 145.33 128.15 135.72 150.01 129.83
  Z"
/>
<path fill="#df5937" d="
  M 262.93 268.84
  Q 255.08 260.43 245.70 254.42
  C 251.96 243.74 255.81 224.57 255.10 212.14
  C 254.79 206.72 252.69 195.52 246.23 195.44
  C 248.59 189.16 247.13 175.77 236.29 182.44
  Q 220.43 192.22 222.59 211.90
  C 222.66 212.60 223.17 213.46 223.52 214.05
  Q 222.64 214.51 223.16 215.03
  C 216.81 228.19 214.30 242.36 216.90 256.42
  Q 214.81 259.28 211.51 260.53
  Q 209.40 261.32 207.96 263.69
  A 1.03 1.01 -79.7 0 1 207.31 264.15
  L 202.73 265.21
  Q 202.08 263.48 201.75 259.56
  C 199.43 231.72 209.17 194.37 235.41 179.32
  C 243.18 174.87 255.65 168.34 263.45 176.14
  C 266.31 178.99 271.53 186.67 273.06 190.93
  C 281.90 215.39 275.25 246.32 262.93 268.84
  Z"
/>
<path fill="#444344" d="
  M 321.69 202.88
  Q 321.99 204.78 321.23 206.49
  C 319.20 211.03 321.22 214.53 318.05 219.28
  C 314.72 224.26 314.79 227.93 315.35 233.95
  C 315.58 236.45 316.42 238.08 318.90 238.55
  Q 319.41 238.65 319.84 238.96
  L 321.72 240.34
  Q 322.15 240.66 322.22 241.19
  Q 322.61 243.74 325.02 244.12
  C 311.24 252.78 297.04 260.48 280.78 263.82
  A 0.35 0.35 0.0 0 0 280.82 264.51
  L 295.02 265.49
  Q 294.50 271.04 296.85 276.65
  C 289.99 279.76 280.25 280.96 272.01 281.59
  C 268.59 281.85 264.78 282.10 262.04 284.49
  C 253.88 291.59 248.12 295.71 238.32 297.93
  A 0.28 0.28 0.0 0 1 238.15 297.40
  C 264.41 285.84 276.79 246.48 278.45 220.54
  C 279.31 207.11 277.61 193.31 271.08 181.75
  C 269.90 179.67 268.13 178.33 266.38 176.74
  Q 266.16 176.54 266.25 176.25
  Q 266.29 176.12 266.34 175.98
  A 0.15 0.15 0.0 0 1 266.56 175.90
  Q 276.65 182.53 281.24 193.49
  C 284.01 200.11 287.49 203.92 294.99 204.18
  Q 307.65 204.61 321.69 202.88
  Z"
/>
<path fill="#e7e7ec" d="
  M 246.23 195.44
  Q 246.36 196.60 246.17 196.09
  C 244.17 205.03 236.92 217.74 226.50 217.59
  L 225.59 217.14
  Q 225.09 215.51 223.52 214.05
  C 223.17 213.46 222.66 212.60 222.59 211.90
  Q 220.43 192.22 236.29 182.44
  C 247.13 175.77 248.59 189.16 246.23 195.44
  Z"
/>
<path fill="#efb6ba" d="
  M 404.46 234.27
  Q 403.22 234.05 402.93 232.79
  C 402.49 230.90 404.70 226.97 404.92 224.63
  Q 405.45 219.18 406.77 212.76
  Q 407.02 211.52 406.34 210.54
  Q 406.11 210.21 406.01 209.82
  Q 405.78 208.94 406.41 209.00
  A 0.53 0.53 0.0 0 0 406.93 208.23
  L 404.93 204.35
  A 1.30 1.30 0.0 0 1 406.61 202.56
  Q 407.63 203.02 408.31 202.10
  Q 408.64 201.65 408.76 200.55
  C 409.62 193.11 417.80 199.41 419.36 191.93
  Q 431.72 194.00 444.00 191.27
  Q 445.59 190.91 447.64 192.11
  A 1.28 1.25 -85.7 0 1 448.21 192.79
  C 449.56 196.50 445.92 205.37 444.23 209.09
  C 439.10 220.36 428.71 228.98 416.99 232.26
  Q 414.24 233.03 404.46 234.27
  Z"
/>
<path fill="#817871" d="
  M 325.02 244.12
  Q 322.61 243.74 322.22 241.19
  Q 322.15 240.66 321.72 240.34
  L 319.84 238.96
  Q 319.41 238.65 318.90 238.55
  C 316.42 238.08 315.58 236.45 315.35 233.95
  C 314.79 227.93 314.72 224.26 318.05 219.28
  C 321.22 214.53 319.20 211.03 321.23 206.49
  Q 321.99 204.78 321.69 202.88
  Q 338.89 200.68 354.60 193.78
  C 355.79 193.26 356.90 193.05 358.08 193.22
  A 1.90 1.89 -81.7 0 1 359.67 195.36
  Q 357.41 211.18 347.31 222.34
  C 340.20 230.21 334.58 236.98 325.02 244.12
  Z"
/>
<path fill="#000000" d="
  M 246.23 195.44
  C 252.69 195.52 254.79 206.72 255.10 212.14
  C 255.81 224.57 251.96 243.74 245.70 254.42
  Q 242.82 259.90 238.77 264.27
  C 229.10 274.72 219.43 268.21 216.90 256.42
  C 214.30 242.36 216.81 228.19 223.16 215.03
  Q 223.97 215.42 224.24 217.28
  C 220.68 223.75 219.06 234.19 218.10 241.49
  C 217.57 245.50 217.85 249.54 218.05 253.57
  C 218.90 261.81 224.28 271.51 233.86 265.88
  Q 240.66 261.89 244.28 252.85
  C 250.76 241.15 253.33 224.15 252.78 211.52
  Q 252.44 203.43 246.99 197.31
  Q 247.04 197.18 246.98 196.81
  Q 246.94 196.53 246.75 196.40
  Q 246.54 196.26 246.17 196.09
  Q 246.36 196.60 246.23 195.44
  Z"
/>
<path fill="#817871" d="
  M 246.17 196.09
  Q 246.54 196.26 246.75 196.40
  Q 246.94 196.53 246.98 196.81
  Q 247.04 197.18 246.99 197.31
  Q 245.28 201.19 243.86 204.73
  C 241.16 211.48 234.65 219.19 226.50 217.59
  C 236.92 217.74 244.17 205.03 246.17 196.09
  Z"
/>
<path fill="#444344" d="
  M 246.99 197.31
  Q 252.44 203.43 252.78 211.52
  C 253.33 224.15 250.76 241.15 244.28 252.85
  L 241.77 250.87
  A 1.07 1.05 55.5 0 0 240.80 250.68
  Q 239.10 251.18 237.93 250.11
  Q 237.54 249.75 237.00 249.75
  L 233.32 249.75
  Q 232.77 249.75 232.37 250.12
  L 227.84 254.22
  A 0.45 0.44 -63.1 0 1 227.49 254.34
  L 218.05 253.57
  C 217.85 249.54 217.57 245.50 218.10 241.49
  C 219.06 234.19 220.68 223.75 224.24 217.28
  Q 224.76 217.63 225.59 217.14
  L 226.50 217.59
  C 234.65 219.19 241.16 211.48 243.86 204.73
  Q 245.28 201.19 246.99 197.31
  Z"
/>
<path fill="#817871" d="
  M 223.52 214.05
  Q 225.09 215.51 225.59 217.14
  Q 224.76 217.63 224.24 217.28
  Q 223.97 215.42 223.16 215.03
  Q 222.64 214.51 223.52 214.05
  Z"
/>
<path fill="#efb6ba" d="
  M 412.32 249.68
  Q 411.03 248.91 411.67 247.11
  A 0.72 0.71 -64.2 0 0 411.39 246.28
  Q 404.99 241.99 403.21 235.51
  Q 403.50 235.42 403.79 235.32
  Q 409.75 235.64 415.74 234.26
  C 419.47 233.40 422.70 234.12 426.32 234.47
  Q 427.61 234.59 427.23 235.83
  C 425.50 241.46 417.31 247.11 412.32 249.68
  Z"
/>
<path fill="#b56672" d="
  M 403.75 234.81
  L 403.79 235.32
  Q 403.50 235.42 403.21 235.51
  Q 402.80 235.18 401.52 235.25
  Q 400.49 235.30 401.44 234.91
  Q 402.43 234.51 403.75 234.81
  Z"
/>
<path fill="#a59fa5" d="
  M 118.64 273.81
  L 121.15 275.66
  A 0.47 0.47 0.0 0 0 121.84 275.05
  Q 117.91 268.15 111.29 264.23
  Q 91.13 252.28 73.18 247.60
  Q 68.44 246.37 51.04 243.79
  C 52.39 242.67 53.76 241.46 55.52 241.08
  C 73.25 237.16 92.35 237.76 110.48 240.40
  Q 118.66 241.59 126.21 244.37
  C 131.79 246.42 160.95 256.37 155.30 265.37
  C 149.27 274.98 141.53 279.88 132.98 286.00
  C 129.64 288.39 127.87 285.39 125.34 284.03
  C 121.45 281.94 119.42 278.16 118.64 273.81
  Z"
/>
<path fill="#817871" d="
  M 244.28 252.85
  Q 240.66 261.89 233.86 265.88
  C 224.28 271.51 218.90 261.81 218.05 253.57
  L 227.49 254.34
  A 0.45 0.44 -63.1 0 0 227.84 254.22
  L 232.37 250.12
  Q 232.77 249.75 233.32 249.75
  L 237.00 249.75
  Q 237.54 249.75 237.93 250.11
  Q 239.10 251.18 240.80 250.68
  A 1.07 1.05 55.5 0 1 241.77 250.87
  L 244.28 252.85
  Z"
/>
<path fill="#ea9971" d="
  M 245.70 254.42
  Q 255.08 260.43 262.93 268.84
  C 257.87 279.27 247.06 293.15 235.66 296.19
  C 215.53 301.55 205.55 280.79 202.73 265.21
  L 207.31 264.15
  A 1.03 1.01 -79.7 0 0 207.96 263.69
  Q 209.40 261.32 211.51 260.53
  Q 214.81 259.28 216.90 256.42
  C 219.43 268.21 229.10 274.72 238.77 264.27
  Q 242.82 259.90 245.70 254.42
  Z"
/>
<path fill="#efb6ba" d="
  M 110.01 298.48
  Q 108.86 298.82 107.60 298.66
  A 0.60 0.59 13.3 0 0 106.96 299.05
  C 105.57 302.94 102.11 305.43 99.44 300.66
  Q 97.23 296.73 94.27 293.33
  A 0.98 0.95 68.5 0 0 93.52 292.99
  L 89.01 293.08
  C 88.86 287.70 87.32 282.62 87.39 277.44
  C 87.45 272.74 87.06 268.11 87.61 263.54
  Q 88.02 260.11 88.49 256.61
  Q 88.69 255.13 90.06 255.72
  L 97.38 258.85
  A 2.27 2.26 11.7 0 1 98.75 260.93
  Q 98.75 263.22 98.76 265.80
  C 98.77 269.14 99.75 272.32 100.26 275.65
  C 101.48 283.55 105.67 291.79 110.01 298.48
  Z"
/>
<path fill="#cf7788" d="
  M 390.60 255.34
  L 394.16 255.60
  C 393.75 261.54 394.44 267.55 392.20 271.73
  Q 391.97 272.17 392.00 272.66
  Q 392.10 274.27 391.08 275.45
  Q 390.73 275.86 390.64 276.39
  Q 389.90 281.09 387.02 284.89
  Q 386.70 285.31 386.76 285.83
  L 387.02 288.20
  L 382.58 289.42
  Q 382.81 285.84 385.29 280.82
  Q 390.92 269.37 390.60 255.34
  Z"
/>
<path fill="#b56672" d="
  M 387.02 288.20
  L 386.76 285.83
  Q 386.70 285.31 387.02 284.89
  Q 389.90 281.09 390.64 276.39
  Q 390.73 275.86 391.08 275.45
  Q 392.10 274.27 392.00 272.66
  Q 391.97 272.17 392.20 271.73
  C 394.44 267.55 393.75 261.54 394.16 255.60
  L 395.93 255.28
  Q 396.53 255.17 396.65 255.77
  C 398.24 263.77 400.50 274.52 399.35 283.54
  Q 399.29 284.05 398.80 284.22
  L 387.02 288.20
  Z"
/>
<path fill="#ed8ea2" d="
  M 102.10 332.70
  Q 101.96 334.44 101.00 334.33
  C 96.04 333.76 92.09 334.05 87.07 333.66
  C 82.08 333.27 77.59 335.07 72.16 334.66
  C 66.65 334.25 61.00 331.79 55.69 329.80
  C 52.98 328.78 52.50 326.80 50.33 325.52
  C 47.82 324.04 45.35 321.30 43.32 319.19
  C 42.08 317.90 40.95 318.05 39.34 318.44
  C 32.00 302.88 32.05 278.45 39.05 262.97
  C 45.85 247.91 57.89 264.17 64.61 268.50
  Q 74.17 274.67 84.96 278.51
  Q 85.43 278.68 85.48 279.18
  Q 86.98 293.89 87.95 297.81
  Q 92.50 316.32 102.10 332.70
  Z"
/>
<path fill="#817871" d="
  M 296.85 276.65
  Q 294.50 271.04 295.02 265.49
  Q 304.17 265.75 312.16 264.43
  A 0.89 0.89 0.0 0 1 312.95 265.92
  Q 306.07 273.07 296.85 276.65
  Z"
/>
<path fill="#cf7788" d="
  M 465.45 284.57
  L 465.77 288.23
  L 463.83 288.23
  A 1.47 1.43 -61.4 0 0 463.02 288.48
  Q 450.91 296.53 437.29 301.51
  C 429.43 304.38 422.31 308.55 414.40 311.18
  C 406.10 313.93 398.02 316.86 389.40 318.97
  Q 383.91 320.32 380.49 321.72
  Q 362.19 329.17 343.75 331.49
  C 339.42 332.03 334.92 333.36 331.63 333.91
  Q 316.67 336.43 301.67 338.64
  C 294.84 339.65 287.08 339.22 279.71 340.05
  Q 284.39 338.62 289.25 338.74
  Q 289.70 338.75 290.05 338.45
  Q 290.39 338.15 290.76 338.08
  Q 309.04 334.58 327.38 331.43
  C 357.27 326.28 383.47 318.32 412.13 308.36
  C 429.92 302.18 446.44 293.97 462.52 284.53
  Q 463.48 283.96 465.45 284.57
  Z"
/>
<path fill="#b56672" d="
  M 465.77 288.23
  C 465.13 314.56 452.59 345.19 432.29 362.54
  C 418.82 374.05 398.16 389.60 379.62 389.28
  Q 364.40 389.02 350.24 383.54
  Q 349.64 383.31 350.07 383.78
  C 356.33 390.63 382.99 391.93 392.05 391.99
  C 395.87 392.01 401.20 391.42 405.91 391.57
  C 403.14 396.62 398.70 402.11 392.86 403.47
  C 384.93 405.31 376.11 407.21 368.82 410.91
  A 0.97 0.97 0.0 0 0 369.22 412.75
  L 370.01 412.79
  Q 369.83 413.08 369.07 413.10
  C 350.93 413.63 332.44 407.47 317.06 398.16
  C 310.56 394.24 304.79 388.25 298.84 382.99
  A 0.11 0.11 0.0 0 0 298.67 383.13
  C 301.79 388.87 306.31 391.38 310.23 396.15
  A 1.21 1.20 -9.9 0 0 310.75 396.51
  Q 311.46 396.78 311.74 397.39
  Q 311.94 397.81 311.56 398.07
  C 301.33 405.01 291.65 409.53 281.13 410.96
  C 276.31 411.62 271.51 413.15 266.73 413.40
  Q 263.86 413.55 261.07 413.73
  A 0.55 0.55 0.0 0 0 261.09 414.82
  L 269.67 415.09
  A 0.83 0.76 -26.7 0 1 270.02 415.19
  C 275.18 418.22 281.26 420.72 285.60 423.93
  Q 292.45 429.01 297.11 435.64
  Q 294.64 440.12 291.20 443.01
  Q 290.83 443.33 290.34 443.32
  L 280.56 443.27
  Q 280.02 443.27 279.74 443.73
  Q 279.52 444.09 279.42 444.59
  Q 270.54 442.71 262.51 438.54
  C 257.77 436.08 253.78 432.23 249.45 428.76
  Q 242.98 423.58 238.29 417.01
  A 0.46 0.46 0.0 0 0 237.54 417.00
  C 231.82 424.69 221.43 435.77 211.92 438.14
  A 1.39 1.39 0.0 0 1 210.20 436.75
  Q 210.57 424.62 217.71 414.92
  A 0.38 0.38 0.0 0 0 217.52 414.33
  Q 217.35 414.28 217.21 414.23
  Q 217.06 414.18 216.96 414.30
  C 210.71 422.01 195.81 428.39 186.57 431.37
  C 183.88 432.23 159.56 439.85 164.98 429.41
  C 167.58 424.40 169.87 420.41 174.26 416.43
  C 177.31 413.67 186.87 403.74 191.60 405.28
  Q 195.37 406.51 199.36 405.59
  Q 201.09 405.81 202.16 404.45
  A 0.81 0.81 0.0 0 0 202.22 403.55
  C 200.41 400.40 193.41 397.99 189.89 396.86
  Q 187.59 396.12 182.81 395.70
  C 177.82 395.25 173.14 394.21 168.95 391.01
  C 163.56 386.88 156.98 382.09 150.41 379.08
  Q 149.94 378.86 149.43 378.96
  C 146.43 379.53 146.01 377.15 144.46 376.04
  Q 141.40 373.84 138.05 372.22
  Q 137.46 371.94 136.95 372.00
  Q 135.82 372.12 136.06 372.91
  Q 123.39 361.56 119.19 356.56
  Q 113.65 349.98 105.73 336.03
  Q 112.65 339.34 120.59 340.62
  C 127.52 341.74 134.22 343.49 141.12 343.76
  C 145.74 343.94 150.90 345.17 156.01 344.66
  Q 156.12 344.65 156.16 344.75
  Q 156.22 344.89 156.25 345.07
  Q 156.32 345.53 156.79 345.57
  Q 164.06 346.07 171.25 347.18
  Q 178.34 348.28 195.99 347.42
  C 200.24 347.22 204.24 347.62 207.98 347.13
  Q 214.16 346.32 217.01 346.40
  Q 243.63 347.09 269.82 340.51
  L 279.71 340.05
  C 287.08 339.22 294.84 339.65 301.67 338.64
  Q 316.67 336.43 331.63 333.91
  C 334.92 333.36 339.42 332.03 343.75 331.49
  Q 362.19 329.17 380.49 321.72
  Q 383.91 320.32 389.40 318.97
  C 398.02 316.86 406.10 313.93 414.40 311.18
  C 422.31 308.55 429.43 304.38 437.29 301.51
  Q 450.91 296.53 463.02 288.48
  A 1.47 1.43 -61.4 0 1 463.83 288.23
  L 465.77 288.23
  Z"
/>
<path fill="#b56672" d="
  M 39.34 318.44
  C 40.95 318.05 42.08 317.90 43.32 319.19
  C 45.35 321.30 47.82 324.04 50.33 325.52
  C 52.50 326.80 52.98 328.78 55.69 329.80
  C 61.00 331.79 66.65 334.25 72.16 334.66
  C 77.59 335.07 82.08 333.27 87.07 333.66
  C 92.09 334.05 96.04 333.76 101.00 334.33
  Q 101.96 334.44 102.10 332.70
  Q 109.84 348.27 121.16 361.29
  C 125.39 366.15 131.13 370.74 136.24 375.32
  Q 136.67 375.71 136.24 376.11
  C 128.20 383.65 116.71 385.01 106.31 383.04
  C 102.12 382.25 97.56 380.10 93.26 378.49
  A 1.43 1.43 0.0 0 1 92.60 376.31
  Q 93.39 375.22 95.27 374.81
  C 101.79 373.39 107.48 371.59 113.55 368.83
  Q 116.40 367.54 119.80 367.27
  A 0.88 0.88 0.0 0 0 120.61 366.44
  Q 120.69 364.71 119.78 365.44
  Q 119.38 365.75 118.87 365.75
  C 111.56 365.75 103.77 366.44 96.71 364.71
  C 92.14 363.59 87.65 362.62 83.62 360.10
  C 81.81 358.97 79.53 358.41 77.87 357.50
  C 68.49 352.37 59.20 345.71 52.50 337.19
  Q 45.37 328.13 39.34 318.44
  Z"
/>
<path fill="#cf7788" d="
  M 104.72 334.22
  C 109.12 334.95 113.47 336.53 117.49 337.21
  C 123.04 338.17 128.07 339.35 133.91 339.51
  Q 142.35 339.75 151.50 341.27
  C 158.53 342.43 166.38 343.58 174.22 343.45
  C 193.94 343.12 212.46 343.32 233.41 342.68
  Q 236.63 342.58 243.04 341.82
  C 249.13 341.09 255.20 341.34 261.25 340.85
  Q 265.49 340.50 269.82 340.51
  Q 243.63 347.09 217.01 346.40
  Q 214.16 346.32 207.98 347.13
  C 204.24 347.62 200.24 347.22 195.99 347.42
  Q 178.34 348.28 171.25 347.18
  Q 164.06 346.07 156.79 345.57
  Q 156.32 345.53 156.25 345.07
  Q 156.22 344.89 156.16 344.75
  Q 156.12 344.65 156.01 344.66
  C 150.90 345.17 145.74 343.94 141.12 343.76
  C 134.22 343.49 127.52 341.74 120.59 340.62
  Q 112.65 339.34 105.73 336.03
  L 104.72 334.22
  Z"
/>
<path fill="#cf7788" d="
  M 199.36 405.59
  Q 196.53 404.86 193.90 403.81
  C 184.82 400.18 176.40 398.77 167.69 393.58
  C 156.77 387.08 146.69 381.71 136.06 372.91
  Q 135.82 372.12 136.95 372.00
  Q 137.46 371.94 138.05 372.22
  Q 141.40 373.84 144.46 376.04
  C 146.01 377.15 146.43 379.53 149.43 378.96
  Q 149.94 378.86 150.41 379.08
  C 156.98 382.09 163.56 386.88 168.95 391.01
  C 173.14 394.21 177.82 395.25 182.81 395.70
  Q 187.59 396.12 189.89 396.86
  C 193.41 397.99 200.41 400.40 202.22 403.55
  A 0.81 0.81 0.0 0 1 202.16 404.45
  Q 201.09 405.81 199.36 405.59
  Z"
/>
<path fill="#cf7788" d="
  M 370.01 412.79
  L 369.22 412.75
  A 0.97 0.97 0.0 0 1 368.82 410.91
  C 376.11 407.21 384.93 405.31 392.86 403.47
  C 398.70 402.11 403.14 396.62 405.91 391.57
  Q 409.43 390.87 412.09 391.60
  Q 414.12 392.15 412.57 393.56
  C 405.27 400.22 397.75 404.99 388.21 408.54
  C 381.67 410.99 376.36 412.68 370.01 412.79
  Z"
/>
<path fill="#864678" d="
  M 265.78 462.27
  Q 260.90 461.36 259.68 466.12
  Q 259.56 466.61 259.15 466.89
  C 254.52 470.03 250.06 467.58 245.17 469.85
  Q 244.72 470.06 244.22 470.03
  Q 240.15 469.83 237.19 471.44
  C 235.67 472.26 234.47 472.13 233.39 472.64
  Q 230.47 474.02 229.50 476.94
  Q 226.97 463.28 227.53 449.06
  C 227.67 445.56 229.08 442.66 229.20 439.25
  C 229.36 434.45 230.40 427.44 234.13 424.15
  Q 236.20 422.32 238.01 420.23
  Q 238.38 419.81 238.76 420.21
  Q 240.56 422.09 242.22 424.07
  Q 251.54 435.17 264.66 441.38
  Q 265.12 441.59 265.14 442.10
  L 265.78 462.27
  Z"
/>
<path fill="#653672" d="
  M 226.00 466.69
  Q 225.21 465.36 223.69 464.97
  Q 223.21 464.85 222.74 464.99
  C 218.31 466.28 217.17 463.39 214.15 462.29
  Q 209.57 460.63 205.83 462.63
  Q 203.94 455.33 203.59 446.91
  C 203.34 440.77 204.32 434.48 205.56 428.41
  Q 206.46 423.97 210.66 422.58
  A 0.33 0.33 0.0 0 1 211.06 423.03
  Q 207.74 430.26 208.38 438.27
  A 1.79 1.79 0.0 0 0 210.43 439.90
  C 216.72 438.96 223.17 434.56 227.92 430.25
  A 0.32 0.32 0.0 0 1 228.44 430.56
  Q 224.54 448.48 226.00 466.69
  Z"
/>
<path fill="#cf7788" d="
  M 297.11 435.64
  Q 300.07 440.29 298.31 444.60
  Q 298.12 445.06 297.66 445.26
  C 292.82 447.37 284.79 445.82 279.42 444.59
  Q 279.52 444.09 279.74 443.73
  Q 280.02 443.27 280.56 443.27
  L 290.34 443.32
  Q 290.83 443.33 291.20 443.01
  Q 294.64 440.12 297.11 435.64
  Z"
/>
<path fill="#864678" d="
  M 226.00 466.69
  Q 226.81 479.21 231.43 490.43
  A 0.52 0.51 -87.0 0 1 230.71 491.08
  Q 220.79 485.67 213.32 477.42
  Q 209.36 473.04 205.83 462.63
  Q 209.57 460.63 214.15 462.29
  C 217.17 463.39 218.31 466.28 222.74 464.99
  Q 223.21 464.85 223.69 464.97
  Q 225.21 465.36 226.00 466.69
  Z"
/>
<path fill="#ac5ca0" d="
  M 265.78 462.27
  Q 268.03 482.94 251.58 493.77
  Q 246.06 497.40 241.40 497.73
  C 235.73 498.12 230.44 481.50 229.50 476.94
  Q 230.47 474.02 233.39 472.64
  C 234.47 472.13 235.67 472.26 237.19 471.44
  Q 240.15 469.83 244.22 470.03
  Q 244.72 470.06 245.17 469.85
  C 250.06 467.58 254.52 470.03 259.15 466.89
  Q 259.56 466.61 259.68 466.12
  Q 260.90 461.36 265.78 462.27
  Z"
/>
</svg>
