<?xml version="1.0" encoding="UTF-8" standalone="no"?>
<svg xmlns="http://www.w3.org/2000/svg" version="1.2" baseProfile="tiny" viewBox="0.00 0.00 500.00 500.00">
<path fill="#000000" d="
  M 71.97 291.27
  A 0.66 0.66 0.0 0 0 71.64 290.14
  C 60.24 287.84 47.81 279.63 41.00 271.98
  Q 39.06 269.80 34.69 263.07
  C 30.77 257.04 28.92 251.39 26.90 244.69
  C 22.69 230.69 29.44 216.04 36.36 203.84
  C 43.46 191.32 59.26 181.27 72.75 178.01
  C 85.92 174.83 103.06 178.68 115.95 184.60
  C 118.30 185.68 120.10 185.14 121.03 182.76
  C 129.26 161.81 135.99 142.17 153.44 126.70
  C 171.94 110.30 202.69 92.80 228.35 99.58
  A 0.72 0.72 0.0 0 0 229.15 98.51
  C 222.10 87.05 217.74 73.73 218.88 60.26
  C 220.75 38.01 234.73 16.60 255.50 7.45
  C 285.08 -5.59 319.57 0.24 342.46 23.62
  C 351.29 32.65 356.19 44.22 358.29 56.53
  C 360.42 69.04 357.78 81.36 352.58 92.83
  C 349.59 99.42 344.83 104.49 340.37 109.91
  A 1.60 1.60 0.0 0 0 341.29 112.49
  C 352.58 114.81 363.13 120.43 373.26 125.79
  C 376.13 127.30 378.83 129.38 381.41 130.87
  C 393.38 137.77 405.97 146.97 413.09 159.23
  C 415.49 163.36 418.40 167.45 420.19 171.57
  C 426.03 185.05 429.17 201.69 425.21 215.94
  Q 422.76 224.77 417.70 232.75
  A 1.60 1.60 0.0 0 0 418.71 235.17
  C 442.73 240.30 461.39 255.43 470.65 278.10
  C 474.18 286.73 475.59 293.43 472.63 302.40
  C 470.71 308.22 468.74 313.93 465.33 319.08
  C 463.13 322.40 459.83 325.65 456.96 328.86
  C 448.26 338.56 434.71 344.73 422.48 348.02
  C 418.07 349.21 415.78 350.00 412.14 349.72
  A 0.94 0.94 0.0 0 0 411.24 351.11
  L 413.84 355.95
  A 0.87 0.86 80.9 0 0 414.47 356.41
  C 426.38 358.40 443.11 366.81 443.66 380.99
  Q 443.85 385.61 441.24 389.46
  C 437.57 394.88 429.87 396.28 423.67 395.98
  Q 422.65 395.94 422.64 396.96
  C 422.57 410.02 420.68 427.40 412.98 438.22
  Q 409.08 443.70 400.00 453.07
  C 392.05 461.27 383.70 464.42 374.11 468.88
  Q 373.55 469.14 373.52 469.75
  C 372.95 481.30 358.25 489.26 349.36 494.07
  C 344.44 496.73 340.04 497.50 335.23 498.65
  C 324.57 501.21 314.95 499.69 304.51 497.48
  C 288.74 494.15 271.68 481.50 266.57 465.83
  C 266.25 464.86 266.18 462.12 264.43 461.85
  Q 253.16 460.11 241.53 460.56
  A 1.53 1.52 5.1 0 0 240.09 461.76
  C 237.53 473.67 227.31 485.71 217.59 491.57
  Q 212.68 494.53 204.63 497.32
  C 189.12 502.69 155.78 496.97 144.01 484.48
  C 137.47 477.54 132.80 472.61 130.37 463.15
  Q 130.24 462.65 129.83 462.33
  C 129.32 461.94 128.68 461.19 128.18 460.94
  Q 113.92 453.83 101.88 443.38
  C 96.19 438.45 90.19 427.52 86.17 417.78
  C 75.52 391.96 77.61 365.00 87.48 339.77
  A 1.27 1.26 19.2 0 0 86.67 338.10
  C 74.84 334.52 61.43 328.76 54.51 318.24
  C 46.62 306.24 57.96 293.25 70.24 292.01
  Q 71.31 291.90 71.97 291.27
  Z
  M 226.37 39.33
  Q 220.16 52.92 221.00 69.05
  C 224.74 89.72 232.66 103.31 251.08 113.62
  A 0.92 0.92 0.0 0 1 250.92 115.30
  L 244.69 117.40
  C 239.80 118.26 229.19 124.27 234.30 130.68
  C 237.21 134.32 242.13 135.34 246.90 135.63
  Q 255.73 136.17 262.49 131.19
  Q 264.99 124.30 260.80 119.35
  A 0.43 0.43 0.0 0 1 261.29 118.67
  C 299.21 133.55 342.34 122.54 355.08 80.07
  Q 356.21 76.32 356.76 67.27
  C 356.62 64.86 357.10 62.50 356.75 60.26
  C 355.16 50.09 352.20 38.09 345.68 29.93
  Q 337.16 19.25 324.74 12.35
  C 291.51 -6.34 242.49 2.65 226.37 39.33
  Z
  M 89.37 293.69
  Q 93.50 295.90 97.64 298.09
  C 99.08 298.85 100.65 300.42 102.56 301.13
  A 0.71 0.70 26.1 0 0 103.39 300.85
  L 112.51 286.60
  A 0.72 0.71 -56.3 0 0 112.32 285.63
  Q 111.72 285.21 110.88 285.84
  C 105.48 289.85 95.88 291.52 89.31 291.47
  A 0.88 0.87 85.6 0 0 88.44 292.49
  Q 88.57 293.26 89.37 293.69
  Z"
/>
<g stroke-width="2.00" fill="none" stroke-linecap="butt">
<path stroke="#602f3e" vector-effect="non-scaling-stroke" d="
  M 226.37 39.33
  Q 220.16 52.92 221.00 69.05"
/>
<path stroke="#4d2633" vector-effect="non-scaling-stroke" d="
  M 221.00 69.05
  C 224.74 89.72 232.66 103.31 251.08 113.62
  A 0.92 0.92 0.0 0 1 250.92 115.30
  L 244.69 117.40"
/>
<path stroke="#602f3e" vector-effect="non-scaling-stroke" d="
  M 244.69 117.40
  C 239.80 118.26 229.19 124.27 234.30 130.68
  C 237.21 134.32 242.13 135.34 246.90 135.63
  Q 255.73 136.17 262.49 131.19"
/>
<path stroke="#4d2633" vector-effect="non-scaling-stroke" d="
  M 262.49 131.19
  Q 264.99 124.30 260.80 119.35
  A 0.43 0.43 0.0 0 1 261.29 118.67
  C 299.21 133.55 342.34 122.54 355.08 80.07
  Q 356.21 76.32 356.76 67.27"
/>
<path stroke="#602f3e" vector-effect="non-scaling-stroke" d="
  M 356.76 67.27
  C 356.62 64.86 357.10 62.50 356.75 60.26
  C 355.16 50.09 352.20 38.09 345.68 29.93
  Q 337.16 19.25 324.74 12.35"
/>
<path stroke="#6d5054" vector-effect="non-scaling-stroke" d="
  M 324.74 12.35
  C 291.51 -6.34 242.49 2.65 226.37 39.33"
/>
<path stroke="#cd7e92" vector-effect="non-scaling-stroke" d="
  M 324.74 12.35
  L 320.31 21.97
  Q 320.12 22.39 320.21 22.84
  Q 320.79 25.72 319.14 28.02
  Q 318.83 28.44 318.31 28.56
  C 312.29 29.98 311.09 35.41 309.19 40.40
  A 0.87 0.85 -83.6 0 1 308.54 40.93
  Q 304.19 41.65 301.46 44.81
  C 299.05 47.60 297.81 48.24 294.74 49.57
  C 292.94 50.36 290.64 52.13 287.81 52.26
  Q 287.32 52.28 286.95 52.59
  Q 283.77 55.25 279.95 56.90
  C 277.63 57.89 275.27 57.14 272.76 57.94
  C 268.38 59.32 263.33 58.04 259.09 56.67
  Q 258.63 56.52 258.38 56.11
  Q 258.22 55.85 257.95 55.64
  Q 257.62 55.37 257.02 55.34
  C 253.37 55.13 250.10 53.72 247.30 52.94
  C 243.66 51.93 238.00 51.56 238.17 46.49
  A 1.11 1.08 -68.8 0 0 237.82 45.66
  Q 232.90 41.19 226.37 39.33"
/>
<path stroke="#ad5571" vector-effect="non-scaling-stroke" d="
  M 356.76 67.27
  Q 355.61 68.15 355.01 67.21
  A 1.40 1.40 0.0 0 0 353.26 66.69
  C 332.43 76.06 307.24 79.59 284.68 79.10
  C 266.22 78.69 246.35 76.33 229.48 69.60
  C 226.41 68.38 224.12 68.72 221.00 69.05"
/>
<path stroke="#ad5571" vector-effect="non-scaling-stroke" d="
  M 262.49 131.19
  Q 250.82 126.39 244.69 117.40"
/>
<path stroke="#ddc0ce" vector-effect="non-scaling-stroke" d="
  M 264.99 130.06
  Q 265.74 130.76 266.04 132.03
  Q 266.16 132.50 266.61 132.68
  C 285.77 140.11 302.91 139.20 322.70 133.34
  Q 330.23 131.12 338.29 125.32
  Q 343.73 121.40 342.48 114.87"
/>
<path stroke="#ecd3db" vector-effect="non-scaling-stroke" d="
  M 383.72 134.86
  L 383.43 140.25
  A 1.41 1.39 -23.6 0 1 383.11 141.05
  C 381.57 142.88 380.39 144.04 379.43 146.42
  Q 378.55 148.58 377.15 150.58
  A 1.24 1.20 8.7 0 1 376.46 151.07
  Q 369.41 152.97 364.88 158.65
  A 1.01 0.99 -67.5 0 1 364.01 159.02
  L 356.76 158.46
  A 2.17 2.08 -54.4 0 0 355.70 158.66
  C 352.51 160.21 348.88 160.96 346.16 163.37
  Q 342.51 166.60 338.50 167.20
  Q 317.35 170.36 310.93 171.13
  Q 296.03 172.91 288.18 172.16
  Q 280.54 171.44 278.19 171.37
  Q 277.72 171.36 277.31 171.13
  Q 271.62 167.95 266.22 168.53
  Q 255.92 169.63 248.00 167.48
  A 1.09 1.05 84.9 0 1 247.30 166.87
  Q 245.84 163.45 242.51 161.63
  Q 242.09 161.40 241.99 160.94
  L 240.90 156.04
  A 3.15 3.14 4.4 0 0 238.95 153.77
  C 234.06 151.86 227.22 150.58 222.98 147.37
  C 220.40 145.41 218.52 143.29 215.09 143.23
  Q 214.60 143.22 214.28 142.86
  C 211.64 139.86 209.58 137.71 205.50 136.50
  C 198.91 134.55 192.47 131.71 191.47 124.45
  Q 191.41 123.99 190.97 123.80
  L 187.38 122.25
  Q 186.74 121.97 186.75 121.28
  L 186.91 110.65
  A 1.86 1.85 -2.2 0 1 188.60 108.83
  Q 193.84 108.37 194.56 104.76"
/>
<path stroke="#ecd3db" vector-effect="non-scaling-stroke" d="
  M 419.67 176.25
  Q 416.14 175.81 413.67 176.66
  C 409.10 178.25 404.47 179.26 399.85 180.69
  C 392.32 183.03 387.02 183.51 379.72 182.74
  C 378.12 182.56 376.54 183.20 374.83 183.16
  C 369.82 183.04 364.64 184.83 359.41 184.96
  C 356.57 185.03 354.33 187.11 351.92 187.84
  C 344.79 190.00 338.48 186.57 331.48 184.82
  Q 330.38 184.54 329.61 185.18
  Q 329.22 185.50 328.72 185.51
  Q 320.79 185.71 313.01 184.27
  C 309.41 183.61 305.66 184.21 301.85 183.27
  C 297.34 182.16 293.58 182.51 289.20 182.51
  C 286.55 182.50 283.86 181.07 281.03 180.75
  C 271.18 179.65 261.15 177.05 250.07 176.46
  Q 249.59 176.43 249.33 176.03
  Q 249.01 175.55 248.52 175.40
  Q 244.69 174.27 239.11 173.10
  Q 238.53 172.98 232.82 172.40
  C 230.60 172.18 225.51 170.45 223.51 171.09
  C 216.47 173.38 207.36 168.25 200.46 167.12
  C 193.11 165.91 173.99 170.92 169.11 166.86
  A 2.07 2.05 -82.6 0 1 168.53 166.10
  Q 167.75 164.37 165.53 163.46
  C 160.63 161.44 157.66 157.82 153.87 154.17
  Q 152.26 152.64 150.83 150.98
  Q 150.50 150.61 150.03 150.78
  C 146.69 152.04 141.26 150.65 137.45 150.69"
/>
<path stroke="#cea9bb" vector-effect="non-scaling-stroke" d="
  M 336.14 113.54
  Q 340.06 117.52 338.48 120.01
  C 331.60 130.91 302.21 134.71 290.63 133.89
  C 281.78 133.27 273.77 132.13 265.87 127.82"
/>
<path stroke="#ddc0ce" vector-effect="non-scaling-stroke" d="
  M 470.71 297.26
  Q 469.33 298.05 468.97 296.90
  A 0.79 0.79 0.0 0 0 467.85 296.43
  C 454.67 303.16 440.06 307.11 424.61 308.67
  C 416.49 309.48 407.57 310.59 400.10 310.84
  Q 372.85 311.74 346.47 304.37
  A 1.26 1.22 -50.3 0 0 345.54 304.47
  L 343.95 305.32"
/>
<path stroke="#ddc0ce" vector-effect="non-scaling-stroke" d="
  M 135.41 246.47
  C 131.59 247.01 127.18 248.78 124.53 249.47
  Q 104.32 254.76 83.45 255.00
  C 75.83 255.09 67.70 253.61 59.76 252.73
  Q 48.33 251.48 33.97 245.57
  C 32.56 244.99 31.36 245.32 30.00 245.71"
/>
<path stroke="#cea9bb" vector-effect="non-scaling-stroke" d="
  M 134.89 252.40
  Q 128.91 252.77 123.15 254.24
  C 97.05 260.94 72.69 260.62 46.80 254.23
  C 42.96 253.28 39.58 251.78 35.97 250.24
  Q 33.45 249.16 31.00 250.22"
/>
<path stroke="#cea9bb" vector-effect="non-scaling-stroke" d="
  M 469.94 301.72
  Q 469.30 302.54 468.02 301.48
  A 0.86 0.85 -37.7 0 0 467.10 301.37
  C 443.55 312.77 418.84 314.74 391.50 315.16
  C 382.13 315.30 371.38 314.24 362.39 312.55
  C 356.73 311.48 348.58 307.77 345.14 309.39"
/>
<path stroke="#cea9bb" vector-effect="non-scaling-stroke" d="
  M 111.05 283.91
  Q 109.17 281.80 107.21 282.67
  C 94.37 288.41 79.16 288.17 66.61 284.08
  Q 66.14 283.92 65.75 284.23
  Q 65.15 284.70 65.01 285.48"
/>
<path stroke="#e2cbd2" vector-effect="non-scaling-stroke" d="
  M 252.18 206.51
  C 248.09 212.81 216.30 219.35 208.28 220.72
  Q 207.09 220.93 205.74 221.25
  A 0.43 0.42 86.8 0 1 205.22 220.78
  Q 205.54 218.37 204.31 218.72"
/>
<path stroke="#f6eeee" vector-effect="non-scaling-stroke" d="
  M 255.48 211.27
  Q 233.63 220.30 208.93 224.13
  Q 202.71 225.09 197.70 224.09"
/>
<path stroke="#cd7e92" vector-effect="non-scaling-stroke" d="
  M 171.53 243.61
  Q 174.10 241.15 178.77 240.02"
/>
<path stroke="#eaced3" vector-effect="non-scaling-stroke" d="
  M 178.77 240.02
  Q 178.71 243.99 180.84 246.99
  Q 181.15 247.42 181.67 247.44
  C 187.30 247.63 189.31 229.03 189.08 224.91"
/>
<path stroke="#deadbd" vector-effect="non-scaling-stroke" d="
  M 178.77 240.02
  Q 178.69 233.25 181.23 226.70"
/>
<path stroke="#deadbd" vector-effect="non-scaling-stroke" d="
  M 285.64 240.27
  Q 280.95 248.48 282.62 257.98"
/>
<path stroke="#cd7e92" vector-effect="non-scaling-stroke" d="
  M 282.62 257.98
  L 275.97 261.08"
/>
<path stroke="#eaced3" vector-effect="non-scaling-stroke" d="
  M 291.70 244.67
  C 291.73 248.19 291.57 262.91 286.34 263.38
  C 284.23 263.56 282.91 259.56 282.62 257.98"
/>
<path stroke="#cd7e92" vector-effect="non-scaling-stroke" d="
  M 139.77 299.66
  L 132.43 303.01
  A 1.20 1.20 0.0 0 0 131.72 304.04
  Q 131.66 305.03 130.74 305.26
  Q 130.22 305.39 130.03 305.90
  Q 128.53 309.88 124.89 312.05"
/>
<path stroke="#cd7e92" vector-effect="non-scaling-stroke" d="
  M 240.19 331.22
  C 238.99 343.02 233.72 349.15 224.51 356.82
  C 221.97 358.94 218.36 360.12 215.15 359.98
  Q 214.66 359.96 214.24 360.23
  C 210.15 362.84 204.23 362.28 203.87 368.55
  Q 203.84 369.03 203.49 369.38
  L 202.45 370.40"
/>
<path stroke="#cd7e92" vector-effect="non-scaling-stroke" d="
  M 321.32 316.62
  Q 312.36 317.32 303.05 316.23
  C 300.74 315.96 300.18 313.68 298.08 313.04
  C 293.86 311.74 286.04 318.64 284.11 322.51
  Q 283.88 322.96 283.44 323.20
  Q 280.32 324.88 279.51 328.90"
/>
<path stroke="#f6eeee" vector-effect="non-scaling-stroke" d="
  M 397.44 391.08
  Q 396.37 393.31 393.68 392.69
  A 1.95 1.84 42.0 0 0 392.74 392.71
  Q 372.16 398.32 350.89 399.06
  C 348.97 399.13 348.07 399.97 346.45 400.85"
/>
<path stroke="#7e7f7f" vector-effect="non-scaling-stroke" d="
  M 346.45 400.85
  Q 345.99 390.88 337.89 385.94
  C 326.92 379.24 315.36 390.24 311.00 400.00"
/>
<path stroke="#f6eeee" vector-effect="non-scaling-stroke" d="
  M 311.00 400.00
  Q 306.32 397.79 300.75 397.42
  Q 295.14 397.04 289.61 396.19
  C 277.63 394.33 264.59 392.61 254.75 391.49
  C 242.07 390.03 226.34 390.63 216.41 390.68
  Q 205.73 390.73 195.08 391.49
  C 190.62 391.80 185.69 391.06 181.75 391.23
  Q 174.93 391.52 168.18 390.80
  C 163.28 390.27 158.98 390.18 154.37 389.95
  Q 149.14 389.68 144.15 388.37
  C 139.11 387.03 134.35 385.43 129.18 384.69
  Q 122.69 383.75 116.21 382.74
  C 114.97 382.54 114.10 382.81 112.97 382.54
  Q 97.19 378.67 81.83 371.51"
/>
<path stroke="#786f6f" vector-effect="non-scaling-stroke" d="
  M 346.45 400.85
  L 346.21 406.90"
/>
<path stroke="#786f6f" vector-effect="non-scaling-stroke" d="
  M 311.00 400.00
  L 310.27 402.82"
/>
<path stroke="#e2cbd2" vector-effect="non-scaling-stroke" d="
  M 310.27 402.82
  Q 305.26 402.56 300.42 401.83
  C 281.21 398.95 261.86 396.91 242.54 394.91
  C 221.94 392.77 200.81 394.37 180.25 395.73
  Q 175.77 396.03 168.74 395.65
  C 163.09 395.35 153.88 395.72 146.26 393.92
  Q 133.71 390.95 121.00 388.77
  C 108.35 386.60 96.16 381.46 84.10 377.33
  Q 83.66 377.18 83.26 377.43
  Q 82.36 377.99 81.40 377.78"
/>
<path stroke="#6a5c63" vector-effect="non-scaling-stroke" d="
  M 310.27 402.82
  Q 306.52 417.53 317.90 426.07
  C 324.60 431.10 335.26 426.55 339.90 420.76
  Q 344.86 414.57 346.21 406.90"
/>
<path stroke="#e2cbd2" vector-effect="non-scaling-stroke" d="
  M 346.21 406.90
  Q 347.59 404.97 348.70 404.33
  Q 349.02 404.14 351.90 404.06
  Q 376.16 403.46 398.99 395.25
  Q 401.21 394.46 407.44 395.47
  Q 407.99 395.56 408.01 395.00
  Q 408.02 394.49 407.78 393.89"
/>
<path stroke="#cea9bb" vector-effect="non-scaling-stroke" d="
  M 230.29 477.41
  L 228.62 476.61
  Q 228.15 476.39 227.69 476.61
  Q 222.73 478.90 217.16 478.48"
/>
<path stroke="#d8b1c4" vector-effect="non-scaling-stroke" d="
  M 163.72 483.90
  Q 160.40 487.45 157.73 487.48
  Q 156.12 487.50 153.76 486.97
  A 0.70 0.69 22.5 0 0 153.02 487.27
  L 152.49 488.07"
/>
<path stroke="#d8b1c4" vector-effect="non-scaling-stroke" d="
  M 342.56 492.29
  Q 341.13 491.12 339.61 491.97
  Q 339.17 492.22 338.80 491.88
  Q 336.85 490.13 334.17 490.21
  A 0.78 0.77 73.1 0 1 333.47 489.83
  Q 333.23 489.42 332.73 489.31
  Q 314.31 485.31 295.16 486.98"
/>
</g>
<path fill="#d99fa7" d="
  M 324.74 12.35
  L 320.31 21.97
  Q 320.12 22.39 320.21 22.84
  Q 320.79 25.72 319.14 28.02
  Q 318.83 28.44 318.31 28.56
  C 312.29 29.98 311.09 35.41 309.19 40.40
  A 0.87 0.85 -83.6 0 1 308.54 40.93
  Q 304.19 41.65 301.46 44.81
  C 299.05 47.60 297.81 48.24 294.74 49.57
  C 292.94 50.36 290.64 52.13 287.81 52.26
  Q 287.32 52.28 286.95 52.59
  Q 283.77 55.25 279.95 56.90
  C 277.63 57.89 275.27 57.14 272.76 57.94
  C 268.38 59.32 263.33 58.04 259.09 56.67
  Q 258.63 56.52 258.38 56.11
  Q 258.22 55.85 257.95 55.64
  Q 257.62 55.37 257.02 55.34
  C 253.37 55.13 250.10 53.72 247.30 52.94
  C 243.66 51.93 238.00 51.56 238.17 46.49
  A 1.11 1.08 -68.8 0 0 237.82 45.66
  Q 232.90 41.19 226.37 39.33
  C 242.49 2.65 291.51 -6.34 324.74 12.35
  Z
  M 313.4444 10.3213
  A 1.00 0.78 106.0 0 0 314.4698 9.5750
  A 1.00 0.78 106.0 0 0 313.9956 8.3987
  A 1.00 0.78 106.0 0 0 312.9702 9.1450
  A 1.00 0.78 106.0 0 0 313.4444 10.3213
  Z"
/>
<path fill="#c05d7c" d="
  M 324.74 12.35
  Q 337.16 19.25 345.68 29.93
  C 352.20 38.09 355.16 50.09 356.75 60.26
  C 357.10 62.50 356.62 64.86 356.76 67.27
  Q 355.61 68.15 355.01 67.21
  A 1.40 1.40 0.0 0 0 353.26 66.69
  C 332.43 76.06 307.24 79.59 284.68 79.10
  C 266.22 78.69 246.35 76.33 229.48 69.60
  C 226.41 68.38 224.12 68.72 221.00 69.05
  Q 220.16 52.92 226.37 39.33
  Q 232.90 41.19 237.82 45.66
  A 1.11 1.08 -68.8 0 1 238.17 46.49
  C 238.00 51.56 243.66 51.93 247.30 52.94
  C 250.10 53.72 253.37 55.13 257.02 55.34
  Q 257.62 55.37 257.95 55.64
  Q 258.22 55.85 258.38 56.11
  Q 258.63 56.52 259.09 56.67
  C 263.33 58.04 268.38 59.32 272.76 57.94
  C 275.27 57.14 277.63 57.89 279.95 56.90
  Q 283.77 55.25 286.95 52.59
  Q 287.32 52.28 287.81 52.26
  C 290.64 52.13 292.94 50.36 294.74 49.57
  C 297.81 48.24 299.05 47.60 301.46 44.81
  Q 304.19 41.65 308.54 40.93
  A 0.87 0.85 -83.6 0 0 309.19 40.40
  C 311.09 35.41 312.29 29.98 318.31 28.56
  Q 318.83 28.44 319.14 28.02
  Q 320.79 25.72 320.21 22.84
  Q 320.12 22.39 320.31 21.97
  L 324.74 12.35
  Z"
/>
<path fill="#f0dede" d="
  M 268.8661 18.4974
  A 5.61 2.30 -28.8 0 1 265.0580 23.2155
  A 5.61 2.30 -28.8 0 1 259.0339 23.9026
  A 5.61 2.30 -28.8 0 1 262.8420 19.1845
  A 5.61 2.30 -28.8 0 1 268.8661 18.4974
  Z"
/>
<path fill="#994c65" d="
  M 356.76 67.27
  Q 356.21 76.32 355.08 80.07
  C 342.34 122.54 299.21 133.55 261.29 118.67
  A 0.43 0.43 0.0 0 0 260.80 119.35
  Q 264.99 124.30 262.49 131.19
  Q 250.82 126.39 244.69 117.40
  L 250.92 115.30
  A 0.92 0.92 0.0 0 0 251.08 113.62
  C 232.66 103.31 224.74 89.72 221.00 69.05
  C 224.12 68.72 226.41 68.38 229.48 69.60
  C 246.35 76.33 266.22 78.69 284.68 79.10
  C 307.24 79.59 332.43 76.06 353.26 66.69
  A 1.40 1.40 0.0 0 1 355.01 67.21
  Q 355.61 68.15 356.76 67.27
  Z"
/>
<path fill="#e7c8d7" d="
  M 264.99 130.06
  Q 265.74 130.76 266.04 132.03
  Q 266.16 132.50 266.61 132.68
  C 285.77 140.11 302.91 139.20 322.70 133.34
  Q 330.23 131.12 338.29 125.32
  Q 343.73 121.40 342.48 114.87
  Q 346.20 115.57 348.55 116.48
  Q 367.30 123.74 383.72 134.86
  L 383.43 140.25
  A 1.41 1.39 -23.6 0 1 383.11 141.05
  C 381.57 142.88 380.39 144.04 379.43 146.42
  Q 378.55 148.58 377.15 150.58
  A 1.24 1.20 8.7 0 1 376.46 151.07
  Q 369.41 152.97 364.88 158.65
  A 1.01 0.99 -67.5 0 1 364.01 159.02
  L 356.76 158.46
  A 2.17 2.08 -54.4 0 0 355.70 158.66
  C 352.51 160.21 348.88 160.96 346.16 163.37
  Q 342.51 166.60 338.50 167.20
  Q 317.35 170.36 310.93 171.13
  Q 296.03 172.91 288.18 172.16
  Q 280.54 171.44 278.19 171.37
  Q 277.72 171.36 277.31 171.13
  Q 271.62 167.95 266.22 168.53
  Q 255.92 169.63 248.00 167.48
  A 1.09 1.05 84.9 0 1 247.30 166.87
  Q 245.84 163.45 242.51 161.63
  Q 242.09 161.40 241.99 160.94
  L 240.90 156.04
  A 3.15 3.14 4.4 0 0 238.95 153.77
  C 234.06 151.86 227.22 150.58 222.98 147.37
  C 220.40 145.41 218.52 143.29 215.09 143.23
  Q 214.60 143.22 214.28 142.86
  C 211.64 139.86 209.58 137.71 205.50 136.50
  C 198.91 134.55 192.47 131.71 191.47 124.45
  Q 191.41 123.99 190.97 123.80
  L 187.38 122.25
  Q 186.74 121.97 186.75 121.28
  L 186.91 110.65
  A 1.86 1.85 -2.2 0 1 188.60 108.83
  Q 193.84 108.37 194.56 104.76
  C 207.58 99.89 226.14 97.76 237.92 107.08
  Q 242.57 110.76 247.61 113.90
  A 0.35 0.35 0.0 0 1 247.53 114.53
  C 240.08 116.90 234.26 118.56 230.79 126.33
  A 1.54 1.51 51.5 0 0 230.69 127.29
  C 232.12 133.84 236.85 135.72 243.16 137.10
  C 250.58 138.73 261.16 137.68 264.99 130.06
  Z"
/>
<path fill="#f0dede" d="
  M 194.56 104.76
  Q 193.84 108.37 188.60 108.83
  A 1.86 1.85 -2.2 0 0 186.91 110.65
  L 186.75 121.28
  Q 186.74 121.97 187.38 122.25
  L 190.97 123.80
  Q 191.41 123.99 191.47 124.45
  C 192.47 131.71 198.91 134.55 205.50 136.50
  C 209.58 137.71 211.64 139.86 214.28 142.86
  Q 214.60 143.22 215.09 143.23
  C 218.52 143.29 220.40 145.41 222.98 147.37
  C 227.22 150.58 234.06 151.86 238.95 153.77
  A 3.15 3.14 4.4 0 1 240.90 156.04
  L 241.99 160.94
  Q 242.09 161.40 242.51 161.63
  Q 245.84 163.45 247.30 166.87
  A 1.09 1.05 84.9 0 0 248.00 167.48
  Q 255.92 169.63 266.22 168.53
  Q 271.62 167.95 277.31 171.13
  Q 277.72 171.36 278.19 171.37
  Q 280.54 171.44 288.18 172.16
  Q 296.03 172.91 310.93 171.13
  Q 317.35 170.36 338.50 167.20
  Q 342.51 166.60 346.16 163.37
  C 348.88 160.96 352.51 160.21 355.70 158.66
  A 2.17 2.08 -54.4 0 1 356.76 158.46
  L 364.01 159.02
  A 1.01 0.99 -67.5 0 0 364.88 158.65
  Q 369.41 152.97 376.46 151.07
  A 1.24 1.20 8.7 0 0 377.15 150.58
  Q 378.55 148.58 379.43 146.42
  C 380.39 144.04 381.57 142.88 383.11 141.05
  A 1.41 1.39 -23.6 0 0 383.43 140.25
  L 383.72 134.86
  C 399.94 145.91 412.87 157.47 419.67 176.25
  Q 416.14 175.81 413.67 176.66
  C 409.10 178.25 404.47 179.26 399.85 180.69
  C 392.32 183.03 387.02 183.51 379.72 182.74
  C 378.12 182.56 376.54 183.20 374.83 183.16
  C 369.82 183.04 364.64 184.83 359.41 184.96
  C 356.57 185.03 354.33 187.11 351.92 187.84
  C 344.79 190.00 338.48 186.57 331.48 184.82
  Q 330.38 184.54 329.61 185.18
  Q 329.22 185.50 328.72 185.51
  Q 320.79 185.71 313.01 184.27
  C 309.41 183.61 305.66 184.21 301.85 183.27
  C 297.34 182.16 293.58 182.51 289.20 182.51
  C 286.55 182.50 283.86 181.07 281.03 180.75
  C 271.18 179.65 261.15 177.05 250.07 176.46
  Q 249.59 176.43 249.33 176.03
  Q 249.01 175.55 248.52 175.40
  Q 244.69 174.27 239.11 173.10
  Q 238.53 172.98 232.82 172.40
  C 230.60 172.18 225.51 170.45 223.51 171.09
  C 216.47 173.38 207.36 168.25 200.46 167.12
  C 193.11 165.91 173.99 170.92 169.11 166.86
  A 2.07 2.05 -82.6 0 1 168.53 166.10
  Q 167.75 164.37 165.53 163.46
  C 160.63 161.44 157.66 157.82 153.87 154.17
  Q 152.26 152.64 150.83 150.98
  Q 150.50 150.61 150.03 150.78
  C 146.69 152.04 141.26 150.65 137.45 150.69
  C 148.16 129.51 172.12 111.47 194.56 104.76
  Z"
/>
<path fill="#c99ab0" d="
  M 336.14 113.54
  Q 340.06 117.52 338.48 120.01
  C 331.60 130.91 302.21 134.71 290.63 133.89
  C 281.78 133.27 273.77 132.13 265.87 127.82
  L 265.57 122.81
  Q 265.52 122.12 266.19 122.31
  C 271.84 124.01 277.42 125.92 283.15 126.41
  C 295.75 127.47 313.22 126.81 324.56 120.51
  Q 330.67 117.12 336.14 113.54
  Z"
/>
<path fill="#d3b8c5" d="
  M 336.14 113.54
  Q 340.26 113.73 342.48 114.87
  Q 343.73 121.40 338.29 125.32
  Q 330.23 131.12 322.70 133.34
  C 302.91 139.20 285.77 140.11 266.61 132.68
  Q 266.16 132.50 266.04 132.03
  Q 265.74 130.76 264.99 130.06
  L 265.87 127.82
  C 273.77 132.13 281.78 133.27 290.63 133.89
  C 302.21 134.71 331.60 130.91 338.48 120.01
  Q 340.06 117.52 336.14 113.54
  Z"
/>
<path fill="#c05d7c" d="
  M 244.69 117.40
  Q 250.82 126.39 262.49 131.19
  Q 255.73 136.17 246.90 135.63
  C 242.13 135.34 237.21 134.32 234.30 130.68
  C 229.19 124.27 239.80 118.26 244.69 117.40
  Z"
/>
<path fill="#e7c8d7" d="
  M 137.45 150.69
  C 141.26 150.65 146.69 152.04 150.03 150.78
  Q 150.50 150.61 150.83 150.98
  Q 152.26 152.64 153.87 154.17
  C 157.66 157.82 160.63 161.44 165.53 163.46
  Q 167.75 164.37 168.53 166.10
  A 2.07 2.05 -82.6 0 0 169.11 166.86
  C 173.99 170.92 193.11 165.91 200.46 167.12
  C 207.36 168.25 216.47 173.38 223.51 171.09
  C 225.51 170.45 230.60 172.18 232.82 172.40
  Q 238.53 172.98 239.11 173.10
  Q 244.69 174.27 248.52 175.40
  Q 249.01 175.55 249.33 176.03
  Q 249.59 176.43 250.07 176.46
  C 261.15 177.05 271.18 179.65 281.03 180.75
  C 283.86 181.07 286.55 182.50 289.20 182.51
  C 293.58 182.51 297.34 182.16 301.85 183.27
  C 305.66 184.21 309.41 183.61 313.01 184.27
  Q 320.79 185.71 328.72 185.51
  Q 329.22 185.50 329.61 185.18
  Q 330.38 184.54 331.48 184.82
  C 338.48 186.57 344.79 190.00 351.92 187.84
  C 354.33 187.11 356.57 185.03 359.41 184.96
  C 364.64 184.83 369.82 183.04 374.83 183.16
  C 376.54 183.20 378.12 182.56 379.72 182.74
  C 387.02 183.51 392.32 183.03 399.85 180.69
  C 404.47 179.26 409.10 178.25 413.67 176.66
  Q 416.14 175.81 419.67 176.25
  C 427.52 195.46 426.55 216.35 414.67 233.79
  A 0.82 0.81 14.4 0 1 414.05 234.15
  L 410.34 234.47
  A 0.42 0.42 0.0 0 0 410.32 235.30
  C 429.78 238.39 451.01 248.61 462.03 265.73
  C 467.83 274.76 472.32 286.77 470.71 297.26
  Q 469.33 298.05 468.97 296.90
  A 0.79 0.79 0.0 0 0 467.85 296.43
  C 454.67 303.16 440.06 307.11 424.61 308.67
  C 416.49 309.48 407.57 310.59 400.10 310.84
  Q 372.85 311.74 346.47 304.37
  A 1.26 1.22 -50.3 0 0 345.54 304.47
  L 343.95 305.32
  C 340.04 292.21 342.72 278.49 349.06 266.53
  C 351.48 261.98 355.30 258.64 358.96 254.94
  A 0.45 0.45 0.0 0 0 358.44 254.22
  C 356.20 255.36 354.69 257.14 352.15 257.56
  C 329.18 261.42 305.80 250.73 288.33 239.21
  C 269.99 227.11 256.05 211.51 246.35 191.68
  Q 244.57 188.05 244.04 183.77
  A 0.45 0.45 0.0 0 0 243.23 183.57
  C 230.57 201.39 210.50 214.93 190.07 222.09
  C 174.41 227.58 157.10 228.62 140.00 228.76
  Q 135.31 228.80 133.45 225.37
  Q 133.20 224.93 132.71 224.85
  Q 132.53 224.83 132.38 224.87
  Q 131.89 225.02 132.07 225.50
  Q 135.90 235.59 135.41 246.47
  C 131.59 247.01 127.18 248.78 124.53 249.47
  Q 104.32 254.76 83.45 255.00
  C 75.83 255.09 67.70 253.61 59.76 252.73
  Q 48.33 251.48 33.97 245.57
  C 32.56 244.99 31.36 245.32 30.00 245.71
  C 25.90 225.50 33.02 208.49 47.23 194.34
  C 58.12 183.50 74.61 177.08 89.98 179.34
  C 102.56 181.19 110.02 182.94 119.10 188.38
  A 1.01 1.01 0.0 0 0 120.54 187.93
  L 137.45 150.69
  Z"
/>
<path fill="#d3b8c5" d="
  M 252.18 206.51
  C 248.09 212.81 216.30 219.35 208.28 220.72
  Q 207.09 220.93 205.74 221.25
  A 0.43 0.42 86.8 0 1 205.22 220.78
  Q 205.54 218.37 204.31 218.72
  C 219.27 211.02 230.24 201.87 241.92 189.54
  A 1.00 0.99 53.0 0 1 243.53 189.77
  L 252.18 206.51
  Z"
/>
<path fill="#f0dede" d="
  M 252.18 206.51
  L 255.48 211.27
  Q 233.63 220.30 208.93 224.13
  Q 202.71 225.09 197.70 224.09
  Q 197.15 223.23 197.27 222.51
  Q 197.37 221.90 198.24 221.49
  Q 201.21 220.07 204.31 218.72
  Q 205.54 218.37 205.22 220.78
  A 0.43 0.42 86.8 0 0 205.74 221.25
  Q 207.09 220.93 208.28 220.72
  C 216.30 219.35 248.09 212.81 252.18 206.51
  Z"
/>
<path fill="#fbfdfe" d="
  M 255.48 211.27
  Q 265.76 224.74 278.86 234.98
  Q 279.29 235.32 278.94 235.74
  C 271.59 244.60 269.74 265.75 281.03 272.21
  C 289.49 277.05 295.45 268.68 298.69 261.20
  C 300.18 257.75 300.38 254.25 300.92 250.47
  Q 301.02 249.80 301.63 250.09
  C 317.17 257.69 333.06 262.47 349.82 260.20
  A 0.44 0.44 0.0 0 1 350.25 260.87
  C 339.01 278.30 336.42 297.61 345.57 316.63
  Q 345.81 317.12 345.30 317.32
  Q 332.25 322.34 318.60 325.44
  A 0.35 0.34 -74.2 0 1 318.28 324.86
  C 330.75 311.98 325.30 295.70 313.64 284.82
  A 0.48 0.48 0.0 0 1 313.71 284.06
  C 318.53 281.04 325.14 276.22 327.48 270.79
  A 0.33 0.33 0.0 0 0 326.94 270.44
  C 309.50 289.61 280.36 299.98 258.07 281.18
  Q 257.65 280.83 257.24 281.17
  C 247.46 289.33 231.13 292.12 218.81 290.61
  C 203.36 288.71 194.99 280.51 184.22 269.58
  Q 183.86 269.21 183.39 269.44
  C 175.22 273.49 165.19 272.88 157.35 269.21
  C 149.59 265.57 146.91 257.93 143.06 250.88
  A 0.05 0.05 0.0 0 0 142.97 250.91
  C 146.27 270.88 164.97 278.82 182.83 271.68
  Q 183.32 271.49 183.68 271.86
  C 194.95 283.29 204.84 292.34 221.98 292.92
  C 231.62 293.25 247.25 291.76 255.00 285.24
  Q 256.33 284.12 257.39 283.52
  A 0.99 0.99 0.0 0 1 258.47 283.61
  L 263.84 287.82
  Q 264.27 288.16 264.10 288.68
  C 259.27 303.54 260.52 318.16 273.25 328.28
  Q 274.09 328.95 273.02 328.94
  Q 270.24 328.93 267.15 329.32
  C 261.71 329.99 256.51 329.48 250.50 329.55
  Q 242.29 329.65 232.47 328.15
  C 218.73 326.05 204.06 324.94 190.93 321.60
  C 176.84 318.01 160.98 313.01 149.54 304.64
  Q 138.75 296.74 130.95 285.56
  Q 129.38 283.30 125.97 274.70
  Q 125.79 274.25 126.12 273.89
  Q 141.34 257.77 137.54 235.72
  C 137.11 233.17 138.33 230.73 141.10 230.77
  Q 156.26 230.99 171.03 228.32
  A 0.38 0.38 0.0 0 1 171.45 228.83
  C 168.30 236.84 167.59 250.24 175.08 256.35
  C 184.46 264.00 192.12 254.17 195.09 246.08
  Q 198.95 235.54 197.70 224.09
  Q 202.71 225.09 208.93 224.13
  Q 233.63 220.30 255.48 211.27
  Z"
/>
<path fill="#d99fa7" d="
  M 171.53 243.61
  Q 174.10 241.15 178.77 240.02
  Q 178.71 243.99 180.84 246.99
  Q 181.15 247.42 181.67 247.44
  C 187.30 247.63 189.31 229.03 189.08 224.91
  L 194.47 223.12
  A 0.63 0.63 0.0 0 1 195.28 223.57
  C 197.49 232.59 194.10 257.58 181.20 256.74
  C 174.49 256.31 172.44 249.67 171.53 243.61
  Z"
/>
<path fill="#fbfdfe" d="
  M 189.08 224.91
  C 189.31 229.03 187.30 247.63 181.67 247.44
  Q 181.15 247.42 180.84 246.99
  Q 178.71 243.99 178.77 240.02
  Q 178.69 233.25 181.23 226.70
  L 189.08 224.91
  Z"
/>
<path fill="#c05d7c" d="
  M 181.23 226.70
  Q 178.69 233.25 178.77 240.02
  Q 174.10 241.15 171.53 243.61
  Q 171.46 240.05 171.44 235.49
  Q 171.42 231.80 173.37 228.61
  Q 173.63 228.18 174.11 228.09
  L 181.23 226.70
  Z"
/>
<path fill="#c05d7c" d="
  M 285.64 240.27
  Q 280.95 248.48 282.62 257.98
  L 275.97 261.08
  C 273.70 253.86 276.12 244.46 279.38 237.81
  A 1.42 1.41 -59.1 0 1 281.47 237.28
  L 285.64 240.27
  Z"
/>
<path fill="#fbfdfe" d="
  M 285.64 240.27
  L 291.70 244.67
  C 291.73 248.19 291.57 262.91 286.34 263.38
  C 284.23 263.56 282.91 259.56 282.62 257.98
  Q 280.95 248.48 285.64 240.27
  Z"
/>
<path fill="#d99fa7" d="
  M 291.70 244.67
  L 298.08 248.45
  Q 298.53 248.72 298.56 249.25
  Q 299.14 258.54 294.33 265.91
  C 287.54 276.32 278.39 270.67 275.97 261.08
  L 282.62 257.98
  C 282.91 259.56 284.23 263.56 286.34 263.38
  C 291.57 262.91 291.73 248.19 291.70 244.67
  Z"
/>
<path fill="#d3b8c5" d="
  M 135.41 246.47
  L 134.89 252.40
  Q 128.91 252.77 123.15 254.24
  C 97.05 260.94 72.69 260.62 46.80 254.23
  C 42.96 253.28 39.58 251.78 35.97 250.24
  Q 33.45 249.16 31.00 250.22
  L 30.00 245.71
  C 31.36 245.32 32.56 244.99 33.97 245.57
  Q 48.33 251.48 59.76 252.73
  C 67.70 253.61 75.83 255.09 83.45 255.00
  Q 104.32 254.76 124.53 249.47
  C 127.18 248.78 131.59 247.01 135.41 246.47
  Z"
/>
<path fill="#000000" d="
  M 239.4994 251.3744
  A 7.51 3.09 10.7 0 1 231.5463 253.0163
  A 7.51 3.09 10.7 0 1 224.7406 248.5856
  A 7.51 3.09 10.7 0 1 232.6937 246.9437
  A 7.51 3.09 10.7 0 1 239.4994 251.3744
  Z"
/>
<path fill="#c05d7c" d="
  M 236.6473 250.8259
  A 4.87 1.15 11.2 0 1 231.6466 251.0081
  A 4.87 1.15 11.2 0 1 227.0927 248.9341
  A 4.87 1.15 11.2 0 1 232.0934 248.7519
  A 4.87 1.15 11.2 0 1 236.6473 250.8259
  Z"
/>
<path fill="#c99ab0" d="
  M 134.89 252.40
  C 132.28 265.07 122.26 278.03 111.05 283.91
  Q 109.17 281.80 107.21 282.67
  C 94.37 288.41 79.16 288.17 66.61 284.08
  Q 66.14 283.92 65.75 284.23
  Q 65.15 284.70 65.01 285.48
  Q 41.89 276.10 31.81 253.44
  Q 31.41 252.54 31.00 250.22
  Q 33.45 249.16 35.97 250.24
  C 39.58 251.78 42.96 253.28 46.80 254.23
  C 72.69 260.62 97.05 260.94 123.15 254.24
  Q 128.91 252.77 134.89 252.40
  Z"
/>
<path fill="#c05d7c" d="
  M 139.77 299.66
  L 132.43 303.01
  A 1.20 1.20 0.0 0 0 131.72 304.04
  Q 131.66 305.03 130.74 305.26
  Q 130.22 305.39 130.03 305.90
  Q 128.53 309.88 124.89 312.05
  Q 119.63 301.47 117.73 289.85
  C 117.35 287.54 117.72 285.37 117.77 282.93
  Q 117.78 282.47 118.11 282.15
  L 123.92 276.36
  A 0.39 0.39 0.0 0 1 124.56 276.49
  C 128.10 285.42 131.84 290.51 139.77 299.66
  Z"
/>
<path fill="#d3b8c5" d="
  M 111.05 283.91
  Q 88.65 295.13 65.01 285.48
  Q 65.15 284.70 65.75 284.23
  Q 66.14 283.92 66.61 284.08
  C 79.16 288.17 94.37 288.41 107.21 282.67
  Q 109.17 281.80 111.05 283.91
  Z"
/>
<path fill="#c05d7c" d="
  M 321.32 316.62
  Q 312.36 317.32 303.05 316.23
  C 300.74 315.96 300.18 313.68 298.08 313.04
  C 293.86 311.74 286.04 318.64 284.11 322.51
  Q 283.88 322.96 283.44 323.20
  Q 280.32 324.88 279.51 328.90
  C 264.01 321.09 259.97 304.93 266.18 289.36
  Q 266.36 288.92 266.79 289.13
  Q 276.88 294.20 288.21 293.45
  A 0.90 0.88 -16.3 0 1 289.03 293.89
  Q 292.21 299.45 293.47 305.75
  A 0.88 0.86 11.9 0 0 293.83 306.29
  Q 295.07 307.11 294.89 305.24
  Q 294.35 299.28 291.19 294.37
  A 0.66 0.65 -22.7 0 1 291.60 293.38
  Q 301.65 291.06 310.71 286.05
  A 1.05 1.04 -40.7 0 1 311.85 286.13
  C 320.90 292.94 326.11 305.85 321.32 316.62
  Z"
/>
<path fill="#fbfdfe" d="
  M 397.44 391.08
  Q 396.37 393.31 393.68 392.69
  A 1.95 1.84 42.0 0 0 392.74 392.71
  Q 372.16 398.32 350.89 399.06
  C 348.97 399.13 348.07 399.97 346.45 400.85
  Q 345.99 390.88 337.89 385.94
  C 326.92 379.24 315.36 390.24 311.00 400.00
  Q 306.32 397.79 300.75 397.42
  Q 295.14 397.04 289.61 396.19
  C 277.63 394.33 264.59 392.61 254.75 391.49
  C 242.07 390.03 226.34 390.63 216.41 390.68
  Q 205.73 390.73 195.08 391.49
  C 190.62 391.80 185.69 391.06 181.75 391.23
  Q 174.93 391.52 168.18 390.80
  C 163.28 390.27 158.98 390.18 154.37 389.95
  Q 149.14 389.68 144.15 388.37
  C 139.11 387.03 134.35 385.43 129.18 384.69
  Q 122.69 383.75 116.21 382.74
  C 114.97 382.54 114.10 382.81 112.97 382.54
  Q 97.19 378.67 81.83 371.51
  Q 83.70 355.17 89.92 339.17
  Q 90.12 338.66 90.66 338.72
  C 94.09 339.05 99.26 340.27 102.54 339.47
  A 0.40 0.40 0.0 0 0 102.52 338.68
  Q 91.57 336.52 81.53 333.71
  C 72.37 331.13 56.70 322.75 54.50 312.56
  C 53.08 305.97 58.06 299.34 63.92 296.43
  C 75.31 290.78 86.09 292.86 96.46 299.60
  Q 109.68 308.19 116.48 314.26
  Q 118.78 316.30 119.91 317.11
  A 0.30 0.30 0.0 0 0 120.34 316.71
  C 117.09 311.34 109.95 306.19 105.66 303.07
  Q 105.22 302.75 105.46 302.27
  Q 109.45 294.00 114.95 286.64
  Q 115.29 286.18 115.34 286.75
  Q 116.55 301.85 123.91 314.76
  C 128.05 322.02 133.41 326.44 141.05 329.14
  C 148.90 331.92 160.27 330.15 167.69 335.48
  C 178.22 343.04 183.22 353.63 190.43 362.56
  Q 201.00 375.64 217.48 379.22
  C 223.31 380.48 229.70 382.15 235.25 382.36
  C 251.97 382.97 267.61 375.41 282.83 369.60
  C 291.52 366.28 300.25 365.08 308.68 367.33
  C 314.16 368.80 320.28 371.05 325.58 370.89
  C 337.10 370.54 348.47 361.96 355.42 352.90
  Q 358.27 349.18 369.41 340.60
  Q 369.80 340.29 370.26 340.50
  Q 388.41 349.03 408.43 350.17
  Q 409.03 350.21 409.29 350.76
  L 411.39 355.31
  Q 411.67 355.92 411.01 355.82
  C 402.77 354.56 387.98 353.09 381.58 357.05
  A 0.32 0.32 0.0 0 0 381.77 357.64
  C 399.85 356.27 430.31 357.77 439.72 375.04
  Q 443.97 382.83 439.06 388.21
  C 430.26 397.87 407.80 391.24 396.92 387.84
  C 387.95 385.03 382.65 380.20 375.34 374.39
  A 0.29 0.29 0.0 0 0 374.90 374.75
  C 378.56 382.07 390.54 388.71 397.44 391.08
  Z"
/>
<path fill="#d3b8c5" d="
  M 470.71 297.26
  L 469.94 301.72
  Q 469.30 302.54 468.02 301.48
  A 0.86 0.85 -37.7 0 0 467.10 301.37
  C 443.55 312.77 418.84 314.74 391.50 315.16
  C 382.13 315.30 371.38 314.24 362.39 312.55
  C 356.73 311.48 348.58 307.77 345.14 309.39
  L 343.95 305.32
  L 345.54 304.47
  A 1.26 1.22 -50.3 0 1 346.47 304.37
  Q 372.85 311.74 400.10 310.84
  C 407.57 310.59 416.49 309.48 424.61 308.67
  C 440.06 307.11 454.67 303.16 467.85 296.43
  A 0.79 0.79 0.0 0 1 468.97 296.90
  Q 469.33 298.05 470.71 297.26
  Z"
/>
<path fill="#d99fa7" d="
  M 139.77 299.66
  C 154.52 312.63 168.77 317.59 188.04 322.90
  Q 196.23 325.16 206.18 326.55
  Q 223.05 328.89 240.19 331.22
  C 238.99 343.02 233.72 349.15 224.51 356.82
  C 221.97 358.94 218.36 360.12 215.15 359.98
  Q 214.66 359.96 214.24 360.23
  C 210.15 362.84 204.23 362.28 203.87 368.55
  Q 203.84 369.03 203.49 369.38
  L 202.45 370.40
  C 187.07 360.26 182.14 342.41 166.29 332.39
  C 158.09 327.20 147.97 329.81 139.54 326.07
  Q 129.95 321.81 124.89 312.05
  Q 128.53 309.88 130.03 305.90
  Q 130.22 305.39 130.74 305.26
  Q 131.66 305.03 131.72 304.04
  A 1.20 1.20 0.0 0 1 132.43 303.01
  L 139.77 299.66
  Z"
/>
<path fill="#c99ab0" d="
  M 469.94 301.72
  C 468.28 314.60 455.26 330.21 445.32 336.31
  C 436.99 341.42 421.91 347.67 411.10 347.58
  C 384.42 347.35 355.23 336.46 345.14 309.39
  C 348.58 307.77 356.73 311.48 362.39 312.55
  C 371.38 314.24 382.13 315.30 391.50 315.16
  C 418.84 314.74 443.55 312.77 467.10 301.37
  A 0.86 0.85 -37.7 0 1 468.02 301.48
  Q 469.30 302.54 469.94 301.72
  Z"
/>
<path fill="#d99fa7" d="
  M 321.32 316.62
  Q 318.32 324.33 312.00 328.00
  Q 296.04 337.27 279.51 328.90
  Q 280.32 324.88 283.44 323.20
  Q 283.88 322.96 284.11 322.51
  C 286.04 318.64 293.86 311.74 298.08 313.04
  C 300.18 313.68 300.74 315.96 303.05 316.23
  Q 312.36 317.32 321.32 316.62
  Z"
/>
<path fill="#c05d7c" d="
  M 202.45 370.40
  L 203.49 369.38
  Q 203.84 369.03 203.87 368.55
  C 204.23 362.28 210.15 362.84 214.24 360.23
  Q 214.66 359.96 215.15 359.98
  C 218.36 360.12 221.97 358.94 224.51 356.82
  C 233.72 349.15 238.99 343.02 240.19 331.22
  Q 256.98 331.86 274.16 330.89
  Q 276.76 330.74 279.22 331.61
  C 292.07 336.12 303.25 336.00 314.90 328.51
  Q 316.87 327.25 318.98 326.91
  C 328.44 325.39 338.06 323.47 346.20 319.14
  Q 346.70 318.87 347.01 319.35
  Q 354.88 331.54 367.36 338.91
  Q 367.91 339.24 367.39 339.62
  C 363.24 342.65 359.41 345.61 355.81 349.43
  C 345.25 360.63 334.95 371.90 317.65 367.57
  C 305.15 364.45 296.25 361.56 283.53 366.69
  C 265.61 373.93 248.13 382.05 228.31 379.35
  Q 214.63 377.48 202.45 370.40
  Z"
/>
<path fill="#e7c8d7" d="
  M 286.71 325.58
  A 0.16 0.16 0.0 0 1 286.91 325.47
  L 287.63 325.71
  A 4.91 1.08 18.0 0 1 291.96 328.25
  L 291.95 328.29
  A 4.91 1.08 18.0 0 1 286.95 327.80
  L 286.23 327.57
  A 0.16 0.16 0.0 0 1 286.13 327.36
  L 286.71 325.58
  Z"
/>
<path fill="#f0dede" d="
  M 81.83 371.51
  Q 97.19 378.67 112.97 382.54
  C 114.10 382.81 114.97 382.54 116.21 382.74
  Q 122.69 383.75 129.18 384.69
  C 134.35 385.43 139.11 387.03 144.15 388.37
  Q 149.14 389.68 154.37 389.95
  C 158.98 390.18 163.28 390.27 168.18 390.80
  Q 174.93 391.52 181.75 391.23
  C 185.69 391.06 190.62 391.80 195.08 391.49
  Q 205.73 390.73 216.41 390.68
  C 226.34 390.63 242.07 390.03 254.75 391.49
  C 264.59 392.61 277.63 394.33 289.61 396.19
  Q 295.14 397.04 300.75 397.42
  Q 306.32 397.79 311.00 400.00
  L 310.27 402.82
  Q 305.26 402.56 300.42 401.83
  C 281.21 398.95 261.86 396.91 242.54 394.91
  C 221.94 392.77 200.81 394.37 180.25 395.73
  Q 175.77 396.03 168.74 395.65
  C 163.09 395.35 153.88 395.72 146.26 393.92
  Q 133.71 390.95 121.00 388.77
  C 108.35 386.60 96.16 381.46 84.10 377.33
  Q 83.66 377.18 83.26 377.43
  Q 82.36 377.99 81.40 377.78
  L 81.83 371.51
  Z"
/>
<path fill="#d3b8c5" d="
  M 310.27 402.82
  Q 306.52 417.53 317.90 426.07
  C 324.60 431.10 335.26 426.55 339.90 420.76
  Q 344.86 414.57 346.21 406.90
  Q 347.59 404.97 348.70 404.33
  Q 349.02 404.14 351.90 404.06
  Q 376.16 403.46 398.99 395.25
  Q 401.21 394.46 407.44 395.47
  Q 407.99 395.56 408.01 395.00
  Q 408.02 394.49 407.78 393.89
  L 419.23 395.89
  A 1.28 1.27 -85.4 0 1 420.28 397.14
  Q 420.36 410.44 417.27 423.51
  C 414.48 435.32 402.77 448.13 393.05 456.03
  Q 382.31 464.76 367.78 468.18
  C 360.62 469.86 351.61 469.99 343.57 470.66
  Q 336.06 471.30 320.85 470.15
  Q 314.61 469.68 307.28 468.01
  Q 285.73 463.08 263.88 459.77
  Q 257.38 458.78 249.57 458.69
  C 242.28 458.60 234.82 458.19 227.81 458.46
  C 210.49 459.12 193.11 460.08 175.97 462.77
  C 161.54 465.03 149.51 465.57 135.93 461.83
  C 131.18 460.53 127.75 458.60 122.78 455.79
  C 112.93 450.23 103.40 443.43 97.10 433.84
  C 87.24 418.81 79.47 395.78 81.40 377.78
  Q 82.36 377.99 83.26 377.43
  Q 83.66 377.18 84.10 377.33
  C 96.16 381.46 108.35 386.60 121.00 388.77
  Q 133.71 390.95 146.26 393.92
  C 153.88 395.72 163.09 395.35 168.74 395.65
  Q 175.77 396.03 180.25 395.73
  C 200.81 394.37 221.94 392.77 242.54 394.91
  C 261.86 396.91 281.21 398.95 300.42 401.83
  Q 305.26 402.56 310.27 402.82
  Z"
/>
<path fill="#000000" d="
  M 346.45 400.85
  L 346.21 406.90
  Q 344.86 414.57 339.90 420.76
  C 335.26 426.55 324.60 431.10 317.90 426.07
  Q 306.52 417.53 310.27 402.82
  L 311.00 400.00
  C 315.36 390.24 326.92 379.24 337.89 385.94
  Q 345.99 390.88 346.45 400.85
  Z"
/>
<path stroke="#ad5571" stroke-width="2.00" fill="none" stroke-linecap="butt" vector-effect="non-scaling-stroke" d="
  M 343.39 399.73
  L 316.85 399.03
  Q 316.32 399.02 316.04 399.47
  Q 315.26 400.74 313.31 400.16"
/>
<path fill="#c05d7c" d="
  M 343.39 399.73
  L 316.85 399.03
  Q 316.32 399.02 316.04 399.47
  Q 315.26 400.74 313.31 400.16
  Q 317.36 389.56 327.72 385.72
  C 335.76 382.73 342.65 393.03 343.39 399.73
  Z"
/>
<path fill="#f0dede" d="
  M 397.44 391.08
  L 407.78 393.89
  Q 408.02 394.49 408.01 395.00
  Q 407.99 395.56 407.44 395.47
  Q 401.21 394.46 398.99 395.25
  Q 376.16 403.46 351.90 404.06
  Q 349.02 404.14 348.70 404.33
  Q 347.59 404.97 346.21 406.90
  L 346.45 400.85
  C 348.07 399.97 348.97 399.13 350.89 399.06
  Q 372.16 398.32 392.74 392.71
  A 1.95 1.84 42.0 0 1 393.68 392.69
  Q 396.37 393.31 397.44 391.08
  Z"
/>
<path fill="#994c65" d="
  M 343.39 399.73
  C 344.35 408.99 341.58 420.42 332.11 424.29
  C 323.93 427.62 316.06 424.07 312.80 415.90
  Q 309.84 408.50 313.31 400.16
  Q 315.26 400.74 316.04 399.47
  Q 316.32 399.02 316.85 399.03
  L 343.39 399.73
  Z"
/>
<path fill="#c99ab0" d="
  M 230.29 477.41
  L 228.62 476.61
  Q 228.15 476.39 227.69 476.61
  Q 222.73 478.90 217.16 478.48
  Q 215.75 472.48 210.89 468.39
  A 0.48 0.48 0.0 0 0 210.20 469.05
  Q 215.92 476.51 214.63 485.95
  C 212.89 498.71 185.80 497.43 177.36 495.97
  C 164.83 493.80 164.52 481.54 166.61 471.74
  Q 166.68 471.38 166.32 471.30
  Q 165.71 471.17 165.47 471.80
  Q 163.19 477.70 163.72 483.90
  Q 160.40 487.45 157.73 487.48
  Q 156.12 487.50 153.76 486.97
  A 0.70 0.69 22.5 0 0 153.02 487.27
  L 152.49 488.07
  C 143.87 482.72 135.59 474.46 133.08 464.44
  A 0.85 0.85 0.0 0 1 134.16 463.42
  C 151.63 468.92 168.04 465.62 186.74 463.48
  Q 210.54 460.76 236.78 460.45
  Q 237.35 460.45 237.46 461.00
  C 238.28 465.17 232.55 474.31 230.29 477.41
  Z"
/>
<path fill="#c99ab0" d="
  M 342.56 492.29
  Q 341.13 491.12 339.61 491.97
  Q 339.17 492.22 338.80 491.88
  Q 336.85 490.13 334.17 490.21
  A 0.78 0.77 73.1 0 1 333.47 489.83
  Q 333.23 489.42 332.73 489.31
  Q 314.31 485.31 295.16 486.98
  Q 292.80 479.16 294.80 470.58
  Q 294.92 470.07 294.39 470.05
  Q 293.96 470.03 293.76 470.50
  Q 289.44 480.87 294.16 490.69
  A 0.49 0.48 1.5 0 1 293.49 491.32
  C 288.72 488.73 284.30 486.39 280.43 482.45
  C 274.85 476.77 270.49 472.70 268.40 464.72
  Q 268.12 463.65 268.28 463.23
  Q 268.65 462.22 269.71 462.41
  Q 290.65 466.19 310.91 470.86
  C 319.93 472.94 329.39 472.74 338.57 473.14
  Q 343.06 473.34 351.56 472.27
  C 356.61 471.64 363.40 471.64 369.71 469.47
  Q 371.53 468.84 371.36 470.76
  C 370.43 481.31 352.85 489.90 344.41 494.03
  A 0.35 0.35 0.0 0 1 343.98 493.51
  Q 349.14 486.32 346.79 477.48
  Q 346.33 475.76 344.80 475.51
  A 0.56 0.56 0.0 0 0 344.18 476.23
  Q 346.98 484.73 342.56 492.29
  Z"
/>
<path fill="#d3b8c5" d="
  M 230.29 477.41
  Q 224.62 485.64 216.24 490.10
  Q 215.57 490.46 215.81 489.74
  Q 217.56 484.48 217.16 478.48
  Q 222.73 478.90 227.69 476.61
  Q 228.15 476.39 228.62 476.61
  L 230.29 477.41
  Z"
/>
<path fill="#e7c8d7" d="
  M 163.72 483.90
  Q 164.66 489.45 166.99 493.19
  Q 167.31 493.70 166.72 493.56
  Q 159.07 491.76 152.49 488.07
  L 153.02 487.27
  A 0.70 0.69 22.5 0 1 153.76 486.97
  Q 156.12 487.50 157.73 487.48
  Q 160.40 487.45 163.72 483.90
  Z"
/>
<path fill="#e7c8d7" d="
  M 342.56 492.29
  Q 341.10 495.36 338.51 495.79
  C 332.99 496.71 327.08 498.02 321.88 498.04
  Q 310.72 498.09 300.38 493.86
  C 297.03 492.49 295.97 490.28 295.16 486.98
  Q 314.31 485.31 332.73 489.31
  Q 333.23 489.42 333.47 489.83
  A 0.78 0.77 73.1 0 0 334.17 490.21
  Q 336.85 490.13 338.80 491.88
  Q 339.17 492.22 339.61 491.97
  Q 341.13 491.12 342.56 492.29
  Z"
/>
</svg>
