<?xml version="1.0" encoding="UTF-8" standalone="no"?>
<svg xmlns="http://www.w3.org/2000/svg" version="1.2" baseProfile="tiny" viewBox="0.00 0.00 500.00 500.00">
<path fill="#010101" d="
  M 306.01 469.24
  C 299.56 470.28 293.99 471.47 287.94 474.68
  Q 275.89 481.08 263.08 486.59
  A 1.46 1.46 0.0 0 1 261.04 485.17
  C 261.29 480.15 268.68 472.03 271.91 468.95
  A 0.48 0.48 0.0 0 0 271.50 468.13
  Q 260.69 469.94 249.89 472.35
  C 241.81 474.15 229.23 479.46 219.33 479.53
  A 1.75 1.75 0.0 0 1 217.92 476.72
  Q 223.33 469.56 231.44 465.63
  A 0.70 0.70 0.0 0 0 231.04 464.31
  Q 220.09 465.85 209.19 464.33
  A 1.70 1.69 33.7 0 1 208.56 461.19
  Q 215.63 457.05 223.48 453.85
  C 237.20 448.28 252.99 448.15 267.76 449.43
  C 272.52 449.84 283.93 450.12 288.09 446.15
  C 297.29 437.38 306.26 428.41 315.60 419.77
  Q 321.22 414.57 325.43 408.46
  A 2.79 2.78 -43.0 0 0 325.54 405.48
  L 322.60 400.39
  Q 322.30 399.87 321.69 399.83
  C 301.00 398.42 283.64 368.81 277.13 351.60
  A 1.45 1.38 -86.2 0 0 276.52 350.87
  Q 268.90 346.44 261.50 341.83
  C 235.35 325.51 212.23 297.77 206.61 267.11
  C 202.78 246.23 206.76 222.97 214.92 203.47
  Q 230.73 165.69 254.79 133.06
  A 1.09 1.08 19.7 0 0 253.97 131.33
  C 241.27 130.68 231.10 131.81 216.06 133.46
  C 163.10 139.26 110.91 152.95 63.27 175.69
  C 48.64 182.68 36.38 196.65 27.16 209.68
  Q 21.41 217.80 18.38 226.64
  A 1.89 1.88 18.0 0 1 16.04 227.82
  C 12.10 226.61 10.19 224.43 8.30 220.57
  C -8.50 186.23 2.66 144.49 21.69 113.93
  C 62.35 48.64 141.76 13.29 215.81 5.74
  Q 217.03 5.62 230.36 4.98
  C 236.99 4.67 243.77 3.26 249.91 3.19
  C 279.11 2.85 306.65 7.10 330.96 23.29
  Q 352.26 37.48 359.97 62.81
  Q 371.06 99.27 368.45 135.76
  Q 366.56 162.20 360.69 193.58
  Q 360.59 194.08 360.93 194.46
  C 388.33 224.54 407.22 268.34 416.52 306.98
  Q 416.63 307.44 417.05 307.23
  C 421.52 305.05 442.27 296.28 446.02 299.34
  A 0.86 0.85 -62.8 0 1 446.30 300.23
  Q 443.12 311.55 435.40 320.39
  A 0.47 0.46 20.1 0 0 435.76 321.16
  C 441.02 321.06 445.49 321.39 450.91 320.43
  Q 457.70 319.22 464.62 319.31
  C 466.85 319.33 469.59 318.68 469.54 322.06
  C 469.45 329.48 454.77 342.51 449.34 347.07
  A 0.88 0.88 0.0 0 0 449.60 348.57
  Q 460.49 352.55 469.26 360.22
  C 471.18 361.90 470.83 363.18 468.69 364.28
  C 458.07 369.71 445.66 370.19 433.42 368.81
  A 0.47 0.47 0.0 0 0 432.95 369.50
  Q 436.58 376.40 438.56 383.88
  A 1.38 1.38 0.0 0 1 436.91 385.57
  L 430.48 384.03
  A 0.47 0.47 0.0 0 0 430.04 384.82
  Q 434.61 389.23 437.68 394.87
  Q 449.67 416.86 457.25 441.04
  A 1.35 1.34 -19.3 0 0 459.02 441.89
  Q 463.83 440.01 468.92 440.26
  A 1.32 1.31 -82.3 0 1 470.14 441.87
  Q 468.98 446.96 465.98 451.17
  A 0.41 0.41 0.0 0 0 466.49 451.78
  Q 481.63 444.54 498.48 445.48
  A 1.46 1.46 0.0 0 1 499.62 447.73
  C 488.74 464.39 474.91 477.26 454.49 480.17
  Q 432.05 483.37 409.98 478.30
  C 399.67 475.94 388.38 471.61 387.77 459.43
  Q 386.33 431.01 392.79 403.31
  C 393.21 401.48 392.81 399.78 391.11 399.05
  Q 390.71 398.87 390.47 399.23
  L 382.82 410.47
  A 0.69 0.67 -27.2 0 0 382.70 410.82
  C 382.57 414.71 378.97 418.43 376.48 421.20
  C 368.04 430.58 360.44 440.43 353.41 450.91
  Q 351.03 454.45 349.41 457.99
  A 1.12 1.12 0.0 0 0 350.53 459.58
  Q 359.40 458.79 368.04 460.78
  A 1.31 1.31 0.0 0 1 368.75 462.90
  Q 367.10 464.85 364.72 465.46
  A 0.80 0.80 0.0 0 0 364.75 467.01
  Q 381.26 470.64 393.43 482.37
  A 0.96 0.96 0.0 0 1 392.69 484.02
  C 391.39 483.93 389.88 483.79 388.55 483.39
  Q 365.33 476.47 341.17 475.07
  C 331.83 474.53 322.91 477.24 315.43 482.17
  Q 303.70 489.91 291.16 496.35
  A 1.48 1.47 -6.7 0 1 289.05 494.69
  Q 292.93 478.95 306.40 470.25
  A 0.55 0.55 0.0 0 0 306.01 469.24
  Z
  M 300.33 453.11
  L 333.03 458.17
  Q 333.64 458.26 333.99 457.77
  C 344.72 442.83 356.97 428.26 366.05 412.30
  C 367.83 409.16 367.30 406.80 364.66 404.57
  A 1.32 1.30 64.0 0 0 363.79 404.26
  C 352.82 404.52 343.54 399.05 336.01 391.96
  A 0.56 0.55 -80.0 0 0 335.12 392.59
  Q 338.36 400.25 340.76 407.86
  C 342.67 413.94 338.00 416.50 333.38 420.23
  C 322.59 428.97 312.46 438.83 302.47 448.47
  Q 300.82 450.06 299.75 451.91
  A 0.81 0.81 0.0 0 0 300.33 453.11
  Z"
/>
<g stroke-width="2.00" fill="none" stroke-linecap="butt">
<path stroke="#4a4542" vector-effect="non-scaling-stroke" d="
  M 292.06 44.93
  Q 291.12 45.08 290.65 45.49
  A 0.66 0.66 0.0 0 0 290.48 46.28
  Q 291.26 47.95 289.89 49.11
  Q 289.52 49.43 289.61 49.91
  Q 290.45 54.37 288.37 56.33"
/>
<path stroke="#332e2c" vector-effect="non-scaling-stroke" d="
  M 257.49 42.06
  C 263.06 42.42 265.03 36.77 270.78 41.28
  A 1.09 1.06 59.9 0 0 271.56 41.50
  L 272.88 41.33"
/>
<path stroke="#4a4542" vector-effect="non-scaling-stroke" d="
  M 297.64 77.76
  L 290.27 72.38"
/>
<path stroke="#332e2c" vector-effect="non-scaling-stroke" d="
  M 291.52 106.20
  Q 290.02 105.97 289.57 104.96
  Q 289.37 104.50 288.90 104.31
  L 285.54 102.95"
/>
<path stroke="#4a4542" vector-effect="non-scaling-stroke" d="
  M 347.65 41.01
  Q 347.17 43.47 349.10 46.18
  C 351.38 49.38 351.96 52.86 353.08 56.45
  C 353.89 59.06 353.45 62.03 349.95 61.59
  A 1.42 1.37 71.9 0 1 349.06 61.12
  Q 344.79 56.18 341.93 50.29
  Q 341.67 49.76 341.19 49.43
  Q 337.45 46.83 335.30 42.96"
/>
<path stroke="#4a4542" vector-effect="non-scaling-stroke" d="
  M 360.89 72.30
  Q 358.41 76.40 358.82 80.74
  Q 359.02 82.75 356.40 89.14
  A 1.27 1.26 88.8 0 1 355.74 89.83
  Q 353.63 90.75 352.27 92.57
  Q 351.95 93.01 351.93 93.55
  Q 351.82 96.44 351.79 103.73
  Q 351.78 105.65 349.77 106.04"
/>
<path stroke="#332e2c" vector-effect="non-scaling-stroke" d="
  M 362.44 170.79
  L 352.60 186.84"
/>
<path stroke="#f0d066" vector-effect="non-scaling-stroke" d="
  M 238.18 104.03
  Q 236.61 93.08 235.25 82.25
  Q 234.47 75.99 231.01 64.30"
/>
<path stroke="#efc953" vector-effect="non-scaling-stroke" d="
  M 231.01 64.30
  C 228.07 51.70 223.70 39.24 216.73 28.54
  C 212.35 21.81 205.95 11.31 196.99 10.95
  A 0.94 0.91 75.1 0 1 196.24 10.50
  Q 195.99 10.08 196.22 9.76"
/>
<path stroke="#f0bd53" vector-effect="non-scaling-stroke" d="
  M 231.01 64.30
  Q 228.46 65.69 223.23 63.87
  Q 222.75 63.70 222.26 63.80
  Q 219.53 64.32 216.91 65.24
  C 214.80 65.98 212.49 66.13 210.33 66.98
  C 202.23 70.15 193.49 72.09 185.00 73.97
  C 183.81 74.23 183.02 74.84 182.05 75.49"
/>
<path stroke="#eca64f" vector-effect="non-scaling-stroke" d="
  M 182.05 75.49
  L 181.53 74.39"
/>
<path stroke="#ea993f" vector-effect="non-scaling-stroke" d="
  M 181.53 74.39
  Q 173.45 50.70 157.81 30.94
  Q 157.20 30.17 156.25 29.95"
/>
<path stroke="#eca64f" vector-effect="non-scaling-stroke" d="
  M 156.25 29.95
  L 156.22 28.82"
/>
<path stroke="#f0bd53" vector-effect="non-scaling-stroke" d="
  M 156.22 28.82
  C 157.20 28.71 158.24 28.86 159.15 28.46
  Q 173.69 22.00 188.68 16.68
  Q 189.39 16.43 189.65 15.94
  A 0.49 0.49 0.0 0 0 189.12 15.23
  Q 177.87 17.67 167.16 21.57
  C 163.42 22.93 154.64 23.31 152.95 27.02"
/>
<path stroke="#eca64f" vector-effect="non-scaling-stroke" d="
  M 152.95 27.02
  L 149.84 24.68"
/>
<path stroke="#ea993f" vector-effect="non-scaling-stroke" d="
  M 149.84 24.68
  Q 146.16 24.42 145.92 22.72"
/>
<path stroke="#eead61" vector-effect="non-scaling-stroke" d="
  M 190.50 111.55
  Q 190.14 110.88 190.43 110.35
  Q 190.66 109.91 190.58 109.42
  Q 187.49 92.13 182.05 75.49"
/>
<path stroke="#e8894e" vector-effect="non-scaling-stroke" d="
  M 156.25 29.95
  Q 154.86 31.07 154.07 31.36
  Q 148.20 33.54 143.25 37.25
  C 137.05 41.88 133.89 43.91 127.09 44.98
  C 122.15 45.76 119.47 50.23 115.03 52.22
  Q 112.25 53.47 109.40 54.77"
/>
<path stroke="#dd7f51" vector-effect="non-scaling-stroke" d="
  M 109.40 54.77
  L 103.56 49.81"
/>
<path stroke="#eead61" vector-effect="non-scaling-stroke" d="
  M 156.22 28.82
  Q 154.53 28.69 152.95 27.02"
/>
<path stroke="#e8894e" vector-effect="non-scaling-stroke" d="
  M 181.53 74.39
  L 180.87 75.30
  Q 180.58 75.69 180.12 75.83
  Q 172.23 78.11 164.68 81.28
  C 162.44 82.23 159.75 82.69 157.76 83.53
  Q 148.86 87.25 139.95 90.94
  C 138.12 91.69 136.79 93.34 134.63 93.87
  Q 134.23 93.97 134.16 94.38
  L 133.83 96.30"
/>
<path stroke="#db7242" vector-effect="non-scaling-stroke" d="
  M 133.83 96.30
  L 128.10 82.75"
/>
<path stroke="#d56235" vector-effect="non-scaling-stroke" d="
  M 128.10 82.75
  C 125.00 75.34 117.50 59.75 109.68 56.16"
/>
<path stroke="#db7242" vector-effect="non-scaling-stroke" d="
  M 109.68 56.16
  Q 109.88 55.47 109.40 54.77"
/>
<path stroke="#e8894e" vector-effect="non-scaling-stroke" d="
  M 149.84 24.68
  Q 149.25 26.63 147.46 27.24
  Q 124.52 34.99 105.57 47.85
  Q 105.05 48.20 103.56 49.81"
/>
<path stroke="#db7242" vector-effect="non-scaling-stroke" d="
  M 103.56 49.81
  L 102.78 49.25"
/>
<path stroke="#d56235" vector-effect="non-scaling-stroke" d="
  M 102.78 49.25
  Q 99.61 46.84 95.61 47.67
  Q 95.13 47.77 94.93 47.57
  Q 94.67 47.31 94.73 46.75"
/>
<path stroke="#dd7f51" vector-effect="non-scaling-stroke" d="
  M 142.21 127.14
  Q 140.73 124.71 141.08 121.74
  Q 141.14 121.23 140.79 120.94
  Q 140.44 120.65 140.32 120.20
  L 133.83 96.30"
/>
<path stroke="#ca5838" vector-effect="non-scaling-stroke" d="
  M 109.68 56.16
  Q 109.05 55.69 108.32 56.33
  C 103.25 60.81 98.22 65.91 92.08 69.02
  C 86.93 71.63 80.02 74.98 75.66 79.17
  Q 75.33 79.49 74.91 79.67
  Q 72.59 80.65 71.30 82.84
  Q 71.04 83.29 70.56 83.50
  L 66.94 85.08"
/>
<path stroke="#dd7f51" vector-effect="non-scaling-stroke" d="
  M 64.01 82.09
  L 74.49 72.39
  A 0.22 0.22 0.0 0 0 74.24 72.04
  Q 67.65 75.49 62.56 80.91"
/>
<path stroke="#ca5838" vector-effect="non-scaling-stroke" d="
  M 128.10 82.75
  Q 131.23 91.20 125.96 93.68
  Q 120.06 96.45 105.85 104.97
  C 104.32 105.88 103.19 107.41 101.55 108.35
  C 96.48 111.24 91.65 116.79 87.27 120.69"
/>
<path stroke="#ca5838" vector-effect="non-scaling-stroke" d="
  M 102.78 49.25
  C 101.50 50.26 100.60 51.55 99.13 52.22
  Q 93.49 54.78 87.90 57.42
  C 86.18 58.23 84.79 59.76 83.14 60.85
  C 79.75 63.10 77.04 65.79 73.36 67.57
  C 71.28 68.58 69.72 70.07 67.49 71.20
  Q 62.49 73.75 60.69 79.76"
/>
<path stroke="#ded8d5" vector-effect="non-scaling-stroke" d="
  M 291.32 287.17
  L 272.96 278.39
  A 1.44 1.43 25.7 0 0 271.05 279.05
  Q 268.84 283.52 268.12 287.39
  Q 268.08 287.58 267.96 287.74
  Q 267.85 287.88 267.72 288.03
  Q 267.41 288.42 267.34 288.91
  C 266.93 291.59 265.58 294.08 265.09 296.42
  Q 264.47 299.44 264.05 302.25
  A 0.87 0.86 -60.6 0 1 262.53 302.68
  Q 259.11 298.53 255.51 295.01
  C 251.35 290.94 248.02 286.33 243.90 282.07
  C 238.59 276.59 233.43 268.72 227.35 264.41
  A 0.87 0.85 -38.3 0 0 226.51 264.32
  C 219.92 267.28 216.23 285.56 218.59 291.76"
/>
<path stroke="#d7d6d4" vector-effect="non-scaling-stroke" d="
  M 218.59 291.76
  Q 219.52 292.50 218.48 294.07"
/>
<path stroke="#ded8d5" vector-effect="non-scaling-stroke" d="
  M 226.71 182.60
  Q 230.81 189.03 239.28 185.01
  Q 254.01 178.03 265.17 168.65
  Q 265.95 168.00 268.84 166.11
  C 275.76 161.58 280.74 154.97 286.51 148.83
  C 289.80 145.32 291.69 141.63 294.16 138.14
  C 296.14 135.35 297.87 132.55 297.86 129.82
  C 297.82 120.56 300.20 114.08 293.23 106.36"
/>
<path stroke="#b7b0af" vector-effect="non-scaling-stroke" d="
  M 290.95 288.49
  L 275.21 281.37
  A 2.54 2.54 0.0 0 0 271.78 282.82
  Q 267.84 293.69 265.54 304.98
  A 0.82 0.81 88.3 0 1 264.95 305.61
  Q 263.43 306.02 262.11 304.62
  Q 249.60 291.37 237.65 277.62
  Q 232.82 272.06 227.77 267.34
  A 1.67 1.66 36.3 0 0 225.19 267.73
  Q 219.19 278.29 219.41 290.46
  Q 219.42 290.99 219.03 291.35
  L 218.59 291.76"
/>
<path stroke="#4a4542" vector-effect="non-scaling-stroke" d="
  M 58.61 79.96
  Q 53.19 84.39 48.34 89.32
  C 45.40 92.31 43.86 96.49 41.16 99.95
  C 37.58 104.54 37.10 110.77 33.16 114.88
  C 32.13 115.96 31.24 118.48 30.79 119.24
  Q 24.47 130.07 19.38 141.23
  A 0.72 0.72 0.0 0 0 20.51 142.07
  C 23.66 139.36 24.83 133.69 28.23 130.14
  C 32.09 126.09 34.75 121.53 38.56 117.54
  C 41.39 114.59 41.47 111.57 45.21 108.98
  Q 47.88 107.14 50.23 103.51
  Q 52.84 99.48 59.48 95.20
  C 61.53 93.88 62.91 89.05 65.88 86.32"
/>
<path stroke="#4a4542" vector-effect="non-scaling-stroke" d="
  M 69.01 166.22
  L 69.02 165.82
  A 0.66 0.66 0.0 0 0 68.03 165.23
  Q 59.40 170.39 52.25 177.14
  C 45.49 183.52 39.86 187.96 33.60 193.38
  Q 29.54 196.89 28.66 198.18
  Q 27.43 199.98 26.11 200.26
  Q 25.81 200.32 25.63 200.57
  Q 25.54 200.69 25.45 200.82
  A 1.61 1.60 -83.3 0 1 24.71 201.41
  Q 18.95 203.65 17.80 205.28
  Q 13.92 210.75 7.02 213.42"
/>
<path stroke="#a9442d" vector-effect="non-scaling-stroke" d="
  M 196.80 133.84
  Q 217.26 117.83 241.52 111.90
  Q 242.99 111.54 244.77 110.52
  C 247.49 108.97 249.75 110.22 252.49 108.56
  Q 255.23 106.90 261.05 105.94
  Q 261.59 105.85 261.82 105.37
  Q 262.05 104.91 262.00 104.49"
/>
<path stroke="#ca5838" vector-effect="non-scaling-stroke" d="
  M 172.23 138.39
  Q 172.37 137.85 172.22 137.62
  A 0.99 0.98 68.2 0 0 171.27 137.21
  Q 160.01 138.94 149.08 140.87
  C 143.96 141.76 135.68 145.28 125.08 148.47
  Q 122.59 149.22 122.59 150.81"
/>
<path stroke="#a9442d" vector-effect="non-scaling-stroke" d="
  M 97.89 159.17
  Q 98.68 157.01 101.67 156.01
  Q 102.09 155.87 102.19 155.44
  L 102.51 154.05
  A 1.00 0.98 -14.5 0 1 102.84 153.50
  Q 106.84 150.09 107.77 144.96"
/>
<path stroke="#4a4542" vector-effect="non-scaling-stroke" d="
  M 408.66 285.51
  L 408.28 285.83
  Q 407.82 286.21 407.51 285.71
  C 406.11 283.46 403.41 278.91 401.43 277.15
  C 398.14 274.22 395.63 270.36 392.70 267.55
  C 388.23 263.25 385.32 257.45 379.81 254.19
  Q 376.66 252.33 364.97 248.83
  Q 357.54 246.61 350.98 240.99
  C 349.14 239.41 346.93 238.56 345.28 237.01
  Q 337.45 229.66 333.49 222.74
  Q 330.42 217.37 331.67 209.68
  C 332.28 205.90 338.26 201.80 339.14 196.63
  Q 341.04 185.35 327.55 179.20"
/>
<path stroke="#332e2c" vector-effect="non-scaling-stroke" d="
  M 467.56 323.67
  Q 462.84 327.58 458.74 331.89
  C 454.83 336.02 449.81 338.15 445.38 342.05
  C 443.22 343.95 440.48 344.38 438.42 345.92
  Q 429.53 352.53 419.36 356.85
  C 417.96 357.45 416.95 359.08 415.79 359.54
  Q 409.11 362.20 402.41 364.92
  C 396.39 367.38 390.36 366.23 382.46 365.13
  Q 373.52 363.89 365.28 359.92
  C 364.19 359.39 362.99 359.37 361.88 358.75
  Q 359.73 357.56 359.55 357.48
  Q 346.01 351.93 333.66 344.04
  C 333.05 343.64 332.34 343.72 331.67 343.82"
/>
<path stroke="#332e2c" vector-effect="non-scaling-stroke" d="
  M 303.86 317.10
  C 303.34 318.97 305.38 322.38 305.55 324.60
  C 305.77 327.38 307.14 331.27 304.67 333.62
  Q 294.02 343.74 278.17 342.32
  Q 270.33 341.62 265.15 341.72"
/>
<path stroke="#a9442d" vector-effect="non-scaling-stroke" d="
  M 445.52 367.76
  C 441.34 368.17 438.77 366.57 435.50 365.55
  Q 431.73 364.39 427.79 362.69"
/>
<path stroke="#a9442d" vector-effect="non-scaling-stroke" d="
  M 422.38 392.23
  Q 420.81 391.24 419.81 395.69
  A 1.47 1.44 78.5 0 1 419.26 396.54
  Q 417.95 397.52 418.00 399.22
  Q 418.01 399.63 417.65 399.81
  Q 416.94 400.17 416.81 400.85
  Q 416.71 401.32 416.40 401.69
  Q 412.68 406.07 406.73 409.11"
/>
<path stroke="#332e2c" vector-effect="non-scaling-stroke" d="
  M 458.20 449.75
  L 457.67 449.75
  Q 457.11 449.75 457.07 450.32
  Q 456.80 454.74 457.83 459.02
  C 458.99 463.82 457.78 470.56 465.05 470.03
  Q 472.43 469.48 477.52 466.76
  Q 480.26 465.30 482.09 465.85"
/>
<path stroke="#4a4542" vector-effect="non-scaling-stroke" d="
  M 495.85 450.20
  Q 492.84 450.99 490.17 453.61
  C 487.58 456.16 485.82 456.72 482.42 456.56
  C 480.84 456.48 479.59 455.35 477.80 455.23
  Q 477.30 455.20 476.89 454.91
  Q 474.97 453.56 472.89 454.40
  Q 472.39 454.60 471.87 454.55
  Q 468.83 454.21 466.01 455.26
  A 1.50 1.38 71.1 0 1 464.19 454.27
  Q 464.11 454.01 464.55 453.39"
/>
<path stroke="#4a4542" vector-effect="non-scaling-stroke" d="
  M 463.18 453.24
  Q 462.34 454.37 460.59 454.23"
/>
<path stroke="#5e96a7" vector-effect="non-scaling-stroke" d="
  M 372.72 423.07
  L 364.87 417.87"
/>
<path stroke="#5e96a7" vector-effect="non-scaling-stroke" d="
  M 267.84 467.42
  C 268.60 461.97 264.34 458.90 260.01 456.25"
/>
<path stroke="#5e96a7" vector-effect="non-scaling-stroke" d="
  M 259.03 454.68
  Q 259.12 453.42 257.46 453.04
  Q 256.97 452.93 256.66 452.54
  L 255.05 450.58"
/>
</g>
<path fill="#3f3a37" d="
  M 292.06 44.93
  Q 291.12 45.08 290.65 45.49
  A 0.66 0.66 0.0 0 0 290.48 46.28
  Q 291.26 47.95 289.89 49.11
  Q 289.52 49.43 289.61 49.91
  Q 290.45 54.37 288.37 56.33
  Q 285.83 54.50 279.68 55.50
  A 1.41 1.40 -10.9 0 0 278.53 57.19
  C 279.90 63.28 276.31 71.52 268.69 68.29
  C 259.25 64.29 256.41 50.97 257.49 42.06
  C 263.06 42.42 265.03 36.77 270.78 41.28
  A 1.09 1.06 59.9 0 0 271.56 41.50
  L 272.88 41.33
  L 277.10 48.37
  A 0.80 0.79 73.7 0 0 277.80 48.76
  L 284.79 48.72
  A 0.85 0.84 80.3 0 0 285.58 47.60
  C 278.43 26.96 264.34 11.58 242.91 5.91
  Q 242.26 5.73 242.88 5.48
  C 248.60 3.13 255.20 5.70 260.32 8.65
  Q 282.35 21.35 292.06 44.93
  Z"
/>
<path fill="#3f3a37" d="
  M 347.65 41.01
  Q 347.17 43.47 349.10 46.18
  C 351.38 49.38 351.96 52.86 353.08 56.45
  C 353.89 59.06 353.45 62.03 349.95 61.59
  A 1.42 1.37 71.9 0 1 349.06 61.12
  Q 344.79 56.18 341.93 50.29
  Q 341.67 49.76 341.19 49.43
  Q 337.45 46.83 335.30 42.96
  Q 337.28 44.04 338.11 43.83
  A 0.59 0.59 0.0 0 0 338.51 43.05
  Q 332.75 27.53 318.76 18.96
  C 316.90 17.81 311.02 14.53 308.95 16.96
  Q 303.30 23.58 298.06 30.30
  A 0.63 0.63 0.0 0 1 297.21 30.43
  Q 289.91 25.49 281.82 22.72
  Q 279.91 22.06 278.48 20.64
  Q 268.54 10.74 255.44 5.21
  A 0.42 0.41 57.2 0 1 255.61 4.41
  C 288.78 5.46 326.04 13.00 347.65 41.01
  Z"
/>
<path fill="#efdb66" d="
  M 238.18 104.03
  Q 236.61 93.08 235.25 82.25
  Q 234.47 75.99 231.01 64.30
  C 228.07 51.70 223.70 39.24 216.73 28.54
  C 212.35 21.81 205.95 11.31 196.99 10.95
  A 0.94 0.91 75.1 0 1 196.24 10.50
  Q 195.99 10.08 196.22 9.76
  Q 216.35 6.55 235.19 6.35
  C 247.89 6.21 262.61 15.12 270.34 24.16
  Q 277.99 33.11 283.13 46.61
  Q 283.34 47.15 282.76 47.18
  L 278.78 47.44
  A 0.81 0.80 -12.1 0 1 277.97 46.92
  Q 275.34 40.01 269.76 35.75
  C 261.45 29.42 255.39 36.29 255.40 44.74
  Q 255.42 53.55 258.86 60.67
  C 264.58 72.48 281.02 76.14 280.23 57.30
  A 0.53 0.53 0.0 0 1 280.76 56.75
  L 286.01 56.75
  A 0.73 0.73 0.0 0 1 286.71 57.28
  C 290.51 70.92 288.67 87.55 284.50 101.24
  C 283.84 103.40 283.05 102.96 280.99 102.90
  Q 259.67 102.34 238.18 104.03
  Z"
/>
<path fill="#eeb640" d="
  M 196.22 9.76
  Q 195.99 10.08 196.24 10.50
  A 0.94 0.91 75.1 0 0 196.99 10.95
  C 205.95 11.31 212.35 21.81 216.73 28.54
  C 223.70 39.24 228.07 51.70 231.01 64.30
  Q 228.46 65.69 223.23 63.87
  Q 222.75 63.70 222.26 63.80
  Q 219.53 64.32 216.91 65.24
  C 214.80 65.98 212.49 66.13 210.33 66.98
  C 202.23 70.15 193.49 72.09 185.00 73.97
  C 183.81 74.23 183.02 74.84 182.05 75.49
  L 181.53 74.39
  Q 173.45 50.70 157.81 30.94
  Q 157.20 30.17 156.25 29.95
  L 156.22 28.82
  C 157.20 28.71 158.24 28.86 159.15 28.46
  Q 173.69 22.00 188.68 16.68
  Q 189.39 16.43 189.65 15.94
  A 0.49 0.49 0.0 0 0 189.12 15.23
  Q 177.87 17.67 167.16 21.57
  C 163.42 22.93 154.64 23.31 152.95 27.02
  L 149.84 24.68
  Q 146.16 24.42 145.92 22.72
  Q 170.66 14.22 196.22 9.76
  Z"
/>
<path fill="#f1c465" d="
  M 156.22 28.82
  Q 154.53 28.69 152.95 27.02
  C 154.64 23.31 163.42 22.93 167.16 21.57
  Q 177.87 17.67 189.12 15.23
  A 0.49 0.49 0.0 0 1 189.65 15.94
  Q 189.39 16.43 188.68 16.68
  Q 173.69 22.00 159.15 28.46
  C 158.24 28.86 157.20 28.71 156.22 28.82
  Z"
/>
<path fill="#afaead" d="
  M 298.38 32.19
  Q 304.81 24.83 309.17 18.93
  C 310.25 17.47 311.24 17.13 313.01 17.89
  Q 329.28 24.90 336.54 41.33
  A 0.34 0.34 0.0 0 1 336.01 41.72
  Q 327.38 34.29 317.37 28.85
  A 1.31 1.31 0.0 0 0 315.85 29.05
  Q 305.46 38.74 296.29 49.57
  A 0.42 0.42 0.0 0 1 295.57 49.43
  Q 291.01 35.52 281.59 24.34
  A 0.20 0.20 0.0 0 1 281.81 24.02
  Q 290.18 27.14 297.45 32.30
  A 0.70 0.69 37.9 0 0 298.38 32.19
  Z"
/>
<path fill="#e57c3e" d="
  M 145.92 22.72
  Q 146.16 24.42 149.84 24.68
  Q 149.25 26.63 147.46 27.24
  Q 124.52 34.99 105.57 47.85
  Q 105.05 48.20 103.56 49.81
  L 102.78 49.25
  Q 99.61 46.84 95.61 47.67
  Q 95.13 47.77 94.93 47.57
  Q 94.67 47.31 94.73 46.75
  Q 119.20 32.18 145.92 22.72
  Z"
/>
<path fill="#ea965d" d="
  M 149.84 24.68
  L 152.95 27.02
  Q 154.53 28.69 156.22 28.82
  L 156.25 29.95
  Q 154.86 31.07 154.07 31.36
  Q 148.20 33.54 143.25 37.25
  C 137.05 41.88 133.89 43.91 127.09 44.98
  C 122.15 45.76 119.47 50.23 115.03 52.22
  Q 112.25 53.47 109.40 54.77
  L 103.56 49.81
  Q 105.05 48.20 105.57 47.85
  Q 124.52 34.99 147.46 27.24
  Q 149.25 26.63 149.84 24.68
  Z"
/>
<path fill="#e57c3e" d="
  M 156.25 29.95
  Q 157.20 30.17 157.81 30.94
  Q 173.45 50.70 181.53 74.39
  L 180.87 75.30
  Q 180.58 75.69 180.12 75.83
  Q 172.23 78.11 164.68 81.28
  C 162.44 82.23 159.75 82.69 157.76 83.53
  Q 148.86 87.25 139.95 90.94
  C 138.12 91.69 136.79 93.34 134.63 93.87
  Q 134.23 93.97 134.16 94.38
  L 133.83 96.30
  L 128.10 82.75
  C 125.00 75.34 117.50 59.75 109.68 56.16
  Q 109.88 55.47 109.40 54.77
  Q 112.25 53.47 115.03 52.22
  C 119.47 50.23 122.15 45.76 127.09 44.98
  C 133.89 43.91 137.05 41.88 143.25 37.25
  Q 148.20 33.54 154.07 31.36
  Q 154.86 31.07 156.25 29.95
  Z"
/>
<path fill="#505a9a" d="
  M 318.59 31.37
  C 321.78 33.10 329.91 37.53 331.06 40.98
  Q 331.58 42.58 329.94 42.93
  L 316.54 45.79
  Q 315.79 45.95 315.73 45.19
  Q 315.29 39.91 310.81 37.17
  Q 310.28 36.84 310.67 36.36
  C 312.23 34.45 316.23 30.09 318.59 31.37
  Z"
/>
<path fill="#272220" d="
  M 272.88 41.33
  L 271.56 41.50
  A 1.09 1.06 59.9 0 1 270.78 41.28
  C 265.03 36.77 263.06 42.42 257.49 42.06
  C 259.34 30.46 268.63 35.31 272.88 41.33
  Z"
/>
<path fill="#3f3a37" d="
  M 305.56 41.55
  L 308.98 38.13
  A 0.63 0.63 0.0 0 1 309.79 38.05
  Q 313.79 40.75 314.51 45.55
  Q 314.57 45.96 314.16 46.04
  L 308.62 47.21
  Q 308.10 47.32 307.85 46.85
  L 305.44 42.35
  Q 305.20 41.91 305.56 41.55
  Z"
/>
<path fill="#544f4c" d="
  M 335.30 42.96
  Q 337.45 46.83 341.19 49.43
  Q 341.67 49.76 341.93 50.29
  Q 344.79 56.18 349.06 61.12
  A 1.42 1.37 71.9 0 0 349.95 61.59
  C 353.45 62.03 353.89 59.06 353.08 56.45
  C 351.96 52.86 351.38 49.38 349.10 46.18
  Q 347.17 43.47 347.65 41.01
  Q 357.23 54.88 360.89 72.30
  Q 358.41 76.40 358.82 80.74
  Q 359.02 82.75 356.40 89.14
  A 1.27 1.26 88.8 0 1 355.74 89.83
  Q 353.63 90.75 352.27 92.57
  Q 351.95 93.01 351.93 93.55
  Q 351.82 96.44 351.79 103.73
  Q 351.78 105.65 349.77 106.04
  C 348.52 91.54 345.41 71.78 333.95 61.63
  Q 333.51 61.24 333.62 60.66
  Q 335.42 51.14 333.14 41.72
  Q 332.98 41.06 333.59 41.36
  Q 334.70 41.91 335.30 42.96
  Z"
/>
<path fill="#fefefa" d="
  M 298.76 49.12
  L 303.51 43.38
  A 0.74 0.74 0.0 0 1 304.76 43.56
  L 306.31 47.23
  Q 306.57 47.85 305.92 48.02
  L 299.19 49.79
  A 0.42 0.42 0.0 0 1 298.76 49.12
  Z"
/>
<path fill="#71b2cc" d="
  M 318.76 59.60
  L 331.24 61.07
  A 0.64 0.63 10.5 0 1 331.78 61.85
  C 329.02 73.36 315.48 85.90 304.44 73.68
  Q 299.65 68.38 298.64 60.78
  Q 298.57 60.28 299.07 60.27
  Q 303.90 60.19 308.74 60.27
  Q 309.01 60.27 309.23 60.14
  Q 309.36 60.07 309.54 59.98
  Q 310.00 59.72 309.47 59.69
  L 298.60 59.09
  A 0.66 0.64 -4.0 0 1 298.00 58.58
  L 296.55 52.18
  Q 296.45 51.75 296.88 51.65
  L 331.71 43.76
  Q 332.25 43.64 332.34 44.19
  Q 333.54 51.62 332.43 59.05
  Q 332.36 59.50 331.90 59.49
  L 318.80 59.15
  A 0.23 0.22 -40.4 0 0 318.76 59.60
  Z"
/>
<path fill="#544f4c" d="
  M 292.06 44.93
  Q 298.86 60.84 297.64 77.76
  L 290.27 72.38
  Q 290.52 65.00 288.37 56.33
  Q 290.45 54.37 289.61 49.91
  Q 289.52 49.43 289.89 49.11
  Q 291.26 47.95 290.48 46.28
  A 0.66 0.66 0.0 0 1 290.65 45.49
  Q 291.12 45.08 292.06 44.93
  Z"
/>
<path fill="#c4482b" d="
  M 94.73 46.75
  Q 94.67 47.31 94.93 47.57
  Q 95.13 47.77 95.61 47.67
  Q 99.61 46.84 102.78 49.25
  C 101.50 50.26 100.60 51.55 99.13 52.22
  Q 93.49 54.78 87.90 57.42
  C 86.18 58.23 84.79 59.76 83.14 60.85
  C 79.75 63.10 77.04 65.79 73.36 67.57
  C 71.28 68.58 69.72 70.07 67.49 71.20
  Q 62.49 73.75 60.69 79.76
  Q 57.39 77.12 53.49 78.50
  A 0.36 0.35 -75.7 0 1 53.14 77.90
  Q 72.60 59.96 94.73 46.75
  Z"
/>
<path fill="#d06745" d="
  M 102.78 49.25
  L 103.56 49.81
  L 109.40 54.77
  Q 109.88 55.47 109.68 56.16
  Q 109.05 55.69 108.32 56.33
  C 103.25 60.81 98.22 65.91 92.08 69.02
  C 86.93 71.63 80.02 74.98 75.66 79.17
  Q 75.33 79.49 74.91 79.67
  Q 72.59 80.65 71.30 82.84
  Q 71.04 83.29 70.56 83.50
  L 66.94 85.08
  L 64.01 82.09
  L 74.49 72.39
  A 0.22 0.22 0.0 0 0 74.24 72.04
  Q 67.65 75.49 62.56 80.91
  L 60.69 79.76
  Q 62.49 73.75 67.49 71.20
  C 69.72 70.07 71.28 68.58 73.36 67.57
  C 77.04 65.79 79.75 63.10 83.14 60.85
  C 84.79 59.76 86.18 58.23 87.90 57.42
  Q 93.49 54.78 99.13 52.22
  C 100.60 51.55 101.50 50.26 102.78 49.25
  Z"
/>
<path fill="#c4482b" d="
  M 109.68 56.16
  C 117.50 59.75 125.00 75.34 128.10 82.75
  Q 131.23 91.20 125.96 93.68
  Q 120.06 96.45 105.85 104.97
  C 104.32 105.88 103.19 107.41 101.55 108.35
  C 96.48 111.24 91.65 116.79 87.27 120.69
  C 82.45 107.88 76.15 95.64 66.94 85.08
  L 70.56 83.50
  Q 71.04 83.29 71.30 82.84
  Q 72.59 80.65 74.91 79.67
  Q 75.33 79.49 75.66 79.17
  C 80.02 74.98 86.93 71.63 92.08 69.02
  C 98.22 65.91 103.25 60.81 108.32 56.33
  Q 109.05 55.69 109.68 56.16
  Z"
/>
<path fill="#efdb66" d="
  M 333.02 63.32
  A 0.35 0.35 0.0 0 1 333.58 63.15
  Q 338.39 67.10 340.75 73.12
  C 348.15 92.02 349.65 113.85 347.39 133.84
  Q 347.33 134.39 346.78 134.45
  Q 333.34 135.86 320.72 130.04
  C 298.65 119.87 304.65 95.74 316.37 80.79
  Q 316.68 80.39 317.15 80.22
  Q 329.30 75.76 333.02 63.32
  Z"
/>
<path fill="#f1c465" d="
  M 231.01 64.30
  Q 234.47 75.99 235.25 82.25
  Q 236.61 93.08 238.18 104.03
  Q 214.23 105.30 190.50 111.55
  Q 190.14 110.88 190.43 110.35
  Q 190.66 109.91 190.58 109.42
  Q 187.49 92.13 182.05 75.49
  C 183.02 74.84 183.81 74.23 185.00 73.97
  C 193.49 72.09 202.23 70.15 210.33 66.98
  C 212.49 66.13 214.80 65.98 216.91 65.24
  Q 219.53 64.32 222.26 63.80
  Q 222.75 63.70 223.23 63.87
  Q 228.46 65.69 231.01 64.30
  Z"
/>
<path fill="#fefefa" d="
  M 291.32 287.17
  L 272.96 278.39
  A 1.44 1.43 25.7 0 0 271.05 279.05
  Q 268.84 283.52 268.12 287.39
  Q 268.08 287.58 267.96 287.74
  Q 267.85 287.88 267.72 288.03
  Q 267.41 288.42 267.34 288.91
  C 266.93 291.59 265.58 294.08 265.09 296.42
  Q 264.47 299.44 264.05 302.25
  A 0.87 0.86 -60.6 0 1 262.53 302.68
  Q 259.11 298.53 255.51 295.01
  C 251.35 290.94 248.02 286.33 243.90 282.07
  C 238.59 276.59 233.43 268.72 227.35 264.41
  A 0.87 0.85 -38.3 0 0 226.51 264.32
  C 219.92 267.28 216.23 285.56 218.59 291.76
  Q 219.52 292.50 218.48 294.07
  C 209.23 277.94 205.35 260.62 207.12 242.03
  C 209.17 220.47 216.59 201.55 226.71 182.60
  Q 230.81 189.03 239.28 185.01
  Q 254.01 178.03 265.17 168.65
  Q 265.95 168.00 268.84 166.11
  C 275.76 161.58 280.74 154.97 286.51 148.83
  C 289.80 145.32 291.69 141.63 294.16 138.14
  C 296.14 135.35 297.87 132.55 297.86 129.82
  C 297.82 120.56 300.20 114.08 293.23 106.36
  Q 299.06 89.55 299.48 70.73
  Q 299.50 69.82 300.09 70.51
  C 304.87 76.13 306.73 79.66 314.51 80.54
  Q 315.06 80.60 314.74 81.05
  C 304.20 95.80 297.09 117.32 316.16 129.14
  Q 329.94 137.68 346.71 135.69
  Q 347.30 135.62 347.25 136.21
  C 346.10 150.35 343.10 164.88 337.25 177.76
  Q 337.03 178.25 336.51 178.11
  C 315.19 172.33 301.30 197.39 295.63 213.98
  Q 283.55 249.30 291.32 287.17
  Z"
/>
<path fill="#ea965d" d="
  M 64.01 82.09
  L 62.56 80.91
  Q 67.65 75.49 74.24 72.04
  A 0.22 0.22 0.0 0 1 74.49 72.39
  L 64.01 82.09
  Z"
/>
<path fill="#3f3a37" d="
  M 360.89 72.30
  C 369.19 104.16 368.34 138.25 362.44 170.79
  L 352.60 186.84
  Q 345.97 181.66 339.06 178.99
  Q 338.53 178.79 338.76 178.27
  C 348.29 156.26 350.92 129.74 349.77 106.04
  Q 351.78 105.65 351.79 103.73
  Q 351.82 96.44 351.93 93.55
  Q 351.95 93.01 352.27 92.57
  Q 353.63 90.75 355.74 89.83
  A 1.27 1.26 88.8 0 0 356.40 89.14
  Q 359.02 82.75 358.82 80.74
  Q 358.41 76.40 360.89 72.30
  Z"
/>
<path fill="#3f3a37" d="
  M 290.27 72.38
  L 297.64 77.76
  Q 296.55 92.53 291.52 106.20
  Q 290.02 105.97 289.57 104.96
  Q 289.37 104.50 288.90 104.31
  L 285.54 102.95
  Q 290.33 88.30 290.27 72.38
  Z"
/>
<path fill="#ea965d" d="
  M 181.53 74.39
  L 182.05 75.49
  Q 187.49 92.13 190.58 109.42
  Q 190.66 109.91 190.43 110.35
  Q 190.14 110.88 190.50 111.55
  Q 166.07 117.72 142.21 127.14
  Q 140.73 124.71 141.08 121.74
  Q 141.14 121.23 140.79 120.94
  Q 140.44 120.65 140.32 120.20
  L 133.83 96.30
  L 134.16 94.38
  Q 134.23 93.97 134.63 93.87
  C 136.79 93.34 138.12 91.69 139.95 90.94
  Q 148.86 87.25 157.76 83.53
  C 159.75 82.69 162.44 82.23 164.68 81.28
  Q 172.23 78.11 180.12 75.83
  Q 180.58 75.69 180.87 75.30
  L 181.53 74.39
  Z"
/>
<path fill="#3f3a37" d="
  M 58.61 79.96
  Q 53.19 84.39 48.34 89.32
  C 45.40 92.31 43.86 96.49 41.16 99.95
  C 37.58 104.54 37.10 110.77 33.16 114.88
  C 32.13 115.96 31.24 118.48 30.79 119.24
  Q 24.47 130.07 19.38 141.23
  A 0.72 0.72 0.0 0 0 20.51 142.07
  C 23.66 139.36 24.83 133.69 28.23 130.14
  C 32.09 126.09 34.75 121.53 38.56 117.54
  C 41.39 114.59 41.47 111.57 45.21 108.98
  Q 47.88 107.14 50.23 103.51
  Q 52.84 99.48 59.48 95.20
  C 61.53 93.88 62.91 89.05 65.88 86.32
  Q 68.71 89.29 69.94 91.08
  Q 88.10 117.70 94.39 149.50
  A 0.73 0.71 -20.8 0 1 94.04 150.26
  Q 81.10 157.62 69.01 166.22
  L 69.02 165.82
  A 0.66 0.66 0.0 0 0 68.03 165.23
  Q 59.40 170.39 52.25 177.14
  C 45.49 183.52 39.86 187.96 33.60 193.38
  Q 29.54 196.89 28.66 198.18
  Q 27.43 199.98 26.11 200.26
  Q 25.81 200.32 25.63 200.57
  Q 25.54 200.69 25.45 200.82
  A 1.61 1.60 -83.3 0 1 24.71 201.41
  Q 18.95 203.65 17.80 205.28
  Q 13.92 210.75 7.02 213.42
  Q 5.97 211.09 5.05 207.74
  C -7.46 162.21 16.60 115.62 47.38 83.61
  C 50.26 80.62 54.75 78.29 58.61 79.96
  Z"
/>
<path fill="#544f4c" d="
  M 58.61 79.96
  Q 62.78 82.64 65.88 86.32
  C 62.91 89.05 61.53 93.88 59.48 95.20
  Q 52.84 99.48 50.23 103.51
  Q 47.88 107.14 45.21 108.98
  C 41.47 111.57 41.39 114.59 38.56 117.54
  C 34.75 121.53 32.09 126.09 28.23 130.14
  C 24.83 133.69 23.66 139.36 20.51 142.07
  A 0.72 0.72 0.0 0 1 19.38 141.23
  Q 24.47 130.07 30.79 119.24
  C 31.24 118.48 32.13 115.96 33.16 114.88
  C 37.10 110.77 37.58 104.54 41.16 99.95
  C 43.86 96.49 45.40 92.31 48.34 89.32
  Q 53.19 84.39 58.61 79.96
  Z"
/>
<path fill="#d06745" d="
  M 128.10 82.75
  L 133.83 96.30
  L 140.32 120.20
  Q 140.44 120.65 140.79 120.94
  Q 141.14 121.23 141.08 121.74
  Q 140.73 124.71 142.21 127.14
  Q 118.49 136.46 96.05 148.98
  Q 95.58 149.25 95.48 148.71
  Q 92.93 134.71 87.27 120.69
  C 91.65 116.79 96.48 111.24 101.55 108.35
  C 103.19 107.41 104.32 105.88 105.85 104.97
  Q 120.06 96.45 125.96 93.68
  Q 131.23 91.20 128.10 82.75
  Z"
/>
<path fill="#272220" d="
  M 285.54 102.95
  L 288.90 104.31
  Q 289.37 104.50 289.57 104.96
  Q 290.02 105.97 291.52 106.20
  Q 288.22 117.17 280.53 127.27
  C 274.10 135.71 267.02 134.38 257.91 131.69
  A 0.35 0.35 0.0 0 1 258.03 131.00
  C 270.99 131.79 281.75 113.30 285.54 102.95
  Z"
/>
<path fill="#8e402e" d="
  M 196.80 133.84
  Q 217.26 117.83 241.52 111.90
  Q 242.99 111.54 244.77 110.52
  C 247.49 108.97 249.75 110.22 252.49 108.56
  Q 255.23 106.90 261.05 105.94
  Q 261.59 105.85 261.82 105.37
  Q 262.05 104.91 262.00 104.49
  Q 272.39 103.82 282.59 104.68
  A 0.54 0.54 0.0 0 1 283.05 105.42
  C 279.53 114.29 272.45 125.80 263.55 128.84
  Q 260.95 129.72 256.36 129.60
  C 236.27 129.05 217.21 131.77 196.80 133.84
  Z"
/>
<path fill="#c4482b" d="
  M 262.00 104.49
  Q 262.05 104.91 261.82 105.37
  Q 261.59 105.85 261.05 105.94
  Q 255.23 106.90 252.49 108.56
  C 249.75 110.22 247.49 108.97 244.77 110.52
  Q 242.99 111.54 241.52 111.90
  Q 217.26 117.83 196.80 133.84
  L 172.23 138.39
  Q 172.37 137.85 172.22 137.62
  A 0.99 0.98 68.2 0 0 171.27 137.21
  Q 160.01 138.94 149.08 140.87
  C 143.96 141.76 135.68 145.28 125.08 148.47
  Q 122.59 149.22 122.59 150.81
  L 97.89 159.17
  Q 98.68 157.01 101.67 156.01
  Q 102.09 155.87 102.19 155.44
  L 102.51 154.05
  A 1.00 0.98 -14.5 0 1 102.84 153.50
  Q 106.84 150.09 107.77 144.96
  C 137.19 130.00 169.89 117.28 202.34 110.72
  C 222.27 106.69 241.72 105.02 262.00 104.49
  Z"
/>
<path fill="#beb1b0" d="
  M 293.23 106.36
  C 300.20 114.08 297.82 120.56 297.86 129.82
  C 297.87 132.55 296.14 135.35 294.16 138.14
  C 291.69 141.63 289.80 145.32 286.51 148.83
  C 280.74 154.97 275.76 161.58 268.84 166.11
  Q 265.95 168.00 265.17 168.65
  Q 254.01 178.03 239.28 185.01
  Q 230.81 189.03 226.71 182.60
  Q 239.08 156.17 256.43 133.19
  Q 256.73 132.80 257.19 132.95
  C 266.72 136.07 273.92 137.37 281.19 129.16
  Q 288.60 120.77 293.23 106.36
  Z"
/>
<path fill="#010101" d="
  M 17.19 132.94
  Q 17.15 132.57 17.47 132.50
  Q 17.93 132.42 17.75 132.85
  C 13.66 142.51 9.72 153.24 8.54 161.76
  Q 7.45 169.56 6.38 177.38
  Q 6.32 177.77 6.02 177.51
  Q 5.84 177.35 5.84 177.19
  C 5.38 161.55 9.69 146.57 17.19 132.94
  Z"
/>
<path fill="#d06745" d="
  M 172.23 138.39
  Q 147.31 143.15 122.59 150.81
  Q 122.59 149.22 125.08 148.47
  C 135.68 145.28 143.96 141.76 149.08 140.87
  Q 160.01 138.94 171.27 137.21
  A 0.99 0.98 68.2 0 1 172.22 137.62
  Q 172.37 137.85 172.23 138.39
  Z"
/>
<path fill="#8e402e" d="
  M 107.77 144.96
  Q 106.84 150.09 102.84 153.50
  A 1.00 0.98 -14.5 0 0 102.51 154.05
  L 102.19 155.44
  Q 102.09 155.87 101.67 156.01
  Q 98.68 157.01 97.89 159.17
  Q 78.83 166.48 61.79 174.91
  Q 58.57 176.50 61.41 174.32
  Q 83.23 157.56 107.77 144.96
  Z"
/>
<path fill="#544f4c" d="
  M 69.01 166.22
  C 47.98 181.85 25.97 201.29 16.90 225.77
  A 0.74 0.74 0.0 0 1 16.02 226.23
  C 11.35 224.99 8.26 217.21 7.02 213.42
  Q 13.92 210.75 17.80 205.28
  Q 18.95 203.65 24.71 201.41
  A 1.61 1.60 -83.3 0 0 25.45 200.82
  Q 25.54 200.69 25.63 200.57
  Q 25.81 200.32 26.11 200.26
  Q 27.43 199.98 28.66 198.18
  Q 29.54 196.89 33.60 193.38
  C 39.86 187.96 45.49 183.52 52.25 177.14
  Q 59.40 170.39 68.03 165.23
  A 0.66 0.66 0.0 0 1 69.02 165.82
  L 69.01 166.22
  Z"
/>
<path fill="#272220" d="
  M 362.44 170.79
  L 359.54 191.91
  A 0.58 0.58 0.0 0 1 358.58 192.26
  L 352.60 186.84
  L 362.44 170.79
  Z"
/>
<path fill="#544f4c" d="
  M 408.66 285.51
  L 408.28 285.83
  Q 407.82 286.21 407.51 285.71
  C 406.11 283.46 403.41 278.91 401.43 277.15
  C 398.14 274.22 395.63 270.36 392.70 267.55
  C 388.23 263.25 385.32 257.45 379.81 254.19
  Q 376.66 252.33 364.97 248.83
  Q 357.54 246.61 350.98 240.99
  C 349.14 239.41 346.93 238.56 345.28 237.01
  Q 337.45 229.66 333.49 222.74
  Q 330.42 217.37 331.67 209.68
  C 332.28 205.90 338.26 201.80 339.14 196.63
  Q 341.04 185.35 327.55 179.20
  C 348.04 177.69 366.92 202.37 376.62 217.57
  Q 396.89 249.33 408.66 285.51
  Z"
/>
<path fill="#3f3a37" d="
  M 327.55 179.20
  Q 341.04 185.35 339.14 196.63
  C 338.26 201.80 332.28 205.90 331.67 209.68
  Q 330.42 217.37 333.49 222.74
  Q 337.45 229.66 345.28 237.01
  C 346.93 238.56 349.14 239.41 350.98 240.99
  Q 357.54 246.61 364.97 248.83
  Q 376.66 252.33 379.81 254.19
  C 385.32 257.45 388.23 263.25 392.70 267.55
  C 395.63 270.36 398.14 274.22 401.43 277.15
  C 403.41 278.91 406.11 283.46 407.51 285.71
  Q 407.82 286.21 408.28 285.83
  L 408.66 285.51
  C 414.66 303.50 417.52 317.66 420.94 337.69
  Q 421.00 338.06 421.29 337.83
  C 422.53 336.84 421.79 333.89 421.76 332.44
  Q 421.75 331.88 422.24 331.61
  Q 440.29 322.05 462.73 320.47
  C 464.31 320.36 467.53 319.62 468.12 321.52
  Q 468.42 322.50 467.56 323.67
  Q 462.84 327.58 458.74 331.89
  C 454.83 336.02 449.81 338.15 445.38 342.05
  C 443.22 343.95 440.48 344.38 438.42 345.92
  Q 429.53 352.53 419.36 356.85
  C 417.96 357.45 416.95 359.08 415.79 359.54
  Q 409.11 362.20 402.41 364.92
  C 396.39 367.38 390.36 366.23 382.46 365.13
  Q 373.52 363.89 365.28 359.92
  C 364.19 359.39 362.99 359.37 361.88 358.75
  Q 359.73 357.56 359.55 357.48
  Q 346.01 351.93 333.66 344.04
  C 333.05 343.64 332.34 343.72 331.67 343.82
  C 311.41 327.73 296.17 306.57 291.89 280.92
  C 286.95 251.34 291.03 217.47 308.49 192.26
  Q 312.35 186.68 317.17 183.18
  Q 322.85 179.04 327.55 179.20
  Z"
/>
<path fill="#010101" d="
  M 7.22 210.53
  C 6.08 203.66 5.90 196.65 6.54 189.64
  Q 6.59 189.11 6.99 189.45
  Q 7.22 189.65 7.22 190.06
  C 7.15 196.85 8.47 203.81 7.69 210.52
  A 0.24 0.24 0.0 0 1 7.22 210.53
  Z"
/>
<path fill="#beb1b0" d="
  M 291.32 287.17
  Q 291.94 288.08 290.95 288.49
  L 275.21 281.37
  A 2.54 2.54 0.0 0 0 271.78 282.82
  Q 267.84 293.69 265.54 304.98
  A 0.82 0.81 88.3 0 1 264.95 305.61
  Q 263.43 306.02 262.11 304.62
  Q 249.60 291.37 237.65 277.62
  Q 232.82 272.06 227.77 267.34
  A 1.67 1.66 36.3 0 0 225.19 267.73
  Q 219.19 278.29 219.41 290.46
  Q 219.42 290.99 219.03 291.35
  L 218.59 291.76
  C 216.23 285.56 219.92 267.28 226.51 264.32
  A 0.87 0.85 -38.3 0 1 227.35 264.41
  C 233.43 268.72 238.59 276.59 243.90 282.07
  C 248.02 286.33 251.35 290.94 255.51 295.01
  Q 259.11 298.53 262.53 302.68
  A 0.87 0.86 -60.6 0 0 264.05 302.25
  Q 264.47 299.44 265.09 296.42
  C 265.58 294.08 266.93 291.59 267.34 288.91
  Q 267.41 288.42 267.72 288.03
  Q 267.85 287.88 267.96 287.74
  Q 268.08 287.58 268.12 287.39
  Q 268.84 283.52 271.05 279.05
  A 1.44 1.43 25.7 0 1 272.96 278.39
  L 291.32 287.17
  Z"
/>
<path fill="#afaead" d="
  M 290.95 288.49
  C 276.77 302.70 252.94 320.48 232.54 311.42
  C 226.09 308.56 221.34 300.22 218.48 294.07
  Q 219.52 292.50 218.59 291.76
  L 219.03 291.35
  Q 219.42 290.99 219.41 290.46
  Q 219.19 278.29 225.19 267.73
  A 1.67 1.66 36.3 0 1 227.77 267.34
  Q 232.82 272.06 237.65 277.62
  Q 249.60 291.37 262.11 304.62
  Q 263.43 306.02 264.95 305.61
  A 0.82 0.81 88.3 0 0 265.54 304.98
  Q 267.84 293.69 271.78 282.82
  A 2.54 2.54 0.0 0 1 275.21 281.37
  L 290.95 288.49
  Z"
/>
<path fill="#3f3a37" d="
  M 303.86 317.10
  C 303.34 318.97 305.38 322.38 305.55 324.60
  C 305.77 327.38 307.14 331.27 304.67 333.62
  Q 294.02 343.74 278.17 342.32
  Q 270.33 341.62 265.15 341.72
  Q 245.44 329.98 230.66 312.44
  A 0.33 0.33 0.0 0 1 231.08 311.94
  C 236.38 315.09 241.73 315.56 247.71 315.27
  C 264.25 314.46 280.48 301.47 291.49 290.14
  Q 291.88 289.74 292.04 290.27
  Q 296.31 304.01 303.86 317.10
  Z"
/>
<path fill="#c4482b" d="
  M 433.41 322.28
  L 440.86 321.90
  A 0.38 0.37 -53.7 0 1 440.97 322.64
  Q 430.87 325.34 421.80 330.51
  A 0.34 0.33 69.7 0 1 421.31 330.28
  L 417.06 308.92
  A 0.63 0.62 -16.2 0 1 417.45 308.22
  C 425.80 304.95 435.02 300.90 443.98 299.76
  A 0.79 0.78 6.2 0 1 444.82 300.80
  C 441.80 309.13 437.96 314.25 433.15 321.83
  Q 432.84 322.31 433.41 322.28
  Z"
/>
<path fill="#272220" d="
  M 303.86 317.10
  Q 332.06 356.06 378.33 371.55
  A 0.86 0.85 7.2 0 1 378.92 372.30
  C 379.68 382.79 378.01 392.91 369.08 399.58
  C 358.70 407.34 346.91 398.90 338.84 392.30
  C 328.62 383.94 322.65 373.64 318.61 360.72
  A 0.65 0.63 0.3 0 0 318.18 360.30
  Q 318.04 360.27 317.91 360.22
  A 0.29 0.29 0.0 0 0 317.53 360.58
  L 320.62 369.83
  A 0.40 0.40 0.0 0 1 320.05 370.30
  Q 319.12 369.79 317.22 369.00
  Q 287.71 356.68 265.15 341.72
  Q 270.33 341.62 278.17 342.32
  Q 294.02 343.74 304.67 333.62
  C 307.14 331.27 305.77 327.38 305.55 324.60
  C 305.38 322.38 303.34 318.97 303.86 317.10
  Z"
/>
<path fill="#272220" d="
  M 467.56 323.67
  Q 464.51 330.26 460.57 334.34
  Q 436.66 359.10 404.80 372.30
  C 399.55 374.48 395.41 374.64 389.02 373.23
  C 368.74 368.74 347.81 356.89 331.67 343.82
  C 332.34 343.72 333.05 343.64 333.66 344.04
  Q 346.01 351.93 359.55 357.48
  Q 359.73 357.56 361.88 358.75
  C 362.99 359.37 364.19 359.39 365.28 359.92
  Q 373.52 363.89 382.46 365.13
  C 390.36 366.23 396.39 367.38 402.41 364.92
  Q 409.11 362.20 415.79 359.54
  C 416.95 359.08 417.96 357.45 419.36 356.85
  Q 429.53 352.53 438.42 345.92
  C 440.48 344.38 443.22 343.95 445.38 342.05
  C 449.81 338.15 454.83 336.02 458.74 331.89
  Q 462.84 327.58 467.56 323.67
  Z"
/>
<path fill="#010101" d="
  M 315.92 349.97
  A 0.14 0.14 0.0 0 1 315.75 350.06
  L 315.68 350.04
  A 5.39 1.41 -71.1 0 1 316.09 344.48
  L 316.20 344.18
  A 5.39 1.41 -71.1 0 1 319.28 339.53
  L 319.34 339.56
  A 0.14 0.14 0.0 0 1 319.43 339.73
  L 315.92 349.97
  Z"
/>
<path fill="#c4482b" d="
  M 445.52 367.76
  C 441.34 368.17 438.77 366.57 435.50 365.55
  Q 431.73 364.39 427.79 362.69
  Q 438.16 356.26 446.84 349.25
  Q 447.23 348.93 447.70 349.12
  Q 459.02 353.68 468.61 361.19
  A 1.05 1.04 -39.2 0 1 468.43 362.95
  Q 457.83 368.18 445.52 367.76
  Z"
/>
<path fill="#272220" d="
  M 333.43 390.55
  C 320.63 408.85 300.90 388.86 293.17 377.85
  Q 285.51 366.94 279.52 353.90
  A 0.62 0.61 2.3 0 1 280.38 353.11
  Q 299.33 363.81 319.80 372.21
  C 321.13 372.75 322.09 373.51 322.76 374.89
  Q 326.80 383.16 333.36 389.67
  Q 333.77 390.07 333.43 390.55
  Z"
/>
<path fill="#8e402e" d="
  M 427.79 362.69
  Q 431.73 364.39 435.50 365.55
  C 438.77 366.57 441.34 368.17 445.52 367.76
  L 432.76 368.07
  A 1.02 1.01 -11.9 0 0 431.84 369.47
  L 437.38 382.86
  A 0.92 0.92 0.0 0 1 436.39 384.11
  Q 429.14 382.95 422.60 379.68
  Q 422.38 379.57 422.38 379.82
  L 422.38 392.23
  Q 420.81 391.24 419.81 395.69
  A 1.47 1.44 78.5 0 1 419.26 396.54
  Q 417.95 397.52 418.00 399.22
  Q 418.01 399.63 417.65 399.81
  Q 416.94 400.17 416.81 400.85
  Q 416.71 401.32 416.40 401.69
  Q 412.68 406.07 406.73 409.11
  Q 398.49 404.64 391.04 397.02
  A 0.80 0.79 -54.6 0 0 389.75 397.24
  Q 387.13 402.93 383.05 407.70
  A 0.34 0.34 0.0 0 1 382.45 407.53
  Q 381.14 399.06 378.30 390.97
  A 1.15 1.14 46.5 0 1 378.32 390.12
  Q 380.20 385.52 380.55 380.57
  Q 380.59 379.94 381.22 379.84
  Q 387.89 378.78 393.92 375.68
  A 1.58 1.53 -55.8 0 1 394.74 375.51
  Q 401.82 376.08 408.82 372.58
  Q 422.17 365.92 427.79 362.69
  Z"
/>
<path fill="#272220" d="
  M 380.51 373.71
  Q 380.46 373.49 380.47 373.29
  A 0.70 0.70 0.0 0 1 381.36 372.64
  L 390.48 375.21
  A 0.21 0.21 0.0 0 1 390.51 375.61
  Q 386.09 377.66 381.24 378.30
  A 0.55 0.54 -4.2 0 1 380.62 377.77
  L 380.57 374.20
  Q 380.56 373.95 380.51 373.71
  Z"
/>
<path fill="#272220" d="
  M 458.20 449.75
  L 457.67 449.75
  Q 457.11 449.75 457.07 450.32
  Q 456.80 454.74 457.83 459.02
  C 458.99 463.82 457.78 470.56 465.05 470.03
  Q 472.43 469.48 477.52 466.76
  Q 480.26 465.30 482.09 465.85
  C 463.36 483.21 430.62 481.77 407.56 476.17
  C 399.62 474.24 390.31 470.82 389.68 460.93
  Q 387.82 431.73 394.19 403.12
  A 0.59 0.59 0.0 0 1 395.15 402.80
  Q 405.10 411.19 417.46 415.78
  C 420.51 416.91 421.45 415.05 421.92 412.42
  Q 424.56 397.60 423.78 382.52
  Q 423.75 382.00 424.27 382.09
  C 428.09 382.77 434.04 391.86 434.99 393.53
  Q 450.09 420.21 458.20 449.75
  Z"
/>
<path fill="#c4482b" d="
  M 422.38 392.23
  C 422.02 399.78 421.83 407.29 419.96 414.17
  A 0.84 0.84 0.0 0 1 418.80 414.71
  L 406.73 409.11
  Q 412.68 406.07 416.40 401.69
  Q 416.71 401.32 416.81 400.85
  Q 416.94 400.17 417.65 399.81
  Q 418.01 399.63 418.00 399.22
  Q 417.95 397.52 419.26 396.54
  A 1.47 1.44 78.5 0 0 419.81 395.69
  Q 420.81 391.24 422.38 392.23
  Z"
/>
<path fill="#4b7a81" d="
  M 372.72 423.07
  L 364.87 417.87
  L 369.16 409.53
  A 0.83 0.81 -47.1 0 0 369.14 408.75
  L 366.22 403.89
  A 0.72 0.72 0.0 0 1 366.53 402.87
  Q 373.46 399.61 376.98 392.82
  A 0.27 0.26 -40.0 0 1 377.47 392.86
  Q 380.05 400.85 381.21 409.26
  C 381.94 414.49 377.08 418.50 372.72 423.07
  Z"
/>
<path fill="#4b7a81" d="
  M 267.84 467.42
  C 268.60 461.97 264.34 458.90 260.01 456.25
  C 260.84 456.07 268.45 454.85 268.52 454.79
  Q 269.89 453.53 268.05 453.73
  L 259.03 454.68
  Q 259.12 453.42 257.46 453.04
  Q 256.97 452.93 256.66 452.54
  L 255.05 450.58
  Q 262.63 450.60 270.32 450.93
  C 278.83 451.29 285.60 451.11 291.75 445.00
  Q 305.07 431.74 318.61 418.70
  C 321.88 415.55 324.55 412.20 327.10 408.72
  A 2.85 2.84 48.0 0 0 327.26 405.57
  L 323.93 399.97
  Q 323.62 399.44 324.21 399.26
  Q 329.53 397.59 333.19 393.40
  A 0.61 0.61 0.0 0 1 334.21 393.56
  Q 337.48 401.24 339.69 409.27
  Q 340.44 411.99 338.28 413.75
  Q 316.46 431.54 297.31 452.17
  Q 295.96 453.62 293.97 454.33
  Q 282.79 458.34 273.85 466.23
  Q 273.47 466.57 272.97 466.64
  L 267.84 467.42
  Z"
/>
<path fill="#71b2cc" d="
  M 364.87 417.87
  L 372.72 423.07
  Q 360.16 437.45 350.27 453.03
  Q 347.83 456.86 346.70 461.37
  Q 346.57 461.89 346.94 462.26
  Q 348.79 464.12 351.26 464.72
  C 366.46 468.44 379.32 471.29 391.40 482.27
  Q 392.20 483.00 391.17 482.69
  C 374.35 477.66 356.97 474.27 339.30 473.39
  C 329.57 472.91 319.36 477.58 311.41 482.87
  A 0.49 0.48 70.4 0 1 310.66 482.51
  Q 310.10 476.80 305.46 473.49
  Q 304.91 473.09 305.45 472.68
  Q 309.30 469.73 313.43 467.34
  C 318.32 464.51 323.40 464.13 329.31 463.09
  Q 332.24 462.57 334.22 459.96
  Q 349.99 439.14 364.87 417.87
  Z"
/>
<path fill="#544f4c" d="
  M 463.18 453.24
  Q 462.34 454.37 460.59 454.23
  L 458.31 444.26
  Q 458.19 443.70 458.71 443.49
  Q 463.18 441.62 468.04 441.25
  A 0.77 0.77 0.0 0 1 468.83 442.25
  Q 466.80 448.65 463.18 453.24
  Z"
/>
<path fill="#544f4c" d="
  M 495.85 450.20
  Q 492.84 450.99 490.17 453.61
  C 487.58 456.16 485.82 456.72 482.42 456.56
  C 480.84 456.48 479.59 455.35 477.80 455.23
  Q 477.30 455.20 476.89 454.91
  Q 474.97 453.56 472.89 454.40
  Q 472.39 454.60 471.87 454.55
  Q 468.83 454.21 466.01 455.26
  A 1.50 1.38 71.1 0 1 464.19 454.27
  Q 464.11 454.01 464.55 453.39
  C 475.86 449.98 484.64 446.51 496.83 446.42
  A 0.95 0.95 0.0 0 1 497.59 447.95
  L 495.85 450.20
  Z"
/>
<path fill="#3f3a37" d="
  M 458.20 449.75
  Q 460.78 459.48 461.74 463.50
  Q 461.80 463.74 461.99 463.85
  Q 462.31 464.02 462.25 463.67
  L 460.59 454.23
  Q 462.34 454.37 463.18 453.24
  Q 462.99 454.00 464.55 453.39
  Q 464.11 454.01 464.19 454.27
  A 1.50 1.38 71.1 0 0 466.01 455.26
  Q 468.83 454.21 471.87 454.55
  Q 472.39 454.60 472.89 454.40
  Q 474.97 453.56 476.89 454.91
  Q 477.30 455.20 477.80 455.23
  C 479.59 455.35 480.84 456.48 482.42 456.56
  C 485.82 456.72 487.58 456.16 490.17 453.61
  Q 492.84 450.99 495.85 450.20
  Q 489.85 459.45 482.09 465.85
  Q 480.26 465.30 477.52 466.76
  Q 472.43 469.48 465.05 470.03
  C 457.78 470.56 458.99 463.82 457.83 459.02
  Q 456.80 454.74 457.07 450.32
  Q 457.11 449.75 457.67 449.75
  L 458.20 449.75
  Z"
/>
<path fill="#71b2cc" d="
  M 255.05 450.58
  L 256.66 452.54
  Q 256.97 452.93 257.46 453.04
  Q 259.12 453.42 259.03 454.68
  C 254.36 455.30 249.84 455.40 245.56 457.33
  Q 240.32 459.69 235.14 462.79
  A 0.43 0.42 70.6 0 1 234.50 462.48
  Q 233.87 457.98 232.19 453.67
  Q 231.50 451.89 233.40 451.72
  Q 239.93 451.14 245.26 450.75
  Q 247.69 450.58 248.50 452.24
  Q 248.85 452.96 249.11 453.11
  Q 249.48 453.33 249.89 453.22
  Q 250.42 453.08 250.10 452.64
  L 249.13 451.33
  A 0.46 0.46 0.0 0 1 249.50 450.60
  L 255.05 450.58
  Z"
/>
<path fill="#3f3a37" d="
  M 209.73 463.17
  A 0.55 0.55 0.0 0 1 209.33 462.30
  C 211.44 459.39 225.36 454.46 229.62 452.98
  A 0.89 0.89 0.0 0 1 230.76 453.55
  L 233.47 462.05
  Q 233.72 462.82 232.91 462.90
  Q 221.34 464.05 209.73 463.17
  Z"
/>
<path fill="#71b2cc" d="
  M 280.58 462.90
  A 0.23 0.23 0.0 0 1 280.57 462.50
  C 285.28 459.79 295.25 454.08 300.66 454.69
  C 307.86 455.50 315.24 457.35 321.98 458.03
  Q 327.01 458.53 332.06 458.90
  Q 332.68 458.94 332.41 459.51
  Q 331.68 461.01 330.24 461.25
  C 324.27 462.25 318.44 462.69 313.70 465.39
  C 311.48 466.66 309.95 467.96 307.21 468.11
  Q 297.22 468.66 288.07 472.74
  A 0.51 0.51 0.0 0 1 287.35 472.35
  Q 286.39 465.84 280.58 462.90
  Z"
/>
<path fill="#71b2cc" d="
  M 260.01 456.25
  C 264.34 458.90 268.60 461.97 267.84 467.42
  Q 255.95 469.10 244.50 472.13
  Q 243.92 472.28 243.75 471.71
  Q 242.38 466.97 239.23 463.14
  Q 238.84 462.66 239.36 462.32
  Q 248.61 456.26 260.01 456.25
  Z"
/>
<path fill="#010101" d="
  M 266.29 456.93
  Q 267.88 457.88 268.77 459.49
  A 0.43 0.43 0.0 0 1 268.05 459.96
  L 265.98 457.28
  A 0.24 0.24 0.0 0 1 266.29 456.93
  Z"
/>
<path fill="#272220" d="
  M 307.44 457.06
  Q 309.57 458.31 309.70 460.80
  A 0.33 0.33 0.0 0 1 309.08 460.98
  L 307.00 457.50
  A 0.32 0.32 0.0 0 1 307.44 457.06
  Z"
/>
<path fill="#010101" d="
  M 256.50 458.07
  A 0.16 0.16 0.0 0 1 256.51 457.84
  L 256.54 457.80
  A 3.14 1.17 45.2 0 1 259.58 459.21
  L 259.80 459.42
  A 3.14 1.17 45.2 0 1 261.18 462.47
  L 261.14 462.51
  A 0.16 0.16 0.0 0 1 260.92 462.51
  L 256.50 458.07
  Z"
/>
<path fill="#010101" d="
  M 295.54 458.29
  A 0.13 0.13 0.0 0 1 295.55 458.10
  L 295.55 458.10
  A 3.28 1.10 46.5 0 1 298.61 459.72
  L 298.83 459.95
  A 3.28 1.10 46.5 0 1 300.29 463.09
  L 300.28 463.09
  A 0.13 0.13 0.0 0 1 300.10 463.09
  L 295.54 458.29
  Z"
/>
<path fill="#71b2cc" d="
  M 348.88 462.52
  A 1.00 1.00 0.0 0 1 349.21 460.58
  Q 358.25 460.29 367.11 461.64
  A 0.53 0.52 30.8 0 1 367.35 462.58
  C 365.42 464.03 363.36 465.52 360.82 465.32
  Q 354.88 464.86 348.88 462.52
  Z"
/>
<path fill="#3f3a37" d="
  M 219.79 478.42
  A 0.88 0.88 0.0 0 1 219.02 476.97
  C 224.23 471.10 230.76 467.51 237.27 463.29
  Q 237.75 462.98 238.10 463.44
  Q 240.34 466.47 242.17 470.51
  Q 243.12 472.59 241.37 473.06
  C 233.97 475.07 227.34 477.40 219.79 478.42
  Z"
/>
<path fill="#3f3a37" d="
  M 270.79 472.14
  C 272.71 470.06 275.36 466.46 278.38 464.21
  Q 278.79 463.91 279.29 463.93
  C 282.95 464.05 285.86 469.70 286.67 472.92
  Q 286.79 473.43 286.34 473.69
  C 278.72 478.03 270.63 481.39 262.86 485.34
  A 0.47 0.47 0.0 0 1 262.22 484.71
  Q 265.60 477.78 270.79 472.14
  Z"
/>
<path fill="#010101" d="
  M 328.25 469.24
  A 0.16 0.16 0.0 0 1 328.03 469.21
  L 326.15 466.65
  A 1.36 0.38 53.7 0 1 325.65 465.32
  L 325.97 465.09
  A 1.36 0.38 53.7 0 1 327.08 465.96
  L 328.96 468.52
  A 0.16 0.16 0.0 0 1 328.93 468.75
  L 328.25 469.24
  Z"
/>
<path fill="#010101" d="
  M 320.37 473.33
  Q 317.98 470.81 314.92 469.18
  A 0.42 0.42 0.0 0 1 315.26 468.41
  Q 318.89 469.67 320.88 472.94
  A 0.32 0.32 0.0 0 1 320.37 473.33
  Z"
/>
<path fill="#3f3a37" d="
  M 304.78 474.20
  Q 309.66 477.64 309.66 483.81
  A 0.80 0.80 0.0 0 1 309.25 484.51
  L 291.37 494.82
  Q 289.95 495.63 290.42 494.07
  Q 293.97 482.25 303.25 474.27
  A 1.25 1.25 0.0 0 1 304.78 474.20
  Z"
/>
</svg>
