<?xml version="1.0" encoding="UTF-8" standalone="no"?>
<svg xmlns="http://www.w3.org/2000/svg" version="1.2" baseProfile="tiny" viewBox="0.00 0.00 500.00 500.00">
<path fill="#000000" d="
  M 316.51 121.81
  C 374.96 119.39 432.96 152.65 469.62 196.62
  C 484.11 214.00 494.28 231.10 498.29 253.76
  C 502.66 278.55 496.11 302.66 480.69 322.21
  C 468.87 337.19 449.43 346.00 430.49 339.95
  A 0.84 0.83 -60.2 0 0 429.62 340.19
  C 420.46 350.54 403.92 358.23 390.04 357.42
  Q 383.84 357.06 377.77 355.49
  Q 376.76 355.23 375.74 355.23
  A 1.39 1.35 23.2 0 0 374.87 355.56
  Q 354.55 373.17 327.82 377.09
  C 321.04 378.09 308.74 379.04 300.80 376.63
  C 289.83 373.30 292.95 362.27 297.08 354.87
  A 0.30 0.29 14.7 0 0 296.82 354.43
  C 279.19 354.58 262.85 354.50 245.62 350.24
  A 1.10 1.09 32.2 0 0 244.67 350.45
  C 231.93 360.61 210.37 367.23 210.33 341.31
  A 0.56 0.56 0.0 0 0 209.76 340.75
  C 163.39 341.30 119.01 332.69 74.23 317.56
  C 69.74 316.05 55.57 310.50 58.78 304.01
  C 60.53 300.47 70.33 297.52 74.00 296.48
  Q 112.26 285.53 151.28 277.64
  Q 154.42 277.00 157.26 276.19
  A 0.43 0.43 0.0 0 0 157.13 275.34
  C 149.59 275.57 140.81 274.74 134.62 274.65
  C 94.57 274.02 54.11 272.99 14.18 276.37
  C 11.10 276.63 3.36 277.28 1.14 274.69
  C -1.55 271.56 1.96 265.11 4.34 262.41
  C 21.76 242.63 43.62 230.23 67.13 218.97
  C 98.23 204.08 131.80 197.83 165.91 195.08
  A 1.58 1.58 0.0 0 0 167.27 194.05
  C 172.83 179.25 183.17 168.93 195.71 158.71
  C 220.01 138.90 246.73 129.70 277.73 126.10
  C 289.26 124.77 302.07 122.67 314.49 122.30
  C 315.10 122.29 315.94 121.83 316.51 121.81
  Z"
/>
<g stroke-width="2.00" fill="none" stroke-linecap="butt">
<path stroke="#c6cdd5" vector-effect="non-scaling-stroke" d="
  M 495.82 252.13
  Q 493.28 256.36 493.34 259.82
  Q 493.43 265.05 492.86 270.30
  Q 492.80 270.83 492.29 270.98
  Q 491.84 271.11 491.26 270.99"
/>
<path stroke="#707477" vector-effect="non-scaling-stroke" d="
  M 491.26 270.99
  C 491.46 265.78 490.25 257.27 485.78 253.48
  Q 485.38 253.14 484.86 253.10
  C 473.05 252.33 469.30 271.98 469.41 280.47"
/>
<path stroke="#c6cdd5" vector-effect="non-scaling-stroke" d="
  M 469.41 280.47
  C 466.69 281.84 463.07 284.32 460.15 282.99"
/>
<path stroke="#c6cdd5" vector-effect="non-scaling-stroke" d="
  M 454.63 223.39
  L 451.21 218.13
  A 0.14 0.14 0.0 0 0 450.97 218.27
  L 453.92 224.27"
/>
<path stroke="#c6cdd5" vector-effect="non-scaling-stroke" d="
  M 457.54 285.21
  Q 449.86 286.98 441.75 290.48"
/>
<path stroke="#707477" vector-effect="non-scaling-stroke" d="
  M 441.75 290.48
  Q 443.76 283.45 444.56 279.08
  C 445.65 273.07 445.16 255.74 435.65 255.86
  C 433.17 255.89 427.47 258.45 425.97 260.02
  Q 412.16 274.48 412.56 293.49"
/>
<path stroke="#c6cdd5" vector-effect="non-scaling-stroke" d="
  M 412.56 293.49
  Q 394.22 296.25 376.33 295.35"
/>
<path stroke="#9ba2ab" vector-effect="non-scaling-stroke" d="
  M 391.58 336.52
  C 393.87 333.45 396.40 328.14 395.33 324.39
  Q 395.07 323.49 394.71 324.35
  L 390.33 334.51"
/>
<path stroke="#565a5e" vector-effect="non-scaling-stroke" d="
  M 469.41 280.47
  C 468.89 285.11 468.66 304.46 477.57 302.25
  C 486.77 299.97 490.99 278.45 491.26 270.99"
/>
<path stroke="#565a5e" vector-effect="non-scaling-stroke" d="
  M 441.75 290.48
  Q 439.05 297.76 433.54 304.50
  Q 429.01 310.06 422.22 310.56
  C 412.96 311.24 412.59 299.53 412.56 293.49"
/>
<path stroke="#dd7b55" vector-effect="non-scaling-stroke" d="
  M 380.92 206.32
  Q 380.38 203.53 377.64 202.11
  A 0.89 0.89 0.0 0 1 377.17 201.26
  C 377.57 195.88 372.75 197.21 371.83 193.02
  Q 371.73 192.54 371.33 192.25
  C 367.22 189.20 365.24 185.11 360.34 182.53
  C 357.30 180.94 354.35 179.87 352.35 176.94
  C 348.76 171.70 347.24 167.18 342.25 161.77
  Q 341.92 161.40 341.82 160.91
  C 341.29 158.12 340.75 156.03 338.30 154.19
  C 332.99 150.22 328.14 145.40 321.56 143.47
  Q 317.47 142.27 313.38 141.02
  C 310.34 140.09 307.45 140.09 304.35 139.96
  Q 303.83 139.94 303.41 140.22
  Q 298.52 143.44 292.82 143.86
  C 287.16 144.27 283.71 144.66 281.54 149.77
  Q 281.38 150.15 281.10 150.45
  L 278.16 153.61
  A 0.91 0.86 -24.9 0 0 277.92 154.21
  C 277.97 158.24 277.33 163.72 273.74 166.26
  Q 269.55 169.23 264.75 171.05
  C 261.11 172.42 257.10 174.69 253.06 175.56
  C 244.87 177.31 238.29 178.91 229.35 178.78
  C 225.13 178.72 222.56 182.25 224.40 186.18
  C 226.12 189.86 229.50 193.98 232.80 196.36
  Q 235.09 198.02 237.06 200.12
  Q 237.43 200.51 237.96 200.64
  Q 245.52 202.51 252.03 206.68
  Q 252.40 206.91 252.83 206.89
  L 258.48 206.69
  Q 258.96 206.67 259.36 206.41
  C 261.95 204.72 271.90 199.06 274.70 201.04
  Q 281.34 205.73 288.00 210.42
  Q 288.41 210.71 288.27 211.18
  L 287.95 212.26
  Q 287.82 212.71 288.23 212.94
  Q 289.16 213.46 288.47 214.58"
/>
<path stroke="#e1ba6a" vector-effect="non-scaling-stroke" d="
  M 393.45 239.49
  Q 392.38 240.11 391.71 239.01
  Q 391.41 238.52 390.99 238.93
  Q 387.05 242.77 383.68 244.17
  C 374.21 248.11 366.15 252.65 355.93 257.33
  C 351.58 259.32 344.77 261.53 339.93 262.29
  Q 338.93 262.45 339.29 264.19"
/>
<path stroke="#e1ba6a" vector-effect="non-scaling-stroke" d="
  M 178.46 262.27
  Q 161.53 259.39 153.43 259.36
  Q 144.42 259.33 142.00 258.70
  Q 133.81 256.60 130.31 257.09
  C 126.44 257.63 122.70 256.39 118.55 257.21
  Q 118.08 257.30 117.84 256.89
  Q 117.67 256.61 117.63 256.12"
/>
<path stroke="#e59c7f" vector-effect="non-scaling-stroke" d="
  M 98.17 213.06
  L 86.98 218.04
  Q 86.65 218.18 86.60 218.54
  Q 86.58 218.71 86.63 218.86
  Q 86.79 219.37 87.32 219.25
  L 101.23 216.22"
/>
<path stroke="#dd7b55" vector-effect="non-scaling-stroke" d="
  M 105.09 221.28
  Q 97.75 221.88 88.50 225.49
  C 82.75 227.74 75.02 228.37 69.42 229.77
  C 62.28 231.56 57.35 234.76 50.91 235.66
  C 45.17 236.47 39.01 240.12 33.60 242.36
  Q 33.13 242.55 32.69 242.29
  L 31.25 241.46"
/>
<path stroke="#bb6342" vector-effect="non-scaling-stroke" d="
  M 115.74 256.43
  Q 100.29 256.74 84.91 257.03
  C 76.60 257.19 68.39 258.39 60.23 259.48
  C 46.19 261.35 32.33 264.63 18.51 267.76
  Q 10.46 269.58 3.89 273.85"
/>
<path stroke="#714c2c" vector-effect="non-scaling-stroke" d="
  M 187.91 268.91
  Q 183.46 266.71 180.18 262.76"
/>
<path stroke="#714c2c" vector-effect="non-scaling-stroke" d="
  M 227.80 254.00
  L 227.48 254.71
  Q 227.26 255.18 227.70 255.46
  Q 230.94 257.52 234.57 258.82
  Q 235.38 259.11 235.61 259.56
  Q 235.92 260.15 235.74 260.96"
/>
<path stroke="#714c2c" vector-effect="non-scaling-stroke" d="
  M 288.57 268.50
  L 271.02 272.58"
/>
<path stroke="#714c2c" vector-effect="non-scaling-stroke" d="
  M 294.65 309.44
  Q 293.41 310.06 292.09 309.24
  Q 291.68 308.98 291.19 309.01
  L 288.19 309.17"
/>
<path stroke="#714c2c" vector-effect="non-scaling-stroke" d="
  M 373.00 297.04
  C 370.85 297.84 369.63 299.31 367.52 299.92
  C 364.47 300.80 360.34 301.62 357.69 303.30
  Q 356.42 304.11 355.55 302.72"
/>
<path stroke="#714c2c" vector-effect="non-scaling-stroke" d="
  M 383.08 260.86
  Q 375.12 261.26 367.50 263.25
  Q 365.86 263.68 363.31 262.81"
/>
<path stroke="#e1ba6a" vector-effect="non-scaling-stroke" d="
  M 286.60 306.08
  C 277.75 308.69 269.47 308.73 258.13 310.37
  C 242.82 312.59 227.37 313.24 212.00 314.44
  Q 204.68 315.02 186.64 314.12"
/>
<path stroke="#f0f3f7" vector-effect="non-scaling-stroke" d="
  M 352.39 304.47
  L 344.01 305.33"
/>
<path stroke="#f0f3f7" vector-effect="non-scaling-stroke" d="
  M 304.92 310.15
  L 296.95 309.62"
/>
<path stroke="#bb6342" vector-effect="non-scaling-stroke" d="
  M 184.71 314.75
  Q 173.69 313.95 162.67 314.60
  C 158.08 314.87 153.66 313.99 149.00 313.88
  Q 133.37 313.52 117.81 311.94
  C 113.02 311.46 107.21 311.83 101.52 311.16
  C 88.53 309.63 77.83 309.09 61.82 306.62
  Q 61.34 306.55 61.26 306.07
  L 61.06 304.92"
/>
</g>
<path fill="#e0e7ee" d="
  M 495.82 252.13
  Q 493.28 256.36 493.34 259.82
  Q 493.43 265.05 492.86 270.30
  Q 492.80 270.83 492.29 270.98
  Q 491.84 271.11 491.26 270.99
  C 491.46 265.78 490.25 257.27 485.78 253.48
  Q 485.38 253.14 484.86 253.10
  C 473.05 252.33 469.30 271.98 469.41 280.47
  C 466.69 281.84 463.07 284.32 460.15 282.99
  Q 465.44 257.25 458.29 231.99
  Q 456.99 227.40 454.63 223.39
  L 451.21 218.13
  A 0.14 0.14 0.0 0 0 450.97 218.27
  L 453.92 224.27
  C 460.87 242.92 462.62 265.71 457.54 285.21
  Q 449.86 286.98 441.75 290.48
  Q 443.76 283.45 444.56 279.08
  C 445.65 273.07 445.16 255.74 435.65 255.86
  C 433.17 255.89 427.47 258.45 425.97 260.02
  Q 412.16 274.48 412.56 293.49
  Q 394.22 296.25 376.33 295.35
  C 381.52 283.59 383.79 271.28 385.73 257.72
  Q 385.80 257.21 386.27 256.97
  C 389.95 255.13 394.06 254.82 394.75 249.61
  Q 395.67 242.81 395.24 237.75
  C 392.62 206.31 380.08 174.18 354.81 154.43
  C 335.97 139.72 317.21 129.80 293.28 126.43
  Q 292.39 126.31 293.24 126.02
  Q 294.33 125.66 296.23 125.43
  Q 353.00 118.75 401.83 144.57
  C 432.79 160.94 459.09 183.69 479.33 212.44
  Q 491.85 230.23 495.82 252.13
  Z"
/>
<path fill="#de8460" d="
  M 380.92 206.32
  Q 380.38 203.53 377.64 202.11
  A 0.89 0.89 0.0 0 1 377.17 201.26
  C 377.57 195.88 372.75 197.21 371.83 193.02
  Q 371.73 192.54 371.33 192.25
  C 367.22 189.20 365.24 185.11 360.34 182.53
  C 357.30 180.94 354.35 179.87 352.35 176.94
  C 348.76 171.70 347.24 167.18 342.25 161.77
  Q 341.92 161.40 341.82 160.91
  C 341.29 158.12 340.75 156.03 338.30 154.19
  C 332.99 150.22 328.14 145.40 321.56 143.47
  Q 317.47 142.27 313.38 141.02
  C 310.34 140.09 307.45 140.09 304.35 139.96
  Q 303.83 139.94 303.41 140.22
  Q 298.52 143.44 292.82 143.86
  C 287.16 144.27 283.71 144.66 281.54 149.77
  Q 281.38 150.15 281.10 150.45
  L 278.16 153.61
  A 0.91 0.86 -24.9 0 0 277.92 154.21
  C 277.97 158.24 277.33 163.72 273.74 166.26
  Q 269.55 169.23 264.75 171.05
  C 261.11 172.42 257.10 174.69 253.06 175.56
  C 244.87 177.31 238.29 178.91 229.35 178.78
  C 225.13 178.72 222.56 182.25 224.40 186.18
  C 226.12 189.86 229.50 193.98 232.80 196.36
  Q 235.09 198.02 237.06 200.12
  Q 237.43 200.51 237.96 200.64
  Q 245.52 202.51 252.03 206.68
  Q 252.40 206.91 252.83 206.89
  L 258.48 206.69
  Q 258.96 206.67 259.36 206.41
  C 261.95 204.72 271.90 199.06 274.70 201.04
  Q 281.34 205.73 288.00 210.42
  Q 288.41 210.71 288.27 211.18
  L 287.95 212.26
  Q 287.82 212.71 288.23 212.94
  Q 289.16 213.46 288.47 214.58
  Q 276.37 213.75 264.50 211.26
  C 247.56 207.70 231.48 202.85 217.08 193.93
  C 211.91 190.72 208.33 185.92 207.40 179.61
  C 205.55 167.05 208.56 151.81 220.71 145.07
  C 237.85 135.56 260.68 129.22 280.06 127.84
  C 301.93 126.29 325.18 135.52 342.81 147.96
  C 355.77 157.11 367.65 167.23 375.61 181.23
  Q 381.57 191.70 385.75 203.10
  A 0.91 0.90 -23.2 0 1 385.30 204.21
  L 380.92 206.32
  Z"
/>
<path fill="#db7149" d="
  M 380.92 206.32
  C 350.94 218.67 319.78 217.28 288.47 214.58
  Q 289.16 213.46 288.23 212.94
  Q 287.82 212.71 287.95 212.26
  L 288.27 211.18
  Q 288.41 210.71 288.00 210.42
  Q 281.34 205.73 274.70 201.04
  C 271.90 199.06 261.95 204.72 259.36 206.41
  Q 258.96 206.67 258.48 206.69
  L 252.83 206.89
  Q 252.40 206.91 252.03 206.68
  Q 245.52 202.51 237.96 200.64
  Q 237.43 200.51 237.06 200.12
  Q 235.09 198.02 232.80 196.36
  C 229.50 193.98 226.12 189.86 224.40 186.18
  C 222.56 182.25 225.13 178.72 229.35 178.78
  C 238.29 178.91 244.87 177.31 253.06 175.56
  C 257.10 174.69 261.11 172.42 264.75 171.05
  Q 269.55 169.23 273.74 166.26
  C 277.33 163.72 277.97 158.24 277.92 154.21
  A 0.91 0.86 -24.9 0 1 278.16 153.61
  L 281.10 150.45
  Q 281.38 150.15 281.54 149.77
  C 283.71 144.66 287.16 144.27 292.82 143.86
  Q 298.52 143.44 303.41 140.22
  Q 303.83 139.94 304.35 139.96
  C 307.45 140.09 310.34 140.09 313.38 141.02
  Q 317.47 142.27 321.56 143.47
  C 328.14 145.40 332.99 150.22 338.30 154.19
  C 340.75 156.03 341.29 158.12 341.82 160.91
  Q 341.92 161.40 342.25 161.77
  C 347.24 167.18 348.76 171.70 352.35 176.94
  C 354.35 179.87 357.30 180.94 360.34 182.53
  C 365.24 185.11 367.22 189.20 371.33 192.25
  Q 371.73 192.54 371.83 193.02
  C 372.75 197.21 377.57 195.88 377.17 201.26
  A 0.89 0.89 0.0 0 0 377.64 202.11
  Q 380.38 203.53 380.92 206.32
  Z"
/>
<path fill="#ecb49d" d="
  M 250.12 145.37
  C 258.96 153.55 231.76 163.39 229.16 154.78
  Q 229.01 154.27 229.27 153.81
  Q 234.62 144.30 245.75 143.79
  Q 248.28 143.67 250.12 145.37
  Z"
/>
<path fill="#f6d37b" d="
  M 393.45 239.49
  Q 392.38 240.11 391.71 239.01
  Q 391.41 238.52 390.99 238.93
  Q 387.05 242.77 383.68 244.17
  C 374.21 248.11 366.15 252.65 355.93 257.33
  C 351.58 259.32 344.77 261.53 339.93 262.29
  Q 338.93 262.45 339.29 264.19
  C 317.01 267.18 293.00 268.14 270.94 263.65
  Q 244.52 258.28 219.35 248.64
  C 197.79 240.38 179.26 229.01 170.14 206.94
  Q 166.49 198.11 170.97 189.70
  C 179.61 173.48 195.93 159.89 211.20 150.21
  A 0.12 0.12 0.0 0 1 211.37 150.38
  C 203.34 162.72 200.72 182.74 213.77 193.10
  C 224.80 201.85 235.72 205.63 250.52 209.69
  C 270.28 215.11 287.89 216.65 310.25 218.52
  Q 324.24 219.68 345.07 217.39
  Q 366.33 215.05 386.03 206.23
  Q 386.68 205.94 386.90 206.62
  Q 392.18 222.47 393.45 239.49
  Z"
/>
<path fill="#f6d37b" d="
  M 178.46 262.27
  Q 161.53 259.39 153.43 259.36
  Q 144.42 259.33 142.00 258.70
  Q 133.81 256.60 130.31 257.09
  C 126.44 257.63 122.70 256.39 118.55 257.21
  Q 118.08 257.30 117.84 256.89
  Q 117.67 256.61 117.63 256.12
  Q 118.50 231.32 100.85 213.36
  Q 98.59 211.07 95.53 210.29
  A 0.24 0.24 0.0 0 1 95.53 209.82
  Q 129.88 200.20 165.50 197.60
  Q 166.45 197.53 166.49 198.48
  C 166.75 206.00 170.31 213.27 175.15 220.23
  Q 176.62 222.33 177.04 224.63
  Q 180.46 243.33 178.46 262.27
  Z"
/>
<path fill="#de8460" d="
  M 98.17 213.06
  L 86.98 218.04
  Q 86.65 218.18 86.60 218.54
  Q 86.58 218.71 86.63 218.86
  Q 86.79 219.37 87.32 219.25
  L 101.23 216.22
  L 105.09 221.28
  Q 97.75 221.88 88.50 225.49
  C 82.75 227.74 75.02 228.37 69.42 229.77
  C 62.28 231.56 57.35 234.76 50.91 235.66
  C 45.17 236.47 39.01 240.12 33.60 242.36
  Q 33.13 242.55 32.69 242.29
  L 31.25 241.46
  C 46.53 230.71 66.09 221.35 84.08 213.86
  C 89.35 211.66 93.36 210.27 98.17 213.06
  Z"
/>
<path fill="#ecb49d" d="
  M 98.17 213.06
  L 101.23 216.22
  L 87.32 219.25
  Q 86.79 219.37 86.63 218.86
  Q 86.58 218.71 86.60 218.54
  Q 86.65 218.18 86.98 218.04
  L 98.17 213.06
  Z"
/>
<path fill="#abb3bc" d="
  M 454.63 223.39
  Q 453.86 223.47 453.92 224.27
  L 450.97 218.27
  A 0.14 0.14 0.0 0 1 451.21 218.13
  L 454.63 223.39
  Z"
/>
<path fill="#db7149" d="
  M 105.09 221.28
  Q 116.73 236.90 115.74 256.43
  Q 100.29 256.74 84.91 257.03
  C 76.60 257.19 68.39 258.39 60.23 259.48
  C 46.19 261.35 32.33 264.63 18.51 267.76
  Q 10.46 269.58 3.89 273.85
  Q 1.68 271.38 3.47 267.89
  C 8.63 257.81 21.95 247.65 31.25 241.46
  L 32.69 242.29
  Q 33.13 242.55 33.60 242.36
  C 39.01 240.12 45.17 236.47 50.91 235.66
  C 57.35 234.76 62.28 231.56 69.42 229.77
  C 75.02 228.37 82.75 227.74 88.50 225.49
  Q 97.75 221.88 105.09 221.28
  Z"
/>
<path fill="#85572d" d="
  M 187.91 268.91
  Q 183.46 266.71 180.18 262.76
  Q 182.28 245.17 179.23 227.50
  Q 178.84 225.25 180.36 226.95
  C 186.64 233.94 194.28 238.40 202.29 243.21
  A 0.51 0.50 45.2 0 1 202.29 244.08
  C 198.75 246.14 190.65 250.54 188.67 254.09
  A 1.12 1.11 -45.7 0 0 188.68 255.18
  L 195.38 266.67
  Q 195.58 267.01 195.19 267.11
  L 187.91 268.91
  Z"
/>
<path fill="#cba059" d="
  M 393.45 239.49
  Q 393.80 244.17 392.94 248.74
  C 392.09 253.33 389.53 253.52 385.02 254.91
  Q 362.57 261.80 339.29 264.19
  Q 338.93 262.45 339.93 262.29
  C 344.77 261.53 351.58 259.32 355.93 257.33
  C 366.15 252.65 374.21 248.11 383.68 244.17
  Q 387.05 242.77 390.99 238.93
  Q 391.41 238.52 391.71 239.01
  Q 392.38 240.11 393.45 239.49
  Z"
/>
<path fill="#85572d" d="
  M 227.80 254.00
  L 227.48 254.71
  Q 227.26 255.18 227.70 255.46
  Q 230.94 257.52 234.57 258.82
  Q 235.38 259.11 235.61 259.56
  Q 235.92 260.15 235.74 260.96
  Q 216.87 261.41 198.70 266.53
  A 0.90 0.90 0.0 0 1 197.72 266.17
  L 191.39 256.77
  A 2.66 2.66 0.0 0 1 192.15 253.04
  L 204.49 245.11
  A 1.46 1.46 0.0 0 1 205.85 244.99
  L 227.80 254.00
  Z"
/>
<path fill="#abb3bc" d="
  M 495.82 252.13
  Q 498.01 260.73 497.51 270.00
  C 496.55 287.97 492.33 302.64 482.18 316.93
  C 472.26 330.89 458.42 339.97 441.01 339.95
  Q 436.33 339.95 431.99 338.35
  Q 431.44 338.14 431.84 337.71
  Q 453.26 314.18 460.15 282.99
  C 463.07 284.32 466.69 281.84 469.41 280.47
  C 468.89 285.11 468.66 304.46 477.57 302.25
  C 486.77 299.97 490.99 278.45 491.26 270.99
  Q 491.84 271.11 492.29 270.98
  Q 492.80 270.83 492.86 270.30
  Q 493.43 265.05 493.34 259.82
  Q 493.28 256.36 495.82 252.13
  Z"
/>
<path fill="#000000" d="
  M 491.26 270.99
  C 490.99 278.45 486.77 299.97 477.57 302.25
  C 468.66 304.46 468.89 285.11 469.41 280.47
  C 469.30 271.98 473.05 252.33 484.86 253.10
  Q 485.38 253.14 485.78 253.48
  C 490.25 257.27 491.46 265.78 491.26 270.99
  Z"
/>
<path stroke="#e1ba6a" stroke-width="2.00" fill="none" stroke-linecap="butt" vector-effect="non-scaling-stroke" d="
  M 489.50 269.62
  Q 481.70 277.69 470.97 280.49"
/>
<path fill="#5d402b" d="
  M 227.80 254.00
  Q 256.99 264.12 288.57 268.50
  L 271.02 272.58
  Q 260.95 265.08 247.44 261.56
  Q 244.76 260.86 235.74 260.96
  Q 235.92 260.15 235.61 259.56
  Q 235.38 259.11 234.57 258.82
  Q 230.94 257.52 227.70 255.46
  Q 227.26 255.18 227.48 254.71
  L 227.80 254.00
  Z"
/>
<path fill="#f6d37b" d="
  M 489.50 269.62
  Q 481.70 277.69 470.97 280.49
  C 470.97 273.93 473.71 255.74 482.71 254.89
  C 488.52 254.34 489.44 265.93 489.50 269.62
  Z"
/>
<path fill="#000000" d="
  M 441.75 290.48
  Q 439.05 297.76 433.54 304.50
  Q 429.01 310.06 422.22 310.56
  C 412.96 311.24 412.59 299.53 412.56 293.49
  Q 412.16 274.48 425.97 260.02
  C 427.47 258.45 433.17 255.89 435.65 255.86
  C 445.16 255.74 445.65 273.07 444.56 279.08
  Q 443.76 283.45 441.75 290.48
  Z"
/>
<path stroke="#e1ba6a" stroke-width="2.00" fill="none" stroke-linecap="butt" vector-effect="non-scaling-stroke" d="
  M 439.98 289.87
  C 430.22 292.08 422.95 292.04 414.27 293.38"
/>
<path fill="#9a553b" d="
  M 115.74 256.43
  Q 115.66 264.51 112.40 269.71
  C 110.46 272.80 107.21 271.92 104.09 271.86
  C 76.84 271.36 49.81 271.83 22.61 273.49
  Q 13.45 274.05 3.89 273.85
  Q 10.46 269.58 18.51 267.76
  C 32.33 264.63 46.19 261.35 60.23 259.48
  C 68.39 258.39 76.60 257.19 84.91 257.03
  Q 100.29 256.74 115.74 256.43
  Z"
/>
<path fill="#cba059" d="
  M 117.63 256.12
  Q 117.67 256.61 117.84 256.89
  Q 118.08 257.30 118.55 257.21
  C 122.70 256.39 126.44 257.63 130.31 257.09
  Q 133.81 256.60 142.00 258.70
  Q 144.42 259.33 153.43 259.36
  Q 161.53 259.39 178.46 262.27
  L 176.71 270.95
  Q 176.61 271.45 176.10 271.58
  C 171.23 272.84 166.80 274.39 161.66 273.95
  Q 137.96 271.95 113.78 272.02
  A 0.52 0.52 0.0 0 1 113.33 271.23
  Q 117.34 264.51 117.63 256.12
  Z"
/>
<path fill="#5d402b" d="
  M 383.08 260.86
  Q 375.12 261.26 367.50 263.25
  Q 365.86 263.68 363.31 262.81
  L 382.57 257.79
  Q 383.08 257.65 383.18 258.17
  Q 383.46 259.65 383.08 260.86
  Z"
/>
<path fill="#f6d37b" d="
  M 439.98 289.87
  C 430.22 292.08 422.95 292.04 414.27 293.38
  Q 414.50 276.88 423.79 264.72
  C 427.05 260.46 436.00 253.78 440.23 260.82
  C 445.35 269.32 442.72 280.67 439.98 289.87
  Z"
/>
<path fill="#85572d" d="
  M 383.08 260.86
  C 381.38 273.39 378.84 285.79 373.00 297.04
  C 370.85 297.84 369.63 299.31 367.52 299.92
  C 364.47 300.80 360.34 301.62 357.69 303.30
  Q 356.42 304.11 355.55 302.72
  Q 364.08 283.88 363.31 262.81
  Q 365.86 263.68 367.50 263.25
  Q 375.12 261.26 383.08 260.86
  Z"
/>
<path fill="#5d402b" d="
  M 180.18 262.76
  Q 183.46 266.71 187.91 268.91
  L 179.04 270.92
  Q 178.43 271.06 178.56 270.44
  L 180.18 262.76
  Z"
/>
<path fill="#f6d37b" d="
  M 286.60 306.08
  C 277.75 308.69 269.47 308.73 258.13 310.37
  C 242.82 312.59 227.37 313.24 212.00 314.44
  Q 204.68 315.02 186.64 314.12
  C 188.16 301.11 183.95 281.38 170.23 275.88
  Q 169.85 275.72 170.22 275.54
  C 171.79 274.73 173.56 274.61 174.83 274.30
  Q 192.86 269.88 211.00 266.02
  C 218.91 264.34 227.15 264.02 235.32 263.16
  C 247.23 261.92 255.73 265.60 266.07 271.90
  C 278.29 279.34 287.48 290.41 286.60 306.08
  Z"
/>
<path fill="#ffffff" d="
  M 352.39 304.47
  L 344.01 305.33
  Q 353.46 286.48 352.16 265.45
  Q 352.12 264.77 352.80 264.66
  L 360.59 263.38
  Q 361.08 263.30 361.09 263.80
  Q 361.42 285.16 352.39 304.47
  Z"
/>
<path fill="#2a2524" d="
  M 316.62 292.41
  C 316.83 300.68 323.42 310.65 330.56 299.11
  C 336.52 289.49 338.30 278.34 338.63 267.21
  Q 338.64 266.58 339.26 266.50
  L 349.24 265.23
  Q 350.43 265.08 350.47 266.28
  C 350.96 282.27 346.35 304.67 334.32 315.56
  C 326.78 322.38 315.91 321.29 309.44 313.85
  C 300.20 303.24 302.90 281.49 306.75 269.38
  Q 306.91 268.89 307.43 268.87
  L 320.79 268.24
  Q 322.31 268.17 321.63 269.52
  Q 316.30 280.07 316.62 292.41
  Z"
/>
<path fill="#ffffff" d="
  M 322.04 301.88
  C 314.57 295.24 320.19 276.19 323.79 268.50
  Q 323.99 268.09 324.44 268.04
  L 336.31 266.90
  Q 336.80 266.85 336.80 267.34
  C 336.70 277.80 333.92 297.16 324.83 302.18
  A 2.44 2.44 0.0 0 1 322.04 301.88
  Z"
/>
<path fill="#85572d" d="
  M 288.57 268.50
  L 294.70 268.73
  Q 295.35 268.75 295.15 269.37
  Q 288.59 289.22 294.65 309.44
  Q 293.41 310.06 292.09 309.24
  Q 291.68 308.98 291.19 309.01
  L 288.19 309.17
  Q 290.56 286.51 271.02 272.58
  L 288.57 268.50
  Z"
/>
<path fill="#ffffff" d="
  M 304.92 310.15
  L 296.95 309.62
  Q 290.84 289.44 297.47 269.17
  Q 297.61 268.75 298.04 268.75
  L 304.73 268.75
  Q 305.24 268.75 305.06 269.23
  C 300.48 281.99 299.44 297.17 304.92 310.15
  Z"
/>
<path fill="#cba059" d="
  M 489.50 269.62
  Q 489.60 283.67 482.55 295.58
  C 480.14 299.66 474.14 304.56 472.14 296.29
  Q 470.06 287.69 470.97 280.49
  Q 481.70 277.69 489.50 269.62
  Z"
/>
<path fill="#db7149" d="
  M 184.71 314.75
  Q 173.69 313.95 162.67 314.60
  C 158.08 314.87 153.66 313.99 149.00 313.88
  Q 133.37 313.52 117.81 311.94
  C 113.02 311.46 107.21 311.83 101.52 311.16
  C 88.53 309.63 77.83 309.09 61.82 306.62
  Q 61.34 306.55 61.26 306.07
  L 61.06 304.92
  Q 64.30 301.57 68.01 300.51
  Q 120.96 285.28 163.01 277.32
  C 170.68 275.87 176.23 280.52 179.95 287.10
  Q 187.07 299.66 184.71 314.75
  Z"
/>
<path fill="#abb3bc" d="
  M 457.54 285.21
  C 449.53 317.05 419.71 365.69 378.87 353.26
  A 0.50 0.49 -57.2 0 1 378.69 352.42
  Q 386.23 345.54 391.58 336.52
  C 393.87 333.45 396.40 328.14 395.33 324.39
  Q 395.07 323.49 394.71 324.35
  L 390.33 334.51
  Q 386.01 342.63 377.53 350.51
  Q 356.74 369.80 330.27 374.78
  C 324.11 375.94 300.56 378.87 296.49 371.44
  C 293.32 365.66 296.53 354.72 303.70 353.37
  C 310.30 352.12 317.32 350.95 323.25 348.59
  C 341.39 341.37 353.81 328.07 365.66 313.16
  Q 371.27 306.10 376.33 295.35
  Q 394.22 296.25 412.56 293.49
  C 412.59 299.53 412.96 311.24 422.22 310.56
  Q 429.01 310.06 433.54 304.50
  Q 439.05 297.76 441.75 290.48
  Q 449.86 286.98 457.54 285.21
  Z"
/>
<path fill="#cba059" d="
  M 439.98 289.87
  C 437.86 295.58 434.52 302.15 429.62 305.78
  C 417.07 315.09 413.68 302.82 414.27 293.38
  C 422.95 292.04 430.22 292.08 439.98 289.87
  Z"
/>
<path fill="#5d402b" d="
  M 373.00 297.04
  Q 371.57 300.65 369.36 303.85
  C 355.29 324.30 337.19 345.24 311.61 349.94
  C 284.19 354.97 252.19 353.67 227.15 340.81
  A 0.20 0.20 0.0 0 1 227.23 340.43
  C 249.39 339.40 282.81 336.45 288.19 309.17
  L 291.19 309.01
  Q 291.68 308.98 292.09 309.24
  Q 293.41 310.06 294.65 309.44
  C 300.54 328.38 316.69 339.71 335.77 327.96
  Q 349.30 319.63 355.55 302.72
  Q 356.42 304.11 357.69 303.30
  C 360.34 301.62 364.47 300.80 367.52 299.92
  C 369.63 299.31 370.85 297.84 373.00 297.04
  Z"
/>
<path fill="#e0e7ee" d="
  M 352.39 304.47
  C 346.75 317.11 334.02 331.83 318.54 330.46
  C 307.58 329.48 300.50 319.63 296.95 309.62
  L 304.92 310.15
  Q 308.56 316.99 315.69 320.22
  C 328.33 325.95 338.38 315.58 344.01 305.33
  L 352.39 304.47
  Z"
/>
<path fill="#9a553b" d="
  M 61.06 304.92
  L 61.26 306.07
  Q 61.34 306.55 61.82 306.62
  C 77.83 309.09 88.53 309.63 101.52 311.16
  C 107.21 311.83 113.02 311.46 117.81 311.94
  Q 133.37 313.52 149.00 313.88
  C 153.66 313.99 158.08 314.87 162.67 314.60
  Q 173.69 313.95 184.71 314.75
  C 183.15 325.22 174.59 337.26 162.72 336.03
  C 140.39 333.74 117.53 328.30 95.94 322.21
  Q 81.25 318.07 67.20 312.13
  C 63.84 310.71 60.58 308.95 61.06 304.92
  Z"
/>
<path fill="#cba059" d="
  M 286.60 306.08
  C 284.60 327.84 261.63 335.29 243.25 336.95
  Q 207.23 340.22 171.22 336.93
  Q 170.46 336.86 171.14 336.52
  C 179.86 332.16 184.93 323.72 186.64 314.12
  Q 204.68 315.02 212.00 314.44
  C 227.37 313.24 242.82 312.59 258.13 310.37
  C 269.47 308.73 277.75 308.69 286.60 306.08
  Z"
/>
<path fill="#8a9199" d="
  M 391.58 336.52
  Q 391.54 334.93 390.33 334.51
  L 394.71 324.35
  Q 395.07 323.49 395.33 324.39
  C 396.40 328.14 393.87 333.45 391.58 336.52
  Z"
/>
<path fill="#8a9199" d="
  M 242.07 349.76
  C 235.47 354.64 219.40 363.77 214.11 352.10
  Q 211.78 346.97 211.96 341.33
  Q 211.97 340.85 212.46 340.83
  L 222.87 340.48
  Q 223.46 340.46 223.96 340.78
  Q 232.36 346.16 241.94 349.01
  A 0.43 0.42 -55.1 0 1 242.07 349.76
  Z"
/>
</svg>
