<?xml version="1.0" encoding="UTF-8" standalone="no"?>
<svg xmlns="http://www.w3.org/2000/svg" version="1.2" baseProfile="tiny" viewBox="0.00 0.00 500.00 500.00">
<path fill="#010101" d="
  M 182.98 272.19
  L 176.04 271.63
  A 0.68 0.68 0.0 0 1 175.64 270.45
  C 180.10 266.42 186.12 262.79 192.34 262.95
  C 210.61 263.42 222.80 254.35 236.82 243.57
  Q 238.90 241.97 239.97 240.56
  A 0.29 0.29 0.0 0 0 239.60 240.13
  L 234.14 242.98
  A 0.95 0.94 -35.7 0 1 233.02 242.80
  C 227.38 236.82 226.71 224.07 229.45 217.36
  Q 229.65 216.88 230.14 216.72
  Q 237.24 214.37 247.03 208.75
  Q 249.03 207.60 248.84 205.76
  Q 248.16 199.00 250.44 192.67
  Q 250.61 192.19 250.20 191.88
  L 225.09 173.26
  A 1.87 1.85 52.4 0 0 223.33 173.02
  L 211.68 177.53
  A 2.48 2.47 -20.5 0 1 208.45 176.07
  Q 205.77 168.70 204.62 160.94
  A 1.41 1.40 14.8 0 0 204.08 160.02
  C 193.75 152.03 183.98 141.24 174.90 131.36
  Q 174.08 130.48 173.79 129.77
  A 1.10 1.10 0.0 0 1 175.19 128.33
  C 186.95 132.71 197.46 138.91 208.44 144.73
  Q 208.92 144.98 209.43 144.79
  Q 216.33 142.13 223.62 140.78
  Q 225.15 140.49 225.38 142.03
  L 226.69 150.84
  A 3.40 3.39 12.5 0 0 228.20 153.20
  L 254.89 170.60
  A 0.35 0.35 0.0 0 0 255.38 170.13
  L 253.76 167.25
  A 2.17 2.16 -27.0 0 1 254.75 164.21
  Q 265.93 159.21 277.92 155.08
  C 280.68 154.13 286.49 155.46 287.86 152.95
  A 1.44 1.43 36.8 0 0 287.61 151.25
  L 284.55 148.23
  A 1.23 1.22 -20.9 0 1 285.49 146.14
  L 294.48 146.69
  A 1.23 1.18 29.1 0 0 295.24 146.49
  Q 306.27 139.10 319.23 136.15
  A 0.42 0.41 49.6 0 0 319.29 135.36
  Q 306.48 130.10 294.11 123.35
  Q 292.01 122.20 290.18 120.66
  Q 289.79 120.33 289.28 120.35
  C 269.07 121.13 253.53 121.91 236.06 125.70
  A 2.11 2.11 0.0 0 1 233.72 124.57
  Q 228.94 114.91 228.67 103.93
  Q 228.19 84.08 229.28 69.74
  C 229.58 65.73 238.94 66.31 242.03 66.68
  A 0.59 0.59 0.0 0 0 242.42 65.60
  Q 236.67 62.01 231.29 58.23
  C 229.40 56.91 229.04 55.34 229.17 52.98
  C 230.15 33.97 234.23 16.33 243.82 0.97
  A 1.57 1.57 0.0 0 1 246.06 0.52
  C 264.72 13.99 284.77 26.08 306.47 34.13
  A 0.75 0.75 0.0 0 0 307.30 33.91
  C 314.51 25.67 357.41 43.46 365.87 46.80
  Q 366.37 47.00 366.56 47.50
  C 367.74 50.50 366.48 54.70 366.37 58.22
  Q 366.35 58.72 366.78 58.97
  Q 388.48 71.78 438.17 101.83
  C 444.38 105.58 454.54 109.69 453.75 116.25
  Q 451.66 133.74 447.07 150.84
  A 1.49 1.48 -83.0 0 1 445.66 151.95
  Q 444.50 151.98 443.62 150.58
  Q 439.20 143.48 435.14 136.27
  Q 434.53 135.18 433.33 135.50
  C 428.42 136.80 423.53 137.63 419.09 139.82
  C 412.29 143.18 405.20 147.15 400.44 153.28
  Q 392.86 163.05 385.34 172.85
  A 1.15 1.13 -32.3 0 0 385.13 173.76
  Q 387.93 188.33 387.07 202.99
  Q 386.92 205.56 383.52 213.36
  Q 383.30 213.85 383.61 214.30
  Q 396.44 232.50 400.92 239.05
  C 405.44 245.66 406.56 252.84 408.39 260.74
  A 1.44 1.44 0.0 0 1 406.98 262.50
  L 399.26 262.50
  Q 398.81 262.50 398.67 262.93
  C 397.73 266.06 398.74 267.67 401.28 269.59
  C 413.36 278.72 421.85 285.69 430.65 295.14
  A 0.79 0.79 0.0 0 1 430.36 296.42
  C 429.45 296.77 428.29 296.29 427.45 296.09
  Q 410.97 292.14 396.71 283.48
  A 1.42 1.41 -46.3 0 0 395.17 283.52
  L 385.09 290.41
  A 2.12 2.12 0.0 0 1 381.91 289.40
  C 380.00 284.29 379.49 279.68 378.13 274.54
  A 1.43 1.41 -78.3 0 0 377.65 273.80
  L 367.38 265.44
  A 0.90 0.90 0.0 0 0 366.24 265.44
  L 338.63 287.95
  A 1.02 1.02 0.0 0 1 336.97 287.23
  L 335.40 264.60
  A 0.79 0.78 -2.6 0 0 334.59 263.87
  L 327.25 264.06
  A 0.70 0.69 76.6 0 0 326.64 265.06
  L 330.27 272.46
  A 1.25 1.24 43.5 0 1 330.30 273.45
  Q 329.00 276.61 326.10 278.31
  Q 324.67 279.15 324.05 277.61
  Q 321.76 271.88 318.95 265.81
  Q 318.57 264.99 318.01 264.69
  A 0.60 0.60 0.0 0 0 317.16 265.39
  Q 320.87 277.99 326.76 289.95
  C 334.85 306.36 342.42 322.65 347.33 333.93
  C 350.28 340.69 358.35 360.17 356.19 366.88
  A 0.64 0.64 0.0 0 1 355.00 366.94
  Q 350.17 355.56 344.31 344.73
  Q 337.55 332.24 342.48 345.45
  Q 348.08 360.48 348.35 379.56
  Q 348.37 380.98 346.87 381.81
  Q 339.96 385.63 332.97 388.23
  A 1.77 1.77 0.0 0 0 331.81 389.86
  L 331.65 400.97
  A 0.91 0.84 30.7 0 0 331.79 401.44
  Q 333.24 403.65 333.72 406.23
  Q 333.80 406.69 334.11 407.04
  L 343.03 417.12
  A 0.67 0.66 69.7 0 0 343.50 417.34
  L 355.29 417.57
  A 1.09 1.08 11.5 0 1 356.28 419.06
  L 353.03 427.13
  A 1.68 1.68 0.0 0 0 353.37 428.91
  L 360.70 436.60
  Q 361.08 437.01 361.64 437.02
  L 372.60 437.29
  A 0.98 0.98 0.0 0 1 373.49 438.63
  L 370.18 447.15
  A 0.93 0.92 37.6 0 0 370.30 448.03
  L 373.95 453.00
  Q 374.24 453.39 374.72 453.47
  Q 383.51 455.05 389.42 461.63
  Q 389.76 462.00 390.17 461.70
  Q 397.41 456.35 406.21 456.10
  Q 409.57 456.00 412.24 455.45
  Q 433.09 451.13 447.83 466.93
  Q 453.11 472.59 454.86 480.41
  A 1.43 1.43 0.0 0 1 452.89 482.03
  Q 442.80 477.66 431.93 476.08
  A 0.69 0.69 0.0 0 0 431.22 477.08
  Q 433.13 480.81 433.46 485.03
  A 0.74 0.74 0.0 0 1 432.37 485.74
  Q 419.97 479.06 405.87 478.42
  C 397.66 478.05 388.42 477.26 383.00 477.30
  Q 376.12 477.34 373.03 476.85
  Q 356.95 474.31 340.92 476.84
  C 338.25 477.26 334.49 478.47 331.04 478.70
  A 0.65 0.65 0.0 0 1 330.36 478.19
  C 329.17 472.61 347.61 461.89 351.90 460.03
  A 0.61 0.60 50.1 0 0 351.99 458.97
  Q 330.20 444.31 310.24 427.77
  Q 308.22 426.09 305.99 424.73
  Q 305.50 424.43 305.17 424.89
  Q 301.81 429.57 297.30 433.11
  A 0.89 0.89 0.0 0 1 295.86 432.41
  L 295.82 420.95
  A 0.26 0.26 0.0 0 0 295.39 420.76
  L 289.33 426.34
  A 0.66 0.66 0.0 0 1 288.22 425.85
  C 288.22 419.45 290.42 413.01 291.71 406.74
  C 292.16 404.57 292.25 402.94 291.12 400.87
  Q 285.31 390.35 278.81 380.24
  Q 278.54 379.82 278.04 379.87
  C 263.50 381.49 249.78 383.12 235.37 379.38
  Q 235.26 379.35 234.18 378.87
  Q 232.85 378.28 231.47 379.71
  Q 225.32 386.10 216.63 392.47
  C 214.28 394.20 208.42 398.06 211.56 401.53
  Q 211.91 401.91 211.89 402.43
  Q 211.08 422.44 213.68 442.30
  Q 213.74 442.77 214.19 442.90
  Q 217.98 444.05 220.65 445.87
  C 225.44 449.13 221.56 458.22 218.27 461.61
  A 0.50 0.50 0.0 0 0 218.28 462.32
  C 220.97 464.93 221.63 468.48 224.11 470.93
  Q 224.48 471.30 224.89 470.98
  C 235.48 462.90 248.63 458.61 260.44 467.34
  C 268.18 473.06 277.05 483.25 277.28 493.40
  A 1.06 1.06 0.0 0 1 275.81 494.41
  C 260.36 487.92 245.31 483.52 229.27 486.72
  Q 228.78 486.82 228.75 487.32
  C 228.51 491.43 228.48 496.50 225.39 499.48
  A 1.01 1.00 -37.1 0 1 223.83 499.27
  C 220.34 493.43 217.36 488.35 209.48 488.94
  A 1.41 1.38 59.5 0 1 208.58 488.70
  C 205.83 486.78 206.18 484.61 204.58 482.38
  Q 204.25 481.92 203.68 481.84
  Q 194.86 480.53 186.75 484.12
  A 1.07 1.07 0.0 0 1 185.24 483.14
  C 185.25 476.83 190.35 469.86 195.13 465.99
  A 1.50 1.50 0.0 0 0 194.22 463.33
  Q 186.66 463.18 179.24 461.77
  C 176.20 461.19 172.88 456.29 171.02 453.89
  Q 170.71 453.49 170.22 453.44
  L 161.25 452.39
  A 1.28 1.28 0.0 0 1 160.18 450.74
  L 162.65 442.74
  A 0.85 0.83 -56.3 0 0 162.50 441.95
  C 159.64 438.44 156.74 434.24 157.56 429.31
  Q 160.19 413.49 159.20 401.75
  C 158.54 393.94 157.11 382.28 160.17 377.42
  Q 164.07 371.22 168.09 365.08
  C 169.93 362.25 168.89 360.07 168.50 357.00
  Q 168.31 355.47 166.97 355.08
  C 161.34 353.46 156.98 352.09 151.17 352.21
  A 2.78 2.76 -76.7 0 0 148.79 353.69
  C 143.08 364.62 137.56 379.05 127.87 387.28
  C 122.15 392.14 113.47 395.94 106.69 401.03
  Q 106.32 401.30 106.35 401.76
  Q 107.10 412.53 100.23 420.73
  A 0.79 0.79 0.0 0 0 100.10 421.51
  C 103.24 429.67 102.82 438.43 95.13 443.65
  A 0.93 0.93 0.0 0 0 94.78 444.74
  Q 95.14 445.73 96.05 445.70
  C 101.70 445.55 107.13 449.21 110.05 453.77
  Q 110.32 454.18 110.80 454.33
  C 120.61 457.25 128.16 456.91 124.25 470.76
  C 122.43 477.18 116.31 479.22 110.27 478.71
  C 105.97 478.34 102.60 480.13 98.01 479.18
  C 93.21 478.17 86.39 479.96 82.51 477.68
  C 79.08 475.66 73.49 471.89 72.67 467.06
  C 71.78 461.83 69.89 462.71 67.05 459.26
  A 1.02 1.02 0.0 0 1 66.84 458.35
  C 67.43 456.02 67.80 454.50 66.89 452.05
  C 65.27 447.74 67.08 441.77 67.85 437.37
  C 69.99 425.10 69.80 410.30 69.20 399.74
  C 68.42 386.04 79.97 380.43 87.21 371.96
  C 88.67 370.24 88.83 368.28 87.89 366.07
  Q 83.73 356.31 89.14 346.91
  A 0.48 0.46 -40.1 0 0 89.18 346.54
  L 86.64 338.29
  Q 86.50 337.86 86.05 337.82
  C 82.67 337.51 79.11 337.61 75.97 337.15
  Q 63.09 335.29 50.23 333.36
  Q 47.69 332.98 45.80 332.10
  A 0.92 0.92 0.0 0 1 46.01 330.36
  Q 51.18 329.36 56.06 328.90
  C 58.79 328.65 59.04 327.50 60.53 325.55
  C 70.16 312.94 70.62 293.86 64.37 280.98
  Q 62.30 276.71 58.66 268.31
  C 54.47 258.64 54.07 243.88 61.42 235.42
  C 64.77 231.56 66.60 228.36 67.26 223.07
  Q 70.31 198.37 59.69 176.02
  C 57.28 170.93 52.38 167.40 48.14 163.86
  Q 47.14 163.02 47.30 162.14
  A 0.94 0.94 0.0 0 1 48.56 161.44
  C 60.13 165.95 68.26 172.83 79.81 182.82
  C 83.51 186.02 89.05 187.61 93.39 190.01
  A 1.68 1.68 0.0 0 1 94.08 190.70
  C 96.04 194.22 97.20 198.59 100.04 201.42
  Q 105.37 206.70 110.49 212.18
  A 1.89 1.85 74.6 0 0 111.43 212.73
  Q 116.34 213.94 120.58 216.63
  Q 121.04 216.92 121.18 217.44
  C 122.12 220.76 122.38 225.11 124.61 227.76
  Q 134.82 239.93 143.93 252.92
  C 146.45 256.50 152.92 258.79 153.38 262.82
  Q 153.80 266.56 153.99 270.34
  Q 154.01 270.81 154.45 271.01
  C 163.98 275.21 173.42 273.25 181.92 273.20
  Q 182.35 273.20 183.09 272.49
  Q 183.37 272.22 182.98 272.19
  Z"
/>
<g stroke-width="2.00" fill="none" stroke-linecap="butt">
<path stroke="#78777b" vector-effect="non-scaling-stroke" d="
  M 290.73 115.14
  Q 285.35 115.63 279.93 115.46
  C 279.29 115.44 278.74 115.77 278.34 116.23
  A 0.95 0.92 21.7 0 1 277.57 116.55
  C 272.72 116.23 268.82 117.89 262.77 120.01"
/>
<path stroke="#a0a3a6" vector-effect="non-scaling-stroke" d="
  M 230.43 72.58
  C 235.40 70.56 239.73 70.13 245.14 70.77
  Q 251.99 71.58 258.83 71.45
  Q 259.20 71.44 258.86 71.29
  Q 251.34 67.77 245.44 64.29
  Q 238.85 60.40 236.90 58.75
  Q 232.97 55.40 230.68 50.42"
/>
<path stroke="#916957" vector-effect="non-scaling-stroke" d="
  M 356.07 44.72
  Q 349.90 43.52 344.81 43.40
  C 342.86 43.35 341.49 44.02 340.76 45.98
  Q 335.77 59.42 332.88 73.52
  Q 332.78 74.00 332.37 74.25
  Q 330.48 75.43 329.49 77.43
  A 1.34 1.24 -34.1 0 0 329.36 77.99
  L 329.53 88.78"
/>
<path stroke="#835e4e" vector-effect="non-scaling-stroke" d="
  M 329.53 88.78
  C 325.34 104.96 323.62 117.92 320.81 131.57
  Q 320.56 132.74 321.24 133.46
  Q 321.55 133.78 321.18 134.03
  Q 320.84 134.26 320.51 134.24"
/>
<path stroke="#68463b" vector-effect="non-scaling-stroke" d="
  M 324.48 135.30
  L 322.50 132.49
  Q 322.21 132.07 322.28 131.57
  Q 325.38 110.67 330.77 90.26
  Q 331.22 88.55 331.15 86.76
  Q 331.11 85.75 330.64 86.65
  L 329.53 88.78"
/>
<path stroke="#78777b" vector-effect="non-scaling-stroke" d="
  M 364.62 59.22
  Q 356.28 62.16 352.13 68.92
  Q 344.93 80.65 340.54 94.49"
/>
<path stroke="#5e5c5b" vector-effect="non-scaling-stroke" d="
  M 412.54 95.97
  Q 414.04 97.39 413.72 98.69
  C 410.97 110.08 412.69 119.68 413.30 131.06"
/>
<path stroke="#78777b" vector-effect="non-scaling-stroke" d="
  M 413.30 131.06
  Q 411.45 132.96 411.74 136.23
  A 0.86 0.86 0.0 0 1 411.34 137.04
  C 406.50 140.11 401.89 142.35 396.65 144.65
  Q 395.68 145.08 389.62 148.28
  Q 374.96 156.03 363.03 141.20"
/>
<path stroke="#78777b" vector-effect="non-scaling-stroke" d="
  M 358.96 137.78
  Q 350.44 132.27 341.69 128.06
  C 337.98 126.28 336.18 124.58 336.10 120.50
  Q 335.87 107.78 340.35 96.18"
/>
<path stroke="#434041" vector-effect="non-scaling-stroke" d="
  M 413.77 131.83
  L 413.30 131.06"
/>
<path stroke="#a0a3a6" vector-effect="non-scaling-stroke" d="
  M 449.80 110.50
  Q 450.19 118.33 448.90 125.46
  C 447.23 134.69 446.52 139.96 444.97 147.09
  A 1.11 1.11 0.0 0 1 444.42 147.82
  L 444.03 148.04"
/>
<path stroke="#a0a3a6" vector-effect="non-scaling-stroke" d="
  M 432.83 134.14
  L 430.68 133.46
  Q 430.29 133.34 429.87 133.39
  L 415.68 135.14"
/>
<path stroke="#6b6b6b" vector-effect="non-scaling-stroke" d="
  M 414.97 131.26
  C 413.69 120.05 412.73 108.62 415.01 98.43
  A 1.32 1.27 -54.8 0 0 414.87 97.50
  Q 414.12 96.15 412.75 95.27"
/>
<path stroke="#916957" vector-effect="non-scaling-stroke" d="
  M 259.31 178.50
  Q 256.88 185.64 251.85 191.55"
/>
<path stroke="#916957" vector-effect="non-scaling-stroke" d="
  M 328.22 137.67
  Q 336.28 140.50 344.73 141.52"
/>
<path stroke="#916957" vector-effect="non-scaling-stroke" d="
  M 359.44 139.38
  L 353.66 146.55"
/>
<path stroke="#6b5345" vector-effect="non-scaling-stroke" d="
  M 353.66 146.55
  Q 346.52 154.14 341.09 163.10"
/>
<path stroke="#916957" vector-effect="non-scaling-stroke" d="
  M 341.09 163.10
  C 338.78 164.72 337.32 166.90 337.51 170.01
  Q 338.28 182.39 336.79 195.38"
/>
<path stroke="#68463b" vector-effect="non-scaling-stroke" d="
  M 366.54 236.88
  Q 362.38 236.92 358.92 234.93
  Q 358.46 234.67 358.65 234.17
  L 364.57 218.70"
/>
<path stroke="#503a32" vector-effect="non-scaling-stroke" d="
  M 341.09 163.10
  Q 348.88 156.16 353.66 146.55"
/>
<path stroke="#916957" vector-effect="non-scaling-stroke" d="
  M 269.11 179.75
  L 269.74 184.82"
/>
<path stroke="#916957" vector-effect="non-scaling-stroke" d="
  M 346.61 232.58
  Q 351.12 239.61 352.93 246.45"
/>
<path stroke="#6b5345" vector-effect="non-scaling-stroke" d="
  M 352.93 246.45
  C 348.14 246.26 341.40 245.27 337.33 247.40
  Q 334.54 248.86 332.00 250.82"
/>
<path stroke="#835e4e" vector-effect="non-scaling-stroke" d="
  M 332.00 250.82
  L 312.80 262.71"
/>
<path stroke="#916957" vector-effect="non-scaling-stroke" d="
  M 301.32 244.66
  C 304.02 240.63 301.37 236.88 297.01 237.49"
/>
<path stroke="#916957" vector-effect="non-scaling-stroke" d="
  M 282.19 194.19
  C 278.44 195.66 276.32 189.81 274.00 189.97
  Q 273.44 190.01 273.12 190.54"
/>
<path stroke="#68463b" vector-effect="non-scaling-stroke" d="
  M 339.37 284.62
  L 345.14 273.24"
/>
<path stroke="#423029" vector-effect="non-scaling-stroke" d="
  M 332.00 250.82
  L 339.37 247.19
  Q 339.83 246.97 340.34 246.97
  L 368.48 247.09"
/>
<path stroke="#916957" vector-effect="non-scaling-stroke" d="
  M 388.14 223.69
  Q 393.86 234.48 400.37 244.15
  Q 400.60 244.49 400.49 245.59"
/>
<path stroke="#3c2923" vector-effect="non-scaling-stroke" d="
  M 400.49 245.59
  L 368.48 246.74"
/>
<path stroke="#503a32" vector-effect="non-scaling-stroke" d="
  M 368.48 246.74
  L 352.93 246.45"
/>
<path stroke="#835e4e" vector-effect="non-scaling-stroke" d="
  M 403.29 245.54
  Q 402.09 245.41 402.68 245.87"
/>
<path stroke="#574136" vector-effect="non-scaling-stroke" d="
  M 402.68 245.87
  Q 401.22 245.34 400.49 245.59"
/>
<path stroke="#2e1e1a" vector-effect="non-scaling-stroke" d="
  M 402.68 245.87
  C 401.69 246.61 400.38 246.24 399.51 246.30
  Q 384.04 247.33 368.48 247.09"
/>
<path stroke="#151311" vector-effect="non-scaling-stroke" d="
  M 368.48 247.09
  Q 368.48 246.92 368.48 246.74"
/>
<path stroke="#916957" vector-effect="non-scaling-stroke" d="
  M 309.36 196.03
  Q 308.69 195.72 308.73 195.01
  Q 308.76 194.50 308.24 194.50
  L 307.50 194.50
  Q 306.69 194.50 307.08 193.79
  C 312.56 183.80 313.34 168.24 303.29 160.46
  Q 302.52 159.86 301.63 160.05
  Q 300.87 160.23 301.51 160.67
  C 312.02 167.89 311.53 183.16 305.87 193.05
  Q 305.63 193.47 305.17 193.30
  Q 299.97 191.36 295.49 187.56"
/>
<path stroke="#574136" vector-effect="non-scaling-stroke" d="
  M 295.49 187.56
  L 295.28 184.21
  Q 295.25 183.65 295.80 183.56
  Q 299.52 182.98 303.30 183.13
  C 310.80 183.41 309.19 173.75 304.08 172.86
  Q 299.95 172.14 295.67 172.26
  Q 295.05 172.27 295.13 171.66
  L 296.19 163.84
  A 1.69 1.69 0.0 0 0 294.55 161.92
  C 286.37 161.76 289.58 173.10 285.05 174.18"
/>
<path stroke="#916957" vector-effect="non-scaling-stroke" d="
  M 285.05 174.18
  Q 284.43 172.36 284.60 170.07
  Q 284.64 169.60 284.86 169.18
  Q 285.91 167.24 284.80 165.26"
/>
<path stroke="#3c2923" vector-effect="non-scaling-stroke" d="
  M 285.05 174.18
  C 280.77 176.65 279.03 180.73 282.32 184.83
  A 0.83 0.82 60.5 0 0 283.24 185.09
  L 285.93 184.14
  A 0.41 0.40 -9.7 0 1 286.47 184.52
  C 286.50 189.91 287.39 197.71 294.27 197.47
  A 2.28 2.27 85.4 0 0 296.44 194.91
  L 295.49 187.56"
/>
<path stroke="#5e5c5b" vector-effect="non-scaling-stroke" d="
  M 67.22 186.02
  C 68.61 191.64 70.62 197.32 71.55 202.75
  C 72.76 209.78 72.76 218.62 76.63 224.40
  C 82.36 232.98 89.40 239.78 96.13 247.49
  A 0.41 0.41 0.0 0 1 95.58 248.09
  C 87.48 242.13 74.85 233.25 65.56 241.79"
/>
<path stroke="#a0a3a6" vector-effect="non-scaling-stroke" d="
  M 65.56 241.79
  C 64.20 237.30 66.82 234.66 68.02 231.16
  Q 68.20 230.61 67.70 230.34
  Q 67.33 230.14 66.79 230.30"
/>
<path stroke="#a0a3a6" vector-effect="non-scaling-stroke" d="
  M 61.47 248.92
  Q 60.53 248.88 59.95 248.38
  Q 59.62 248.09 59.43 248.49
  Q 58.72 250.02 57.46 249.77"
/>
<path stroke="#5e5c5b" vector-effect="non-scaling-stroke" d="
  M 65.67 324.40
  Q 73.92 312.61 72.99 298.07
  Q 72.77 294.61 75.01 294.02
  C 81.04 292.45 86.96 290.45 92.84 288.74
  Q 93.69 288.49 92.82 288.31
  C 85.63 286.84 74.27 283.82 69.94 277.30
  Q 61.25 264.21 61.47 248.92"
/>
<path stroke="#6b6b6b" vector-effect="non-scaling-stroke" d="
  M 61.47 248.92
  Q 62.60 244.24 65.56 241.79"
/>
<path stroke="#6b6b6b" vector-effect="non-scaling-stroke" d="
  M 66.60 324.84
  Q 74.93 314.17 73.74 300.75
  Q 73.63 299.52 74.59 296.22
  A 0.96 0.95 -1.4 0 1 75.20 295.59
  Q 86.48 291.76 93.16 290.14
  Q 95.12 289.66 95.66 288.30
  A 0.58 0.58 0.0 0 0 95.23 287.52
  C 89.90 286.56 75.54 282.76 72.26 278.23
  C 67.23 271.27 61.10 257.13 63.14 248.48
  C 64.56 242.47 70.83 237.73 77.35 239.64
  C 84.33 241.70 90.90 246.33 96.95 250.26
  A 0.83 0.83 0.0 0 0 98.21 249.37
  Q 97.90 248.06 96.80 246.71
  C 90.94 239.44 83.97 233.01 78.56 225.44
  C 74.55 219.83 74.07 211.85 73.27 204.75
  Q 72.66 199.38 68.06 185.49"
/>
<path stroke="#85878c" vector-effect="non-scaling-stroke" d="
  M 93.18 191.54
  Q 92.77 192.35 90.75 191.34
  Q 90.22 191.07 89.80 191.49
  L 86.85 194.46"
/>
<path stroke="#916957" vector-effect="non-scaling-stroke" d="
  M 257.03 197.06
  L 259.55 209.02
  A 2.50 2.50 0.0 0 1 258.94 211.24
  L 253.55 217.08"
/>
<path stroke="#78777b" vector-effect="non-scaling-stroke" d="
  M 259.43 230.79
  Q 260.60 236.45 265.70 240.76
  Q 266.01 241.02 266.11 241.41
  Q 266.15 241.58 266.20 241.77
  Q 266.30 242.25 266.74 242.48
  C 270.24 244.32 271.16 247.03 273.53 249.22
  Q 273.90 249.56 273.50 249.88
  Q 273.32 250.02 272.98 250.07"
/>
<path stroke="#78777b" vector-effect="non-scaling-stroke" d="
  M 120.63 219.72
  Q 120.27 220.29 119.68 220.27
  A 0.63 0.63 0.0 0 1 119.07 219.67
  Q 118.99 218.08 117.61 217.99
  Q 116.79 217.93 115.77 218.68
  Q 113.74 220.17 111.73 221.91"
/>
<path stroke="#916957" vector-effect="non-scaling-stroke" d="
  M 288.84 295.73
  Q 292.79 289.05 295.00 282.78
  C 296.40 278.82 298.82 275.14 300.18 271.02
  C 300.72 269.36 300.34 267.61 300.73 265.80
  C 301.91 260.29 298.87 258.13 295.74 254.27
  C 293.56 251.59 288.15 247.13 284.80 246.12
  Q 282.71 245.48 280.42 245.16"
/>
<path stroke="#78777b" vector-effect="non-scaling-stroke" d="
  M 265.90 272.94
  L 266.81 273.00
  Q 267.35 273.04 267.66 272.60
  Q 271.53 267.27 277.52 266.35"
/>
<path stroke="#78777b" vector-effect="non-scaling-stroke" d="
  M 282.32 296.44
  Q 282.04 304.24 280.24 310.90
  C 279.59 313.30 279.78 315.16 279.87 317.54"
/>
<path stroke="#a0a3a6" vector-effect="non-scaling-stroke" d="
  M 196.40 277.36
  Q 199.45 274.17 204.00 273.99
  Q 204.48 273.97 204.87 273.67
  C 207.00 272.04 209.76 271.73 211.71 270.77
  C 215.63 268.85 222.49 266.77 224.55 262.55
  Q 225.99 259.61 226.75 256.41
  Q 226.87 255.92 227.24 255.57
  L 232.13 250.93
  Q 232.51 250.57 232.22 250.14
  L 231.75 249.42"
/>
<path stroke="#a0a3a6" vector-effect="non-scaling-stroke" d="
  M 195.27 278.05
  L 190.70 276.29
  A 1.02 1.01 36.6 0 1 190.44 274.54
  L 192.78 272.70"
/>
<path stroke="#a0a3a6" vector-effect="non-scaling-stroke" d="
  M 198.25 270.77
  L 203.04 268.26
  A 1.04 1.04 0.0 0 0 202.78 266.32
  C 199.70 265.65 196.80 266.87 193.73 265.82
  A 0.88 0.41 -1.5 0 1 193.57 265.75
  Q 192.49 265.09 193.49 264.22"
/>
<path stroke="#78777b" vector-effect="non-scaling-stroke" d="
  M 347.83 338.44
  L 347.10 338.56
  A 0.48 0.48 0.0 0 0 346.73 339.19
  L 350.58 350.66
  Q 350.70 351.02 350.49 351.35
  L 349.84 352.33"
/>
<path stroke="#78777b" vector-effect="non-scaling-stroke" d="
  M 312.36 380.27
  Q 312.59 378.09 311.04 377.29
  C 309.30 376.39 306.84 373.91 305.62 371.71
  C 301.77 364.75 294.64 358.35 290.05 352.57
  C 289.08 351.35 288.44 349.47 286.99 348.18
  Q 286.64 347.87 286.55 347.40
  Q 285.89 344.10 283.05 342.80"
/>
<path stroke="#6d6b69" vector-effect="non-scaling-stroke" d="
  M 355.07 361.47
  L 354.99 361.92
  A 0.41 0.41 0.0 0 1 354.59 362.26
  Q 354.45 362.26 354.30 362.22"
/>
<path stroke="#78777b" vector-effect="non-scaling-stroke" d="
  M 148.10 258.52
  Q 142.44 261.49 138.14 266.11"
/>
<path stroke="#916957" vector-effect="non-scaling-stroke" d="
  M 396.58 269.46
  Q 397.91 269.53 397.72 268.16"
/>
<path stroke="#38332f" vector-effect="non-scaling-stroke" d="
  M 189.41 305.26
  C 190.16 308.12 188.18 310.71 189.34 313.96
  A 0.76 0.76 0.0 0 0 190.71 314.09
  Q 191.61 312.56 192.35 310.57
  Q 192.73 309.53 193.81 309.76
  Q 194.35 309.87 194.71 309.46
  Q 198.83 304.77 201.45 303.47
  Q 203.32 302.55 203.61 303.51"
/>
<path stroke="#38332f" vector-effect="non-scaling-stroke" d="
  M 225.85 321.50
  Q 232.64 318.88 239.00 316.25
  Q 241.82 315.08 244.51 317.54"
/>
<path stroke="#38332f" vector-effect="non-scaling-stroke" d="
  M 228.89 353.78
  Q 232.76 360.57 233.51 362.70
  Q 234.11 364.39 233.51 366.04
  C 228.44 379.81 220.95 386.97 207.22 392.05"
/>
<path stroke="#38332f" vector-effect="non-scaling-stroke" d="
  M 182.07 339.39
  Q 173.86 338.87 168.74 336.77
  C 165.38 335.40 161.78 334.94 159.02 333.52
  Q 154.27 331.08 149.51 328.68
  Q 149.33 328.59 149.23 328.42
  L 148.97 327.98
  A 1.19 1.16 88.6 0 0 148.50 327.52
  L 141.38 323.75"
/>
<path stroke="#24221f" vector-effect="non-scaling-stroke" d="
  M 141.38 323.75
  L 135.96 311.03
  A 0.26 0.25 25.4 0 0 135.48 311.20
  L 137.84 319.48"
/>
<path stroke="#38332f" vector-effect="non-scaling-stroke" d="
  M 137.84 319.48
  Q 136.33 321.39 136.94 324.49
  C 138.77 333.91 138.01 344.46 136.97 353.96
  C 136.53 357.92 134.96 363.16 134.82 368.08
  Q 134.81 368.27 134.73 368.39
  Q 134.60 368.57 134.42 368.68
  Q 134.04 368.91 133.96 369.34
  L 132.10 380.06"
/>
<path stroke="#38332f" vector-effect="non-scaling-stroke" d="
  M 109.56 396.78
  C 106.43 396.43 103.59 396.98 100.52 396.39
  C 96.52 395.61 90.74 394.41 87.03 396.58
  Q 79.18 401.16 77.78 409.69"
/>
<path stroke="#38332f" vector-effect="non-scaling-stroke" d="
  M 81.45 442.75
  L 83.68 448.92"
/>
<path stroke="#38332f" vector-effect="non-scaling-stroke" d="
  M 122.75 460.32
  Q 118.16 463.74 113.68 463.54"
/>
<path stroke="#38332f" vector-effect="non-scaling-stroke" d="
  M 112.47 464.03
  L 97.77 465.49"
/>
<path stroke="#38332f" vector-effect="non-scaling-stroke" d="
  M 94.00 463.24
  L 85.02 462.86
  Q 84.48 462.83 84.08 463.20
  Q 79.59 467.36 81.84 475.03"
/>
<path stroke="#151311" vector-effect="non-scaling-stroke" d="
  M 141.38 323.75
  Q 144.14 330.47 147.15 336.33
  Q 147.33 336.68 147.25 336.93
  Q 147.10 337.36 146.89 336.96
  L 137.84 319.48"
/>
<path stroke="#595269" vector-effect="non-scaling-stroke" d="
  M 91.61 320.99
  Q 96.08 316.72 100.57 310.33
  C 102.13 308.12 104.30 308.79 105.60 307.58
  Q 106.27 306.96 105.77 306.39"
/>
<path stroke="#38332f" vector-effect="non-scaling-stroke" d="
  M 293.66 419.67
  Q 293.99 415.51 294.50 411.75
  Q 294.78 409.70 292.71 409.46"
/>
<path stroke="#43594e" vector-effect="non-scaling-stroke" d="
  M 206.77 393.49
  C 208.45 397.38 206.74 399.73 205.92 403.11"
/>
<path stroke="#43594e" vector-effect="non-scaling-stroke" d="
  M 332.20 410.38
  L 328.30 400.42"
/>
<path stroke="#453b5b" vector-effect="non-scaling-stroke" d="
  M 78.52 434.88
  Q 79.82 428.38 84.64 422.92"
/>
<path stroke="#43594e" vector-effect="non-scaling-stroke" d="
  M 345.38 422.55
  Q 338.13 418.27 333.31 410.99"
/>
<path stroke="#43594e" vector-effect="non-scaling-stroke" d="
  M 355.16 433.18
  Q 353.89 433.69 355.06 435.01
  C 358.70 439.11 361.77 442.62 366.26 445.73"
/>
<path stroke="#a0a3a6" vector-effect="non-scaling-stroke" d="
  M 165.49 446.28
  L 162.14 451.30"
/>
<path stroke="#43594e" vector-effect="non-scaling-stroke" d="
  M 411.27 457.82
  Q 406.90 459.71 403.33 461.10
  Q 400.88 462.06 396.86 461.54
  A 1.47 1.43 33.4 0 0 395.93 461.72
  Q 393.26 463.28 391.83 462.34"
/>
<path stroke="#43594e" vector-effect="non-scaling-stroke" d="
  M 257.92 486.27
  Q 247.26 481.12 234.72 481.69
  A 0.73 0.73 0.0 0 1 233.99 480.74
  C 234.91 477.79 235.58 475.19 237.26 472.45
  Q 239.48 468.81 241.07 464.63"
/>
</g>
<path fill="#939395" d="
  M 290.73 115.14
  Q 285.35 115.63 279.93 115.46
  C 279.29 115.44 278.74 115.77 278.34 116.23
  A 0.95 0.92 21.7 0 1 277.57 116.55
  C 272.72 116.23 268.82 117.89 262.77 120.01
  Q 249.15 121.23 236.17 124.10
  A 1.23 1.23 0.0 0 1 234.79 123.41
  Q 229.50 111.64 230.11 98.67
  A 0.90 0.90 0.0 0 1 230.93 97.82
  L 245.45 96.52
  A 0.22 0.22 0.0 0 0 245.46 96.08
  Q 238.09 95.32 230.76 96.49
  Q 230.09 96.60 230.10 95.92
  L 230.43 72.58
  C 235.40 70.56 239.73 70.13 245.14 70.77
  Q 251.99 71.58 258.83 71.45
  Q 259.20 71.44 258.86 71.29
  Q 251.34 67.77 245.44 64.29
  Q 238.85 60.40 236.90 58.75
  Q 232.97 55.40 230.68 50.42
  Q 231.18 40.90 233.58 30.67
  Q 233.70 30.13 234.15 30.45
  C 236.32 32.03 240.65 35.34 243.69 35.65
  Q 244.59 35.74 243.82 35.26
  L 234.36 29.44
  Q 233.86 29.13 233.98 28.57
  Q 236.99 14.38 244.64 2.14
  A 0.89 0.89 0.0 0 1 245.91 1.89
  C 264.98 15.56 284.33 27.32 306.37 35.71
  Q 306.93 35.92 306.77 36.50
  Q 300.91 57.04 296.79 77.99
  A 0.41 0.41 0.0 0 1 296.26 78.30
  L 288.28 75.65
  A 0.33 0.33 0.0 0 0 288.04 76.26
  L 295.81 79.98
  Q 296.27 80.20 296.19 80.70
  L 290.73 115.14
  Z"
/>
<path fill="#ac816a" d="
  M 356.07 44.72
  Q 349.90 43.52 344.81 43.40
  C 342.86 43.35 341.49 44.02 340.76 45.98
  Q 335.77 59.42 332.88 73.52
  Q 332.78 74.00 332.37 74.25
  Q 330.48 75.43 329.49 77.43
  A 1.34 1.24 -34.1 0 0 329.36 77.99
  L 329.53 88.78
  C 325.34 104.96 323.62 117.92 320.81 131.57
  Q 320.56 132.74 321.24 133.46
  Q 321.55 133.78 321.18 134.03
  Q 320.84 134.26 320.51 134.24
  Q 305.79 128.56 292.16 120.56
  A 1.17 1.13 -81.9 0 1 291.62 119.81
  C 291.26 118.19 291.92 116.81 292.12 115.54
  Q 294.69 99.55 297.55 83.61
  Q 300.03 69.85 308.29 36.51
  C 308.82 34.35 308.87 33.29 311.51 33.10
  C 325.00 32.10 343.26 39.31 356.07 44.72
  Z"
/>
<path fill="#765044" d="
  M 356.07 44.72
  Q 360.35 45.40 364.92 47.98
  A 1.60 1.60 0.0 0 1 365.73 49.53
  L 364.97 57.50
  A 0.62 0.62 0.0 0 1 364.02 57.96
  C 361.12 56.13 357.63 54.86 354.37 56.79
  C 346.90 61.22 343.31 69.54 339.70 77.54
  C 332.56 93.35 327.87 111.02 330.49 128.50
  C 331.00 131.93 332.38 134.53 335.56 135.76
  A 0.57 0.57 0.0 0 1 335.27 136.85
  L 324.48 135.30
  L 322.50 132.49
  Q 322.21 132.07 322.28 131.57
  Q 325.38 110.67 330.77 90.26
  Q 331.22 88.55 331.15 86.76
  Q 331.11 85.75 330.64 86.65
  L 329.53 88.78
  L 329.36 77.99
  A 1.34 1.24 -34.1 0 1 329.49 77.43
  Q 330.48 75.43 332.37 74.25
  Q 332.78 74.00 332.88 73.52
  Q 335.77 59.42 340.76 45.98
  C 341.49 44.02 342.86 43.35 344.81 43.40
  Q 349.90 43.52 356.07 44.72
  Z"
/>
<path fill="#adb2b6" d="
  M 230.68 50.42
  Q 232.97 55.40 236.90 58.75
  Q 238.85 60.40 245.44 64.29
  Q 251.34 67.77 258.86 71.29
  Q 259.20 71.44 258.83 71.45
  Q 251.99 71.58 245.14 70.77
  C 239.73 70.13 235.40 70.56 230.43 72.58
  L 230.94 69.01
  Q 231.02 68.45 231.59 68.39
  Q 239.05 67.60 246.55 68.15
  Q 248.81 68.31 246.94 67.03
  Q 239.12 61.69 231.36 56.59
  Q 229.47 55.35 230.68 50.42
  Z"
/>
<path fill="#5c5b61" d="
  M 364.62 59.22
  Q 356.28 62.16 352.13 68.92
  Q 344.93 80.65 340.54 94.49
  L 336.49 92.39
  A 1.06 1.05 -66.6 0 1 335.99 91.11
  C 340.10 79.35 344.51 67.61 353.23 58.74
  C 356.55 55.37 360.40 57.57 364.62 59.22
  Z"
/>
<path fill="#939395" d="
  M 364.62 59.22
  Q 365.54 60.90 367.21 62.28
  Q 388.98 80.32 412.54 95.97
  Q 414.04 97.39 413.72 98.69
  C 410.97 110.08 412.69 119.68 413.30 131.06
  Q 411.45 132.96 411.74 136.23
  A 0.86 0.86 0.0 0 1 411.34 137.04
  C 406.50 140.11 401.89 142.35 396.65 144.65
  Q 395.68 145.08 389.62 148.28
  Q 374.96 156.03 363.03 141.20
  Q 363.46 138.78 362.53 137.42
  A 0.85 0.84 -24.1 0 0 361.63 137.08
  L 358.96 137.78
  Q 350.44 132.27 341.69 128.06
  C 337.98 126.28 336.18 124.58 336.10 120.50
  Q 335.87 107.78 340.35 96.18
  Q 345.10 98.62 346.72 99.19
  Q 352.58 101.27 347.38 97.86
  Q 345.32 96.51 340.54 94.49
  Q 344.93 80.65 352.13 68.92
  Q 356.28 62.16 364.62 59.22
  Z"
/>
<path fill="#adb2b6" d="
  M 449.80 110.50
  Q 450.19 118.33 448.90 125.46
  C 447.23 134.69 446.52 139.96 444.97 147.09
  A 1.11 1.11 0.0 0 1 444.42 147.82
  L 444.03 148.04
  L 435.28 133.42
  Q 435.01 132.97 434.55 133.21
  L 432.83 134.14
  L 430.68 133.46
  Q 430.29 133.34 429.87 133.39
  L 415.68 135.14
  L 414.97 131.26
  C 413.69 120.05 412.73 108.62 415.01 98.43
  A 1.32 1.27 -54.8 0 0 414.87 97.50
  Q 414.12 96.15 412.75 95.27
  C 398.19 84.06 383.38 73.57 369.29 62.63
  Q 365.88 59.98 369.58 62.21
  L 449.80 110.50
  Z"
/>
<path fill="#765044" d="
  M 328.14 75.98
  A 0.46 0.46 0.0 0 1 327.52 76.18
  L 327.38 76.11
  A 2.04 1.86 -63.5 0 1 326.62 73.46
  L 326.80 73.10
  A 2.04 1.86 -63.5 0 1 329.37 72.10
  L 329.52 72.17
  A 0.46 0.46 0.0 0 1 329.72 72.79
  L 328.14 75.98
  Z"
/>
<path fill="#5a3b32" d="
  M 324.48 135.30
  Q 322.32 135.56 320.51 134.24
  Q 320.84 134.26 321.18 134.03
  Q 321.55 133.78 321.24 133.46
  Q 320.56 132.74 320.81 131.57
  C 323.62 117.92 325.34 104.96 329.53 88.78
  L 330.64 86.65
  Q 331.11 85.75 331.15 86.76
  Q 331.22 88.55 330.77 90.26
  Q 325.38 110.67 322.28 131.57
  Q 322.21 132.07 322.50 132.49
  L 324.48 135.30
  Z"
/>
<path fill="#5c5b61" d="
  M 340.35 96.18
  Q 335.87 107.78 336.10 120.50
  C 336.18 124.58 337.98 126.28 341.69 128.06
  Q 350.44 132.27 358.96 137.78
  L 348.61 141.69
  Q 348.12 141.88 347.66 141.62
  C 344.87 140.04 333.17 134.17 332.16 129.56
  C 329.74 118.53 331.76 105.04 335.14 94.40
  Q 335.32 93.83 335.86 94.08
  L 340.35 96.18
  Z"
/>
<path fill="#292420" d="
  M 412.75 95.27
  Q 414.12 96.15 414.87 97.50
  A 1.32 1.27 -54.8 0 1 415.01 98.43
  C 412.73 108.62 413.69 120.05 414.97 131.26
  Q 414.10 131.03 413.77 131.83
  L 413.30 131.06
  C 412.69 119.68 410.97 110.08 413.72 98.69
  Q 414.04 97.39 412.54 95.97
  Q 412.82 96.05 412.75 95.27
  Z"
/>
<path fill="#939395" d="
  M 449.80 110.50
  Q 452.70 112.65 452.39 115.01
  Q 450.16 132.40 445.80 149.67
  A 0.46 0.46 0.0 0 1 444.95 149.77
  L 444.03 148.04
  L 444.42 147.82
  A 1.11 1.11 0.0 0 0 444.97 147.09
  C 446.52 139.96 447.23 134.69 448.90 125.46
  Q 450.19 118.33 449.80 110.50
  Z"
/>
<path fill="#5c5b61" d="
  M 290.73 115.14
  L 290.15 118.19
  Q 290.04 118.74 289.48 118.76
  L 262.77 120.01
  C 268.82 117.89 272.72 116.23 277.57 116.55
  A 0.95 0.92 21.7 0 0 278.34 116.23
  C 278.74 115.77 279.29 115.44 279.93 115.46
  Q 285.35 115.63 290.73 115.14
  Z"
/>
<path fill="#ac816a" d="
  M 259.31 178.50
  Q 256.88 185.64 251.85 191.55
  L 224.82 171.50
  A 1.49 1.49 0.0 0 0 223.23 171.39
  Q 217.39 174.60 210.87 176.09
  A 1.18 1.18 0.0 0 1 209.49 175.32
  Q 206.39 166.11 205.09 156.48
  A 0.33 0.33 0.0 0 0 204.44 156.46
  L 204.19 157.76
  A 0.40 0.39 -65.7 0 1 203.56 158.00
  C 196.35 152.38 189.83 145.13 184.22 139.63
  Q 179.96 135.46 176.00 131.01
  A 0.45 0.45 0.0 0 1 176.50 130.29
  C 187.44 134.50 198.09 140.57 208.45 146.05
  Q 210.14 146.94 210.99 145.46
  A 0.45 0.44 6.0 0 1 211.27 145.24
  L 222.87 141.91
  A 1.15 1.15 0.0 0 1 224.33 142.87
  C 224.70 145.80 224.87 152.73 227.58 154.47
  Q 241.45 163.35 255.15 172.50
  C 257.46 174.04 258.18 176.13 259.31 178.50
  Z"
/>
<path fill="#5c5b61" d="
  M 413.30 131.06
  L 413.77 131.83
  Q 414.25 135.70 416.62 139.06
  Q 416.96 139.54 416.44 139.83
  C 395.79 151.03 376.54 169.17 374.51 193.64
  A 0.65 0.65 0.0 0 1 373.87 194.23
  L 371.80 194.26
  Q 371.24 194.27 371.20 193.70
  C 370.82 188.62 370.85 183.31 369.75 178.59
  Q 367.75 169.95 363.91 161.93
  C 361.85 157.61 363.02 146.68 363.03 141.20
  Q 374.96 156.03 389.62 148.28
  Q 395.68 145.08 396.65 144.65
  C 401.89 142.35 406.50 140.11 411.34 137.04
  A 0.86 0.86 0.0 0 0 411.74 136.23
  Q 411.45 132.96 413.30 131.06
  Z"
/>
<path fill="#939395" d="
  M 432.83 134.14
  L 418.18 137.70
  Q 417.68 137.82 417.25 137.52
  Q 416.20 136.78 415.68 135.14
  L 429.87 133.39
  Q 430.29 133.34 430.68 133.46
  L 432.83 134.14
  Z"
/>
<path fill="#ac816a" d="
  M 328.22 137.67
  Q 336.28 140.50 344.73 141.52
  Q 345.53 141.69 345.98 142.16
  Q 346.33 142.53 345.87 142.74
  L 339.54 145.69
  Q 338.77 146.05 339.51 146.44
  Q 340.02 146.72 340.48 146.51
  Q 348.98 142.73 357.67 139.40
  Q 358.45 139.10 359.44 139.38
  L 353.66 146.55
  Q 346.52 154.14 341.09 163.10
  C 338.78 164.72 337.32 166.90 337.51 170.01
  Q 338.28 182.39 336.79 195.38
  L 334.95 193.65
  A 0.34 0.34 0.0 0 0 334.41 194.04
  L 334.67 194.60
  Q 334.93 195.14 334.55 195.61
  L 322.93 209.70
  A 0.70 0.70 0.0 0 1 321.82 209.66
  L 314.35 199.18
  Q 313.93 198.59 314.48 198.11
  C 321.97 191.48 322.59 177.93 320.48 168.99
  C 316.80 153.41 299.47 149.75 288.10 159.99
  Q 287.77 160.28 287.59 159.87
  Q 286.34 156.95 287.79 155.30
  C 296.25 145.64 315.80 134.68 328.22 137.67
  Z"
/>
<path fill="#765044" d="
  M 328.22 137.67
  Q 337.62 137.33 344.73 141.52
  Q 336.28 140.50 328.22 137.67
  Z"
/>
<path fill="#765044" d="
  M 366.54 236.88
  Q 362.38 236.92 358.92 234.93
  Q 358.46 234.67 358.65 234.17
  L 364.57 218.70
  Q 366.57 214.51 366.75 209.28
  A 0.17 0.17 0.0 0 0 366.41 209.23
  L 364.54 216.01
  A 0.58 0.58 0.0 0 1 363.71 216.37
  Q 347.08 207.99 336.79 195.38
  Q 338.28 182.39 337.51 170.01
  C 337.32 166.90 338.78 164.72 341.09 163.10
  Q 348.88 156.16 353.66 146.55
  L 359.44 139.38
  Q 360.11 138.57 361.14 138.86
  Q 361.63 139.00 361.63 139.51
  L 361.63 167.97
  A 0.42 0.42 0.0 0 0 362.47 168.01
  L 362.82 164.49
  A 0.43 0.43 0.0 0 1 363.65 164.37
  C 367.08 173.08 370.71 183.55 370.01 192.75
  C 369.73 196.32 373.68 195.19 375.76 195.30
  Q 376.24 195.32 376.25 195.81
  C 376.32 208.47 373.30 225.92 366.54 236.88
  Z"
/>
<path fill="#292420" d="
  M 353.66 146.55
  Q 348.88 156.16 341.09 163.10
  Q 346.52 154.14 353.66 146.55
  Z"
/>
<path fill="#ac816a" d="
  M 293.19 148.19
  L 289.87 151.18
  Q 289.44 151.56 289.03 151.16
  L 286.03 148.15
  Q 285.37 147.49 286.30 147.50
  L 292.93 147.51
  A 0.39 0.39 0.0 0 1 293.19 148.19
  Z"
/>
<path fill="#010101" d="
  M 230.26 163.05
  L 234.40 166.18
  A 0.32 0.32 0.0 0 1 234.05 166.71
  L 230.36 164.59
  A 0.71 0.68 58.7 0 0 230.02 164.50
  C 228.27 164.50 226.54 164.79 224.93 164.04
  Q 218.75 161.16 213.61 156.67
  C 212.12 155.37 211.41 153.36 210.24 151.70
  A 0.74 0.66 85.2 0 0 210.05 151.52
  L 207.83 150.16
  A 0.23 0.22 -24.1 0 1 207.99 149.75
  C 214.81 150.93 226.60 155.78 229.60 162.22
  Q 229.83 162.72 230.26 163.05
  Z"
/>
<path fill="#577e41" d="
  M 211.74 151.88
  C 215.83 150.82 227.34 158.72 228.46 162.85
  Q 228.57 163.25 228.17 163.36
  Q 226.07 163.96 224.96 163.31
  C 221.86 161.50 213.05 156.84 211.41 152.51
  Q 211.22 152.02 211.74 151.88
  Z"
/>
<path fill="#ac816a" d="
  M 269.11 179.75
  L 269.74 184.82
  Q 271.17 191.69 276.82 195.46
  C 287.06 202.31 297.41 200.05 308.91 197.53
  C 310.87 197.11 313.11 198.62 314.22 200.47
  Q 320.95 211.67 327.81 218.43
  Q 335.12 225.62 346.61 232.58
  Q 351.12 239.61 352.93 246.45
  C 348.14 246.26 341.40 245.27 337.33 247.40
  Q 334.54 248.86 332.00 250.82
  L 312.80 262.71
  L 301.32 244.66
  C 304.02 240.63 301.37 236.88 297.01 237.49
  Q 276.12 206.82 258.42 174.09
  C 257.21 171.84 256.18 169.13 254.89 166.71
  A 0.87 0.87 0.0 0 1 255.30 165.51
  Q 266.53 160.60 278.06 156.43
  C 280.53 155.53 282.85 155.77 285.44 155.57
  Q 286.01 155.52 285.94 156.09
  C 285.63 158.81 286.78 163.05 283.47 164.35
  Q 272.58 168.64 269.11 179.75
  Z"
/>
<path fill="#ac816a" d="
  M 309.36 196.03
  Q 308.69 195.72 308.73 195.01
  Q 308.76 194.50 308.24 194.50
  L 307.50 194.50
  Q 306.69 194.50 307.08 193.79
  C 312.56 183.80 313.34 168.24 303.29 160.46
  Q 302.52 159.86 301.63 160.05
  Q 300.87 160.23 301.51 160.67
  C 312.02 167.89 311.53 183.16 305.87 193.05
  Q 305.63 193.47 305.17 193.30
  Q 299.97 191.36 295.49 187.56
  L 295.28 184.21
  Q 295.25 183.65 295.80 183.56
  Q 299.52 182.98 303.30 183.13
  C 310.80 183.41 309.19 173.75 304.08 172.86
  Q 299.95 172.14 295.67 172.26
  Q 295.05 172.27 295.13 171.66
  L 296.19 163.84
  A 1.69 1.69 0.0 0 0 294.55 161.92
  C 286.37 161.76 289.58 173.10 285.05 174.18
  Q 284.43 172.36 284.60 170.07
  Q 284.64 169.60 284.86 169.18
  Q 285.91 167.24 284.80 165.26
  C 289.27 160.12 295.34 155.63 302.25 155.46
  C 322.74 154.94 323.51 185.19 313.93 196.73
  Q 313.58 197.14 313.10 196.89
  Q 311.15 195.89 309.36 196.03
  Z"
/>
<path fill="#765044" d="
  M 380.30 211.66
  A 0.31 0.31 0.0 0 0 379.68 211.59
  Q 377.57 225.72 371.36 238.54
  Q 371.09 239.10 370.48 239.02
  L 368.04 238.69
  Q 367.51 238.62 367.74 238.14
  Q 377.58 218.09 377.64 195.68
  Q 377.65 195.00 378.32 195.00
  L 379.57 195.00
  Q 381.22 195.00 381.33 193.36
  Q 381.89 185.06 380.30 176.90
  Q 380.20 176.41 380.43 175.96
  C 384.45 168.05 389.93 161.64 396.35 155.68
  A 0.29 0.29 0.0 0 1 396.78 156.07
  Q 391.13 163.60 385.47 170.47
  C 383.99 172.27 383.76 173.13 384.19 175.58
  C 386.46 188.54 388.22 203.77 380.59 215.43
  A 0.33 0.33 0.0 0 1 379.98 215.22
  L 380.30 211.66
  Z"
/>
<path fill="#5a3b32" d="
  M 283.54 160.46
  L 281.50 157.22
  Q 280.64 155.86 281.83 156.94
  Q 283.32 158.30 284.07 160.18
  A 0.30 0.30 0.0 0 1 283.54 160.46
  Z"
/>
<path fill="#292420" d="
  M 348.0423 170.4982
  A 6.96 4.89 129.4 0 1 348.6813 162.0162
  A 6.96 4.89 129.4 0 1 356.8777 159.7418
  A 6.96 4.89 129.4 0 1 356.2387 168.2238
  A 6.96 4.89 129.4 0 1 348.0423 170.4982
  Z"
/>
<path fill="#765044" d="
  M 309.36 196.03
  Q 297.64 198.98 291.01 198.85
  Q 287.81 198.78 285.07 195.20
  Q 274.09 180.80 284.80 165.26
  Q 285.91 167.24 284.86 169.18
  Q 284.64 169.60 284.60 170.07
  Q 284.43 172.36 285.05 174.18
  C 280.77 176.65 279.03 180.73 282.32 184.83
  A 0.83 0.82 60.5 0 0 283.24 185.09
  L 285.93 184.14
  A 0.41 0.40 -9.7 0 1 286.47 184.52
  C 286.50 189.91 287.39 197.71 294.27 197.47
  A 2.28 2.27 85.4 0 0 296.44 194.91
  L 295.49 187.56
  Q 299.97 191.36 305.17 193.30
  Q 305.63 193.47 305.87 193.05
  C 311.53 183.16 312.02 167.89 301.51 160.67
  Q 300.87 160.23 301.63 160.05
  Q 302.52 159.86 303.29 160.46
  C 313.34 168.24 312.56 183.80 307.08 193.79
  Q 306.69 194.50 307.50 194.50
  L 308.24 194.50
  Q 308.76 194.50 308.73 195.01
  Q 308.69 195.72 309.36 196.03
  Z"
/>
<path fill="#010101" d="
  M 295.49 187.56
  L 296.44 194.91
  A 2.28 2.27 85.4 0 1 294.27 197.47
  C 287.39 197.71 286.50 189.91 286.47 184.52
  A 0.41 0.40 -9.7 0 0 285.93 184.14
  L 283.24 185.09
  A 0.83 0.82 60.5 0 1 282.32 184.83
  C 279.03 180.73 280.77 176.65 285.05 174.18
  C 289.58 173.10 286.37 161.76 294.55 161.92
  A 1.69 1.69 0.0 0 1 296.19 163.84
  L 295.13 171.66
  Q 295.05 172.27 295.67 172.26
  Q 299.95 172.14 304.08 172.86
  C 309.19 173.75 310.80 183.41 303.30 183.13
  Q 299.52 182.98 295.80 183.56
  Q 295.25 183.65 295.28 184.21
  L 295.49 187.56
  Z"
/>
<path stroke="#416737" stroke-width="2.00" fill="none" stroke-linecap="butt" vector-effect="non-scaling-stroke" d="
  M 293.96 187.34
  Q 288.56 181.74 286.28 175.20"
/>
<path fill="#577e41" d="
  M 293.96 187.34
  Q 288.56 181.74 286.28 175.20
  Q 288.32 172.43 289.21 168.62
  C 289.82 165.96 290.51 164.54 292.69 163.24
  A 1.57 1.57 0.0 0 1 295.02 164.97
  Q 294.24 168.09 294.23 171.63
  Q 294.23 172.79 294.70 173.25
  Q 295.31 173.85 296.38 173.37
  Q 296.83 173.17 297.31 173.25
  L 304.81 174.55
  A 1.14 1.11 76.8 0 1 305.53 175.01
  Q 307.05 177.22 306.51 179.92
  A 2.13 2.13 0.0 0 1 304.50 181.63
  L 295.39 182.00
  A 0.87 0.85 16.9 0 0 294.75 182.33
  Q 293.62 183.79 293.96 187.34
  Z"
/>
<path fill="#2a5379" d="
  M 55.83 168.93
  Q 52.97 166.41 50.28 163.89
  A 0.26 0.26 0.0 0 1 50.58 163.48
  C 61.34 169.35 69.94 176.07 78.99 184.23
  C 82.88 187.74 83.37 194.01 87.77 196.46
  C 91.03 198.28 95.79 199.37 98.32 201.97
  Q 102.80 206.58 107.26 211.19
  A 0.44 0.44 0.0 0 1 107.18 211.87
  Q 106.02 212.60 106.45 213.51
  C 108.08 216.96 109.33 221.64 112.15 224.22
  Q 117.68 229.31 121.12 231.39
  Q 123.17 232.63 124.04 230.32
  Q 124.34 229.51 124.87 230.20
  L 141.00 251.08
  A 0.40 0.40 0.0 0 1 140.50 251.69
  L 135.41 249.06
  A 0.47 0.46 13.0 0 0 134.73 249.48
  Q 134.84 257.21 136.29 264.77
  C 136.71 266.95 137.89 268.20 139.77 269.13
  A 0.40 0.40 0.0 0 1 139.60 269.89
  Q 134.72 269.98 130.19 271.77
  A 1.00 1.00 0.0 0 1 128.86 271.09
  C 124.64 254.84 114.24 237.26 104.68 223.56
  Q 83.56 193.30 55.83 168.93
  Z"
/>
<path fill="#765044" d="
  M 282.19 194.19
  C 278.44 195.66 276.32 189.81 274.00 189.97
  Q 273.44 190.01 273.12 190.54
  L 269.74 184.82
  L 269.11 179.75
  C 272.99 173.19 274.81 168.86 282.13 165.82
  A 0.28 0.28 0.0 0 1 282.48 166.21
  Q 274.44 180.43 282.19 194.19
  Z"
/>
<path fill="#2b4f2d" d="
  M 286.28 175.20
  Q 288.56 181.74 293.96 187.34
  L 295.02 194.76
  A 1.46 1.46 0.0 0 1 293.22 196.38
  C 287.85 195.03 287.61 187.59 287.16 183.18
  A 0.55 0.54 76.7 0 0 286.42 182.72
  L 284.43 183.47
  A 1.97 1.97 0.0 0 1 281.87 182.23
  Q 280.09 176.67 286.28 175.20
  Z"
/>
<path fill="#939395" d="
  M 67.22 186.02
  C 68.61 191.64 70.62 197.32 71.55 202.75
  C 72.76 209.78 72.76 218.62 76.63 224.40
  C 82.36 232.98 89.40 239.78 96.13 247.49
  A 0.41 0.41 0.0 0 1 95.58 248.09
  C 87.48 242.13 74.85 233.25 65.56 241.79
  C 64.20 237.30 66.82 234.66 68.02 231.16
  Q 68.20 230.61 67.70 230.34
  Q 67.33 230.14 66.79 230.30
  C 72.41 212.72 68.91 192.05 60.99 175.79
  Q 60.81 175.42 61.21 175.50
  Q 61.96 175.65 62.22 176.04
  Q 65.32 180.73 67.22 186.02
  Z"
/>
<path fill="#765044" d="
  M 259.31 178.50
  Q 261.29 181.02 261.27 183.00
  Q 261.17 190.35 262.89 197.07
  A 1.33 1.32 -78.4 0 1 260.80 198.45
  L 251.85 191.55
  Q 256.88 185.64 259.31 178.50
  Z"
/>
<path fill="#292420" d="
  M 380.15 180.95
  Q 380.43 181.02 380.44 181.27
  Q 380.71 187.20 380.77 193.33
  A 0.88 0.87 88.7 0 1 379.93 194.22
  L 376.90 194.32
  A 0.63 0.62 87.7 0 1 376.26 193.72
  Q 375.85 186.13 379.14 179.29
  A 0.45 0.45 0.0 0 1 380.00 179.49
  L 380.00 180.75
  Q 380.00 180.91 380.15 180.95
  Z"
/>
<path fill="#adb2b6" d="
  M 66.60 324.84
  Q 74.93 314.17 73.74 300.75
  Q 73.63 299.52 74.59 296.22
  A 0.96 0.95 -1.4 0 1 75.20 295.59
  Q 86.48 291.76 93.16 290.14
  Q 95.12 289.66 95.66 288.30
  A 0.58 0.58 0.0 0 0 95.23 287.52
  C 89.90 286.56 75.54 282.76 72.26 278.23
  C 67.23 271.27 61.10 257.13 63.14 248.48
  C 64.56 242.47 70.83 237.73 77.35 239.64
  C 84.33 241.70 90.90 246.33 96.95 250.26
  A 0.83 0.83 0.0 0 0 98.21 249.37
  Q 97.90 248.06 96.80 246.71
  C 90.94 239.44 83.97 233.01 78.56 225.44
  C 74.55 219.83 74.07 211.85 73.27 204.75
  Q 72.66 199.38 68.06 185.49
  L 65.86 180.59
  A 0.24 0.24 0.0 0 1 66.25 180.32
  C 90.71 205.10 112.41 233.61 125.71 266.01
  Q 126.91 268.95 127.24 272.11
  Q 127.30 272.65 126.83 272.91
  Q 106.08 284.60 97.31 306.71
  Q 97.10 307.26 96.63 307.63
  Q 90.75 312.33 90.00 319.96
  A 2.69 2.68 83.4 0 1 88.20 322.24
  Q 76.87 326.09 65.00 327.70
  A 0.42 0.41 -72.7 0 1 64.64 327.01
  L 66.60 324.84
  Z"
/>
<path fill="#765044" d="
  M 291.01 231.77
  C 276.22 223.18 263.26 201.92 262.24 185.01
  A 0.36 0.35 -60.6 0 1 262.91 184.82
  Q 275.63 209.02 291.38 231.36
  A 0.28 0.28 0.0 0 1 291.01 231.77
  Z"
/>
<path fill="#292420" d="
  M 68.06 185.49
  Q 72.66 199.38 73.27 204.75
  C 74.07 211.85 74.55 219.83 78.56 225.44
  C 83.97 233.01 90.94 239.44 96.80 246.71
  Q 97.90 248.06 98.21 249.37
  A 0.83 0.83 0.0 0 1 96.95 250.26
  C 90.90 246.33 84.33 241.70 77.35 239.64
  C 70.83 237.73 64.56 242.47 63.14 248.48
  C 61.10 257.13 67.23 271.27 72.26 278.23
  C 75.54 282.76 89.90 286.56 95.23 287.52
  A 0.58 0.58 0.0 0 1 95.66 288.30
  Q 95.12 289.66 93.16 290.14
  Q 86.48 291.76 75.20 295.59
  A 0.96 0.95 -1.4 0 0 74.59 296.22
  Q 73.63 299.52 73.74 300.75
  Q 74.93 314.17 66.60 324.84
  Q 66.49 324.46 65.67 324.40
  Q 73.92 312.61 72.99 298.07
  Q 72.77 294.61 75.01 294.02
  C 81.04 292.45 86.96 290.45 92.84 288.74
  Q 93.69 288.49 92.82 288.31
  C 85.63 286.84 74.27 283.82 69.94 277.30
  Q 61.25 264.21 61.47 248.92
  Q 62.60 244.24 65.56 241.79
  C 74.85 233.25 87.48 242.13 95.58 248.09
  A 0.41 0.41 0.0 0 0 96.13 247.49
  C 89.40 239.78 82.36 232.98 76.63 224.40
  C 72.76 218.62 72.76 209.78 71.55 202.75
  C 70.62 197.32 68.61 191.64 67.22 186.02
  Q 67.83 185.78 68.06 185.49
  Z"
/>
<path fill="#adb2b6" d="
  M 93.18 191.54
  Q 92.77 192.35 90.75 191.34
  Q 90.22 191.07 89.80 191.49
  L 86.85 194.46
  L 83.24 187.48
  A 0.42 0.42 0.0 0 1 83.80 186.91
  L 93.18 191.54
  Z"
/>
<path fill="#ac816a" d="
  M 282.19 194.19
  L 284.23 196.96
  Q 284.67 197.56 283.96 197.36
  Q 277.58 195.64 273.12 190.54
  Q 273.44 190.01 274.00 189.97
  C 276.32 189.81 278.44 195.66 282.19 194.19
  Z"
/>
<path fill="#5c5b61" d="
  M 93.18 191.54
  Q 95.41 194.71 96.25 198.40
  Q 96.42 199.13 95.74 198.80
  L 86.85 194.46
  L 89.80 191.49
  Q 90.22 191.07 90.75 191.34
  Q 92.77 192.35 93.18 191.54
  Z"
/>
<path fill="#ac816a" d="
  M 257.03 197.06
  L 259.55 209.02
  A 2.50 2.50 0.0 0 1 258.94 211.24
  L 253.55 217.08
  C 250.75 211.45 247.96 199.80 251.65 193.66
  Q 251.97 193.12 252.47 193.50
  L 257.03 197.06
  Z"
/>
<path fill="#765044" d="
  M 257.03 197.06
  Q 258.83 198.07 259.08 199.43
  C 261.63 213.00 269.12 223.12 279.33 231.99
  A 0.96 0.96 0.0 0 1 279.65 232.79
  L 278.62 246.01
  Q 278.57 246.57 278.12 246.25
  Q 261.89 234.94 253.55 217.08
  L 258.94 211.24
  A 2.50 2.50 0.0 0 0 259.55 209.02
  L 257.03 197.06
  Z"
/>
<path fill="#2b4f2d" d="
  M 280.10 230.28
  Q 280.11 230.62 279.85 230.41
  Q 265.50 218.65 260.46 200.82
  Q 260.30 200.24 260.89 200.11
  L 263.31 199.55
  A 0.60 0.59 -16.3 0 1 264.00 199.92
  Q 270.08 215.54 282.32 226.94
  A 0.60 0.60 0.0 0 1 281.98 227.97
  Q 280.04 228.20 280.10 230.28
  Z"
/>
<path fill="#765044" d="
  M 310.09 202.29
  A 0.27 0.27 0.0 0 1 310.55 202.02
  Q 316.08 210.79 321.34 219.72
  Q 323.11 222.73 321.08 219.89
  Q 315.05 211.42 310.09 202.29
  Z"
/>
<path fill="#292420" d="
  M 344.81 205.94
  Q 346.88 208.16 352.56 211.20
  A 0.78 0.77 -65.7 0 1 352.92 212.17
  L 351.81 215.02
  A 0.22 0.17 64.5 0 0 351.79 215.11
  C 351.75 218.80 350.17 221.52 351.80 225.39
  Q 352.00 225.87 352.51 225.76
  C 355.73 225.03 357.29 221.26 358.84 218.61
  A 1.00 0.99 -37.9 0 1 360.65 218.83
  Q 360.91 219.72 360.52 220.81
  C 358.77 225.67 357.53 230.09 355.17 234.42
  Q 354.58 235.50 353.50 234.89
  C 343.53 229.27 335.30 224.72 327.25 215.98
  Q 326.91 215.62 327.08 215.15
  C 328.66 211.00 332.69 207.96 334.72 204.22
  Q 335.55 202.70 336.82 202.08
  Q 337.30 201.84 337.73 202.16
  C 340.03 203.79 343.07 204.06 344.81 205.94
  Z"
/>
<path fill="#939395" d="
  M 259.43 230.79
  Q 260.60 236.45 265.70 240.76
  Q 266.01 241.02 266.11 241.41
  Q 266.15 241.58 266.20 241.77
  Q 266.30 242.25 266.74 242.48
  C 270.24 244.32 271.16 247.03 273.53 249.22
  Q 273.90 249.56 273.50 249.88
  Q 273.32 250.02 272.98 250.07
  L 261.26 246.02
  Q 259.62 245.45 259.45 247.22
  Q 259.42 247.47 260.18 248.31
  Q 265.27 253.99 270.43 259.62
  A 1.08 1.06 -51.4 0 1 270.56 260.87
  L 264.32 271.77
  Q 264.08 272.19 263.69 271.91
  C 253.81 264.84 245.73 260.03 239.22 248.37
  Q 239.07 248.11 239.27 247.88
  L 251.53 234.27
  Q 252.32 233.38 251.21 233.79
  Q 242.63 236.97 234.62 241.37
  A 1.23 1.23 0.0 0 1 233.06 241.04
  C 228.51 235.08 228.56 225.51 230.11 218.56
  A 1.33 1.31 -3.4 0 1 230.98 217.60
  Q 240.19 214.57 248.36 209.32
  A 0.81 0.81 0.0 0 1 249.60 209.86
  Q 250.62 215.67 253.76 221.08
  Q 256.82 226.34 259.43 230.79
  Z"
/>
<path fill="#5c5b61" d="
  M 355.74 219.56
  L 358.48 215.42
  Q 358.60 215.24 358.77 215.37
  Q 358.89 215.44 358.95 215.58
  Q 359.02 215.71 358.96 215.91
  Q 357.50 221.12 353.75 224.64
  A 0.98 0.98 0.0 0 1 352.12 224.11
  Q 351.03 218.30 353.72 213.07
  Q 353.98 212.56 354.54 212.67
  Q 355.37 212.82 355.33 213.88
  A 1.52 1.14 63.3 0 1 355.27 214.22
  Q 354.43 216.70 354.64 219.28
  A 0.60 0.60 0.0 0 0 355.74 219.56
  Z"
/>
<path fill="#939395" d="
  M 120.63 219.72
  Q 120.27 220.29 119.68 220.27
  A 0.63 0.63 0.0 0 1 119.07 219.67
  Q 118.99 218.08 117.61 217.99
  Q 116.79 217.93 115.77 218.68
  Q 113.74 220.17 111.73 221.91
  L 108.09 213.61
  Q 107.85 213.05 108.43 213.20
  C 111.44 213.99 120.21 216.18 120.63 219.72
  Z"
/>
<path fill="#765044" d="
  M 388.14 223.69
  Q 393.86 234.48 400.37 244.15
  Q 400.60 244.49 400.49 245.59
  L 368.48 246.74
  L 352.93 246.45
  Q 351.12 239.61 346.61 232.58
  C 354.51 237.40 372.45 244.05 379.40 238.12
  C 382.39 235.57 382.89 230.60 382.99 226.88
  C 383.07 224.11 381.96 220.42 382.56 216.66
  A 0.67 0.67 0.0 0 1 383.73 216.33
  Q 386.94 220.12 388.14 223.69
  Z"
/>
<path fill="#5c5b61" d="
  M 120.63 219.72
  L 122.51 229.75
  A 0.44 0.43 -75.8 0 1 121.81 230.17
  L 111.73 221.91
  Q 113.74 220.17 115.77 218.68
  Q 116.79 217.93 117.61 217.99
  Q 118.99 218.08 119.07 219.67
  A 0.63 0.63 0.0 0 0 119.68 220.27
  Q 120.27 220.29 120.63 219.72
  Z"
/>
<path fill="#5a3b32" d="
  M 364.57 218.70
  L 358.65 234.17
  Q 358.46 234.67 358.92 234.93
  Q 362.38 236.92 366.54 236.88
  L 365.73 238.22
  Q 365.44 238.71 364.89 238.55
  L 356.24 236.03
  A 0.49 0.49 0.0 0 1 355.95 235.34
  Q 360.12 227.31 362.51 218.59
  A 0.77 0.76 -88.6 0 1 363.08 218.04
  Q 364.18 217.80 364.57 218.70
  Z"
/>
<path fill="#5a3b32" d="
  M 380.71 223.18
  Q 380.78 222.81 381.10 222.52
  A 0.52 0.52 0.0 0 1 381.97 222.89
  C 382.29 229.55 381.96 238.79 372.93 239.13
  A 0.36 0.35 -72.4 0 1 372.64 238.56
  C 375.63 234.69 379.75 228.10 380.71 223.18
  Z"
/>
<path fill="#ac816a" d="
  M 388.14 223.69
  Q 397.06 233.99 403.29 245.54
  Q 402.09 245.41 402.68 245.87
  Q 401.22 245.34 400.49 245.59
  Q 400.60 244.49 400.37 244.15
  Q 393.86 234.48 388.14 223.69
  Z"
/>
<path fill="#765044" d="
  M 288.84 295.73
  Q 292.79 289.05 295.00 282.78
  C 296.40 278.82 298.82 275.14 300.18 271.02
  C 300.72 269.36 300.34 267.61 300.73 265.80
  C 301.91 260.29 298.87 258.13 295.74 254.27
  C 293.56 251.59 288.15 247.13 284.80 246.12
  Q 282.71 245.48 280.42 245.16
  L 281.36 230.90
  A 2.11 2.10 17.2 0 1 284.54 229.23
  C 288.10 231.34 292.46 233.20 294.70 236.65
  Q 300.51 245.59 305.96 254.71
  Q 306.22 255.16 306.11 255.67
  L 303.57 267.38
  Q 303.46 267.90 303.78 268.33
  C 307.92 273.83 313.83 280.15 315.94 286.69
  Q 316.14 287.29 315.52 287.18
  Q 308.32 285.79 301.97 282.12
  A 0.90 0.89 -75.9 0 1 301.52 281.36
  L 301.47 280.12
  A 0.34 0.34 0.0 0 0 300.82 279.98
  Q 296.41 288.54 288.84 295.73
  Z"
/>
<path fill="#5a3b32" d="
  M 336.50 244.21
  L 328.16 230.24
  Q 327.85 229.73 328.38 230.00
  Q 328.59 230.11 328.71 230.30
  Q 332.87 236.65 336.71 243.22
  A 1.15 1.13 81.1 0 0 337.44 243.76
  Q 338.22 243.95 338.66 244.57
  A 0.16 0.16 0.0 0 1 338.41 244.78
  L 338.08 244.45
  A 0.74 0.73 -21.7 0 0 337.60 244.25
  L 336.50 244.21
  Z"
/>
<path fill="#adb2b6" d="
  M 66.79 230.30
  Q 67.33 230.14 67.70 230.34
  Q 68.20 230.61 68.02 231.16
  C 66.82 234.66 64.20 237.30 65.56 241.79
  Q 62.60 244.24 61.47 248.92
  Q 60.53 248.88 59.95 248.38
  Q 59.62 248.09 59.43 248.49
  Q 58.72 250.02 57.46 249.77
  C 58.42 240.61 62.11 237.71 66.79 230.30
  Z"
/>
<path fill="#5c5b61" d="
  M 259.43 230.79
  Q 267.39 240.76 277.09 247.45
  C 278.84 248.66 279.34 250.05 277.54 251.51
  Q 277.17 251.81 276.74 251.63
  L 272.98 250.07
  Q 273.32 250.02 273.50 249.88
  Q 273.90 249.56 273.53 249.22
  C 271.16 247.03 270.24 244.32 266.74 242.48
  Q 266.30 242.25 266.20 241.77
  Q 266.15 241.58 266.11 241.41
  Q 266.01 241.02 265.70 240.76
  Q 260.60 236.45 259.43 230.79
  Z"
/>
<path fill="#939395" d="
  M 265.90 272.94
  L 266.81 273.00
  Q 267.35 273.04 267.66 272.60
  Q 271.53 267.27 277.52 266.35
  C 278.34 276.30 279.30 287.07 282.32 296.44
  Q 282.04 304.24 280.24 310.90
  C 279.59 313.30 279.78 315.16 279.87 317.54
  C 272.56 335.51 267.25 350.42 257.46 364.89
  Q 257.21 365.26 256.80 365.07
  L 229.31 352.28
  A 0.99 0.99 0.0 0 1 228.87 350.88
  Q 243.03 326.76 253.57 300.57
  Q 256.11 294.26 256.54 290.10
  Q 256.62 289.32 256.14 289.94
  C 255.79 290.39 255.52 291.16 255.14 291.56
  Q 236.15 311.73 214.72 328.86
  A 0.90 0.89 -45.8 0 1 213.61 328.88
  Q 203.89 321.45 196.55 311.65
  A 0.49 0.49 0.0 0 1 196.69 310.94
  Q 199.50 309.16 202.02 306.77
  Q 215.10 294.40 223.32 286.08
  Q 226.08 283.30 228.56 279.20
  Q 228.72 278.94 228.49 278.74
  Q 228.28 278.57 228.07 278.83
  C 225.95 281.32 224.57 283.13 221.88 284.91
  C 208.42 293.85 194.32 301.28 180.22 308.41
  Q 177.86 309.61 176.58 307.29
  L 169.99 295.40
  A 1.94 1.93 -29.4 0 1 170.72 292.78
  C 179.47 287.78 188.56 283.58 196.40 277.36
  Q 199.45 274.17 204.00 273.99
  Q 204.48 273.97 204.87 273.67
  C 207.00 272.04 209.76 271.73 211.71 270.77
  C 215.63 268.85 222.49 266.77 224.55 262.55
  Q 225.99 259.61 226.75 256.41
  Q 226.87 255.92 227.24 255.57
  L 232.13 250.93
  Q 232.51 250.57 232.22 250.14
  L 231.75 249.42
  Q 239.09 243.74 243.02 239.99
  Q 251.26 232.11 244.02 240.92
  Q 241.38 244.13 238.36 246.99
  A 1.30 1.30 0.0 0 0 238.11 248.54
  C 244.65 260.86 253.27 266.42 264.77 273.88
  Q 265.16 274.13 265.45 273.78
  Q 265.78 273.40 265.90 272.94
  Z"
/>
<path fill="#765044" d="
  M 305.3568 239.9241
  A 1.64 1.26 107.5 0 1 304.6483 237.9811
  A 1.64 1.26 107.5 0 1 306.3432 236.7959
  A 1.64 1.26 107.5 0 1 307.0517 238.7389
  A 1.64 1.26 107.5 0 1 305.3568 239.9241
  Z"
/>
<path fill="#765044" d="
  M 301.32 244.66
  L 297.01 237.49
  C 301.37 236.88 304.02 240.63 301.32 244.66
  Z"
/>
<path fill="#5a3b32" d="
  M 336.50 244.21
  Q 335.84 246.06 334.57 247.72
  A 0.12 0.11 -10.4 0 1 334.38 247.59
  L 336.50 244.21
  Z"
/>
<path fill="#ac816a" d="
  M 280.42 245.16
  Q 282.71 245.48 284.80 246.12
  C 288.15 247.13 293.56 251.59 295.74 254.27
  C 298.87 258.13 301.91 260.29 300.73 265.80
  C 300.34 267.61 300.72 269.36 300.18 271.02
  C 298.82 275.14 296.40 278.82 295.00 282.78
  Q 292.79 289.05 288.84 295.73
  L 285.79 299.27
  A 0.52 0.51 55.6 0 1 284.92 299.10
  C 281.38 289.02 279.43 276.05 279.47 265.49
  Q 279.47 264.93 278.93 264.76
  L 277.80 264.41
  Q 277.34 264.26 276.98 263.93
  Q 269.16 256.68 262.07 248.73
  Q 260.72 247.21 262.63 247.89
  L 281.64 254.60
  A 0.27 0.27 0.0 0 0 282.00 254.34
  Q 282.00 254.16 282.00 253.99
  Q 282.00 253.76 281.78 253.75
  Q 280.34 253.63 280.20 252.33
  Q 280.04 250.74 280.42 245.16
  Z"
/>
<path fill="#010101" d="
  M 400.49 245.59
  Q 401.22 245.34 402.68 245.87
  C 401.69 246.61 400.38 246.24 399.51 246.30
  Q 384.04 247.33 368.48 247.09
  Q 368.48 246.92 368.48 246.74
  L 400.49 245.59
  Z"
/>
<path fill="#5a3b32" d="
  M 403.29 245.54
  L 406.85 260.29
  A 0.80 0.80 0.0 0 1 406.07 261.28
  L 369.26 261.49
  Q 368.71 261.49 368.29 261.84
  Q 354.72 273.05 341.20 284.27
  C 340.64 284.74 340.05 284.70 339.37 284.62
  L 345.14 273.24
  L 349.59 263.10
  A 0.90 0.90 0.0 0 0 348.69 261.84
  Q 330.68 263.25 312.80 262.71
  L 332.00 250.82
  L 339.37 247.19
  Q 339.83 246.97 340.34 246.97
  L 368.48 247.09
  Q 384.04 247.33 399.51 246.30
  C 400.38 246.24 401.69 246.61 402.68 245.87
  Q 402.09 245.41 403.29 245.54
  Z"
/>
<path fill="#292420" d="
  M 352.93 246.45
  L 368.48 246.74
  Q 368.48 246.92 368.48 247.09
  L 340.34 246.97
  Q 339.83 246.97 339.37 247.19
  L 332.00 250.82
  Q 334.54 248.86 337.33 247.40
  C 341.40 245.27 348.14 246.26 352.93 246.45
  Z"
/>
<path fill="#939395" d="
  M 61.47 248.92
  Q 61.25 264.21 69.94 277.30
  C 74.27 283.82 85.63 286.84 92.82 288.31
  Q 93.69 288.49 92.84 288.74
  C 86.96 290.45 81.04 292.45 75.01 294.02
  Q 72.77 294.61 72.99 298.07
  Q 73.92 312.61 65.67 324.40
  L 61.72 328.49
  A 0.58 0.58 0.0 0 1 60.85 327.72
  C 66.04 321.36 68.96 314.32 69.59 305.80
  C 70.27 296.68 69.84 288.58 65.71 280.24
  C 61.36 271.45 56.09 260.33 57.46 249.77
  Q 58.72 250.02 59.43 248.49
  Q 59.62 248.09 59.95 248.38
  Q 60.53 248.88 61.47 248.92
  Z"
/>
<path fill="#adb2b6" d="
  M 231.75 249.42
  L 232.22 250.14
  Q 232.51 250.57 232.13 250.93
  L 227.24 255.57
  Q 226.87 255.92 226.75 256.41
  Q 225.99 259.61 224.55 262.55
  C 222.49 266.77 215.63 268.85 211.71 270.77
  C 209.76 271.73 207.00 272.04 204.87 273.67
  Q 204.48 273.97 204.00 273.99
  Q 199.45 274.17 196.40 277.36
  Q 196.02 277.19 195.27 278.05
  L 190.70 276.29
  A 1.02 1.01 36.6 0 1 190.44 274.54
  L 192.78 272.70
  L 198.25 270.77
  L 203.04 268.26
  A 1.04 1.04 0.0 0 0 202.78 266.32
  C 199.70 265.65 196.80 266.87 193.73 265.82
  A 0.88 0.41 -1.5 0 1 193.57 265.75
  Q 192.49 265.09 193.49 264.22
  C 209.00 264.68 219.37 257.84 231.75 249.42
  Z"
/>
<path fill="#939395" d="
  M 148.10 258.52
  Q 142.44 261.49 138.14 266.11
  Q 136.12 258.79 136.04 251.29
  Q 136.03 250.71 136.56 250.95
  Q 142.44 253.60 148.10 258.52
  Z"
/>
<path fill="#010101" d="
  M 294.01 255.09
  Q 294.87 255.75 294.12 257.39
  A 0.82 0.80 36.6 0 0 294.26 258.27
  C 299.03 263.50 299.59 265.36 298.15 272.45
  Q 298.05 272.96 297.53 273.06
  L 292.50 273.96
  A 0.84 0.82 -87.0 0 0 291.85 274.56
  L 291.18 277.05
  Q 290.93 277.97 290.55 277.09
  C 289.72 275.15 292.09 273.92 289.51 271.68
  Q 287.52 269.95 286.17 267.71
  A 1.54 1.49 34.6 0 1 285.97 266.71
  L 286.92 259.65
  Q 286.97 259.26 287.35 259.15
  L 292.74 257.65
  Q 293.25 257.51 293.25 256.98
  L 293.25 255.46
  Q 293.25 254.49 294.01 255.09
  Z"
/>
<path fill="#765044" d="
  M 308.52 259.75
  Q 307.19 259.34 306.98 257.95
  A 0.43 0.43 0.0 0 1 307.72 257.58
  L 309.02 258.94
  A 0.49 0.49 0.0 0 1 308.52 259.75
  Z"
/>
<path fill="#5c5b61" d="
  M 148.10 258.52
  L 151.43 260.53
  Q 151.95 260.85 152.00 261.46
  L 152.73 270.37
  Q 152.79 271.06 152.10 270.95
  Q 148.82 270.43 145.56 270.14
  C 142.35 269.86 140.52 267.98 138.14 266.11
  Q 142.44 261.49 148.10 258.52
  Z"
/>
<path fill="#577e41" d="
  M 296.76 271.57
  C 292.49 273.61 289.85 270.50 287.43 267.79
  A 1.13 1.11 27.9 0 1 287.16 266.94
  L 287.77 260.79
  A 0.84 0.83 88.3 0 1 288.47 260.04
  L 292.57 259.35
  Q 293.13 259.26 293.59 259.62
  Q 299.13 264.05 297.28 270.94
  Q 297.17 271.38 296.76 271.57
  Z"
/>
<path fill="#5c5b61" d="
  M 347.83 338.44
  L 347.10 338.56
  A 0.48 0.48 0.0 0 0 346.73 339.19
  L 350.58 350.66
  Q 350.70 351.02 350.49 351.35
  L 349.84 352.33
  Q 345.65 344.43 341.11 336.75
  Q 339.38 333.82 338.34 330.29
  Q 335.78 321.55 332.16 314.39
  Q 330.78 311.66 331.78 314.55
  Q 339.16 335.78 344.50 358.50
  Q 346.18 365.62 346.96 377.26
  Q 347.20 380.74 344.54 381.84
  Q 338.22 384.46 331.84 386.89
  Q 331.33 387.08 331.12 386.58
  Q 330.26 384.48 329.94 382.26
  Q 325.43 351.55 315.24 322.25
  Q 314.61 320.44 313.09 317.74
  Q 312.84 317.30 312.81 317.80
  Q 312.60 321.00 312.73 322.50
  C 314.38 341.60 314.82 361.22 312.36 380.27
  Q 312.59 378.09 311.04 377.29
  C 309.30 376.39 306.84 373.91 305.62 371.71
  C 301.77 364.75 294.64 358.35 290.05 352.57
  C 289.08 351.35 288.44 349.47 286.99 348.18
  Q 286.64 347.87 286.55 347.40
  Q 285.89 344.10 283.05 342.80
  Q 284.49 328.05 283.20 312.73
  Q 283.11 311.70 283.22 310.85
  A 0.33 0.33 0.0 0 0 282.58 310.69
  L 279.87 317.54
  C 279.78 315.16 279.59 313.30 280.24 310.90
  Q 282.04 304.24 282.32 296.44
  L 283.73 300.33
  A 1.46 1.45 59.4 0 0 286.06 300.93
  Q 294.60 293.38 300.50 283.65
  Q 300.88 283.01 301.54 283.34
  Q 308.49 286.77 316.06 288.46
  A 1.14 1.13 -5.7 0 0 317.35 286.89
  Q 312.76 276.69 305.42 268.21
  Q 305.04 267.77 305.17 267.22
  L 306.61 261.09
  Q 306.73 260.59 307.23 260.73
  L 310.65 261.69
  A 0.93 0.92 -1.9 0 1 311.27 262.27
  Q 312.22 264.91 314.98 264.79
  A 0.97 0.97 0.0 0 1 315.95 265.49
  Q 320.34 280.73 327.26 293.71
  Q 332.85 304.18 347.83 338.44
  Z"
/>
<path fill="#5c5b61" d="
  M 277.52 266.35
  Q 271.53 267.27 267.66 272.60
  Q 267.35 273.04 266.81 273.00
  L 265.90 272.94
  Q 268.24 267.05 271.99 261.87
  Q 272.31 261.43 272.71 261.80
  L 277.52 266.35
  Z"
/>
<path fill="#765044" d="
  M 396.58 269.46
  Q 397.91 269.53 397.72 268.16
  C 408.18 276.67 418.84 284.85 428.48 294.35
  A 0.33 0.33 0.0 0 1 428.17 294.91
  Q 411.57 290.85 396.94 282.06
  A 0.99 0.98 -75.2 0 1 396.46 281.23
  Q 396.44 279.98 395.40 279.42
  Q 394.93 279.17 395.25 279.60
  L 395.97 280.57
  A 0.71 0.71 0.0 0 1 395.80 281.59
  L 384.52 289.23
  A 1.15 1.15 0.0 0 1 382.80 288.67
  Q 380.14 281.36 379.30 273.50
  Q 379.19 272.50 377.97 272.25
  A 1.65 1.62 -19.0 0 1 377.21 271.89
  L 369.20 265.27
  Q 366.49 263.03 370.01 262.88
  L 380.20 262.46
  Q 380.59 262.45 380.75 262.80
  C 382.05 265.59 387.63 269.12 390.23 270.70
  C 393.13 272.47 396.91 272.96 400.22 274.58
  Q 400.77 274.85 400.67 274.25
  C 400.59 273.79 397.23 271.58 396.58 269.46
  Z"
/>
<path fill="#2b4f2d" d="
  M 387.12 263.11
  C 390.66 265.71 395.86 267.95 396.89 271.79
  Q 397.04 272.37 396.45 272.24
  C 390.42 270.85 387.58 268.33 382.65 264.59
  Q 381.43 263.66 382.73 262.86
  Q 384.94 261.51 387.12 263.11
  Z"
/>
<path fill="#ac816a" d="
  M 397.72 268.16
  Q 397.91 269.53 396.58 269.46
  L 388.57 263.22
  A 0.40 0.40 0.0 0 1 388.82 262.50
  L 396.66 262.50
  A 0.63 0.62 -2.5 0 1 397.29 263.07
  L 397.72 268.16
  Z"
/>
<path fill="#765044" d="
  M 345.14 273.24
  L 339.37 284.62
  Q 339.11 285.71 338.63 285.81
  Q 338.12 285.90 338.08 285.39
  L 336.60 264.20
  Q 336.56 263.73 337.04 263.71
  L 348.13 263.37
  A 0.45 0.44 -81.1 0 1 348.56 263.97
  L 345.14 273.24
  Z"
/>
<path fill="#939395" d="
  M 193.49 264.22
  Q 192.49 265.09 193.57 265.75
  A 0.88 0.41 -1.5 0 0 193.73 265.82
  C 196.80 266.87 199.70 265.65 202.78 266.32
  A 1.04 1.04 0.0 0 1 203.04 268.26
  L 198.25 270.77
  Q 188.12 271.64 177.95 270.52
  A 0.17 0.17 0.0 0 1 177.86 270.23
  Q 185.08 264.10 193.49 264.22
  Z"
/>
<path fill="#5c5b61" d="
  M 320.17 265.36
  A 0.29 0.29 0.0 0 1 320.31 264.98
  L 320.50 264.90
  A 4.53 3.71 -24.1 0 1 326.15 266.44
  L 328.50 271.69
  A 4.53 3.71 -24.1 0 1 325.88 276.93
  L 325.69 277.01
  A 0.29 0.29 0.0 0 1 325.31 276.87
  L 320.17 265.36
  Z"
/>
<path fill="#010101" d="
  M 379.48 271.78
  Q 379.18 271.78 378.89 271.87
  Q 378.29 272.03 378.48 271.44
  L 378.62 271.00
  A 0.49 0.48 -72.1 0 1 379.23 270.68
  Q 381.51 271.40 383.43 272.79
  Q 384.32 273.44 383.26 273.18
  Q 381.69 272.80 380.33 272.04
  Q 379.84 271.77 379.48 271.78
  Z"
/>
<path fill="#47423d" d="
  M 189.41 305.26
  C 190.16 308.12 188.18 310.71 189.34 313.96
  A 0.76 0.76 0.0 0 0 190.71 314.09
  Q 191.61 312.56 192.35 310.57
  Q 192.73 309.53 193.81 309.76
  Q 194.35 309.87 194.71 309.46
  Q 198.83 304.77 201.45 303.47
  Q 203.32 302.55 203.61 303.51
  L 195.42 310.95
  A 0.59 0.59 0.0 0 0 195.31 311.71
  Q 202.40 322.91 213.33 330.43
  A 0.91 0.90 43.1 0 0 214.40 330.40
  L 225.85 321.50
  Q 232.64 318.88 239.00 316.25
  Q 241.82 315.08 244.51 317.54
  L 227.35 351.04
  Q 227.11 351.52 227.33 352.00
  Q 227.83 353.11 228.89 353.78
  Q 232.76 360.57 233.51 362.70
  Q 234.11 364.39 233.51 366.04
  C 228.44 379.81 220.95 386.97 207.22 392.05
  C 198.93 393.07 191.04 396.02 183.50 399.50
  C 180.99 400.65 178.03 402.91 174.80 403.94
  A 0.53 0.53 0.0 0 1 174.21 403.14
  L 180.62 393.85
  Q 181.10 393.15 180.25 393.24
  Q 172.21 394.08 164.50 396.51
  A 0.44 0.44 0.0 0 1 164.03 395.80
  Q 170.92 387.92 178.19 380.40
  C 179.34 379.22 180.43 377.03 180.44 375.39
  Q 180.68 350.19 186.62 325.72
  Q 187.06 323.90 187.01 322.72
  A 0.43 0.42 50.9 0 0 186.17 322.63
  L 182.07 339.39
  Q 173.86 338.87 168.74 336.77
  C 165.38 335.40 161.78 334.94 159.02 333.52
  Q 154.27 331.08 149.51 328.68
  Q 149.33 328.59 149.23 328.42
  L 148.97 327.98
  A 1.19 1.16 88.6 0 0 148.50 327.52
  L 141.38 323.75
  L 135.96 311.03
  A 0.26 0.25 25.4 0 0 135.48 311.20
  L 137.84 319.48
  Q 136.33 321.39 136.94 324.49
  C 138.77 333.91 138.01 344.46 136.97 353.96
  C 136.53 357.92 134.96 363.16 134.82 368.08
  Q 134.81 368.27 134.73 368.39
  Q 134.60 368.57 134.42 368.68
  Q 134.04 368.91 133.96 369.34
  L 132.10 380.06
  C 126.55 388.42 117.76 392.12 109.56 396.78
  C 106.43 396.43 103.59 396.98 100.52 396.39
  C 96.52 395.61 90.74 394.41 87.03 396.58
  Q 79.18 401.16 77.78 409.69
  C 77.36 415.13 79.22 417.30 81.41 421.40
  A 1.06 1.04 48.1 0 1 81.36 422.48
  L 76.41 429.89
  A 1.55 1.49 -32.8 0 0 76.16 430.95
  Q 76.97 437.66 81.45 442.75
  L 83.68 448.92
  C 75.50 454.07 82.57 458.90 88.76 456.95
  Q 95.59 454.81 101.76 454.26
  C 105.98 453.87 110.31 455.91 113.35 456.70
  C 116.37 457.49 120.63 458.20 122.75 460.32
  Q 118.16 463.74 113.68 463.54
  Q 112.87 461.73 111.28 461.33
  Q 110.49 461.14 110.95 461.80
  L 112.47 464.03
  L 97.77 465.49
  Q 96.50 462.18 92.87 461.19
  Q 92.00 460.95 92.59 461.63
  L 94.00 463.24
  L 85.02 462.86
  Q 84.48 462.83 84.08 463.20
  Q 79.59 467.36 81.84 475.03
  Q 79.45 473.63 77.68 472.29
  C 73.70 469.29 74.22 464.21 72.38 460.03
  Q 70.23 455.15 67.89 450.35
  A 1.77 1.76 -55.3 0 1 67.72 449.40
  C 68.42 442.42 70.08 435.34 70.47 428.77
  C 70.95 420.76 71.31 413.52 70.93 404.93
  C 70.60 397.43 70.53 391.61 74.81 386.43
  C 79.09 381.23 88.94 375.22 90.32 368.61
  Q 90.43 368.09 90.96 368.11
  Q 97.55 368.31 103.99 367.51
  C 108.68 366.93 111.28 361.10 113.24 357.58
  A 2.85 2.84 49.7 0 0 113.43 355.21
  L 110.23 346.49
  A 0.81 0.81 0.0 0 1 110.41 345.64
  L 117.81 338.03
  A 1.82 1.80 -35.0 0 0 118.17 336.04
  L 113.30 324.94
  A 1.48 1.47 52.0 0 1 113.48 323.45
  L 118.89 316.51
  A 1.70 1.69 -37.1 0 0 119.13 314.84
  L 115.68 306.06
  A 2.95 2.94 75.6 0 0 112.56 304.21
  L 100.04 305.86
  A 0.46 0.46 0.0 0 1 99.56 305.21
  C 105.57 291.95 118.65 276.11 133.49 272.20
  C 140.95 270.24 150.94 272.06 158.37 273.78
  C 167.32 275.85 178.10 274.61 187.14 273.50
  A 0.35 0.35 0.0 0 1 187.33 274.17
  C 179.12 277.83 173.20 281.50 171.08 290.83
  A 1.20 1.18 80.4 0 1 170.57 291.56
  L 168.35 292.95
  A 0.80 0.80 0.0 0 0 168.05 293.96
  C 170.65 299.84 173.26 306.11 177.83 310.73
  Q 178.20 311.10 178.67 310.86
  L 189.41 305.26
  Z"
/>
<path fill="#939395" d="
  M 192.78 272.70
  L 190.44 274.54
  A 1.02 1.01 36.6 0 0 190.70 276.29
  L 195.27 278.05
  L 172.88 290.17
  Q 172.21 290.54 172.43 289.80
  C 173.49 286.44 174.47 283.28 177.47 281.06
  Q 184.47 275.89 192.78 272.70
  Z"
/>
<path fill="#292420" d="
  M 203.61 303.51
  Q 203.32 302.55 201.45 303.47
  Q 198.83 304.77 194.71 309.46
  Q 194.35 309.87 193.81 309.76
  Q 192.73 309.53 192.35 310.57
  Q 191.61 312.56 190.71 314.09
  A 0.76 0.76 0.0 0 1 189.34 313.96
  C 188.18 310.71 190.16 308.12 189.41 305.26
  Q 202.47 299.12 215.20 291.32
  Q 215.48 291.15 216.08 290.51
  Q 216.36 290.21 216.76 290.08
  Q 217.21 289.93 216.88 290.27
  L 203.61 303.51
  Z"
/>
<path fill="#292420" d="
  M 244.51 317.54
  Q 241.82 315.08 239.00 316.25
  Q 232.64 318.88 225.85 321.50
  Q 233.45 314.68 240.94 308.07
  C 244.63 304.81 248.82 300.04 252.99 296.23
  Q 253.92 295.38 253.43 296.54
  L 244.51 317.54
  Z"
/>
<path fill="#554970" d="
  M 91.61 320.99
  Q 96.08 316.72 100.57 310.33
  C 102.13 308.12 104.30 308.79 105.60 307.58
  Q 106.27 306.96 105.77 306.39
  Q 107.17 306.10 111.76 305.77
  C 115.16 305.53 116.96 312.49 117.68 314.94
  A 1.11 1.11 0.0 0 1 117.51 315.90
  Q 115.71 318.39 113.62 320.59
  C 111.18 323.17 107.77 323.42 104.44 323.94
  Q 104.00 324.00 103.77 324.28
  Q 103.37 324.75 103.99 324.75
  L 110.42 324.75
  A 1.97 1.97 0.0 0 1 112.22 325.92
  L 116.71 336.09
  A 1.28 1.26 56.5 0 1 116.43 337.52
  L 109.19 344.40
  A 1.24 1.22 -69.8 0 1 108.51 344.72
  Q 107.20 344.86 105.91 344.58
  Q 105.40 344.47 105.11 344.61
  Q 104.88 344.72 104.76 344.90
  Q 104.46 345.34 104.97 345.52
  L 107.87 346.51
  Q 108.46 346.71 108.69 347.29
  L 112.16 355.96
  Q 112.38 356.49 112.06 356.97
  C 110.26 359.72 107.91 365.42 104.48 365.85
  Q 97.43 366.75 90.31 366.47
  A 0.94 0.93 77.5 0 1 89.51 365.95
  Q 84.87 356.75 90.47 347.93
  A 1.20 1.15 2.9 0 1 91.00 347.47
  L 95.44 345.42
  A 0.30 0.30 0.0 0 0 95.26 344.85
  L 91.42 345.63
  Q 90.86 345.75 90.60 345.25
  C 88.17 340.67 87.11 333.59 90.11 328.97
  C 91.26 327.19 93.26 326.60 95.17 325.83
  A 0.32 0.32 0.0 0 0 94.99 325.22
  L 92.83 325.65
  A 0.87 0.86 -7.0 0 1 91.80 324.85
  L 91.61 320.99
  Z"
/>
<path fill="#5c5b61" d="
  M 105.77 306.39
  Q 106.27 306.96 105.60 307.58
  C 104.30 308.79 102.13 308.12 100.57 310.33
  Q 96.08 316.72 91.61 320.99
  C 91.49 310.98 96.96 308.00 105.77 306.39
  Z"
/>
<path fill="#010101" d="
  M 141.38 323.75
  Q 144.14 330.47 147.15 336.33
  Q 147.33 336.68 147.25 336.93
  Q 147.10 337.36 146.89 336.96
  L 137.84 319.48
  L 135.48 311.20
  A 0.26 0.25 25.4 0 1 135.96 311.03
  L 141.38 323.75
  Z"
/>
<path fill="#292420" d="
  M 234.56 376.93
  Q 241.11 370.46 243.94 361.63
  Q 244.15 360.98 244.77 361.27
  L 257.02 366.90
  Q 257.42 367.09 257.69 366.73
  C 268.80 351.84 274.78 334.78 281.13 318.01
  A 0.36 0.36 0.0 0 1 281.83 318.12
  C 282.84 337.70 280.31 354.52 275.20 373.48
  A 1.35 1.34 -67.9 0 0 275.84 375.01
  L 279.61 377.14
  A 0.51 0.51 0.0 0 1 279.41 378.09
  Q 268.89 379.18 258.45 379.90
  C 249.95 380.48 242.64 379.47 234.73 377.54
  A 0.37 0.36 29.8 0 1 234.56 376.93
  Z"
/>
<path fill="#292420" d="
  M 137.84 319.48
  L 146.89 336.96
  Q 147.10 337.36 147.25 336.93
  Q 147.33 336.68 147.15 336.33
  Q 144.14 330.47 141.38 323.75
  L 148.50 327.52
  A 1.19 1.16 88.6 0 1 148.97 327.98
  L 149.23 328.42
  Q 149.33 328.59 149.51 328.68
  Q 154.27 331.08 159.02 333.52
  C 161.78 334.94 165.38 335.40 168.74 336.77
  Q 173.86 338.87 182.07 339.39
  L 179.60 357.70
  Q 179.53 358.21 179.06 357.99
  C 172.17 354.79 157.03 348.97 148.99 351.50
  A 1.36 1.34 5.8 0 0 148.23 352.11
  C 142.74 361.37 138.35 371.07 132.10 380.06
  L 133.96 369.34
  Q 134.04 368.91 134.42 368.68
  Q 134.60 368.57 134.73 368.39
  Q 134.81 368.27 134.82 368.08
  C 134.96 363.16 136.53 357.92 136.97 353.96
  C 138.01 344.46 138.77 333.91 136.94 324.49
  Q 136.33 321.39 137.84 319.48
  Z"
/>
<path fill="#2a5379" d="
  M 61.20 333.48
  Q 54.98 332.73 49.68 331.77
  Q 48.10 331.48 49.67 331.18
  Q 56.19 329.94 63.23 329.36
  Q 76.71 328.24 89.34 323.52
  Q 89.79 323.35 89.93 323.81
  C 90.83 326.75 88.75 327.91 87.94 329.87
  Q 86.83 332.57 86.72 335.40
  A 0.94 0.93 1.5 0 1 85.76 336.30
  Q 81.80 336.22 77.85 335.91
  C 72.65 335.51 66.78 334.15 61.20 333.48
  Z"
/>
<path fill="#939395" d="
  M 347.83 338.44
  Q 352.26 349.77 355.07 361.47
  L 354.99 361.92
  A 0.41 0.41 0.0 0 1 354.59 362.26
  Q 354.45 362.26 354.30 362.22
  L 349.84 352.33
  L 350.49 351.35
  Q 350.70 351.02 350.58 350.66
  L 346.73 339.19
  A 0.48 0.48 0.0 0 1 347.10 338.56
  L 347.83 338.44
  Z"
/>
<path fill="#939395" d="
  M 283.05 342.80
  Q 285.89 344.10 286.55 347.40
  Q 286.64 347.87 286.99 348.18
  C 288.44 349.47 289.08 351.35 290.05 352.57
  C 294.64 358.35 301.77 364.75 305.62 371.71
  C 306.84 373.91 309.30 376.39 311.04 377.29
  Q 312.59 378.09 312.36 380.27
  L 311.19 386.88
  Q 311.05 387.69 310.26 387.46
  Q 292.87 382.40 276.95 373.81
  A 0.87 0.87 0.0 0 1 276.54 372.77
  Q 281.36 358.51 283.05 342.80
  Z"
/>
<path fill="#292420" d="
  M 228.89 353.78
  L 242.87 360.61
  Q 243.31 360.82 243.12 361.28
  Q 239.71 369.42 234.01 375.00
  Q 224.08 384.70 211.64 394.73
  A 0.88 0.88 0.0 0 1 210.23 394.24
  Q 209.90 392.85 207.22 392.05
  C 220.95 386.97 228.44 379.81 233.51 366.04
  Q 234.11 364.39 233.51 362.70
  Q 232.76 360.57 228.89 353.78
  Z"
/>
<path fill="#292420" d="
  M 178.84 446.54
  A 1.17 1.16 -49.0 0 0 178.97 448.43
  Q 184.13 451.63 189.74 455.00
  C 192.29 456.54 193.20 458.26 194.01 460.93
  Q 194.18 461.49 193.60 461.53
  Q 188.00 462.00 182.54 460.90
  C 181.29 460.65 178.72 460.99 177.53 459.46
  C 174.41 455.44 171.06 451.79 168.28 447.49
  Q 164.39 441.45 160.01 435.72
  Q 158.36 433.55 159.17 428.77
  C 161.81 413.12 160.12 398.39 159.75 382.74
  A 7.27 7.27 0.0 0 1 160.94 378.59
  L 170.72 363.74
  A 0.63 0.60 59.0 0 0 170.82 363.29
  L 169.80 356.40
  A 0.46 0.46 0.0 0 1 170.43 355.91
  L 178.88 359.58
  Q 179.45 359.82 179.42 360.44
  C 179.22 365.76 180.17 373.52 178.43 378.32
  A 1.27 1.20 79.4 0 1 178.12 378.80
  Q 169.52 387.05 162.31 396.49
  A 1.07 1.07 0.0 0 0 163.41 398.18
  L 170.73 396.45
  A 0.50 0.49 88.9 0 1 171.33 397.03
  C 170.03 403.52 170.45 405.53 174.49 410.74
  Q 174.78 411.11 174.66 411.55
  L 172.66 419.12
  A 0.92 0.90 -11.6 0 1 172.33 419.61
  L 169.69 421.58
  Q 169.09 422.02 169.65 422.50
  L 172.67 425.11
  Q 173.02 425.41 173.15 425.85
  Q 174.11 429.15 175.71 432.12
  C 177.35 435.17 180.60 434.01 183.25 433.43
  A 0.71 0.71 0.0 0 1 184.07 433.92
  L 185.02 437.00
  Q 185.21 437.63 184.66 437.99
  Q 181.83 439.82 182.26 443.16
  Q 182.33 443.65 181.94 443.97
  L 178.84 446.54
  Z"
/>
<path fill="#47423d" d="
  M 355.07 361.47
  L 355.70 363.31
  Q 355.99 364.17 355.21 363.69
  Q 354.61 363.32 354.30 362.22
  Q 354.45 362.26 354.59 362.26
  A 0.41 0.41 0.0 0 0 354.99 361.92
  L 355.07 361.47
  Z"
/>
<path fill="#292420" d="
  M 293.66 419.67
  Q 293.99 415.51 294.50 411.75
  Q 294.78 409.70 292.71 409.46
  Q 294.28 403.55 292.44 399.82
  Q 289.77 394.42 280.62 380.36
  Q 280.28 379.84 280.82 379.54
  Q 282.32 378.71 284.00 379.50
  Q 297.06 385.64 310.62 389.19
  A 1.33 1.32 -76.0 0 0 312.25 388.21
  Q 314.83 377.15 315.30 365.77
  A 0.76 0.76 0.0 0 1 316.52 365.20
  Q 320.60 368.36 325.78 368.45
  Q 326.32 368.46 326.41 368.99
  Q 328.08 379.05 329.78 386.24
  Q 331.26 392.50 330.35 398.55
  Q 330.27 399.10 329.73 399.21
  L 328.06 399.58
  Q 327.54 399.69 327.11 400.00
  C 315.00 408.37 307.79 419.64 298.63 430.56
  A 0.83 0.83 0.0 0 1 297.17 430.00
  L 297.61 416.91
  A 0.60 0.60 0.0 0 0 296.43 416.71
  Q 295.85 418.56 293.66 419.67
  Z"
/>
<path fill="#557063" d="
  M 206.77 393.49
  C 208.45 397.38 206.74 399.73 205.92 403.11
  Q 198.86 401.95 192.71 397.86
  A 0.44 0.44 0.0 0 1 192.74 397.11
  Q 199.52 393.47 206.77 393.49
  Z"
/>
<path fill="#304138" d="
  M 205.92 403.11
  C 206.74 399.73 208.45 397.38 206.77 393.49
  C 211.70 394.45 208.54 401.25 205.92 403.11
  Z"
/>
<path fill="#342c46" d="
  M 171.72 403.71
  L 172.53 396.63
  Q 172.59 396.09 173.12 395.97
  L 177.95 394.89
  Q 179.05 394.65 178.29 395.47
  Q 174.83 399.26 172.79 403.99
  A 0.56 0.56 0.0 0 1 171.72 403.71
  Z"
/>
<path fill="#292420" d="
  M 109.56 396.78
  C 107.04 398.78 104.71 401.05 101.51 401.74
  Q 93.26 403.51 85.14 401.29
  A 1.29 1.29 0.0 0 0 83.76 401.75
  L 77.78 409.69
  Q 79.18 401.16 87.03 396.58
  C 90.74 394.41 96.52 395.61 100.52 396.39
  C 103.59 396.98 106.43 396.43 109.56 396.78
  Z"
/>
<path fill="#557063" d="
  M 184.14 409.65
  L 181.93 412.62
  A 0.79 0.79 0.0 0 1 180.51 412.27
  L 179.12 403.50
  Q 179.02 402.84 179.63 402.55
  L 189.35 397.93
  A 0.88 0.87 -40.5 0 1 190.19 397.99
  C 195.63 401.53 201.51 404.64 208.14 404.47
  Q 208.61 404.45 208.66 403.99
  L 208.81 402.55
  A 0.87 0.87 0.0 0 1 210.55 402.66
  C 210.17 422.27 210.62 440.23 215.65 460.14
  Q 215.78 460.66 215.25 460.76
  C 206.68 462.36 208.54 469.78 206.49 475.69
  Q 205.72 477.90 205.23 480.06
  A 0.56 0.55 39.5 0 1 204.18 480.16
  L 194.82 458.96
  Q 194.44 458.09 195.33 458.40
  Q 196.74 458.89 197.67 460.07
  A 0.53 0.51 61.6 0 0 198.25 460.25
  Q 198.39 460.20 198.52 460.16
  A 0.15 0.15 0.0 0 0 198.60 459.94
  C 196.28 455.96 184.91 450.26 180.54 447.72
  A 0.59 0.59 0.0 0 1 180.51 446.73
  Q 185.46 443.42 190.03 439.29
  Q 190.47 438.89 190.48 438.45
  Q 190.50 437.70 189.92 438.17
  L 188.35 439.44
  A 0.57 0.56 -28.5 0 1 187.45 439.18
  L 186.20 435.30
  A 0.41 0.41 0.0 0 1 186.84 434.86
  L 188.97 436.52
  A 0.27 0.27 0.0 0 0 189.37 436.17
  Q 188.28 434.42 186.01 432.74
  Q 178.91 427.50 171.78 422.28
  Q 171.31 421.93 171.78 421.59
  C 176.07 418.50 182.58 415.02 184.34 409.75
  Q 184.56 409.08 184.14 409.65
  Z"
/>
<path fill="#557063" d="
  M 332.20 410.38
  L 328.30 400.42
  Q 334.18 403.30 332.20 410.38
  Z"
/>
<path fill="#304138" d="
  M 328.30 400.42
  L 332.20 410.38
  L 319.03 410.35
  A 0.91 0.91 0.0 0 1 318.44 408.74
  L 328.30 400.42
  Z"
/>
<path fill="#342c46" d="
  M 78.52 434.88
  Q 79.82 428.38 84.64 422.92
  Q 85.80 423.49 87.07 423.17
  Q 87.99 422.93 87.12 422.56
  C 81.56 420.18 79.98 417.27 78.90 411.47
  A 0.65 0.63 -35.1 0 1 78.99 411.00
  L 84.25 402.98
  Q 84.58 402.48 85.17 402.58
  Q 94.49 404.20 103.77 402.39
  A 1.33 1.32 86.3 0 1 105.34 403.77
  Q 104.77 413.66 98.25 421.07
  Q 97.96 421.41 97.52 421.53
  L 95.94 421.98
  Q 95.21 422.19 95.90 422.52
  Q 96.68 422.91 97.60 422.74
  A 1.47 1.47 0.0 0 1 99.20 423.59
  C 102.01 429.81 100.49 442.50 91.40 442.89
  Q 87.34 443.07 83.39 442.17
  A 1.57 1.54 -14.0 0 1 82.57 441.69
  Q 79.72 438.49 78.52 434.88
  Z"
/>
<path fill="#342c46" d="
  M 177.53 404.01
  A 0.28 0.28 0.0 0 1 177.89 404.18
  L 177.95 404.36
  A 5.65 2.57 70.3 0 1 177.44 410.54
  L 177.38 410.56
  A 5.65 2.57 70.3 0 1 173.06 406.11
  L 173.00 405.93
  A 0.28 0.28 0.0 0 1 173.16 405.57
  L 177.53 404.01
  Z"
/>
<path fill="#47423d" d="
  M 292.71 409.46
  Q 294.78 409.70 294.50 411.75
  Q 293.99 415.51 293.66 419.67
  L 290.00 423.55
  A 0.31 0.31 0.0 0 1 289.47 423.27
  L 292.71 409.46
  Z"
/>
<path fill="#557063" d="
  M 345.38 422.55
  Q 338.13 418.27 333.31 410.99
  Q 333.80 410.70 333.96 410.14
  A 0.67 0.67 0.0 0 1 335.13 409.91
  L 345.38 422.55
  Z"
/>
<path fill="#342c46" d="
  M 175.72 412.70
  Q 177.13 409.43 179.04 411.94
  A 2.17 2.16 52.2 0 1 178.67 414.94
  L 174.92 417.90
  A 0.37 0.37 0.0 0 1 174.32 417.55
  Q 174.75 414.93 175.72 412.70
  Z"
/>
<path fill="#304138" d="
  M 333.31 410.99
  Q 338.13 418.27 345.38 422.55
  L 355.16 433.18
  Q 353.89 433.69 355.06 435.01
  C 358.70 439.11 361.77 442.62 366.26 445.73
  L 372.62 453.56
  A 0.92 0.91 -55.5 0 1 372.78 454.43
  C 371.72 457.81 377.65 465.36 379.72 467.74
  A 1.79 1.78 57.0 0 1 379.13 470.53
  C 374.39 472.76 369.48 470.79 365.18 467.29
  Q 354.15 458.31 342.24 450.52
  Q 328.95 441.82 307.08 423.49
  Q 306.70 423.18 306.98 422.78
  Q 310.16 418.27 315.04 412.31
  Q 316.17 410.93 317.63 411.19
  C 322.44 412.06 328.39 411.47 333.31 410.99
  Z"
/>
<path fill="#304138" d="
  M 351.14 426.64
  L 344.53 419.08
  A 0.32 0.32 0.0 0 1 344.77 418.55
  L 354.81 418.48
  A 0.32 0.32 0.0 0 1 355.10 418.93
  L 351.67 426.56
  A 0.32 0.32 0.0 0 1 351.14 426.64
  Z"
/>
<path fill="#554970" d="
  M 84.64 422.92
  Q 79.82 428.38 78.52 434.88
  C 76.25 430.50 80.04 426.73 82.96 422.96
  Q 83.26 422.58 83.72 422.70
  L 84.64 422.92
  Z"
/>
<path fill="#342c46" d="
  M 177.35 432.51
  L 174.76 427.15
  A 0.29 0.29 0.0 0 1 175.18 426.78
  L 181.99 431.55
  A 0.48 0.47 57.7 0 1 181.80 432.41
  L 178.32 433.01
  A 0.91 0.90 71.9 0 1 177.35 432.51
  Z"
/>
<path fill="#557063" d="
  M 355.16 433.18
  Q 361.24 438.86 366.26 445.73
  C 361.77 442.62 358.70 439.11 355.06 435.01
  Q 353.89 433.69 355.16 433.18
  Z"
/>
<path fill="#304138" d="
  M 362.56 438.11
  L 371.78 438.31
  A 0.32 0.32 0.0 0 1 372.07 438.75
  L 369.24 445.91
  A 0.32 0.32 0.0 0 1 368.70 446.00
  L 362.31 438.64
  A 0.32 0.32 0.0 0 1 362.56 438.11
  Z"
/>
<path fill="#342c46" d="
  M 183.7041 442.3963
  A 1.89 0.98 121.8 0 1 183.8671 440.2736
  A 1.89 0.98 121.8 0 1 185.6959 439.1837
  A 1.89 0.98 121.8 0 1 185.5329 441.3064
  A 1.89 0.98 121.8 0 1 183.7041 442.3963
  Z"
/>
<path fill="#292420" d="
  M 81.45 442.75
  Q 85.25 444.21 89.39 444.42
  C 90.43 444.47 91.84 444.13 92.87 444.29
  A 0.63 0.63 0.0 0 1 92.87 445.54
  Q 87.59 446.38 83.68 448.92
  L 81.45 442.75
  Z"
/>
<path fill="#adb2b6" d="
  M 165.49 446.28
  L 162.14 451.30
  Q 161.70 448.11 163.69 444.28
  Q 163.91 443.86 164.27 444.17
  Q 165.11 444.91 165.49 446.28
  Z"
/>
<path fill="#292420" d="
  M 215.11 444.63
  C 217.18 445.16 220.96 446.85 221.27 449.28
  C 221.72 452.74 220.05 457.39 217.59 459.78
  A 0.66 0.66 0.0 0 1 216.48 459.43
  L 214.07 445.58
  A 0.84 0.84 0.0 0 1 215.11 444.63
  Z"
/>
<path fill="#939395" d="
  M 165.49 446.28
  L 168.90 451.10
  Q 169.38 451.78 168.55 451.72
  L 162.14 451.30
  L 165.49 446.28
  Z"
/>
<path fill="#554970" d="
  M 107.17 452.25
  Q 107.51 452.48 107.66 452.82
  Q 107.88 453.35 107.31 453.29
  Q 97.61 452.27 88.48 455.82
  Q 84.92 457.20 82.30 455.22
  C 80.79 454.08 81.40 452.17 82.77 451.12
  Q 92.46 443.73 104.03 449.50
  Q 105.64 450.30 106.58 451.49
  Q 107.17 452.25 107.17 452.25
  Z"
/>
<path fill="#304138" d="
  M 379.24 475.95
  C 362.06 473.70 348.33 473.16 332.98 477.33
  A 0.80 0.79 -76.3 0 1 332.19 476.02
  Q 341.20 466.12 353.55 460.83
  A 1.31 1.30 52.8 0 1 354.90 461.02
  C 361.00 466.07 370.24 475.47 378.89 471.88
  C 381.10 470.96 382.00 468.69 380.47 466.79
  Q 376.37 461.70 373.78 455.87
  A 0.68 0.67 83.4 0 1 374.52 454.93
  Q 382.39 456.42 387.99 462.01
  A 1.18 1.18 0.0 0 1 387.94 463.72
  Q 383.13 468.02 380.56 473.94
  Q 380.38 474.37 380.49 474.83
  Q 380.66 475.47 380.22 475.80
  Q 379.90 476.04 379.24 475.95
  Z"
/>
<path fill="#939395" d="
  M 70.36 460.66
  Q 67.30 459.43 68.31 456.34
  A 0.46 0.45 42.6 0 1 69.16 456.31
  L 70.81 460.20
  Q 71.13 460.97 70.36 460.66
  Z"
/>
<path fill="#304138" d="
  M 414.28 456.61
  C 430.77 453.15 449.01 463.74 453.66 480.13
  A 0.50 0.50 0.0 0 1 452.98 480.73
  Q 442.17 476.09 430.52 474.25
  A 0.84 0.82 81.1 0 1 429.92 473.80
  C 426.42 466.45 421.88 460.37 414.24 457.00
  Q 413.66 456.74 414.28 456.61
  Z"
/>
<path fill="#557063" d="
  M 411.27 457.82
  Q 406.90 459.71 403.33 461.10
  Q 400.88 462.06 396.86 461.54
  A 1.47 1.43 33.4 0 0 395.93 461.72
  Q 393.26 463.28 391.83 462.34
  Q 400.14 456.28 411.27 457.82
  Z"
/>
<path fill="#304138" d="
  M 411.27 457.82
  Q 417.58 459.24 421.64 463.87
  Q 428.94 472.19 431.79 483.14
  A 0.41 0.40 6.4 0 1 431.21 483.60
  C 416.50 475.79 400.49 476.61 384.33 475.91
  Q 382.55 475.83 381.99 474.86
  Q 381.55 474.09 382.27 472.80
  Q 385.86 466.36 391.83 462.34
  Q 393.26 463.28 395.93 461.72
  A 1.47 1.43 33.4 0 1 396.86 461.54
  Q 400.88 462.06 403.33 461.10
  Q 406.90 459.71 411.27 457.82
  Z"
/>
<path fill="#292420" d="
  M 122.75 460.32
  Q 124.46 464.22 122.73 470.29
  C 120.78 477.11 116.92 476.87 110.85 477.38
  A 0.54 0.54 0.0 0 1 110.34 476.56
  Q 114.02 470.68 113.68 463.54
  Q 118.16 463.74 122.75 460.32
  Z"
/>
<path fill="#557063" d="
  M 216.66 465.26
  C 213.33 465.05 210.51 468.17 209.02 470.74
  A 0.49 0.49 0.0 0 1 208.13 470.37
  C 209.21 466.29 214.79 457.16 218.98 465.38
  Q 219.19 465.80 218.73 465.77
  C 217.96 465.71 217.33 465.30 216.66 465.26
  Z"
/>
<path fill="#292420" d="
  M 94.00 463.24
  Q 96.97 463.90 96.95 468.43
  Q 96.94 472.34 95.87 475.56
  Q 95.53 476.59 94.45 476.69
  C 91.85 476.94 85.99 477.66 83.68 476.51
  Q 82.13 475.73 81.84 475.03
  Q 79.59 467.36 84.08 463.20
  Q 84.48 462.83 85.02 462.86
  L 94.00 463.24
  Z"
/>
<path fill="#292420" d="
  M 112.47 464.03
  Q 112.54 469.18 110.33 474.09
  C 108.32 478.55 101.34 478.61 97.35 477.50
  Q 96.81 477.35 96.98 476.82
  Q 98.74 471.15 97.77 465.49
  L 112.47 464.03
  Z"
/>
<path fill="#557063" d="
  M 257.92 486.27
  Q 247.26 481.12 234.72 481.69
  A 0.73 0.73 0.0 0 1 233.99 480.74
  C 234.91 477.79 235.58 475.19 237.26 472.45
  Q 239.48 468.81 241.07 464.63
  C 257.40 460.42 271.79 477.56 275.95 491.39
  A 0.95 0.95 0.0 0 1 274.70 492.55
  L 257.92 486.27
  Z"
/>
<path fill="#304138" d="
  M 241.07 464.63
  Q 239.48 468.81 237.26 472.45
  C 235.58 475.19 234.91 477.79 233.99 480.74
  A 0.73 0.73 0.0 0 0 234.72 481.69
  Q 247.26 481.12 257.92 486.27
  Q 243.85 482.67 229.73 485.29
  Q 228.67 485.49 228.50 484.42
  Q 227.53 478.51 225.08 473.08
  Q 224.88 472.62 225.27 472.31
  Q 232.30 466.87 241.07 464.63
  Z"
/>
<path fill="#557063" d="
  M 210.25 487.32
  C 207.37 487.35 206.17 483.10 206.41 480.85
  Q 207.16 473.84 212.00 468.74
  C 214.76 465.83 218.50 465.76 220.84 469.05
  Q 229.64 481.42 225.95 496.74
  A 0.93 0.93 0.0 0 1 224.23 496.98
  C 221.05 491.25 217.36 487.22 210.25 487.32
  Z"
/>
<path fill="#557063" d="
  M 201.27 479.80
  Q 193.79 479.40 188.16 482.11
  Q 185.85 483.22 186.65 480.79
  Q 189.28 472.76 195.73 467.32
  A 0.80 0.79 -32.1 0 1 196.97 467.60
  L 202.46 479.53
  A 0.42 0.42 0.0 0 1 201.87 480.07
  Q 201.77 480.02 201.58 479.90
  Q 201.44 479.81 201.27 479.80
  Z"
/>
</svg>
