<?xml version="1.0" encoding="UTF-8" standalone="no"?>
<svg xmlns="http://www.w3.org/2000/svg" version="1.2" baseProfile="tiny" viewBox="0.00 0.00 500.00 500.00">
<path fill="#000000" d="
  M 0.00 181.93
  L 0.00 179.19
  C 2.25 162.65 13.05 145.47 24.00 132.32
  C 24.76 131.41 24.92 130.57 25.07 129.48
  C 29.63 95.99 43.92 67.61 65.28 42.05
  C 76.43 28.71 113.44 0.10 128.01 25.47
  Q 128.29 25.97 128.77 25.65
  Q 159.83 5.06 198.99 3.04
  C 221.38 1.89 248.09 4.56 251.53 32.16
  C 253.44 47.40 244.01 62.63 232.35 71.78
  C 222.33 79.65 206.69 85.28 193.75 89.46
  A 0.55 0.55 0.0 0 0 193.53 90.37
  L 204.74 101.94
  A 0.90 0.90 0.0 0 0 205.92 102.03
  C 222.30 89.69 242.52 83.91 262.69 81.90
  Q 270.18 81.15 277.10 82.35
  A 1.58 1.58 0.0 0 1 278.35 84.36
  C 273.32 101.26 259.16 112.12 243.33 118.96
  A 0.39 0.39 0.0 0 0 243.51 119.71
  Q 256.23 118.75 267.86 123.18
  C 269.75 123.90 270.58 125.42 269.04 127.05
  Q 255.39 141.40 235.24 144.39
  Q 234.69 144.47 234.89 144.98
  Q 245.50 172.08 239.96 200.00
  C 233.35 233.33 211.95 259.99 185.53 280.28
  C 182.48 282.62 183.99 293.37 184.74 296.76
  Q 184.93 297.58 186.29 298.39
  C 189.94 300.59 193.28 302.54 197.51 303.60
  Q 221.25 309.58 244.75 307.25
  C 250.55 306.68 255.55 305.15 261.45 302.27
  Q 270.13 298.02 279.60 295.83
  Q 282.06 295.26 283.99 293.88
  C 299.79 282.63 314.91 273.42 332.98 266.06
  Q 376.03 248.53 422.42 253.12
  A 1.41 1.40 -58.8 0 0 423.34 252.89
  C 440.76 240.87 464.40 237.63 483.40 247.84
  Q 490.53 251.66 494.52 257.47
  C 504.76 272.36 499.35 295.00 482.85 303.61
  C 474.56 307.94 465.43 309.77 456.27 306.32
  C 439.32 299.95 426.78 287.01 418.27 270.93
  A 0.96 0.95 66.8 0 0 417.12 270.47
  C 404.77 274.51 391.39 280.27 380.98 286.35
  C 366.18 294.98 349.97 310.08 344.30 326.91
  A 1.38 1.36 -47.8 0 0 344.34 327.87
  Q 347.61 335.36 348.19 341.08
  Q 350.81 367.02 344.25 392.11
  A 2.26 2.24 -64.7 0 0 345.09 394.50
  C 350.52 398.48 364.04 409.59 365.25 416.38
  C 366.67 424.26 366.36 431.44 366.22 439.35
  C 365.91 456.36 365.73 469.24 363.04 478.47
  C 361.10 485.14 347.87 489.65 341.58 490.67
  A 1.16 1.16 0.0 0 1 340.24 489.45
  L 340.54 484.98
  A 0.73 0.72 82.9 0 0 339.60 484.24
  Q 328.95 487.66 317.77 486.97
  A 0.87 0.86 -76.0 0 1 317.04 485.75
  L 318.79 481.82
  Q 318.93 481.51 319.23 481.36
  Q 320.00 480.95 319.61 480.11
  A 0.53 0.53 0.0 0 0 319.04 479.81
  Q 308.86 481.69 298.51 481.12
  A 1.34 1.33 -74.0 0 1 297.42 479.14
  Q 303.66 467.74 314.69 460.20
  C 322.00 455.21 322.05 431.96 321.39 424.21
  A 0.56 0.56 0.0 0 0 320.72 423.71
  Q 313.99 425.00 307.50 426.26
  C 301.66 427.40 295.64 419.36 293.45 414.80
  Q 293.21 414.30 292.76 414.61
  Q 285.02 419.87 276.47 423.70
  Q 275.96 423.93 275.91 424.50
  Q 274.57 442.78 270.15 460.57
  A 1.45 1.44 28.5 0 0 270.57 461.97
  Q 277.38 468.26 282.84 475.74
  A 1.56 1.56 0.0 0 1 281.76 478.20
  C 272.21 479.34 263.33 477.08 254.80 472.84
  A 0.37 0.37 0.0 0 0 254.27 473.22
  Q 255.53 484.81 253.36 496.42
  Q 253.26 496.99 253.18 497.03
  A 1.50 1.43 -39.9 0 1 251.58 496.93
  Q 242.02 489.47 236.29 478.82
  A 0.38 0.38 0.0 0 0 235.58 478.96
  Q 234.63 487.31 230.70 494.70
  A 0.66 0.66 0.0 0 1 229.61 494.81
  Q 223.02 486.71 219.64 476.59
  Q 219.02 474.71 217.25 474.93
  Q 211.46 475.66 205.86 474.77
  A 0.85 0.85 0.0 0 1 205.22 473.57
  C 207.35 468.83 212.01 464.17 215.69 460.54
  Q 216.05 460.18 216.05 459.67
  C 216.05 449.33 219.16 441.47 221.71 432.22
  A 0.62 0.61 15.3 0 0 221.27 431.46
  Q 197.81 425.40 179.67 409.30
  A 0.42 0.42 0.0 0 0 178.98 409.66
  C 180.12 420.32 181.74 438.27 175.93 447.73
  C 162.74 469.25 140.99 480.11 115.81 479.86
  A 1.50 1.50 0.0 0 1 114.67 477.41
  L 117.63 473.82
  A 0.44 0.44 0.0 0 0 117.18 473.11
  Q 104.64 476.25 91.72 476.74
  A 1.28 1.28 0.0 0 1 90.69 474.64
  Q 91.12 474.14 90.88 473.64
  Q 90.67 473.20 90.20 473.32
  Q 85.09 474.57 80.00 473.52
  A 1.09 1.09 0.0 0 1 79.45 471.68
  C 86.25 464.94 96.21 459.93 104.87 455.99
  C 108.75 454.22 110.87 451.57 113.45 448.47
  C 122.80 437.25 133.31 424.43 136.31 410.58
  Q 138.93 398.42 139.02 385.92
  Q 139.03 385.41 138.67 385.06
  Q 135.14 381.63 133.92 376.82
  A 0.94 0.94 0.0 0 0 132.41 376.33
  C 130.77 377.69 120.88 385.01 120.35 379.45
  C 118.83 363.34 124.00 348.51 133.58 335.83
  A 0.44 0.43 6.9 0 0 133.06 335.17
  C 130.88 336.08 123.11 338.86 121.04 337.22
  A 0.87 0.85 29.8 0 1 120.77 336.26
  C 124.62 325.75 133.93 317.43 143.73 312.56
  A 1.34 1.33 72.0 0 0 144.44 311.15
  C 142.91 302.09 140.17 294.24 133.07 288.06
  Q 132.68 287.72 132.17 287.68
  Q 102.95 285.46 75.96 274.29
  C 47.70 262.60 17.11 236.78 8.91 206.03
  Q 8.47 204.39 7.91 203.62
  Q 0.92 193.96 0.00 181.93
  Z"
/>
<g stroke-width="2.00" fill="none" stroke-linecap="butt">
<path stroke="#f2e18c" vector-effect="non-scaling-stroke" d="
  M 229.37 7.75
  L 229.59 8.64
  A 0.55 0.55 0.0 0 1 228.91 9.31
  Q 221.87 7.31 214.67 8.44
  C 212.94 8.71 211.80 8.03 210.04 8.51
  Q 196.86 12.15 184.31 17.60
  C 179.43 19.72 174.37 20.59 169.47 22.93
  C 158.53 28.15 150.18 31.84 143.30 38.32
  Q 142.92 38.68 142.49 38.39
  L 141.50 37.74
  Q 140.91 37.35 141.37 36.83
  C 146.94 30.48 151.94 27.95 158.24 24.02
  Q 158.53 23.84 158.51 23.50
  Q 158.50 23.35 158.47 23.19
  Q 158.42 22.88 158.70 22.74
  Q 163.89 19.90 168.36 16.05
  C 171.48 13.37 176.78 13.18 175.82 7.97"
/>
<path stroke="#f2e18c" vector-effect="non-scaling-stroke" d="
  M 40.74 139.70
  Q 44.94 137.59 48.94 135.89
  C 52.10 134.55 55.21 132.10 59.25 130.74
  Q 66.18 128.40 75.79 123.65
  C 95.80 113.76 116.72 103.23 133.64 88.55
  Q 138.82 84.05 140.98 80.70
  C 147.91 69.99 144.46 53.94 130.16 52.07
  C 119.36 50.66 109.08 53.83 99.29 59.43
  Q 98.75 59.73 98.33 59.28
  C 92.68 53.24 88.83 49.63 79.69 50.92
  Q 79.00 51.02 79.40 50.45
  C 80.37 49.09 80.34 47.73 81.10 46.44
  Q 82.58 43.91 84.46 41.65
  A 1.05 1.02 20.9 0 1 85.32 41.28
  C 88.59 41.47 88.90 39.15 90.46 37.52
  Q 93.05 34.80 95.76 32.21
  C 98.28 29.79 102.07 28.29 104.63 25.40
  A 0.64 0.64 0.0 0 0 103.90 24.39
  C 99.01 26.45 94.37 28.75 90.16 32.12
  C 87.61 34.16 85.38 35.84 82.31 37.86
  C 79.06 40.00 77.77 43.22 75.22 45.63
  Q 71.60 49.04 68.42 53.08
  Q 66.85 53.51 65.67 55.17
  Q 65.39 55.58 64.91 55.74
  C 63.51 56.23 62.82 56.41 61.68 57.43
  Q 56.22 62.35 51.03 67.52
  Q 50.65 67.90 50.14 67.75
  L 48.90 67.40"
/>
<path stroke="#dac46b" vector-effect="non-scaling-stroke" d="
  M 124.29 23.26
  L 122.59 30.24
  Q 122.43 30.90 123.09 30.74
  L 126.33 29.96"
/>
<path stroke="#f8eebd" vector-effect="non-scaling-stroke" d="
  M 33.94 99.79
  Q 35.25 100.99 36.24 100.70
  Q 36.97 100.48 37.42 99.08
  C 41.10 87.75 46.11 80.35 50.32 70.65
  A 1.00 0.99 -76.6 0 0 49.47 69.26
  L 47.88 69.16"
/>
<path stroke="#f8eebd" vector-effect="non-scaling-stroke" d="
  M 68.42 53.08
  Q 65.37 55.74 63.64 59.59
  C 61.93 63.40 58.98 65.84 57.20 69.89
  Q 53.61 78.06 49.97 86.23
  C 49.34 87.65 48.18 88.57 47.49 90.01
  A 0.40 0.39 -6.1 0 0 48.09 90.49
  C 52.37 87.14 54.39 82.76 57.52 78.98
  C 62.40 73.08 65.21 65.71 70.56 60.27
  Q 74.10 56.66 77.46 53.14
  A 0.97 0.97 0.0 0 0 76.82 51.50
  Q 72.75 51.22 68.42 53.08"
/>
<path stroke="#b9b9b8" vector-effect="non-scaling-stroke" d="
  M 249.28 113.54
  L 228.96 120.01
  Q 227.95 120.34 228.99 120.56
  L 231.76 121.15"
/>
<path stroke="#b9b9b8" vector-effect="non-scaling-stroke" d="
  M 224.56 143.84
  Q 229.70 152.27 232.34 154.42
  Q 233.77 155.58 234.16 156.72
  Q 234.32 157.20 234.72 157.52
  L 237.69 159.87"
/>
<path stroke="#b9b9b8" vector-effect="non-scaling-stroke" d="
  M 226.76 230.87
  L 225.30 230.71
  Q 224.83 230.66 224.48 230.98
  Q 220.85 234.23 216.38 236.10
  C 214.38 236.94 212.34 238.61 210.06 239.10
  C 206.39 239.89 203.02 241.86 200.50 242.84
  C 179.34 251.06 158.50 254.41 136.25 257.99
  C 122.22 260.25 106.49 260.39 90.83 260.78
  C 82.98 260.98 74.83 260.24 66.78 260.10
  Q 65.22 260.07 61.20 259.36
  Q 57.07 258.63 53.61 260.10"
/>
<path stroke="#b9b9b8" vector-effect="non-scaling-stroke" d="
  M 72.91 133.49
  L 89.03 131.79"
/>
<path stroke="#b9b9b8" vector-effect="non-scaling-stroke" d="
  M 161.22 100.39
  L 164.04 101.38
  Q 164.51 101.54 165.00 101.44
  Q 170.81 100.23 176.30 102.46
  C 182.52 105.00 190.29 108.04 195.40 112.43"
/>
<path stroke="#b9b9b8" vector-effect="non-scaling-stroke" d="
  M 184.32 299.31
  Q 182.28 300.64 180.08 302.39
  C 174.64 306.73 167.69 309.84 161.19 312.39"
/>
<path stroke="#b9b9b8" vector-effect="non-scaling-stroke" d="
  M 133.22 285.88
  L 134.18 285.79
  A 0.75 0.74 -44.3 0 0 134.20 284.31
  Q 122.19 282.93 110.01 280.47
  Q 106.41 279.74 105.93 281.51"
/>
<path stroke="#b9b9b8" vector-effect="non-scaling-stroke" d="
  M 237.11 119.18
  Q 234.57 117.75 231.39 119.82
  Q 230.88 120.16 231.38 120.52
  L 231.75 120.79"
/>
<path stroke="#f8eebd" vector-effect="non-scaling-stroke" d="
  M 456.44 243.75
  Q 456.04 246.83 454.56 249.93
  Q 454.05 251.00 451.46 254.20
  C 448.04 258.40 448.60 261.77 448.28 266.81
  C 447.88 272.95 443.76 277.62 440.96 282.91
  C 439.42 285.80 439.42 289.25 435.93 291.68"
/>
<path stroke="#f8eebd" vector-effect="non-scaling-stroke" d="
  M 483.77 250.21
  C 482.35 252.78 480.19 254.75 479.02 257.10
  C 477.17 260.79 475.59 267.45 471.37 269.30
  Q 467.95 270.80 464.51 272.27
  C 462.26 273.24 460.35 274.96 458.08 276.33
  Q 450.66 280.83 450.70 289.70
  Q 450.71 290.29 450.26 290.67
  L 446.30 294.04
  Q 445.82 294.45 445.24 294.24
  Q 442.80 293.36 441.14 295.80"
/>
<path stroke="#b9b9b8" vector-effect="non-scaling-stroke" d="
  M 356.72 303.42
  Q 347.76 305.24 342.07 312.46
  Q 341.03 313.77 340.23 314.30
  Q 338.19 315.66 337.46 314.45"
/>
<path stroke="#e7e1c1" vector-effect="non-scaling-stroke" d="
  M 310.89 295.23
  Q 316.56 305.34 309.27 312.30
  Q 302.83 318.44 293.52 320.64"
/>
<path stroke="#ddcb88" vector-effect="non-scaling-stroke" d="
  M 320.34 322.22
  C 317.76 321.05 315.39 322.47 313.13 322.49
  Q 310.42 322.51 307.70 322.51
  C 303.67 322.51 299.95 321.03 295.37 321.68"
/>
<path stroke="#ececea" vector-effect="non-scaling-stroke" d="
  M 158.99 323.18
  Q 156.30 317.30 151.26 315.71
  C 148.93 314.97 145.81 315.34 143.02 314.91"
/>
<path stroke="#ececea" vector-effect="non-scaling-stroke" d="
  M 142.18 331.51
  Q 145.24 330.15 146.43 328.09
  A 0.42 0.42 0.0 0 0 145.95 327.47
  Q 143.44 328.22 141.21 330.47"
/>
<path stroke="#e7e1c1" vector-effect="non-scaling-stroke" d="
  M 292.78 322.42
  Q 293.60 331.99 288.50 339.32
  C 281.93 348.77 265.45 346.87 255.82 344.86
  C 253.94 344.47 251.43 345.19 249.62 342.94
  A 0.81 0.80 -28.9 0 0 248.74 342.69
  Q 248.09 342.93 247.50 343.64"
/>
<path stroke="#ddcb88" vector-effect="non-scaling-stroke" d="
  M 282.34 364.19
  Q 279.37 363.04 271.76 361.22
  Q 264.16 359.40 253.44 352.53"
/>
<path stroke="#b9b9b8" vector-effect="non-scaling-stroke" d="
  M 305.42 329.94
  C 307.85 328.28 309.47 325.89 312.90 326.31
  A 1.15 1.11 34.2 0 0 313.54 326.20
  Q 314.68 325.67 315.44 324.70"
/>
<path stroke="#e7e1c1" vector-effect="non-scaling-stroke" d="
  M 245.56 344.70
  C 246.00 361.47 235.08 369.92 219.51 369.40
  Q 208.29 369.03 200.73 361.63
  A 1.79 1.78 45.1 0 0 198.23 361.62
  Q 198.17 361.68 198.18 362.49"
/>
<path stroke="#4d4c4c" vector-effect="non-scaling-stroke" d="
  M 342.11 394.00
  Q 340.98 394.63 340.98 396.29
  Q 340.98 396.78 340.62 397.10
  C 338.67 398.86 339.63 401.16 336.76 402.54
  C 333.88 403.91 333.49 406.29 330.99 407.87
  C 323.35 412.70 316.30 418.81 307.12 420.46
  Q 304.20 420.98 301.35 421.92"
/>
<path stroke="#4d4c4c" vector-effect="non-scaling-stroke" d="
  M 290.55 398.41
  C 292.46 394.59 292.91 390.51 294.55 386.86
  Q 297.25 380.88 298.79 374.47
  C 299.34 372.19 300.75 370.33 301.58 368.14
  Q 303.33 363.47 305.91 358.34"
/>
<path stroke="#4d4c4c" vector-effect="non-scaling-stroke" d="
  M 364.55 436.69
  Q 357.17 440.99 350.25 442.68
  Q 336.72 445.98 322.69 444.85"
/>
<path stroke="#4d4c4c" vector-effect="non-scaling-stroke" d="
  M 226.99 407.25
  Q 222.74 408.02 218.51 408.47
  Q 215.49 408.80 211.54 409.43
  C 204.17 410.61 196.04 409.23 188.59 408.80
  C 185.06 408.59 182.22 406.89 178.63 406.24"
/>
<path stroke="#4d4c4c" vector-effect="non-scaling-stroke" d="
  M 167.28 396.67
  L 156.88 385.44"
/>
<path stroke="#4d4c4c" vector-effect="non-scaling-stroke" d="
  M 153.01 351.42
  L 155.33 353.87
  Q 155.78 354.34 156.26 353.92
  C 160.96 349.79 163.62 336.37 159.82 330.99"
/>
<path stroke="#4d4c4c" vector-effect="non-scaling-stroke" d="
  M 177.38 436.09
  L 177.22 431.46
  Q 177.20 431.02 176.76 431.00
  Q 176.62 431.00 176.48 431.00
  Q 176.07 431.01 176.03 430.60
  Q 175.43 424.12 172.49 419.97
  C 166.51 411.52 151.67 398.91 139.88 401.93"
/>
<path stroke="#676664" vector-effect="non-scaling-stroke" d="
  M 145.42 458.58
  Q 155.96 451.43 152.57 440.07
  C 150.52 433.17 145.86 435.38 140.73 435.10
  Q 133.96 434.73 127.31 433.20"
/>
<path stroke="#676664" vector-effect="non-scaling-stroke" d="
  M 142.00 457.70
  Q 136.28 453.85 129.61 452.82
  C 125.10 452.13 121.47 453.84 117.97 456.40"
/>
<path stroke="#676664" vector-effect="non-scaling-stroke" d="
  M 219.36 468.62
  Q 220.89 468.92 221.45 468.10
  Q 221.62 467.84 221.61 466.34
  C 221.59 464.58 223.22 464.00 224.81 464.34
  Q 230.60 465.59 236.08 463.50
  C 239.11 462.35 244.38 457.87 245.50 455.00
  Q 247.25 450.51 245.02 445.90
  C 240.72 437.05 233.29 440.99 226.74 442.88
  A 1.92 1.91 -15.2 0 1 224.36 441.52
  Q 223.85 439.54 224.75 437.91
  Q 225.00 437.45 225.00 436.93
  L 225.00 434.46
  Q 225.00 433.91 224.46 433.77
  Q 223.95 433.64 223.26 433.76"
/>
<path stroke="#f2e18c" vector-effect="non-scaling-stroke" d="
  M 99.04 464.75
  C 95.34 465.28 89.49 472.53 87.14 467.76"
/>
<path stroke="#f2e18c" vector-effect="non-scaling-stroke" d="
  M 97.65 468.46
  Q 98.49 469.83 101.38 468.55
  C 104.69 467.09 108.04 463.99 111.27 462.10
  A 1.23 1.22 63.9 0 0 111.78 460.60
  Q 111.29 459.33 109.27 459.48"
/>
<path stroke="#f2e18c" vector-effect="non-scaling-stroke" d="
  M 123.22 470.49
  C 123.82 471.63 124.77 471.81 125.84 471.07
  Q 131.53 467.15 135.02 463.77
  Q 135.63 463.18 134.87 461.88"
/>
<path stroke="#f2e18c" vector-effect="non-scaling-stroke" d="
  M 321.56 485.33
  Q 325.35 480.50 328.91 475.69
  Q 329.67 474.67 329.73 473.84
  A 0.88 0.88 0.0 0 0 328.18 473.20
  L 321.76 480.57"
/>
<path stroke="#f2e18c" vector-effect="non-scaling-stroke" d="
  M 342.40 486.18
  Q 346.54 484.23 346.87 477.89
  Q 346.90 477.35 346.38 477.50
  Q 345.62 477.73 345.26 478.49
  Q 345.07 478.89 344.63 478.97
  Q 344.20 479.06 343.71 478.94"
/>
<path stroke="#f5e7a0" vector-effect="non-scaling-stroke" d="
  M 225.31 485.16
  Q 226.38 480.96 223.91 476.83
  Q 223.67 476.43 223.21 476.30
  Q 221.97 475.95 221.29 476.72"
/>
<path stroke="#dac46b" vector-effect="non-scaling-stroke" d="
  M 247.07 490.99
  Q 247.41 490.97 247.64 490.85
  A 0.64 0.64 0.0 0 0 247.91 489.96
  L 239.98 476.50
  Q 239.74 476.09 239.35 476.35
  Q 238.45 476.96 238.43 478.87"
/>
</g>
<path fill="#f5e8a9" d="
  M 229.37 7.75
  L 229.59 8.64
  A 0.55 0.55 0.0 0 1 228.91 9.31
  Q 221.87 7.31 214.67 8.44
  C 212.94 8.71 211.80 8.03 210.04 8.51
  Q 196.86 12.15 184.31 17.60
  C 179.43 19.72 174.37 20.59 169.47 22.93
  C 158.53 28.15 150.18 31.84 143.30 38.32
  Q 142.92 38.68 142.49 38.39
  L 141.50 37.74
  Q 140.91 37.35 141.37 36.83
  C 146.94 30.48 151.94 27.95 158.24 24.02
  Q 158.53 23.84 158.51 23.50
  Q 158.50 23.35 158.47 23.19
  Q 158.42 22.88 158.70 22.74
  Q 163.89 19.90 168.36 16.05
  C 171.48 13.37 176.78 13.18 175.82 7.97
  C 191.86 4.64 213.52 2.49 229.37 7.75
  Z"
/>
<path fill="#efda6f" d="
  M 229.37 7.75
  Q 243.84 12.67 248.20 25.55
  C 254.33 43.67 242.84 62.12 228.40 72.16
  C 222.39 76.34 215.60 79.63 208.11 82.47
  C 183.82 91.68 161.02 98.28 137.22 105.40
  C 106.71 114.52 81.52 126.56 49.71 142.30
  C 47.09 143.59 44.32 144.51 41.58 145.53
  A 0.61 0.61 0.0 0 1 40.76 144.96
  L 40.74 139.70
  Q 44.94 137.59 48.94 135.89
  C 52.10 134.55 55.21 132.10 59.25 130.74
  Q 66.18 128.40 75.79 123.65
  C 95.80 113.76 116.72 103.23 133.64 88.55
  Q 138.82 84.05 140.98 80.70
  C 147.91 69.99 144.46 53.94 130.16 52.07
  C 119.36 50.66 109.08 53.83 99.29 59.43
  Q 98.75 59.73 98.33 59.28
  C 92.68 53.24 88.83 49.63 79.69 50.92
  Q 79.00 51.02 79.40 50.45
  C 80.37 49.09 80.34 47.73 81.10 46.44
  Q 82.58 43.91 84.46 41.65
  A 1.05 1.02 20.9 0 1 85.32 41.28
  C 88.59 41.47 88.90 39.15 90.46 37.52
  Q 93.05 34.80 95.76 32.21
  C 98.28 29.79 102.07 28.29 104.63 25.40
  A 0.64 0.64 0.0 0 0 103.90 24.39
  C 99.01 26.45 94.37 28.75 90.16 32.12
  C 87.61 34.16 85.38 35.84 82.31 37.86
  C 79.06 40.00 77.77 43.22 75.22 45.63
  Q 71.60 49.04 68.42 53.08
  Q 66.85 53.51 65.67 55.17
  Q 65.39 55.58 64.91 55.74
  C 63.51 56.23 62.82 56.41 61.68 57.43
  Q 56.22 62.35 51.03 67.52
  Q 50.65 67.90 50.14 67.75
  L 48.90 67.40
  C 62.28 46.12 79.50 24.09 105.69 17.94
  Q 117.20 15.23 124.29 23.26
  L 122.59 30.24
  Q 122.43 30.90 123.09 30.74
  L 126.33 29.96
  Q 148.68 13.46 175.82 7.97
  C 176.78 13.18 171.48 13.37 168.36 16.05
  Q 163.89 19.90 158.70 22.74
  Q 158.42 22.88 158.47 23.19
  Q 158.50 23.35 158.51 23.50
  Q 158.53 23.84 158.24 24.02
  C 151.94 27.95 146.94 30.48 141.37 36.83
  Q 140.91 37.35 141.50 37.74
  L 142.49 38.39
  Q 142.92 38.68 143.30 38.32
  C 150.18 31.84 158.53 28.15 169.47 22.93
  C 174.37 20.59 179.43 19.72 184.31 17.60
  Q 196.86 12.15 210.04 8.51
  C 211.80 8.03 212.94 8.71 214.67 8.44
  Q 221.87 7.31 228.91 9.31
  A 0.55 0.55 0.0 0 0 229.59 8.64
  L 229.37 7.75
  Z"
/>
<path fill="#c5ad67" d="
  M 124.29 23.26
  Q 126.26 26.13 126.33 29.96
  L 123.09 30.74
  Q 122.43 30.90 122.59 30.24
  L 124.29 23.26
  Z"
/>
<path fill="#f5e8a9" d="
  M 40.74 139.70
  Q 40.89 129.62 38.58 121.03
  C 38.14 119.36 36.79 118.35 35.26 119.74
  Q 31.17 123.45 27.83 127.71
  A 0.29 0.29 0.0 0 1 27.31 127.49
  Q 29.58 113.43 33.94 99.79
  Q 35.25 100.99 36.24 100.70
  Q 36.97 100.48 37.42 99.08
  C 41.10 87.75 46.11 80.35 50.32 70.65
  A 1.00 0.99 -76.6 0 0 49.47 69.26
  L 47.88 69.16
  L 48.90 67.40
  L 50.14 67.75
  Q 50.65 67.90 51.03 67.52
  Q 56.22 62.35 61.68 57.43
  C 62.82 56.41 63.51 56.23 64.91 55.74
  Q 65.39 55.58 65.67 55.17
  Q 66.85 53.51 68.42 53.08
  Q 65.37 55.74 63.64 59.59
  C 61.93 63.40 58.98 65.84 57.20 69.89
  Q 53.61 78.06 49.97 86.23
  C 49.34 87.65 48.18 88.57 47.49 90.01
  A 0.40 0.39 -6.1 0 0 48.09 90.49
  C 52.37 87.14 54.39 82.76 57.52 78.98
  C 62.40 73.08 65.21 65.71 70.56 60.27
  Q 74.10 56.66 77.46 53.14
  A 0.97 0.97 0.0 0 0 76.82 51.50
  Q 72.75 51.22 68.42 53.08
  Q 71.60 49.04 75.22 45.63
  C 77.77 43.22 79.06 40.00 82.31 37.86
  C 85.38 35.84 87.61 34.16 90.16 32.12
  C 94.37 28.75 99.01 26.45 103.90 24.39
  A 0.64 0.64 0.0 0 1 104.63 25.40
  C 102.07 28.29 98.28 29.79 95.76 32.21
  Q 93.05 34.80 90.46 37.52
  C 88.90 39.15 88.59 41.47 85.32 41.28
  A 1.05 1.02 20.9 0 0 84.46 41.65
  Q 82.58 43.91 81.10 46.44
  C 80.34 47.73 80.37 49.09 79.40 50.45
  Q 79.00 51.02 79.69 50.92
  C 88.83 49.63 92.68 53.24 98.33 59.28
  Q 98.75 59.73 99.29 59.43
  C 109.08 53.83 119.36 50.66 130.16 52.07
  C 144.46 53.94 147.91 69.99 140.98 80.70
  Q 138.82 84.05 133.64 88.55
  C 116.72 103.23 95.80 113.76 75.79 123.65
  Q 66.18 128.40 59.25 130.74
  C 55.21 132.10 52.10 134.55 48.94 135.89
  Q 44.94 137.59 40.74 139.70
  Z"
/>
<path fill="#fbf3d1" d="
  M 68.42 53.08
  Q 72.75 51.22 76.82 51.50
  A 0.97 0.97 0.0 0 1 77.46 53.14
  Q 74.10 56.66 70.56 60.27
  C 65.21 65.71 62.40 73.08 57.52 78.98
  C 54.39 82.76 52.37 87.14 48.09 90.49
  A 0.40 0.39 -6.1 0 1 47.49 90.01
  C 48.18 88.57 49.34 87.65 49.97 86.23
  Q 53.61 78.06 57.20 69.89
  C 58.98 65.84 61.93 63.40 63.64 59.59
  Q 65.37 55.74 68.42 53.08
  Z"
/>
<path fill="#fbf3d1" d="
  M 47.88 69.16
  L 49.47 69.26
  A 1.00 0.99 -76.6 0 1 50.32 70.65
  C 46.11 80.35 41.10 87.75 37.42 99.08
  Q 36.97 100.48 36.24 100.70
  Q 35.25 100.99 33.94 99.79
  Q 39.22 83.61 47.88 69.16
  Z"
/>
<path fill="#d9d9d9" d="
  M 249.28 113.54
  L 228.96 120.01
  Q 227.95 120.34 228.99 120.56
  L 231.76 121.15
  C 232.24 121.50 232.82 121.78 233.46 121.69
  C 236.76 121.24 240.09 121.84 243.18 121.60
  Q 255.69 120.64 267.04 124.57
  A 1.21 1.21 0.0 0 1 267.44 126.63
  C 254.12 138.28 239.36 144.87 221.54 142.11
  A 0.22 0.22 0.0 0 0 221.42 142.53
  L 224.56 143.84
  Q 229.70 152.27 232.34 154.42
  Q 233.77 155.58 234.16 156.72
  Q 234.32 157.20 234.72 157.52
  L 237.69 159.87
  Q 245.04 197.06 226.76 230.87
  L 225.30 230.71
  Q 224.83 230.66 224.48 230.98
  Q 220.85 234.23 216.38 236.10
  C 214.38 236.94 212.34 238.61 210.06 239.10
  C 206.39 239.89 203.02 241.86 200.50 242.84
  C 179.34 251.06 158.50 254.41 136.25 257.99
  C 122.22 260.25 106.49 260.39 90.83 260.78
  C 82.98 260.98 74.83 260.24 66.78 260.10
  Q 65.22 260.07 61.20 259.36
  Q 57.07 258.63 53.61 260.10
  C 37.26 248.75 18.09 228.89 11.90 209.49
  Q 11.64 208.69 12.26 209.27
  C 14.13 211.05 16.85 214.47 19.58 214.52
  Q 20.08 214.53 20.36 214.12
  C 24.58 208.01 29.78 200.65 36.27 197.26
  C 43.61 193.44 52.68 192.79 60.79 191.56
  Q 61.27 191.49 61.30 191.00
  Q 61.92 180.96 67.47 172.53
  Q 68.32 171.23 69.06 172.59
  Q 77.10 187.27 82.23 203.21
  Q 82.31 203.47 82.57 203.54
  Q 82.72 203.59 82.83 203.70
  A 0.11 0.11 0.0 0 0 83.02 203.60
  Q 79.73 186.42 70.29 171.71
  Q 69.15 169.93 67.38 170.32
  Q 66.84 170.44 66.54 170.91
  Q 61.44 179.04 58.97 188.31
  A 2.71 2.70 -85.2 0 1 56.62 190.30
  C 46.15 191.32 35.87 193.05 28.39 201.36
  Q 23.49 206.80 19.28 212.55
  A 0.55 0.54 38.9 0 1 18.48 212.63
  C 8.43 203.72 0.17 190.92 2.31 176.44
  C 5.10 157.61 21.71 136.02 34.57 122.55
  Q 35.09 122.01 35.40 121.75
  A 1.15 1.15 0.0 0 1 37.26 122.49
  Q 38.87 134.42 38.89 146.49
  A 1.80 1.80 0.0 0 0 41.45 148.12
  L 72.91 133.49
  L 89.03 131.79
  L 87.37 135.25
  A 0.45 0.45 0.0 0 0 88.15 135.70
  Q 93.04 128.50 99.63 122.79
  C 104.85 118.27 111.69 116.09 118.22 113.90
  Q 139.60 106.73 161.22 100.39
  L 164.04 101.38
  Q 164.51 101.54 165.00 101.44
  Q 170.81 100.23 176.30 102.46
  C 182.52 105.00 190.29 108.04 195.40 112.43
  Q 193.32 114.55 192.81 116.67
  Q 192.57 117.68 193.23 116.88
  C 212.29 93.69 241.22 84.91 270.19 83.51
  C 271.87 83.43 273.62 83.82 275.40 83.75
  A 0.86 0.86 0.0 0 1 276.26 84.86
  C 272.09 98.38 261.36 107.26 249.28 113.54
  Z"
/>
<g stroke-width="2.00" fill="none" stroke-linecap="butt">
<path stroke="#80807e" vector-effect="non-scaling-stroke" d="
  M 148.71 210.76
  C 158.07 205.56 164.45 200.41 169.49 191.29
  Q 176.36 178.88 178.29 167.53"
/>
<path stroke="#6d6d6d" vector-effect="non-scaling-stroke" d="
  M 178.29 167.53
  Q 179.46 161.16 178.75 155.58
  Q 178.68 154.99 178.09 154.91
  L 152.25 151.20"
/>
<path stroke="#80807e" vector-effect="non-scaling-stroke" d="
  M 152.25 151.20
  Q 139.04 149.59 126.58 149.99
  A 1.60 1.59 0.8 0 0 125.03 151.49
  C 124.25 165.17 123.31 177.50 118.34 190.39
  A 1.05 1.04 -60.9 0 1 116.74 190.85
  Q 116.58 190.73 116.26 190.44
  Q 115.99 190.21 115.88 189.85
  C 111.98 177.96 112.10 163.96 112.62 150.54
  Q 112.65 149.95 112.06 150.01
  L 102.47 150.96"
/>
<path stroke="#6d6d6d" vector-effect="non-scaling-stroke" d="
  M 102.47 150.96
  L 87.80 153.40
  Q 87.28 153.48 87.28 154.01
  L 87.31 161.54"
/>
<path stroke="#80807e" vector-effect="non-scaling-stroke" d="
  M 87.31 161.54
  C 87.93 175.19 90.30 186.49 99.17 197.02"
/>
<path stroke="#ececea" vector-effect="non-scaling-stroke" d="
  M 152.25 151.20
  Q 159.17 154.39 166.42 156.67
  C 170.79 158.04 175.19 163.94 178.29 167.53"
/>
<path stroke="#ececea" vector-effect="non-scaling-stroke" d="
  M 87.31 161.54
  Q 87.85 160.01 89.26 158.21
  C 90.82 156.21 93.85 155.39 95.91 153.74
  C 98.18 151.94 99.87 151.63 102.47 150.96"
/>
</g>
<path fill="#fbf3d1" d="
  M 60.82 105.81
  C 62.14 100.99 73.52 91.91 78.32 90.70
  A 0.54 0.54 0.0 0 1 78.92 91.48
  C 76.12 96.67 67.94 104.87 62.98 108.05
  Q 62.61 108.29 62.17 108.19
  Q 60.28 107.76 60.82 105.81
  Z"
/>
<path fill="#989897" d="
  M 195.40 112.43
  C 190.29 108.04 182.52 105.00 176.30 102.46
  Q 170.81 100.23 165.00 101.44
  Q 164.51 101.54 164.04 101.38
  L 161.22 100.39
  Q 174.76 96.00 188.26 91.53
  C 190.70 90.72 191.34 90.78 193.24 92.64
  Q 198.59 97.86 203.35 103.41
  A 0.69 0.69 0.0 0 1 203.25 104.40
  Q 198.65 107.93 195.40 112.43
  Z"
/>
<path fill="#989897" d="
  M 249.28 113.54
  Q 243.00 117.69 237.11 119.18
  Q 234.57 117.75 231.39 119.82
  Q 230.88 120.16 231.38 120.52
  L 231.75 120.79
  L 231.76 121.15
  L 228.99 120.56
  Q 227.95 120.34 228.96 120.01
  L 249.28 113.54
  Z"
/>
<path fill="#d9d9d9" d="
  M 237.11 119.18
  L 231.75 120.79
  L 231.38 120.52
  Q 230.88 120.16 231.39 119.82
  Q 234.57 117.75 237.11 119.18
  Z"
/>
<path fill="#989897" d="
  M 89.03 131.79
  L 72.91 133.49
  L 97.13 122.23
  A 0.22 0.21 -81.5 0 1 97.38 122.57
  L 89.03 131.79
  Z"
/>
<path fill="#000000" d="
  M 148.71 210.76
  C 158.07 205.56 164.45 200.41 169.49 191.29
  Q 176.36 178.88 178.29 167.53
  Q 179.46 161.16 178.75 155.58
  Q 178.68 154.99 178.09 154.91
  L 152.25 151.20
  Q 139.04 149.59 126.58 149.99
  A 1.60 1.59 0.8 0 0 125.03 151.49
  C 124.25 165.17 123.31 177.50 118.34 190.39
  A 1.05 1.04 -60.9 0 1 116.74 190.85
  Q 116.58 190.73 116.26 190.44
  Q 115.99 190.21 115.88 189.85
  C 111.98 177.96 112.10 163.96 112.62 150.54
  Q 112.65 149.95 112.06 150.01
  L 102.47 150.96
  L 87.80 153.40
  Q 87.28 153.48 87.28 154.01
  L 87.31 161.54
  C 87.93 175.19 90.30 186.49 99.17 197.02
  C 87.22 185.57 81.71 170.97 80.89 154.61
  C 80.79 152.63 79.98 149.91 80.98 147.38
  A 1.49 1.48 6.2 0 1 82.14 146.45
  C 117.12 140.84 153.02 141.89 188.01 146.95
  Q 189.41 147.15 193.03 148.49
  Q 193.53 148.68 193.50 149.21
  C 193.30 153.40 192.09 157.22 191.20 160.86
  C 187.13 177.53 179.36 195.68 167.08 208.07
  Q 166.16 209.01 165.02 209.45
  Q 164.16 209.78 164.77 209.10
  Q 170.84 202.30 175.38 194.39
  Q 176.73 192.05 175.04 194.16
  C 169.00 201.73 158.83 209.25 148.71 210.76
  Z"
/>
<g stroke-width="2.00" fill="none" stroke-linecap="butt">
<path stroke="#e2997e" vector-effect="non-scaling-stroke" d="
  M 122.36 158.47
  Q 118.74 155.81 114.56 158.36"
/>
<path stroke="#e2997e" vector-effect="non-scaling-stroke" d="
  M 121.32 170.38
  Q 117.85 171.56 114.64 168.51"
/>
</g>
<path fill="#989897" d="
  M 224.56 143.84
  L 232.25 144.52
  A 0.88 0.86 -8.4 0 1 232.97 145.04
  Q 235.95 151.97 237.69 159.87
  L 234.72 157.52
  Q 234.32 157.20 234.16 156.72
  Q 233.77 155.58 232.34 154.42
  Q 229.70 152.27 224.56 143.84
  Z"
/>
<path fill="#c93f2a" d="
  M 122.36 158.47
  Q 118.74 155.81 114.56 158.36
  L 114.70 150.33
  Q 114.71 149.70 115.34 149.71
  L 122.45 149.83
  Q 123.05 149.84 123.00 150.43
  L 122.36 158.47
  Z"
/>
<path fill="#fffffb" d="
  M 152.25 151.20
  Q 159.17 154.39 166.42 156.67
  C 170.79 158.04 175.19 163.94 178.29 167.53
  Q 176.36 178.88 169.49 191.29
  C 164.45 200.41 158.07 205.56 148.71 210.76
  C 131.11 215.00 111.77 210.66 99.17 197.02
  C 90.30 186.49 87.93 175.19 87.31 161.54
  Q 87.85 160.01 89.26 158.21
  C 90.82 156.21 93.85 155.39 95.91 153.74
  C 98.18 151.94 99.87 151.63 102.47 150.96
  L 112.06 150.01
  Q 112.65 149.95 112.62 150.54
  C 112.10 163.96 111.98 177.96 115.88 189.85
  Q 115.99 190.21 116.26 190.44
  Q 116.58 190.73 116.74 190.85
  A 1.05 1.04 -60.9 0 0 118.34 190.39
  C 123.31 177.50 124.25 165.17 125.03 151.49
  A 1.60 1.59 0.8 0 1 126.58 149.99
  Q 139.04 149.59 152.25 151.20
  Z"
/>
<path fill="#d9d9d9" d="
  M 102.47 150.96
  C 99.87 151.63 98.18 151.94 95.91 153.74
  C 93.85 155.39 90.82 156.21 89.26 158.21
  Q 87.85 160.01 87.31 161.54
  L 87.28 154.01
  Q 87.28 153.48 87.80 153.40
  L 102.47 150.96
  Z"
/>
<path fill="#d9d9d9" d="
  M 152.25 151.20
  L 178.09 154.91
  Q 178.68 154.99 178.75 155.58
  Q 179.46 161.16 178.29 167.53
  C 175.19 163.94 170.79 158.04 166.42 156.67
  Q 159.17 154.39 152.25 151.20
  Z"
/>
<path fill="#3b3b3b" d="
  M 33.50 165.59
  C 34.10 162.48 35.59 158.91 38.36 157.21
  A 0.71 0.70 3.0 0 1 39.29 158.24
  L 33.60 165.63
  A 0.06 0.05 -22.5 0 1 33.50 165.59
  Z"
/>
<path fill="#fbf3d1" d="
  M 122.36 158.47
  L 121.32 170.38
  Q 117.85 171.56 114.64 168.51
  L 114.56 158.36
  Q 118.74 155.81 122.36 158.47
  Z"
/>
<path fill="#c93f2a" d="
  M 114.64 168.51
  Q 117.85 171.56 121.32 170.38
  Q 120.48 179.58 117.96 185.99
  Q 116.59 189.48 116.24 185.75
  L 114.64 168.51
  Z"
/>
<path fill="#989897" d="
  M 226.76 230.87
  C 217.25 249.53 199.75 267.08 183.61 279.58
  C 182.70 280.28 182.11 282.35 181.98 283.67
  Q 181.13 292.66 184.32 299.31
  Q 182.28 300.64 180.08 302.39
  C 174.64 306.73 167.69 309.84 161.19 312.39
  C 160.71 304.78 150.35 309.50 146.46 311.12
  Q 145.94 311.34 145.90 310.77
  Q 144.90 297.90 136.17 288.61
  A 0.37 0.36 -17.4 0 1 136.49 288.00
  Q 140.23 288.55 143.97 287.95
  Q 146.13 287.61 143.96 287.32
  L 133.22 285.88
  L 134.18 285.79
  A 0.75 0.74 -44.3 0 0 134.20 284.31
  Q 122.19 282.93 110.01 280.47
  Q 106.41 279.74 105.93 281.51
  Q 77.84 275.68 53.61 260.10
  Q 57.07 258.63 61.20 259.36
  Q 65.22 260.07 66.78 260.10
  C 74.83 260.24 82.98 260.98 90.83 260.78
  C 106.49 260.39 122.22 260.25 136.25 257.99
  C 158.50 254.41 179.34 251.06 200.50 242.84
  C 203.02 241.86 206.39 239.89 210.06 239.10
  C 212.34 238.61 214.38 236.94 216.38 236.10
  Q 220.85 234.23 224.48 230.98
  Q 224.83 230.66 225.30 230.71
  L 226.76 230.87
  Z"
/>
<path fill="#f5e8a9" d="
  M 456.44 243.75
  Q 456.04 246.83 454.56 249.93
  Q 454.05 251.00 451.46 254.20
  C 448.04 258.40 448.60 261.77 448.28 266.81
  C 447.88 272.95 443.76 277.62 440.96 282.91
  C 439.42 285.80 439.42 289.25 435.93 291.68
  Q 426.16 282.32 419.79 270.46
  A 0.77 0.77 0.0 0 1 420.23 269.36
  L 439.60 263.18
  A 0.80 0.77 88.9 0 0 440.11 262.63
  C 441.52 257.22 428.92 254.77 425.33 254.02
  A 0.34 0.34 0.0 0 1 425.21 253.40
  Q 439.11 244.14 456.44 243.75
  Z"
/>
<path fill="#fbf3d1" d="
  M 456.44 243.75
  Q 471.02 243.09 483.77 250.21
  C 482.35 252.78 480.19 254.75 479.02 257.10
  C 477.17 260.79 475.59 267.45 471.37 269.30
  Q 467.95 270.80 464.51 272.27
  C 462.26 273.24 460.35 274.96 458.08 276.33
  Q 450.66 280.83 450.70 289.70
  Q 450.71 290.29 450.26 290.67
  L 446.30 294.04
  Q 445.82 294.45 445.24 294.24
  Q 442.80 293.36 441.14 295.80
  L 435.93 291.68
  C 439.42 289.25 439.42 285.80 440.96 282.91
  C 443.76 277.62 447.88 272.95 448.28 266.81
  C 448.60 261.77 448.04 258.40 451.46 254.20
  Q 454.05 251.00 454.56 249.93
  Q 456.04 246.83 456.44 243.75
  Z"
/>
<path fill="#f5e8a9" d="
  M 483.77 250.21
  C 499.87 259.01 501.41 278.77 491.97 292.97
  C 485.30 302.98 470.87 308.40 459.27 305.17
  Q 449.31 302.40 441.14 295.80
  Q 442.80 293.36 445.24 294.24
  Q 445.82 294.45 446.30 294.04
  L 450.26 290.67
  Q 450.71 290.29 450.70 289.70
  Q 450.66 280.83 458.08 276.33
  C 460.35 274.96 462.26 273.24 464.51 272.27
  Q 467.95 270.80 471.37 269.30
  C 475.59 267.45 477.17 260.79 479.02 257.10
  C 480.19 254.75 482.35 252.78 483.77 250.21
  Z"
/>
<path fill="#d9d9d9" d="
  M 356.72 303.42
  Q 347.76 305.24 342.07 312.46
  Q 341.03 313.77 340.23 314.30
  Q 338.19 315.66 337.46 314.45
  C 341.58 289.80 300.13 292.16 286.68 294.47
  A 0.19 0.19 0.0 0 1 286.54 294.13
  C 323.35 267.52 363.05 253.16 408.99 253.97
  C 417.20 254.11 432.01 255.44 438.39 260.48
  A 0.96 0.95 -33.9 0 1 438.06 262.14
  C 409.65 270.36 386.02 278.45 364.28 295.77
  Q 361.48 298.00 356.72 303.42
  Z"
/>
<path fill="#d9d9d9" d="
  M 133.22 285.88
  Q 119.50 284.72 105.93 281.51
  Q 106.41 279.74 110.01 280.47
  Q 122.19 282.93 134.20 284.31
  A 0.75 0.74 -44.3 0 1 134.18 285.79
  L 133.22 285.88
  Z"
/>
<path fill="#d9d9d9" d="
  M 310.89 295.23
  Q 316.56 305.34 309.27 312.30
  Q 302.83 318.44 293.52 320.64
  Q 283.02 315.11 270.96 313.41
  C 265.63 312.67 262.70 311.96 259.09 308.69
  Q 257.25 307.03 259.07 305.63
  Q 260.54 304.51 262.16 303.76
  Q 285.99 292.82 310.89 295.23
  Z"
/>
<path fill="#f5e8a9" d="
  M 310.89 295.23
  C 321.11 295.90 332.75 297.67 336.05 308.73
  C 338.42 316.70 326.20 321.47 320.34 322.22
  C 317.76 321.05 315.39 322.47 313.13 322.49
  Q 310.42 322.51 307.70 322.51
  C 303.67 322.51 299.95 321.03 295.37 321.68
  L 293.52 320.64
  Q 302.83 318.44 309.27 312.30
  Q 316.56 305.34 310.89 295.23
  Z"
/>
<path fill="#d9d9d9" d="
  M 184.32 299.31
  Q 191.24 303.57 197.06 305.16
  C 215.45 310.20 237.68 312.09 255.92 306.40
  Q 256.41 306.25 256.55 306.74
  C 257.42 309.97 259.22 310.54 261.56 312.37
  Q 261.84 312.59 261.48 312.60
  Q 254.84 312.68 243.78 315.01
  C 239.36 315.95 237.11 317.31 237.48 322.34
  Q 238.01 329.46 241.43 337.09
  Q 241.54 337.35 241.31 337.18
  Q 227.36 326.44 209.72 323.07
  C 203.02 321.79 201.80 326.26 199.67 331.89
  Q 195.79 342.16 195.34 353.19
  Q 195.32 353.75 194.76 353.66
  C 178.88 351.30 168.82 339.88 160.81 327.06
  A 1.62 1.59 30.6 0 1 160.57 326.15
  L 161.19 312.39
  C 167.69 309.84 174.64 306.73 180.08 302.39
  Q 182.28 300.64 184.32 299.31
  Z"
/>
<path fill="#989897" d="
  M 356.72 303.42
  Q 348.23 313.38 343.34 324.23
  Q 343.12 324.71 342.79 324.30
  L 336.49 316.58
  Q 336.13 316.13 336.48 315.68
  L 337.46 314.45
  Q 338.19 315.66 340.23 314.30
  Q 341.03 313.77 342.07 312.46
  Q 347.76 305.24 356.72 303.42
  Z"
/>
<path fill="#d9d9d9" d="
  M 158.99 323.18
  Q 156.30 317.30 151.26 315.71
  C 148.93 314.97 145.81 315.34 143.02 314.91
  Q 149.51 310.98 157.00 309.51
  A 1.90 1.90 0.0 0 1 159.27 311.42
  L 158.99 323.18
  Z"
/>
<path fill="#d9d9d9" d="
  M 292.78 322.42
  Q 293.60 331.99 288.50 339.32
  C 281.93 348.77 265.45 346.87 255.82 344.86
  C 253.94 344.47 251.43 345.19 249.62 342.94
  A 0.81 0.80 -28.9 0 0 248.74 342.69
  Q 248.09 342.93 247.50 343.64
  C 242.25 337.98 237.98 325.37 239.53 318.33
  A 0.99 0.96 86.8 0 1 240.14 317.63
  C 256.86 311.57 277.83 314.59 292.78 322.42
  Z"
/>
<path fill="#fffffb" d="
  M 143.02 314.91
  C 145.81 315.34 148.93 314.97 151.26 315.71
  Q 156.30 317.30 158.99 323.18
  Q 158.24 328.12 157.30 333.26
  C 154.32 349.48 139.39 373.55 123.08 379.40
  A 0.88 0.88 0.0 0 1 121.91 378.59
  Q 121.41 354.75 135.76 336.03
  C 137.56 333.67 139.82 333.14 142.18 331.51
  Q 145.24 330.15 146.43 328.09
  A 0.42 0.42 0.0 0 0 145.95 327.47
  Q 143.44 328.22 141.21 330.47
  L 123.49 335.92
  A 0.77 0.76 -83.1 0 1 122.61 334.79
  Q 130.13 322.22 143.02 314.91
  Z"
/>
<path fill="#d9d9d9" d="
  M 305.42 329.94
  C 307.85 328.28 309.47 325.89 312.90 326.31
  A 1.15 1.11 34.2 0 0 313.54 326.20
  Q 314.68 325.67 315.44 324.70
  Q 326.64 324.46 334.79 317.90
  Q 335.16 317.60 335.49 317.95
  Q 339.11 321.83 339.59 326.79
  C 341.47 346.48 325.46 354.84 308.47 355.66
  Q 307.89 355.69 308.16 355.17
  C 312.43 346.95 309.82 337.50 305.42 329.94
  Z"
/>
<path fill="#c5ad67" d="
  M 295.37 321.68
  C 299.95 321.03 303.67 322.51 307.70 322.51
  Q 310.42 322.51 313.13 322.49
  C 315.39 322.47 317.76 321.05 320.34 322.22
  Q 307.99 325.21 295.37 321.68
  Z"
/>
<path fill="#f5e8a9" d="
  M 292.78 322.42
  Q 307.55 329.58 308.44 344.97
  C 309.30 359.75 294.10 364.65 282.34 364.19
  Q 279.37 363.04 271.76 361.22
  Q 264.16 359.40 253.44 352.53
  L 247.50 343.64
  Q 248.09 342.93 248.74 342.69
  A 0.81 0.80 -28.9 0 1 249.62 342.94
  C 251.43 345.19 253.94 344.47 255.82 344.86
  C 265.45 346.87 281.93 348.77 288.50 339.32
  Q 293.60 331.99 292.78 322.42
  Z"
/>
<path fill="#d9d9d9" d="
  M 245.56 344.70
  C 246.00 361.47 235.08 369.92 219.51 369.40
  Q 208.29 369.03 200.73 361.63
  A 1.79 1.78 45.1 0 0 198.23 361.62
  Q 198.17 361.68 198.18 362.49
  C 196.02 353.75 198.27 341.90 201.17 333.52
  C 202.63 329.29 202.96 323.69 209.31 324.66
  C 222.89 326.73 236.96 333.50 245.56 344.70
  Z"
/>
<path fill="#989897" d="
  M 315.44 324.70
  Q 314.68 325.67 313.54 326.20
  A 1.15 1.11 34.2 0 1 312.90 326.31
  C 309.47 325.89 307.85 328.28 305.42 329.94
  L 300.57 325.28
  A 0.51 0.50 -17.6 0 1 301.02 324.42
  Q 308.24 325.80 315.44 324.70
  Z"
/>
<path fill="#5f5d5c" d="
  M 342.11 394.00
  Q 340.98 394.63 340.98 396.29
  Q 340.98 396.78 340.62 397.10
  C 338.67 398.86 339.63 401.16 336.76 402.54
  C 333.88 403.91 333.49 406.29 330.99 407.87
  C 323.35 412.70 316.30 418.81 307.12 420.46
  Q 304.20 420.98 301.35 421.92
  C 294.77 415.56 291.88 407.80 290.55 398.41
  C 292.46 394.59 292.91 390.51 294.55 386.86
  Q 297.25 380.88 298.79 374.47
  C 299.34 372.19 300.75 370.33 301.58 368.14
  Q 303.33 363.47 305.91 358.34
  Q 306.05 357.04 308.17 357.05
  C 326.22 357.13 342.70 347.01 340.93 326.66
  A 0.41 0.41 0.0 0 1 341.72 326.46
  C 349.96 345.08 347.44 369.37 343.11 388.72
  Q 342.59 391.05 342.11 394.00
  Z"
/>
<path fill="#d9d9d9" d="
  M 142.18 331.51
  Q 142.67 330.87 141.21 330.47
  Q 143.44 328.22 145.95 327.47
  A 0.42 0.42 0.0 0 1 146.43 328.09
  Q 145.24 330.15 142.18 331.51
  Z"
/>
<path fill="#5f5d5c" d="
  M 226.99 407.25
  Q 222.74 408.02 218.51 408.47
  Q 215.49 408.80 211.54 409.43
  C 204.17 410.61 196.04 409.23 188.59 408.80
  C 185.06 408.59 182.22 406.89 178.63 406.24
  L 167.28 396.67
  L 156.88 385.44
  C 152.79 378.72 147.81 369.82 146.51 362.31
  A 1.27 1.27 0.0 0 1 146.69 361.42
  L 153.01 351.42
  L 155.33 353.87
  Q 155.78 354.34 156.26 353.92
  C 160.96 349.79 163.62 336.37 159.82 330.99
  L 160.20 329.37
  Q 160.38 328.62 160.77 329.29
  C 168.13 342.31 178.83 352.95 194.18 355.18
  A 1.29 1.29 0.0 0 1 195.28 356.37
  Q 196.61 375.35 209.51 386.59
  C 216.59 392.75 222.00 399.36 226.99 407.25
  Z"
/>
<path fill="#3b3b3b" d="
  M 159.82 330.99
  C 163.62 336.37 160.96 349.79 156.26 353.92
  Q 155.78 354.34 155.33 353.87
  L 153.01 351.42
  Q 158.07 342.31 159.82 330.99
  Z"
/>
<path fill="#f5e8a9" d="
  M 245.56 344.70
  C 252.98 353.78 258.75 369.51 252.48 380.20
  C 245.17 392.69 230.99 396.30 218.18 390.01
  C 207.01 384.53 200.25 375.12 198.18 362.49
  Q 198.17 361.68 198.23 361.62
  A 1.79 1.78 45.1 0 1 200.73 361.63
  Q 208.29 369.03 219.51 369.40
  C 235.08 369.92 246.00 361.47 245.56 344.70
  Z"
/>
<path fill="#fbf3d1" d="
  M 285.79 354.58
  A 0.29 0.29 0.0 0 1 285.39 354.63
  L 285.22 354.49
  A 5.63 0.88 39.0 0 1 281.39 350.26
  L 281.49 350.14
  A 5.63 0.88 39.0 0 1 286.42 353.00
  L 286.59 353.13
  A 0.29 0.29 0.0 0 1 286.64 353.54
  L 285.79 354.58
  Z"
/>
<path fill="#c5ad67" d="
  M 282.34 364.19
  C 275.74 364.03 254.73 360.47 253.44 352.53
  Q 264.16 359.40 271.76 361.22
  Q 279.37 363.04 282.34 364.19
  Z"
/>
<path fill="#3b3b3b" d="
  M 305.91 358.34
  Q 303.33 363.47 301.58 368.14
  C 300.75 370.33 299.34 372.19 298.79 374.47
  Q 297.25 380.88 294.55 386.86
  C 292.91 390.51 292.46 394.59 290.55 398.41
  Q 288.20 382.10 289.43 366.31
  A 1.22 1.22 0.0 0 1 290.54 365.19
  Q 298.58 364.45 305.91 358.34
  Z"
/>
<path fill="#989897" d="
  M 259.44 380.56
  Q 257.65 379.44 256.41 376.53
  Q 256.22 376.10 256.31 375.63
  Q 257.90 367.48 255.57 359.51
  Q 255.36 358.77 256.03 359.14
  C 266.45 364.83 274.60 365.47 286.57 365.89
  Q 287.04 365.91 287.14 366.37
  Q 288.49 373.07 284.68 377.49
  Q 274.09 389.75 259.44 380.56
  Z"
/>
<path fill="#3b3b3b" d="
  M 156.88 385.44
  L 167.28 396.67
  Q 170.97 401.96 176.10 406.16
  Q 176.74 406.69 176.87 408.00
  Q 178.16 421.92 177.38 436.09
  L 177.22 431.46
  Q 177.20 431.02 176.76 431.00
  Q 176.62 431.00 176.48 431.00
  Q 176.07 431.01 176.03 430.60
  Q 175.43 424.12 172.49 419.97
  C 166.51 411.52 151.67 398.91 139.88 401.93
  Q 141.56 386.23 141.09 370.45
  C 141.01 367.68 142.40 366.25 144.30 364.62
  Q 144.81 364.18 145.05 364.81
  C 146.98 369.93 151.32 382.47 156.88 385.44
  Z"
/>
<path fill="#989897" d="
  M 139.04 370.47
  A 0.27 0.27 0.0 0 1 139.50 370.65
  L 139.50 382.22
  A 0.53 0.53 0.0 0 1 138.55 382.54
  Q 135.97 379.16 135.10 374.99
  Q 135.02 374.57 135.32 374.27
  L 139.04 370.47
  Z"
/>
<path fill="#fbf3d1" d="
  M 224.0306 379.5812
  A 3.15 1.29 74.9 0 1 221.9645 376.8761
  A 3.15 1.29 74.9 0 1 222.3894 373.4988
  A 3.15 1.29 74.9 0 1 224.4555 376.2039
  A 3.15 1.29 74.9 0 1 224.0306 379.5812
  Z"
/>
<path fill="#3b3b3b" d="
  M 260.71 382.77
  C 270.28 387.76 279.99 387.44 286.05 377.46
  A 0.43 0.43 0.0 0 1 286.83 377.56
  Q 287.32 379.18 287.28 381.25
  Q 286.99 397.20 292.16 411.91
  A 0.98 0.97 63.3 0 1 291.79 413.04
  Q 283.01 418.87 273.25 422.92
  Q 271.89 423.48 272.14 422.03
  C 272.95 417.25 273.54 413.24 271.99 408.48
  C 269.16 399.80 264.33 391.41 260.10 383.39
  A 0.46 0.46 0.0 0 1 260.71 382.77
  Z"
/>
<path fill="#5f5d5c" d="
  M 219.36 468.62
  Q 220.89 468.92 221.45 468.10
  Q 221.62 467.84 221.61 466.34
  C 221.59 464.58 223.22 464.00 224.81 464.34
  Q 230.60 465.59 236.08 463.50
  C 239.11 462.35 244.38 457.87 245.50 455.00
  Q 247.25 450.51 245.02 445.90
  C 240.72 437.05 233.29 440.99 226.74 442.88
  A 1.92 1.91 -15.2 0 1 224.36 441.52
  Q 223.85 439.54 224.75 437.91
  Q 225.00 437.45 225.00 436.93
  L 225.00 434.46
  Q 225.00 433.91 224.46 433.77
  Q 223.95 433.64 223.26 433.76
  Q 225.90 423.95 228.36 410.32
  Q 228.88 407.41 227.58 405.36
  Q 223.28 398.57 217.40 392.19
  A 0.22 0.22 0.0 0 1 217.66 391.85
  C 231.97 399.56 248.75 392.75 255.30 378.61
  A 0.30 0.29 43.7 0 1 255.83 378.60
  Q 263.06 392.79 270.00 407.28
  Q 271.29 409.98 270.99 416.50
  Q 270.58 425.28 266.15 448.91
  C 265.76 451.00 265.61 456.29 264.18 458.22
  Q 255.64 469.82 242.06 472.48
  C 233.07 474.25 226.65 473.96 219.36 468.62
  Z"
/>
<path fill="#3b3b3b" d="
  M 342.11 394.00
  C 350.52 401.15 362.93 410.44 364.09 420.00
  Q 365.19 429.07 364.55 436.69
  Q 357.17 440.99 350.25 442.68
  Q 336.72 445.98 322.69 444.85
  Q 324.20 434.18 323.06 423.62
  A 0.88 0.87 -11.6 0 1 323.68 422.69
  L 325.65 422.10
  A 0.40 0.40 0.0 0 0 325.49 421.32
  Q 318.21 422.19 307.51 424.27
  Q 304.24 424.91 301.35 421.92
  Q 304.20 420.98 307.12 420.46
  C 316.30 418.81 323.35 412.70 330.99 407.87
  C 333.49 406.29 333.88 403.91 336.76 402.54
  C 339.63 401.16 338.67 398.86 340.62 397.10
  Q 340.98 396.78 340.98 396.29
  Q 340.98 394.63 342.11 394.00
  Z"
/>
<path fill="#5f5d5c" d="
  M 177.38 436.09
  C 176.68 448.91 163.26 462.33 152.46 468.67
  Q 152.06 468.90 151.99 468.45
  Q 150.85 461.86 145.42 458.58
  Q 155.96 451.43 152.57 440.07
  C 150.52 433.17 145.86 435.38 140.73 435.10
  Q 133.96 434.73 127.31 433.20
  C 134.67 421.97 138.21 414.65 139.88 401.93
  C 151.67 398.91 166.51 411.52 172.49 419.97
  Q 175.43 424.12 176.03 430.60
  Q 176.07 431.01 176.48 431.00
  Q 176.62 431.00 176.76 431.00
  Q 177.20 431.02 177.22 431.46
  L 177.38 436.09
  Z"
/>
<path fill="#3b3b3b" d="
  M 178.63 406.24
  C 182.22 406.89 185.06 408.59 188.59 408.80
  C 196.04 409.23 204.17 410.61 211.54 409.43
  Q 215.49 408.80 218.51 408.47
  Q 222.74 408.02 226.99 407.25
  Q 225.32 418.64 222.32 429.00
  A 0.65 0.64 -74.0 0 1 221.53 429.44
  Q 197.68 423.06 178.63 406.24
  Z"
/>
<path fill="#3b3b3b" d="
  M 273.91 426.25
  C 273.10 436.43 271.30 447.96 268.75 458.21
  A 0.81 0.81 0.0 0 1 267.29 458.45
  L 266.64 457.44
  A 1.19 1.16 34.1 0 1 266.47 456.60
  Q 269.09 441.44 271.84 426.32
  Q 272.10 424.92 273.57 425.66
  Q 273.94 425.84 273.91 426.25
  Z"
/>
<path fill="#6f6e6c" d="
  M 127.31 433.20
  Q 133.96 434.73 140.73 435.10
  C 145.86 435.38 150.52 433.17 152.57 440.07
  Q 155.96 451.43 145.42 458.58
  Q 143.71 457.71 142.00 457.70
  Q 136.28 453.85 129.61 452.82
  C 125.10 452.13 121.47 453.84 117.97 456.40
  C 115.06 454.60 113.11 456.19 110.48 455.03
  Q 110.02 454.83 110.36 454.46
  Q 119.83 444.17 127.31 433.20
  Z"
/>
<path fill="#6f6e6c" d="
  M 223.26 433.76
  Q 223.95 433.64 224.46 433.77
  Q 225.00 433.91 225.00 434.46
  L 225.00 436.93
  Q 225.00 437.45 224.75 437.91
  Q 223.85 439.54 224.36 441.52
  A 1.92 1.91 -15.2 0 0 226.74 442.88
  C 233.29 440.99 240.72 437.05 245.02 445.90
  Q 247.25 450.51 245.50 455.00
  C 244.38 457.87 239.11 462.35 236.08 463.50
  Q 230.60 465.59 224.81 464.34
  C 223.22 464.00 221.59 464.58 221.61 466.34
  Q 221.62 467.84 221.45 468.10
  Q 220.89 468.92 219.36 468.62
  Q 217.63 462.93 217.94 456.32
  C 218.26 449.39 221.21 441.10 223.26 433.76
  Z"
/>
<path fill="#5f5d5c" d="
  M 364.55 436.69
  Q 364.03 453.62 363.41 468.49
  Q 363.29 471.46 362.48 474.29
  Q 362.23 475.18 362.07 474.26
  C 361.30 469.88 359.43 463.97 355.34 461.66
  Q 354.86 461.38 354.32 461.54
  Q 348.36 463.28 346.06 469.05
  A 0.50 0.49 49.7 0 1 345.12 468.97
  C 344.45 465.92 341.33 459.44 337.47 459.68
  C 334.27 459.88 330.35 464.73 327.87 467.58
  Q 327.44 468.08 327.12 467.50
  C 324.98 463.60 324.08 459.84 319.18 458.58
  Q 318.69 458.45 318.89 457.99
  Q 321.70 451.53 322.69 444.85
  Q 336.72 445.98 350.25 442.68
  Q 357.17 440.99 364.55 436.69
  Z"
/>
<path fill="#5f5d5c" d="
  M 142.00 457.70
  C 136.45 457.89 129.89 462.80 125.52 466.35
  A 0.50 0.50 0.0 0 1 124.73 466.10
  Q 122.66 459.28 117.97 456.40
  C 121.47 453.84 125.10 452.13 129.61 452.82
  Q 136.28 453.85 142.00 457.70
  Z"
/>
<path fill="#f5e8a9" d="
  M 99.04 464.75
  C 95.34 465.28 89.49 472.53 87.14 467.76
  C 92.83 464.10 103.95 456.64 109.57 456.87
  Q 110.32 456.90 109.70 457.33
  L 99.04 464.75
  Z"
/>
<path fill="#efda6f" d="
  M 97.65 468.46
  Q 98.49 469.83 101.38 468.55
  C 104.69 467.09 108.04 463.99 111.27 462.10
  A 1.23 1.22 63.9 0 0 111.78 460.60
  Q 111.29 459.33 109.27 459.48
  C 116.28 452.97 121.60 461.36 123.24 467.45
  Q 123.36 467.88 123.07 468.22
  Q 121.24 470.39 120.18 470.65
  Q 107.24 473.76 93.22 475.08
  A 0.61 0.61 0.0 0 1 92.70 474.07
  L 97.65 468.46
  Z"
/>
<path fill="#c5ad67" d="
  M 255.06 470.90
  Q 253.83 470.28 254.97 469.50
  Q 261.05 465.36 265.53 459.54
  Q 265.88 459.08 266.27 459.51
  L 280.51 475.16
  A 0.90 0.90 0.0 0 1 279.86 476.67
  Q 266.75 476.81 255.06 470.90
  Z"
/>
<path fill="#f5e8a9" d="
  M 109.27 459.48
  Q 111.29 459.33 111.78 460.60
  A 1.23 1.22 63.9 0 1 111.27 462.10
  C 108.04 463.99 104.69 467.09 101.38 468.55
  Q 98.49 469.83 97.65 468.46
  L 109.27 459.48
  Z"
/>
<path fill="#efda6f" d="
  M 123.22 470.49
  C 123.82 471.63 124.77 471.81 125.84 471.07
  Q 131.53 467.15 135.02 463.77
  Q 135.63 463.18 134.87 461.88
  C 138.43 459.14 143.74 458.46 146.98 462.12
  C 148.63 464.00 150.50 466.93 149.87 469.53
  Q 149.74 470.09 149.24 470.35
  Q 134.14 478.40 116.98 478.03
  Q 116.17 478.01 116.73 477.42
  L 123.22 470.49
  Z"
/>
<path fill="#efda6f" d="
  M 321.04 461.22
  C 323.70 463.70 324.22 465.82 325.81 468.91
  Q 326.15 469.58 325.57 470.57
  Q 323.50 474.10 321.33 477.57
  Q 321.06 477.99 320.56 478.08
  Q 310.34 479.74 299.99 479.46
  Q 299.43 479.44 299.71 478.96
  C 302.37 474.39 316.09 456.60 321.04 461.22
  Z"
/>
<path fill="#efda6f" d="
  M 321.56 485.33
  Q 325.35 480.50 328.91 475.69
  Q 329.67 474.67 329.73 473.84
  A 0.88 0.88 0.0 0 0 328.18 473.20
  L 321.76 480.57
  Q 327.08 469.38 335.02 461.92
  A 3.02 3.02 0.0 0 1 339.37 462.14
  Q 343.02 466.34 344.02 471.79
  Q 344.11 472.31 343.94 472.82
  L 340.97 481.75
  Q 340.83 482.15 340.43 482.27
  Q 331.07 485.03 321.56 485.33
  Z"
/>
<path fill="#f5e8a9" d="
  M 134.87 461.88
  Q 135.63 463.18 135.02 463.77
  Q 131.53 467.15 125.84 471.07
  C 124.77 471.81 123.82 471.63 123.22 470.49
  L 134.87 461.88
  Z"
/>
<path fill="#5f5d5c" d="
  M 207.30 472.74
  C 209.20 469.23 212.47 465.79 215.44 463.23
  Q 215.96 462.79 216.10 463.45
  L 218.16 472.86
  A 0.53 0.52 83.8 0 1 217.65 473.50
  L 207.75 473.50
  A 0.52 0.51 -75.8 0 1 207.30 472.74
  Z"
/>
<path fill="#efda6f" d="
  M 342.40 486.18
  Q 346.54 484.23 346.87 477.89
  Q 346.90 477.35 346.38 477.50
  Q 345.62 477.73 345.26 478.49
  Q 345.07 478.89 344.63 478.97
  Q 344.20 479.06 343.71 478.94
  C 345.14 474.04 348.91 463.14 355.00 463.26
  A 1.03 1.02 71.3 0 1 355.82 463.67
  Q 360.57 469.75 360.51 477.34
  C 360.48 480.68 358.76 482.10 356.04 483.53
  Q 348.86 487.32 342.52 489.19
  Q 341.96 489.35 341.87 488.78
  Q 341.61 487.12 342.40 486.18
  Z"
/>
<path fill="#efda6f" d="
  M 99.04 464.75
  L 92.88 471.12
  Q 92.47 471.54 91.89 471.60
  L 82.76 472.54
  Q 80.33 472.78 82.30 471.33
  L 87.14 467.76
  C 89.49 472.53 95.34 465.28 99.04 464.75
  Z"
/>
<path fill="#efda6f" d="
  M 225.31 485.16
  Q 226.38 480.96 223.91 476.83
  Q 223.67 476.43 223.21 476.30
  Q 221.97 475.95 221.29 476.72
  L 219.09 470.79
  Q 218.76 469.90 219.50 470.50
  Q 225.68 475.50 233.73 475.38
  Q 234.40 475.37 234.31 476.03
  Q 233.27 484.25 230.18 491.92
  A 0.61 0.61 0.0 0 1 229.14 492.07
  Q 226.30 488.55 225.31 485.16
  Z"
/>
<path fill="#c5ad67" d="
  M 247.07 490.99
  Q 247.41 490.97 247.64 490.85
  A 0.64 0.64 0.0 0 0 247.91 489.96
  L 239.98 476.50
  Q 239.74 476.09 239.35 476.35
  Q 238.45 476.96 238.43 478.87
  L 236.56 475.84
  Q 236.19 475.24 236.90 475.16
  Q 244.61 474.33 251.73 471.32
  Q 252.32 471.07 252.38 471.71
  Q 253.47 483.03 251.84 494.27
  A 0.56 0.56 0.0 0 1 250.90 494.60
  L 247.07 490.99
  Z"
/>
<path fill="#f5e8a9" d="
  M 321.56 485.33
  L 319.90 485.48
  Q 319.21 485.54 319.43 484.89
  Q 320.34 482.13 321.76 480.57
  L 328.18 473.20
  A 0.88 0.88 0.0 0 1 329.73 473.84
  Q 329.67 474.67 328.91 475.69
  Q 325.35 480.50 321.56 485.33
  Z"
/>
<path fill="#fbf3d1" d="
  M 225.31 485.16
  L 221.29 476.72
  Q 221.97 475.95 223.21 476.30
  Q 223.67 476.43 223.91 476.83
  Q 226.38 480.96 225.31 485.16
  Z"
/>
<path fill="#efda6f" d="
  M 247.07 490.99
  Q 241.40 485.54 238.43 478.87
  Q 238.45 476.96 239.35 476.35
  Q 239.74 476.09 239.98 476.50
  L 247.91 489.96
  A 0.64 0.64 0.0 0 1 247.64 490.85
  Q 247.41 490.97 247.07 490.99
  Z"
/>
<path fill="#f5e8a9" d="
  M 342.40 486.18
  L 343.71 478.94
  Q 344.20 479.06 344.63 478.97
  Q 345.07 478.89 345.26 478.49
  Q 345.62 477.73 346.38 477.50
  Q 346.90 477.35 346.87 477.89
  Q 346.54 484.23 342.40 486.18
  Z"
/>
</svg>
