<?xml version="1.0" encoding="UTF-8" standalone="no"?>
<svg xmlns="http://www.w3.org/2000/svg" version="1.2" baseProfile="tiny" viewBox="0.00 0.00 750.00 750.00">
<path fill="#010001" d="
  M 519.10 254.58
  C 517.82 252.41 515.91 252.12 513.77 251.33
  Q 513.18 251.11 513.31 251.73
  Q 514.19 256.06 512.89 260.28
  Q 512.70 260.90 513.20 261.31
  L 516.86 264.37
  A 0.48 0.47 25.8 0 0 517.63 264.11
  Q 518.51 260.03 516.87 256.21
  Q 516.67 255.72 517.01 255.32
  Q 517.40 254.86 518.26 255.04
  Q 517.82 255.57 518.08 256.16
  Q 520.06 260.76 518.36 265.37
  Q 518.18 265.86 518.50 266.28
  C 523.93 273.27 526.42 279.65 522.57 288.17
  Q 522.39 288.58 522.71 288.90
  Q 533.87 299.97 530.66 315.65
  Q 530.56 316.18 530.20 316.57
  Q 529.55 317.30 530.45 318.34
  Q 537.46 326.36 537.15 337.83
  C 537.08 340.17 538.15 339.68 539.36 341.02
  Q 547.56 350.06 548.42 362.41
  Q 548.45 362.78 548.64 363.08
  Q 548.98 363.63 549.05 363.69
  Q 547.53 365.71 545.94 366.47
  A 1.33 1.32 -43.3 0 1 544.74 366.44
  Q 535.23 361.36 528.02 353.29
  A 0.33 0.33 0.0 0 0 527.49 353.67
  Q 528.79 355.98 529.22 358.85
  Q 531.14 371.65 521.61 378.41
  Q 516.02 390.60 505.98 396.80
  A 2.12 2.12 0.0 0 0 505.14 399.42
  L 513.32 419.11
  Q 517.31 436.50 528.08 451.69
  C 539.55 467.86 547.50 477.99 554.01 490.46
  C 555.72 493.74 555.11 496.05 553.89 499.27
  A 0.42 0.42 0.0 0 0 554.50 499.77
  L 558.17 497.48
  A 0.59 0.59 0.0 0 1 559.07 497.94
  L 559.93 509.04
  Q 559.98 509.64 560.53 509.86
  Q 563.49 511.07 564.97 513.88
  Q 565.30 514.50 565.65 513.90
  L 566.70 512.12
  A 1.22 1.22 0.0 0 1 568.76 512.04
  L 575.60 521.86
  Q 576.02 522.46 576.63 522.07
  Q 580.06 519.86 584.17 520.31
  A 0.92 0.92 0.0 0 0 584.93 518.75
  C 577.08 510.72 576.38 497.62 583.46 488.80
  C 590.29 480.32 595.60 492.08 596.47 497.83
  C 597.39 500.93 593.26 503.96 591.17 505.72
  A 0.50 0.50 0.0 0 0 591.49 506.60
  L 605.48 506.64
  A 0.16 0.16 0.0 0 1 605.52 506.96
  Q 598.07 509.04 590.52 507.22
  Q 589.91 507.07 589.58 507.61
  L 587.46 511.18
  A 0.89 0.88 -55.2 0 0 587.66 512.32
  L 595.94 518.92
  A 0.92 0.92 0.0 0 0 597.42 518.37
  Q 597.81 516.20 599.42 514.70
  Q 600.11 514.07 599.78 514.95
  L 597.95 519.83
  L 602.79 523.84
  C 604.37 527.75 603.91 536.10 598.72 537.85
  Q 598.27 538.00 598.68 538.25
  C 607.57 543.75 614.38 526.52 616.07 520.56
  C 618.74 511.11 616.93 502.13 610.72 494.52
  A 0.21 0.20 -74.6 0 0 610.37 494.72
  C 611.55 497.97 613.14 502.66 610.80 505.76
  Q 610.44 506.24 609.94 506.20
  Q 609.39 506.16 609.71 505.71
  C 612.09 502.39 609.69 495.14 608.11 491.71
  Q 606.11 485.05 602.09 481.01
  Q 601.75 480.67 601.28 480.74
  L 601.00 480.77
  Q 600.68 480.82 600.37 480.72
  L 590.96 477.76
  A 0.82 0.81 -47.7 0 0 590.37 477.79
  C 586.04 479.70 583.36 485.54 581.48 489.73
  Q 581.29 490.16 581.09 489.74
  Q 580.89 489.33 581.01 489.04
  C 582.75 484.59 586.72 476.60 590.73 477.02
  Q 595.51 477.53 600.65 479.93
  A 0.11 0.11 0.0 0 0 600.77 479.75
  Q 574.55 455.36 547.86 431.50
  C 539.69 424.20 537.26 414.66 535.44 404.34
  L 532.82 387.03
  L 533.27 385.99
  L 535.41 397.03
  L 537.12 406.47
  Q 538.91 416.20 542.94 425.06
  Q 543.16 425.56 544.25 425.81
  Q 544.54 426.18 544.61 426.86
  L 570.13 449.93
  Q 570.54 450.30 571.07 450.42
  L 577.08 451.78
  A 0.80 0.80 0.0 0 0 577.96 450.62
  Q 573.96 443.02 567.49 435.78
  Q 575.57 442.26 579.26 451.90
  Q 579.46 452.43 580.01 452.52
  Q 581.60 452.77 583.12 453.49
  Q 586.02 454.86 584.66 451.95
  Q 578.30 438.38 564.30 432.15
  L 561.56 431.43
  Q 554.01 427.48 545.51 426.59
  Q 545.49 426.36 545.49 426.20
  Q 545.50 425.83 545.87 425.75
  L 546.26 425.68
  L 548.83 426.00
  Q 549.31 426.06 549.51 425.61
  C 553.66 415.82 543.87 402.50 536.22 397.01
  Q 541.08 391.15 540.82 383.58
  Q 540.81 383.28 540.93 383.09
  Q 541.08 382.85 541.28 382.67
  L 542.56 384.16
  Q 542.37 384.21 542.20 384.25
  Q 541.79 384.32 541.77 384.74
  Q 541.60 391.03 538.36 396.34
  A 0.94 0.93 -55.1 0 0 538.57 397.55
  C 545.99 403.49 553.75 415.41 550.96 425.25
  A 0.91 0.90 -76.6 0 0 551.65 426.38
  Q 573.68 430.77 584.80 449.46
  C 585.91 451.33 585.56 454.18 588.10 455.23
  Q 603.93 461.78 614.08 475.68
  C 621.19 485.43 624.35 499.68 620.57 511.27
  C 617.24 521.51 614.82 532.31 605.91 539.38
  C 602.27 542.27 596.77 539.10 593.85 536.60
  A 0.54 0.54 0.0 0 0 593.04 536.72
  C 591.34 539.41 588.61 542.68 587.08 544.17
  C 581.13 549.98 570.98 541.68 566.91 537.11
  Q 564.15 534.03 563.14 527.93
  A 0.30 0.29 -23.7 0 0 562.67 527.75
  C 559.63 530.14 552.19 533.45 549.13 529.42
  C 542.34 520.49 544.90 513.90 549.68 505.12
  A 1.39 1.39 0.0 0 0 549.52 503.55
  C 542.94 495.83 541.87 487.45 541.73 477.43
  Q 541.73 476.93 541.33 476.62
  Q 529.76 467.53 526.57 453.29
  Q 526.04 450.94 524.77 449.05
  Q 518.00 438.94 514.28 427.46
  C 510.57 416.01 508.30 409.62 504.61 400.86
  A 0.70 0.70 0.0 0 0 503.38 400.76
  Q 500.69 404.98 495.77 406.99
  C 490.90 408.99 487.78 407.30 483.84 405.05
  Q 483.41 404.81 482.96 405.01
  Q 474.25 408.91 464.75 408.38
  A 0.51 0.51 0.0 0 0 464.41 409.29
  C 479.01 420.48 488.96 439.17 483.95 457.91
  A 1.60 1.56 -48.3 0 0 483.99 458.83
  C 485.83 464.04 483.84 465.49 482.02 469.89
  A 0.99 0.97 -51.3 0 0 482.11 470.81
  Q 485.45 475.79 489.63 479.95
  C 494.82 485.12 502.99 489.57 509.19 495.08
  Q 510.92 496.62 513.35 497.64
  C 518.07 499.62 521.41 502.22 526.78 505.87
  Q 535.69 511.94 538.05 523.69
  Q 538.57 526.29 538.00 528.13
  A 0.59 0.58 -65.2 0 1 537.14 528.45
  Q 531.57 525.06 525.05 525.78
  A 0.77 0.76 -89.0 0 0 524.39 526.42
  Q 523.72 530.53 523.45 534.42
  C 523.16 538.36 526.61 538.58 529.06 540.25
  C 532.43 542.56 539.41 542.82 543.14 542.77
  A 1.22 1.22 0.0 0 1 544.26 544.53
  C 540.07 553.15 531.47 561.74 521.41 559.86
  Q 520.60 559.71 521.10 560.36
  L 522.18 561.77
  A 0.29 0.29 0.0 0 1 522.18 562.11
  Q 516.14 570.60 505.78 572.33
  Q 505.32 572.41 504.96 572.70
  C 501.68 575.41 493.35 569.58 490.95 567.50
  Q 490.57 567.17 490.11 567.37
  C 482.72 570.47 475.80 575.61 469.31 567.09
  C 466.49 563.38 466.54 554.15 463.80 551.98
  Q 456.86 546.49 452.72 538.79
  C 449.28 532.39 443.53 526.72 439.11 520.91
  C 436.21 517.10 436.02 515.51 434.87 510.19
  Q 432.13 497.57 432.14 484.68
  C 432.15 476.86 426.76 467.72 429.18 459.82
  A 0.94 0.93 23.1 0 0 428.73 458.72
  Q 422.44 455.31 419.75 448.62
  A 1.14 1.13 -84.0 0 0 419.32 448.08
  L 413.68 444.28
  A 0.57 0.57 0.0 0 0 412.79 444.72
  C 412.63 447.32 412.13 449.35 412.60 452.10
  C 414.50 463.28 410.28 475.93 399.39 481.10
  C 394.67 483.34 388.38 484.78 383.11 483.60
  C 377.35 482.30 367.85 491.47 366.85 496.85
  Q 363.89 512.70 364.60 528.80
  Q 364.62 529.30 364.91 529.71
  C 369.16 535.70 375.33 538.38 381.86 541.11
  C 385.11 542.46 385.17 544.74 387.56 546.55
  Q 397.06 553.78 405.07 562.98
  A 1.50 1.49 -60.2 0 1 405.41 564.25
  Q 405.16 565.53 403.76 565.20
  Q 395.68 563.25 387.90 561.40
  A 0.50 0.50 0.0 0 0 387.34 562.12
  L 390.70 568.50
  A 0.92 0.92 0.0 0 1 389.71 569.83
  Q 377.34 567.39 366.51 561.66
  Q 366.33 561.57 366.12 561.33
  Q 365.70 560.87 365.29 561.46
  A 0.52 0.52 0.0 0 0 365.28 562.04
  L 370.15 569.76
  A 1.11 1.11 0.0 0 1 369.44 571.44
  Q 368.44 571.65 366.99 571.28
  Q 356.44 568.60 346.53 564.15
  C 343.97 563.00 339.40 562.80 337.93 559.83
  Q 332.69 549.16 327.47 538.52
  Q 325.74 534.99 326.24 529.75
  C 328.16 509.46 336.95 483.79 354.57 471.84
  C 357.39 469.92 352.22 462.47 351.00 460.25
  C 350.59 459.51 350.49 458.06 349.67 457.27
  Q 349.29 456.90 348.78 457.08
  Q 336.89 461.38 324.30 462.75
  A 0.79 0.77 -88.5 0 0 323.61 463.42
  C 320.77 483.09 310.54 506.77 285.90 503.16
  C 269.37 500.75 261.21 485.03 264.09 469.47
  A 0.85 0.85 0.0 0 0 263.37 468.47
  C 222.18 462.83 185.83 447.08 160.97 412.29
  C 150.65 397.85 142.71 380.46 141.85 362.72
  Q 140.97 344.66 147.16 327.38
  A 0.70 0.70 0.0 0 0 146.44 326.45
  C 143.51 326.72 139.80 327.40 137.40 325.80
  C 132.01 322.21 134.50 312.93 137.40 308.53
  A 1.10 1.08 -34.5 0 0 137.56 307.71
  Q 136.47 302.23 139.38 297.50
  Q 139.61 297.13 139.23 296.90
  C 131.92 292.63 129.92 285.48 132.89 277.58
  Q 138.20 263.42 155.03 262.29
  A 0.61 0.61 0.0 0 0 155.31 261.17
  C 142.83 253.19 142.84 235.17 153.13 225.61
  C 160.87 218.41 172.25 217.69 182.71 218.86
  Q 183.05 218.90 182.91 218.58
  C 174.97 200.41 185.46 176.24 208.51 180.55
  C 233.32 185.18 237.81 214.44 232.67 234.72
  A 0.61 0.61 0.0 0 0 233.61 235.37
  C 241.03 230.19 255.66 226.74 265.51 225.08
  Q 266.42 224.92 267.22 225.04
  A 1.46 1.46 0.0 0 1 268.16 227.36
  L 265.69 230.61
  A 0.49 0.48 9.5 0 0 266.23 231.36
  C 271.97 229.55 285.28 228.31 289.71 233.06
  C 291.58 235.07 290.91 240.06 289.82 242.33
  Q 282.81 257.02 266.79 260.92
  A 0.43 0.43 0.0 0 0 266.62 261.67
  C 275.03 268.66 283.43 280.06 283.35 291.35
  C 283.18 315.89 257.42 326.20 236.58 318.64
  C 226.97 315.14 221.01 305.23 218.07 295.46
  Q 217.67 294.11 216.21 295.09
  Q 215.85 295.33 215.97 295.76
  C 217.71 301.99 220.06 309.53 218.57 315.93
  C 215.03 331.19 196.86 334.18 187.04 322.64
  A 0.81 0.81 0.0 0 0 185.64 323.40
  C 187.33 329.16 188.14 344.38 177.76 343.57
  Q 167.86 342.80 166.82 332.17
  A 0.59 0.59 0.0 0 0 165.65 332.12
  C 163.79 342.01 162.73 352.02 164.69 362.03
  Q 170.05 389.36 192.88 405.10
  Q 193.31 405.39 193.81 405.30
  C 204.58 403.23 213.47 407.58 221.45 414.65
  Q 221.84 414.99 222.36 414.90
  Q 235.12 412.45 246.31 418.92
  A 1.04 1.03 -56.6 0 0 247.65 418.64
  Q 261.47 400.01 284.96 399.81
  Q 285.50 399.81 285.81 399.38
  C 293.57 388.76 307.67 380.07 321.30 381.71
  A 1.09 1.09 0.0 0 0 322.17 381.43
  C 334.05 370.96 350.28 364.21 366.29 367.90
  Q 366.78 368.02 367.16 367.69
  Q 374.99 360.88 384.76 357.78
  Q 387.37 356.95 389.82 355.43
  Q 399.73 349.29 411.66 349.68
  Q 412.22 349.69 412.94 349.88
  Q 415.61 350.55 414.00 348.69
  L 417.85 350.96
  Q 414.29 350.55 412.06 351.41
  Q 409.88 350.60 409.22 350.62
  Q 393.29 351.00 382.09 363.85
  C 372.09 375.33 379.72 391.84 394.84 391.97
  Q 413.68 392.13 422.35 374.55
  Q 422.81 373.62 423.46 374.33
  Q 414.63 393.41 393.15 393.37
  Q 392.65 393.37 392.51 393.85
  C 388.32 408.62 376.29 419.68 360.29 418.31
  Q 359.67 418.26 359.64 418.88
  Q 358.84 435.45 348.62 448.20
  Q 348.26 448.64 348.39 449.19
  Q 351.15 461.63 359.77 470.99
  A 0.30 0.30 0.0 0 0 360.25 470.64
  C 358.83 468.15 357.46 465.72 356.82 462.87
  C 356.04 459.38 353.15 441.27 358.22 440.74
  C 362.89 450.18 383.29 473.69 395.35 472.48
  C 403.11 471.70 407.81 465.84 409.47 458.50
  Q 412.92 443.32 411.19 428.24
  Q 409.18 411.29 400.69 395.75
  Q 400.55 395.51 400.74 395.25
  Q 401.04 394.83 401.34 395.26
  C 405.72 401.59 408.45 410.72 410.59 418.11
  Q 410.71 418.55 411.11 418.33
  L 419.78 413.73
  Q 420.32 413.45 420.61 412.91
  L 423.66 407.34
  A 0.43 0.43 0.0 0 1 423.83 407.17
  Q 425.25 406.31 424.73 405.06
  C 419.67 392.87 424.72 381.59 433.26 372.50
  Q 434.01 372.96 433.64 373.39
  Q 430.31 377.29 428.04 381.64
  Q 420.58 394.19 426.08 405.28
  C 430.82 414.80 439.51 419.02 450.02 416.54
  C 463.26 413.41 470.39 401.05 469.20 388.09
  Q 469.12 383.22 466.65 378.24
  Q 466.78 378.02 467.21 377.89
  C 471.52 385.72 471.33 393.59 468.37 401.91
  L 466.49 405.93
  Q 465.60 407.85 467.70 407.62
  Q 474.98 406.83 481.95 404.53
  Q 482.62 404.31 482.22 403.73
  L 480.70 401.55
  Q 480.39 401.10 479.85 401.20
  L 469.47 403.10
  A 0.59 0.58 83.0 0 1 468.78 402.56
  L 468.75 401.89
  Q 493.15 401.23 504.66 380.43
  Q 504.93 379.94 504.57 379.52
  L 502.47 377.08
  Q 502.05 376.60 501.52 376.94
  Q 492.77 382.67 482.55 378.00
  Q 482.92 377.41 482.75 376.93
  Q 492.40 381.90 501.05 376.28
  Q 501.48 376.01 501.25 375.55
  Q 498.30 369.57 498.73 363.13
  Q 499.00 358.63 501.11 354.39
  L 502.53 352.62
  Q 502.93 352.12 502.41 351.74
  L 499.69 349.74
  Q 489.34 336.42 496.66 320.65
  A 1.28 1.26 -51.8 0 0 496.51 319.33
  Q 492.31 313.84 490.26 307.62
  Q 489.44 297.71 491.73 288.80
  A 1.18 1.18 0.0 0 0 491.54 287.81
  Q 487.29 282.15 486.16 276.02
  Q 485.81 268.39 488.25 262.24
  Q 488.42 261.80 488.17 261.40
  L 485.76 257.69
  Q 485.37 257.09 485.35 257.80
  Q 485.11 266.62 480.27 273.58
  L 474.70 278.27
  Q 474.31 278.59 474.48 279.06
  Q 479.14 292.05 479.00 306.81
  Q 477.10 314.55 470.72 321.47
  Q 470.40 321.82 469.92 321.90
  Q 460.54 323.61 452.42 327.40
  C 444.25 331.22 435.03 339.98 433.93 349.56
  A 1.59 1.58 5.1 0 0 435.41 351.33
  Q 451.17 352.23 462.40 341.66
  A 0.46 0.46 0.0 0 1 463.18 341.97
  C 463.63 349.34 465.38 369.30 477.83 357.65
  C 482.53 353.25 485.22 345.41 484.70 339.16
  Q 484.26 333.80 485.21 339.09
  Q 485.86 342.73 484.99 346.65
  Q 482.11 358.42 472.19 362.62
  A 1.56 1.50 38.3 0 1 471.27 362.71
  C 464.19 361.22 462.20 349.88 462.57 343.96
  A 0.50 0.50 0.0 0 0 461.74 343.55
  Q 449.95 353.77 434.23 352.09
  Q 433.79 352.04 433.55 351.68
  Q 432.39 349.94 432.97 347.99
  Q 436.77 335.13 448.75 327.92
  Q 455.26 324.46 462.65 322.21
  L 469.12 320.87
  Q 469.61 320.77 469.94 320.40
  C 473.91 316.09 477.80 310.49 477.81 304.39
  Q 477.81 291.65 473.43 279.60
  Q 473.21 279.00 472.60 279.18
  L 469.52 280.11
  Q 468.92 280.28 469.08 280.89
  C 471.43 290.22 468.70 300.43 458.93 304.00
  Q 457.15 304.65 455.31 305.51
  Q 454.84 305.73 454.97 306.22
  C 456.16 310.64 457.69 315.05 454.77 319.34
  Q 453.84 320.70 455.50 320.94
  L 454.82 321.01
  Q 454.33 321.05 454.03 321.46
  Q 451.68 324.65 448.27 326.77
  Q 436.65 331.88 431.17 321.08
  Q 431.36 320.63 431.25 320.25
  C 428.95 312.42 431.78 306.39 437.13 300.86
  Q 437.48 300.49 437.15 300.10
  Q 434.71 297.22 433.98 293.50
  A 0.40 0.40 0.0 0 0 433.27 293.32
  Q 430.73 296.37 427.78 297.88
  C 421.38 301.13 415.70 295.85 415.99 289.22
  Q 416.31 282.08 422.49 277.05
  A 0.61 0.60 62.9 0 0 422.69 276.41
  L 421.59 272.78
  A 0.50 0.50 0.0 0 0 421.03 272.44
  Q 415.13 273.49 409.44 271.77
  Q 408.72 271.56 408.75 272.31
  C 408.79 273.59 409.37 274.71 409.28 275.92
  Q 408.37 287.53 398.36 292.23
  C 387.82 297.18 387.52 282.68 388.64 277.05
  C 389.13 274.60 388.91 273.21 388.48 270.96
  C 387.35 265.04 393.37 255.68 395.42 250.07
  Q 400.23 236.88 412.04 228.88
  Q 412.47 228.59 412.67 228.12
  C 415.98 220.30 426.07 214.73 433.65 212.02
  Q 434.12 211.86 434.44 211.47
  C 442.52 201.53 459.54 195.11 471.94 194.09
  A 0.80 0.79 69.8 0 0 472.52 192.83
  C 468.98 187.95 465.33 180.93 465.28 174.82
  A 1.84 1.83 -2.9 0 1 466.96 172.97
  C 480.65 171.74 496.00 178.35 507.55 185.96
  C 520.62 194.57 534.76 211.03 533.38 227.52
  A 0.48 0.47 -3.7 0 0 533.96 228.02
  Q 543.55 225.91 552.93 223.14
  Q 554.89 222.56 555.23 224.28
  C 557.29 234.80 560.10 245.16 551.19 253.43
  Q 540.58 263.28 526.97 268.28
  A 1.67 1.67 0.0 0 1 524.88 267.40
  L 519.10 254.58
  Z
  M 439.37 218.56
  Q 437.25 220.27 435.03 221.91
  A 0.55 0.54 -76.1 0 0 435.59 222.84
  Q 439.16 221.12 443.02 221.73
  A 0.86 0.86 0.0 0 0 444.00 220.71
  Q 443.59 218.56 444.95 216.92
  A 1.08 1.08 0.0 0 0 443.93 215.17
  C 442.03 215.50 440.43 217.71 439.37 218.56
  Z
  M 417.54 229.03
  Q 416.19 233.22 413.90 236.96
  A 0.60 0.60 0.0 0 0 414.75 237.77
  Q 417.14 236.11 419.98 236.44
  A 1.14 1.13 11.4 0 0 421.19 235.64
  Q 422.56 231.22 425.50 227.71
  A 0.33 0.33 0.0 0 0 425.18 227.18
  L 417.76 228.84
  A 0.28 0.27 3.2 0 0 417.54 229.03
  Z
  M 398.16 257.05
  Q 397.01 261.44 395.26 265.39
  A 0.48 0.48 0.0 0 0 395.95 265.99
  L 399.57 263.75
  Q 400.08 263.44 399.99 262.85
  Q 399.27 257.84 400.70 252.94
  A 0.47 0.47 0.0 0 0 400.02 252.39
  C 398.16 253.39 398.52 255.65 398.16 257.05
  Z
  M 206.22 270.72
  C 209.70 270.93 213.31 271.96 216.55 273.36
  Q 217.07 273.59 217.12 273.02
  Q 217.73 266.58 220.00 260.54
  A 0.54 0.54 0.0 0 0 219.18 259.91
  L 205.90 269.65
  A 0.59 0.59 0.0 0 0 206.22 270.72
  Z
  M 157.99 298.59
  Q 158.49 299.40 159.39 299.52
  Q 159.88 299.58 160.14 299.16
  L 162.52 295.32
  A 0.42 0.41 -84.2 0 0 162.03 294.71
  L 157.24 296.53
  A 0.82 0.81 -11.8 0 0 156.71 297.33
  Q 156.76 298.27 157.35 298.25
  Q 157.77 298.24 157.99 298.59
  Z
  M 177.30 303.57
  A 0.39 0.39 0.0 0 0 177.60 304.17
  L 181.83 304.48
  A 0.39 0.39 0.0 0 0 182.25 304.09
  L 182.25 297.25
  A 0.39 0.39 0.0 0 0 181.53 297.04
  L 177.30 303.57
  Z
  M 291.97 408.56
  L 299.76 407.52
  Q 300.02 407.83 301.30 407.83
  L 300.51 408.01
  A 0.43 0.43 0.0 0 0 300.39 408.81
  Q 304.84 411.34 307.43 406.89
  Q 307.78 406.28 307.10 406.47
  L 302.51 407.78
  Q 302.76 407.00 303.29 406.60
  C 305.46 405.77 307.41 406.00 309.39 405.00
  C 316.20 401.57 323.22 397.73 326.11 390.21
  Q 326.28 389.76 326.77 389.73
  C 330.61 389.51 334.94 390.08 338.22 389.23
  Q 344.87 387.51 349.45 381.32
  Q 361.03 372.08 376.14 372.28
  A 0.79 0.78 6.8 0 0 376.92 371.67
  Q 378.55 364.54 384.20 360.02
  A 0.40 0.40 0.0 0 0 383.82 359.32
  Q 374.56 362.39 367.49 369.06
  Q 367.15 369.38 366.70 369.27
  C 350.67 365.54 334.63 372.50 322.43 382.60
  Q 322.04 382.93 321.53 382.87
  C 307.69 381.39 293.42 389.81 285.93 400.96
  Q 285.66 401.36 285.18 401.32
  C 268.76 399.74 252.69 410.07 245.64 424.55
  C 242.52 430.97 254.52 429.26 257.09 428.96
  C 269.70 427.48 282.82 421.15 288.94 409.39
  Q 289.19 408.91 289.72 408.85
  L 291.97 408.56
  Z
  M 321.24 398.44
  A 0.47 0.47 0.0 0 0 321.70 399.25
  Q 328.06 396.78 335.21 396.87
  C 336.37 396.89 337.66 397.50 338.97 397.43
  A 0.82 0.81 -87.3 0 0 339.72 396.74
  Q 340.35 392.69 342.85 389.51
  A 0.38 0.38 0.0 0 0 342.42 388.92
  Q 335.69 391.49 328.45 390.63
  A 1.66 1.66 0.0 0 0 326.75 391.59
  Q 324.86 395.71 321.24 398.44
  Z
  M 514.24 559.36
  Q 512.87 558.94 513.20 559.64
  C 515.00 563.48 512.94 567.25 509.69 569.41
  A 0.34 0.34 0.0 0 0 509.98 570.01
  Q 516.50 567.99 520.57 562.56
  A 0.83 0.83 0.0 0 0 520.16 561.27
  L 514.24 559.36
  Q 516.20 558.40 516.95 559.78
  A 0.78 0.78 0.0 0 0 517.64 560.20
  L 519.52 560.20
  A 0.38 0.38 0.0 0 0 519.61 559.45
  Q 515.52 558.45 511.96 556.20
  A 0.44 0.44 0.0 0 0 511.30 556.67
  Q 511.56 557.85 512.78 558.08
  Q 514.16 558.33 514.24 559.36
  Z"
/>
<g stroke-width="2.00" fill="none" stroke-linecap="butt">
<path stroke="#8d8351" vector-effect="non-scaling-stroke" d="
  M 215.54 204.16
  C 211.01 199.83 202.95 198.08 198.28 202.70
  C 193.90 207.05 194.04 215.08 196.13 220.71"
/>
<path stroke="#746e6c" vector-effect="non-scaling-stroke" d="
  M 214.94 204.99
  Q 210.03 200.15 203.47 201.27
  C 194.73 202.77 194.85 214.33 197.13 220.70"
/>
<path stroke="#bbab59" vector-effect="non-scaling-stroke" d="
  M 478.71 201.45
  Q 477.93 205.13 481.13 208.96"
/>
<path stroke="#ab9957" vector-effect="non-scaling-stroke" d="
  M 473.76 212.86
  Q 472.50 211.77 471.69 213.31"
/>
<path stroke="#ab9957" vector-effect="non-scaling-stroke" d="
  M 466.84 220.60
  Q 465.41 220.53 464.47 219.36
  Q 464.15 218.96 463.67 218.82
  Q 461.34 218.13 459.45 216.49"
/>
<path stroke="#bbab59" vector-effect="non-scaling-stroke" d="
  M 150.82 229.92
  Q 151.00 230.37 151.51 230.58
  Q 152.01 230.78 152.36 230.37
  Q 159.08 222.67 169.30 221.27
  Q 169.82 221.20 170.11 220.76
  Q 170.71 219.86 170.00 219.96"
/>
<path stroke="#ececec" vector-effect="non-scaling-stroke" d="
  M 511.75 224.51
  Q 509.45 224.67 507.00 224.00
  Q 505.87 223.69 504.88 224.71"
/>
<path stroke="#bbab59" vector-effect="non-scaling-stroke" d="
  M 447.90 234.39
  Q 447.16 237.46 452.98 239.77"
/>
<path stroke="#bebbb9" vector-effect="non-scaling-stroke" d="
  M 265.31 229.32
  Q 264.38 229.70 263.51 229.61
  Q 263.04 229.56 262.72 229.93
  Q 258.56 234.76 253.11 238.25"
/>
<path stroke="#bebbb9" vector-effect="non-scaling-stroke" d="
  M 248.29 234.09
  Q 248.69 233.83 248.76 233.38"
/>
<path stroke="#8e8b8b" vector-effect="non-scaling-stroke" d="
  M 248.76 233.38
  Q 249.72 233.24 250.14 232.41
  Q 250.43 231.86 249.81 231.90
  L 243.51 232.26"
/>
<path stroke="#8d8580" vector-effect="non-scaling-stroke" d="
  M 232.09 246.59
  Q 233.71 246.42 232.31 247.40
  Q 231.90 247.68 231.44 247.48
  Q 230.00 246.84 229.14 245.89"
/>
<path stroke="#746e6c" vector-effect="non-scaling-stroke" d="
  M 248.76 233.38
  L 240.93 233.51"
/>
<path stroke="#8d8580" vector-effect="non-scaling-stroke" d="
  M 162.43 354.99
  Q 159.76 352.72 159.19 347.31
  Q 157.91 335.11 159.26 324.55
  Q 159.32 324.06 159.03 323.66
  Q 158.38 322.75 159.00 321.72
  Q 159.27 321.28 158.86 320.96
  Q 158.61 320.75 158.26 320.71"
/>
<path stroke="#8d8580" vector-effect="non-scaling-stroke" d="
  M 163.40 304.19
  L 173.78 289.18
  Q 174.07 288.75 173.60 288.55
  L 173.16 288.36"
/>
<path stroke="#8d8580" vector-effect="non-scaling-stroke" d="
  M 187.52 271.86
  L 194.27 266.42"
/>
<path stroke="#8d8580" vector-effect="non-scaling-stroke" d="
  M 268.30 457.14
  C 264.71 456.42 260.90 456.84 257.60 456.35
  Q 238.37 453.52 229.18 451.31
  Q 224.95 450.29 210.15 445.45
  C 207.18 444.48 204.10 442.97 201.02 441.85
  C 195.46 439.83 191.32 437.75 186.54 435.12
  A 0.74 0.72 40.2 0 0 185.73 435.18
  Q 185.12 435.66 184.46 435.83"
/>
<path stroke="#615443" vector-effect="non-scaling-stroke" d="
  M 260.22 257.23
  L 260.40 256.61"
/>
<path stroke="#403525" vector-effect="non-scaling-stroke" d="
  M 260.40 256.61
  C 264.61 255.65 271.66 251.16 270.06 246.00
  C 268.48 240.93 257.91 242.70 254.79 243.64"
/>
<path stroke="#615443" vector-effect="non-scaling-stroke" d="
  M 254.79 243.64
  Q 254.75 243.99 254.27 243.63"
/>
<path stroke="#221f1f" vector-effect="non-scaling-stroke" d="
  M 260.40 256.61
  Q 259.60 256.04 261.72 255.33
  C 265.53 254.06 270.07 250.65 269.74 246.11
  Q 269.70 245.60 269.33 245.25
  C 266.43 242.42 258.94 243.45 255.28 244.49
  Q 254.75 244.64 254.73 244.09
  Q 254.73 243.90 254.79 243.64"
/>
<path stroke="#bbab59" vector-effect="non-scaling-stroke" d="
  M 426.35 253.10
  Q 427.73 256.24 433.28 258.13"
/>
<path stroke="#bbab59" vector-effect="non-scaling-stroke" d="
  M 265.32 262.29
  Q 264.31 262.84 266.74 265.31
  Q 267.20 265.78 266.87 266.35
  Q 262.83 273.40 259.79 280.93
  Q 259.76 281.00 259.69 281.00
  L 259.31 281.00
  Q 259.07 281.00 259.03 281.24
  L 258.95 281.69"
/>
<path stroke="#bbab59" vector-effect="non-scaling-stroke" d="
  M 248.31 299.20
  C 247.67 302.33 245.23 304.72 243.88 307.47
  Q 241.09 313.12 236.04 317.28"
/>
<path stroke="#8d8580" vector-effect="non-scaling-stroke" d="
  M 257.66 285.73
  Q 256.65 285.32 256.51 285.72
  Q 254.60 291.09 250.88 296.91"
/>
<path stroke="#ab9957" vector-effect="non-scaling-stroke" d="
  M 516.77 266.18
  L 516.20 266.60"
/>
<path stroke="#746e6c" vector-effect="non-scaling-stroke" d="
  M 515.51 267.14
  C 510.13 270.93 503.88 270.40 497.73 271.39"
/>
<path stroke="#bbab59" vector-effect="non-scaling-stroke" d="
  M 496.66 271.09
  L 487.47 270.04"
/>
<path stroke="#bbab59" vector-effect="non-scaling-stroke" d="
  M 407.73 273.67
  Q 406.81 272.58 405.71 272.50
  Q 405.24 272.47 404.80 272.27
  Q 399.29 269.74 399.83 264.79"
/>
<path stroke="#bbab59" vector-effect="non-scaling-stroke" d="
  M 454.42 308.08
  Q 453.82 307.11 452.78 307.80
  Q 452.37 308.06 451.89 308.12
  Q 442.56 309.26 437.31 302.36"
/>
<path stroke="#bbab59" vector-effect="non-scaling-stroke" d="
  M 135.52 319.11
  Q 137.25 312.40 140.51 307.76
  A 1.45 1.43 -81.5 0 1 141.26 307.20
  Q 144.15 306.28 144.50 303.84"
/>
<path stroke="#3b3634" vector-effect="non-scaling-stroke" d="
  M 291.97 408.56
  L 299.76 407.52"
/>
<path stroke="#221f1f" vector-effect="non-scaling-stroke" d="
  M 299.76 407.52
  Q 300.02 407.83 301.30 407.83"
/>
<path stroke="#221f1f" vector-effect="non-scaling-stroke" d="
  M 302.51 407.78
  Q 302.76 407.00 303.29 406.60"
/>
<path stroke="#3b3634" vector-effect="non-scaling-stroke" d="
  M 303.29 406.60
  C 305.46 405.77 307.41 406.00 309.39 405.00
  C 316.20 401.57 323.22 397.73 326.11 390.21
  Q 326.28 389.76 326.77 389.73
  C 330.61 389.51 334.94 390.08 338.22 389.23
  Q 344.87 387.51 349.45 381.32"
/>
<path stroke="#534f4e" vector-effect="non-scaling-stroke" d="
  M 349.45 381.32
  Q 361.03 372.08 376.14 372.28
  A 0.79 0.78 6.8 0 0 376.92 371.67
  Q 378.55 364.54 384.20 360.02
  A 0.40 0.40 0.0 0 0 383.82 359.32
  Q 374.56 362.39 367.49 369.06
  Q 367.15 369.38 366.70 369.27
  C 350.67 365.54 334.63 372.50 322.43 382.60
  Q 322.04 382.93 321.53 382.87
  C 307.69 381.39 293.42 389.81 285.93 400.96
  Q 285.66 401.36 285.18 401.32
  C 268.76 399.74 252.69 410.07 245.64 424.55
  C 242.52 430.97 254.52 429.26 257.09 428.96
  C 269.70 427.48 282.82 421.15 288.94 409.39
  Q 289.19 408.91 289.72 408.85
  L 291.97 408.56"
/>
<path stroke="#8d8580" vector-effect="non-scaling-stroke" d="
  M 349.45 381.32
  Q 338.00 385.20 327.05 388.34
  C 322.91 389.53 320.26 391.78 316.96 394.28
  C 309.95 399.59 300.99 402.97 292.96 406.48
  Q 292.52 406.68 292.53 407.16
  Q 292.54 407.90 291.97 408.56"
/>
<path stroke="#5c5552" vector-effect="non-scaling-stroke" d="
  M 303.29 406.60
  Q 301.26 406.50 299.76 407.52"
/>
<path stroke="#726646" vector-effect="non-scaling-stroke" d="
  M 506.79 381.25
  Q 506.38 381.75 506.49 382.77"
/>
<path stroke="#726646" vector-effect="non-scaling-stroke" d="
  M 507.36 382.77
  Q 506.98 382.01 507.53 381.34"
/>
<path stroke="#bebbb9" vector-effect="non-scaling-stroke" d="
  M 306.00 414.18
  Q 306.67 412.36 306.16 409.54"
/>
<path stroke="#bebbb9" vector-effect="non-scaling-stroke" d="
  M 301.64 410.50
  Q 300.99 414.01 301.98 416.45"
/>
<path stroke="#bbab59" vector-effect="non-scaling-stroke" d="
  M 352.96 417.03
  Q 353.36 420.42 358.64 419.98"
/>
<path stroke="#bbab59" vector-effect="non-scaling-stroke" d="
  M 455.94 415.94
  Q 457.34 416.88 459.75 415.55"
/>
<path stroke="#5c5552" vector-effect="non-scaling-stroke" d="
  M 473.53 420.21
  Q 475.67 427.32 472.09 430.55
  A 1.97 1.97 0.0 0 0 471.46 432.31
  Q 472.56 439.52 474.46 446.27
  Q 475.16 448.77 475.39 451.77
  Q 475.62 454.78 476.20 457.33"
/>
<path stroke="#746e6c" vector-effect="non-scaling-stroke" d="
  M 477.07 459.09
  Q 476.86 459.34 476.17 459.26"
/>
<path stroke="#bbab59" vector-effect="non-scaling-stroke" d="
  M 315.75 457.28
  L 320.60 462.04
  A 0.77 0.71 65.4 0 0 321.11 462.25
  L 321.72 462.25
  Q 322.15 462.25 322.22 462.68
  L 322.35 463.52"
/>
<path stroke="#a7a29f" vector-effect="non-scaling-stroke" d="
  M 410.30 459.45
  L 410.97 459.51
  Q 411.41 459.55 411.49 459.98
  L 411.58 460.44"
/>
<path stroke="#bebbb9" vector-effect="non-scaling-stroke" d="
  M 403.95 476.63
  Q 391.78 479.29 380.50 478.19
  Q 374.24 477.57 368.93 474.80
  Q 368.52 474.58 368.10 474.80
  L 366.61 475.60"
/>
<path stroke="#bbab59" vector-effect="non-scaling-stroke" d="
  M 460.13 446.11
  L 455.29 450.72"
/>
<path stroke="#a29674" vector-effect="non-scaling-stroke" d="
  M 453.97 450.71
  Q 453.68 450.85 453.41 450.62"
/>
<path stroke="#bbab59" vector-effect="non-scaling-stroke" d="
  M 609.69 475.77
  Q 609.63 476.35 610.17 477.00"
/>
<path stroke="#8d8351" vector-effect="non-scaling-stroke" d="
  M 610.17 477.00
  C 613.81 485.26 616.84 491.66 615.81 500.21"
/>
<path stroke="#615443" vector-effect="non-scaling-stroke" d="
  M 617.53 496.28
  Q 617.45 498.61 616.31 500.85"
/>
<path stroke="#907c4c" vector-effect="non-scaling-stroke" d="
  M 620.48 500.02
  Q 619.85 500.38 619.43 500.22
  Q 618.91 500.04 618.94 499.49
  Q 619.06 496.94 617.53 496.28"
/>
<path stroke="#726646" vector-effect="non-scaling-stroke" d="
  M 617.53 496.28
  Q 616.37 485.65 610.17 477.00"
/>
<path stroke="#bbab59" vector-effect="non-scaling-stroke" d="
  M 487.41 481.14
  Q 486.26 482.65 485.47 484.47
  Q 485.18 485.14 484.73 485.24
  Q 484.24 485.36 483.53 485.23"
/>
<path stroke="#c6935d" vector-effect="non-scaling-stroke" d="
  M 482.56 491.79
  Q 481.89 491.33 481.99 490.85"
/>
<path stroke="#bbab59" vector-effect="non-scaling-stroke" d="
  M 559.32 517.85
  C 554.01 518.32 549.53 517.68 547.38 512.20"
/>
<path stroke="#bbab59" vector-effect="non-scaling-stroke" d="
  M 535.25 525.74
  Q 535.29 523.76 533.46 522.74
  Q 528.46 519.94 527.17 518.92"
/>
<path stroke="#8d8580" vector-effect="non-scaling-stroke" d="
  M 563.56 523.48
  Q 560.36 521.58 559.71 519.24"
/>
<path stroke="#bbab59" vector-effect="non-scaling-stroke" d="
  M 602.04 524.23
  Q 600.46 528.45 597.22 531.51
  Q 595.75 532.89 592.85 533.64"
/>
<path stroke="#8d8580" vector-effect="non-scaling-stroke" d="
  M 590.33 532.28
  Q 588.45 532.84 587.13 534.45
  A 1.12 1.11 -69.0 0 1 586.20 534.87
  Q 583.41 534.73 581.41 536.58
  Q 581.00 536.97 580.65 536.52
  Q 580.43 536.24 580.45 536.04"
/>
<path stroke="#8d8580" vector-effect="non-scaling-stroke" d="
  M 532.98 547.09
  Q 530.27 544.99 528.23 543.50
  Q 525.04 541.17 521.45 540.44"
/>
<path stroke="#514728" vector-effect="non-scaling-stroke" d="
  M 514.24 559.36
  Q 512.87 558.94 513.20 559.64
  C 515.00 563.48 512.94 567.25 509.69 569.41
  A 0.34 0.34 0.0 0 0 509.98 570.01
  Q 516.50 567.99 520.57 562.56
  A 0.83 0.83 0.0 0 0 520.16 561.27
  L 514.24 559.36"
/>
</g>
<path fill="#d6c864" d="
  M 485.95 192.37
  Q 481.53 196.21 482.33 202.26
  A 0.49 0.49 0.0 0 1 481.48 202.65
  C 474.96 195.29 468.11 185.84 466.26 175.95
  A 1.94 1.94 0.0 0 1 468.24 173.65
  Q 476.36 173.95 484.07 176.38
  A 0.33 0.33 0.0 0 1 484.08 177.00
  C 477.85 179.23 483.45 188.39 486.01 191.14
  A 0.86 0.86 0.0 0 1 485.95 192.37
  Z"
/>
<path fill="#d6c864" d="
  M 512.01 192.15
  L 511.50 193.85
  A 0.61 0.61 0.0 0 1 510.48 194.11
  L 509.81 193.43
  Q 509.53 193.15 509.15 193.01
  C 503.90 191.04 493.17 188.64 487.95 191.13
  A 0.62 0.62 0.0 0 1 487.24 191.00
  Q 482.97 186.45 482.33 180.26
  Q 482.27 179.67 482.62 179.18
  Q 484.30 176.89 486.81 177.64
  Q 506.51 183.52 520.39 198.35
  A 0.76 0.76 0.0 0 1 520.11 199.58
  Q 518.35 200.26 518.77 202.14
  A 0.55 0.54 -80.2 0 1 517.95 202.72
  C 512.95 199.58 497.81 193.97 497.61 204.69
  C 497.46 212.79 506.96 219.93 513.92 222.98
  A 0.39 0.38 -58.7 0 1 514.06 223.57
  Q 513.84 223.84 513.51 223.71
  Q 500.08 218.60 488.20 209.05
  Q 485.60 206.97 484.00 204.86
  Q 483.72 204.49 483.72 204.02
  C 483.73 202.91 483.28 201.69 483.28 200.72
  C 483.26 192.33 489.03 190.38 496.41 191.12
  C 501.49 191.62 506.71 192.31 511.13 195.08
  Q 511.76 195.47 511.95 194.76
  L 512.60 192.32
  A 0.31 0.31 0.0 0 0 512.01 192.15
  Z"
/>
<path fill="#d6c864" d="
  M 215.54 204.16
  C 211.01 199.83 202.95 198.08 198.28 202.70
  C 193.90 207.05 194.04 215.08 196.13 220.71
  Q 196.03 220.81 195.95 220.90
  Q 195.79 221.08 195.56 221.03
  L 185.29 218.94
  Q 184.82 218.84 184.56 218.44
  C 178.80 209.56 181.16 196.60 186.90 188.90
  C 193.69 179.79 206.89 179.53 216.45 184.64
  C 236.49 195.34 235.64 225.60 228.79 243.23
  A 0.28 0.28 0.0 0 1 228.31 243.30
  L 222.80 236.54
  A 0.55 0.55 0.0 0 1 222.69 236.09
  C 224.92 224.61 224.26 212.77 215.54 204.16
  Z"
/>
<path fill="#d6c864" d="
  M 478.71 201.45
  Q 477.93 205.13 481.13 208.96
  L 473.76 212.86
  Q 472.50 211.77 471.69 213.31
  Q 456.36 217.13 439.69 213.21
  Q 437.69 212.75 436.61 212.23
  A 0.75 0.74 -66.2 0 1 436.25 211.28
  Q 436.77 209.97 438.60 208.64
  Q 454.78 196.84 472.91 194.50
  Q 473.45 194.43 473.77 194.87
  L 478.71 201.45
  Z"
/>
<path fill="#b65e56" d="
  M 519.56 203.95
  Q 518.91 201.77 520.26 200.01
  Q 520.64 199.51 521.06 199.97
  C 525.52 204.84 535.45 220.57 531.84 226.71
  Q 531.59 227.12 531.12 227.19
  C 521.00 228.51 496.25 215.07 499.19 202.55
  A 3.69 3.68 88.8 0 1 501.76 199.86
  C 508.73 197.87 512.98 201.40 519.08 204.35
  A 0.34 0.34 0.0 0 0 519.56 203.95
  Z"
/>
<path fill="#433e3d" d="
  M 215.54 204.16
  Q 214.91 204.17 214.94 204.99
  Q 210.03 200.15 203.47 201.27
  C 194.73 202.77 194.85 214.33 197.13 220.70
  Q 196.31 220.82 196.13 220.71
  C 194.04 215.08 193.90 207.05 198.28 202.70
  C 202.95 198.08 211.01 199.83 215.54 204.16
  Z"
/>
<path fill="#a49e9a" d="
  M 214.94 204.99
  C 222.70 213.63 223.08 223.90 222.06 234.67
  Q 221.93 236.00 220.97 235.08
  Q 211.29 225.76 197.74 221.77
  Q 196.65 221.45 197.13 220.70
  C 194.85 214.33 194.73 202.77 203.47 201.27
  Q 210.03 200.15 214.94 204.99
  Z"
/>
<path fill="#a08e4e" d="
  M 478.71 201.45
  L 484.03 206.95
  Q 484.51 207.46 483.88 207.74
  L 481.13 208.96
  Q 477.93 205.13 478.71 201.45
  Z"
/>
<path fill="#d6c864" d="
  M 470.44 217.69
  Q 476.05 211.56 485.12 208.42
  Q 485.76 208.20 485.75 208.88
  Q 485.75 209.03 485.75 209.19
  Q 485.74 209.70 485.24 209.74
  Q 484.90 209.76 484.56 209.77
  Q 484.25 209.78 483.99 209.93
  Q 474.42 215.37 473.48 225.97
  C 472.94 232.06 476.64 240.50 483.97 240.16
  C 495.50 239.64 500.75 228.80 498.66 218.52
  Q 498.53 217.87 499.12 218.17
  C 505.65 221.42 503.48 233.67 501.30 239.20
  C 498.62 246.00 490.31 251.47 483.57 252.34
  Q 481.93 252.56 477.51 251.96
  C 459.53 249.55 461.23 227.74 470.44 217.69
  Z"
/>
<path fill="#b65e56" d="
  M 478.77 237.22
  C 469.06 229.65 476.21 213.02 486.76 210.20
  Q 487.25 210.07 487.67 210.36
  L 496.75 216.71
  Q 497.09 216.95 497.18 217.36
  C 499.19 226.57 495.87 238.53 485.09 239.14
  Q 481.49 239.34 478.77 237.22
  Z"
/>
<path fill="#7f6a49" d="
  M 473.76 212.86
  Q 471.94 214.14 471.69 213.31
  Q 472.50 211.77 473.76 212.86
  Z"
/>
<path fill="#d6c864" d="
  M 414.41 226.40
  Q 422.56 217.15 434.26 213.06
  A 1.89 1.89 0.0 0 1 435.59 213.08
  L 440.36 214.92
  A 0.58 0.58 0.0 0 1 440.58 215.86
  Q 430.49 226.65 415.53 227.88
  Q 414.53 227.97 414.32 227.61
  A 1.06 1.01 50.7 0 1 414.41 226.40
  Z"
/>
<path fill="#7f6a49" d="
  M 466.84 220.60
  Q 465.41 220.53 464.47 219.36
  Q 464.15 218.96 463.67 218.82
  Q 461.34 218.13 459.45 216.49
  L 470.69 214.86
  Q 471.23 214.78 470.90 215.21
  L 466.84 220.60
  Z"
/>
<path fill="#d6c864" d="
  M 459.45 216.49
  Q 461.34 218.13 463.67 218.82
  Q 464.15 218.96 464.47 219.36
  Q 465.41 220.53 466.84 220.60
  C 464.06 225.79 461.97 229.67 462.52 235.89
  A 1.15 1.15 0.0 0 1 461.53 237.13
  C 449.51 238.74 440.74 228.34 445.98 216.91
  A 1.67 1.67 0.0 0 1 447.57 215.94
  L 459.45 216.49
  Z"
/>
<path fill="#a08e4e" d="
  M 150.82 229.92
  Q 151.00 230.37 151.51 230.58
  Q 152.01 230.78 152.36 230.37
  Q 159.08 222.67 169.30 221.27
  Q 169.82 221.20 170.11 220.76
  Q 170.71 219.86 170.00 219.96
  C 192.47 218.28 213.30 225.95 227.37 243.63
  C 229.83 246.72 224.46 249.91 222.28 251.06
  Q 221.80 251.31 221.62 250.81
  C 216.94 237.93 178.89 226.62 174.51 244.46
  C 170.56 260.50 197.55 263.09 207.04 259.62
  Q 207.33 259.52 207.27 259.82
  Q 207.21 260.14 206.97 260.27
  C 190.79 269.35 167.50 270.78 152.76 257.75
  C 145.19 251.06 145.31 237.87 150.82 229.92
  Z"
/>
<path fill="#d6c864" d="
  M 170.00 219.96
  Q 170.71 219.86 170.11 220.76
  Q 169.82 221.20 169.30 221.27
  Q 159.08 222.67 152.36 230.37
  Q 152.01 230.78 151.51 230.58
  Q 151.00 230.37 150.82 229.92
  Q 157.92 220.83 170.00 219.96
  Z"
/>
<path fill="#d8d8d8" d="
  M 511.75 224.51
  Q 509.45 224.67 507.00 224.00
  Q 505.87 223.69 504.88 224.71
  L 503.70 221.25
  Q 503.48 220.58 504.11 220.88
  L 511.75 224.51
  Z"
/>
<path fill="#d6c864" d="
  M 447.90 234.39
  Q 447.16 237.46 452.98 239.77
  C 447.67 265.82 408.73 254.72 425.18 230.16
  C 428.86 224.66 435.35 223.59 441.58 222.61
  A 1.58 1.58 0.0 0 1 443.41 224.10
  Q 443.67 229.79 447.90 234.39
  Z"
/>
<path fill="#ffffff" d="
  M 511.75 224.51
  Q 512.93 225.23 512.41 228.34
  Q 512.33 228.81 511.85 228.81
  Q 507.52 228.79 504.88 224.71
  Q 505.87 223.69 507.00 224.00
  Q 509.45 224.67 511.75 224.51
  Z"
/>
<path fill="#d8d8d8" d="
  M 542.39 227.40
  L 553.71 224.22
  Q 554.23 224.08 554.35 224.61
  C 556.68 234.91 558.90 245.15 549.85 253.16
  Q 548.40 254.45 548.78 252.54
  C 549.30 249.95 550.42 234.34 545.23 234.55
  Q 541.70 234.69 538.18 235.55
  A 0.40 0.40 0.0 0 1 537.73 234.97
  L 541.60 228.03
  Q 541.86 227.55 542.39 227.40
  Z"
/>
<path fill="#ffffff" d="
  M 514.77 225.75
  A 0.44 0.43 15.3 0 1 515.34 225.43
  L 519.32 226.88
  Q 520.28 227.24 519.36 227.69
  Q 517.24 228.75 514.86 228.93
  Q 514.03 228.99 514.22 228.18
  L 514.77 225.75
  Z"
/>
<path fill="#d8d8d8" d="
  M 265.31 229.32
  Q 264.38 229.70 263.51 229.61
  Q 263.04 229.56 262.72 229.93
  Q 258.56 234.76 253.11 238.25
  Q 244.43 242.39 237.02 244.67
  Q 233.82 245.65 236.32 243.43
  Q 241.96 238.40 248.29 234.09
  Q 248.69 233.83 248.76 233.38
  Q 249.72 233.24 250.14 232.41
  Q 250.43 231.86 249.81 231.90
  L 243.51 232.26
  Q 254.93 227.45 266.40 226.18
  Q 267.33 226.07 266.83 226.87
  L 265.31 229.32
  Z"
/>
<path fill="#a49e9a" d="
  M 526.89 235.46
  Q 523.40 238.62 522.32 243.24
  A 0.46 0.46 0.0 0 1 521.87 243.60
  L 510.85 243.52
  A 0.52 0.51 -4.6 0 1 510.34 243.09
  C 509.98 240.78 510.18 235.78 506.20 238.28
  Q 504.62 239.28 502.94 240.08
  Q 502.27 240.40 502.54 239.70
  Q 504.30 235.26 504.27 230.46
  A 0.84 0.83 -73.3 0 1 505.57 229.76
  C 509.30 232.25 519.35 230.10 523.55 228.88
  A 1.78 1.72 -44.0 0 1 524.52 228.88
  Q 530.69 230.63 536.47 228.73
  Q 538.25 228.15 539.83 228.28
  Q 540.53 228.34 540.17 228.95
  L 536.49 235.19
  A 0.76 0.75 -78.4 0 0 537.23 236.32
  L 544.90 235.39
  A 2.14 2.13 -11.7 0 1 547.22 236.91
  Q 549.40 244.45 548.09 252.69
  C 547.51 256.34 543.73 258.67 540.80 260.47
  A 0.67 0.67 0.0 0 1 539.79 259.97
  C 539.23 254.68 538.02 248.84 532.34 246.87
  Q 531.89 246.72 531.61 247.09
  L 527.05 253.11
  A 0.50 0.50 0.0 0 1 526.18 252.97
  L 523.04 243.92
  A 0.98 0.97 51.0 0 1 523.12 243.12
  L 527.24 235.75
  A 0.23 0.23 0.0 0 0 526.89 235.46
  Z"
/>
<path fill="#d6c864" d="
  M 395.34 252.87
  C 398.61 242.78 405.01 234.11 414.48 228.80
  A 1.02 1.02 0.0 0 1 415.94 230.02
  C 414.51 234.15 412.85 237.44 409.31 240.59
  C 404.72 244.68 401.79 250.98 396.22 253.64
  A 0.64 0.64 0.0 0 1 395.34 252.87
  Z"
/>
<path fill="#a49e9a" d="
  M 265.31 229.32
  Q 257.56 239.80 247.14 247.80
  A 0.38 0.38 0.0 0 1 246.61 247.26
  Q 249.67 243.57 252.97 239.78
  Q 253.29 239.42 253.27 239.06
  Q 253.25 238.72 253.11 238.25
  Q 258.56 234.76 262.72 229.93
  Q 263.04 229.56 263.51 229.61
  Q 264.38 229.70 265.31 229.32
  Z"
/>
<path fill="#7f6a49" d="
  M 260.22 257.23
  L 260.40 256.61
  C 264.61 255.65 271.66 251.16 270.06 246.00
  C 268.48 240.93 257.91 242.70 254.79 243.64
  Q 254.75 243.99 254.27 243.63
  C 255.04 241.36 260.95 236.65 262.90 234.52
  C 267.34 229.68 284.94 229.61 289.56 234.68
  Q 289.96 235.11 289.95 235.70
  C 289.79 247.97 276.98 257.64 266.15 259.69
  Q 265.77 259.76 265.76 260.15
  Q 265.76 260.32 265.66 260.48
  A 0.13 0.13 0.0 0 1 265.48 260.53
  L 260.22 257.23
  Z"
/>
<path fill="#433e3d" d="
  M 243.51 232.26
  L 249.81 231.90
  Q 250.43 231.86 250.14 232.41
  Q 249.72 233.24 248.76 233.38
  L 240.93 233.51
  Q 242.01 232.11 243.51 232.26
  Z"
/>
<path fill="#a49e9a" d="
  M 248.76 233.38
  Q 248.69 233.83 248.29 234.09
  C 247.81 233.96 247.40 233.89 246.95 234.19
  Q 239.55 239.16 232.09 246.59
  Q 233.71 246.42 232.31 247.40
  Q 231.90 247.68 231.44 247.48
  Q 230.00 246.84 229.14 245.89
  C 230.85 238.92 232.92 234.26 240.93 233.51
  L 248.76 233.38
  Z"
/>
<path fill="#a08e4e" d="
  M 447.90 234.39
  C 450.29 236.12 452.81 236.26 452.98 239.77
  Q 447.16 237.46 447.90 234.39
  Z"
/>
<path fill="#756b66" d="
  M 175.27 246.37
  C 178.13 227.20 215.20 239.04 221.09 251.03
  A 0.65 0.64 60.3 0 1 220.87 251.85
  C 216.26 254.91 211.65 258.25 206.14 259.12
  C 197.95 260.42 173.22 260.01 175.27 246.37
  Z"
/>
<path fill="#010001" d="
  M 530.32 239.28
  Q 527.34 233.51 531.27 238.68
  Q 532.28 239.99 532.27 244.59
  Q 532.27 244.68 532.19 244.71
  Q 532.02 244.79 531.93 244.72
  Q 531.89 244.69 531.87 244.60
  Q 531.30 241.18 530.32 239.28
  Z"
/>
<path fill="#d6c864" d="
  M 426.35 253.10
  Q 427.73 256.24 433.28 258.13
  Q 426.65 276.70 408.07 269.94
  Q 403.03 268.11 401.34 263.08
  C 400.34 260.11 400.93 254.03 402.39 251.08
  C 405.78 244.20 412.20 237.84 420.07 237.42
  Q 420.70 237.39 420.57 238.01
  C 419.08 245.09 420.53 249.04 426.35 253.10
  Z"
/>
<path fill="#7f6a49" d="
  M 453.19 242.93
  C 453.94 241.63 454.36 240.35 454.03 238.66
  Q 453.89 237.94 454.61 238.08
  Q 457.75 238.70 460.85 238.49
  Q 461.70 238.43 462.07 238.74
  Q 462.45 239.05 462.49 239.63
  Q 462.52 240.05 462.10 240.13
  Q 457.68 240.96 454.28 243.83
  A 0.72 0.72 0.0 0 1 453.19 242.93
  Z"
/>
<path fill="#756b66" d="
  M 510.75 245.50
  L 521.69 245.50
  Q 522.20 245.50 522.39 245.98
  L 525.49 253.71
  A 1.33 1.32 52.4 0 0 527.78 254.01
  L 531.83 248.56
  Q 532.11 248.18 532.58 248.24
  C 537.08 248.87 538.46 256.31 539.12 260.37
  A 0.92 0.91 -22.3 0 1 538.74 261.26
  Q 533.13 265.21 526.53 267.22
  Q 526.06 267.36 525.88 266.91
  C 523.04 259.88 520.96 251.88 513.89 250.32
  Q 505.43 248.45 496.71 248.45
  Q 496.01 248.45 496.44 247.89
  Q 500.84 242.24 507.13 238.84
  Q 508.54 238.08 508.88 239.64
  L 510.02 244.90
  A 0.76 0.75 -5.2 0 0 510.75 245.50
  Z"
/>
<path fill="#756b66" d="
  M 162.43 354.99
  Q 159.76 352.72 159.19 347.31
  Q 157.91 335.11 159.26 324.55
  Q 159.32 324.06 159.03 323.66
  Q 158.38 322.75 159.00 321.72
  Q 159.27 321.28 158.86 320.96
  Q 158.61 320.75 158.26 320.71
  C 160.86 318.12 166.35 310.62 165.23 306.76
  Q 164.73 305.02 163.40 304.19
  L 173.78 289.18
  Q 174.07 288.75 173.60 288.55
  L 173.16 288.36
  C 178.39 284.93 185.87 278.07 187.52 271.86
  L 194.27 266.42
  C 205.88 263.15 214.30 256.90 223.93 250.94
  Q 226.37 249.43 229.14 245.89
  Q 230.00 246.84 231.44 247.48
  Q 231.90 247.68 232.31 247.40
  Q 233.71 246.42 232.09 246.59
  Q 241.99 244.57 250.25 240.48
  A 0.38 0.38 0.0 0 1 250.75 241.02
  Q 250.09 242.12 249.02 242.84
  Q 248.57 243.15 248.30 243.62
  Q 245.98 247.75 242.43 250.90
  A 1.42 1.41 -65.5 0 1 241.50 251.25
  C 238.03 251.26 234.34 250.68 231.14 252.24
  Q 213.35 260.89 199.01 274.59
  A 0.79 0.76 30.7 0 1 198.25 274.77
  L 196.38 274.21
  Q 195.80 274.04 195.32 274.42
  Q 187.50 280.73 184.96 284.72
  C 183.33 287.28 183.77 291.80 181.53 294.97
  Q 177.33 300.92 173.80 307.29
  A 0.89 0.88 14.1 0 1 173.02 307.75
  L 171.52 307.75
  Q 171.09 307.75 170.89 308.13
  Q 167.05 315.70 166.25 325.25
  C 165.97 328.52 164.29 332.21 163.74 335.26
  Q 161.97 345.08 162.43 354.99
  Z"
/>
<path fill="#d6c864" d="
  M 470.29 278.55
  C 458.26 281.84 445.40 275.55 446.11 261.71
  Q 446.83 247.86 459.09 242.10
  C 460.28 241.55 461.81 240.50 463.06 241.49
  Q 463.64 241.95 462.98 242.29
  C 455.81 245.94 450.58 254.64 454.15 262.66
  C 457.42 270.00 465.44 271.41 471.76 267.31
  Q 478.03 263.26 478.74 253.58
  A 0.20 0.20 0.0 0 1 479.06 253.43
  Q 480.44 254.42 481.99 253.66
  A 1.17 1.17 0.0 0 1 483.67 254.60
  C 484.62 264.73 480.75 275.68 470.29 278.55
  Z"
/>
<path fill="#010001" d="
  M 260.40 256.61
  Q 259.60 256.04 261.72 255.33
  C 265.53 254.06 270.07 250.65 269.74 246.11
  Q 269.70 245.60 269.33 245.25
  C 266.43 242.42 258.94 243.45 255.28 244.49
  Q 254.75 244.64 254.73 244.09
  Q 254.73 243.90 254.79 243.64
  C 257.91 242.70 268.48 240.93 270.06 246.00
  C 271.66 251.16 264.61 255.65 260.40 256.61
  Z"
/>
<path fill="#b65e56" d="
  M 477.21 254.24
  C 478.88 271.55 451.84 273.78 454.17 255.39
  Q 455.16 247.51 463.09 243.40
  Q 463.55 243.17 463.90 243.53
  C 464.93 244.59 465.74 246.26 466.48 247.13
  Q 470.42 251.76 476.31 253.20
  A 1.19 1.19 0.0 0 1 477.21 254.24
  Z"
/>
<path fill="#433e3d" d="
  M 254.27 243.63
  Q 254.75 243.99 254.79 243.64
  Q 254.73 243.90 254.73 244.09
  Q 254.75 244.64 255.28 244.49
  C 258.94 243.45 266.43 242.42 269.33 245.25
  Q 269.70 245.60 269.74 246.11
  C 270.07 250.65 265.53 254.06 261.72 255.33
  Q 259.60 256.04 260.40 256.61
  L 260.22 257.23
  Q 252.50 253.40 244.18 251.76
  A 0.58 0.57 33.3 0 1 243.96 250.72
  L 254.27 243.63
  Z"
/>
<path fill="#756b66" d="
  M 512.75 252.32
  C 515.72 271.05 489.11 268.81 485.65 253.88
  Q 485.54 253.40 485.97 253.16
  C 494.43 248.66 500.69 249.03 510.48 250.55
  Q 512.52 250.87 512.75 252.32
  Z"
/>
<path fill="#7f6a49" d="
  M 519.10 254.58
  L 518.26 255.04
  Q 517.40 254.86 517.01 255.32
  Q 516.67 255.72 516.87 256.21
  Q 518.51 260.03 517.63 264.11
  A 0.48 0.47 25.8 0 1 516.86 264.37
  L 513.20 261.31
  Q 512.70 260.90 512.89 260.28
  Q 514.19 256.06 513.31 251.73
  Q 513.18 251.11 513.77 251.33
  C 515.91 252.12 517.82 252.41 519.10 254.58
  Z"
/>
<path fill="#a08e4e" d="
  M 265.32 262.29
  Q 264.31 262.84 266.74 265.31
  Q 267.20 265.78 266.87 266.35
  Q 262.83 273.40 259.79 280.93
  Q 259.76 281.00 259.69 281.00
  L 259.31 281.00
  Q 259.07 281.00 259.03 281.24
  L 258.95 281.69
  C 253.96 268.16 247.35 258.96 232.59 254.82
  Q 232.11 254.68 231.61 254.76
  Q 230.82 254.88 230.37 254.25
  Q 230.04 253.79 230.54 253.51
  C 239.75 248.28 257.91 256.60 265.32 262.29
  Z"
/>
<path fill="#7f6a49" d="
  M 432.76 274.94
  C 435.12 276.59 435.41 278.28 434.50 281.09
  Q 432.98 285.76 433.23 290.68
  Q 433.26 291.16 433.01 291.58
  C 430.09 296.46 422.98 301.02 418.88 295.11
  C 413.23 286.96 421.45 277.11 429.02 274.54
  Q 429.42 274.40 429.45 274.05
  Q 429.50 273.47 428.97 273.71
  L 424.23 275.83
  Q 423.76 276.04 423.61 275.55
  L 422.76 272.88
  Q 422.59 272.34 423.09 272.08
  Q 432.58 267.18 434.80 256.57
  A 1.17 1.16 -83.6 0 1 435.95 255.65
  Q 441.37 255.70 445.95 252.97
  A 0.41 0.40 -5.1 0 1 446.54 253.46
  Q 444.18 259.81 445.25 266.60
  Q 445.33 267.12 444.97 267.51
  C 444.01 268.52 442.48 269.34 441.74 269.97
  Q 438.20 272.95 436.34 276.94
  A 0.57 0.57 0.0 0 1 435.30 276.92
  Q 434.60 275.29 433.03 274.49
  A 0.26 0.26 0.0 0 0 432.76 274.94
  Z"
/>
<path fill="#a08e4e" d="
  M 426.35 253.10
  L 433.24 255.64
  Q 433.72 255.81 433.73 256.33
  Q 433.74 257.27 433.28 258.13
  Q 427.73 256.24 426.35 253.10
  Z"
/>
<path fill="#d6c864" d="
  M 389.39 271.17
  C 389.75 267.33 392.31 253.88 397.32 254.28
  Q 397.90 254.32 397.73 254.88
  C 395.75 261.28 394.83 266.47 390.23 271.54
  A 0.48 0.48 0.0 0 1 389.39 271.17
  Z"
/>
<path fill="#756b66" d="
  M 257.66 285.73
  Q 256.65 285.32 256.51 285.72
  Q 254.60 291.09 250.88 296.91
  Q 249.41 298.30 248.00 298.28
  C 232.73 298.14 224.39 284.15 223.13 270.44
  C 222.82 267.14 222.68 256.26 226.93 255.39
  C 236.96 253.33 249.09 264.47 254.06 272.18
  Q 258.19 278.62 257.66 285.73
  Z"
/>
<path fill="#433e3d" d="
  M 486.16 276.02
  L 480.27 273.58
  Q 485.11 266.62 485.35 257.80
  Q 485.37 257.09 485.76 257.69
  L 488.17 261.40
  Q 488.42 261.80 488.25 262.24
  Q 485.81 268.39 486.16 276.02
  Z"
/>
<path fill="#a08e4e" d="
  M 248.31 299.20
  C 247.67 302.33 245.23 304.72 243.88 307.47
  Q 241.09 313.12 236.04 317.28
  C 215.50 307.29 215.27 278.03 221.43 259.24
  Q 221.84 257.99 222.98 257.59
  Q 223.56 257.38 223.40 257.98
  C 218.62 275.36 227.20 299.25 248.31 299.20
  Z"
/>
<path fill="#7f6a49" d="
  M 516.77 266.18
  L 516.20 266.60
  L 511.56 262.57
  Q 511.87 262.12 512.32 262.02
  Q 512.67 261.94 513.12 262.24
  Q 515.36 263.80 516.77 266.18
  Z"
/>
<path fill="#d6c864" d="
  M 265.32 262.29
  C 274.08 269.40 282.59 280.74 282.04 292.36
  C 280.92 316.01 256.12 324.84 236.04 317.28
  Q 241.09 313.12 243.88 307.47
  C 245.23 304.72 247.67 302.33 248.31 299.20
  Q 259.61 294.85 258.95 281.69
  L 259.03 281.24
  Q 259.07 281.00 259.31 281.00
  L 259.69 281.00
  Q 259.76 281.00 259.79 280.93
  Q 262.83 273.40 266.87 266.35
  Q 267.20 265.78 266.74 265.31
  Q 264.31 262.84 265.32 262.29
  Z"
/>
<path fill="#a08e4e" d="
  M 496.66 271.09
  L 487.47 270.04
  L 488.92 263.17
  A 0.44 0.44 0.0 0 1 489.55 262.87
  L 496.33 266.30
  Q 496.74 266.50 496.73 266.96
  L 496.66 271.09
  Z"
/>
<path fill="#433e3d" d="
  M 511.56 262.57
  L 515.51 267.14
  C 510.13 270.93 503.88 270.40 497.73 271.39
  L 497.57 267.36
  Q 497.54 266.80 498.11 266.78
  C 504.01 266.56 507.31 267.59 511.56 262.57
  Z"
/>
<path fill="#a08e4e" d="
  M 151.61 296.89
  C 140.47 299.07 130.30 292.58 133.16 280.26
  C 136.05 267.82 145.36 264.83 157.22 263.09
  A 1.52 1.48 -34.4 0 1 158.14 263.25
  Q 167.91 268.29 178.91 268.60
  C 181.65 268.67 183.47 269.86 185.65 271.24
  A 1.28 1.28 0.0 0 1 186.10 272.92
  C 180.03 284.55 164.22 294.43 151.61 296.89
  Z"
/>
<path fill="#a08e4e" d="
  M 407.73 273.67
  Q 406.81 272.58 405.71 272.50
  Q 405.24 272.47 404.80 272.27
  Q 399.29 269.74 399.83 264.79
  Q 403.35 268.58 407.21 271.04
  Q 407.98 271.53 407.73 273.67
  Z"
/>
<path fill="#d6c864" d="
  M 399.83 264.79
  Q 399.29 269.74 404.80 272.27
  Q 405.24 272.47 405.71 272.50
  Q 406.81 272.58 407.73 273.67
  Q 408.94 283.96 399.77 290.31
  C 397.34 292.00 393.31 292.85 391.15 290.25
  C 388.86 287.49 389.28 281.44 389.71 277.99
  C 390.57 271.19 393.99 267.75 399.83 264.79
  Z"
/>
<path fill="#d6c864" d="
  M 516.77 266.18
  C 535.89 285.81 509.49 304.69 492.77 287.26
  Q 486.07 280.27 487.47 270.04
  L 496.66 271.09
  Q 499.45 284.36 512.25 284.96
  C 515.17 285.10 517.62 282.54 518.59 279.81
  Q 521.13 272.72 516.20 266.60
  L 516.77 266.18
  Z"
/>
<path fill="#a49e9a" d="
  M 194.27 266.42
  L 187.52 271.86
  L 186.89 270.99
  Q 186.63 270.63 186.97 270.34
  Q 190.02 267.73 194.27 266.42
  Z"
/>
<path fill="#a49e9a" d="
  M 515.51 267.14
  C 520.26 273.58 518.95 287.35 507.84 283.44
  Q 499.67 280.56 497.73 271.39
  C 503.88 270.40 510.13 270.93 515.51 267.14
  Z"
/>
<path fill="#a08e4e" d="
  M 184.72 269.45
  A 0.71 0.71 0.0 0 1 184.86 268.07
  L 187.53 267.82
  Q 188.14 267.76 187.80 268.27
  Q 186.63 270.05 184.72 269.45
  Z"
/>
<path fill="#d6c864" d="
  M 454.81 304.06
  C 431.20 309.03 428.60 279.23 444.67 269.25
  A 1.34 1.34 0.0 0 1 446.28 271.39
  C 440.36 276.73 437.42 286.27 443.85 292.66
  C 451.64 300.41 465.98 291.99 463.33 281.41
  Q 463.19 280.85 463.77 280.79
  L 467.50 280.44
  Q 468.04 280.39 468.13 280.93
  C 469.98 292.11 466.93 301.51 454.81 304.06
  Z"
/>
<path fill="#7f6a49" d="
  M 200.05 275.78
  Q 199.53 275.45 200.00 275.06
  L 203.71 272.03
  Q 204.13 271.69 204.66 271.72
  Q 210.75 272.04 216.33 274.48
  Q 216.88 274.72 216.81 275.31
  Q 215.76 284.07 217.43 292.74
  A 1.26 1.26 0.0 0 1 215.03 293.47
  Q 210.32 282.25 200.05 275.78
  Z"
/>
<path fill="#b65e56" d="
  M 443.57 290.89
  C 438.74 284.47 442.20 277.80 446.34 272.38
  A 0.78 0.78 0.0 0 1 447.74 272.76
  C 448.26 277.08 458.26 280.43 461.82 280.79
  Q 462.35 280.84 462.41 281.37
  C 463.59 291.77 450.90 300.60 443.57 290.89
  Z"
/>
<path fill="#756b66" d="
  M 480.27 273.58
  L 486.16 276.02
  Q 487.29 282.15 491.54 287.81
  A 1.18 1.18 0.0 0 1 491.73 288.80
  Q 489.44 297.71 490.26 307.62
  Q 483.93 304.23 479.00 306.81
  Q 479.14 292.05 474.48 279.06
  Q 474.31 278.59 474.70 278.27
  L 480.27 273.58
  Z"
/>
<path fill="#a08e4e" d="
  M 186.60 284.72
  C 188.06 282.36 193.39 276.07 196.00 275.26
  A 1.32 1.29 -39.6 0 1 196.96 275.34
  C 210.10 281.80 217.04 296.54 217.56 310.56
  C 217.97 321.65 209.42 330.76 197.91 328.04
  C 188.36 325.78 184.87 318.76 183.73 309.25
  C 182.84 301.85 182.57 291.25 186.60 284.72
  Z"
/>
<path fill="#a49e9a" d="
  M 257.66 285.73
  Q 257.10 292.95 250.88 296.91
  Q 254.60 291.09 256.51 285.72
  Q 256.65 285.32 257.66 285.73
  Z"
/>
<path fill="#a49e9a" d="
  M 173.16 288.36
  L 173.60 288.55
  Q 174.07 288.75 173.78 289.18
  L 163.40 304.19
  L 160.08 302.40
  A 0.60 0.60 0.0 0 1 159.86 301.55
  Q 161.77 298.63 163.49 295.65
  C 165.41 292.36 170.00 290.35 173.16 288.36
  Z"
/>
<path fill="#d6c864" d="
  M 522.07 324.29
  C 511.30 330.83 498.34 322.08 493.55 312.38
  C 490.15 305.51 490.85 297.13 492.66 289.71
  Q 492.79 289.18 493.25 289.48
  L 498.99 293.17
  Q 499.43 293.45 499.34 293.96
  C 497.59 304.40 504.19 316.09 515.87 315.93
  C 524.50 315.81 529.01 307.87 527.58 299.49
  Q 527.49 298.97 528.02 299.02
  Q 528.42 299.06 528.54 299.44
  C 531.30 308.25 530.93 318.90 522.07 324.29
  Z"
/>
<path fill="#a49e9a" d="
  M 506.16 311.34
  Q 499.04 304.55 500.31 294.44
  A 0.56 0.56 0.0 0 1 501.06 293.98
  Q 512.18 297.93 521.10 290.14
  Q 521.47 289.81 521.92 290.05
  C 526.47 292.43 527.28 300.77 526.52 304.93
  C 524.65 315.17 513.64 318.47 506.16 311.34
  Z"
/>
<path fill="#d6c864" d="
  M 155.49 297.73
  L 158.62 300.28
  A 0.85 0.84 65.5 0 1 158.06 301.78
  C 151.07 301.55 144.64 301.27 139.17 306.43
  Q 138.62 306.95 138.54 306.20
  Q 138.02 301.70 140.13 297.67
  Q 140.42 297.12 141.03 297.25
  C 142.25 297.50 142.90 298.15 144.15 298.23
  Q 149.45 298.61 154.62 297.52
  Q 155.11 297.41 155.49 297.73
  Z"
/>
<path fill="#a08e4e" d="
  M 454.42 308.08
  Q 453.82 307.11 452.78 307.80
  Q 452.37 308.06 451.89 308.12
  Q 442.56 309.26 437.31 302.36
  Q 438.11 301.20 438.78 301.72
  Q 445.01 306.60 453.36 306.11
  Q 454.42 306.04 454.87 307.02
  Q 455.10 307.50 454.42 308.08
  Z"
/>
<path fill="#a08e4e" d="
  M 135.52 319.11
  Q 137.25 312.40 140.51 307.76
  A 1.45 1.43 -81.5 0 1 141.26 307.20
  Q 144.15 306.28 144.50 303.84
  C 149.33 302.31 168.78 300.19 163.27 312.01
  Q 157.30 324.83 142.94 325.76
  Q 139.57 325.98 137.73 324.73
  Q 135.04 322.90 135.52 319.11
  Z"
/>
<path fill="#d6c864" d="
  M 437.31 302.36
  Q 442.56 309.26 451.89 308.12
  Q 452.37 308.06 452.78 307.80
  Q 453.82 307.11 454.42 308.08
  Q 456.57 315.16 452.83 321.06
  C 449.25 326.73 440.48 329.55 435.29 324.73
  C 428.93 318.83 431.62 307.95 437.31 302.36
  Z"
/>
<path fill="#d6c864" d="
  M 144.50 303.84
  Q 144.15 306.28 141.26 307.20
  A 1.45 1.43 -81.5 0 0 140.51 307.76
  Q 137.25 312.40 135.52 319.11
  Q 135.58 308.42 144.50 303.84
  Z"
/>
<path fill="#7f6a49" d="
  M 174.94 309.16
  A 0.78 0.78 0.0 0 1 174.69 308.22
  Q 176.65 303.85 181.76 305.51
  Q 182.02 305.60 182.07 305.86
  C 183.09 311.38 183.06 315.53 185.73 320.99
  Q 185.96 321.45 185.62 321.74
  Q 185.21 322.09 184.98 321.60
  Q 181.61 314.03 174.94 309.16
  Z"
/>
<path fill="#a49e9a" d="
  M 490.26 307.62
  Q 492.31 313.84 496.51 319.33
  A 1.28 1.26 -51.8 0 1 496.66 320.65
  Q 489.34 336.42 499.69 349.74
  Q 498.66 352.26 501.11 354.39
  Q 499.00 358.63 498.73 363.13
  Q 493.37 361.77 488.72 359.03
  Q 488.26 358.76 488.10 358.25
  Q 487.45 356.10 485.97 354.84
  L 484.99 346.65
  Q 485.86 342.73 485.21 339.09
  Q 484.26 333.80 484.70 339.16
  C 485.22 345.41 482.53 353.25 477.83 357.65
  C 465.38 369.30 463.63 349.34 463.18 341.97
  A 0.46 0.46 0.0 0 0 462.40 341.66
  Q 451.17 352.23 435.41 351.33
  A 1.59 1.58 5.1 0 1 433.93 349.56
  C 435.03 339.98 444.25 331.22 452.42 327.40
  Q 460.54 323.61 469.92 321.90
  Q 470.40 321.82 470.72 321.47
  Q 477.10 314.55 479.00 306.81
  Q 483.93 304.23 490.26 307.62
  Z"
/>
<path fill="#a08e4e" d="
  M 179.71 342.31
  C 173.97 343.93 169.08 339.12 168.12 333.65
  Q 165.91 321.00 171.38 309.93
  Q 172.15 308.38 173.55 309.40
  Q 182.69 316.03 185.10 326.67
  C 186.29 331.94 186.02 340.52 179.71 342.31
  Z"
/>
<path fill="#d6c864" d="
  M 501.20 349.05
  C 493.75 341.74 493.78 331.12 497.05 321.69
  A 0.84 0.84 0.0 0 1 498.33 321.29
  L 503.72 325.14
  A 0.69 0.69 0.0 0 1 503.99 325.81
  C 500.49 345.20 529.64 353.62 532.66 334.64
  Q 533.93 326.63 528.56 320.12
  A 0.58 0.58 0.0 0 1 529.33 319.28
  C 532.76 321.62 534.74 328.05 535.47 331.79
  C 539.53 352.43 515.64 363.19 501.20 349.05
  Z"
/>
<path fill="#a49e9a" d="
  M 158.26 320.71
  Q 158.61 320.75 158.86 320.96
  Q 159.27 321.28 159.00 321.72
  Q 158.38 322.75 159.03 323.66
  Q 159.32 324.06 159.26 324.55
  Q 157.91 335.11 159.19 347.31
  Q 159.76 352.72 162.43 354.99
  Q 165.64 387.47 191.96 405.73
  Q 192.37 406.01 192.15 406.45
  L 191.39 407.99
  Q 191.16 408.45 191.36 408.92
  C 193.57 414.04 200.27 417.38 205.41 418.88
  C 209.05 419.94 213.61 419.98 217.73 420.33
  A 1.51 1.49 -22.0 0 1 218.59 420.69
  Q 230.00 430.61 245.25 429.35
  A 1.98 1.96 53.8 0 1 246.12 429.49
  C 253.70 432.66 267.94 428.15 274.91 424.78
  Q 275.35 424.56 275.84 424.60
  C 285.74 425.33 297.14 420.76 305.33 415.47
  A 0.92 0.90 -44.6 0 1 306.32 415.47
  Q 309.03 417.21 312.25 417.02
  Q 312.99 416.97 312.53 417.55
  Q 306.86 424.76 304.25 433.56
  Q 304.09 434.09 303.56 434.20
  C 288.47 437.53 276.37 443.73 268.30 457.14
  C 264.71 456.42 260.90 456.84 257.60 456.35
  Q 238.37 453.52 229.18 451.31
  Q 224.95 450.29 210.15 445.45
  C 207.18 444.48 204.10 442.97 201.02 441.85
  C 195.46 439.83 191.32 437.75 186.54 435.12
  A 0.74 0.72 40.2 0 0 185.73 435.18
  Q 185.12 435.66 184.46 435.83
  C 163.65 418.73 144.02 390.46 142.97 362.79
  Q 142.43 348.43 146.16 334.42
  C 146.64 332.61 147.89 329.25 148.44 326.56
  Q 148.54 326.10 148.98 325.96
  Q 154.20 324.32 158.26 320.71
  Z"
/>
<path fill="#d8d8d8" d="
  M 455.50 320.94
  L 462.65 322.21
  Q 455.26 324.46 448.75 327.92
  Q 448.90 326.49 448.27 326.77
  Q 451.68 324.65 454.03 321.46
  Q 454.33 321.05 454.82 321.01
  L 455.50 320.94
  Z"
/>
<path fill="#a49e9a" d="
  M 430.22 321.62
  L 416.20 323.07
  A 0.79 0.79 0.0 0 0 415.78 324.47
  Q 421.93 329.55 429.26 332.74
  A 0.49 0.48 -28.2 0 1 428.98 333.66
  Q 411.55 330.64 393.41 335.60
  Q 407.43 330.04 422.26 331.87
  A 0.47 0.47 0.0 0 0 422.58 331.02
  Q 418.94 328.61 415.95 326.05
  Q 414.75 325.03 414.75 324.28
  Q 414.74 322.79 415.84 322.58
  Q 423.69 321.09 430.22 321.62
  Z"
/>
<path fill="#ffffff" d="
  M 431.17 321.08
  Q 436.65 331.88 448.27 326.77
  Q 448.90 326.49 448.75 327.92
  Q 436.77 335.13 432.97 347.99
  Q 432.39 349.94 433.55 351.68
  Q 433.79 352.04 434.23 352.09
  Q 449.95 353.77 461.74 343.55
  A 0.50 0.50 0.0 0 1 462.57 343.96
  C 462.20 349.88 464.19 361.22 471.27 362.71
  A 1.56 1.50 38.3 0 0 472.19 362.62
  Q 482.11 358.42 484.99 346.65
  L 485.97 354.84
  Q 486.47 365.97 482.75 376.93
  Q 482.92 377.41 482.55 378.00
  L 477.86 387.78
  A 0.34 0.34 0.0 0 1 477.24 387.75
  L 471.58 372.28
  L 471.46 367.71
  A 0.27 0.27 0.0 0 0 470.93 367.68
  C 470.62 369.65 470.66 371.19 469.45 372.87
  C 463.19 381.56 453.84 389.11 442.72 392.82
  Q 442.20 392.99 442.21 392.44
  Q 442.22 391.27 441.54 390.23
  A 1.14 1.14 0.0 0 1 441.36 389.55
  L 442.13 376.54
  L 442.35 371.49
  Q 442.36 371.27 442.21 371.43
  Q 441.90 371.73 441.97 371.26
  L 433.51 372.43
  L 423.47 373.13
  L 412.13 374.97
  A 0.37 0.36 11.5 0 1 411.76 374.42
  L 419.76 361.46
  L 424.95 354.59
  A 0.19 0.18 -78.9 0 0 424.76 354.30
  L 423.96 354.50
  Q 423.52 354.62 423.18 354.31
  Q 420.27 351.71 417.85 350.96
  L 414.00 348.69
  L 411.24 347.39
  Q 411.34 347.36 411.41 347.17
  Q 411.49 346.98 411.31 346.89
  Q 401.56 341.75 390.67 339.24
  Q 386.61 337.67 393.41 335.60
  Q 411.55 330.64 428.98 333.66
  A 0.49 0.48 -28.2 0 0 429.26 332.74
  Q 421.93 329.55 415.78 324.47
  A 0.79 0.79 0.0 0 1 416.20 323.07
  L 430.22 321.62
  L 431.17 321.08
  Z"
/>
<path fill="#a49e9a" d="
  M 510.90 341.11
  Q 503.88 335.57 504.51 326.12
  A 0.53 0.52 14.1 0 1 505.25 325.68
  Q 518.14 331.43 527.43 321.49
  A 0.74 0.74 0.0 0 1 528.59 321.60
  C 532.25 327.33 533.84 335.55 528.90 340.89
  C 524.18 345.97 516.12 345.22 510.90 341.11
  Z"
/>
<path fill="#756b66" d="
  M 390.67 339.24
  Q 401.56 341.75 411.31 346.89
  Q 411.49 346.98 411.41 347.17
  Q 411.34 347.36 411.24 347.39
  L 390.67 339.24
  Z"
/>
<path fill="#756b66" d="
  M 529.57 353.59
  Q 528.66 352.69 529.68 351.92
  Q 535.15 347.79 536.73 341.08
  A 0.41 0.41 0.0 0 1 537.41 340.87
  Q 547.11 349.94 547.22 363.25
  C 547.23 365.37 545.76 365.68 544.15 364.79
  Q 536.88 360.81 529.57 353.59
  Z"
/>
<path fill="#756b66" d="
  M 499.69 349.74
  L 502.41 351.74
  Q 502.93 352.12 502.53 352.62
  L 501.11 354.39
  Q 498.66 352.26 499.69 349.74
  Z"
/>
<path fill="#756b66" d="
  M 417.85 350.96
  Q 420.27 351.71 423.18 354.31
  Q 423.52 354.62 423.96 354.50
  L 424.76 354.30
  A 0.19 0.18 -78.9 0 1 424.95 354.59
  L 419.76 361.46
  Q 417.41 355.88 412.06 351.41
  Q 414.29 350.55 417.85 350.96
  Z"
/>
<path fill="#a49e9a" d="
  M 412.06 351.41
  Q 417.41 355.88 419.76 361.46
  L 411.76 374.42
  A 0.37 0.36 11.5 0 0 412.13 374.97
  L 423.47 373.13
  L 424.95 373.26
  Q 425.21 373.29 424.98 373.42
  L 423.46 374.33
  Q 422.81 373.62 422.35 374.55
  Q 413.68 392.13 394.84 391.97
  C 379.72 391.84 372.09 375.33 382.09 363.85
  Q 393.29 351.00 409.22 350.62
  Q 409.88 350.60 412.06 351.41
  Z"
/>
<path fill="#d6c864" d="
  M 520.34 378.29
  C 512.77 383.93 503.50 380.27 500.68 371.59
  Q 497.51 361.85 503.09 353.59
  A 1.43 1.43 0.0 0 1 505.04 353.18
  Q 515.38 359.73 526.29 354.17
  A 0.58 0.58 0.0 0 1 527.11 354.52
  Q 531.74 369.80 520.34 378.29
  Z"
/>
<path fill="#d8d8d8" d="
  M 549.05 363.69
  Q 554.52 377.51 551.57 391.09
  Q 552.06 382.15 550.79 373.65
  A 0.81 0.80 -85.9 0 0 550.24 373.01
  Q 548.74 372.55 547.29 373.01
  Q 546.81 373.16 546.31 373.07
  Q 541.57 372.20 537.00 373.73
  A 0.93 0.92 -28.9 0 0 536.57 375.19
  L 548.54 389.96
  Q 547.89 389.65 547.48 389.80
  L 542.56 384.16
  L 541.28 382.67
  L 535.68 375.97
  A 0.40 0.40 0.0 0 0 534.98 376.16
  L 533.27 385.99
  L 532.82 387.03
  Q 532.25 387.92 531.51 387.69
  Q 533.79 381.77 534.29 374.70
  A 0.94 0.94 0.0 0 0 532.97 373.78
  Q 527.80 376.08 523.91 380.19
  Q 523.57 380.55 523.80 381.00
  L 529.26 391.89
  C 525.92 388.50 523.95 383.07 521.61 378.41
  Q 531.14 371.65 529.22 358.85
  Q 528.79 355.98 527.49 353.67
  A 0.33 0.33 0.0 0 1 528.02 353.29
  Q 535.23 361.36 544.74 366.44
  A 1.33 1.32 -43.3 0 0 545.94 366.47
  Q 547.53 365.71 549.05 363.69
  Z"
/>
<path fill="#756b66" d="
  M 485.97 354.84
  Q 487.45 356.10 488.10 358.25
  Q 488.26 358.76 488.72 359.03
  Q 493.37 361.77 498.73 363.13
  Q 498.30 369.57 501.25 375.55
  Q 501.48 376.01 501.05 376.28
  Q 492.40 381.90 482.75 376.93
  Q 486.47 365.97 485.97 354.84
  Z"
/>
<path fill="#a49e9a" d="
  M 349.45 381.32
  Q 338.00 385.20 327.05 388.34
  C 322.91 389.53 320.26 391.78 316.96 394.28
  C 309.95 399.59 300.99 402.97 292.96 406.48
  Q 292.52 406.68 292.53 407.16
  Q 292.54 407.90 291.97 408.56
  L 289.72 408.85
  Q 289.19 408.91 288.94 409.39
  C 282.82 421.15 269.70 427.48 257.09 428.96
  C 254.52 429.26 242.52 430.97 245.64 424.55
  C 252.69 410.07 268.76 399.74 285.18 401.32
  Q 285.66 401.36 285.93 400.96
  C 293.42 389.81 307.69 381.39 321.53 382.87
  Q 322.04 382.93 322.43 382.60
  C 334.63 372.50 350.67 365.54 366.70 369.27
  Q 367.15 369.38 367.49 369.06
  Q 374.56 362.39 383.82 359.32
  A 0.40 0.40 0.0 0 1 384.20 360.02
  Q 378.55 364.54 376.92 371.67
  A 0.79 0.78 6.8 0 1 376.14 372.28
  Q 361.03 372.08 349.45 381.32
  Z"
/>
<path fill="#a49e9a" d="
  M 471.58 372.28
  Q 469.08 373.43 467.32 376.32
  Q 466.68 377.37 467.21 377.89
  Q 466.78 378.02 466.65 378.24
  L 466.20 378.40
  Q 465.77 378.55 465.45 378.86
  L 458.00 386.20
  Q 457.91 399.29 447.19 404.47
  C 439.15 408.35 432.76 400.34 432.90 392.99
  Q 433.02 386.87 435.72 380.66
  L 439.14 381.90
  Q 439.59 382.07 439.62 382.54
  Q 439.67 383.41 440.51 383.52
  Q 441.17 383.62 441.14 382.95
  Q 440.96 379.59 442.13 376.54
  L 441.36 389.55
  A 1.14 1.14 0.0 0 0 441.54 390.23
  Q 442.22 391.27 442.21 392.44
  Q 442.20 392.99 442.72 392.82
  C 453.84 389.11 463.19 381.56 469.45 372.87
  C 470.66 371.19 470.62 369.65 470.93 367.68
  A 0.27 0.27 0.0 0 1 471.46 367.71
  L 471.58 372.28
  Z"
/>
<path fill="#a08e4e" d="
  M 441.97 371.26
  Q 442.27 371.92 441.26 372.20
  Q 436.88 376.48 434.22 381.71
  Q 431.84 380.83 429.77 382.25
  Q 429.32 382.56 428.93 382.18
  Q 428.47 381.74 428.04 381.64
  Q 430.31 377.29 433.64 373.39
  Q 434.01 372.96 433.26 372.50
  Q 433.38 372.46 433.51 372.43
  L 441.97 371.26
  Z"
/>
<path fill="#756b66" d="
  M 442.13 376.54
  Q 440.96 379.59 441.14 382.95
  Q 441.17 383.62 440.51 383.52
  Q 439.67 383.41 439.62 382.54
  Q 439.59 382.07 439.14 381.90
  L 435.72 380.66
  Q 436.73 379.27 437.67 377.79
  C 438.90 375.86 440.87 374.79 441.90 372.41
  Q 441.98 372.22 441.26 372.20
  Q 442.27 371.92 441.97 371.26
  Q 441.90 371.73 442.21 371.43
  Q 442.36 371.27 442.35 371.49
  L 442.13 376.54
  Z"
/>
<path fill="#756b66" d="
  M 433.51 372.43
  Q 433.38 372.46 433.26 372.50
  C 424.72 381.59 419.67 392.87 424.73 405.06
  Q 425.25 406.31 423.83 407.17
  A 0.43 0.43 0.0 0 0 423.66 407.34
  L 420.61 412.91
  Q 420.32 413.45 419.78 413.73
  L 411.11 418.33
  Q 410.71 418.55 410.59 418.11
  C 408.45 410.72 405.72 401.59 401.34 395.26
  Q 401.04 394.83 400.74 395.25
  Q 400.55 395.51 400.69 395.75
  Q 409.18 411.29 411.19 428.24
  Q 408.51 421.22 406.61 419.14
  C 398.36 410.10 392.62 411.65 383.31 417.71
  C 374.37 423.52 362.82 430.80 358.22 440.74
  C 353.15 441.27 356.04 459.38 356.82 462.87
  C 357.46 465.72 358.83 468.15 360.25 470.64
  A 0.30 0.30 0.0 0 1 359.77 470.99
  Q 351.15 461.63 348.39 449.19
  Q 348.26 448.64 348.62 448.20
  Q 358.84 435.45 359.64 418.88
  Q 359.67 418.26 360.29 418.31
  C 376.29 419.68 388.32 408.62 392.51 393.85
  Q 392.65 393.37 393.15 393.37
  Q 414.63 393.41 423.46 374.33
  L 424.98 373.42
  Q 425.21 373.29 424.95 373.26
  L 423.47 373.13
  L 433.51 372.43
  Z"
/>
<path fill="#010001" d="
  M 441.26 372.20
  Q 441.98 372.22 441.90 372.41
  C 440.87 374.79 438.90 375.86 437.67 377.79
  Q 436.73 379.27 435.72 380.66
  Q 433.02 386.87 432.90 392.99
  C 432.76 400.34 439.15 408.35 447.19 404.47
  Q 457.91 399.29 458.00 386.20
  Q 459.54 386.58 458.67 390.25
  Q 457.52 396.80 453.38 401.14
  C 448.56 406.22 440.28 408.85 435.12 402.75
  C 430.44 397.21 431.49 388.04 434.22 381.71
  Q 436.88 376.48 441.26 372.20
  Z"
/>
<path fill="#a08e4e" d="
  M 471.58 372.28
  L 477.24 387.75
  A 0.34 0.34 0.0 0 0 477.86 387.78
  L 482.55 378.00
  Q 492.77 382.67 501.52 376.94
  Q 502.05 376.60 502.47 377.08
  L 504.57 379.52
  Q 504.93 379.94 504.66 380.43
  Q 493.15 401.23 468.75 401.89
  Q 468.56 401.90 468.37 401.91
  C 471.33 393.59 471.52 385.72 467.21 377.89
  Q 466.68 377.37 467.32 376.32
  Q 469.08 373.43 471.58 372.28
  Z"
/>
<path fill="#ffffff" d="
  M 551.57 391.09
  Q 551.52 391.51 551.29 391.94
  Q 551.04 392.41 550.65 392.46
  Q 550.03 392.53 549.44 391.76
  Q 549.77 390.77 548.54 389.96
  L 536.57 375.19
  A 0.93 0.92 -28.9 0 1 537.00 373.73
  Q 541.57 372.20 546.31 373.07
  Q 546.81 373.16 547.29 373.01
  Q 548.74 372.55 550.24 373.01
  A 0.81 0.80 -85.9 0 1 550.79 373.65
  Q 552.06 382.15 551.57 391.09
  Z"
/>
<path fill="#d6c864" d="
  M 356.55 416.46
  C 347.69 414.24 339.29 410.38 340.20 399.55
  C 341.55 383.52 361.43 372.75 375.92 373.77
  Q 376.67 373.83 376.53 374.57
  L 376.41 375.14
  Q 376.30 375.70 375.73 375.70
  Q 370.18 375.73 362.47 378.51
  C 354.13 381.51 344.85 392.06 350.84 401.42
  Q 351.93 403.12 355.02 404.16
  C 366.52 408.02 378.38 401.54 382.92 390.69
  Q 383.05 390.40 382.95 389.76
  Q 382.91 389.50 383.14 389.61
  L 391.25 393.34
  Q 391.64 393.52 391.50 393.93
  C 386.08 409.37 373.61 420.74 356.55 416.46
  Z"
/>
<path fill="#ffffff" d="
  M 531.51 387.69
  Q 530.73 391.43 529.26 391.89
  L 523.80 381.00
  Q 523.57 380.55 523.91 380.19
  Q 527.80 376.08 532.97 373.78
  A 0.94 0.94 0.0 0 1 534.29 374.70
  Q 533.79 381.77 531.51 387.69
  Z"
/>
<path fill="#7f6a49" d="
  M 541.28 382.67
  Q 541.08 382.85 540.93 383.09
  Q 540.81 383.28 540.82 383.58
  Q 541.08 391.15 536.22 397.01
  L 535.41 397.03
  L 533.27 385.99
  L 534.98 376.16
  A 0.40 0.40 0.0 0 1 535.68 375.97
  L 541.28 382.67
  Z"
/>
<path fill="#a49e9a" d="
  M 380.26 386.47
  C 380.69 387.05 381.77 387.89 382.31 388.85
  Q 382.56 389.29 382.37 389.76
  Q 377.97 400.40 367.45 403.65
  C 361.82 405.40 350.81 404.91 349.57 397.20
  C 348.58 391.15 353.79 384.38 358.70 381.45
  Q 366.32 376.91 375.82 376.64
  Q 376.31 376.63 376.38 377.11
  Q 377.19 382.27 380.26 386.47
  Z"
/>
<path fill="#a08e4e" d="
  M 466.65 378.24
  Q 469.12 383.22 469.20 388.09
  Q 467.44 389.05 465.57 389.15
  C 462.70 389.31 461.15 389.84 458.67 390.25
  Q 459.54 386.58 458.00 386.20
  L 465.45 378.86
  Q 465.77 378.55 466.20 378.40
  L 466.65 378.24
  Z"
/>
<path fill="#756b66" d="
  M 521.61 378.41
  C 523.95 383.07 525.92 388.50 529.26 391.89
  Q 530.73 391.43 531.51 387.69
  Q 532.25 387.92 532.82 387.03
  L 535.44 404.34
  C 529.98 404.20 524.99 404.01 522.12 406.38
  Q 516.24 411.24 513.32 419.11
  L 505.14 399.42
  A 2.12 2.12 0.0 0 1 505.98 396.80
  Q 516.02 390.60 521.61 378.41
  Z"
/>
<path fill="#a08e4e" d="
  M 506.79 381.25
  Q 506.38 381.75 506.49 382.77
  C 507.05 391.21 504.34 402.60 495.42 406.15
  Q 492.05 407.49 488.67 406.28
  Q 484.76 404.87 481.87 401.65
  A 0.70 0.69 -49.2 0 1 481.81 400.80
  Q 482.25 400.15 483.00 400.26
  Q 483.55 400.34 484.07 400.14
  Q 498.23 394.57 505.11 380.96
  Q 505.36 380.46 505.92 380.56
  Q 506.40 380.65 506.79 381.25
  Z"
/>
<path fill="#a08e4e" d="
  M 507.36 382.77
  Q 506.98 382.01 507.53 381.34
  Q 512.99 383.10 518.00 380.97
  A 0.42 0.41 1.3 0 1 518.54 381.53
  Q 514.45 389.95 506.79 395.40
  A 0.55 0.55 0.0 0 1 505.96 394.77
  Q 508.02 389.06 507.36 382.77
  Z"
/>
<path fill="#756b66" d="
  M 349.45 381.32
  Q 344.87 387.51 338.22 389.23
  C 334.94 390.08 330.61 389.51 326.77 389.73
  Q 326.28 389.76 326.11 390.21
  C 323.22 397.73 316.20 401.57 309.39 405.00
  C 307.41 406.00 305.46 405.77 303.29 406.60
  Q 301.26 406.50 299.76 407.52
  L 291.97 408.56
  Q 292.54 407.90 292.53 407.16
  Q 292.52 406.68 292.96 406.48
  C 300.99 402.97 309.95 399.59 316.96 394.28
  C 320.26 391.78 322.91 389.53 327.05 388.34
  Q 338.00 385.20 349.45 381.32
  Z"
/>
<path fill="#d6c864" d="
  M 434.22 381.71
  C 431.49 388.04 430.44 397.21 435.12 402.75
  C 440.28 408.85 448.56 406.22 453.38 401.14
  Q 457.52 396.80 458.67 390.25
  C 461.15 389.84 462.70 389.31 465.57 389.15
  Q 467.44 389.05 469.20 388.09
  C 470.39 401.05 463.26 413.41 450.02 416.54
  C 439.51 419.02 430.82 414.80 426.08 405.28
  Q 420.58 394.19 428.04 381.64
  Q 428.47 381.74 428.93 382.18
  Q 429.32 382.56 429.77 382.25
  Q 431.84 380.83 434.22 381.71
  Z"
/>
<path fill="#433e3d" d="
  M 506.79 381.25
  Q 507.26 381.21 507.53 381.34
  Q 506.98 382.01 507.36 382.77
  L 506.49 382.77
  Q 506.38 381.75 506.79 381.25
  Z"
/>
<path fill="#756b66" d="
  M 547.48 389.80
  Q 547.89 389.65 548.54 389.96
  Q 549.77 390.77 549.44 391.76
  L 547.48 389.80
  Z"
/>
<path fill="#a08e4e" d="
  M 535.41 397.03
  L 536.22 397.01
  C 543.87 402.50 553.66 415.82 549.51 425.61
  Q 549.31 426.06 548.83 426.00
  L 546.26 425.68
  Q 546.15 425.45 545.49 425.46
  Q 545.78 425.08 545.82 424.52
  Q 546.35 424.39 546.43 423.24
  Q 547.21 412.15 541.22 403.70
  Q 538.62 404.75 537.12 406.47
  L 535.41 397.03
  Z"
/>
<path fill="#d8d8d8" d="
  M 306.00 414.18
  Q 306.67 412.36 306.16 409.54
  C 314.76 402.24 326.33 396.84 337.65 398.21
  A 1.76 1.76 0.0 0 1 337.82 401.68
  Q 323.36 404.87 313.89 416.15
  Q 313.54 416.56 313.02 416.40
  L 306.00 414.18
  Z"
/>
<path fill="#433e3d" d="
  M 468.37 401.91
  Q 468.56 401.90 468.75 401.89
  L 468.78 402.56
  A 0.59 0.58 83.0 0 0 469.47 403.10
  L 479.85 401.20
  Q 480.39 401.10 480.70 401.55
  L 482.22 403.73
  Q 482.62 404.31 481.95 404.53
  Q 474.98 406.83 467.70 407.62
  Q 465.60 407.85 466.49 405.93
  L 468.37 401.91
  Z"
/>
<path fill="#d6c864" d="
  M 352.96 417.03
  Q 353.36 420.42 358.64 419.98
  C 356.56 438.10 347.25 454.97 327.75 457.39
  C 319.27 458.45 309.38 454.99 306.11 446.56
  C 304.89 443.41 304.65 435.39 305.87 431.96
  C 311.05 417.42 323.04 405.82 338.36 402.50
  Q 339.04 402.35 339.01 403.05
  L 338.97 403.82
  Q 338.94 404.39 338.39 404.53
  C 326.63 407.62 316.82 415.71 314.41 427.58
  C 311.35 442.66 326.63 444.83 336.01 436.69
  C 342.09 431.42 346.19 423.14 348.30 415.47
  Q 348.45 414.95 348.94 415.17
  L 352.96 417.03
  Z"
/>
<path fill="#010001" d="
  M 545.82 424.52
  Q 545.17 423.92 545.27 423.25
  C 545.82 419.59 546.18 416.36 544.88 412.73
  Q 543.29 408.27 541.22 403.70
  Q 547.21 412.15 546.43 423.24
  Q 546.35 424.39 545.82 424.52
  Z"
/>
<path fill="#d6c864" d="
  M 541.22 403.70
  Q 543.29 408.27 544.88 412.73
  C 546.18 416.36 545.82 419.59 545.27 423.25
  Q 545.17 423.92 545.82 424.52
  Q 545.78 425.08 545.49 425.46
  L 544.25 425.81
  Q 543.16 425.56 542.94 425.06
  Q 538.91 416.20 537.12 406.47
  Q 538.62 404.75 541.22 403.70
  Z"
/>
<path fill="#a49e9a" d="
  M 535.44 404.34
  C 537.26 414.66 539.69 424.20 547.86 431.50
  Q 574.55 455.36 600.77 479.75
  A 0.11 0.11 0.0 0 1 600.65 479.93
  Q 595.51 477.53 590.73 477.02
  C 586.72 476.60 582.75 484.59 581.01 489.04
  Q 580.89 489.33 581.09 489.74
  Q 581.29 490.16 581.48 489.73
  C 583.36 485.54 586.04 479.70 590.37 477.79
  A 0.82 0.81 -47.7 0 1 590.96 477.76
  L 600.37 480.72
  Q 600.68 480.82 601.00 480.77
  L 601.28 480.74
  Q 601.75 480.67 602.09 481.01
  Q 606.11 485.05 608.11 491.71
  Q 606.84 492.97 605.25 494.17
  Q 604.00 495.12 601.87 495.68
  Q 599.08 496.42 596.47 497.83
  C 595.60 492.08 590.29 480.32 583.46 488.80
  C 576.38 497.62 577.08 510.72 584.93 518.75
  A 0.92 0.92 0.0 0 1 584.17 520.31
  Q 580.06 519.86 576.63 522.07
  Q 576.02 522.46 575.60 521.86
  L 568.76 512.04
  A 1.22 1.22 0.0 0 0 566.70 512.12
  L 565.65 513.90
  Q 565.30 514.50 564.97 513.88
  Q 563.49 511.07 560.53 509.86
  Q 559.98 509.64 559.93 509.04
  L 559.07 497.94
  A 0.59 0.59 0.0 0 0 558.17 497.48
  L 554.50 499.77
  A 0.42 0.42 0.0 0 1 553.89 499.27
  C 555.11 496.05 555.72 493.74 554.01 490.46
  C 547.50 477.99 539.55 467.86 528.08 451.69
  Q 517.31 436.50 513.32 419.11
  Q 516.24 411.24 522.12 406.38
  C 524.99 404.01 529.98 404.20 535.44 404.34
  Z"
/>
<path fill="#a49e9a" d="
  M 317.46 437.81
  C 311.66 431.42 317.38 419.79 322.56 414.58
  Q 328.94 408.17 338.55 405.12
  Q 339.05 404.96 339.26 405.45
  Q 341.81 411.31 347.56 414.24
  A 0.71 0.71 0.0 0 1 347.91 415.10
  C 344.59 424.88 337.69 437.38 327.35 440.37
  C 324.14 441.30 319.83 440.42 317.46 437.81
  Z"
/>
<path fill="#d8d8d8" d="
  M 219.25 415.31
  A 0.66 0.66 0.0 0 0 219.82 416.47
  Q 233.80 413.26 246.27 419.99
  Q 246.64 420.19 246.43 420.56
  Q 245.01 423.16 243.96 425.95
  Q 243.76 426.49 243.96 427.03
  L 244.33 427.99
  Q 244.52 428.51 243.97 428.52
  Q 230.84 428.71 220.95 421.26
  C 218.86 419.68 218.37 418.92 215.50 418.98
  Q 205.80 419.18 197.10 413.88
  C 195.22 412.74 192.22 410.81 192.12 408.49
  Q 192.05 406.70 193.81 406.33
  C 203.11 404.34 212.04 408.23 219.10 413.95
  Q 219.30 414.10 219.51 414.75
  Q 219.60 415.03 219.25 415.31
  Z"
/>
<path fill="#433e3d" d="
  M 303.29 406.60
  Q 302.76 407.00 302.51 407.78
  L 301.30 407.83
  Q 300.02 407.83 299.76 407.52
  Q 301.26 406.50 303.29 406.60
  Z"
/>
<path fill="#d6c864" d="
  M 455.94 415.94
  Q 457.34 416.88 459.75 415.55
  Q 461.42 418.04 461.71 420.81
  Q 464.09 443.54 446.02 455.25
  C 434.49 462.72 424.09 457.70 420.02 445.92
  Q 413.10 425.89 425.06 407.58
  Q 425.48 406.93 425.93 407.56
  L 427.90 410.32
  Q 428.19 410.74 427.94 411.19
  C 423.86 418.51 421.28 429.45 424.62 437.36
  C 428.18 445.81 437.82 448.65 444.95 441.82
  C 451.25 435.79 453.57 426.33 452.37 417.79
  Q 452.30 417.29 452.77 417.12
  L 455.94 415.94
  Z"
/>
<path fill="#d8d8d8" d="
  M 301.64 410.50
  Q 300.99 414.01 301.98 416.45
  Q 290.66 422.41 277.83 423.70
  A 0.42 0.42 0.0 0 1 277.58 422.91
  Q 285.10 418.64 289.20 410.68
  Q 289.62 409.87 290.99 409.65
  Q 296.23 408.84 301.64 410.50
  Z"
/>
<path fill="#a49e9a" d="
  M 306.16 409.54
  Q 306.67 412.36 306.00 414.18
  L 301.98 416.45
  Q 300.99 414.01 301.64 410.50
  Q 302.37 410.56 303.25 411.24
  Q 303.69 411.59 304.12 411.23
  L 306.16 409.54
  Z"
/>
<path fill="#433e3d" d="
  M 473.53 420.21
  Q 475.67 427.32 472.09 430.55
  A 1.97 1.97 0.0 0 0 471.46 432.31
  Q 472.56 439.52 474.46 446.27
  Q 475.16 448.77 475.39 451.77
  Q 475.62 454.78 476.20 457.33
  Q 476.32 458.76 477.07 459.09
  Q 476.86 459.34 476.17 459.26
  L 467.66 450.66
  Q 467.31 450.30 467.14 449.82
  C 464.88 443.60 462.68 437.22 462.92 430.44
  C 463.15 423.90 463.25 419.44 460.02 414.09
  A 0.68 0.68 0.0 0 1 460.15 413.22
  L 463.27 410.44
  Q 463.67 410.08 464.10 410.42
  Q 469.92 415.02 473.53 420.21
  Z"
/>
<path fill="#a49e9a" d="
  M 444.56 440.59
  C 435.04 450.58 424.35 441.28 424.37 430.26
  Q 424.40 419.99 428.57 412.47
  Q 428.88 411.91 429.34 412.35
  Q 438.18 420.67 450.22 417.71
  Q 451.50 417.39 451.62 418.71
  Q 452.79 431.95 444.56 440.59
  Z"
/>
<path fill="#a49e9a" d="
  M 411.19 428.24
  Q 412.92 443.32 409.47 458.50
  C 407.81 465.84 403.11 471.70 395.35 472.48
  C 383.29 473.69 362.89 450.18 358.22 440.74
  C 362.82 430.80 374.37 423.52 383.31 417.71
  C 392.62 411.65 398.36 410.10 406.61 419.14
  Q 408.51 421.22 411.19 428.24
  Z"
/>
<path fill="#a08e4e" d="
  M 459.75 415.55
  Q 457.34 416.88 455.94 415.94
  L 458.71 414.17
  Q 459.27 413.81 459.45 414.45
  L 459.75 415.55
  Z"
/>
<path fill="#433e3d" d="
  M 413.10 442.41
  A 0.51 0.50 20.0 0 1 412.90 441.99
  Q 413.11 431.14 410.99 420.52
  A 1.01 1.00 -20.5 0 1 411.49 419.44
  L 418.74 415.48
  A 0.34 0.34 0.0 0 1 419.22 415.91
  Q 413.59 430.52 418.55 445.58
  A 0.39 0.39 0.0 0 1 417.94 446.02
  L 413.10 442.41
  Z"
/>
<path fill="#a08e4e" d="
  M 352.96 417.03
  Q 360.78 417.49 358.64 419.98
  Q 353.36 420.42 352.96 417.03
  Z"
/>
<path fill="#756b66" d="
  M 473.53 420.21
  Q 487.62 437.88 482.51 459.08
  A 1.08 1.07 20.4 0 1 480.97 459.78
  L 476.20 457.33
  Q 475.62 454.78 475.39 451.77
  Q 475.16 448.77 474.46 446.27
  Q 472.56 439.52 471.46 432.31
  A 1.97 1.97 0.0 0 1 472.09 430.55
  Q 475.67 427.32 473.53 420.21
  Z"
/>
<path fill="#433e3d" d="
  M 545.49 425.46
  Q 546.15 425.45 546.26 425.68
  L 545.87 425.75
  Q 545.50 425.83 545.49 426.20
  Q 545.49 426.36 545.51 426.59
  Q 544.99 426.23 544.61 426.86
  Q 544.54 426.18 544.25 425.81
  L 545.49 425.46
  Z"
/>
<path fill="#d6c864" d="
  M 545.51 426.59
  Q 554.01 427.48 561.56 431.43
  L 563.64 432.79
  L 567.49 435.78
  Q 573.96 443.02 577.96 450.62
  A 0.80 0.80 0.0 0 1 577.08 451.78
  L 571.07 450.42
  Q 570.54 450.30 570.13 449.93
  L 544.61 426.86
  Q 544.99 426.23 545.51 426.59
  Z"
/>
<path fill="#7f6a49" d="
  M 561.56 431.43
  L 564.30 432.15
  Q 564.18 432.45 563.64 432.79
  L 561.56 431.43
  Z"
/>
<path fill="#a08e4e" d="
  M 564.30 432.15
  Q 578.30 438.38 584.66 451.95
  Q 586.02 454.86 583.12 453.49
  Q 581.60 452.77 580.01 452.52
  Q 579.46 452.43 579.26 451.90
  Q 575.57 442.26 567.49 435.78
  L 563.64 432.79
  Q 564.18 432.45 564.30 432.15
  Z"
/>
<path fill="#756b66" d="
  M 268.30 457.14
  L 264.48 466.90
  Q 264.30 467.36 263.81 467.29
  C 235.33 463.65 206.40 454.06 184.46 435.83
  Q 185.12 435.66 185.73 435.18
  A 0.74 0.72 40.2 0 1 186.54 435.12
  C 191.32 437.75 195.46 439.83 201.02 441.85
  C 204.10 442.97 207.18 444.48 210.15 445.45
  Q 224.95 450.29 229.18 451.31
  Q 238.37 453.52 257.60 456.35
  C 260.90 456.84 264.71 456.42 268.30 457.14
  Z"
/>
<path fill="#d6c864" d="
  M 315.75 457.28
  L 320.60 462.04
  A 0.77 0.71 65.4 0 0 321.11 462.25
  L 321.72 462.25
  Q 322.15 462.25 322.22 462.68
  L 322.35 463.52
  Q 320.81 474.64 316.08 484.81
  C 310.22 497.41 297.16 505.23 283.42 501.55
  C 266.18 496.93 261.09 477.81 267.27 462.66
  C 273.81 446.62 286.80 439.53 303.25 435.52
  A 0.69 0.69 0.0 0 1 304.09 436.32
  L 303.61 438.97
  Q 303.53 439.42 303.08 439.53
  C 289.97 442.71 278.30 450.32 273.88 463.46
  Q 271.19 471.43 273.25 477.20
  C 276.13 485.25 285.40 486.10 292.41 482.67
  C 302.80 477.60 309.83 466.80 311.20 455.38
  Q 311.28 454.72 311.86 455.05
  L 315.75 457.28
  Z"
/>
<path fill="#756b66" d="
  M 459.37 444.53
  A 1.10 1.09 27.8 0 1 458.95 443.18
  L 461.45 437.21
  A 0.41 0.41 0.0 0 1 462.22 437.25
  L 465.44 447.92
  A 0.25 0.25 0.0 0 1 465.07 448.20
  L 459.37 444.53
  Z"
/>
<path fill="#a49e9a" d="
  M 276.62 480.53
  C 270.50 474.23 274.29 462.34 278.58 456.09
  C 284.03 448.12 293.40 443.12 302.74 440.30
  A 1.07 1.07 0.0 0 1 304.12 441.26
  Q 304.60 449.06 310.42 454.04
  Q 310.83 454.40 310.72 454.93
  Q 308.53 465.59 301.86 474.07
  C 296.52 480.87 284.25 488.38 276.62 480.53
  Z"
/>
<path fill="#d8d8d8" d="
  M 410.30 459.45
  L 410.97 459.51
  Q 411.41 459.55 411.49 459.98
  L 411.58 460.44
  Q 410.28 471.27 403.95 476.63
  Q 391.78 479.29 380.50 478.19
  Q 374.24 477.57 368.93 474.80
  Q 368.52 474.58 368.10 474.80
  L 366.61 475.60
  C 356.78 467.67 355.73 454.63 356.83 443.05
  A 0.81 0.81 0.0 0 1 358.38 442.79
  C 362.41 451.79 384.00 475.27 395.00 473.98
  Q 407.36 472.52 410.30 459.45
  Z"
/>
<path fill="#a08e4e" d="
  M 460.13 446.11
  L 455.29 450.72
  Q 454.38 449.86 453.97 450.71
  Q 453.68 450.85 453.41 450.62
  L 457.47 445.33
  Q 457.80 444.91 458.30 445.06
  Q 459.39 445.40 460.13 446.11
  Z"
/>
<path fill="#d6c864" d="
  M 460.13 446.11
  C 470.41 453.62 479.17 462.65 481.93 475.32
  C 484.65 487.80 477.81 501.20 464.40 502.93
  C 452.44 504.48 441.00 496.73 435.58 486.17
  Q 429.29 473.92 430.10 459.56
  Q 430.13 459.03 430.65 459.17
  L 433.02 459.85
  Q 433.63 460.02 433.55 460.65
  Q 431.21 478.51 445.01 487.75
  C 449.43 490.70 456.40 490.65 460.83 487.56
  Q 467.41 482.96 466.87 473.41
  Q 466.06 459.16 455.29 450.72
  L 460.13 446.11
  Z"
/>
<path fill="#433e3d" d="
  M 324.00 460.96
  L 324.00 459.45
  Q 324.00 458.78 324.66 458.77
  Q 337.64 458.52 346.99 449.61
  Q 347.47 449.15 347.64 449.80
  L 349.07 455.41
  Q 349.22 456.00 348.64 456.18
  Q 336.90 459.96 324.62 461.51
  Q 324.00 461.59 324.00 460.96
  Z"
/>
<path fill="#a49e9a" d="
  M 453.41 450.62
  Q 453.68 450.85 453.97 450.71
  C 461.38 457.32 465.78 464.54 465.80 474.28
  C 465.84 487.51 454.16 493.70 443.50 485.59
  C 436.08 479.94 433.05 469.52 434.33 460.52
  Q 434.39 460.09 434.83 460.05
  C 442.08 459.43 448.48 455.76 453.41 450.62
  Z"
/>
<path fill="#d6c864" d="
  M 609.69 475.77
  Q 609.63 476.35 610.17 477.00
  C 613.81 485.26 616.84 491.66 615.81 500.21
  Q 613.13 495.21 609.75 491.21
  C 606.95 487.88 606.25 483.52 603.22 480.53
  Q 596.23 473.63 573.65 453.06
  A 0.47 0.47 0.0 0 1 573.93 452.25
  Q 575.04 452.16 575.91 452.79
  Q 576.31 453.09 576.81 453.19
  C 592.37 456.38 599.61 463.50 609.69 475.77
  Z"
/>
<path fill="#756b66" d="
  M 411.58 460.44
  L 411.49 459.98
  Q 411.41 459.55 410.97 459.51
  L 410.30 459.45
  L 411.38 455.00
  A 0.46 0.46 0.0 0 1 412.29 455.17
  L 411.58 460.44
  Z"
/>
<path fill="#d6c864" d="
  M 541.11 474.76
  C 535.24 471.55 529.85 461.21 528.37 454.94
  A 0.15 0.15 0.0 0 1 528.64 454.82
  L 541.94 473.83
  A 0.64 0.64 0.0 0 1 541.11 474.76
  Z"
/>
<path fill="#a08e4e" d="
  M 315.75 457.28
  L 322.21 458.61
  Q 322.77 458.73 322.72 459.30
  L 322.35 463.52
  L 322.22 462.68
  Q 322.15 462.25 321.72 462.25
  L 321.11 462.25
  A 0.77 0.71 65.4 0 1 320.60 462.04
  L 315.75 457.28
  Z"
/>
<path fill="#a49e9a" d="
  M 476.17 459.26
  Q 476.86 459.34 477.07 459.09
  Q 479.83 461.55 483.33 461.08
  Q 483.94 461.00 483.86 461.62
  Q 483.43 465.03 481.51 467.94
  Q 481.25 468.34 481.01 467.92
  L 476.17 459.26
  Z"
/>
<path fill="#a08e4e" d="
  M 620.48 500.02
  Q 619.85 500.38 619.43 500.22
  Q 618.91 500.04 618.94 499.49
  Q 619.06 496.94 617.53 496.28
  Q 616.37 485.65 610.17 477.00
  Q 609.63 476.35 609.69 475.77
  Q 606.81 469.96 602.10 465.63
  Q 601.88 465.43 602.01 465.17
  Q 602.17 464.85 602.44 465.09
  C 613.42 474.88 620.65 484.78 620.48 500.02
  Z"
/>
<path fill="#433e3d" d="
  M 365.65 542.65
  Q 367.57 543.74 369.80 543.65
  A 0.89 0.89 0.0 0 1 370.35 545.26
  C 366.14 548.26 364.37 552.66 362.81 557.41
  Q 362.60 558.05 362.13 557.57
  C 358.88 554.20 356.28 551.79 352.43 547.64
  Q 349.69 544.68 345.80 542.91
  A 0.46 0.46 0.0 0 0 345.37 543.72
  L 351.24 547.36
  Q 351.72 547.66 351.29 548.02
  Q 350.79 548.43 349.99 548.28
  Q 349.51 548.19 349.12 548.48
  C 344.26 552.07 344.00 555.91 343.30 561.09
  Q 343.22 561.61 342.69 561.57
  Q 340.04 561.37 338.75 558.75
  Q 333.90 548.87 329.08 538.96
  Q 326.90 534.48 327.64 528.50
  C 329.92 509.97 338.29 484.22 354.81 473.08
  C 355.63 472.53 356.38 471.70 356.26 470.75
  A 0.78 0.78 0.0 0 1 357.69 470.23
  Q 358.78 471.89 360.70 472.44
  A 1.10 1.07 -13.3 0 1 361.15 472.71
  Q 368.10 479.56 377.33 482.62
  A 0.54 0.53 -49.8 0 1 377.41 483.60
  C 372.72 486.11 366.82 490.73 365.57 496.25
  C 363.24 506.58 363.42 515.32 363.23 527.48
  C 363.22 528.28 363.58 529.21 363.71 530.06
  Q 363.79 530.56 364.13 530.95
  Q 371.06 538.70 381.02 541.79
  A 0.74 0.74 0.0 0 1 381.02 543.21
  L 380.18 543.47
  Q 379.76 543.61 379.49 543.97
  L 376.55 547.98
  Q 376.22 548.43 375.80 548.05
  C 372.97 545.49 370.06 541.66 365.77 542.08
  Q 364.81 542.17 365.65 542.65
  Z"
/>
<path fill="#a49e9a" d="
  M 403.95 476.63
  C 392.41 485.71 377.87 483.97 366.61 475.60
  L 368.10 474.80
  Q 368.52 474.58 368.93 474.80
  Q 374.24 477.57 380.50 478.19
  Q 391.78 479.29 403.95 476.63
  Z"
/>
<path fill="#d8d8d8" d="
  M 486.97 479.95
  C 484.95 479.09 482.82 477.85 483.46 475.17
  Q 483.55 474.77 483.81 475.09
  L 487.36 479.43
  A 0.34 0.33 82.0 0 1 486.97 479.95
  Z"
/>
<path fill="#d6c864" d="
  M 551.35 502.99
  Q 550.80 503.40 550.35 502.88
  Q 546.17 498.05 544.30 491.60
  C 542.98 487.05 543.49 481.20 542.56 475.96
  A 0.45 0.45 0.0 0 1 543.36 475.62
  Q 549.31 483.85 553.86 492.93
  A 1.78 1.75 35.6 0 1 554.04 493.96
  C 553.72 496.59 553.57 501.33 551.35 502.99
  Z"
/>
<path fill="#433e3d" d="
  M 610.17 477.00
  Q 616.37 485.65 617.53 496.28
  Q 617.45 498.61 616.31 500.85
  Q 616.13 500.33 615.81 500.21
  C 616.84 491.66 613.81 485.26 610.17 477.00
  Z"
/>
<path fill="#a08e4e" d="
  M 487.41 481.14
  Q 486.26 482.65 485.47 484.47
  Q 485.18 485.14 484.73 485.24
  Q 484.24 485.36 483.53 485.23
  L 483.85 480.23
  Q 483.89 479.57 484.49 479.84
  L 487.41 481.14
  Z"
/>
<path fill="#d6c864" d="
  M 487.41 481.14
  C 504.08 490.54 523.08 505.27 522.94 526.27
  C 522.79 547.21 506.56 561.15 486.01 559.44
  C 478.56 558.82 467.37 554.23 461.06 548.05
  C 447.50 534.77 447.73 517.02 445.25 499.73
  A 0.47 0.47 0.0 0 1 445.96 499.26
  L 451.36 502.42
  Q 451.82 502.69 451.84 503.23
  C 452.43 516.97 456.50 533.69 469.97 539.85
  C 482.85 545.74 496.33 541.07 498.17 525.55
  C 499.70 512.63 493.09 499.99 482.56 491.79
  Q 481.89 491.33 481.99 490.85
  L 483.53 485.23
  Q 484.24 485.36 484.73 485.24
  Q 485.18 485.14 485.47 484.47
  Q 486.26 482.65 487.41 481.14
  Z"
/>
<path fill="#433e3d" d="
  M 443.09 524.16
  C 439.81 520.58 437.32 517.30 436.33 512.30
  Q 434.11 501.09 433.32 489.69
  Q 433.21 488.15 433.65 486.69
  Q 433.84 486.05 434.16 486.63
  Q 437.77 492.99 443.27 497.80
  Q 443.66 498.14 443.75 498.66
  Q 444.95 505.57 445.00 512.50
  Q 445.03 517.28 448.60 529.76
  Q 448.87 530.69 448.17 530.02
  C 446.31 528.24 444.66 525.87 443.09 524.16
  Z"
/>
<path fill="#d6c864" d="
  M 583.86 515.72
  C 578.66 507.82 578.61 498.42 583.42 490.37
  C 585.37 487.11 589.67 485.63 592.18 489.46
  Q 595.15 494.01 595.40 499.09
  A 2.80 2.79 -20.4 0 1 594.31 501.46
  Q 588.67 505.78 585.35 512.23
  C 584.62 513.64 585.03 514.00 584.84 515.50
  A 0.54 0.53 32.1 0 1 583.86 515.72
  Z"
/>
<path fill="#b65e56" d="
  M 481.99 490.85
  Q 481.89 491.33 482.56 491.79
  Q 482.83 493.03 485.36 495.35
  Q 500.08 508.83 496.96 527.90
  C 494.30 544.22 474.96 543.71 464.98 535.37
  C 456.45 528.25 453.27 515.07 452.73 503.86
  Q 452.69 502.87 453.65 503.11
  Q 473.04 507.95 481.99 490.85
  Z"
/>
<path fill="#756b66" d="
  M 608.11 491.71
  C 609.69 495.14 612.09 502.39 609.71 505.71
  Q 609.39 506.16 609.94 506.20
  Q 610.44 506.24 610.80 505.76
  C 613.14 502.66 611.55 497.97 610.37 494.72
  A 0.21 0.20 -74.6 0 1 610.72 494.52
  C 616.93 502.13 618.74 511.11 616.07 520.56
  C 614.38 526.52 607.57 543.75 598.68 538.25
  Q 598.27 538.00 598.72 537.85
  C 603.91 536.10 604.37 527.75 602.79 523.84
  Q 605.56 522.89 607.81 520.63
  Q 608.17 520.26 607.99 519.78
  Q 606.63 516.13 602.94 516.18
  A 1.31 1.30 -64.3 0 0 602.12 516.47
  L 597.95 519.83
  L 599.78 514.95
  Q 600.11 514.07 599.42 514.70
  Q 597.81 516.20 597.42 518.37
  A 0.92 0.92 0.0 0 1 595.94 518.92
  L 587.66 512.32
  A 0.89 0.88 -55.2 0 1 587.46 511.18
  L 589.58 507.61
  Q 589.91 507.07 590.52 507.22
  Q 598.07 509.04 605.52 506.96
  A 0.16 0.16 0.0 0 0 605.48 506.64
  L 591.49 506.60
  A 0.50 0.50 0.0 0 1 591.17 505.72
  C 593.26 503.96 597.39 500.93 596.47 497.83
  Q 599.08 496.42 601.87 495.68
  Q 604.00 495.12 605.25 494.17
  Q 606.84 492.97 608.11 491.71
  Z"
/>
<path fill="#7f6a49" d="
  M 617.53 496.28
  Q 619.06 496.94 618.94 499.49
  Q 618.91 500.04 619.43 500.22
  Q 619.85 500.38 620.48 500.02
  Q 620.68 505.34 619.40 510.29
  Q 618.44 513.97 618.37 510.17
  Q 618.31 506.22 616.31 500.85
  Q 617.45 498.61 617.53 496.28
  Z"
/>
<path fill="#d6c864" d="
  M 559.32 517.85
  C 554.01 518.32 549.53 517.68 547.38 512.20
  Q 550.60 503.74 557.54 498.54
  A 0.55 0.54 -19.7 0 1 558.41 498.95
  L 559.32 517.85
  Z"
/>
<path fill="#a49e9a" d="
  M 513.70 498.97
  C 524.50 503.54 528.97 510.93 524.83 522.60
  Q 524.54 523.41 524.38 522.56
  C 522.63 513.15 519.10 507.29 513.36 499.40
  Q 512.77 498.58 513.70 498.97
  Z"
/>
<path fill="#d6c864" d="
  M 535.25 525.74
  Q 535.29 523.76 533.46 522.74
  Q 528.46 519.94 527.17 518.92
  Q 528.43 512.68 526.01 506.99
  A 0.17 0.17 0.0 0 1 526.26 506.79
  Q 535.83 513.87 537.17 525.84
  Q 537.24 526.43 536.64 526.51
  Q 535.94 526.59 535.25 525.74
  Z"
/>
<path fill="#a49e9a" d="
  M 563.56 523.48
  Q 560.36 521.58 559.71 519.24
  Q 560.75 515.49 559.95 511.85
  A 0.87 0.87 0.0 0 1 561.46 511.09
  L 565.06 515.18
  Q 565.42 515.59 565.29 516.11
  L 563.56 523.48
  Z"
/>
<path fill="#a08e4e" d="
  M 547.38 512.20
  C 549.53 517.68 554.01 518.32 559.32 517.85
  C 553.87 525.37 545.67 520.26 547.38 512.20
  Z"
/>
<path fill="#010001" d="
  M 613.62 515.59
  C 611.02 513.58 606.85 512.97 603.23 513.00
  Q 602.49 513.01 603.12 512.62
  C 605.87 510.91 612.18 513.57 613.99 515.14
  A 0.29 0.29 0.0 0 1 613.62 515.59
  Z"
/>
<path fill="#d6c864" d="
  M 578.51 526.52
  C 587.48 535.47 568.47 545.38 564.80 530.76
  C 563.57 525.90 565.92 517.60 567.37 512.85
  A 0.44 0.44 0.0 0 1 568.18 512.77
  Q 572.43 520.45 578.51 526.52
  Z"
/>
<path fill="#d6c864" d="
  M 602.04 524.23
  Q 600.46 528.45 597.22 531.51
  Q 595.75 532.89 592.85 533.64
  Q 587.06 526.82 585.64 517.52
  Q 585.57 517.05 585.73 516.60
  Q 586.32 514.94 585.91 513.26
  A 0.57 0.57 0.0 0 1 586.87 512.74
  C 591.25 517.31 596.80 520.48 602.04 524.23
  Z"
/>
<path fill="#a49e9a" d="
  M 602.79 523.84
  L 597.95 519.83
  L 602.12 516.47
  A 1.31 1.30 -64.3 0 1 602.94 516.18
  Q 606.63 516.13 607.99 519.78
  Q 608.17 520.26 607.81 520.63
  Q 605.56 522.89 602.79 523.84
  Z"
/>
<path fill="#756b66" d="
  M 559.71 519.24
  Q 560.36 521.58 563.56 523.48
  Q 562.59 529.23 553.24 529.98
  C 548.40 530.36 546.03 521.47 545.92 517.66
  A 0.49 0.49 0.0 0 1 546.88 517.49
  C 548.99 523.96 555.33 524.28 559.71 519.24
  Z"
/>
<path fill="#a08e4e" d="
  M 527.17 518.92
  Q 528.46 519.94 533.46 522.74
  Q 535.29 523.76 535.25 525.74
  L 526.38 524.43
  Q 525.77 524.34 525.92 523.74
  L 527.17 518.92
  Z"
/>
<path fill="#a49e9a" d="
  M 590.33 532.28
  Q 588.45 532.84 587.13 534.45
  A 1.12 1.11 -69.0 0 1 586.20 534.87
  Q 583.41 534.73 581.41 536.58
  Q 581.00 536.97 580.65 536.52
  Q 580.43 536.24 580.45 536.04
  C 583.60 530.67 580.87 527.14 577.36 523.46
  A 0.57 0.56 55.8 0 1 577.53 522.55
  Q 580.86 521.07 584.52 521.13
  Q 585.10 521.14 585.24 521.71
  Q 586.67 527.46 590.33 532.28
  Z"
/>
<path fill="#a08e4e" d="
  M 602.04 524.23
  C 603.91 529.70 600.72 543.29 592.85 533.64
  Q 595.75 532.89 597.22 531.51
  Q 600.46 528.45 602.04 524.23
  Z"
/>
<path fill="#756b66" d="
  M 590.33 532.28
  L 592.22 534.86
  Q 592.50 535.25 592.26 535.66
  Q 589.39 540.63 585.42 543.89
  C 581.25 547.32 575.24 542.87 571.72 540.25
  A 0.47 0.47 0.0 0 1 572.06 539.40
  Q 577.37 540.10 580.45 536.04
  Q 580.43 536.24 580.65 536.52
  Q 581.00 536.97 581.41 536.58
  Q 583.41 534.73 586.20 534.87
  A 1.12 1.11 -69.0 0 0 587.13 534.45
  Q 588.45 532.84 590.33 532.28
  Z"
/>
<path fill="#a49e9a" d="
  M 532.98 547.09
  Q 530.27 544.99 528.23 543.50
  Q 525.04 541.17 521.45 540.44
  L 522.16 538.49
  Q 522.31 538.06 522.69 538.31
  C 526.86 541.01 530.40 541.26 532.98 547.09
  Z"
/>
<path fill="#756b66" d="
  M 521.45 540.44
  Q 525.04 541.17 528.23 543.50
  Q 530.27 544.99 532.98 547.09
  Q 534.50 552.80 530.85 556.28
  C 526.30 560.61 518.54 558.93 513.58 556.00
  Q 513.26 555.81 512.91 555.78
  Q 512.34 555.73 512.19 555.73
  A 1.23 1.23 0.0 0 1 511.41 553.56
  Q 518.01 547.95 521.45 540.44
  Z"
/>
<path fill="#a08e4e" d="
  M 532.74 542.44
  C 535.61 543.93 539.37 543.54 542.32 543.52
  Q 543.44 543.51 542.99 544.53
  Q 540.08 551.22 534.19 555.54
  A 0.52 0.52 0.0 0 1 533.41 554.89
  Q 536.42 548.59 532.07 543.26
  A 0.54 0.54 0.0 0 1 532.74 542.44
  Z"
/>
<path fill="#d6c864" d="
  M 383.00 544.51
  C 389.79 549.20 398.50 556.02 403.16 562.77
  Q 404.12 564.16 402.48 563.76
  L 388.21 560.29
  Q 387.83 560.19 387.50 560.40
  Q 387.00 560.71 386.25 560.19
  A 1.28 1.14 85.4 0 1 386.00 559.95
  Q 382.11 554.82 377.63 550.19
  A 0.85 0.85 0.0 0 1 377.49 549.19
  L 379.60 545.32
  A 2.35 2.35 0.0 0 1 383.00 544.51
  Z"
/>
<path fill="#d6c864" d="
  M 366.53 560.56
  Q 366.31 560.58 366.09 560.64
  Q 365.71 560.75 365.52 560.39
  C 363.24 556.18 367.12 549.78 369.99 546.63
  Q 371.06 545.46 372.23 546.51
  Q 382.26 555.52 388.89 567.21
  Q 389.57 568.41 388.21 568.15
  Q 377.53 566.11 367.30 560.75
  Q 366.88 560.53 366.53 560.56
  Z"
/>
<path fill="#d6c864" d="
  M 351.88 550.07
  C 358.62 554.39 364.87 562.43 368.55 569.55
  A 0.43 0.43 0.0 0 1 368.07 570.16
  C 362.95 568.96 347.27 565.11 344.55 560.56
  Q 344.29 560.13 344.36 559.64
  C 344.70 556.96 347.36 547.18 351.88 550.07
  Z"
/>
<path fill="#756b66" d="
  M 475.10 570.32
  C 468.60 567.33 467.51 560.27 466.48 554.35
  Q 466.38 553.75 466.92 554.04
  Q 474.44 558.11 482.70 559.89
  C 492.72 562.04 481.34 573.18 475.10 570.32
  Z"
/>
<path fill="#756b66" d="
  M 506.97 570.40
  C 499.61 575.14 491.23 567.12 487.23 561.72
  A 0.77 0.77 0.0 0 1 488.22 560.59
  C 491.79 562.58 504.56 557.80 508.25 556.00
  A 0.79 0.79 0.0 0 1 509.13 556.12
  C 515.04 561.35 512.65 566.73 506.97 570.40
  Z"
/>
<path fill="#a08e4e" d="
  M 514.24 559.36
  L 520.16 561.27
  A 0.83 0.83 0.0 0 1 520.57 562.56
  Q 516.50 567.99 509.98 570.01
  A 0.34 0.34 0.0 0 1 509.69 569.41
  C 512.94 567.25 515.00 563.48 513.20 559.64
  Q 512.87 558.94 514.24 559.36
  Z"
/>
<path fill="#a08e4e" d="
  M 488.82 566.84
  Q 487.77 567.32 486.66 567.56
  A 0.41 0.41 0.0 0 1 486.26 566.90
  L 487.61 565.19
  Q 488.20 564.44 488.70 565.25
  L 489.58 566.69
  A 0.24 0.24 0.0 0 1 489.25 567.02
  L 488.97 566.85
  A 0.18 0.17 -39.0 0 0 488.82 566.84
  Z"
/>
</svg>
