<?xml version="1.0" encoding="UTF-8" standalone="no"?>
<svg xmlns="http://www.w3.org/2000/svg" version="1.2" baseProfile="tiny" viewBox="0.00 0.00 500.00 500.00">
<path fill="#030304" fill-opacity="0.992" d="
  M 423.40 408.98
  L 423.96 411.82
  Q 423.51 412.96 424.02 413.80
  A 0.43 0.42 -56.4 0 0 424.80 413.64
  C 429.14 386.11 431.70 357.91 431.47 330.00
  C 430.85 252.95 417.79 178.74 388.91 107.04
  C 381.43 88.46 341.52 -3.95 311.49 13.54
  C 298.59 21.05 289.10 38.19 283.45 51.73
  Q 282.36 54.33 281.70 55.46
  A 0.50 0.49 5.8 0 0 282.29 56.18
  L 283.55 55.75
  Q 280.64 61.86 278.23 68.10
  C 276.47 72.65 277.77 80.07 278.12 84.95
  Q 278.16 85.47 278.61 85.73
  C 297.01 96.34 311.21 112.37 322.90 129.83
  Q 348.12 167.50 358.83 212.69
  Q 359.99 217.61 360.48 220.53
  C 360.79 222.40 361.88 224.49 361.38 227.07
  L 360.36 223.99
  Q 353.47 188.47 337.33 156.08
  C 336.33 154.07 334.71 151.70 333.79 149.96
  C 321.64 127.12 304.84 104.50 283.35 89.64
  Q 281.17 88.13 278.82 86.96
  Q 278.39 86.75 278.31 87.22
  C 277.86 89.88 278.32 91.44 280.78 92.89
  C 297.11 102.48 309.27 117.43 320.96 133.30
  Q 321.96 134.66 322.45 135.96
  Q 322.88 137.10 322.08 136.18
  L 321.39 135.37
  C 311.71 121.42 299.27 106.01 284.77 96.50
  Q 283.23 95.76 281.81 95.00
  C 280.72 94.42 278.31 94.16 277.99 92.25
  Q 276.84 85.54 277.21 75.81
  Q 277.24 75.27 276.73 75.28
  Q 276.26 75.29 276.18 75.75
  C 275.40 80.69 272.80 98.33 266.79 99.84
  Q 266.45 99.93 266.11 99.82
  L 263.50 98.96
  A 0.70 0.70 0.0 0 0 262.66 99.33
  C 260.98 102.91 258.16 101.44 255.89 99.75
  Q 255.46 99.43 255.09 99.81
  Q 251.49 103.38 248.43 99.41
  Q 248.11 99.00 247.62 99.16
  Q 241.52 101.15 239.59 94.80
  Q 237.23 87.00 235.41 76.92
  Q 235.33 76.43 234.85 76.29
  Q 234.03 76.04 233.76 76.78
  L 233.23 75.18
  L 233.26 73.01
  Q 234.03 72.52 234.55 72.90
  A 0.47 0.46 17.8 0 1 234.75 73.28
  L 234.75 74.23
  Q 234.75 74.49 235.01 74.49
  Q 235.17 74.49 235.42 74.44
  L 236.99 81.70
  A 1.97 1.96 70.6 0 0 239.79 83.05
  C 250.65 77.63 262.11 78.00 273.21 83.21
  A 0.60 0.60 0.0 0 0 274.06 82.75
  Q 278.47 52.08 296.35 26.82
  C 301.50 19.55 310.12 10.21 319.56 10.33
  C 337.85 10.57 357.12 41.63 365.08 55.60
  Q 381.31 84.08 393.05 114.69
  Q 422.65 191.84 429.79 274.24
  Q 431.19 290.33 432.08 306.44
  C 433.24 327.34 432.36 357.82 429.97 382.99
  Q 427.53 408.59 420.82 433.40
  Q 420.69 433.88 420.97 434.30
  C 424.35 439.41 423.99 444.11 423.24 450.69
  C 422.81 454.47 418.73 475.24 411.86 472.08
  C 409.36 470.92 409.11 465.05 409.20 462.75
  C 409.53 454.95 411.61 438.16 418.81 433.53
  A 1.19 1.17 -11.7 0 0 419.33 432.75
  L 423.40 408.98
  Z"
/>
<path fill="#e1e3e9" d="
  M 423.96 411.82
  L 424.02 409.78
  Q 424.72 407.22 424.99 404.75
  C 431.96 341.82 428.76 276.22 416.87 215.53
  C 407.41 167.22 394.02 122.99 373.29 79.96
  Q 360.55 53.51 343.39 32.64
  C 339.55 27.96 328.03 16.86 321.24 16.94
  C 305.75 17.12 292.34 36.99 286.22 49.51
  C 285.46 51.06 284.42 51.50 284.63 53.81
  L 283.55 55.75
  L 282.29 56.18
  A 0.50 0.49 5.8 0 1 281.70 55.46
  Q 282.36 54.33 283.45 51.73
  C 289.10 38.19 298.59 21.05 311.49 13.54
  C 341.52 -3.95 381.43 88.46 388.91 107.04
  C 417.79 178.74 430.85 252.95 431.47 330.00
  C 431.70 357.91 429.14 386.11 424.80 413.64
  A 0.43 0.42 -56.4 0 1 424.02 413.80
  Q 423.51 412.96 423.96 411.82
  Z"
/>
<path fill="#030304" fill-opacity="0.992" d="
  M 235.42 74.44
  Q 235.17 74.49 235.01 74.49
  Q 234.75 74.49 234.75 74.23
  L 234.75 73.28
  A 0.47 0.46 17.8 0 0 234.55 72.90
  Q 234.03 72.52 233.26 73.01
  C 233.29 71.41 233.32 70.04 232.85 68.47
  C 228.99 55.71 214.81 9.45 192.92 21.86
  C 176.49 31.19 162.66 47.06 152.01 62.44
  Q 136.12 85.40 126.49 107.75
  Q 109.98 146.10 99.97 186.72
  Q 99.88 187.11 100.26 187.21
  L 151.63 201.58
  A 0.80 0.79 -74.0 0 0 152.61 201.03
  C 165.12 157.17 192.43 110.78 232.31 86.50
  A 0.97 0.96 75.5 0 0 232.77 85.71
  L 233.23 75.18
  L 233.76 76.78
  Q 233.62 84.07 233.13 91.44
  C 232.90 94.76 230.29 94.45 228.11 95.74
  Q 227.57 96.06 228.04 96.48
  C 238.05 105.27 249.17 106.28 261.95 105.60
  C 269.69 105.19 277.78 101.79 282.63 96.52
  Q 282.99 96.13 283.34 96.52
  L 284.11 97.37
  Q 283.75 100.09 286.39 100.99
  Q 286.81 101.14 286.75 101.58
  L 286.71 101.86
  Q 286.62 102.56 285.96 102.30
  Q 282.64 100.97 281.55 104.02
  Q 281.39 104.48 281.53 104.95
  L 281.75 105.64
  Q 281.95 106.28 281.29 106.20
  C 280.44 106.09 280.05 106.02 279.35 106.64
  C 272.92 112.46 266.29 114.97 258.23 117.69
  Q 257.73 117.86 257.79 118.38
  L 258.09 120.77
  Q 257.49 132.98 259.38 145.22
  Q 259.45 145.72 259.92 145.92
  C 265.81 148.47 270.66 152.09 276.60 154.52
  Q 286.19 158.45 294.33 165.36
  L 295.18 166.07
  L 298.83 170.32
  Q 299.31 170.88 298.87 171.47
  L 297.25 173.63
  A 0.59 0.58 -57.6 0 0 297.44 174.50
  Q 314.31 183.74 330.14 194.67
  Q 330.57 194.97 331.10 194.97
  Q 333.41 194.99 335.65 195.25
  C 340.60 195.80 338.79 201.17 336.22 203.22
  C 332.96 205.80 329.92 205.03 326.62 206.59
  Q 309.81 214.53 293.04 222.63
  A 1.11 1.11 0.0 0 0 292.49 223.25
  Q 291.14 227.08 286.96 227.65
  A 0.57 0.57 0.0 0 0 286.99 228.79
  Q 291.38 229.16 295.27 227.21
  A 0.45 0.45 0.0 0 1 295.90 227.74
  C 294.18 233.80 284.44 233.84 280.84 230.16
  A 1.85 1.84 -80.0 0 0 277.86 232.25
  Q 279.37 235.40 280.20 238.88
  Q 280.32 239.37 280.00 239.77
  Q 278.30 241.83 275.21 242.26
  Q 276.01 240.84 277.51 240.69
  A 0.74 0.74 0.0 0 0 277.73 239.27
  L 275.84 238.45
  A 0.55 0.54 -74.6 0 0 275.08 238.89
  L 274.71 242.24
  Q 270.16 278.79 266.39 315.43
  Q 266.08 318.48 266.71 320.65
  Q 267.79 324.38 267.80 324.47
  C 268.29 328.12 267.63 331.86 269.15 335.21
  C 283.78 367.60 276.82 408.93 268.48 442.00
  Q 267.58 445.56 269.17 450.41
  Q 269.32 450.88 269.77 451.11
  Q 318.45 476.26 373.26 480.40
  L 367.00 480.88
  Q 315.71 475.70 269.95 452.22
  A 0.51 0.50 -79.0 0 0 269.22 452.72
  Q 270.57 468.31 271.73 484.18
  C 271.78 484.89 271.37 485.71 271.40 486.40
  A 0.53 0.53 0.0 0 1 270.36 486.58
  Q 266.31 473.81 264.08 460.59
  A 0.68 0.68 0.0 0 0 262.75 460.53
  Q 260.90 467.37 256.78 473.16
  A 0.58 0.53 -28.2 0 0 256.68 473.44
  L 255.40 489.08
  A 0.47 0.45 -88.5 0 1 254.97 489.50
  Q 254.29 489.54 254.12 488.67
  Q 253.03 483.23 252.99 477.62
  A 0.41 0.40 66.6 0 0 252.29 477.34
  Q 249.48 480.32 245.67 481.84
  A 1.49 1.43 2.3 0 0 244.91 482.51
  Q 242.66 486.67 239.05 489.61
  A 0.68 0.67 87.8 0 1 238.07 488.70
  L 239.42 486.75
  Q 240.27 487.52 241.23 486.21
  Q 251.47 472.26 254.63 454.79
  Q 255.09 452.23 252.70 446.38
  A 0.36 0.35 41.4 0 0 252.03 446.42
  Q 251.92 446.80 252.08 447.18
  Q 252.27 447.66 252.17 448.16
  C 249.86 459.91 246.33 474.49 240.07 485.25
  Q 240.37 483.72 238.41 484.18
  A 0.62 0.62 0.0 0 1 237.87 483.11
  L 241.76 479.83
  A 1.45 1.36 -11.0 0 0 242.18 479.25
  Q 249.69 459.58 252.27 443.49
  Q 252.66 441.06 249.45 441.32
  Q 249.04 441.36 248.69 441.58
  Q 245.87 443.39 244.06 444.30
  Q 218.30 457.35 187.06 467.56
  C 164.52 474.92 135.77 480.32 112.09 477.16
  A 0.23 0.22 41.2 0 1 112.06 476.72
  C 150.83 465.90 187.90 445.11 217.39 418.01
  Q 217.79 417.64 217.38 417.28
  C 176.73 381.43 150.28 328.42 147.09 274.91
  Q 146.68 268.09 146.29 261.24
  C 146.13 258.36 146.69 255.34 146.72 252.82
  Q 146.92 231.08 151.08 209.46
  A 1.23 1.23 0.0 0 0 150.22 208.05
  Q 124.66 200.59 99.75 191.20
  A 0.95 0.94 17.1 0 0 98.49 191.86
  Q 92.53 216.31 87.72 241.29
  Q 74.29 310.98 73.56 382.01
  Q 73.44 382.01 73.32 382.01
  C 72.45 365.39 74.25 352.71 74.03 337.92
  C 74.02 337.10 74.56 336.16 74.59 335.56
  C 77.47 285.82 86.45 236.70 97.79 190.76
  Q 97.97 190.04 97.24 189.90
  L 95.52 189.57
  Q 95.04 189.48 94.91 189.96
  C 83.99 231.17 77.76 274.04 74.53 316.51
  C 74.19 321.00 73.99 325.61 73.45 330.38
  C 72.79 336.15 73.10 342.27 72.26 348.23
  L 71.44 352.56
  Q 74.17 270.40 93.43 190.91
  A 0.38 0.38 0.0 0 0 92.82 190.53
  Q 88.42 194.19 87.25 199.80
  A 0.63 0.62 -57.0 0 1 86.13 200.04
  Q 83.79 196.80 85.35 193.09
  A 0.75 0.75 0.0 0 0 84.16 192.23
  L 78.98 196.78
  A 0.54 0.54 0.0 0 1 78.09 196.33
  C 78.72 188.58 86.81 184.27 93.71 185.42
  A 1.41 1.41 0.0 0 0 95.32 184.34
  C 106.37 136.21 125.11 88.16 154.98 48.45
  C 165.20 34.86 178.45 20.70 193.75 13.51
  C 201.85 9.70 210.87 16.08 215.92 22.09
  C 228.91 37.54 231.11 55.62 235.42 74.44
  Z
  M 214.85 193.15
  Q 214.88 193.73 213.88 194.09
  L 195.33 211.26
  A 0.78 0.77 -32.1 0 0 195.13 212.11
  C 196.84 216.59 190.77 218.78 187.82 217.44
  Q 183.42 215.44 180.98 215.05
  Q 166.52 212.70 152.54 208.60
  A 0.28 0.28 0.0 0 0 152.19 208.81
  C 148.89 225.48 147.58 242.33 147.40 259.18
  C 146.79 316.30 170.86 370.08 211.02 410.23
  Q 214.53 413.74 218.15 416.56
  A 1.45 1.44 43.2 0 1 218.22 418.78
  Q 180.32 452.27 134.06 470.58
  Q 125.14 474.11 115.75 476.39
  A 0.41 0.41 0.0 0 0 115.84 477.19
  C 162.64 478.16 209.43 462.29 250.06 439.90
  Q 250.52 439.64 250.89 440.02
  L 252.05 441.18
  Q 252.75 441.88 252.94 440.90
  C 259.13 407.68 259.14 372.71 256.70 339.09
  Q 256.66 338.59 256.36 338.18
  Q 248.81 327.98 255.21 316.86
  Q 255.47 316.40 255.42 315.87
  Q 255.02 311.89 253.71 308.16
  C 247.19 289.62 243.06 269.63 240.33 250.19
  Q 240.08 248.40 239.71 242.44
  Q 239.68 241.93 239.18 241.84
  L 235.06 241.13
  A 1.22 1.22 0.0 0 1 234.13 239.50
  L 235.05 237.01
  A 0.58 0.58 0.0 0 0 234.45 236.23
  Q 230.66 236.60 227.75 234.22
  A 1.02 1.01 -66.6 0 1 227.39 233.29
  Q 227.62 231.80 228.96 230.46
  C 236.07 223.32 243.24 216.83 248.28 207.93
  A 0.46 0.46 0.0 0 0 247.91 207.24
  C 244.36 207.00 234.61 205.40 239.91 199.55
  Q 243.48 195.61 246.61 191.14
  Q 246.97 190.63 246.35 190.51
  Q 242.48 189.77 238.71 188.86
  C 233.04 187.49 236.34 183.36 238.30 180.78
  Q 238.71 180.24 238.04 180.13
  L 230.45 178.98
  Q 229.93 178.90 229.55 179.26
  L 214.85 193.15
  Z
  M 259.79 446.27
  L 258.39 445.96
  A 0.24 0.24 0.0 0 0 258.10 446.14
  L 258.00 446.62
  A 7.29 0.90 -77.6 0 0 257.31 453.93
  L 257.43 453.96
  A 7.29 0.90 -77.6 0 0 259.87 447.03
  L 259.98 446.55
  A 0.24 0.24 0.0 0 0 259.79 446.27
  Z
  M 251.71 470.24
  L 251.75 470.71
  Q 251.79 471.25 251.46 471.67
  Q 248.70 475.14 246.69 479.08
  Q 245.64 481.16 247.55 479.83
  L 252.35 476.51
  Q 252.73 476.24 252.83 475.78
  Q 253.64 471.99 251.95 469.69
  Q 253.20 468.34 252.98 467.15
  A 0.37 0.36 53.8 0 0 252.30 467.04
  L 250.94 469.70
  A 0.47 0.47 0.0 0 0 251.07 470.29
  Q 251.41 470.57 251.71 470.24
  Z"
/>
<g stroke-width="2.00" fill="none" stroke-linecap="butt">
<path stroke="#c5c5ca" vector-effect="non-scaling-stroke" d="
  M 230.27 54.77
  Q 231.76 58.39 230.37 59.18"
/>
<path stroke="#e6dad0" vector-effect="non-scaling-stroke" d="
  M 181.57 144.28
  Q 194.67 131.18 211.31 126.04"
/>
<path stroke="#c5c5ca" vector-effect="non-scaling-stroke" d="
  M 211.31 126.04
  Q 189.12 163.91 180.67 206.28
  Q 180.65 206.39 180.75 206.42
  Q 180.89 206.46 181.03 206.51
  Q 181.22 206.57 181.26 206.38
  Q 190.35 162.61 213.86 125.08"
/>
<path stroke="#e6dad0" vector-effect="non-scaling-stroke" d="
  M 213.86 125.08
  L 232.59 122.20"
/>
<path stroke="#c5c5ca" vector-effect="non-scaling-stroke" d="
  M 232.59 122.20
  Q 225.03 141.35 220.48 161.13
  A 0.30 0.29 -75.0 0 0 220.67 161.48
  Q 220.83 161.52 220.98 161.58
  A 0.26 0.25 -72.6 0 0 221.31 161.40
  C 224.92 147.74 228.78 134.23 234.38 121.32"
/>
<path stroke="#e6dad0" vector-effect="non-scaling-stroke" d="
  M 234.38 121.32
  Q 243.87 121.76 252.80 120.00"
/>
<path stroke="#cabcb0" vector-effect="non-scaling-stroke" d="
  M 234.38 121.32
  Q 235.17 119.71 235.29 118.52
  A 0.53 0.53 0.0 0 0 234.28 118.25
  L 232.59 122.20"
/>
<path stroke="#cabcb0" vector-effect="non-scaling-stroke" d="
  M 213.86 125.08
  L 221.35 113.08
  A 0.63 0.31 -30.2 0 0 220.36 113.15
  L 211.31 126.04"
/>
<path stroke="#c5c5ca" vector-effect="non-scaling-stroke" d="
  M 239.04 109.76
  Q 238.99 109.29 238.24 109.97"
/>
<path stroke="#e6dad0" vector-effect="non-scaling-stroke" d="
  M 297.40 169.43
  Q 297.06 170.06 296.29 170.54"
/>
<path stroke="#e6dad0" vector-effect="non-scaling-stroke" d="
  M 215.62 170.65
  L 213.24 171.03"
/>
<path stroke="#e6dad0" vector-effect="non-scaling-stroke" d="
  M 265.78 173.58
  Q 256.51 173.13 248.16 174.21
  Q 247.66 174.28 247.35 173.88
  Q 246.80 173.18 246.19 173.15"
/>
<path stroke="#e6dad0" vector-effect="non-scaling-stroke" d="
  M 275.32 183.24
  Q 274.73 183.89 274.70 183.33"
/>
<path stroke="#e6dad0" vector-effect="non-scaling-stroke" d="
  M 238.55 184.02
  Q 237.61 184.12 237.41 183.72"
/>
<path stroke="#e6dad0" vector-effect="non-scaling-stroke" d="
  M 228.81 177.93
  Q 227.72 176.91 226.04 176.59
  Q 225.57 176.50 225.26 176.13
  L 224.24 174.92"
/>
<path stroke="#c5c5ca" vector-effect="non-scaling-stroke" d="
  M 300.40 211.71
  Q 299.15 210.32 299.20 208.24
  Q 299.50 195.59 298.36 185.40
  Q 298.34 185.19 298.36 184.76
  Q 298.40 184.21 298.08 184.02
  Q 297.66 183.77 297.69 184.26
  L 299.19 212.45"
/>
<path stroke="#565557" stroke-opacity="0.996" vector-effect="non-scaling-stroke" d="
  M 214.85 193.15
  Q 214.88 193.73 213.88 194.09"
/>
<path stroke="#727377" stroke-opacity="0.996" vector-effect="non-scaling-stroke" d="
  M 213.88 194.09
  L 195.33 211.26
  A 0.78 0.77 -32.1 0 0 195.13 212.11
  C 196.84 216.59 190.77 218.78 187.82 217.44
  Q 183.42 215.44 180.98 215.05
  Q 166.52 212.70 152.54 208.60
  A 0.28 0.28 0.0 0 0 152.19 208.81
  C 148.89 225.48 147.58 242.33 147.40 259.18
  C 146.79 316.30 170.86 370.08 211.02 410.23
  Q 214.53 413.74 218.15 416.56
  A 1.45 1.44 43.2 0 1 218.22 418.78
  Q 180.32 452.27 134.06 470.58
  Q 125.14 474.11 115.75 476.39
  A 0.41 0.41 0.0 0 0 115.84 477.19
  C 162.64 478.16 209.43 462.29 250.06 439.90
  Q 250.52 439.64 250.89 440.02
  L 252.05 441.18
  Q 252.75 441.88 252.94 440.90
  C 259.13 407.68 259.14 372.71 256.70 339.09
  Q 256.66 338.59 256.36 338.18
  Q 248.81 327.98 255.21 316.86
  Q 255.47 316.40 255.42 315.87
  Q 255.02 311.89 253.71 308.16
  C 247.19 289.62 243.06 269.63 240.33 250.19
  Q 240.08 248.40 239.71 242.44
  Q 239.68 241.93 239.18 241.84
  L 235.06 241.13
  A 1.22 1.22 0.0 0 1 234.13 239.50
  L 235.05 237.01
  A 0.58 0.58 0.0 0 0 234.45 236.23
  Q 230.66 236.60 227.75 234.22
  A 1.02 1.01 -66.6 0 1 227.39 233.29
  Q 227.62 231.80 228.96 230.46
  C 236.07 223.32 243.24 216.83 248.28 207.93
  A 0.46 0.46 0.0 0 0 247.91 207.24
  C 244.36 207.00 234.61 205.40 239.91 199.55
  Q 243.48 195.61 246.61 191.14
  Q 246.97 190.63 246.35 190.51
  Q 242.48 189.77 238.71 188.86
  C 233.04 187.49 236.34 183.36 238.30 180.78
  Q 238.71 180.24 238.04 180.13
  L 230.45 178.98
  Q 229.93 178.90 229.55 179.26
  L 214.85 193.15"
/>
<path stroke="#c5c5ca" vector-effect="non-scaling-stroke" d="
  M 213.88 194.09
  Q 214.03 194.18 214.13 194.23
  Q 214.36 194.33 214.32 194.58
  Q 205.98 259.54 226.19 322.27
  Q 230.31 335.03 235.44 345.53
  Q 235.44 345.54 235.45 345.59
  Q 235.46 345.70 235.66 345.69
  A 0.12 0.11 76.5 0 0 235.75 345.53
  Q 232.54 336.87 229.46 328.18
  C 214.01 284.68 209.87 240.82 215.55 195.00
  Q 215.61 194.47 214.85 193.15"
/>
<path stroke="#e6dad0" vector-effect="non-scaling-stroke" d="
  M 262.98 188.23
  Q 256.29 189.03 249.60 188.00"
/>
<path stroke="#e6dad0" vector-effect="non-scaling-stroke" d="
  M 271.40 201.35
  L 270.29 201.80"
/>
<path stroke="#e6dad0" vector-effect="non-scaling-stroke" d="
  M 239.51 202.46
  Q 239.61 202.77 238.88 202.77"
/>
<path stroke="#cabcb0" vector-effect="non-scaling-stroke" d="
  M 260.30 199.98
  L 263.10 206.74"
/>
<path stroke="#cabcb0" vector-effect="non-scaling-stroke" d="
  M 259.55 199.92
  Q 260.14 204.27 262.73 208.06"
/>
<path stroke="#e6dad0" vector-effect="non-scaling-stroke" d="
  M 265.18 211.60
  L 246.72 212.21"
/>
<path stroke="#e6dad0" vector-effect="non-scaling-stroke" d="
  M 275.86 229.85
  Q 264.72 227.88 255.32 232.96
  C 254.41 233.45 253.70 233.27 252.90 232.75"
/>
<path stroke="#e6dad0" vector-effect="non-scaling-stroke" d="
  M 273.75 243.14
  Q 264.41 241.45 255.35 241.54"
/>
<path stroke="#e1d9c8" vector-effect="non-scaling-stroke" d="
  M 264.86 320.95
  Q 265.00 321.24 263.76 321.31"
/>
<path stroke="#e6d0ae" vector-effect="non-scaling-stroke" d="
  M 253.28 324.24
  C 257.11 327.83 259.53 323.16 258.06 319.77
  Q 257.85 319.30 257.34 319.28
  L 254.86 319.21"
/>
<path stroke="#e1d9c8" vector-effect="non-scaling-stroke" d="
  M 260.67 444.81
  Q 260.33 445.48 259.75 445.58"
/>
<path stroke="#726955" stroke-opacity="0.996" vector-effect="non-scaling-stroke" d="
  M 251.71 470.24
  L 251.75 470.71
  Q 251.79 471.25 251.46 471.67
  Q 248.70 475.14 246.69 479.08
  Q 245.64 481.16 247.55 479.83
  L 252.35 476.51
  Q 252.73 476.24 252.83 475.78
  Q 253.64 471.99 251.95 469.69"
/>
</g>
<path fill="#e1e3e9" d="
  M 230.27 54.77
  Q 231.76 58.39 230.37 59.18
  C 227.20 46.70 213.09 10.90 194.27 20.31
  Q 184.18 25.36 175.47 33.73
  C 133.08 74.47 113.50 131.84 98.91 186.48
  A 0.52 0.51 22.1 0 1 98.16 186.79
  L 96.47 185.84
  Q 95.98 185.57 96.11 185.01
  Q 106.71 139.01 126.91 96.36
  C 139.04 70.75 154.87 46.37 175.76 27.02
  C 181.37 21.83 188.02 16.64 195.27 14.07
  C 205.40 10.47 215.45 21.88 219.77 29.22
  Q 226.83 41.21 230.27 54.77
  Z"
/>
<path fill="#030304" fill-opacity="0.992" d="
  M 424.02 409.78
  Q 424.12 408.51 423.81 407.74
  Q 434.77 306.78 414.95 209.55
  Q 410.04 185.48 400.60 153.29
  C 388.60 112.36 370.32 67.23 342.55 32.97
  Q 337.60 26.87 329.95 21.53
  Q 320.06 14.64 310.04 21.62
  Q 299.49 28.97 291.76 41.75
  Q 285.98 51.33 284.63 53.81
  C 284.42 51.50 285.46 51.06 286.22 49.51
  C 292.34 36.99 305.75 17.12 321.24 16.94
  C 328.03 16.86 339.55 27.96 343.39 32.64
  Q 360.55 53.51 373.29 79.96
  C 394.02 122.99 407.41 167.22 416.87 215.53
  C 428.76 276.22 431.96 341.82 424.99 404.75
  Q 424.72 407.22 424.02 409.78
  Z"
/>
<path fill="#a9a7aa" d="
  M 230.27 54.77
  Q 231.46 56.20 231.26 58.11
  Q 231.21 58.59 231.48 58.98
  Q 232.17 59.98 232.00 61.22
  A 0.33 0.33 0.0 0 1 231.37 61.31
  L 230.37 59.18
  Q 231.76 58.39 230.27 54.77
  Z"
/>
<path fill="#e1cea6" d="
  M 284.77 96.50
  Q 283.68 97.19 284.11 97.37
  L 283.34 96.52
  Q 282.99 96.13 282.63 96.52
  C 277.78 101.79 269.69 105.19 261.95 105.60
  C 249.17 106.28 238.05 105.27 228.04 96.48
  Q 227.57 96.06 228.11 95.74
  C 230.29 94.45 232.90 94.76 233.13 91.44
  Q 233.62 84.07 233.76 76.78
  Q 234.03 76.04 234.85 76.29
  Q 235.33 76.43 235.41 76.92
  Q 237.23 87.00 239.59 94.80
  Q 241.52 101.15 247.62 99.16
  Q 248.11 99.00 248.43 99.41
  Q 251.49 103.38 255.09 99.81
  Q 255.46 99.43 255.89 99.75
  C 258.16 101.44 260.98 102.91 262.66 99.33
  A 0.70 0.70 0.0 0 1 263.50 98.96
  L 266.11 99.82
  Q 266.45 99.93 266.79 99.84
  C 272.80 98.33 275.40 80.69 276.18 75.75
  Q 276.26 75.29 276.73 75.28
  Q 277.24 75.27 277.21 75.81
  Q 276.84 85.54 277.99 92.25
  C 278.31 94.16 280.72 94.42 281.81 95.00
  Q 283.23 95.76 284.77 96.50
  Z"
/>
<path fill="#e1e3e9" d="
  M 247.49 89.39
  C 245.78 86.45 241.75 88.23 239.29 89.37
  Q 238.72 89.64 238.61 89.02
  L 237.98 85.49
  Q 237.85 84.77 238.50 84.45
  Q 255.81 76.00 273.33 84.14
  Q 273.74 84.33 273.64 84.77
  L 272.78 88.47
  Q 272.60 89.25 271.88 88.89
  C 270.22 88.05 264.82 86.60 263.82 88.93
  Q 263.48 89.73 264.22 89.30
  Q 268.06 87.09 271.83 89.78
  Q 272.30 90.12 272.15 90.67
  C 271.18 94.16 268.61 101.82 263.46 97.70
  Q 263.08 97.40 262.81 97.80
  L 261.01 100.48
  A 0.79 0.78 -70.4 0 1 260.29 100.83
  Q 257.08 100.60 255.83 97.72
  A 0.41 0.41 0.0 0 0 255.06 97.78
  Q 254.58 99.72 252.58 100.61
  A 0.92 0.86 -53.3 0 1 252.19 100.68
  Q 249.55 100.47 248.61 97.94
  A 0.48 0.47 -28.7 0 0 247.88 97.73
  C 242.40 101.79 239.96 94.60 239.12 90.70
  Q 239.04 90.30 239.38 90.08
  Q 243.38 87.56 247.41 89.48
  Q 247.59 89.57 247.49 89.39
  Z"
/>
<path fill="#e1e3e9" d="
  M 360.36 223.99
  L 361.35 230.02
  C 364.31 249.43 364.95 269.23 361.73 288.35
  C 361.43 290.16 361.55 292.21 361.22 294.00
  Q 356.52 319.46 345.74 342.99
  C 332.42 372.05 309.01 398.58 283.95 417.55
  Q 283.57 417.84 283.88 418.19
  C 284.88 419.35 285.84 420.62 286.95 421.63
  Q 319.19 451.00 356.33 471.16
  Q 364.69 475.70 375.73 479.52
  A 0.31 0.30 51.1 0 1 375.67 480.11
  L 373.26 480.40
  Q 318.45 476.26 269.77 451.11
  Q 269.32 450.88 269.17 450.41
  Q 267.58 445.56 268.48 442.00
  C 276.82 408.93 283.78 367.60 269.15 335.21
  C 267.63 331.86 268.29 328.12 267.80 324.47
  Q 267.79 324.38 266.71 320.65
  Q 266.08 318.48 266.39 315.43
  Q 270.16 278.79 274.71 242.24
  L 275.21 242.26
  Q 278.30 241.83 280.00 239.77
  Q 280.32 239.37 280.20 238.88
  Q 279.37 235.40 277.86 232.25
  A 1.85 1.84 -80.0 0 1 280.84 230.16
  C 284.44 233.84 294.18 233.80 295.90 227.74
  A 0.45 0.45 0.0 0 0 295.27 227.21
  Q 291.38 229.16 286.99 228.79
  A 0.57 0.57 0.0 0 1 286.96 227.65
  Q 291.14 227.08 292.49 223.25
  A 1.11 1.11 0.0 0 1 293.04 222.63
  Q 309.81 214.53 326.62 206.59
  C 329.92 205.03 332.96 205.80 336.22 203.22
  C 338.79 201.17 340.60 195.80 335.65 195.25
  Q 333.41 194.99 331.10 194.97
  Q 330.57 194.97 330.14 194.67
  Q 314.31 183.74 297.44 174.50
  A 0.59 0.58 -57.6 0 1 297.25 173.63
  L 298.87 171.47
  Q 299.31 170.88 298.83 170.32
  L 295.18 166.07
  L 295.41 164.92
  A 0.49 0.49 0.0 0 0 295.41 164.78
  Q 291.70 143.81 282.25 124.72
  Q 282.04 124.30 281.85 124.05
  A 0.55 0.55 0.0 0 0 280.93 124.63
  C 286.48 136.66 289.79 148.87 293.65 161.37
  C 293.99 162.47 295.29 163.88 294.33 165.36
  Q 286.19 158.45 276.60 154.52
  C 270.66 152.09 265.81 148.47 259.92 145.92
  Q 259.45 145.72 259.38 145.22
  Q 257.49 132.98 258.09 120.77
  Q 278.26 120.70 298.71 126.50
  C 311.05 146.21 320.03 168.92 326.44 191.20
  Q 326.54 191.55 326.77 191.27
  Q 326.93 191.07 326.85 190.72
  C 321.75 168.68 311.88 146.52 300.79 127.20
  Q 311.44 130.44 321.39 135.37
  L 322.08 136.18
  Q 322.88 137.10 322.45 135.96
  Q 321.96 134.66 320.96 133.30
  C 309.27 117.43 297.11 102.48 280.78 92.89
  C 278.32 91.44 277.86 89.88 278.31 87.22
  Q 278.39 86.75 278.82 86.96
  Q 281.17 88.13 283.35 89.64
  C 304.84 104.50 321.64 127.12 333.79 149.96
  C 334.71 151.70 336.33 154.07 337.33 156.08
  Q 353.47 188.47 360.36 223.99
  Z
  M 284.51 381.00
  Q 282.71 382.33 281.76 384.26
  L 278.38 388.09
  A 0.10 0.10 0.0 0 0 278.53 388.23
  Q 280.38 386.39 281.76 384.26
  L 284.51 381.00
  L 287.42 377.74
  A 0.13 0.13 0.0 0 0 287.23 377.57
  Q 285.63 379.13 284.51 381.00
  Z
  M 276.96 410.30
  A 0.23 0.23 0.0 0 0 276.60 410.59
  Q 277.71 412.11 279.33 413.45
  Q 280.83 414.70 279.54 413.23
  L 276.96 410.30
  Z"
/>
<g stroke-width="2.00" fill="none" stroke-linecap="butt">
<path stroke="#727377" stroke-opacity="0.996" vector-effect="non-scaling-stroke" d="
  M 284.51 381.00
  Q 282.71 382.33 281.76 384.26"
/>
<path stroke="#727377" stroke-opacity="0.996" vector-effect="non-scaling-stroke" d="
  M 281.76 384.26
  L 278.38 388.09
  A 0.10 0.10 0.0 0 0 278.53 388.23
  Q 280.38 386.39 281.76 384.26"
/>
<path stroke="#727377" stroke-opacity="0.996" vector-effect="non-scaling-stroke" d="
  M 281.76 384.26
  L 284.51 381.00"
/>
<path stroke="#727377" stroke-opacity="0.996" vector-effect="non-scaling-stroke" d="
  M 284.51 381.00
  L 287.42 377.74
  A 0.13 0.13 0.0 0 0 287.23 377.57
  Q 285.63 379.13 284.51 381.00"
/>
<path stroke="#727377" stroke-opacity="0.996" vector-effect="non-scaling-stroke" d="
  M 276.96 410.30
  A 0.23 0.23 0.0 0 0 276.60 410.59
  Q 277.71 412.11 279.33 413.45
  Q 280.83 414.70 279.54 413.23
  L 276.96 410.30"
/>
</g>
<path fill="#e1e3e9" d="
  M 181.57 144.28
  Q 194.67 131.18 211.31 126.04
  Q 189.12 163.91 180.67 206.28
  Q 180.65 206.39 180.75 206.42
  Q 180.89 206.46 181.03 206.51
  Q 181.22 206.57 181.26 206.38
  Q 190.35 162.61 213.86 125.08
  L 232.59 122.20
  Q 225.03 141.35 220.48 161.13
  A 0.30 0.29 -75.0 0 0 220.67 161.48
  Q 220.83 161.52 220.98 161.58
  A 0.26 0.25 -72.6 0 0 221.31 161.40
  C 224.92 147.74 228.78 134.23 234.38 121.32
  Q 243.87 121.76 252.80 120.00
  Q 253.89 132.37 251.33 145.32
  Q 251.23 145.82 250.77 146.03
  C 245.43 148.44 241.21 152.43 235.92 154.51
  C 230.72 156.56 213.00 165.48 212.42 171.53
  A 1.29 1.29 0.0 0 0 212.76 172.52
  Q 215.57 175.61 219.71 176.46
  A 0.43 0.43 0.0 0 1 220.04 176.95
  Q 219.85 177.96 218.76 178.23
  Q 218.27 178.34 217.91 178.69
  L 188.57 206.99
  A 0.85 0.84 -62.7 0 1 187.86 207.22
  C 184.41 206.74 182.45 206.42 179.12 207.87
  A 1.36 1.33 39.4 0 1 178.29 207.94
  L 153.94 202.09
  Q 153.41 201.96 153.55 201.44
  Q 159.88 178.30 171.25 157.22
  C 177.08 146.41 183.07 135.68 190.87 126.13
  C 203.05 111.21 215.36 98.24 231.72 87.82
  Q 232.55 87.29 232.52 88.28
  L 232.45 91.41
  Q 232.43 92.07 231.86 92.40
  Q 210.39 104.53 195.10 123.86
  C 188.76 131.88 182.94 138.85 178.68 146.94
  C 178.54 147.21 178.48 147.77 178.50 148.05
  Q 178.54 148.41 178.76 148.11
  L 181.57 144.28
  Z"
/>
<path fill="#ebd1b6" d="
  M 284.77 96.50
  C 299.27 106.01 311.71 121.42 321.39 135.37
  Q 311.44 130.44 300.79 127.20
  Q 295.87 119.00 288.91 111.35
  Q 288.57 110.98 288.28 111.39
  Q 288.06 111.70 288.29 111.95
  Q 294.29 118.19 298.71 126.50
  Q 278.26 120.70 258.09 120.77
  L 257.79 118.38
  Q 257.73 117.86 258.23 117.69
  C 266.29 114.97 272.92 112.46 279.35 106.64
  C 280.05 106.02 280.44 106.09 281.29 106.20
  Q 281.95 106.28 281.75 105.64
  L 281.53 104.95
  Q 281.39 104.48 281.55 104.02
  Q 282.64 100.97 285.96 102.30
  Q 286.62 102.56 286.71 101.86
  L 286.75 101.58
  Q 286.81 101.14 286.39 100.99
  Q 283.75 100.09 284.11 97.37
  Q 283.68 97.19 284.77 96.50
  Z"
/>
<path fill="#ebd1b6" d="
  M 252.80 120.00
  Q 243.87 121.76 234.38 121.32
  Q 235.17 119.71 235.29 118.52
  A 0.53 0.53 0.0 0 0 234.28 118.25
  L 232.59 122.20
  L 213.86 125.08
  L 221.35 113.08
  A 0.63 0.31 -30.2 0 0 220.36 113.15
  L 211.31 126.04
  Q 194.67 131.18 181.57 144.28
  Q 198.60 115.68 225.32 97.22
  A 1.08 1.08 0.0 0 1 226.98 98.41
  Q 226.47 100.23 224.60 100.92
  A 0.58 0.58 0.0 0 0 224.89 102.04
  L 226.71 101.75
  Q 227.08 101.69 227.42 101.85
  Q 229.91 103.03 229.36 105.51
  Q 229.24 106.04 229.78 106.00
  C 230.78 105.94 231.23 105.86 232.03 106.57
  Q 240.66 114.26 251.82 117.37
  Q 252.34 117.52 252.44 118.04
  L 252.80 120.00
  Z"
/>
<path fill="#a9a7aa" d="
  M 231.05 102.67
  A 0.42 0.41 62.3 0 1 230.84 103.36
  Q 229.80 103.58 229.04 102.62
  Q 228.60 102.07 229.30 102.00
  Q 230.32 101.89 231.05 102.67
  Z"
/>
<path fill="#a9a7aa" d="
  M 280.64 103.95
  A 0.21 0.21 0.0 0 1 280.25 103.90
  L 279.95 102.59
  Q 279.81 102.00 280.42 102.00
  L 280.90 102.00
  Q 281.69 102.00 281.32 102.70
  L 280.64 103.95
  Z"
/>
<path fill="#a9a7aa" d="
  M 233.87 104.69
  L 234.98 105.02
  Q 235.61 105.20 235.56 105.85
  L 235.49 106.78
  A 0.51 0.51 0.0 0 1 234.55 107.01
  Q 233.40 105.16 231.27 104.70
  A 0.41 0.41 0.0 0 1 231.16 103.93
  Q 232.31 103.34 233.20 104.27
  Q 233.48 104.57 233.87 104.69
  Z"
/>
<path fill="#a9a7aa" d="
  M 268.38 107.76
  L 268.23 106.55
  Q 268.17 106.10 268.62 106.15
  L 269.95 106.28
  Q 270.49 106.34 270.38 106.87
  L 270.22 107.72
  A 0.41 0.41 0.0 0 0 270.99 107.97
  Q 272.00 105.79 274.49 105.25
  A 0.48 0.48 0.0 0 1 275.07 105.81
  C 274.31 109.75 266.19 110.05 264.44 107.22
  Q 264.07 106.62 264.76 106.74
  Q 266.45 107.04 267.81 108.08
  A 0.36 0.35 15.4 0 0 268.38 107.76
  Z"
/>
<path fill="#a9a7aa" d="
  M 275.92 105.55
  A 0.82 0.82 0.0 0 1 277.51 105.94
  Q 277.21 107.28 275.96 107.84
  Q 275.22 108.16 275.43 107.38
  L 275.92 105.55
  Z"
/>
<path fill="#a9a7aa" d="
  M 239.04 109.76
  Q 238.99 109.29 238.24 109.97
  Q 236.06 108.38 236.58 106.04
  Q 236.69 105.54 237.20 105.58
  Q 239.41 105.75 240.29 107.68
  A 0.37 0.37 0.0 0 0 241.00 107.53
  L 241.00 106.72
  Q 241.00 106.03 241.69 106.03
  Q 243.49 106.03 243.32 107.46
  Q 243.22 108.41 243.71 107.70
  Q 244.73 106.23 246.52 106.71
  Q 247.12 106.87 246.74 107.35
  C 244.44 110.23 241.68 107.55 239.04 109.76
  Z"
/>
<path fill="#e1e3e9" d="
  M 238.24 109.97
  Q 238.99 109.29 239.04 109.76
  Q 245.30 111.25 248.91 106.48
  A 0.91 0.89 22.7 0 1 249.76 106.14
  Q 255.59 107.09 261.42 106.31
  A 1.06 1.05 66.0 0 1 262.35 106.67
  C 264.10 108.78 268.19 111.29 270.99 110.06
  Q 271.94 109.64 272.01 109.64
  Q 274.60 109.44 272.40 110.82
  C 260.08 118.56 249.83 119.13 238.24 109.97
  Z"
/>
<path fill="#a9a7aa" d="
  M 300.79 127.20
  C 311.88 146.52 321.75 168.68 326.85 190.72
  Q 326.93 191.07 326.77 191.27
  Q 326.54 191.55 326.44 191.20
  C 320.03 168.92 311.05 146.21 298.71 126.50
  Q 294.29 118.19 288.29 111.95
  Q 288.06 111.70 288.28 111.39
  Q 288.57 110.98 288.91 111.35
  Q 295.87 119.00 300.79 127.20
  Z"
/>
<path fill="#a9a7aa" d="
  M 213.86 125.08
  Q 190.35 162.61 181.26 206.38
  Q 181.22 206.57 181.03 206.51
  Q 180.89 206.46 180.75 206.42
  Q 180.65 206.39 180.67 206.28
  Q 189.12 163.91 211.31 126.04
  L 220.36 113.15
  A 0.63 0.31 -30.2 0 1 221.35 113.08
  L 213.86 125.08
  Z"
/>
<path fill="#e1e3e9" d="
  M 257.35 118.30
  Q 256.75 131.66 258.57 144.89
  Q 258.69 145.75 257.85 145.54
  Q 255.32 144.93 252.83 145.57
  Q 252.09 145.77 252.23 145.01
  Q 254.73 131.75 253.33 118.33
  Q 253.26 117.71 253.89 117.70
  L 256.75 117.68
  Q 257.38 117.67 257.35 118.30
  Z"
/>
<path fill="#a9a7aa" d="
  M 234.38 121.32
  C 228.78 134.23 224.92 147.74 221.31 161.40
  A 0.26 0.25 -72.6 0 1 220.98 161.58
  Q 220.83 161.52 220.67 161.48
  A 0.30 0.29 -75.0 0 1 220.48 161.13
  Q 225.03 141.35 232.59 122.20
  L 234.28 118.25
  A 0.53 0.53 0.0 0 1 235.29 118.52
  Q 235.17 119.71 234.38 121.32
  Z"
/>
<path fill="#a9a7aa" d="
  M 295.18 166.07
  L 294.33 165.36
  C 295.29 163.88 293.99 162.47 293.65 161.37
  C 289.79 148.87 286.48 136.66 280.93 124.63
  A 0.55 0.55 0.0 0 1 281.85 124.05
  Q 282.04 124.30 282.25 124.72
  Q 291.70 143.81 295.41 164.78
  A 0.49 0.49 0.0 0 1 295.41 164.92
  L 295.18 166.07
  Z"
/>
<path fill="#e1cea6" d="
  M 268.85 151.30
  A 0.29 0.28 11.0 0 1 269.00 151.51
  Q 269.03 151.67 268.98 151.83
  Q 268.90 152.10 268.62 152.03
  Q 255.79 148.70 242.97 152.22
  A 0.40 0.40 0.0 0 1 242.64 151.51
  C 253.67 144.01 257.94 145.18 268.85 151.30
  Z"
/>
<path fill="#e1e3e9" d="
  M 297.40 169.43
  Q 297.06 170.06 296.29 170.54
  C 292.99 167.51 279.81 166.34 275.19 165.96
  C 265.20 165.14 255.35 164.38 245.26 165.06
  Q 234.25 165.80 222.26 168.00
  Q 218.33 168.73 215.62 170.65
  L 213.24 171.03
  Q 213.31 170.70 213.42 170.35
  Q 213.52 170.02 213.78 169.76
  C 238.04 145.55 273.18 145.30 297.40 169.43
  Z"
/>
<path fill="#e1cea6" d="
  M 247.62 167.60
  Q 246.27 166.94 246.27 166.43
  A 1.36 1.36 0.0 0 1 248.90 165.95
  Q 249.16 166.65 248.75 167.28
  Q 248.33 167.95 247.62 167.60
  Z"
/>
<path fill="#ebd1b6" d="
  M 265.78 173.58
  Q 256.51 173.13 248.16 174.21
  Q 247.66 174.28 247.35 173.88
  Q 246.80 173.18 246.19 173.15
  L 250.23 166.22
  Q 250.51 165.75 251.05 165.75
  L 259.72 165.75
  A 1.02 1.00 -17.2 0 1 260.55 166.18
  L 265.78 173.58
  Z"
/>
<path fill="#e1cea6" d="
  M 264.82 165.72
  A 0.22 0.22 0.0 0 1 265.05 165.93
  L 265.05 166.05
  A 1.76 1.45 88.5 0 1 263.65 167.85
  L 263.53 167.85
  A 1.76 1.45 88.5 0 1 262.03 166.13
  L 262.03 166.01
  A 0.22 0.22 0.0 0 1 262.24 165.78
  L 264.82 165.72
  Z"
/>
<path fill="#ebd1b6" d="
  M 240.73 167.74
  C 242.84 165.44 246.46 166.46 247.37 169.03
  Q 247.52 169.47 247.25 169.86
  Q 245.09 172.96 240.83 177.83
  C 238.88 180.07 233.59 178.51 231.18 177.79
  Q 230.58 177.61 231.05 177.20
  Q 236.19 172.69 240.73 167.74
  Z"
/>
<path fill="#ebd1b6" d="
  M 286.15 176.49
  Q 284.09 177.94 281.57 178.29
  C 278.24 178.75 276.25 179.17 273.67 179.32
  Q 273.05 179.35 272.63 178.91
  L 263.95 170.03
  Q 263.48 169.55 263.89 169.01
  C 266.91 165.09 270.39 165.73 274.27 168.29
  Q 280.17 172.17 286.14 175.92
  Q 286.57 176.20 286.15 176.49
  Z"
/>
<path fill="#ebd1b6" d="
  M 228.81 177.93
  Q 227.72 176.91 226.04 176.59
  Q 225.57 176.50 225.26 176.13
  L 224.24 174.92
  Q 226.43 172.88 228.70 170.85
  C 229.91 169.77 231.41 167.21 233.75 166.98
  Q 236.59 166.71 239.32 166.53
  A 0.54 0.53 -68.7 0 1 239.72 167.45
  L 228.81 177.93
  Z"
/>
<path fill="#e1e3e9" d="
  M 329.56 196.56
  Q 329.31 197.62 329.77 200.32
  Q 329.89 201.00 329.28 200.67
  C 310.57 190.48 292.66 178.75 274.67 167.63
  A 0.52 0.52 0.0 0 1 274.99 166.67
  C 279.61 167.04 283.04 167.79 287.33 170.02
  Q 308.16 180.88 327.67 193.99
  Q 327.76 194.05 328.78 194.53
  Q 329.92 195.07 329.56 196.56
  Z"
/>
<path fill="#ebd1b6" d="
  M 213.24 171.03
  L 215.62 170.65
  L 229.57 167.66
  A 0.45 0.45 0.0 0 1 229.97 168.44
  L 221.88 175.67
  Q 221.47 176.03 220.94 175.90
  C 218.56 175.32 213.36 173.45 213.24 171.03
  Z"
/>
<path fill="#ebd1b6" d="
  M 296.29 170.54
  Q 297.06 170.06 297.40 169.43
  Q 298.45 170.62 297.70 172.12
  A 2.10 2.10 0.0 0 1 294.88 173.04
  L 287.77 169.43
  A 0.46 0.45 65.1 0 1 288.08 168.58
  L 296.29 170.54
  Z"
/>
<path fill="#e1e3e9" d="
  M 246.19 173.15
  Q 246.80 173.18 247.35 173.88
  Q 247.66 174.28 248.16 174.21
  Q 256.51 173.13 265.78 173.58
  Q 269.80 177.58 274.81 182.19
  Q 275.08 182.43 275.32 183.24
  Q 274.73 183.89 274.70 183.33
  C 264.27 179.41 248.94 178.96 238.55 184.02
  Q 237.61 184.12 237.41 183.72
  L 246.19 173.15
  Z"
/>
<path fill="#e1e3e9" d="
  M 224.24 174.92
  L 225.26 176.13
  Q 225.57 176.50 226.04 176.59
  Q 227.72 176.91 228.81 177.93
  Q 214.14 192.83 198.68 206.67
  Q 195.03 209.94 190.68 212.79
  Q 189.07 213.85 188.61 211.98
  C 188.15 210.08 188.85 208.07 190.37 206.60
  C 201.55 195.77 212.60 185.26 224.24 174.92
  Z"
/>
<path fill="#e1e3e9" d="
  M 300.40 211.71
  Q 299.15 210.32 299.20 208.24
  Q 299.50 195.59 298.36 185.40
  Q 298.34 185.19 298.36 184.76
  Q 298.40 184.21 298.08 184.02
  Q 297.66 183.77 297.69 184.26
  L 299.19 212.45
  L 279.89 224.75
  Q 279.43 225.05 279.00 224.71
  Q 270.01 217.69 263.75 208.17
  Q 263.34 207.55 264.07 207.45
  C 267.20 207.02 275.54 205.79 272.00 201.05
  Q 268.23 195.98 265.30 190.40
  Q 265.01 189.85 265.62 189.72
  C 269.31 188.96 274.46 188.52 276.69 185.15
  Q 276.99 184.69 276.74 184.19
  L 275.02 180.75
  A 0.39 0.39 0.0 0 1 275.30 180.19
  L 288.13 177.75
  A 2.40 2.38 -34.6 0 1 289.81 178.05
  L 322.55 198.01
  Q 324.25 199.04 322.49 199.98
  L 300.40 211.71
  Z"
/>
<path fill="#e1e3e9" d="
  M 213.88 194.09
  Q 214.03 194.18 214.13 194.23
  Q 214.36 194.33 214.32 194.58
  Q 205.98 259.54 226.19 322.27
  Q 230.31 335.03 235.44 345.53
  Q 235.44 345.54 235.45 345.59
  Q 235.46 345.70 235.66 345.69
  A 0.12 0.11 76.5 0 0 235.75 345.53
  Q 232.54 336.87 229.46 328.18
  C 214.01 284.68 209.87 240.82 215.55 195.00
  Q 215.61 194.47 214.85 193.15
  L 229.55 179.26
  Q 229.93 178.90 230.45 178.98
  L 238.04 180.13
  Q 238.71 180.24 238.30 180.78
  C 236.34 183.36 233.04 187.49 238.71 188.86
  Q 242.48 189.77 246.35 190.51
  Q 246.97 190.63 246.61 191.14
  Q 243.48 195.61 239.91 199.55
  C 234.61 205.40 244.36 207.00 247.91 207.24
  A 0.46 0.46 0.0 0 1 248.28 207.93
  C 243.24 216.83 236.07 223.32 228.96 230.46
  Q 227.62 231.80 227.39 233.29
  A 1.02 1.01 -66.6 0 0 227.75 234.22
  Q 230.66 236.60 234.45 236.23
  A 0.58 0.58 0.0 0 1 235.05 237.01
  L 234.13 239.50
  A 1.22 1.22 0.0 0 0 235.06 241.13
  L 239.18 241.84
  Q 239.68 241.93 239.71 242.44
  Q 240.08 248.40 240.33 250.19
  C 243.06 269.63 247.19 289.62 253.71 308.16
  Q 255.02 311.89 255.42 315.87
  Q 255.47 316.40 255.21 316.86
  Q 248.81 327.98 256.36 338.18
  Q 256.66 338.59 256.70 339.09
  C 259.14 372.71 259.13 407.68 252.94 440.90
  Q 252.75 441.88 252.05 441.18
  L 250.89 440.02
  Q 250.52 439.64 250.06 439.90
  C 209.43 462.29 162.64 478.16 115.84 477.19
  A 0.41 0.41 0.0 0 1 115.75 476.39
  Q 125.14 474.11 134.06 470.58
  Q 180.32 452.27 218.22 418.78
  A 1.45 1.44 43.2 0 0 218.15 416.56
  Q 214.53 413.74 211.02 410.23
  C 170.86 370.08 146.79 316.30 147.40 259.18
  C 147.58 242.33 148.89 225.48 152.19 208.81
  A 0.28 0.28 0.0 0 1 152.54 208.60
  Q 166.52 212.70 180.98 215.05
  Q 183.42 215.44 187.82 217.44
  C 190.77 218.78 196.84 216.59 195.13 212.11
  A 0.78 0.77 -32.1 0 1 195.33 211.26
  L 213.88 194.09
  Z
  M 236.98 399.36
  L 239.69 402.78
  A 0.20 0.19 10.3 0 0 240.01 402.56
  Q 238.92 400.75 236.98 399.36
  L 238.01 398.05
  Q 239.08 397.27 239.74 396.26
  Q 240.24 395.51 239.48 395.99
  Q 238.49 396.62 237.70 397.76
  L 237.42 398.19
  Q 236.92 398.97 236.33 398.26
  Q 217.40 375.53 203.68 350.15
  C 198.75 341.02 194.20 328.64 191.06 319.86
  Q 176.54 279.38 178.22 236.14
  C 178.36 232.63 179.01 225.92 179.03 220.75
  Q 179.03 219.66 178.55 220.64
  Q 178.14 221.46 178.06 222.75
  Q 177.25 237.03 177.37 249.68
  C 177.90 305.45 200.31 356.67 236.11 398.75
  Q 236.51 399.22 236.08 399.67
  L 233.08 402.85
  A 0.07 0.07 0.0 0 0 233.08 402.95
  L 233.30 403.17
  Q 233.41 403.29 233.52 403.17
  L 236.98 399.36
  Z"
/>
<g stroke-width="2.00" fill="none" stroke-linecap="butt">
<path stroke="#c5c5ca" vector-effect="non-scaling-stroke" d="
  M 236.98 399.36
  L 239.69 402.78
  A 0.20 0.19 10.3 0 0 240.01 402.56
  Q 238.92 400.75 236.98 399.36"
/>
<path stroke="#c5c5ca" vector-effect="non-scaling-stroke" d="
  M 236.98 399.36
  L 238.01 398.05"
/>
<path stroke="#727377" stroke-opacity="0.996" vector-effect="non-scaling-stroke" d="
  M 238.01 398.05
  Q 239.08 397.27 239.74 396.26
  Q 240.24 395.51 239.48 395.99
  Q 238.49 396.62 237.70 397.76"
/>
<path stroke="#c5c5ca" vector-effect="non-scaling-stroke" d="
  M 237.70 397.76
  L 237.42 398.19
  Q 236.92 398.97 236.33 398.26
  Q 217.40 375.53 203.68 350.15
  C 198.75 341.02 194.20 328.64 191.06 319.86
  Q 176.54 279.38 178.22 236.14
  C 178.36 232.63 179.01 225.92 179.03 220.75
  Q 179.03 219.66 178.55 220.64
  Q 178.14 221.46 178.06 222.75
  Q 177.25 237.03 177.37 249.68
  C 177.90 305.45 200.31 356.67 236.11 398.75
  Q 236.51 399.22 236.08 399.67
  L 233.08 402.85
  A 0.07 0.07 0.0 0 0 233.08 402.95
  L 233.30 403.17
  Q 233.41 403.29 233.52 403.17
  L 236.98 399.36"
/>
<path stroke="#565557" stroke-opacity="0.996" vector-effect="non-scaling-stroke" d="
  M 237.70 397.76
  Q 237.77 397.96 238.01 398.05"
/>
</g>
<path fill="#ebd1b6" d="
  M 237.41 183.72
  Q 237.61 184.12 238.55 184.02
  Q 238.30 184.21 238.26 184.46
  A 0.38 0.37 82.5 0 0 238.78 184.86
  Q 244.46 182.40 250.64 181.59
  A 0.55 0.55 0.0 0 1 251.21 182.37
  L 247.93 189.18
  Q 247.70 189.65 247.17 189.63
  Q 242.07 189.45 237.55 187.42
  A 1.75 1.75 0.0 0 1 236.72 185.00
  L 237.41 183.72
  Z"
/>
<path fill="#ebd1b6" d="
  M 262.98 188.23
  Q 256.29 189.03 249.60 188.00
  L 252.24 181.88
  Q 252.40 181.50 252.81 181.50
  L 259.92 181.50
  Q 260.45 181.50 260.63 181.99
  L 262.98 188.23
  Z"
/>
<path fill="#ebd1b6" d="
  M 274.70 183.33
  Q 274.73 183.89 275.32 183.24
  L 275.63 184.04
  Q 275.81 184.53 275.50 184.95
  C 273.46 187.67 267.64 188.53 264.78 188.71
  A 0.69 0.69 0.0 0 1 264.09 188.25
  L 262.09 182.67
  A 0.53 0.53 0.0 0 1 262.58 181.97
  Q 268.73 181.90 274.29 184.50
  Q 274.80 184.74 274.91 184.19
  Q 274.97 183.85 274.70 183.33
  Z"
/>
<path fill="#a9a7aa" d="
  M 300.40 211.71
  Q 300.01 211.70 299.19 212.45
  L 297.69 184.26
  Q 297.66 183.77 298.08 184.02
  Q 298.40 184.21 298.36 184.76
  Q 298.34 185.19 298.36 185.40
  Q 299.50 195.59 299.20 208.24
  Q 299.15 210.32 300.40 211.71
  Z"
/>
<path fill="#e1cea6" d="
  M 96.25 186.56
  A 1.08 1.07 45.6 0 1 96.23 188.67
  Q 94.81 188.94 92.76 189.11
  Q 85.21 189.73 79.65 194.74
  A 0.39 0.39 0.0 0 1 79.05 194.27
  Q 84.48 184.11 96.25 186.56
  Z"
/>
<path fill="#e1e3e9" d="
  M 108.64 190.58
  C 110.30 191.26 112.50 191.52 114.57 192.15
  Q 142.32 200.50 178.38 208.88
  Q 178.82 208.98 179.00 209.39
  Q 180.16 212.06 182.43 213.61
  A 0.61 0.61 0.0 0 1 181.96 214.71
  Q 151.60 208.44 121.94 198.06
  Q 110.08 193.91 98.34 189.84
  A 0.95 0.95 0.0 0 1 98.04 188.22
  Q 98.94 187.46 100.10 187.76
  Q 104.48 188.87 108.64 190.58
  Z"
/>
<path fill="#e1e3e9" d="
  M 249.60 188.00
  Q 256.29 189.03 262.98 188.23
  Q 266.45 195.23 271.40 201.35
  L 270.29 201.80
  C 263.86 197.66 245.83 197.56 239.51 202.46
  Q 239.61 202.77 238.88 202.77
  Q 239.30 202.35 239.27 201.73
  Q 239.24 201.22 239.60 200.86
  Q 245.60 194.72 249.60 188.00
  Z"
/>
<path fill="#e1e3e9" d="
  M 73.32 382.01
  Q 73.18 382.90 72.05 382.75
  Q 71.58 382.69 71.59 382.22
  L 72.26 348.23
  C 73.10 342.27 72.79 336.15 73.45 330.38
  C 73.99 325.61 74.19 321.00 74.53 316.51
  C 77.76 274.04 83.99 231.17 94.91 189.96
  Q 95.04 189.48 95.52 189.57
  L 97.24 189.90
  Q 97.97 190.04 97.79 190.76
  C 86.45 236.70 77.47 285.82 74.59 335.56
  C 74.56 336.16 74.02 337.10 74.03 337.92
  C 74.25 352.71 72.45 365.39 73.32 382.01
  Z"
/>
<path fill="#e1cea6" d="
  M 85.60 197.51
  C 85.67 193.95 86.20 190.15 90.75 190.00
  A 0.52 0.52 0.0 0 1 91.13 190.90
  Q 88.09 193.75 86.74 197.71
  A 0.59 0.59 0.0 0 1 85.60 197.51
  Z"
/>
<path fill="#a9a7aa" d="
  M 214.85 193.15
  Q 215.61 194.47 215.55 195.00
  C 209.87 240.82 214.01 284.68 229.46 328.18
  Q 232.54 336.87 235.75 345.53
  A 0.12 0.11 76.5 0 1 235.66 345.69
  Q 235.46 345.70 235.45 345.59
  Q 235.44 345.54 235.44 345.53
  Q 230.31 335.03 226.19 322.27
  Q 205.98 259.54 214.32 194.58
  Q 214.36 194.33 214.13 194.23
  Q 214.03 194.18 213.88 194.09
  Q 214.88 193.73 214.85 193.15
  Z"
/>
<path fill="#e1cea6" d="
  M 330.46 196.70
  Q 330.82 195.77 331.70 195.76
  C 334.04 195.73 335.61 195.46 337.59 196.95
  Q 338.00 197.26 338.03 197.78
  C 338.21 201.90 333.93 204.01 330.56 204.79
  Q 330.19 204.88 329.86 204.68
  L 324.18 201.08
  A 1.02 1.02 0.0 0 1 323.83 199.73
  Q 324.37 198.76 325.70 199.53
  Q 328.25 201.02 330.79 202.34
  A 0.32 0.31 -88.4 0 0 331.22 201.93
  Q 329.74 198.55 330.46 196.70
  Z"
/>
<path fill="#ebd1b6" d="
  M 259.55 199.92
  Q 260.14 204.27 262.73 208.06
  L 265.18 211.60
  L 246.72 212.21
  Q 250.57 206.08 251.87 200.42
  Q 251.99 199.90 252.51 199.78
  Q 256.25 198.92 259.55 199.92
  Z"
/>
<path fill="#ebd1b6" d="
  M 238.88 202.77
  Q 239.61 202.77 239.51 202.46
  Q 244.98 200.22 250.57 199.94
  Q 251.32 199.90 251.09 200.62
  L 249.28 206.13
  Q 249.07 206.76 248.41 206.68
  C 245.79 206.37 239.67 205.38 238.88 202.77
  Z"
/>
<path fill="#a9a7aa" d="
  M 259.55 199.92
  Q 260.13 200.14 260.30 199.98
  L 263.10 206.74
  Q 262.66 207.04 262.73 208.06
  Q 260.14 204.27 259.55 199.92
  Z"
/>
<path fill="#ebd1b6" d="
  M 260.30 199.98
  Q 266.54 199.98 269.07 201.70
  Q 271.57 203.40 270.29 201.80
  L 271.40 201.35
  C 274.82 205.45 265.06 206.67 263.10 206.74
  L 260.30 199.98
  Z"
/>
<path fill="#e1e3e9" d="
  M 280.40 225.65
  Q 284.83 221.81 289.83 218.75
  Q 305.45 209.17 321.99 201.22
  Q 322.44 201.00 322.86 201.26
  L 327.96 204.28
  A 0.44 0.44 0.0 0 1 327.93 205.05
  Q 310.68 213.46 293.81 221.31
  Q 286.64 224.65 281.24 226.47
  Q 280.97 226.57 280.77 226.52
  Q 280.49 226.45 280.32 226.19
  Q 280.13 225.89 280.40 225.65
  Z"
/>
<path fill="#a9a7aa" d="
  M 317.57 322.87
  C 331.32 285.26 334.40 246.62 329.95 207.07
  A 0.11 0.11 0.0 0 1 330.16 207.00
  Q 330.73 208.08 331.00 210.50
  C 337.28 267.92 326.45 330.71 288.86 376.12
  Q 288.66 376.36 288.46 376.35
  Q 288.17 376.34 288.34 376.09
  C 299.83 359.78 310.70 341.64 317.57 322.87
  Z"
/>
<path fill="#e1cea6" d="
  M 187.23 215.81
  Q 182.33 213.89 179.83 209.20
  Q 179.56 208.70 180.08 208.47
  C 182.65 207.33 190.20 206.53 187.13 212.56
  A 1.15 1.14 17.6 0 0 187.99 214.21
  Q 190.74 214.62 193.05 213.06
  A 0.61 0.61 0.0 0 1 194.00 213.62
  C 193.75 216.76 189.31 216.62 187.23 215.81
  Z"
/>
<path fill="#e1e3e9" d="
  M 265.18 211.60
  Q 270.24 218.62 277.42 224.51
  Q 278.24 225.18 277.19 225.03
  C 274.12 224.61 270.84 223.85 268.14 223.68
  C 255.75 222.91 240.67 224.50 229.97 231.35
  Q 229.68 231.54 229.51 231.50
  Q 229.38 231.47 229.28 231.37
  Q 229.06 231.15 229.29 230.95
  Q 239.59 222.05 246.72 212.21
  L 265.18 211.60
  Z"
/>
<path fill="#a9a7aa" d="
  M 237.70 397.76
  Q 237.77 397.96 238.01 398.05
  L 236.98 399.36
  L 233.52 403.17
  Q 233.41 403.29 233.30 403.17
  L 233.08 402.95
  A 0.07 0.07 0.0 0 1 233.08 402.85
  L 236.08 399.67
  Q 236.51 399.22 236.11 398.75
  C 200.31 356.67 177.90 305.45 177.37 249.68
  Q 177.25 237.03 178.06 222.75
  Q 178.14 221.46 178.55 220.64
  Q 179.03 219.66 179.03 220.75
  C 179.01 225.92 178.36 232.63 178.22 236.14
  Q 176.54 279.38 191.06 319.86
  C 194.20 328.64 198.75 341.02 203.68 350.15
  Q 217.40 375.53 236.33 398.26
  Q 236.92 398.97 237.42 398.19
  L 237.70 397.76
  Z"
/>
<path fill="#a9a7aa" d="
  M 299.38 221.36
  C 299.98 259.22 293.00 298.01 278.50 333.00
  Q 278.19 333.75 277.56 333.95
  Q 277.13 334.08 277.30 333.66
  C 292.35 297.03 298.32 260.17 298.77 221.01
  Q 298.77 220.60 299.04 220.91
  Q 299.14 221.02 299.26 221.11
  Q 299.38 221.21 299.38 221.36
  Z"
/>
<path fill="#ebd1b6" d="
  M 291.19 223.49
  A 0.11 0.11 0.0 0 1 291.33 223.55
  L 291.37 223.63
  A 3.78 1.44 -22.4 0 1 288.42 226.40
  L 288.11 226.53
  A 3.78 1.44 -22.4 0 1 284.06 226.64
  L 284.03 226.56
  A 0.11 0.11 0.0 0 1 284.09 226.42
  L 291.19 223.49
  Z"
/>
<path fill="#a9a7aa" d="
  M 361.38 227.07
  Q 361.45 227.15 361.52 227.22
  L 361.35 230.02
  L 360.36 223.99
  L 361.38 227.07
  Z"
/>
<path fill="#ebd1b6" d="
  M 275.86 229.85
  Q 264.72 227.88 255.32 232.96
  C 254.41 233.45 253.70 233.27 252.90 232.75
  L 254.70 225.08
  Q 254.82 224.55 255.36 224.51
  Q 261.26 224.02 270.48 224.62
  Q 274.50 224.88 275.86 229.85
  Z"
/>
<path fill="#ebd1b6" d="
  M 238.41 228.80
  Q 238.21 228.69 237.99 228.85
  Q 237.90 228.91 237.86 229.02
  Q 236.72 232.28 235.33 235.41
  Q 235.10 235.93 234.55 235.81
  L 229.69 234.67
  A 0.90 0.90 0.0 0 1 229.31 233.10
  C 233.33 229.69 237.98 228.17 243.42 226.57
  Q 248.38 225.11 253.59 224.80
  Q 254.13 224.77 253.96 225.28
  Q 251.21 233.50 250.90 242.14
  Q 250.88 242.66 250.36 242.59
  L 235.57 240.70
  A 0.87 0.86 -76.4 0 1 234.87 239.55
  L 238.57 229.22
  A 0.35 0.34 -66.1 0 0 238.41 228.80
  Z"
/>
<path fill="#ebd1b6" d="
  M 279.82 228.14
  L 278.05 230.13
  A 0.56 0.56 0.0 0 1 277.15 230.03
  L 274.89 226.09
  Q 274.57 225.53 275.22 225.56
  Q 277.79 225.71 279.74 227.23
  A 0.63 0.63 0.0 0 1 279.82 228.14
  Z"
/>
<path fill="#e1cea6" d="
  M 283.33 227.22
  C 286.25 230.31 289.96 230.12 293.66 228.74
  A 0.52 0.52 0.0 0 1 294.13 229.66
  Q 288.94 233.16 283.55 231.12
  Q 280.91 230.13 280.87 228.23
  A 1.43 1.42 -67.3 0 1 283.33 227.22
  Z"
/>
<path fill="#030304" fill-opacity="0.992" d="
  M 361.52 227.22
  C 363.09 229.92 362.07 231.51 362.64 233.96
  Q 363.34 236.95 363.37 237.26
  C 368.89 291.87 355.28 342.65 320.06 384.45
  C 310.00 396.39 297.92 407.54 285.63 417.53
  A 0.98 0.97 -43.2 0 0 285.58 419.00
  Q 317.68 448.78 355.97 469.81
  Q 368.47 476.68 382.00 480.32
  A 0.43 0.42 52.8 0 1 381.89 481.16
  L 367.00 480.88
  L 373.26 480.40
  L 375.67 480.11
  A 0.31 0.30 51.1 0 0 375.73 479.52
  Q 364.69 475.70 356.33 471.16
  Q 319.19 451.00 286.95 421.63
  C 285.84 420.62 284.88 419.35 283.88 418.19
  Q 283.57 417.84 283.95 417.55
  C 309.01 398.58 332.42 372.05 345.74 342.99
  Q 356.52 319.46 361.22 294.00
  C 361.55 292.21 361.43 290.16 361.73 288.35
  C 364.95 269.23 364.31 249.43 361.35 230.02
  L 361.52 227.22
  Z"
/>
<path fill="#e1e3e9" d="
  M 275.86 229.85
  L 278.96 237.55
  Q 279.80 239.64 277.88 238.47
  L 276.97 237.92
  A 1.22 1.22 0.0 0 0 276.19 237.75
  Q 274.80 237.91 273.68 237.04
  A 1.73 1.69 -24.6 0 0 272.70 236.69
  C 264.44 236.44 258.85 236.21 252.16 239.36
  Q 251.59 239.62 251.71 239.01
  L 252.90 232.75
  C 253.70 233.27 254.41 233.45 255.32 232.96
  Q 264.72 227.88 275.86 229.85
  Z"
/>
<path fill="#ebd1b6" d="
  M 273.75 243.14
  Q 264.41 241.45 255.35 241.54
  L 255.65 239.21
  A 0.91 0.91 0.0 0 1 256.35 238.44
  Q 265.05 236.45 273.80 238.22
  Q 274.33 238.33 274.26 238.86
  L 273.75 243.14
  Z"
/>
<path fill="#ebd1b6" d="
  M 275.21 242.26
  L 274.71 242.24
  L 275.08 238.89
  A 0.55 0.54 -74.6 0 1 275.84 238.45
  L 277.73 239.27
  A 0.74 0.74 0.0 0 1 277.51 240.69
  Q 276.01 240.84 275.21 242.26
  Z"
/>
<path fill="#e1cea6" d="
  M 253.76 242.60
  L 252.50 242.22
  A 1.09 1.09 0.0 0 1 252.03 240.42
  Q 253.01 239.41 254.54 239.37
  Q 255.21 239.35 255.03 240.00
  L 254.39 242.25
  A 0.51 0.51 0.0 0 1 253.76 242.60
  Z"
/>
<path fill="#e1e3e9" d="
  M 273.75 243.14
  L 264.86 320.95
  Q 265.00 321.24 263.76 321.31
  C 262.77 319.15 260.98 311.73 257.08 314.91
  A 0.66 0.66 0.0 0 1 256.01 314.49
  Q 250.85 278.35 255.35 241.54
  Q 264.41 241.45 273.75 243.14
  Z"
/>
<path fill="#ebd1b6" d="
  M 253.67 302.66
  Q 254.11 304.03 254.01 305.49
  A 0.30 0.30 0.0 0 1 253.42 305.55
  C 247.38 286.03 241.81 263.90 240.45 243.50
  A 1.13 1.13 0.0 0 1 241.68 242.30
  L 253.79 243.45
  Q 254.29 243.49 254.24 243.99
  C 252.44 261.37 251.96 279.01 253.38 296.41
  Q 253.60 299.02 253.52 301.63
  Q 253.51 302.16 253.67 302.66
  Z"
/>
<path fill="#e1cea6" d="
  M 263.76 321.31
  Q 265.00 321.24 264.86 320.95
  L 266.14 321.45
  Q 266.74 321.69 266.78 322.33
  L 267.48 333.09
  Q 267.53 333.92 266.78 333.56
  C 265.37 332.89 265.58 331.58 264.88 330.45
  A 0.55 0.55 0.0 0 0 264.09 330.29
  Q 263.60 330.65 263.76 331.33
  Q 263.90 331.94 263.55 332.46
  L 260.57 336.97
  Q 259.18 339.08 257.35 337.33
  Q 252.20 332.38 253.28 324.24
  C 257.11 327.83 259.53 323.16 258.06 319.77
  Q 257.85 319.30 257.34 319.28
  L 254.86 319.21
  Q 256.00 316.66 257.77 315.47
  Q 259.54 314.29 260.44 316.12
  C 261.63 318.54 262.74 320.56 263.09 323.25
  A 0.35 0.34 -23.4 0 0 263.65 323.47
  Q 265.07 322.30 263.76 321.31
  Z"
/>
<path fill="#ebd1b6" d="
  M 254.86 319.21
  L 257.34 319.28
  Q 257.85 319.30 258.06 319.77
  C 259.53 323.16 257.11 327.83 253.28 324.24
  L 254.86 319.21
  Z"
/>
<path fill="#e1e3e9" d="
  M 253.47 442.23
  C 259.40 408.66 259.97 374.60 257.69 340.64
  Q 257.65 340.00 258.22 339.70
  Q 262.44 337.47 264.06 332.84
  A 0.66 0.66 0.0 0 1 265.31 332.84
  Q 268.34 341.87 268.81 351.32
  C 269.76 370.51 268.08 389.23 265.30 408.19
  C 263.45 420.79 260.25 433.66 257.23 446.25
  Q 256.58 448.97 255.66 451.62
  A 0.31 0.30 -40.9 0 1 255.07 451.58
  C 254.48 448.45 252.92 445.35 253.47 442.23
  Z"
/>
<path fill="#ebd1b6" d="
  M 267.61 396.66
  C 269.78 378.20 271.13 359.85 268.49 341.54
  C 268.25 339.88 267.22 337.55 267.55 335.39
  A 0.47 0.47 0.0 0 1 268.44 335.28
  Q 275.03 350.61 276.23 366.70
  C 278.39 395.69 272.61 426.64 264.35 454.29
  A 0.45 0.45 0.0 0 1 263.47 454.15
  C 263.60 449.44 261.71 444.52 262.56 440.11
  Q 263.85 433.44 265.36 423.07
  Q 265.79 420.13 265.13 417.84
  Q 264.99 417.36 265.12 416.88
  C 266.92 410.14 267.07 401.28 267.61 396.66
  Z"
/>
<path fill="#a9a7aa" d="
  M 72.26 348.23
  L 71.59 382.22
  Q 71.58 382.69 72.05 382.75
  Q 73.18 382.90 73.32 382.01
  Q 73.44 382.01 73.56 382.01
  L 73.58 413.99
  L 73.49 418.32
  Q 73.48 418.81 73.12 419.14
  Q 72.53 419.68 71.70 419.79
  C 71.64 416.21 71.14 412.35 71.07 409.14
  C 70.66 390.67 69.63 370.92 71.44 352.56
  L 72.26 348.23
  Z"
/>
<path fill="#030304" fill-opacity="0.992" d="
  M 284.51 381.00
  Q 285.63 379.13 287.23 377.57
  A 0.13 0.13 0.0 0 1 287.42 377.74
  L 284.51 381.00
  Z"
/>
<path fill="#030304" fill-opacity="0.992" d="
  M 284.51 381.00
  L 281.76 384.26
  Q 282.71 382.33 284.51 381.00
  Z"
/>
<path fill="#030304" fill-opacity="0.992" d="
  M 281.76 384.26
  Q 280.38 386.39 278.53 388.23
  A 0.10 0.10 0.0 0 1 278.38 388.09
  L 281.76 384.26
  Z"
/>
<path fill="#030304" fill-opacity="0.992" d="
  M 238.01 398.05
  Q 237.77 397.96 237.70 397.76
  Q 238.49 396.62 239.48 395.99
  Q 240.24 395.51 239.74 396.26
  Q 239.08 397.27 238.01 398.05
  Z"
/>
<path fill="#a9a7aa" d="
  M 236.98 399.36
  Q 238.92 400.75 240.01 402.56
  A 0.20 0.19 10.3 0 1 239.69 402.78
  L 236.98 399.36
  Z"
/>
<path fill="#a9a7aa" d="
  M 246.10 409.08
  Q 247.38 409.86 247.83 411.24
  A 0.15 0.15 0.0 0 1 247.58 411.38
  L 244.90 408.34
  A 0.30 0.30 0.0 0 1 245.33 407.92
  Q 245.72 408.27 245.85 408.75
  A 0.59 0.57 9.1 0 0 246.10 409.08
  Z"
/>
<path fill="#a9a7aa" d="
  M 423.81 407.74
  Q 424.12 408.51 424.02 409.78
  L 423.96 411.82
  L 423.40 408.98
  L 423.81 407.74
  Z"
/>
<path fill="#030304" fill-opacity="0.992" d="
  M 276.96 410.30
  L 279.54 413.23
  Q 280.83 414.70 279.33 413.45
  Q 277.71 412.11 276.60 410.59
  A 0.23 0.23 0.0 0 1 276.96 410.30
  Z"
/>
<path fill="#030304" fill-opacity="0.992" d="
  M 73.58 413.99
  L 74.03 433.25
  A 1.13 1.12 18.7 0 0 74.46 434.11
  C 78.33 437.20 79.72 443.55 80.06 447.94
  C 80.45 452.81 81.70 476.84 73.61 472.85
  Q 72.09 472.11 71.50 470.69
  C 67.78 461.83 64.46 441.93 72.44 434.51
  A 1.00 0.97 -24.5 0 0 72.75 433.71
  L 71.70 419.79
  Q 72.53 419.68 73.12 419.14
  Q 73.48 418.81 73.49 418.32
  L 73.58 413.99
  Z"
/>
<path stroke="#e6d0ae" stroke-width="2.00" fill="none" stroke-linecap="butt" vector-effect="non-scaling-stroke" d="
  M 68.94 448.30
  Q 70.75 448.85 71.11 449.96
  A 1.19 1.19 0.0 0 0 73.24 450.24
  Q 75.91 446.11 73.16 442.15
  A 0.98 0.96 67.9 0 0 72.22 441.74
  Q 69.61 442.15 69.29 445.81"
/>
<path fill="#a9a7aa" d="
  M 185.94 457.44
  Q 185.76 457.59 185.53 457.50
  Q 185.11 457.35 185.52 457.17
  Q 197.45 451.96 208.66 445.39
  Q 214.64 441.88 223.40 435.49
  C 232.77 428.66 242.11 422.06 250.85 414.61
  Q 250.98 414.50 251.06 414.65
  L 251.20 414.92
  Q 251.27 415.04 251.16 415.14
  Q 222.10 441.41 186.22 457.24
  Q 186.14 457.28 185.94 457.44
  Z"
/>
<path fill="#e1e3e9" d="
  M 260.67 444.81
  Q 260.33 445.48 259.75 445.58
  Q 258.19 445.08 258.45 443.99
  Q 261.39 431.88 263.96 419.35
  A 0.54 0.53 -39.4 0 1 265.02 419.45
  C 265.04 427.42 262.47 436.94 260.67 444.81
  Z"
/>
<path fill="#e1cea6" d="
  M 420.49 435.49
  C 425.45 441.33 421.23 468.39 413.33 471.30
  Q 412.87 471.47 412.42 471.28
  C 407.87 469.34 412.05 449.23 412.53 446.53
  Q 413.54 440.83 417.65 435.55
  A 1.83 1.83 0.0 0 1 420.49 435.49
  Z"
/>
<path fill="#e1cea6" d="
  M 68.94 448.30
  Q 70.75 448.85 71.11 449.96
  A 1.19 1.19 0.0 0 0 73.24 450.24
  Q 75.91 446.11 73.16 442.15
  A 0.98 0.96 67.9 0 0 72.22 441.74
  Q 69.61 442.15 69.29 445.81
  Q 68.98 439.75 72.94 435.67
  A 1.45 1.44 -36.6 0 1 75.27 436.01
  Q 79.40 443.99 78.97 452.96
  Q 78.95 453.32 79.12 453.51
  Q 79.24 453.64 79.40 453.72
  Q 79.67 453.85 79.66 454.15
  C 79.62 458.09 79.18 468.77 76.24 471.59
  A 2.00 1.99 -34.3 0 1 73.05 470.99
  Q 68.02 460.20 68.94 448.30
  Z"
/>
<path fill="#ebd1b6" d="
  M 415.6095 447.1114
  A 3.86 1.95 99.1 0 1 414.2945 442.9916
  A 3.86 1.95 99.1 0 1 416.8305 439.4886
  A 3.86 1.95 99.1 0 1 418.1455 443.6084
  A 3.86 1.95 99.1 0 1 415.6095 447.1114
  Z"
/>
<path fill="#ebd1b6" d="
  M 68.94 448.30
  L 69.29 445.81
  Q 69.61 442.15 72.22 441.74
  A 0.98 0.96 67.9 0 1 73.16 442.15
  Q 75.91 446.11 73.24 450.24
  A 1.19 1.19 0.0 0 1 71.11 449.96
  Q 70.75 448.85 68.94 448.30
  Z"
/>
<path fill="#a9a7aa" d="
  M 286.41 443.61
  Q 286.31 443.54 286.18 443.48
  Q 286.03 443.41 286.15 443.30
  Q 286.36 443.11 286.68 443.33
  Q 296.20 449.88 306.39 455.29
  C 312.35 458.46 320.53 461.55 327.44 465.14
  Q 327.73 465.29 327.88 465.52
  Q 328.07 465.80 328.15 466.06
  A 0.47 0.47 0.0 0 1 327.54 466.64
  C 319.76 463.95 311.50 458.65 306.15 455.74
  Q 295.95 450.20 286.41 443.61
  Z"
/>
<path fill="#e1cea6" d="
  M 260.67 444.81
  L 261.70 445.01
  Q 262.23 445.12 262.26 445.67
  C 262.44 449.80 263.88 455.62 262.49 459.47
  Q 260.46 465.08 257.54 470.33
  A 0.51 0.51 0.0 0 1 256.59 470.10
  Q 256.20 459.41 260.45 449.25
  Q 261.37 447.05 259.75 445.58
  Q 260.33 445.48 260.67 444.81
  Z"
/>
<path fill="#e1cea6" d="
  M 239.42 486.75
  L 240.07 485.25
  C 246.33 474.49 249.86 459.91 252.17 448.16
  Q 252.27 447.66 252.08 447.18
  Q 251.92 446.80 252.03 446.42
  A 0.36 0.35 41.4 0 1 252.70 446.38
  Q 255.09 452.23 254.63 454.79
  Q 251.47 472.26 241.23 486.21
  Q 240.27 487.52 239.42 486.75
  Z"
/>
<path fill="#e1cea6" d="
  M 269.60 479.71
  Q 269.49 479.57 269.35 479.52
  Q 269.26 479.49 269.24 479.40
  L 263.91 457.84
  Q 263.79 457.36 263.95 456.90
  L 267.00 448.08
  A 0.33 0.32 44.0 0 1 267.61 448.07
  Q 268.41 450.19 268.58 452.69
  Q 269.54 467.64 270.69 482.58
  A 0.25 0.25 0.0 0 1 270.22 482.73
  Q 269.48 481.51 269.72 480.16
  Q 269.76 479.91 269.60 479.71
  Z"
/>
<path fill="#e1cea6" d="
  M 256.57 456.49
  C 255.95 465.99 255.58 475.52 255.04 485.03
  Q 255.01 485.55 254.50 485.51
  Q 254.35 485.50 254.22 485.50
  Q 254.04 485.50 254.03 485.32
  Q 253.95 476.60 253.56 467.90
  C 253.36 463.29 254.42 459.57 255.29 455.17
  A 0.62 0.62 0.0 0 1 256.49 455.13
  Q 256.62 455.63 256.57 456.49
  Z"
/>
<path fill="#a9a7aa" d="
  M 157.57 468.81
  A 0.17 0.17 0.0 0 1 157.45 469.02
  L 157.33 469.05
  A 21.81 0.44 -14.2 0 1 136.08 473.97
  L 136.08 473.97
  A 21.81 0.44 -14.2 0 1 157.11 468.19
  L 157.23 468.16
  A 0.17 0.17 0.0 0 1 157.44 468.29
  L 157.57 468.81
  Z"
/>
<path fill="#e1cea6" d="
  M 251.95 469.69
  Q 253.64 471.99 252.83 475.78
  Q 252.73 476.24 252.35 476.51
  L 247.55 479.83
  Q 245.64 481.16 246.69 479.08
  Q 248.70 475.14 251.46 471.67
  Q 251.79 471.25 251.75 470.71
  L 251.71 470.24
  Q 251.83 469.97 251.95 469.69
  Z"
/>
</svg>
