<?xml version="1.0" encoding="UTF-8" standalone="no"?>
<svg xmlns="http://www.w3.org/2000/svg" version="1.2" baseProfile="tiny" viewBox="0.00 0.00 500.00 500.00">
<path fill="#000000" d="
  M 149.98 368.03
  L 150.59 366.80
  A 0.73 0.73 0.0 0 0 150.36 365.88
  Q 133.63 353.66 124.83 337.42
  Q 122.44 333.00 120.29 330.50
  C 117.06 326.75 113.62 322.73 111.68 318.12
  C 105.49 303.41 103.51 290.80 103.22 274.74
  C 102.68 245.29 111.31 214.92 132.55 193.84
  C 136.19 190.24 138.18 184.73 140.69 180.31
  A 0.72 0.72 0.0 0 0 139.99 179.23
  C 133.76 179.87 103.55 176.79 99.94 171.96
  Q 99.65 171.56 99.73 171.07
  C 101.00 163.68 126.61 159.76 133.14 159.08
  A 0.42 0.42 0.0 0 0 133.45 158.43
  Q 126.54 147.60 123.66 134.96
  Q 122.09 128.09 122.78 125.73
  C 124.47 119.90 130.40 124.95 132.80 127.45
  Q 143.56 138.67 152.98 151.03
  Q 155.18 153.92 156.67 157.12
  A 0.63 0.63 0.0 0 0 157.71 157.28
  C 175.38 137.96 194.81 125.72 221.15 122.26
  A 0.57 0.56 -19.6 0 0 221.56 121.40
  Q 212.43 106.89 206.60 90.76
  C 203.16 81.24 176.70 2.60 190.26 0.27
  A 1.16 1.12 -29.1 0 1 191.19 0.52
  C 200.10 8.19 207.41 17.47 213.61 27.40
  C 224.58 44.98 232.67 64.15 238.43 84.02
  A 0.79 0.78 60.4 0 0 239.72 84.38
  Q 265.49 60.19 293.62 39.85
  Q 312.85 25.94 331.03 18.01
  Q 332.92 17.19 334.13 18.37
  C 335.70 19.89 334.63 22.11 333.80 23.81
  C 313.92 64.17 286.53 98.27 249.32 123.17
  A 0.51 0.51 0.0 0 0 249.47 124.09
  Q 251.79 124.72 253.99 125.81
  C 268.56 133.03 284.48 144.48 292.80 158.72
  C 298.57 168.60 302.14 178.43 306.22 188.52
  Q 306.42 189.04 306.94 188.84
  Q 324.47 182.12 342.46 177.42
  Q 355.01 174.14 363.24 173.73
  Q 367.55 173.52 367.26 177.80
  A 1.57 1.54 67.0 0 1 366.94 178.62
  C 358.78 188.89 345.64 196.33 333.86 202.39
  Q 333.35 202.65 333.80 203.01
  C 338.69 206.96 359.60 226.57 356.60 233.52
  C 355.47 236.13 352.87 236.41 350.26 235.61
  Q 331.10 229.73 313.15 220.76
  Q 312.51 220.44 312.50 221.16
  C 312.47 225.62 313.21 231.08 313.27 234.36
  Q 313.53 248.23 311.63 261.98
  C 309.58 276.87 307.53 289.97 301.27 303.83
  C 300.42 305.69 300.30 307.99 299.52 309.48
  C 292.48 322.98 283.81 334.56 274.33 346.37
  Q 263.90 359.38 249.65 367.99
  Q 249.22 368.24 249.42 368.70
  C 255.71 382.70 244.43 398.58 233.30 406.15
  Q 232.84 406.46 232.29 406.50
  Q 231.83 406.54 231.42 406.76
  A 0.53 0.53 0.0 0 0 231.31 407.61
  C 241.66 417.60 259.18 417.36 271.66 412.36
  C 277.46 410.03 282.48 404.90 288.51 402.76
  Q 294.68 400.57 306.96 398.22
  C 309.86 397.66 312.52 398.07 315.52 398.05
  C 322.93 398.01 330.61 400.82 336.73 404.88
  A 0.49 0.49 0.0 0 0 337.48 404.36
  Q 336.90 401.70 337.09 398.83
  Q 337.86 387.06 337.64 375.26
  C 337.53 369.46 338.00 350.53 344.15 347.72
  A 1.47 1.47 0.0 0 1 346.09 348.41
  Q 354.26 365.28 357.66 383.74
  Q 357.77 384.29 358.28 384.05
  C 362.19 382.23 366.16 380.95 370.06 379.01
  C 378.81 374.67 388.91 370.91 398.86 371.23
  A 1.23 1.20 68.6 0 1 399.68 371.60
  Q 401.81 373.86 399.48 376.51
  Q 388.55 388.93 374.13 400.33
  C 365.26 407.33 358.87 411.82 349.33 416.03
  A 0.31 0.31 0.0 0 0 349.26 416.54
  C 352.58 419.36 352.29 422.72 353.52 425.92
  Q 358.04 437.68 357.15 448.07
  C 356.41 456.83 350.49 464.47 343.66 472.17
  C 334.58 482.41 323.27 488.12 310.29 491.65
  C 303.49 493.51 295.31 494.12 287.82 495.13
  Q 282.28 495.88 273.59 494.12
  A 0.88 0.87 -63.6 0 0 272.74 494.41
  C 266.94 501.15 256.43 502.19 251.69 493.62
  Q 251.50 493.27 251.12 493.13
  Q 241.77 489.50 233.26 484.16
  A 0.68 0.67 34.6 0 0 232.37 484.32
  C 221.84 497.97 208.81 493.33 203.71 478.49
  C 201.72 472.71 202.43 465.75 202.52 459.50
  Q 202.53 458.99 202.23 458.57
  L 197.07 451.55
  A 0.70 0.70 0.0 0 0 195.85 451.71
  Q 195.40 452.88 193.86 453.27
  C 186.55 455.09 181.30 452.04 178.07 445.32
  Q 171.35 431.36 180.30 417.57
  Q 180.56 417.17 180.46 416.70
  L 179.24 411.26
  Q 179.12 410.74 178.63 410.54
  Q 169.24 406.76 162.94 398.84
  Q 162.64 398.46 162.20 398.66
  Q 141.75 407.98 119.21 407.19
  A 1.83 1.83 0.0 0 1 117.89 404.16
  C 124.03 397.08 134.68 391.26 142.93 387.31
  A 1.19 1.18 55.8 0 0 143.28 385.44
  C 137.04 378.69 130.86 369.65 128.30 360.61
  Q 127.42 357.49 130.07 356.92
  A 1.98 1.96 -37.0 0 1 131.40 357.10
  Q 140.77 361.90 149.20 368.22
  Q 149.70 368.60 149.98 368.03
  Z"
/>
<g stroke-width="2.00" fill="none" stroke-linecap="butt">
<path stroke="#8782b0" vector-effect="non-scaling-stroke" d="
  M 221.03 46.48
  Q 217.72 48.84 213.72 48.61
  C 210.70 48.44 208.79 46.42 206.83 44.31
  Q 206.48 43.93 205.98 43.82
  C 199.79 42.41 197.19 36.66 192.55 33.50"
/>
<path stroke="#696593" vector-effect="non-scaling-stroke" d="
  M 300.80 183.79
  Q 300.85 185.65 298.46 185.30
  Q 292.66 184.44 291.03 189.32
  Q 290.88 189.78 290.40 189.66
  Q 288.84 189.24 289.24 187.48
  Q 289.59 185.93 289.13 184.95
  Q 288.91 184.48 288.40 184.33
  Q 286.13 183.70 283.93 182.90
  C 281.14 181.87 279.53 184.26 277.32 185.04
  Q 271.55 187.07 266.29 190.11
  C 263.14 191.93 260.24 192.71 257.48 190.27"
/>
<path stroke="#3a384f" vector-effect="non-scaling-stroke" d="
  M 257.48 190.27
  C 251.39 179.13 244.49 171.79 234.10 164.79
  C 229.96 162.00 226.82 160.95 222.06 161.30
  A 0.60 0.60 0.0 0 0 222.04 162.49
  C 231.36 163.48 242.92 174.71 248.69 181.67"
/>
<path stroke="#696593" vector-effect="non-scaling-stroke" d="
  M 248.69 181.67
  C 247.04 183.15 245.34 183.31 243.22 182.34
  Q 238.31 180.11 232.90 179.72
  Q 232.42 179.69 232.05 179.37
  C 230.64 178.15 229.64 177.46 228.61 175.76
  C 225.66 170.91 220.50 170.23 216.45 167.64
  Q 216.03 167.38 215.54 167.34
  Q 212.52 167.11 209.95 165.56
  C 208.69 164.79 208.32 163.19 206.22 163.21
  A 0.67 0.65 -7.7 0 1 205.56 162.72
  C 205.04 160.85 203.31 160.08 202.94 158.30
  Q 202.82 157.71 203.21 157.25
  L 205.31 154.71
  Q 205.63 154.33 205.44 153.86
  Q 204.31 151.05 206.48 148.67
  A 1.18 1.17 -31.1 0 0 206.76 147.56
  L 205.13 141.54
  Q 204.99 141.00 204.47 140.81
  C 200.99 139.49 198.18 138.33 194.37 137.64
  Q 191.62 137.14 189.92 134.38"
/>
<path stroke="#8782b0" vector-effect="non-scaling-stroke" d="
  M 291.56 82.83
  Q 287.84 82.09 285.94 79.03
  A 1.20 1.18 81.1 0 0 285.24 78.51
  C 282.99 77.95 282.74 77.15 282.06 74.85
  C 281.19 71.87 279.61 69.97 277.67 67.49
  C 275.42 64.63 274.93 61.51 274.74 57.92"
/>
<path stroke="#2f2d44" vector-effect="non-scaling-stroke" d="
  M 248.69 181.67
  Q 260.43 196.80 261.73 216.01
  Q 261.74 216.07 262.03 217.97
  C 263.22 225.70 262.73 233.79 262.22 239.05
  Q 262.21 239.19 262.31 239.19
  Q 262.44 239.19 262.57 239.18
  Q 262.66 239.18 262.67 239.10
  C 265.86 223.26 265.03 205.02 257.48 190.27"
/>
<path stroke="#565378" vector-effect="non-scaling-stroke" d="
  M 303.31 213.13
  L 295.28 209.58
  Q 294.73 209.34 295.14 209.77
  C 296.85 211.55 300.54 215.23 302.98 215.55"
/>
<path stroke="#a7a6b3" vector-effect="non-scaling-stroke" d="
  M 162.81 228.09
  C 141.39 238.32 124.81 258.88 114.54 280.29"
/>
<path stroke="#e3dedc" vector-effect="non-scaling-stroke" d="
  M 114.54 280.29
  Q 110.95 275.54 108.25 270.52
  Q 107.67 269.44 106.54 269.47
  Q 106.05 269.48 106.01 269.00
  L 105.92 267.74"
/>
<path stroke="#8b8590" vector-effect="non-scaling-stroke" d="
  M 162.96 229.50
  C 141.69 239.58 124.80 261.38 115.47 282.53"
/>
<path stroke="#7d757e" vector-effect="non-scaling-stroke" d="
  M 115.47 282.53
  Q 111.17 293.47 110.94 305.50
  Q 110.92 306.62 110.42 307.69"
/>
<path stroke="#8b8590" vector-effect="non-scaling-stroke" d="
  M 109.26 305.05
  Q 110.07 302.50 110.50 296.00
  Q 110.86 290.67 114.54 280.29"
/>
<path stroke="#b9ada7" vector-effect="non-scaling-stroke" d="
  M 155.91 294.83
  Q 153.31 294.08 151.28 295.10
  Q 150.83 295.32 150.33 295.30
  C 146.46 295.11 142.70 295.23 138.91 294.26
  C 133.90 292.99 128.42 292.15 124.17 289.53
  Q 119.42 286.61 115.47 282.53"
/>
<path stroke="#a7a6b3" vector-effect="non-scaling-stroke" d="
  M 251.28 246.29
  C 247.43 245.95 239.25 251.37 236.00 253.53
  C 215.60 267.04 197.44 284.43 185.24 305.85"
/>
<path stroke="#e3dedc" vector-effect="non-scaling-stroke" d="
  M 185.24 305.85
  Q 178.66 301.59 173.21 295.97"
/>
<path stroke="#8b8590" vector-effect="non-scaling-stroke" d="
  M 251.40 247.50
  C 247.48 247.17 235.12 255.61 231.65 258.13
  C 213.36 271.46 196.60 288.14 185.88 308.50"
/>
<path stroke="#7d757e" vector-effect="non-scaling-stroke" d="
  M 185.88 308.50
  Q 180.26 317.62 177.65 330.22"
/>
<path stroke="#8b8590" vector-effect="non-scaling-stroke" d="
  M 176.69 326.27
  Q 180.42 315.11 185.24 305.85"
/>
<path stroke="#b9ada7" vector-effect="non-scaling-stroke" d="
  M 240.83 312.80
  Q 236.02 311.59 231.51 314.18
  C 224.96 317.94 218.60 316.66 211.97 316.36
  Q 206.29 316.10 202.31 315.04
  Q 193.66 312.73 185.88 308.50"
/>
<path stroke="#dbc88e" vector-effect="non-scaling-stroke" d="
  M 174.01 326.13
  Q 161.09 321.93 152.39 311.95"
/>
<path stroke="#dbc88e" vector-effect="non-scaling-stroke" d="
  M 277.41 338.43
  C 260.99 344.70 241.74 345.86 224.18 343.93"
/>
<path stroke="#696593" vector-effect="non-scaling-stroke" d="
  M 374.81 396.20
  Q 357.45 392.09 340.19 386.57"
/>
<path stroke="#565378" vector-effect="non-scaling-stroke" d="
  M 371.65 398.81
  Q 355.42 394.91 340.08 389.57"
/>
<path stroke="#c49849" vector-effect="non-scaling-stroke" d="
  M 153.64 375.05
  Q 151.66 387.20 153.69 399.17"
/>
<path stroke="#c49849" vector-effect="non-scaling-stroke" d="
  M 184.79 404.53
  Q 187.90 394.09 192.94 383.98"
/>
<path stroke="#696593" vector-effect="non-scaling-stroke" d="
  M 345.29 415.75
  Q 344.14 416.75 342.41 415.36
  A 1.23 1.22 -59.6 0 0 340.51 415.86
  L 339.16 419.27
  A 0.59 0.59 0.0 0 1 338.27 419.53
  C 333.77 416.29 329.48 422.02 327.86 425.50
  A 2.05 2.04 18.2 0 1 325.60 426.64
  L 321.06 425.73
  Q 320.50 425.62 320.50 425.05
  L 320.50 424.29
  Q 320.50 423.88 320.26 423.54
  Q 317.72 419.86 313.33 420.65
  Q 312.80 420.75 312.40 420.38
  Q 310.28 418.45 307.44 418.89
  Q 306.94 418.97 306.56 418.64
  C 303.71 416.20 302.30 418.08 299.53 417.30
  C 295.15 416.06 295.52 409.72 289.90 408.47
  Q 289.41 408.36 289.15 407.93
  Q 288.43 406.70 289.04 405.62"
/>
<path stroke="#565378" vector-effect="non-scaling-stroke" d="
  M 353.96 437.10
  Q 352.60 441.24 347.95 445.73
  Q 341.37 452.09 333.38 455.48
  Q 320.00 461.16 305.49 465.10"
/>
<path stroke="#e3dedc" vector-effect="non-scaling-stroke" d="
  M 236.68 415.37
  Q 236.43 415.19 236.08 415.23
  Q 235.83 415.26 235.57 415.50
  Q 233.33 417.59 230.76 419.61"
/>
<path stroke="#e3dedc" vector-effect="non-scaling-stroke" d="
  M 214.00 425.92
  Q 201.98 429.17 190.66 428.73
  A 0.64 0.64 0.0 0 0 190.18 429.82
  C 195.80 435.64 200.62 441.32 207.11 446.34"
/>
<path stroke="#c49849" vector-effect="non-scaling-stroke" d="
  M 302.84 466.03
  C 295.46 466.85 291.53 467.81 282.63 465.71"
/>
<path stroke="#c49849" vector-effect="non-scaling-stroke" d="
  M 249.04 461.89
  Q 240.01 460.39 231.04 457.17"
/>
</g>
<path fill="#9994c2" d="
  M 221.03 46.48
  Q 217.72 48.84 213.72 48.61
  C 210.70 48.44 208.79 46.42 206.83 44.31
  Q 206.48 43.93 205.98 43.82
  C 199.79 42.41 197.19 36.66 192.55 33.50
  C 191.61 28.15 190.00 22.46 189.58 17.70
  Q 188.98 10.89 189.79 3.78
  A 0.58 0.58 0.0 0 1 190.74 3.40
  C 203.33 13.91 213.82 31.59 221.03 46.48
  Z"
/>
<path fill="#9994c2" d="
  M 291.56 82.83
  Q 287.84 82.09 285.94 79.03
  A 1.20 1.18 81.1 0 0 285.24 78.51
  C 282.99 77.95 282.74 77.15 282.06 74.85
  C 281.19 71.87 279.61 69.97 277.67 67.49
  C 275.42 64.63 274.93 61.51 274.74 57.92
  C 293.98 42.16 311.59 30.02 332.29 20.40
  A 0.35 0.35 0.0 0 1 332.75 20.88
  C 321.83 42.89 307.74 64.36 291.56 82.83
  Z"
/>
<path fill="#74709d" d="
  M 192.55 33.50
  C 197.19 36.66 199.79 42.41 205.98 43.82
  Q 206.48 43.93 206.83 44.31
  C 208.79 46.42 210.70 48.44 213.72 48.61
  Q 217.72 48.84 221.03 46.48
  Q 230.36 65.49 236.84 86.86
  A 1.55 1.55 0.0 0 0 239.11 87.75
  C 240.92 86.69 242.82 85.37 244.43 83.84
  Q 258.83 70.13 274.74 57.92
  C 274.93 61.51 275.42 64.63 277.67 67.49
  C 279.61 69.97 281.19 71.87 282.06 74.85
  C 282.74 77.15 282.99 77.95 285.24 78.51
  A 1.20 1.18 81.1 0 1 285.94 79.03
  Q 287.84 82.09 291.56 82.83
  Q 268.26 108.71 238.68 127.14
  Q 237.73 127.73 238.84 127.60
  Q 241.60 127.29 244.22 126.00
  A 1.53 1.49 -53.3 0 1 245.03 125.87
  Q 250.68 126.53 255.59 129.39
  C 266.13 135.54 277.28 143.13 284.55 152.44
  C 291.66 161.55 297.58 173.38 300.80 183.79
  Q 300.85 185.65 298.46 185.30
  Q 292.66 184.44 291.03 189.32
  Q 290.88 189.78 290.40 189.66
  Q 288.84 189.24 289.24 187.48
  Q 289.59 185.93 289.13 184.95
  Q 288.91 184.48 288.40 184.33
  Q 286.13 183.70 283.93 182.90
  C 281.14 181.87 279.53 184.26 277.32 185.04
  Q 271.55 187.07 266.29 190.11
  C 263.14 191.93 260.24 192.71 257.48 190.27
  C 251.39 179.13 244.49 171.79 234.10 164.79
  C 229.96 162.00 226.82 160.95 222.06 161.30
  A 0.60 0.60 0.0 0 0 222.04 162.49
  C 231.36 163.48 242.92 174.71 248.69 181.67
  C 247.04 183.15 245.34 183.31 243.22 182.34
  Q 238.31 180.11 232.90 179.72
  Q 232.42 179.69 232.05 179.37
  C 230.64 178.15 229.64 177.46 228.61 175.76
  C 225.66 170.91 220.50 170.23 216.45 167.64
  Q 216.03 167.38 215.54 167.34
  Q 212.52 167.11 209.95 165.56
  C 208.69 164.79 208.32 163.19 206.22 163.21
  A 0.67 0.65 -7.7 0 1 205.56 162.72
  C 205.04 160.85 203.31 160.08 202.94 158.30
  Q 202.82 157.71 203.21 157.25
  L 205.31 154.71
  Q 205.63 154.33 205.44 153.86
  Q 204.31 151.05 206.48 148.67
  A 1.18 1.17 -31.1 0 0 206.76 147.56
  L 205.13 141.54
  Q 204.99 141.00 204.47 140.81
  C 200.99 139.49 198.18 138.33 194.37 137.64
  Q 191.62 137.14 189.92 134.38
  Q 204.62 127.43 220.73 124.76
  C 221.52 124.63 222.35 124.09 223.04 123.63
  Q 223.50 123.32 223.70 123.84
  Q 224.30 125.42 225.71 126.26
  Q 226.75 126.88 226.14 125.83
  C 212.03 101.18 204.68 77.77 196.16 49.41
  C 194.67 44.45 193.99 38.74 192.55 33.50
  Z"
/>
<path fill="#4e4c67" d="
  M 137.59 160.40
  C 131.70 151.21 125.89 139.39 125.22 128.33
  Q 125.08 125.93 127.14 126.14
  A 1.38 1.37 68.1 0 1 127.93 126.48
  C 138.16 135.58 147.34 147.54 155.21 158.68
  A 1.46 1.44 48.7 0 1 155.10 160.48
  Q 148.73 167.50 143.54 175.55
  C 142.77 176.75 142.56 177.32 140.93 177.21
  C 128.31 176.33 115.50 175.05 103.31 171.46
  A 0.68 0.67 -52.7 0 1 103.15 170.24
  C 112.50 164.46 124.59 162.42 135.41 161.08
  A 0.92 0.92 0.0 0 1 136.02 161.22
  Q 136.68 161.62 137.32 161.33
  Q 137.99 161.03 137.59 160.40
  Z"
/>
<path fill="#5d5988" d="
  M 189.92 134.38
  Q 191.62 137.14 194.37 137.64
  C 198.18 138.33 200.99 139.49 204.47 140.81
  Q 204.99 141.00 205.13 141.54
  L 206.76 147.56
  A 1.18 1.17 -31.1 0 1 206.48 148.67
  Q 204.31 151.05 205.44 153.86
  Q 205.63 154.33 205.31 154.71
  L 203.21 157.25
  Q 202.82 157.71 202.94 158.30
  C 203.31 160.08 205.04 160.85 205.56 162.72
  A 0.67 0.65 -7.7 0 0 206.22 163.21
  C 208.32 163.19 208.69 164.79 209.95 165.56
  Q 212.52 167.11 215.54 167.34
  Q 216.03 167.38 216.45 167.64
  C 220.50 170.23 225.66 170.91 228.61 175.76
  C 229.64 177.46 230.64 178.15 232.05 179.37
  Q 232.42 179.69 232.90 179.72
  Q 238.31 180.11 243.22 182.34
  C 245.34 183.31 247.04 183.15 248.69 181.67
  Q 260.43 196.80 261.73 216.01
  Q 261.74 216.07 262.03 217.97
  C 263.22 225.70 262.73 233.79 262.22 239.05
  Q 262.21 239.19 262.31 239.19
  Q 262.44 239.19 262.57 239.18
  Q 262.66 239.18 262.67 239.10
  C 265.86 223.26 265.03 205.02 257.48 190.27
  C 260.24 192.71 263.14 191.93 266.29 190.11
  Q 271.55 187.07 277.32 185.04
  C 279.53 184.26 281.14 181.87 283.93 182.90
  Q 286.13 183.70 288.40 184.33
  Q 288.91 184.48 289.13 184.95
  Q 289.59 185.93 289.24 187.48
  Q 288.84 189.24 290.40 189.66
  Q 290.88 189.78 291.03 189.32
  Q 292.66 184.44 298.46 185.30
  Q 300.85 185.65 300.80 183.79
  L 302.77 189.68
  A 1.43 1.42 72.1 0 1 301.84 191.50
  Q 297.15 192.95 293.74 196.52
  A 0.36 0.36 0.0 0 0 294.16 197.09
  C 310.39 189.31 329.39 183.31 348.28 178.74
  C 353.71 177.42 359.01 176.65 364.44 176.04
  A 0.54 0.53 14.5 0 1 364.94 176.88
  C 357.84 186.89 342.76 194.61 332.22 200.75
  Q 330.47 201.77 331.25 203.64
  Q 331.49 204.24 332.86 205.39
  Q 344.27 214.91 352.82 228.17
  Q 354.18 230.28 354.72 232.18
  Q 354.90 232.81 354.26 232.68
  Q 352.94 232.40 351.76 233.13
  Q 351.30 233.42 350.78 233.25
  Q 333.55 227.32 317.09 219.56
  Q 310.19 216.30 303.31 213.13
  L 295.28 209.58
  Q 294.73 209.34 295.14 209.77
  C 296.85 211.55 300.54 215.23 302.98 215.55
  L 308.69 218.85
  Q 309.09 219.09 309.17 219.55
  C 312.37 240.50 309.95 263.29 305.25 284.25
  Q 303.15 293.61 299.80 301.25
  A 1.23 1.23 0.0 0 1 299.08 301.90
  C 282.72 307.39 264.28 306.97 247.31 305.51
  Q 246.80 305.47 246.94 304.97
  Q 254.91 277.04 253.82 247.98
  C 253.32 234.51 247.41 212.43 234.02 205.79
  C 213.58 195.65 193.10 222.89 185.84 238.08
  Q 173.27 264.34 170.58 294.74
  A 0.49 0.49 0.0 0 1 170.01 295.18
  L 159.99 293.58
  A 1.02 1.01 14.6 0 1 159.19 292.23
  Q 161.88 284.81 163.01 277.25
  Q 167.55 246.68 163.77 216.00
  C 162.64 206.82 157.51 186.83 144.97 188.25
  C 142.73 188.50 140.58 189.71 138.35 190.65
  Q 137.73 190.91 138.03 190.30
  C 143.70 178.84 150.97 164.86 162.83 158.82
  C 171.57 154.38 179.60 152.63 188.64 155.39
  Q 190.63 156.00 188.81 154.98
  C 180.35 150.24 171.02 151.85 162.78 156.61
  Q 161.85 157.14 162.45 156.25
  C 164.07 153.83 166.68 151.78 168.28 150.19
  Q 177.83 140.65 189.92 134.38
  Z"
/>
<path fill="#000000" d="
  M 257.48 190.27
  C 265.03 205.02 265.86 223.26 262.67 239.10
  Q 262.66 239.18 262.57 239.18
  Q 262.44 239.19 262.31 239.19
  Q 262.21 239.19 262.22 239.05
  C 262.73 233.79 263.22 225.70 262.03 217.97
  Q 261.74 216.07 261.73 216.01
  Q 260.43 196.80 248.69 181.67
  C 242.92 174.71 231.36 163.48 222.04 162.49
  A 0.60 0.60 0.0 0 1 222.06 161.30
  C 226.82 160.95 229.96 162.00 234.10 164.79
  C 244.49 171.79 251.39 179.13 257.48 190.27
  Z"
/>
<path fill="#ffffff" d="
  M 162.81 228.09
  C 141.39 238.32 124.81 258.88 114.54 280.29
  Q 110.95 275.54 108.25 270.52
  Q 107.67 269.44 106.54 269.47
  Q 106.05 269.48 106.01 269.00
  L 105.92 267.74
  C 106.40 241.51 115.33 214.50 134.40 196.09
  C 138.16 192.45 142.77 190.19 147.73 190.73
  C 158.28 191.88 162.23 218.78 162.81 228.09
  Z"
/>
<path fill="#ffffff" d="
  M 251.28 246.29
  C 247.43 245.95 239.25 251.37 236.00 253.53
  C 215.60 267.04 197.44 284.43 185.24 305.85
  Q 178.66 301.59 173.21 295.97
  C 173.23 285.75 175.55 277.21 178.15 266.59
  C 183.27 245.64 200.75 204.25 227.48 206.49
  C 243.12 207.81 250.31 233.92 251.28 246.29
  Z"
/>
<path fill="#4e4c67" d="
  M 303.31 213.13
  Q 302.68 213.21 302.34 213.52
  Q 301.94 213.87 302.14 214.36
  Q 302.38 214.96 302.98 215.55
  C 300.54 215.23 296.85 211.55 295.14 209.77
  Q 294.73 209.34 295.28 209.58
  L 303.31 213.13
  Z"
/>
<path fill="#4e4c67" d="
  M 162.81 228.09
  Q 162.75 229.05 162.96 229.50
  C 141.69 239.58 124.80 261.38 115.47 282.53
  Q 111.17 293.47 110.94 305.50
  Q 110.92 306.62 110.42 307.69
  L 109.26 305.05
  Q 110.07 302.50 110.50 296.00
  Q 110.86 290.67 114.54 280.29
  C 124.81 258.88 141.39 238.32 162.81 228.09
  Z"
/>
<path fill="#c7bdb9" d="
  M 162.96 229.50
  C 163.07 251.44 163.71 273.96 155.91 294.83
  Q 153.31 294.08 151.28 295.10
  Q 150.83 295.32 150.33 295.30
  C 146.46 295.11 142.70 295.23 138.91 294.26
  C 133.90 292.99 128.42 292.15 124.17 289.53
  Q 119.42 286.61 115.47 282.53
  C 124.80 261.38 141.69 239.58 162.96 229.50
  Z"
/>
<path fill="#4e4c67" d="
  M 251.28 246.29
  Q 251.67 246.86 251.40 247.50
  C 247.48 247.17 235.12 255.61 231.65 258.13
  C 213.36 271.46 196.60 288.14 185.88 308.50
  Q 180.26 317.62 177.65 330.22
  L 176.69 326.27
  Q 180.42 315.11 185.24 305.85
  C 197.44 284.43 215.60 267.04 236.00 253.53
  C 239.25 251.37 247.43 245.95 251.28 246.29
  Z"
/>
<path fill="#c7bdb9" d="
  M 251.40 247.50
  C 252.03 270.46 249.68 292.10 240.83 312.80
  Q 236.02 311.59 231.51 314.18
  C 224.96 317.94 218.60 316.66 211.97 316.36
  Q 206.29 316.10 202.31 315.04
  Q 193.66 312.73 185.88 308.50
  C 196.60 288.14 213.36 271.46 231.65 258.13
  C 235.12 255.61 247.48 247.17 251.40 247.50
  Z"
/>
<path fill="#c7bdb9" d="
  M 105.92 267.74
  L 106.01 269.00
  Q 106.05 269.48 106.54 269.47
  Q 107.67 269.44 108.25 270.52
  Q 110.95 275.54 114.54 280.29
  Q 110.86 290.67 110.50 296.00
  Q 110.07 302.50 109.26 305.05
  Q 105.09 286.66 105.92 267.74
  Z"
/>
<path fill="#ab9d94" d="
  M 115.47 282.53
  Q 119.42 286.61 124.17 289.53
  C 128.42 292.15 133.90 292.99 138.91 294.26
  C 142.70 295.23 146.46 295.11 150.33 295.30
  Q 150.83 295.32 151.28 295.10
  Q 153.31 294.08 155.91 294.83
  C 151.97 308.31 146.37 322.47 133.79 330.13
  C 128.88 333.12 124.86 332.05 121.40 327.82
  Q 113.76 318.45 110.42 307.69
  Q 110.92 306.62 110.94 305.50
  Q 111.17 293.47 115.47 282.53
  Z"
/>
<path fill="#f7e8a9" d="
  M 174.01 326.13
  Q 161.09 321.93 152.39 311.95
  L 158.20 296.24
  A 0.62 0.62 0.0 0 1 158.88 295.85
  L 170.12 297.55
  Q 170.54 297.62 170.54 298.05
  Q 170.41 311.57 174.01 326.13
  Z"
/>
<path fill="#c7bdb9" d="
  M 173.21 295.97
  Q 178.66 301.59 185.24 305.85
  Q 180.42 315.11 176.69 326.27
  C 173.95 314.55 172.27 306.50 173.21 295.97
  Z"
/>
<path fill="#f7e8a9" d="
  M 277.41 338.43
  C 260.99 344.70 241.74 345.86 224.18 343.93
  C 234.10 334.59 240.54 321.33 245.68 308.18
  Q 245.87 307.71 246.37 307.76
  C 262.78 309.30 281.37 309.79 297.43 304.83
  Q 298.01 304.65 297.84 305.23
  C 294.09 317.52 284.87 329.27 277.41 338.43
  Z"
/>
<path fill="#ab9d94" d="
  M 185.88 308.50
  Q 193.66 312.73 202.31 315.04
  Q 206.29 316.10 211.97 316.36
  C 218.60 316.66 224.96 317.94 231.51 314.18
  Q 236.02 311.59 240.83 312.80
  C 236.01 325.12 227.37 339.27 216.09 346.36
  C 209.30 350.62 198.74 356.32 190.82 351.56
  C 182.65 346.65 180.68 338.54 177.65 330.22
  Q 180.26 317.62 185.88 308.50
  Z"
/>
<path fill="#bfa872" d="
  M 152.39 311.95
  Q 161.09 321.93 174.01 326.13
  Q 176.52 335.62 179.21 341.81
  C 183.43 351.50 190.25 358.00 201.76 355.48
  Q 215.02 352.58 224.18 343.93
  C 241.74 345.86 260.99 344.70 277.41 338.43
  Q 267.94 351.60 255.13 361.22
  C 249.81 365.22 243.23 367.82 237.02 370.75
  C 231.57 373.32 226.26 374.80 220.54 376.49
  Q 219.71 376.73 219.91 375.88
  Q 220.41 373.86 218.01 373.40
  C 210.14 371.89 202.47 379.44 194.84 379.14
  Q 182.74 378.66 171.43 374.17
  Q 170.95 373.97 170.75 373.49
  L 165.92 361.76
  Q 165.71 361.25 165.23 361.52
  Q 163.88 362.29 164.40 364.04
  Q 165.54 367.90 167.05 371.66
  Q 167.29 372.28 166.69 372.00
  Q 140.84 360.10 126.53 335.45
  A 0.52 0.52 0.0 0 1 127.25 334.74
  C 128.22 335.31 129.12 335.40 130.23 334.97
  C 140.69 330.95 147.92 322.09 152.39 311.95
  Z"
/>
<path fill="#74709d" d="
  M 374.81 396.20
  Q 357.45 392.09 340.19 386.57
  C 340.04 374.72 339.80 362.07 343.88 350.69
  A 0.40 0.40 0.0 0 1 344.63 350.66
  C 349.29 361.16 355.28 376.32 355.29 387.93
  A 0.53 0.52 76.4 0 0 356.05 388.40
  C 369.17 381.77 383.40 374.67 398.12 373.41
  Q 398.87 373.34 398.40 373.93
  C 391.52 382.49 382.28 390.38 374.81 396.20
  Z"
/>
<path fill="#eab953" d="
  M 153.64 375.05
  Q 151.66 387.20 153.69 399.17
  Q 143.94 402.43 140.19 402.97
  Q 131.36 404.24 122.00 405.27
  A 0.77 0.76 22.7 0 1 121.44 403.91
  Q 131.60 396.00 143.47 389.76
  Q 145.33 388.78 146.17 386.55
  Q 146.34 386.08 146.04 385.67
  C 139.69 377.15 134.60 369.99 130.69 360.09
  A 0.34 0.33 -86.6 0 1 131.16 359.67
  Q 143.00 366.06 153.64 375.05
  Z"
/>
<path fill="#4e4c67" d="
  M 153.94 371.81
  Q 151.40 370.12 152.61 367.71
  Q 152.88 367.18 153.39 367.49
  C 165.80 375.17 176.28 380.43 190.97 381.52
  A 0.31 0.31 0.0 0 1 191.04 382.13
  C 185.59 383.72 173.89 388.72 173.71 394.15
  C 173.51 399.97 184.86 408.30 188.56 411.64
  A 0.14 0.14 0.0 0 1 188.43 411.87
  Q 175.45 408.08 165.80 398.71
  Q 164.43 397.38 166.23 396.74
  Q 169.68 395.50 171.28 392.23
  A 1.20 1.19 -43.4 0 0 171.31 391.26
  C 168.43 384.04 158.91 375.14 153.94 371.81
  Z"
/>
<path fill="#4e4c67" d="
  M 245.92 370.30
  C 250.61 373.09 248.16 383.16 246.33 387.07
  Q 242.78 394.66 236.78 400.21
  C 229.41 407.04 216.96 409.38 207.23 409.66
  Q 206.73 409.67 206.51 409.23
  L 199.61 395.86
  Q 199.36 395.38 199.81 395.10
  Q 209.52 389.00 217.17 380.51
  Q 217.52 380.12 218.04 380.02
  Q 232.58 377.38 245.53 370.29
  A 0.39 0.38 -43.0 0 1 245.92 370.30
  Z"
/>
<path fill="#9d763f" d="
  M 153.64 375.05
  Q 162.13 381.73 168.44 389.97
  A 1.97 1.97 0.0 0 1 167.85 392.87
  Q 161.06 396.74 153.69 399.17
  Q 151.66 387.20 153.64 375.05
  Z"
/>
<path fill="#eab953" d="
  M 184.79 404.53
  Q 187.90 394.09 192.94 383.98
  C 199.80 380.96 209.33 376.50 216.95 375.66
  Q 217.96 375.55 217.31 376.33
  Q 208.72 386.80 197.15 393.82
  A 1.53 1.52 -30.8 0 0 196.62 395.89
  Q 202.71 406.34 206.89 417.79
  Q 208.22 421.44 204.82 419.58
  Q 193.78 413.53 184.79 404.53
  Z"
/>
<path fill="#9d763f" d="
  M 192.94 383.98
  Q 187.90 394.09 184.79 404.53
  L 175.98 395.82
  A 0.92 0.90 -62.0 0 1 175.73 394.97
  C 176.80 390.20 187.96 386.07 192.94 383.98
  Z"
/>
<path fill="#5d5988" d="
  M 340.19 386.57
  Q 357.45 392.09 374.81 396.20
  L 371.65 398.81
  Q 355.42 394.91 340.08 389.57
  L 340.19 386.57
  Z"
/>
<path fill="#4e4c67" d="
  M 340.08 389.57
  Q 355.42 394.91 371.65 398.81
  Q 360.84 408.35 348.27 413.86
  Q 347.85 414.04 347.50 413.74
  L 340.35 407.57
  Q 339.99 407.25 339.99 406.77
  L 340.08 389.57
  Z"
/>
<path fill="#74709d" d="
  M 345.29 415.75
  Q 344.14 416.75 342.41 415.36
  A 1.23 1.22 -59.6 0 0 340.51 415.86
  L 339.16 419.27
  A 0.59 0.59 0.0 0 1 338.27 419.53
  C 333.77 416.29 329.48 422.02 327.86 425.50
  A 2.05 2.04 18.2 0 1 325.60 426.64
  L 321.06 425.73
  Q 320.50 425.62 320.50 425.05
  L 320.50 424.29
  Q 320.50 423.88 320.26 423.54
  Q 317.72 419.86 313.33 420.65
  Q 312.80 420.75 312.40 420.38
  Q 310.28 418.45 307.44 418.89
  Q 306.94 418.97 306.56 418.64
  C 303.71 416.20 302.30 418.08 299.53 417.30
  C 295.15 416.06 295.52 409.72 289.90 408.47
  Q 289.41 408.36 289.15 407.93
  Q 288.43 406.70 289.04 405.62
  Q 302.94 399.75 317.24 400.50
  C 327.95 401.07 337.66 407.61 345.29 415.75
  Z"
/>
<path fill="#5d5988" d="
  M 289.04 405.62
  Q 288.43 406.70 289.15 407.93
  Q 289.41 408.36 289.90 408.47
  C 295.52 409.72 295.15 416.06 299.53 417.30
  C 302.30 418.08 303.71 416.20 306.56 418.64
  Q 306.94 418.97 307.44 418.89
  Q 310.28 418.45 312.40 420.38
  Q 312.80 420.75 313.33 420.65
  Q 317.72 419.86 320.26 423.54
  Q 320.50 423.88 320.50 424.29
  L 320.50 425.05
  Q 320.50 425.62 321.06 425.73
  L 325.60 426.64
  A 2.05 2.04 18.2 0 0 327.86 425.50
  C 329.48 422.02 333.77 416.29 338.27 419.53
  A 0.59 0.59 0.0 0 0 339.16 419.27
  L 340.51 415.86
  A 1.23 1.22 -59.6 0 1 342.41 415.36
  Q 344.14 416.75 345.29 415.75
  Q 351.45 424.69 353.96 437.10
  Q 352.60 441.24 347.95 445.73
  Q 341.37 452.09 333.38 455.48
  Q 320.00 461.16 305.49 465.10
  Q 306.46 460.34 306.73 453.51
  C 307.47 434.26 294.81 418.75 276.66 413.44
  Q 276.05 413.26 276.60 412.93
  L 289.04 405.62
  Z"
/>
<path fill="#c7bdb9" d="
  M 236.68 415.37
  Q 236.43 415.19 236.08 415.23
  Q 235.83 415.26 235.57 415.50
  Q 233.33 417.59 230.76 419.61
  Q 227.22 418.05 223.01 419.52
  Q 216.81 421.67 214.00 425.92
  Q 201.98 429.17 190.66 428.73
  A 0.64 0.64 0.0 0 0 190.18 429.82
  C 195.80 435.64 200.62 441.32 207.11 446.34
  C 204.21 447.37 197.24 442.52 195.17 440.66
  Q 192.46 438.24 190.32 433.71
  Q 185.51 423.48 182.02 412.77
  A 0.36 0.36 0.0 0 1 182.52 412.33
  Q 187.38 414.58 192.70 415.39
  Q 193.17 415.47 193.54 415.77
  C 197.74 419.23 202.70 422.37 208.31 422.57
  A 1.98 1.97 -5.3 0 0 210.31 420.17
  Q 209.46 416.33 207.73 412.73
  Q 207.41 412.05 208.16 412.04
  Q 217.62 411.90 226.53 408.73
  A 2.64 2.63 59.4 0 1 229.38 409.47
  C 230.47 410.70 236.63 414.75 236.68 415.37
  Z"
/>
<path fill="#ffffff" d="
  M 236.68 415.37
  Q 241.74 422.89 240.70 433.17
  A 0.38 0.38 0.0 0 1 239.95 433.19
  Q 238.63 424.42 230.76 419.61
  Q 233.33 417.59 235.57 415.50
  Q 235.83 415.26 236.08 415.23
  Q 236.43 415.19 236.68 415.37
  Z"
/>
<path fill="#eab953" d="
  M 302.84 466.03
  C 295.46 466.85 291.53 467.81 282.63 465.71
  C 282.08 456.19 275.58 449.57 266.04 450.29
  C 258.67 450.84 253.07 455.77 249.04 461.89
  Q 240.01 460.39 231.04 457.17
  Q 240.51 450.32 240.84 439.49
  Q 240.86 438.98 241.14 438.56
  C 245.01 432.80 243.46 422.60 240.40 417.04
  Q 240.08 416.46 240.73 416.61
  Q 255.95 420.09 268.93 415.90
  C 277.37 413.17 289.09 421.69 294.54 427.32
  C 303.33 436.39 308.71 454.26 302.84 466.03
  Z"
/>
<path fill="#bfa872" d="
  M 183.07 447.82
  C 176.73 440.90 176.60 428.46 181.25 420.65
  Q 181.70 419.89 182.01 420.71
  C 185.66 430.52 190.44 439.66 195.40 448.85
  Q 195.65 449.32 195.20 449.63
  C 190.96 452.52 186.46 451.54 183.07 447.82
  Z"
/>
<path fill="#f7e8a9" d="
  M 219.28 457.09
  C 206.62 451.02 211.28 427.84 221.51 422.53
  C 232.38 416.89 238.17 431.71 237.97 439.74
  C 237.74 448.65 231.34 455.39 222.80 457.44
  Q 220.94 457.89 219.28 457.09
  Z"
/>
<path fill="#ffffff" d="
  M 214.00 425.92
  Q 207.84 436.02 209.14 446.64
  Q 209.21 447.18 208.66 447.22
  Q 207.95 447.28 207.11 446.34
  C 200.62 441.32 195.80 435.64 190.18 429.82
  A 0.64 0.64 0.0 0 1 190.66 428.73
  Q 201.98 429.17 214.00 425.92
  Z"
/>
<path fill="#4e4c67" d="
  M 353.96 437.10
  Q 355.99 451.97 346.74 464.53
  C 337.74 476.75 327.09 483.88 312.52 488.14
  C 300.66 491.61 288.10 493.04 275.48 492.28
  A 0.41 0.41 0.0 0 1 275.16 491.66
  L 275.94 490.43
  A 1.03 0.98 -81.8 0 1 276.49 490.00
  C 289.67 485.65 300.65 478.43 305.49 465.10
  Q 320.00 461.16 333.38 455.48
  Q 341.37 452.09 347.95 445.73
  Q 352.60 441.24 353.96 437.10
  Z"
/>
<path fill="#9d763f" d="
  M 231.04 457.17
  Q 240.01 460.39 249.04 461.89
  C 247.68 464.62 246.27 467.19 246.02 470.24
  Q 245.25 479.84 248.85 488.56
  A 0.60 0.60 0.0 0 1 248.03 489.32
  Q 235.62 483.10 223.94 476.06
  C 212.53 469.20 202.98 456.99 196.61 445.60
  A 0.39 0.39 0.0 0 1 197.18 445.10
  Q 202.78 449.25 209.85 449.58
  Q 210.50 449.61 210.50 450.27
  L 210.50 451.83
  Q 210.50 452.32 210.77 452.72
  Q 218.43 464.42 231.04 457.17
  Z"
/>
<path fill="#f7e8a9" d="
  M 265.63 496.60
  C 253.98 500.51 250.17 486.53 248.74 478.49
  Q 246.38 465.23 257.44 456.56
  C 262.76 452.40 269.17 451.26 274.67 454.79
  C 281.09 458.90 281.29 471.79 279.30 477.52
  C 277.25 483.42 272.02 494.45 265.63 496.60
  Z"
/>
<path fill="#bfa872" d="
  M 223.83 488.77
  C 211.90 493.24 204.92 480.43 204.76 470.62
  Q 204.69 466.65 204.77 462.78
  A 0.36 0.36 0.0 0 1 205.42 462.57
  Q 214.70 474.50 227.99 481.67
  Q 228.47 481.93 228.40 482.48
  Q 227.77 487.29 223.83 488.77
  Z"
/>
<path fill="#9d763f" d="
  M 282.63 465.71
  C 291.53 467.81 295.46 466.85 302.84 466.03
  C 297.49 478.25 288.87 481.72 277.76 487.94
  A 0.22 0.22 0.0 0 1 277.47 487.62
  Q 284.31 477.46 282.63 465.71
  Z"
/>
</svg>
