<?xml version="1.0" encoding="UTF-8" standalone="no"?>
<svg xmlns="http://www.w3.org/2000/svg" version="1.2" baseProfile="tiny" viewBox="0.00 0.00 500.00 500.00">
<path fill="#010001" d="
  M 44.29 396.81
  C 34.97 373.93 33.99 345.42 45.38 322.80
  C 58.59 296.58 82.82 275.25 110.81 266.10
  C 122.83 262.18 135.03 258.85 147.68 257.84
  C 167.97 256.22 190.06 258.14 209.29 265.10
  C 218.91 268.58 227.66 274.08 237.48 279.77
  Q 246.43 284.95 252.65 290.34
  Q 264.64 300.73 276.46 311.32
  Q 276.84 311.65 277.30 311.46
  Q 291.07 305.90 305.39 308.28
  C 312.75 309.50 322.37 313.80 331.11 315.76
  A 0.90 0.89 20.3 0 0 332.10 315.31
  Q 332.59 314.40 331.76 313.75
  Q 326.54 309.71 322.34 304.63
  C 319.34 301.02 313.14 300.64 311.94 295.95
  C 311.35 293.64 313.24 291.79 312.11 289.37
  Q 307.65 279.88 304.32 269.96
  C 301.80 262.48 300.96 252.36 300.58 245.94
  Q 299.52 228.09 307.28 208.78
  A 1.02 1.02 0.0 0 0 307.18 207.85
  C 298.49 194.71 293.25 180.09 288.52 164.59
  C 282.38 144.47 279.70 125.11 276.32 102.24
  Q 274.41 89.35 274.37 84.25
  Q 274.24 67.91 281.09 53.22
  C 282.84 49.47 285.21 48.76 287.92 52.36
  C 298.93 66.97 308.35 82.37 319.65 96.09
  Q 342.33 123.63 364.72 151.40
  A 0.83 0.82 63.4 0 0 365.55 151.68
  L 372.82 149.93
  Q 373.38 149.79 373.34 149.21
  Q 370.91 110.96 382.49 74.50
  C 388.18 56.57 395.08 39.32 404.66 23.92
  C 406.76 20.54 414.56 9.05 419.25 9.50
  A 1.30 1.29 72.4 0 1 420.11 9.95
  Q 423.91 14.49 425.23 20.00
  C 428.96 35.56 432.48 52.82 436.35 68.97
  C 444.74 103.96 452.51 139.19 460.20 174.34
  Q 460.67 176.50 462.08 178.35
  Q 481.45 203.73 480.14 236.26
  C 479.81 244.19 478.23 252.46 475.12 258.96
  A 0.56 0.56 0.0 0 0 475.56 259.76
  C 483.34 260.66 493.70 262.91 499.45 268.63
  Q 499.82 269.00 499.79 269.53
  C 499.57 273.72 494.66 276.06 491.23 277.20
  Q 479.04 281.24 466.93 284.24
  A 0.69 0.68 55.9 0 0 466.70 285.46
  C 470.35 288.08 478.27 297.15 468.74 299.21
  Q 455.78 302.00 443.13 301.40
  Q 442.63 301.38 442.29 301.74
  C 437.56 306.66 437.22 314.07 438.80 320.34
  Q 442.26 334.07 443.93 347.61
  A 2.97 2.93 -72.2 0 0 444.84 349.41
  Q 459.93 363.44 474.08 378.41
  C 478.72 383.32 477.24 387.69 476.49 393.61
  Q 476.43 394.13 476.90 394.35
  Q 482.26 396.85 484.79 402.49
  C 487.98 409.61 484.36 412.42 478.99 417.31
  C 473.14 422.64 467.80 426.26 464.53 434.37
  A 1.74 1.70 51.2 0 0 464.44 435.28
  C 466.00 444.42 466.92 456.78 455.26 458.98
  C 454.23 459.17 452.34 458.37 451.47 457.55
  Q 442.73 449.30 442.02 437.01
  Q 441.59 429.67 448.26 427.82
  Q 448.74 427.68 448.86 427.20
  C 450.69 420.00 451.11 417.27 448.60 410.87
  Q 444.38 400.11 455.17 395.69
  A 1.43 1.43 0.0 0 0 455.24 393.07
  Q 443.76 387.71 431.64 383.90
  A 1.27 1.26 -60.6 0 0 430.29 384.28
  Q 420.87 395.21 407.70 400.97
  Q 407.21 401.19 407.03 401.69
  Q 404.46 409.15 405.76 417.99
  Q 408.06 433.68 411.59 445.63
  A 1.17 1.16 -86.1 0 0 412.22 446.36
  C 418.38 449.29 430.47 455.16 422.55 462.81
  A 1.84 1.83 -40.6 0 0 422.36 465.23
  Q 423.99 467.39 426.00 469.58
  C 429.13 472.98 433.42 472.91 436.63 475.93
  C 441.76 480.77 437.98 485.99 432.87 488.49
  C 424.56 492.55 406.80 490.85 405.49 478.96
  C 405.05 474.95 404.08 471.15 401.57 468.93
  Q 392.28 460.71 382.95 452.55
  C 377.85 448.08 381.37 441.69 387.18 441.46
  A 0.49 0.48 71.7 0 0 387.56 440.70
  C 379.93 429.62 375.76 417.65 370.70 405.31
  C 370.08 403.79 368.02 404.51 367.05 404.46
  Q 354.39 403.72 341.57 398.55
  Q 340.79 398.24 340.43 398.99
  Q 336.73 406.77 330.40 413.00
  C 328.91 414.47 327.41 417.24 327.65 419.33
  C 328.79 429.15 332.77 437.39 337.47 447.01
  C 338.49 449.11 342.71 449.43 344.76 449.48
  Q 346.21 449.52 350.02 451.45
  C 358.54 455.79 357.33 464.73 348.86 467.73
  C 340.94 470.54 334.83 467.30 327.29 463.74
  Q 326.52 463.37 325.27 461.26
  C 319.13 450.85 312.39 441.05 306.44 430.50
  Q 300.24 419.54 303.89 407.55
  A 0.50 0.50 0.0 0 0 303.06 407.05
  C 292.13 417.90 280.88 427.32 266.59 434.37
  C 256.67 439.27 263.10 463.21 266.43 470.83
  Q 266.63 471.30 267.09 471.51
  C 272.14 473.81 281.33 478.02 276.55 485.47
  C 272.39 491.94 261.35 490.70 255.52 488.07
  Q 250.57 485.83 247.74 480.32
  Q 237.52 460.38 238.28 439.02
  C 238.49 432.98 244.47 425.22 248.43 419.18
  C 255.30 408.69 254.24 394.72 252.30 383.12
  C 250.81 374.16 244.79 364.83 246.84 355.74
  C 247.50 352.83 247.72 349.55 248.86 346.65
  Q 253.74 334.23 261.92 323.71
  Q 262.22 323.32 261.84 323.02
  Q 244.10 309.14 221.90 310.30
  Q 216.26 310.59 212.96 312.37
  C 202.52 318.01 205.61 325.38 208.25 334.74
  Q 211.61 346.63 214.49 364.00
  C 217.20 380.41 215.77 392.79 208.29 406.94
  A 0.41 0.41 0.0 0 0 208.70 407.54
  C 213.56 406.92 231.84 407.61 233.87 413.32
  C 235.97 419.21 219.45 427.24 216.23 428.21
  Q 211.62 429.59 206.90 431.02
  A 0.63 0.63 0.0 0 0 206.84 432.20
  C 213.80 435.20 226.66 442.13 230.12 448.90
  C 233.46 455.46 232.53 462.66 224.08 463.63
  C 206.50 465.67 189.74 465.57 175.04 455.02
  A 0.67 0.66 2.4 0 0 174.08 455.90
  C 179.33 464.56 185.18 478.99 170.11 482.61
  C 153.58 486.57 135.39 470.86 125.64 458.54
  A 2.28 2.27 55.1 0 0 122.68 458.01
  C 108.99 466.27 87.76 481.67 71.52 475.22
  C 61.30 471.16 71.73 453.75 75.59 448.83
  Q 75.86 448.48 75.74 448.01
  A 0.41 0.40 69.4 0 0 75.18 447.75
  Q 51.64 459.24 25.64 457.76
  Q 16.57 457.25 13.41 456.55
  C 10.20 455.84 -1.60 451.80 0.77 446.63
  C 7.31 432.37 28.07 426.79 42.15 426.01
  A 0.45 0.44 59.5 0 0 42.36 425.19
  Q 34.75 420.34 32.00 412.42
  C 28.40 402.08 33.83 397.12 43.86 397.43
  Q 44.55 397.45 44.29 396.81
  Z"
/>
<g stroke-width="2.00" fill="none" stroke-linecap="butt">
<path stroke="#35302b" vector-effect="non-scaling-stroke" d="
  M 407.71 34.50
  L 406.73 34.20
  Q 406.39 34.09 406.44 33.73
  L 406.91 30.56
  A 0.60 0.60 0.0 0 0 405.75 30.27
  C 404.15 34.71 400.43 38.85 398.46 43.46
  Q 398.26 43.92 398.28 44.42
  Q 398.31 45.53 397.44 47.17
  C 394.63 52.50 394.24 59.73 391.13 65.86
  C 388.42 71.22 385.88 79.37 385.48 85.33
  Q 384.78 95.88 382.99 105.00
  Q 382.14 109.29 378.98 112.92
  Q 378.64 113.32 378.55 113.83
  Q 376.51 125.39 376.49 137.13
  Q 376.49 137.57 376.09 137.77
  Q 375.08 138.24 374.54 137.25"
/>
<path stroke="#372f28" vector-effect="non-scaling-stroke" d="
  M 324.96 179.40
  Q 324.80 176.55 322.91 175.26
  Q 322.48 174.98 322.27 174.51
  C 321.51 172.84 321.03 172.00 319.69 170.36
  C 318.41 168.78 318.23 166.09 316.87 164.18
  Q 314.55 160.95 314.25 160.38
  Q 311.64 155.44 309.96 150.09
  A 1.03 0.98 8.2 0 0 309.53 149.54
  Q 309.36 149.44 309.20 149.31
  Q 308.95 149.10 308.81 148.71
  Q 305.72 139.62 302.60 130.52
  C 301.61 127.66 299.88 124.11 298.90 120.71
  C 296.78 113.30 292.44 105.61 290.70 99.51
  C 288.05 90.24 286.85 78.68 284.73 66.62
  C 284.36 64.53 284.45 59.99 281.73 59.17
  Q 281.28 59.04 281.26 58.57
  L 281.22 57.76"
/>
<path stroke="#8b4a41" vector-effect="non-scaling-stroke" d="
  M 407.23 185.11
  Q 403.07 187.87 398.65 189.80
  C 396.10 190.91 392.76 190.47 389.89 191.26
  Q 374.30 195.57 360.54 204.08
  Q 355.02 207.48 354.06 209.06
  C 351.95 212.49 348.63 214.80 346.69 218.03
  Q 341.07 227.34 334.10 235.68
  A 1.52 1.49 67.1 0 0 333.75 236.56
  Q 333.54 240.01 332.47 243.25
  C 331.72 245.50 329.90 247.64 328.74 249.95
  Q 328.53 250.38 328.80 250.78
  Q 329.65 252.05 328.76 253.35
  Q 328.50 253.74 328.52 254.21
  C 328.74 258.82 326.02 261.96 328.17 266.52"
/>
<path stroke="#994f3e" vector-effect="non-scaling-stroke" d="
  M 328.17 266.52
  Q 327.89 274.08 330.25 282.75
  Q 330.75 284.58 329.46 286.50"
/>
<path stroke="#8b4a41" vector-effect="non-scaling-stroke" d="
  M 302.54 237.50
  L 302.75 241.24
  A 0.24 0.24 0.0 0 0 303.22 241.30
  Q 303.37 240.83 303.90 241.35
  A 0.78 0.78 0.0 0 0 305.23 240.84
  Q 305.47 236.46 306.81 232.30
  C 307.62 229.77 307.44 226.96 308.33 224.57
  Q 311.10 217.13 311.73 210.41
  Q 311.77 209.96 311.62 209.61
  Q 311.44 209.16 311.24 208.69
  Q 311.06 208.27 311.25 207.86
  C 314.09 202.02 316.70 195.69 320.17 190.64
  Q 327.44 180.07 337.49 171.93
  Q 337.88 171.62 338.39 171.63
  Q 341.44 171.72 343.72 170.23
  Q 353.86 163.62 366.78 153.65"
/>
<path stroke="#b75f3b" vector-effect="non-scaling-stroke" d="
  M 470.46 195.25
  Q 470.20 195.19 469.99 195.25
  A 0.63 0.62 -13.1 0 0 469.53 195.98
  L 472.30 209.38
  Q 472.42 209.96 472.25 210.53
  C 471.04 214.67 473.30 216.72 473.79 220.13
  C 474.30 223.68 474.25 226.84 475.37 230.41
  Q 476.78 234.88 476.91 239.57
  Q 476.93 240.09 477.45 240.11
  Q 477.87 240.13 478.21 240.00"
/>
<path stroke="#a5553b" vector-effect="non-scaling-stroke" d="
  M 328.17 266.52
  C 330.68 253.85 332.71 242.26 341.95 232.94
  Q 343.59 231.30 344.84 229.03
  C 348.55 222.36 355.18 218.08 361.69 214.45
  C 365.71 212.21 374.73 207.51 375.95 203.33
  Q 376.10 202.82 376.56 202.57
  Q 382.02 199.52 387.63 196.76
  C 393.97 193.65 402.85 191.03 410.18 186.90"
/>
<path stroke="#a5553b" vector-effect="non-scaling-stroke" d="
  M 447.26 169.56
  Q 436.37 167.48 427.16 162.29
  Q 426.73 162.05 426.23 162.07
  L 407.38 162.96"
/>
<path stroke="#a5553b" vector-effect="non-scaling-stroke" d="
  M 242.14 284.45
  Q 230.67 289.62 231.07 301.97"
/>
<path stroke="#994f3e" vector-effect="non-scaling-stroke" d="
  M 231.07 301.97
  Q 231.01 303.84 229.95 305.41
  Q 229.66 305.85 229.15 305.74
  C 226.95 305.30 220.08 305.12 220.23 308.71"
/>
<path stroke="#994f3e" vector-effect="non-scaling-stroke" d="
  M 206.42 315.48
  L 205.50 315.46"
/>
<path stroke="#5a2d1d" vector-effect="non-scaling-stroke" d="
  M 205.50 315.46
  Q 205.59 315.05 205.34 314.70
  A 0.43 0.42 -33.5 0 0 204.76 314.59
  Q 196.57 319.61 193.13 328.66"
/>
<path stroke="#994f3e" vector-effect="non-scaling-stroke" d="
  M 193.13 328.66
  Q 195.47 332.94 203.98 345.28
  Q 208.68 352.11 210.67 354.10"
/>
<path stroke="#8a5039" vector-effect="non-scaling-stroke" d="
  M 211.65 394.62
  Q 209.09 395.35 208.39 392.56
  A 1.23 1.23 0.0 0 0 206.73 391.72
  L 201.05 394.09
  A 0.52 0.52 0.0 0 1 200.36 393.45
  Q 201.38 390.40 204.04 388.04
  Q 205.03 387.16 203.60 386.24
  A 0.59 0.59 0.0 0 0 202.90 386.30
  L 200.53 388.41
  Q 199.86 389.01 199.77 388.12
  Q 199.56 386.17 200.44 384.43
  A 1.47 1.43 55.1 0 0 200.59 383.51
  C 199.97 379.69 200.92 377.41 203.70 374.51
  Q 207.66 370.39 210.77 365.61
  A 1.07 1.07 0.0 0 0 209.67 363.98
  L 208.96 364.12
  A 1.16 1.13 59.6 0 1 207.98 363.85
  L 202.67 359.12
  Q 202.20 358.70 201.59 358.82
  L 195.91 359.86
  A 0.70 0.69 73.0 0 1 195.15 359.45
  L 193.98 356.79
  Q 193.80 356.39 193.37 356.48
  Q 190.82 357.04 188.86 358.75
  Q 188.46 359.10 187.94 359.00
  Q 182.99 358.09 180.28 362.42
  A 1.72 1.62 -84.4 0 1 179.57 363.04
  Q 176.12 364.59 177.42 368.20
  Q 177.59 368.67 177.23 369.00
  L 174.99 371.04
  Q 174.61 371.38 174.13 371.25
  Q 173.14 370.97 172.81 371.85
  Q 172.59 372.44 171.99 372.23
  C 167.94 370.81 162.01 375.04 158.27 376.70"
/>
<path stroke="#7a4b38" vector-effect="non-scaling-stroke" d="
  M 158.27 376.70
  L 154.50 378.29"
/>
<path stroke="#8a5039" vector-effect="non-scaling-stroke" d="
  M 154.50 378.29
  C 150.44 374.40 146.20 379.93 142.82 383.15
  A 1.25 1.25 0.0 0 1 141.99 383.49
  L 139.50 383.54"
/>
<path stroke="#7a4b38" vector-effect="non-scaling-stroke" d="
  M 139.50 383.54
  Q 139.02 382.96 138.33 382.69
  Q 137.72 382.44 137.81 383.10
  L 138.02 384.51
  Q 138.10 385.04 137.68 385.36
  C 134.58 387.74 131.09 385.98 128.37 388.40
  Q 128.06 388.68 128.13 389.10
  L 128.57 391.40
  A 0.73 0.72 18.0 0 1 127.33 392.03
  Q 125.45 390.04 122.88 389.26
  Q 122.34 389.10 122.31 389.65
  L 122.11 392.56
  Q 122.08 393.00 122.25 393.41
  Q 123.32 395.91 120.51 396.50
  A 0.86 0.86 0.0 0 0 119.89 397.64
  L 121.29 401.30
  A 0.52 0.52 0.0 0 0 122.27 400.97
  Q 121.93 399.85 121.47 398.77
  A 0.44 0.44 0.0 0 1 122.05 398.20
  L 123.79 398.97
  A 0.93 0.91 -35.3 0 0 124.23 399.04
  Q 128.05 398.67 131.64 397.38
  A 1.36 1.33 -48.1 0 1 132.41 397.33
  Q 134.37 397.80 135.53 399.45
  A 0.91 0.91 0.0 0 0 136.51 399.82
  Q 140.43 398.86 141.46 401.93"
/>
<path stroke="#994f3e" vector-effect="non-scaling-stroke" d="
  M 141.46 401.93
  L 134.06 405.20
  Q 133.56 405.41 133.14 405.07
  Q 131.95 404.08 130.98 404.98
  C 130.31 405.60 130.46 406.73 130.51 407.57
  A 1.29 1.28 -27.3 0 1 130.22 408.46
  L 126.50 412.96"
/>
<path stroke="#7a4b38" vector-effect="non-scaling-stroke" d="
  M 126.50 412.96
  Q 123.23 413.45 120.70 415.25"
/>
<path stroke="#8a5039" vector-effect="non-scaling-stroke" d="
  M 120.70 415.25
  Q 116.30 415.00 112.50 416.37
  A 1.35 1.33 48.0 0 1 111.48 416.31
  L 108.46 414.82
  Q 108.04 414.61 107.71 414.94
  Q 106.61 416.06 105.63 414.82
  A 0.88 0.87 23.5 0 0 104.07 415.43
  Q 104.16 416.60 103.25 416.74
  C 102.30 416.88 101.52 415.92 100.87 415.29
  A 1.07 1.06 65.1 0 0 100.06 414.99
  L 92.15 415.41
  A 0.67 0.67 0.0 0 1 92.07 414.07
  L 93.84 413.96
  A 0.57 0.57 0.0 0 0 94.28 413.08
  L 93.27 411.56
  Q 92.92 411.04 92.36 411.31
  L 89.27 412.79
  A 0.35 0.34 -78.9 0 1 88.89 412.22
  Q 89.95 411.24 89.74 409.77
  Q 89.65 409.07 89.05 409.43
  Q 87.33 410.44 85.27 410.02
  Q 84.67 409.91 84.45 409.34
  L 83.67 407.37
  Q 83.49 406.92 83.03 406.77
  C 81.85 406.37 81.12 406.88 80.21 406.58
  Q 79.52 406.35 79.35 405.74
  Q 79.19 405.19 79.75 405.05
  Q 82.51 404.34 84.37 402.19
  Q 84.69 401.81 84.34 401.47
  Q 84.22 401.35 84.11 401.24
  Q 83.82 400.97 84.17 400.78
  L 91.12 397.05
  A 0.85 0.83 35.8 0 1 91.72 396.96
  Q 93.80 397.36 94.31 395.46
  A 1.16 1.13 37.1 0 0 94.17 394.55
  Q 93.68 393.75 94.31 393.05
  Q 94.80 392.51 95.13 393.16
  L 95.72 394.32
  A 1.67 1.67 0.0 0 0 98.35 394.79
  L 103.29 390.20
  A 0.64 0.64 0.0 0 0 102.85 389.09
  Q 101.35 389.11 100.37 390.36
  A 0.72 0.72 0.0 0 1 99.09 389.83
  L 99.29 388.14
  Q 99.38 387.39 98.63 387.42
  L 96.03 387.51
  Q 95.62 387.52 95.55 387.11
  Q 95.19 384.79 96.18 382.71
  A 0.67 0.67 0.0 0 0 95.30 381.81
  Q 92.75 382.99 90.25 381.74
  A 0.56 0.56 0.0 0 0 89.45 382.33
  L 89.73 384.08
  A 0.55 0.55 0.0 0 1 89.28 384.71
  C 85.26 385.38 79.47 386.66 75.87 384.31
  A 0.74 0.74 0.0 0 0 74.92 384.44
  L 74.24 385.19
  A 0.50 0.50 0.0 0 0 74.73 386.01
  Q 75.12 385.92 75.31 386.20
  Q 75.76 386.86 75.69 386.94
  L 75.40 387.23
  Q 75.00 387.63 74.53 387.32
  Q 72.32 385.91 69.83 386.08
  A 2.65 2.56 -36.1 0 1 68.75 385.93
  Q 65.05 384.56 66.52 383.90
  C 67.03 383.67 70.03 383.97 71.25 383.82
  A 1.18 1.18 0.0 0 0 71.56 381.57
  Q 68.29 380.17 66.64 376.50
  Q 66.08 375.25 65.37 374.92
  Q 64.16 374.36 63.27 375.62
  A 0.99 0.98 22.5 0 1 62.29 376.02
  L 59.05 375.46
  Q 58.59 375.38 58.31 375.75
  L 57.32 377.09
  A 0.43 0.42 57.9 0 1 56.56 376.91
  C 55.84 373.17 53.14 373.24 50.92 371.33
  Q 47.22 368.15 43.11 365.40
  Q 42.68 365.11 42.20 365.31
  Q 40.70 365.94 39.25 365.54"
/>
<path stroke="#b75f3b" vector-effect="non-scaling-stroke" d="
  M 40.21 346.50
  C 46.14 351.81 57.87 362.34 68.00 362.04
  Q 68.61 362.03 69.01 362.47
  Q 73.44 367.32 80.26 366.06
  A 1.46 1.45 -34.7 0 1 81.27 366.24
  C 86.40 369.32 89.48 366.06 94.76 366.34
  C 97.34 366.47 109.55 365.51 106.63 360.33
  A 1.68 1.62 -2.3 0 0 105.85 359.64
  Q 97.73 356.07 89.06 354.24
  A 1.00 0.99 83.6 0 1 88.34 353.66
  Q 84.51 345.02 81.24 340.98
  C 79.43 338.74 75.41 340.30 74.49 336.79
  C 73.48 332.95 71.50 329.38 70.24 325.54
  A 1.49 1.45 9.2 0 0 69.67 324.77
  C 65.07 321.65 56.67 322.16 51.50 323.26
  Q 50.39 323.49 49.73 322.18
  A 0.75 0.75 0.0 0 0 49.04 321.76
  L 48.00 321.78"
/>
<path stroke="#514139" vector-effect="non-scaling-stroke" d="
  M 210.34 398.07
  Q 208.41 397.12 207.46 398.18
  Q 204.61 401.37 200.83 401.86
  A 0.85 0.84 66.2 0 1 200.07 401.56
  L 193.96 394.47
  A 1.36 1.35 -40.9 0 1 194.10 392.56
  C 198.86 388.42 193.89 383.92 197.28 378.93
  A 1.67 1.59 63.3 0 0 197.56 378.01
  Q 197.52 374.23 200.39 371.89
  Q 200.77 371.59 200.85 371.11
  Q 201.13 369.48 202.40 368.64
  A 0.85 0.84 -47.9 0 0 202.33 367.19
  L 199.76 365.84
  A 0.88 0.86 47.4 0 0 199.03 365.80
  Q 194.63 367.65 192.18 364.05
  A 0.89 0.88 -25.1 0 0 191.20 363.70
  C 189.35 364.26 188.29 365.78 186.26 366.84
  C 183.17 368.48 181.18 371.11 181.74 374.72
  Q 182.34 378.66 182.35 378.75
  C 182.42 383.82 178.39 388.72 176.51 393.45
  Q 176.32 393.92 175.82 394.06
  Q 173.59 394.70 171.33 395.30
  C 169.25 395.86 167.73 397.58 165.03 397.23
  A 1.18 1.16 25.7 0 0 164.06 397.56
  L 163.20 398.43
  A 0.46 0.45 -17.3 0 1 162.43 398.03
  Q 163.00 394.94 161.14 392.47
  A 0.99 0.98 -59.7 0 1 160.94 391.70
  L 161.26 389.71
  Q 161.32 389.35 160.98 389.23
  Q 159.15 388.55 158.28 386.84
  A 0.84 0.83 53.3 0 1 158.41 385.90
  L 161.30 382.76
  A 0.41 0.25 -4.2 0 1 161.40 382.69
  Q 162.47 382.22 162.97 382.82
  Q 163.43 383.37 164.00 382.94
  C 165.41 381.87 169.16 380.62 168.36 378.29
  A 2.06 2.05 -21.5 0 0 165.59 377.09
  Q 161.89 378.73 158.27 376.70"
/>
<path stroke="#35302b" vector-effect="non-scaling-stroke" d="
  M 207.89 403.84
  C 205.58 401.33 203.84 401.59 201.52 404.05
  C 197.89 407.89 194.42 407.38 190.45 409.89
  Q 181.49 415.57 171.10 417.93
  Q 167.66 418.71 162.43 421.44
  Q 157.36 424.08 149.54 425.30
  Q 148.97 425.39 148.62 425.15
  Q 148.18 424.85 147.94 424.29
  Q 147.75 423.84 147.26 423.86
  Q 143.12 424.02 139.86 426.32
  A 0.78 0.78 0.0 0 0 139.98 427.67
  Q 145.85 430.40 152.20 431.71
  C 158.85 433.08 166.73 431.73 173.75 431.57
  C 177.86 431.48 182.27 433.55 186.53 434.09
  C 190.71 434.61 194.90 437.00 199.20 438.48
  C 211.42 442.69 219.66 449.30 229.29 458.75"
/>
<path stroke="#35302b" vector-effect="non-scaling-stroke" d="
  M 51.81 425.91
  L 62.07 423.48
  A 0.92 0.92 0.0 0 0 62.59 422.03
  L 57.56 415.50"
/>
<path stroke="#514139" vector-effect="non-scaling-stroke" d="
  M 40.04 374.75
  L 43.09 374.24
  A 0.87 0.86 -18.7 0 1 43.99 374.68
  Q 44.59 375.81 45.80 376.18
  Q 46.31 376.33 46.70 376.70
  L 51.41 381.13
  Q 51.70 381.41 51.79 381.81
  Q 52.94 386.95 57.74 388.85
  A 1.26 1.24 1.3 0 1 58.46 389.59
  Q 59.05 391.25 60.50 392.17
  Q 60.90 392.42 60.95 392.88
  Q 61.20 395.16 60.08 397.06
  Q 59.82 397.52 60.09 397.96
  L 64.79 405.65
  A 0.54 0.54 0.0 0 0 65.75 405.57
  Q 66.35 404.12 65.74 402.70
  A 0.70 0.70 0.0 0 1 66.57 401.74
  Q 67.67 402.03 67.93 401.18
  Q 68.11 400.59 68.73 400.70
  L 72.78 401.49
  Q 73.02 401.54 73.13 401.76
  L 73.25 402.02
  Q 73.48 402.51 72.94 402.60
  Q 70.57 402.97 68.59 404.47
  A 1.39 1.38 -38.2 0 0 68.35 406.45
  L 71.32 410.12
  Q 71.70 410.59 72.29 410.48
  L 74.73 410.02
  Q 75.23 409.92 75.63 409.59
  Q 77.81 407.73 79.71 409.85
  Q 80.12 410.30 80.06 410.91
  L 79.76 413.69
  Q 79.71 414.21 79.22 414.39
  Q 77.76 414.91 76.65 413.97
  A 0.60 0.60 0.0 0 0 75.66 414.41
  L 75.60 416.30
  Q 75.58 416.97 76.25 416.97
  Q 77.25 416.97 77.60 417.64
  Q 77.85 418.12 77.57 418.57
  Q 76.26 420.74 78.33 422.26
  Q 78.69 422.53 79.11 422.39
  Q 82.28 421.37 83.39 424.07
  A 0.71 0.71 0.0 0 0 84.63 424.21
  L 85.58 422.84
  Q 85.94 422.32 86.58 422.30
  L 97.62 422.11
  A 0.91 0.84 -63.3 0 0 98.18 421.90
  C 102.16 418.49 102.97 424.51 107.11 423.59
  A 0.81 0.81 0.0 0 0 107.75 422.80
  L 107.75 421.62
  Q 107.75 420.70 108.65 420.90
  L 112.00 421.63
  A 2.17 2.14 -58.9 0 0 113.89 421.15
  L 120.70 415.25"
/>
<path stroke="#60403e" vector-effect="non-scaling-stroke" d="
  M 126.50 412.96
  Q 130.76 412.22 133.28 408.62
  A 0.87 0.86 19.3 0 1 134.06 408.25
  C 137.74 408.56 141.55 411.08 143.36 405.97
  Q 143.53 405.50 143.28 405.07
  L 141.46 401.93"
/>
<path stroke="#514139" vector-effect="non-scaling-stroke" d="
  M 139.50 383.54
  C 140.91 387.55 146.41 384.40 148.49 382.57
  Q 151.27 380.12 154.50 378.29"
/>
<path stroke="#402222" vector-effect="non-scaling-stroke" d="
  M 205.50 315.46
  Q 199.09 320.81 193.13 328.66"
/>
<path stroke="#8b4a41" vector-effect="non-scaling-stroke" d="
  M 247.29 288.25
  Q 245.90 289.33 244.79 288.25
  Q 244.47 287.94 244.05 288.11
  Q 243.17 288.46 242.73 289.22
  Q 242.47 289.66 241.98 289.82
  C 237.81 291.13 232.57 298.35 231.07 301.97"
/>
<path stroke="#d7d0d8" vector-effect="non-scaling-stroke" d="
  M 437.17 371.98
  Q 424.42 380.46 410.96 386.28
  Q 410.45 386.50 410.01 386.15
  Q 409.19 385.47 409.46 384.00"
/>
<path stroke="#d6a997" vector-effect="non-scaling-stroke" d="
  M 409.46 384.00
  Q 409.98 376.09 410.34 368.17
  C 410.45 365.59 411.91 363.40 412.82 360.98
  C 414.74 355.88 417.60 351.02 418.25 345.75
  Q 419.74 333.52 414.50 321.04"
/>
<path stroke="#bc8c7f" vector-effect="non-scaling-stroke" d="
  M 409.46 384.00
  Q 408.73 385.52 408.66 387.28"
/>
<path stroke="#b75f3b" vector-effect="non-scaling-stroke" d="
  M 408.66 387.28
  C 407.61 382.50 409.26 378.69 408.74 374.25
  Q 407.66 364.98 411.91 356.94
  C 414.19 352.63 414.91 348.99 416.06 344.61
  C 417.82 337.85 415.18 329.78 414.28 322.99
  Q 414.21 322.45 412.88 321.83"
/>
<path stroke="#b8877c" vector-effect="non-scaling-stroke" d="
  M 408.66 387.28
  L 408.96 389.50"
/>
<path stroke="#b8877c" vector-effect="non-scaling-stroke" d="
  M 368.29 397.76
  Q 363.19 395.78 358.26 396.44
  C 354.48 396.94 352.12 396.19 348.63 395.88
  C 341.80 395.27 335.07 392.23 328.51 390.08
  A 0.59 0.59 0.0 0 0 327.74 390.68
  L 327.75 390.96"
/>
<path stroke="#b75f3b" vector-effect="non-scaling-stroke" d="
  M 252.89 376.74
  L 262.53 373.07
  A 1.06 1.03 -39.2 0 1 263.44 373.15
  Q 268.73 376.41 274.88 376.60
  C 276.72 376.65 278.19 377.43 279.96 377.50
  A 0.56 0.56 0.0 0 0 280.31 376.49
  C 276.64 373.77 274.14 371.71 271.86 367.43
  C 269.06 362.19 265.71 360.45 262.27 356.70
  C 259.57 353.77 255.86 352.51 252.63 355.70
  Q 251.78 356.54 250.66 356.15
  L 248.79 355.50"
/>
<path stroke="#a5553b" vector-effect="non-scaling-stroke" d="
  M 251.66 346.37
  Q 257.00 342.23 261.92 337.86
  Q 265.02 335.11 267.76 334.08
  C 270.95 332.88 279.94 330.49 282.90 332.97
  Q 289.20 338.22 297.80 337.85"
/>
<path stroke="#994f3e" vector-effect="non-scaling-stroke" d="
  M 367.25 344.18
  L 368.13 345.16
  Q 368.46 345.52 368.95 345.50
  Q 375.98 345.25 382.21 342.00"
/>
<path stroke="#994f3e" vector-effect="non-scaling-stroke" d="
  M 329.06 344.42
  Q 313.07 342.39 297.80 337.85"
/>
<path stroke="#8b4a41" vector-effect="non-scaling-stroke" d="
  M 297.80 337.85
  Q 291.84 334.77 286.77 330.39
  C 277.93 322.75 266.79 326.52 260.77 335.23
  Q 258.58 338.40 254.75 338.46"
/>
<path stroke="#733f3f" vector-effect="non-scaling-stroke" d="
  M 393.46 345.75
  Q 392.65 345.82 392.00 345.32"
/>
<path stroke="#b75f3b" vector-effect="non-scaling-stroke" d="
  M 461.75 367.96
  C 459.23 369.76 462.72 375.35 462.49 377.96
  Q 462.45 378.51 462.86 378.88
  L 468.34 383.82
  A 2.32 2.32 0.0 0 0 471.82 383.39
  Q 472.82 381.88 474.52 382.77
  Q 475.04 383.04 475.04 382.45
  L 475.04 382.00"
/>
<path stroke="#994f3e" vector-effect="non-scaling-stroke" d="
  M 475.27 382.96
  Q 475.85 385.85 474.26 386.18
  Q 473.78 386.27 473.56 386.71
  Q 468.82 396.13 457.39 393.39"
/>
<path stroke="#7f443d" vector-effect="non-scaling-stroke" d="
  M 325.81 418.58
  Q 324.00 422.35 324.47 426.76
  C 324.78 429.60 327.23 431.54 328.19 434.31
  Q 328.62 435.58 327.38 436.04
  Q 326.94 436.20 327.01 436.67
  Q 327.05 437.00 327.25 437.30"
/>
<path stroke="#35302b" vector-effect="non-scaling-stroke" d="
  M 479.25 414.54
  L 478.39 414.45"
/>
<path stroke="#211e1d" vector-effect="non-scaling-stroke" d="
  M 478.39 414.45
  Q 471.27 418.24 464.00 418.96"
/>
<path stroke="#35302b" vector-effect="non-scaling-stroke" d="
  M 464.00 418.96
  C 464.40 414.55 468.61 413.83 469.71 409.75"
/>
<path stroke="#151210" vector-effect="non-scaling-stroke" d="
  M 464.00 418.96
  L 460.47 419.28
  Q 459.40 419.38 460.47 419.54
  Q 470.93 421.11 478.39 414.45"
/>
<path stroke="#35302b" vector-effect="non-scaling-stroke" d="
  M 462.93 435.54
  Q 460.32 435.92 458.20 437.43
  C 454.53 440.04 455.27 445.02 457.54 448.27"
/>
<path stroke="#35302b" vector-effect="non-scaling-stroke" d="
  M 456.42 405.40
  L 449.29 407.25"
/>
<path stroke="#372f28" vector-effect="non-scaling-stroke" d="
  M 329.98 438.61
  Q 330.93 443.38 334.36 448.00
  A 1.11 1.11 0.0 0 1 333.99 449.64
  C 330.95 451.25 329.72 455.78 333.96 456.81
  Q 334.47 456.93 334.91 456.65
  Q 337.22 455.14 339.75 456.54"
/>
<path stroke="#35302b" vector-effect="non-scaling-stroke" d="
  M 350.79 456.00
  Q 350.35 455.16 349.53 454.80
  A 1.19 1.18 48.8 0 0 348.69 454.74
  L 341.00 457.04"
/>
<path stroke="#35302b" vector-effect="non-scaling-stroke" d="
  M 423.68 470.37
  Q 414.34 472.01 407.54 479.00"
/>
</g>
<path fill="#403c38" d="
  M 407.71 34.50
  L 406.73 34.20
  Q 406.39 34.09 406.44 33.73
  L 406.91 30.56
  A 0.60 0.60 0.0 0 0 405.75 30.27
  C 404.15 34.71 400.43 38.85 398.46 43.46
  Q 398.26 43.92 398.28 44.42
  Q 398.31 45.53 397.44 47.17
  C 394.63 52.50 394.24 59.73 391.13 65.86
  C 388.42 71.22 385.88 79.37 385.48 85.33
  Q 384.78 95.88 382.99 105.00
  Q 382.14 109.29 378.98 112.92
  Q 378.64 113.32 378.55 113.83
  Q 376.51 125.39 376.49 137.13
  Q 376.49 137.57 376.09 137.77
  Q 375.08 138.24 374.54 137.25
  C 375.16 104.59 383.08 72.62 396.94 42.19
  C 402.74 29.45 407.88 20.57 417.65 11.29
  Q 417.92 11.03 418.23 11.22
  L 418.51 11.39
  Q 418.84 11.59 418.55 11.83
  C 412.78 16.66 409.77 27.44 407.71 34.50
  Z"
/>
<path fill="#7f4443" d="
  M 447.95 167.94
  C 435.80 157.78 422.96 149.03 405.98 151.30
  A 1.16 1.16 0.0 0 1 404.68 150.35
  C 397.20 108.13 398.44 66.95 412.06 25.87
  C 413.52 21.47 415.20 17.99 417.62 14.35
  Q 418.40 13.17 419.08 12.96
  A 1.86 1.85 -18.8 0 1 421.38 14.08
  C 423.84 20.70 425.08 27.12 426.63 33.90
  Q 443.27 106.53 459.51 179.11
  A 0.37 0.36 -72.8 0 1 458.89 179.44
  C 455.32 175.61 451.71 171.09 447.95 167.94
  Z"
/>
<path fill="#29231e" d="
  M 407.71 34.50
  Q 394.11 80.95 399.95 129.06
  C 402.32 148.62 405.99 166.87 412.02 185.15
  A 0.37 0.37 0.0 0 1 411.50 185.59
  C 398.68 178.91 385.76 169.63 378.71 157.54
  Q 373.84 149.17 374.54 137.25
  Q 375.08 138.24 376.09 137.77
  Q 376.49 137.57 376.49 137.13
  Q 376.51 125.39 378.55 113.83
  Q 378.64 113.32 378.98 112.92
  Q 382.14 109.29 382.99 105.00
  Q 384.78 95.88 385.48 85.33
  C 385.88 79.37 388.42 71.22 391.13 65.86
  C 394.24 59.73 394.63 52.50 397.44 47.17
  Q 398.31 45.53 398.28 44.42
  Q 398.26 43.92 398.46 43.46
  C 400.43 38.85 404.15 34.71 405.75 30.27
  A 0.60 0.60 0.0 0 1 406.91 30.56
  L 406.44 33.73
  Q 406.39 34.09 406.73 34.20
  L 407.71 34.50
  Z"
/>
<path fill="#403c38" d="
  M 324.96 179.40
  Q 324.80 176.55 322.91 175.26
  Q 322.48 174.98 322.27 174.51
  C 321.51 172.84 321.03 172.00 319.69 170.36
  C 318.41 168.78 318.23 166.09 316.87 164.18
  Q 314.55 160.95 314.25 160.38
  Q 311.64 155.44 309.96 150.09
  A 1.03 0.98 8.2 0 0 309.53 149.54
  Q 309.36 149.44 309.20 149.31
  Q 308.95 149.10 308.81 148.71
  Q 305.72 139.62 302.60 130.52
  C 301.61 127.66 299.88 124.11 298.90 120.71
  C 296.78 113.30 292.44 105.61 290.70 99.51
  C 288.05 90.24 286.85 78.68 284.73 66.62
  C 284.36 64.53 284.45 59.99 281.73 59.17
  Q 281.28 59.04 281.26 58.57
  L 281.22 57.76
  Q 282.18 54.59 284.19 52.50
  A 1.11 1.10 48.3 0 1 285.86 52.60
  C 295.06 64.52 301.69 76.20 311.94 89.53
  C 328.05 110.49 345.44 130.60 362.43 151.65
  Q 363.14 152.53 362.10 152.98
  Q 341.19 162.07 324.96 179.40
  Z"
/>
<path fill="#2e2218" d="
  M 281.22 57.76
  L 281.26 58.57
  Q 281.28 59.04 281.73 59.17
  C 284.45 59.99 284.36 64.53 284.73 66.62
  C 286.85 78.68 288.05 90.24 290.70 99.51
  C 292.44 105.61 296.78 113.30 298.90 120.71
  C 299.88 124.11 301.61 127.66 302.60 130.52
  Q 305.72 139.62 308.81 148.71
  Q 308.95 149.10 309.20 149.31
  Q 309.36 149.44 309.53 149.54
  A 1.03 0.98 8.2 0 1 309.96 150.09
  Q 311.64 155.44 314.25 160.38
  Q 314.55 160.95 316.87 164.18
  C 318.23 166.09 318.41 168.78 319.69 170.36
  C 321.03 172.00 321.51 172.84 322.27 174.51
  Q 322.48 174.98 322.91 175.26
  Q 324.80 176.55 324.96 179.40
  Q 314.41 190.83 308.67 205.30
  A 0.82 0.82 0.0 0 1 307.19 205.39
  C 295.72 184.19 288.26 161.40 283.64 137.38
  Q 278.53 110.79 276.34 86.69
  Q 275.00 72.01 281.22 57.76
  Z"
/>
<path fill="#7f4443" d="
  M 407.23 185.11
  Q 403.07 187.87 398.65 189.80
  C 396.10 190.91 392.76 190.47 389.89 191.26
  Q 374.30 195.57 360.54 204.08
  Q 355.02 207.48 354.06 209.06
  C 351.95 212.49 348.63 214.80 346.69 218.03
  Q 341.07 227.34 334.10 235.68
  A 1.52 1.49 67.1 0 0 333.75 236.56
  Q 333.54 240.01 332.47 243.25
  C 331.72 245.50 329.90 247.64 328.74 249.95
  Q 328.53 250.38 328.80 250.78
  Q 329.65 252.05 328.76 253.35
  Q 328.50 253.74 328.52 254.21
  C 328.74 258.82 326.02 261.96 328.17 266.52
  Q 327.89 274.08 330.25 282.75
  Q 330.75 284.58 329.46 286.50
  Q 325.74 277.96 320.39 270.35
  C 316.20 264.40 311.80 264.03 306.77 269.08
  A 0.36 0.36 0.0 0 1 306.17 268.94
  L 304.71 264.28
  Q 304.55 263.76 305.05 263.97
  C 315.53 268.26 318.75 245.22 316.41 239.67
  A 0.72 0.72 0.0 0 0 315.13 239.57
  Q 310.39 247.09 303.76 253.05
  A 0.62 0.62 0.0 0 1 302.72 252.60
  L 302.54 237.50
  L 302.75 241.24
  A 0.24 0.24 0.0 0 0 303.22 241.30
  Q 303.37 240.83 303.90 241.35
  A 0.78 0.78 0.0 0 0 305.23 240.84
  Q 305.47 236.46 306.81 232.30
  C 307.62 229.77 307.44 226.96 308.33 224.57
  Q 311.10 217.13 311.73 210.41
  Q 311.77 209.96 311.62 209.61
  Q 311.44 209.16 311.24 208.69
  Q 311.06 208.27 311.25 207.86
  C 314.09 202.02 316.70 195.69 320.17 190.64
  Q 327.44 180.07 337.49 171.93
  Q 337.88 171.62 338.39 171.63
  Q 341.44 171.72 343.72 170.23
  Q 353.86 163.62 366.78 153.65
  Q 369.18 151.80 372.99 151.82
  Q 373.46 151.82 373.67 152.24
  Q 381.85 168.05 396.22 178.30
  C 399.32 180.51 403.53 182.76 407.23 185.11
  Z"
/>
<path fill="#964f3e" d="
  M 447.26 169.56
  Q 436.37 167.48 427.16 162.29
  Q 426.73 162.05 426.23 162.07
  L 407.38 162.96
  L 405.43 153.82
  Q 405.21 152.78 406.26 152.68
  C 422.98 151.16 436.06 159.53 447.26 169.56
  Z"
/>
<path fill="#964f3e" d="
  M 366.78 153.65
  Q 353.86 163.62 343.72 170.23
  Q 341.44 171.72 338.39 171.63
  Q 337.88 171.62 337.49 171.93
  Q 327.44 180.07 320.17 190.64
  C 316.70 195.69 314.09 202.02 311.25 207.86
  Q 311.06 208.27 311.24 208.69
  Q 311.44 209.16 311.62 209.61
  Q 311.77 209.96 311.73 210.41
  Q 311.10 217.13 308.33 224.57
  C 307.44 226.96 307.62 229.77 306.81 232.30
  Q 305.47 236.46 305.23 240.84
  A 0.78 0.78 0.0 0 1 303.90 241.35
  Q 303.37 240.83 303.22 241.30
  A 0.24 0.24 0.0 0 1 302.75 241.24
  L 302.54 237.50
  C 304.44 216.12 313.02 193.76 328.31 178.31
  Q 339.27 167.24 355.33 157.60
  Q 361.10 154.14 366.78 153.65
  Z"
/>
<path fill="#b35a38" d="
  M 447.26 169.56
  L 458.80 181.66
  A 1.14 1.14 0.0 0 0 460.51 181.58
  Q 461.27 180.63 462.32 181.90
  Q 467.35 188.00 470.46 195.25
  Q 470.20 195.19 469.99 195.25
  A 0.63 0.62 -13.1 0 0 469.53 195.98
  L 472.30 209.38
  Q 472.42 209.96 472.25 210.53
  C 471.04 214.67 473.30 216.72 473.79 220.13
  C 474.30 223.68 474.25 226.84 475.37 230.41
  Q 476.78 234.88 476.91 239.57
  Q 476.93 240.09 477.45 240.11
  Q 477.87 240.13 478.21 240.00
  C 477.31 246.14 475.95 253.19 472.97 258.69
  Q 472.72 259.16 472.18 259.18
  L 467.01 259.39
  A 0.63 0.63 0.0 0 0 467.03 260.65
  C 477.33 260.80 489.03 262.63 497.63 268.59
  A 1.71 1.71 0.0 0 1 498.26 270.63
  C 496.03 276.33 468.62 282.12 462.47 283.41
  Q 461.79 283.55 462.37 283.93
  C 465.13 285.68 478.30 296.32 467.41 297.90
  C 455.93 299.56 447.23 300.48 436.39 298.75
  A 0.33 0.33 0.0 0 0 436.20 299.38
  L 438.81 300.55
  A 0.54 0.53 37.0 0 1 438.94 301.44
  Q 427.31 311.43 414.12 319.03
  Q 412.11 320.18 410.88 322.03
  C 406.29 328.89 402.40 335.97 397.42 342.50
  Q 395.52 345.00 396.42 341.99
  C 398.49 335.05 399.16 327.33 399.47 321.50
  Q 399.59 319.37 400.11 318.17
  C 401.60 314.76 398.03 312.56 395.05 312.10
  Q 394.64 312.04 394.53 312.44
  Q 394.36 313.14 394.96 313.29
  Q 397.77 314.00 398.93 316.05
  Q 399.21 316.54 398.99 317.06
  C 394.71 327.41 386.69 331.49 376.37 333.97
  A 1.51 1.51 0.0 0 0 375.56 334.48
  C 366.69 345.49 350.83 351.73 337.51 354.57
  A 0.49 0.49 0.0 0 1 337.14 353.67
  Q 339.48 352.18 340.90 349.76
  Q 341.15 349.32 340.93 348.86
  C 339.43 345.76 333.80 348.15 331.55 349.13
  Q 331.01 349.37 331.01 348.78
  C 330.92 335.70 333.03 322.50 333.97 309.43
  Q 334.83 297.32 329.46 286.50
  Q 330.75 284.58 330.25 282.75
  Q 327.89 274.08 328.17 266.52
  C 330.68 253.85 332.71 242.26 341.95 232.94
  Q 343.59 231.30 344.84 229.03
  C 348.55 222.36 355.18 218.08 361.69 214.45
  C 365.71 212.21 374.73 207.51 375.95 203.33
  Q 376.10 202.82 376.56 202.57
  Q 382.02 199.52 387.63 196.76
  C 393.97 193.65 402.85 191.03 410.18 186.90
  L 411.99 187.22
  A 1.38 1.38 0.0 0 0 413.56 185.50
  L 407.38 162.96
  L 426.23 162.07
  Q 426.73 162.05 427.16 162.29
  Q 436.37 167.48 447.26 169.56
  Z"
/>
<path stroke="#5e3220" stroke-width="2.00" fill="none" stroke-linecap="butt" vector-effect="non-scaling-stroke" d="
  M 355.97 317.54
  Q 353.99 318.11 353.81 315.19
  Q 353.55 310.94 353.21 308.75"
/>
<path fill="#964f3e" d="
  M 407.23 185.11
  Q 408.36 185.36 410.18 186.90
  C 402.85 191.03 393.97 193.65 387.63 196.76
  Q 382.02 199.52 376.56 202.57
  Q 376.10 202.82 375.95 203.33
  C 374.73 207.51 365.71 212.21 361.69 214.45
  C 355.18 218.08 348.55 222.36 344.84 229.03
  Q 343.59 231.30 341.95 232.94
  C 332.71 242.26 330.68 253.85 328.17 266.52
  C 326.02 261.96 328.74 258.82 328.52 254.21
  Q 328.50 253.74 328.76 253.35
  Q 329.65 252.05 328.80 250.78
  Q 328.53 250.38 328.74 249.95
  C 329.90 247.64 331.72 245.50 332.47 243.25
  Q 333.54 240.01 333.75 236.56
  A 1.52 1.49 67.1 0 1 334.10 235.68
  Q 341.07 227.34 346.69 218.03
  C 348.63 214.80 351.95 212.49 354.06 209.06
  Q 355.02 207.48 360.54 204.08
  Q 374.30 195.57 389.89 191.26
  C 392.76 190.47 396.10 190.91 398.65 189.80
  Q 403.07 187.87 407.23 185.11
  Z"
/>
<path fill="#bb643e" d="
  M 470.46 195.25
  Q 480.39 216.50 478.21 240.00
  Q 477.87 240.13 477.45 240.11
  Q 476.93 240.09 476.91 239.57
  Q 476.78 234.88 475.37 230.41
  C 474.25 226.84 474.30 223.68 473.79 220.13
  C 473.30 216.72 471.04 214.67 472.25 210.53
  Q 472.42 209.96 472.30 209.38
  L 469.53 195.98
  A 0.63 0.62 -13.1 0 1 469.99 195.25
  Q 470.20 195.19 470.46 195.25
  Z"
/>
<path fill="#010001" d="
  M 371.00 237.96
  C 377.92 240.68 375.98 249.94 368.37 249.72
  C 360.25 249.48 346.95 242.33 344.91 233.76
  A 0.99 0.99 0.0 0 1 346.33 232.65
  Q 353.61 236.42 361.43 237.14
  C 363.82 237.36 367.82 236.71 371.00 237.96
  Z"
/>
<path fill="#010001" d="
  M 355.97 317.54
  Q 353.99 318.11 353.81 315.19
  Q 353.55 310.94 353.21 308.75
  Q 353.02 300.98 353.09 293.27
  C 353.23 278.98 360.77 253.07 377.13 249.16
  Q 390.97 245.85 405.26 246.90
  C 414.37 247.58 425.97 240.90 432.16 234.83
  A 1.31 1.31 0.0 0 1 434.35 235.48
  C 437.97 251.97 433.60 272.96 424.84 287.33
  C 418.82 297.19 407.32 308.21 394.74 309.39
  C 387.08 310.11 375.55 306.57 367.02 305.89
  C 362.62 305.54 358.86 314.18 355.97 317.54
  Z"
/>
<path fill="#f0edf0" d="
  M 373.29 245.22
  C 368.22 252.57 355.05 244.02 350.53 239.97
  C 349.08 238.67 348.26 237.06 347.29 235.40
  A 0.31 0.30 88.3 0 1 347.69 234.97
  Q 356.64 239.62 366.71 238.94
  Q 373.37 238.49 373.57 244.27
  Q 373.58 244.79 373.29 245.22
  Z"
/>
<path fill="#403c38" d="
  M 368.19 256.44
  C 374.94 248.74 390.13 247.95 399.49 248.24
  C 412.57 248.65 422.79 245.67 432.49 236.53
  Q 432.92 236.12 433.08 236.70
  C 436.51 249.25 433.08 264.75 428.49 276.48
  C 422.75 291.13 407.34 309.58 390.49 307.68
  Q 383.23 306.87 373.56 305.14
  C 370.57 304.61 363.50 303.47 361.70 306.47
  Q 359.29 310.49 356.39 314.61
  A 0.50 0.50 0.0 0 1 355.49 314.35
  C 354.09 293.16 353.28 273.44 368.19 256.44
  Z"
/>
<path fill="#bdb3bf" d="
  M 306.45 262.98
  Q 302.91 260.14 303.44 255.44
  Q 303.50 254.98 303.82 254.65
  L 315.17 242.86
  Q 315.61 242.40 315.67 243.03
  C 316.20 249.11 314.56 260.48 307.82 263.18
  A 1.38 1.37 53.1 0 1 306.45 262.98
  Z"
/>
<path fill="#b35a38" d="
  M 242.14 284.45
  Q 230.67 289.62 231.07 301.97
  Q 231.01 303.84 229.95 305.41
  Q 229.66 305.85 229.15 305.74
  C 226.95 305.30 220.08 305.12 220.23 308.71
  Q 212.28 309.81 206.42 315.48
  L 205.50 315.46
  Q 205.59 315.05 205.34 314.70
  A 0.43 0.42 -33.5 0 0 204.76 314.59
  Q 196.57 319.61 193.13 328.66
  Q 195.47 332.94 203.98 345.28
  Q 208.68 352.11 210.67 354.10
  C 214.19 367.40 215.47 381.54 211.65 394.62
  Q 209.09 395.35 208.39 392.56
  A 1.23 1.23 0.0 0 0 206.73 391.72
  L 201.05 394.09
  A 0.52 0.52 0.0 0 1 200.36 393.45
  Q 201.38 390.40 204.04 388.04
  Q 205.03 387.16 203.60 386.24
  A 0.59 0.59 0.0 0 0 202.90 386.30
  L 200.53 388.41
  Q 199.86 389.01 199.77 388.12
  Q 199.56 386.17 200.44 384.43
  A 1.47 1.43 55.1 0 0 200.59 383.51
  C 199.97 379.69 200.92 377.41 203.70 374.51
  Q 207.66 370.39 210.77 365.61
  A 1.07 1.07 0.0 0 0 209.67 363.98
  L 208.96 364.12
  A 1.16 1.13 59.6 0 1 207.98 363.85
  L 202.67 359.12
  Q 202.20 358.70 201.59 358.82
  L 195.91 359.86
  A 0.70 0.69 73.0 0 1 195.15 359.45
  L 193.98 356.79
  Q 193.80 356.39 193.37 356.48
  Q 190.82 357.04 188.86 358.75
  Q 188.46 359.10 187.94 359.00
  Q 182.99 358.09 180.28 362.42
  A 1.72 1.62 -84.4 0 1 179.57 363.04
  Q 176.12 364.59 177.42 368.20
  Q 177.59 368.67 177.23 369.00
  L 174.99 371.04
  Q 174.61 371.38 174.13 371.25
  Q 173.14 370.97 172.81 371.85
  Q 172.59 372.44 171.99 372.23
  C 167.94 370.81 162.01 375.04 158.27 376.70
  L 154.50 378.29
  C 150.44 374.40 146.20 379.93 142.82 383.15
  A 1.25 1.25 0.0 0 1 141.99 383.49
  L 139.50 383.54
  Q 139.02 382.96 138.33 382.69
  Q 137.72 382.44 137.81 383.10
  L 138.02 384.51
  Q 138.10 385.04 137.68 385.36
  C 134.58 387.74 131.09 385.98 128.37 388.40
  Q 128.06 388.68 128.13 389.10
  L 128.57 391.40
  A 0.73 0.72 18.0 0 1 127.33 392.03
  Q 125.45 390.04 122.88 389.26
  Q 122.34 389.10 122.31 389.65
  L 122.11 392.56
  Q 122.08 393.00 122.25 393.41
  Q 123.32 395.91 120.51 396.50
  A 0.86 0.86 0.0 0 0 119.89 397.64
  L 121.29 401.30
  A 0.52 0.52 0.0 0 0 122.27 400.97
  Q 121.93 399.85 121.47 398.77
  A 0.44 0.44 0.0 0 1 122.05 398.20
  L 123.79 398.97
  A 0.93 0.91 -35.3 0 0 124.23 399.04
  Q 128.05 398.67 131.64 397.38
  A 1.36 1.33 -48.1 0 1 132.41 397.33
  Q 134.37 397.80 135.53 399.45
  A 0.91 0.91 0.0 0 0 136.51 399.82
  Q 140.43 398.86 141.46 401.93
  L 134.06 405.20
  Q 133.56 405.41 133.14 405.07
  Q 131.95 404.08 130.98 404.98
  C 130.31 405.60 130.46 406.73 130.51 407.57
  A 1.29 1.28 -27.3 0 1 130.22 408.46
  L 126.50 412.96
  Q 123.23 413.45 120.70 415.25
  Q 116.30 415.00 112.50 416.37
  A 1.35 1.33 48.0 0 1 111.48 416.31
  L 108.46 414.82
  Q 108.04 414.61 107.71 414.94
  Q 106.61 416.06 105.63 414.82
  A 0.88 0.87 23.5 0 0 104.07 415.43
  Q 104.16 416.60 103.25 416.74
  C 102.30 416.88 101.52 415.92 100.87 415.29
  A 1.07 1.06 65.1 0 0 100.06 414.99
  L 92.15 415.41
  A 0.67 0.67 0.0 0 1 92.07 414.07
  L 93.84 413.96
  A 0.57 0.57 0.0 0 0 94.28 413.08
  L 93.27 411.56
  Q 92.92 411.04 92.36 411.31
  L 89.27 412.79
  A 0.35 0.34 -78.9 0 1 88.89 412.22
  Q 89.95 411.24 89.74 409.77
  Q 89.65 409.07 89.05 409.43
  Q 87.33 410.44 85.27 410.02
  Q 84.67 409.91 84.45 409.34
  L 83.67 407.37
  Q 83.49 406.92 83.03 406.77
  C 81.85 406.37 81.12 406.88 80.21 406.58
  Q 79.52 406.35 79.35 405.74
  Q 79.19 405.19 79.75 405.05
  Q 82.51 404.34 84.37 402.19
  Q 84.69 401.81 84.34 401.47
  Q 84.22 401.35 84.11 401.24
  Q 83.82 400.97 84.17 400.78
  L 91.12 397.05
  A 0.85 0.83 35.8 0 1 91.72 396.96
  Q 93.80 397.36 94.31 395.46
  A 1.16 1.13 37.1 0 0 94.17 394.55
  Q 93.68 393.75 94.31 393.05
  Q 94.80 392.51 95.13 393.16
  L 95.72 394.32
  A 1.67 1.67 0.0 0 0 98.35 394.79
  L 103.29 390.20
  A 0.64 0.64 0.0 0 0 102.85 389.09
  Q 101.35 389.11 100.37 390.36
  A 0.72 0.72 0.0 0 1 99.09 389.83
  L 99.29 388.14
  Q 99.38 387.39 98.63 387.42
  L 96.03 387.51
  Q 95.62 387.52 95.55 387.11
  Q 95.19 384.79 96.18 382.71
  A 0.67 0.67 0.0 0 0 95.30 381.81
  Q 92.75 382.99 90.25 381.74
  A 0.56 0.56 0.0 0 0 89.45 382.33
  L 89.73 384.08
  A 0.55 0.55 0.0 0 1 89.28 384.71
  C 85.26 385.38 79.47 386.66 75.87 384.31
  A 0.74 0.74 0.0 0 0 74.92 384.44
  L 74.24 385.19
  A 0.50 0.50 0.0 0 0 74.73 386.01
  Q 75.12 385.92 75.31 386.20
  Q 75.76 386.86 75.69 386.94
  L 75.40 387.23
  Q 75.00 387.63 74.53 387.32
  Q 72.32 385.91 69.83 386.08
  A 2.65 2.56 -36.1 0 1 68.75 385.93
  Q 65.05 384.56 66.52 383.90
  C 67.03 383.67 70.03 383.97 71.25 383.82
  A 1.18 1.18 0.0 0 0 71.56 381.57
  Q 68.29 380.17 66.64 376.50
  Q 66.08 375.25 65.37 374.92
  Q 64.16 374.36 63.27 375.62
  A 0.99 0.98 22.5 0 1 62.29 376.02
  L 59.05 375.46
  Q 58.59 375.38 58.31 375.75
  L 57.32 377.09
  A 0.43 0.42 57.9 0 1 56.56 376.91
  C 55.84 373.17 53.14 373.24 50.92 371.33
  Q 47.22 368.15 43.11 365.40
  Q 42.68 365.11 42.20 365.31
  Q 40.70 365.94 39.25 365.54
  Q 38.45 355.91 40.21 346.50
  C 46.14 351.81 57.87 362.34 68.00 362.04
  Q 68.61 362.03 69.01 362.47
  Q 73.44 367.32 80.26 366.06
  A 1.46 1.45 -34.7 0 1 81.27 366.24
  C 86.40 369.32 89.48 366.06 94.76 366.34
  C 97.34 366.47 109.55 365.51 106.63 360.33
  A 1.68 1.62 -2.3 0 0 105.85 359.64
  Q 97.73 356.07 89.06 354.24
  A 1.00 0.99 83.6 0 1 88.34 353.66
  Q 84.51 345.02 81.24 340.98
  C 79.43 338.74 75.41 340.30 74.49 336.79
  C 73.48 332.95 71.50 329.38 70.24 325.54
  A 1.49 1.45 9.2 0 0 69.67 324.77
  C 65.07 321.65 56.67 322.16 51.50 323.26
  Q 50.39 323.49 49.73 322.18
  A 0.75 0.75 0.0 0 0 49.04 321.76
  L 48.00 321.78
  C 62.92 294.75 86.17 275.37 115.52 266.41
  C 143.69 257.81 171.62 256.49 200.09 263.93
  C 215.06 267.84 229.24 275.95 242.14 284.45
  Z"
/>
<path fill="#2e2218" d="
  M 318.52 291.64
  C 322.50 297.90 325.89 302.68 331.30 307.93
  C 332.34 308.94 332.64 310.21 332.17 311.46
  Q 331.89 312.20 331.32 311.65
  Q 314.23 295.17 307.24 272.39
  Q 307.09 271.93 307.26 271.48
  C 308.70 267.53 313.82 265.10 317.08 268.90
  Q 323.30 276.19 327.09 284.98
  Q 327.34 285.56 326.73 285.74
  Q 322.42 287.06 318.86 289.75
  Q 317.82 290.54 318.52 291.64
  Z"
/>
<path fill="#010001" d="
  M 397.43 299.38
  C 384.75 301.39 372.03 288.65 366.13 278.53
  A 1.31 1.31 0.0 0 1 366.90 276.61
  Q 374.83 274.33 383.42 273.26
  Q 400.19 271.17 417.09 269.30
  Q 417.95 269.21 418.08 270.07
  C 420.11 283.72 411.09 297.21 397.43 299.38
  Z"
/>
<path stroke="#d7d0d8" stroke-width="2.00" fill="none" stroke-linecap="butt" vector-effect="non-scaling-stroke" d="
  M 373.61 285.34
  Q 370.70 279.75 374.46 276.50"
/>
<path fill="#f0edf0" d="
  M 373.61 285.34
  Q 370.70 279.75 374.46 276.50
  L 390.00 274.33
  Q 390.92 274.21 391.14 275.11
  Q 393.30 284.20 398.76 289.23
  C 406.99 296.83 408.33 275.42 408.12 272.28
  A 0.58 0.57 85.3 0 1 408.63 271.67
  L 416.16 270.91
  Q 416.73 270.86 416.74 271.43
  Q 416.94 281.68 411.38 289.08
  C 405.55 296.84 394.85 300.65 385.89 295.84
  Q 378.58 291.91 373.61 285.34
  Z"
/>
<path fill="#fcd22a" d="
  M 403.09 288.84
  C 398.25 292.21 392.97 277.11 392.65 274.27
  Q 392.59 273.79 393.06 273.73
  L 406.13 271.90
  Q 406.60 271.84 406.64 272.31
  C 406.96 276.08 406.47 286.49 403.09 288.84
  Z"
/>
<path fill="#bb643e" d="
  M 130.0174 272.4395
  A 8.69 0.58 -12.7 0 1 121.6675 274.9158
  A 8.69 0.58 -12.7 0 1 113.0626 276.2605
  A 8.69 0.58 -12.7 0 1 121.4125 273.7842
  A 8.69 0.58 -12.7 0 1 130.0174 272.4395
  Z"
/>
<path fill="#f0edf0" d="
  M 434.80 276.46
  A 0.48 0.48 0.0 0 1 434.60 275.74
  C 436.66 272.84 445.16 270.18 444.76 275.83
  A 2.01 2.01 0.0 0 1 442.98 277.70
  Q 438.70 278.18 434.80 276.46
  Z"
/>
<path fill="#010001" d="
  M 401.0681 281.2524
  A 4.04 1.81 81.2 0 1 398.6613 277.5369
  A 4.04 1.81 81.2 0 1 399.8319 273.2676
  A 4.04 1.81 81.2 0 1 402.2387 276.9831
  A 4.04 1.81 81.2 0 1 401.0681 281.2524
  Z"
/>
<path fill="#bdb3bf" d="
  M 374.46 276.50
  Q 370.70 279.75 373.61 285.34
  L 368.07 278.29
  A 0.43 0.43 0.0 0 1 368.33 277.60
  L 374.46 276.50
  Z"
/>
<path fill="#bb643e" d="
  M 128.47 282.72
  A 0.56 0.56 0.0 0 1 128.03 281.70
  Q 133.47 278.76 139.69 278.54
  A 0.24 0.24 0.0 0 1 139.77 279.00
  L 128.47 282.72
  Z"
/>
<path fill="#964f3e" d="
  M 242.14 284.45
  L 247.29 288.25
  Q 245.90 289.33 244.79 288.25
  Q 244.47 287.94 244.05 288.11
  Q 243.17 288.46 242.73 289.22
  Q 242.47 289.66 241.98 289.82
  C 237.81 291.13 232.57 298.35 231.07 301.97
  Q 230.67 289.62 242.14 284.45
  Z"
/>
<path fill="#f0edf0" d="
  M 429.04 288.28
  A 3.30 3.03 -2.4 0 1 428.53 287.85
  Q 428.04 287.34 428.48 286.83
  Q 428.71 286.56 429.24 286.41
  C 434.76 284.87 443.13 283.55 446.14 290.02
  A 0.87 0.86 -27.9 0 1 445.80 291.12
  C 440.06 294.56 434.04 291.78 429.04 288.28
  Z"
/>
<path fill="#bdb3bf" d="
  M 331.54 306.36
  Q 324.42 299.75 320.56 290.80
  A 0.37 0.37 0.0 0 1 320.73 290.32
  L 325.74 287.59
  Q 326.49 287.18 326.69 288.01
  Q 328.07 293.60 331.33 298.34
  A 2.17 2.13 26.1 0 1 331.71 299.42
  L 332.24 306.02
  A 0.42 0.42 0.0 0 1 331.54 306.36
  Z"
/>
<path fill="#7f4443" d="
  M 247.29 288.25
  L 274.34 312.03
  A 1.02 1.02 0.0 0 1 274.22 313.65
  Q 268.63 317.26 264.05 322.05
  A 0.92 0.91 -48.1 0 1 262.81 322.12
  Q 244.62 306.89 220.23 308.71
  C 220.08 305.12 226.95 305.30 229.15 305.74
  Q 229.66 305.85 229.95 305.41
  Q 231.01 303.84 231.07 301.97
  C 232.57 298.35 237.81 291.13 241.98 289.82
  Q 242.47 289.66 242.73 289.22
  Q 243.17 288.46 244.05 288.11
  Q 244.47 287.94 244.79 288.25
  Q 245.90 289.33 247.29 288.25
  Z"
/>
<path fill="#7f4443" d="
  M 331.45 295.01
  A 0.07 0.07 0.0 0 1 331.41 295.11
  L 331.28 295.16
  A 3.55 0.84 67.7 0 1 329.15 292.20
  L 329.01 291.85
  A 3.55 0.84 67.7 0 1 328.44 288.24
  L 328.58 288.19
  A 0.07 0.07 0.0 0 1 328.67 288.22
  L 331.45 295.01
  Z"
/>
<path fill="#964f3e" d="
  M 318.21 299.94
  C 315.50 298.74 312.41 296.91 313.40 293.38
  A 0.43 0.43 0.0 0 1 314.21 293.34
  Q 315.62 296.93 318.45 299.58
  A 0.22 0.22 0.0 0 1 318.21 299.94
  Z"
/>
<path fill="#f0edf0" d="
  M 437.17 371.98
  Q 424.42 380.46 410.96 386.28
  Q 410.45 386.50 410.01 386.15
  Q 409.19 385.47 409.46 384.00
  Q 409.98 376.09 410.34 368.17
  C 410.45 365.59 411.91 363.40 412.82 360.98
  C 414.74 355.88 417.60 351.02 418.25 345.75
  Q 419.74 333.52 414.50 321.04
  Q 426.77 313.98 437.79 304.59
  A 0.26 0.26 0.0 0 1 438.20 304.88
  Q 435.14 312.62 437.14 320.55
  C 439.15 328.49 440.55 336.59 441.81 344.67
  C 442.16 346.89 441.87 349.39 441.98 351.98
  Q 442.41 362.04 437.17 371.98
  Z"
/>
<path fill="#bb643e" d="
  M 353.21 308.75
  Q 353.55 310.94 353.81 315.19
  Q 353.99 318.11 355.97 317.54
  Q 356.29 317.51 356.52 317.59
  Q 356.95 317.74 356.92 318.20
  Q 356.87 318.73 356.47 318.75
  Q 356.20 318.77 356.21 319.04
  C 356.44 327.75 351.46 329.89 348.16 335.79
  Q 347.93 336.21 347.49 336.44
  Q 345.73 337.34 344.76 338.59
  A 1.15 1.14 -17.5 0 1 342.76 337.55
  Q 345.48 328.85 346.35 319.58
  C 346.58 317.18 347.67 315.81 348.86 313.80
  A 0.93 0.93 0.0 0 0 348.80 312.76
  Q 345.93 308.97 349.36 305.29
  Q 349.70 304.93 350.19 305.01
  L 352.49 305.36
  Q 352.99 305.44 353.02 305.94
  L 353.21 308.75
  Z"
/>
<path fill="#7f4443" d="
  M 329.06 344.42
  Q 313.07 342.39 297.80 337.85
  Q 291.84 334.77 286.77 330.39
  C 277.93 322.75 266.79 326.52 260.77 335.23
  Q 258.58 338.40 254.75 338.46
  Q 257.22 332.41 262.58 326.11
  Q 280.47 305.09 306.50 309.94
  C 313.89 311.32 322.38 315.48 330.82 317.15
  Q 331.36 317.26 331.44 317.79
  Q 331.66 319.18 331.54 320.50
  Q 330.48 332.90 329.06 344.42
  Z"
/>
<path fill="#010001" d="
  M 205.50 315.46
  Q 199.09 320.81 193.13 328.66
  Q 196.57 319.61 204.76 314.59
  A 0.43 0.42 -33.5 0 1 205.34 314.70
  Q 205.59 315.05 205.50 315.46
  Z"
/>
<path fill="#f0edf0" d="
  M 374.15 314.75
  C 377.01 314.94 382.43 319.69 378.05 322.01
  A 1.77 1.77 0.0 0 1 375.74 321.42
  Q 373.93 318.70 373.54 315.39
  Q 373.46 314.70 374.15 314.75
  Z"
/>
<path fill="#7f4443" d="
  M 205.50 315.46
  L 206.42 315.48
  C 203.60 319.17 203.60 322.31 204.67 326.97
  C 206.73 336.01 209.43 344.83 210.67 354.10
  Q 208.68 352.11 203.98 345.28
  Q 195.47 332.94 193.13 328.66
  Q 199.09 320.81 205.50 315.46
  Z"
/>
<path fill="#f0edf0" d="
  M 369.46 330.00
  C 367.47 333.61 363.96 329.38 363.19 327.32
  C 362.13 324.49 361.95 319.97 362.86 316.90
  A 0.71 0.71 0.0 0 1 363.99 316.55
  C 367.33 319.26 371.93 325.49 369.46 330.00
  Z"
/>
<path fill="#bb643e" d="
  M 414.50 321.04
  Q 419.74 333.52 418.25 345.75
  C 417.60 351.02 414.74 355.88 412.82 360.98
  C 411.91 363.40 410.45 365.59 410.34 368.17
  Q 409.98 376.09 409.46 384.00
  Q 408.73 385.52 408.66 387.28
  C 407.61 382.50 409.26 378.69 408.74 374.25
  Q 407.66 364.98 411.91 356.94
  C 414.19 352.63 414.91 348.99 416.06 344.61
  C 417.82 337.85 415.18 329.78 414.28 322.99
  Q 414.21 322.45 412.88 321.83
  L 414.50 321.04
  Z"
/>
<path fill="#bb643e" d="
  M 48.00 321.78
  L 49.04 321.76
  A 0.75 0.75 0.0 0 1 49.73 322.18
  Q 50.39 323.49 51.50 323.26
  C 56.67 322.16 65.07 321.65 69.67 324.77
  A 1.49 1.45 9.2 0 1 70.24 325.54
  C 71.50 329.38 73.48 332.95 74.49 336.79
  C 75.41 340.30 79.43 338.74 81.24 340.98
  Q 84.51 345.02 88.34 353.66
  A 1.00 0.99 83.6 0 0 89.06 354.24
  Q 97.73 356.07 105.85 359.64
  A 1.68 1.62 -2.3 0 1 106.63 360.33
  C 109.55 365.51 97.34 366.47 94.76 366.34
  C 89.48 366.06 86.40 369.32 81.27 366.24
  A 1.46 1.45 -34.7 0 0 80.26 366.06
  Q 73.44 367.32 69.01 362.47
  Q 68.61 362.03 68.00 362.04
  C 57.87 362.34 46.14 351.81 40.21 346.50
  Q 41.38 333.16 48.00 321.78
  Z"
/>
<path fill="#b35a38" d="
  M 412.88 321.83
  Q 414.21 322.45 414.28 322.99
  C 415.18 329.78 417.82 337.85 416.06 344.61
  C 414.91 348.99 414.19 352.63 411.91 356.94
  Q 407.66 364.98 408.74 374.25
  C 409.26 378.69 407.61 382.50 408.66 387.28
  L 408.96 389.50
  Q 407.96 389.22 407.79 390.06
  C 405.91 399.41 402.81 408.08 403.72 415.50
  Q 405.54 430.39 409.67 444.82
  A 0.33 0.33 0.0 0 1 409.23 445.22
  Q 400.24 441.49 390.53 440.95
  Q 390.09 440.93 389.83 440.57
  C 380.53 428.15 374.54 411.00 369.42 396.52
  A 0.51 0.50 60.1 0 0 368.62 396.30
  Q 368.20 396.66 368.29 397.76
  Q 363.19 395.78 358.26 396.44
  C 354.48 396.94 352.12 396.19 348.63 395.88
  C 341.80 395.27 335.07 392.23 328.51 390.08
  A 0.59 0.59 0.0 0 0 327.74 390.68
  L 327.75 390.96
  Q 323.07 388.73 318.02 387.19
  Q 316.31 386.67 317.38 384.07
  A 0.45 0.45 0.0 0 0 316.75 383.51
  C 315.58 384.15 315.57 385.84 315.12 386.80
  C 307.53 403.12 292.49 416.12 277.94 426.20
  Q 272.66 429.85 266.87 432.60
  C 262.77 434.55 260.66 436.86 260.15 441.18
  Q 259.32 448.25 260.30 455.86
  Q 260.36 456.33 260.11 456.74
  C 256.84 462.19 244.65 455.34 241.20 452.35
  Q 240.87 452.06 240.77 451.62
  C 238.28 440.95 240.00 435.02 246.03 426.02
  Q 250.18 419.83 252.35 415.34
  C 257.65 404.39 255.77 388.10 252.89 376.74
  L 262.53 373.07
  A 1.06 1.03 -39.2 0 1 263.44 373.15
  Q 268.73 376.41 274.88 376.60
  C 276.72 376.65 278.19 377.43 279.96 377.50
  A 0.56 0.56 0.0 0 0 280.31 376.49
  C 276.64 373.77 274.14 371.71 271.86 367.43
  C 269.06 362.19 265.71 360.45 262.27 356.70
  C 259.57 353.77 255.86 352.51 252.63 355.70
  Q 251.78 356.54 250.66 356.15
  L 248.79 355.50
  Q 249.40 350.25 251.66 346.37
  Q 257.00 342.23 261.92 337.86
  Q 265.02 335.11 267.76 334.08
  C 270.95 332.88 279.94 330.49 282.90 332.97
  Q 289.20 338.22 297.80 337.85
  Q 313.07 342.39 329.06 344.42
  Q 329.35 348.36 329.58 351.49
  C 330.53 364.11 361.80 347.63 367.25 344.18
  L 368.13 345.16
  Q 368.46 345.52 368.95 345.50
  Q 375.98 345.25 382.21 342.00
  Q 383.49 346.44 385.92 350.36
  C 391.79 359.83 411.27 324.34 412.88 321.83
  Z"
/>
<path fill="#7f4443" d="
  M 393.46 345.75
  Q 392.65 345.82 392.00 345.32
  Q 386.25 341.61 386.81 334.65
  Q 386.84 334.19 387.31 334.18
  Q 388.16 334.17 388.84 334.74
  A 1.32 1.32 0.0 0 0 390.85 334.37
  C 392.79 330.84 393.51 327.35 396.81 324.56
  Q 397.22 324.22 397.21 324.75
  C 397.07 331.84 396.58 339.95 393.46 345.75
  Z"
/>
<path fill="#964f3e" d="
  M 297.80 337.85
  Q 289.20 338.22 282.90 332.97
  C 279.94 330.49 270.95 332.88 267.76 334.08
  Q 265.02 335.11 261.92 337.86
  Q 257.00 342.23 251.66 346.37
  Q 252.63 341.79 254.75 338.46
  Q 258.58 338.40 260.77 335.23
  C 266.79 326.52 277.93 322.75 286.77 330.39
  Q 291.84 334.77 297.80 337.85
  Z"
/>
<path fill="#f0edf0" d="
  M 388.19 332.31
  Q 387.92 332.29 387.75 332.14
  Q 387.40 331.80 387.81 331.55
  L 390.57 329.83
  Q 391.19 329.44 391.12 330.17
  Q 390.96 331.87 389.66 332.67
  Q 388.88 333.15 388.19 332.31
  Z"
/>
<path fill="#67393b" d="
  M 392.00 345.32
  Q 392.65 345.82 393.46 345.75
  Q 392.12 349.23 388.81 350.14
  A 1.62 1.61 -20.0 0 1 386.93 349.27
  Q 383.79 342.48 382.05 335.17
  A 0.76 0.75 71.7 0 1 382.48 334.31
  L 384.41 333.46
  Q 385.06 333.17 385.02 333.88
  Q 384.63 340.64 389.57 345.14
  Q 391.26 346.69 392.00 345.32
  Z"
/>
<path fill="#7f4443" d="
  M 382.21 342.00
  Q 375.98 345.25 368.95 345.50
  Q 368.46 345.52 368.13 345.16
  L 367.25 344.18
  Q 371.48 341.07 376.31 336.31
  Q 377.65 334.99 379.75 335.16
  Q 380.26 335.20 380.40 335.69
  L 382.21 342.00
  Z"
/>
<path fill="#bb643e" d="
  M 122.79 361.78
  A 1.30 1.30 0.0 0 1 122.02 359.53
  Q 124.21 357.52 127.45 356.64
  Q 134.67 354.69 141.52 349.52
  Q 145.32 346.65 150.40 347.50
  Q 150.94 347.59 151.25 347.14
  C 155.03 341.56 158.47 337.64 165.78 341.77
  A 1.90 1.83 60.1 0 0 166.61 342.01
  Q 170.02 342.16 173.13 340.78
  A 1.29 1.25 -47.4 0 1 174.04 340.73
  Q 178.34 342.09 181.96 344.76
  A 2.04 2.04 0.0 0 1 182.47 347.50
  C 178.79 353.30 173.24 356.64 167.78 360.65
  C 162.79 364.31 157.87 365.04 151.97 364.40
  C 145.09 363.64 133.48 366.69 128.47 362.51
  Q 128.10 362.20 127.62 362.16
  L 122.79 361.78
  Z"
/>
<path fill="#403c38" d="
  M 332.56 353.52
  A 1.53 1.53 0.0 0 1 331.75 350.75
  Q 335.01 348.40 338.80 349.19
  A 0.50 0.49 21.2 0 1 339.13 349.93
  Q 336.87 353.76 332.56 353.52
  Z"
/>
<path fill="#b35a38" d="
  M 461.75 367.96
  C 459.23 369.76 462.72 375.35 462.49 377.96
  Q 462.45 378.51 462.86 378.88
  L 468.34 383.82
  A 2.32 2.32 0.0 0 0 471.82 383.39
  Q 472.82 381.88 474.52 382.77
  Q 475.04 383.04 475.04 382.45
  L 475.04 382.00
  Q 475.39 382.42 475.27 382.96
  Q 475.85 385.85 474.26 386.18
  Q 473.78 386.27 473.56 386.71
  Q 468.82 396.13 457.39 393.39
  Q 455.61 391.43 454.38 390.87
  Q 448.28 388.08 432.62 382.66
  Q 431.98 382.44 432.44 381.94
  C 440.89 372.94 443.45 362.94 443.82 351.48
  A 0.42 0.42 0.0 0 1 444.53 351.19
  L 461.75 367.96
  Z"
/>
<path fill="#bb643e" d="
  M 252.89 376.74
  C 250.34 369.65 247.59 363.27 248.79 355.50
  L 250.66 356.15
  Q 251.78 356.54 252.63 355.70
  C 255.86 352.51 259.57 353.77 262.27 356.70
  C 265.71 360.45 269.06 362.19 271.86 367.43
  C 274.14 371.71 276.64 373.77 280.31 376.49
  A 0.56 0.56 0.0 0 1 279.96 377.50
  C 278.19 377.43 276.72 376.65 274.88 376.60
  Q 268.73 376.41 263.44 373.15
  A 1.06 1.03 -39.2 0 0 262.53 373.07
  L 252.89 376.74
  Z"
/>
<path fill="#61463a" d="
  M 211.65 394.62
  L 210.34 398.07
  Q 208.41 397.12 207.46 398.18
  Q 204.61 401.37 200.83 401.86
  A 0.85 0.84 66.2 0 1 200.07 401.56
  L 193.96 394.47
  A 1.36 1.35 -40.9 0 1 194.10 392.56
  C 198.86 388.42 193.89 383.92 197.28 378.93
  A 1.67 1.59 63.3 0 0 197.56 378.01
  Q 197.52 374.23 200.39 371.89
  Q 200.77 371.59 200.85 371.11
  Q 201.13 369.48 202.40 368.64
  A 0.85 0.84 -47.9 0 0 202.33 367.19
  L 199.76 365.84
  A 0.88 0.86 47.4 0 0 199.03 365.80
  Q 194.63 367.65 192.18 364.05
  A 0.89 0.88 -25.1 0 0 191.20 363.70
  C 189.35 364.26 188.29 365.78 186.26 366.84
  C 183.17 368.48 181.18 371.11 181.74 374.72
  Q 182.34 378.66 182.35 378.75
  C 182.42 383.82 178.39 388.72 176.51 393.45
  Q 176.32 393.92 175.82 394.06
  Q 173.59 394.70 171.33 395.30
  C 169.25 395.86 167.73 397.58 165.03 397.23
  A 1.18 1.16 25.7 0 0 164.06 397.56
  L 163.20 398.43
  A 0.46 0.45 -17.3 0 1 162.43 398.03
  Q 163.00 394.94 161.14 392.47
  A 0.99 0.98 -59.7 0 1 160.94 391.70
  L 161.26 389.71
  Q 161.32 389.35 160.98 389.23
  Q 159.15 388.55 158.28 386.84
  A 0.84 0.83 53.3 0 1 158.41 385.90
  L 161.30 382.76
  A 0.41 0.25 -4.2 0 1 161.40 382.69
  Q 162.47 382.22 162.97 382.82
  Q 163.43 383.37 164.00 382.94
  C 165.41 381.87 169.16 380.62 168.36 378.29
  A 2.06 2.05 -21.5 0 0 165.59 377.09
  Q 161.89 378.73 158.27 376.70
  C 162.01 375.04 167.94 370.81 171.99 372.23
  Q 172.59 372.44 172.81 371.85
  Q 173.14 370.97 174.13 371.25
  Q 174.61 371.38 174.99 371.04
  L 177.23 369.00
  Q 177.59 368.67 177.42 368.20
  Q 176.12 364.59 179.57 363.04
  A 1.72 1.62 -84.4 0 0 180.28 362.42
  Q 182.99 358.09 187.94 359.00
  Q 188.46 359.10 188.86 358.75
  Q 190.82 357.04 193.37 356.48
  Q 193.80 356.39 193.98 356.79
  L 195.15 359.45
  A 0.70 0.69 73.0 0 0 195.91 359.86
  L 201.59 358.82
  Q 202.20 358.70 202.67 359.12
  L 207.98 363.85
  A 1.16 1.13 59.6 0 0 208.96 364.12
  L 209.67 363.98
  A 1.07 1.07 0.0 0 1 210.77 365.61
  Q 207.66 370.39 203.70 374.51
  C 200.92 377.41 199.97 379.69 200.59 383.51
  A 1.47 1.43 55.1 0 1 200.44 384.43
  Q 199.56 386.17 199.77 388.12
  Q 199.86 389.01 200.53 388.41
  L 202.90 386.30
  A 0.59 0.59 0.0 0 1 203.60 386.24
  Q 205.03 387.16 204.04 388.04
  Q 201.38 390.40 200.36 393.45
  A 0.52 0.52 0.0 0 0 201.05 394.09
  L 206.73 391.72
  A 1.23 1.23 0.0 0 1 208.39 392.56
  Q 209.09 395.35 211.65 394.62
  Z"
/>
<path fill="#403c38" d="
  M 210.34 398.07
  L 207.89 403.84
  C 205.58 401.33 203.84 401.59 201.52 404.05
  C 197.89 407.89 194.42 407.38 190.45 409.89
  Q 181.49 415.57 171.10 417.93
  Q 167.66 418.71 162.43 421.44
  Q 157.36 424.08 149.54 425.30
  Q 148.97 425.39 148.62 425.15
  Q 148.18 424.85 147.94 424.29
  Q 147.75 423.84 147.26 423.86
  Q 143.12 424.02 139.86 426.32
  A 0.78 0.78 0.0 0 0 139.98 427.67
  Q 145.85 430.40 152.20 431.71
  C 158.85 433.08 166.73 431.73 173.75 431.57
  C 177.86 431.48 182.27 433.55 186.53 434.09
  C 190.71 434.61 194.90 437.00 199.20 438.48
  C 211.42 442.69 219.66 449.30 229.29 458.75
  C 225.18 464.02 210.64 462.85 203.49 462.62
  Q 183.20 461.96 169.23 447.48
  Q 168.08 446.29 166.22 445.44
  Q 165.42 445.08 165.90 445.81
  C 167.42 448.10 169.36 450.27 170.60 452.43
  C 173.96 458.31 183.82 476.16 173.19 480.12
  C 154.98 486.89 133.73 467.79 124.97 453.64
  A 0.28 0.28 0.0 0 0 124.51 453.63
  Q 122.88 456.03 120.34 457.60
  C 105.88 466.54 88.66 477.80 74.42 474.56
  Q 69.10 473.35 69.11 467.73
  C 69.12 458.77 77.02 448.24 83.30 442.36
  Q 83.68 442.00 83.32 441.62
  Q 83.07 441.36 82.79 441.54
  C 80.62 442.86 79.17 444.73 76.57 445.80
  Q 65.92 450.17 62.55 451.26
  Q 39.28 458.83 15.02 455.22
  C 11.18 454.65 -1.36 451.09 3.51 444.77
  C 15.10 429.74 33.88 428.54 51.81 425.91
  L 62.07 423.48
  A 0.92 0.92 0.0 0 0 62.59 422.03
  L 57.56 415.50
  Q 55.88 412.26 51.50 405.75
  Q 42.35 392.14 40.04 374.75
  L 43.09 374.24
  A 0.87 0.86 -18.7 0 1 43.99 374.68
  Q 44.59 375.81 45.80 376.18
  Q 46.31 376.33 46.70 376.70
  L 51.41 381.13
  Q 51.70 381.41 51.79 381.81
  Q 52.94 386.95 57.74 388.85
  A 1.26 1.24 1.3 0 1 58.46 389.59
  Q 59.05 391.25 60.50 392.17
  Q 60.90 392.42 60.95 392.88
  Q 61.20 395.16 60.08 397.06
  Q 59.82 397.52 60.09 397.96
  L 64.79 405.65
  A 0.54 0.54 0.0 0 0 65.75 405.57
  Q 66.35 404.12 65.74 402.70
  A 0.70 0.70 0.0 0 1 66.57 401.74
  Q 67.67 402.03 67.93 401.18
  Q 68.11 400.59 68.73 400.70
  L 72.78 401.49
  Q 73.02 401.54 73.13 401.76
  L 73.25 402.02
  Q 73.48 402.51 72.94 402.60
  Q 70.57 402.97 68.59 404.47
  A 1.39 1.38 -38.2 0 0 68.35 406.45
  L 71.32 410.12
  Q 71.70 410.59 72.29 410.48
  L 74.73 410.02
  Q 75.23 409.92 75.63 409.59
  Q 77.81 407.73 79.71 409.85
  Q 80.12 410.30 80.06 410.91
  L 79.76 413.69
  Q 79.71 414.21 79.22 414.39
  Q 77.76 414.91 76.65 413.97
  A 0.60 0.60 0.0 0 0 75.66 414.41
  L 75.60 416.30
  Q 75.58 416.97 76.25 416.97
  Q 77.25 416.97 77.60 417.64
  Q 77.85 418.12 77.57 418.57
  Q 76.26 420.74 78.33 422.26
  Q 78.69 422.53 79.11 422.39
  Q 82.28 421.37 83.39 424.07
  A 0.71 0.71 0.0 0 0 84.63 424.21
  L 85.58 422.84
  Q 85.94 422.32 86.58 422.30
  L 97.62 422.11
  A 0.91 0.84 -63.3 0 0 98.18 421.90
  C 102.16 418.49 102.97 424.51 107.11 423.59
  A 0.81 0.81 0.0 0 0 107.75 422.80
  L 107.75 421.62
  Q 107.75 420.70 108.65 420.90
  L 112.00 421.63
  A 2.17 2.14 -58.9 0 0 113.89 421.15
  L 120.70 415.25
  Q 123.23 413.45 126.50 412.96
  Q 130.76 412.22 133.28 408.62
  A 0.87 0.86 19.3 0 1 134.06 408.25
  C 137.74 408.56 141.55 411.08 143.36 405.97
  Q 143.53 405.50 143.28 405.07
  L 141.46 401.93
  Q 140.43 398.86 136.51 399.82
  A 0.91 0.91 0.0 0 1 135.53 399.45
  Q 134.37 397.80 132.41 397.33
  A 1.36 1.33 -48.1 0 0 131.64 397.38
  Q 128.05 398.67 124.23 399.04
  A 0.93 0.91 -35.3 0 1 123.79 398.97
  L 122.05 398.20
  A 0.44 0.44 0.0 0 0 121.47 398.77
  Q 121.93 399.85 122.27 400.97
  A 0.52 0.52 0.0 0 1 121.29 401.30
  L 119.89 397.64
  A 0.86 0.86 0.0 0 1 120.51 396.50
  Q 123.32 395.91 122.25 393.41
  Q 122.08 393.00 122.11 392.56
  L 122.31 389.65
  Q 122.34 389.10 122.88 389.26
  Q 125.45 390.04 127.33 392.03
  A 0.73 0.72 18.0 0 0 128.57 391.40
  L 128.13 389.10
  Q 128.06 388.68 128.37 388.40
  C 131.09 385.98 134.58 387.74 137.68 385.36
  Q 138.10 385.04 138.02 384.51
  L 137.81 383.10
  Q 137.72 382.44 138.33 382.69
  Q 139.02 382.96 139.50 383.54
  C 140.91 387.55 146.41 384.40 148.49 382.57
  Q 151.27 380.12 154.50 378.29
  L 158.27 376.70
  Q 161.89 378.73 165.59 377.09
  A 2.06 2.05 -21.5 0 1 168.36 378.29
  C 169.16 380.62 165.41 381.87 164.00 382.94
  Q 163.43 383.37 162.97 382.82
  Q 162.47 382.22 161.40 382.69
  A 0.41 0.25 -4.2 0 0 161.30 382.76
  L 158.41 385.90
  A 0.84 0.83 53.3 0 0 158.28 386.84
  Q 159.15 388.55 160.98 389.23
  Q 161.32 389.35 161.26 389.71
  L 160.94 391.70
  A 0.99 0.98 -59.7 0 0 161.14 392.47
  Q 163.00 394.94 162.43 398.03
  A 0.46 0.45 -17.3 0 0 163.20 398.43
  L 164.06 397.56
  A 1.18 1.16 25.7 0 1 165.03 397.23
  C 167.73 397.58 169.25 395.86 171.33 395.30
  Q 173.59 394.70 175.82 394.06
  Q 176.32 393.92 176.51 393.45
  C 178.39 388.72 182.42 383.82 182.35 378.75
  Q 182.34 378.66 181.74 374.72
  C 181.18 371.11 183.17 368.48 186.26 366.84
  C 188.29 365.78 189.35 364.26 191.20 363.70
  A 0.89 0.88 -25.1 0 1 192.18 364.05
  Q 194.63 367.65 199.03 365.80
  A 0.88 0.86 47.4 0 1 199.76 365.84
  L 202.33 367.19
  A 0.85 0.84 -47.9 0 1 202.40 368.64
  Q 201.13 369.48 200.85 371.11
  Q 200.77 371.59 200.39 371.89
  Q 197.52 374.23 197.56 378.01
  A 1.67 1.59 63.3 0 1 197.28 378.93
  C 193.89 383.92 198.86 388.42 194.10 392.56
  A 1.36 1.35 -40.9 0 0 193.96 394.47
  L 200.07 401.56
  A 0.85 0.84 66.2 0 0 200.83 401.86
  Q 204.61 401.37 207.46 398.18
  Q 208.41 397.12 210.34 398.07
  Z"
/>
<path fill="#61463a" d="
  M 120.70 415.25
  L 113.89 421.15
  A 2.17 2.14 -58.9 0 1 112.00 421.63
  L 108.65 420.90
  Q 107.75 420.70 107.75 421.62
  L 107.75 422.80
  A 0.81 0.81 0.0 0 1 107.11 423.59
  C 102.97 424.51 102.16 418.49 98.18 421.90
  A 0.91 0.84 -63.3 0 1 97.62 422.11
  L 86.58 422.30
  Q 85.94 422.32 85.58 422.84
  L 84.63 424.21
  A 0.71 0.71 0.0 0 1 83.39 424.07
  Q 82.28 421.37 79.11 422.39
  Q 78.69 422.53 78.33 422.26
  Q 76.26 420.74 77.57 418.57
  Q 77.85 418.12 77.60 417.64
  Q 77.25 416.97 76.25 416.97
  Q 75.58 416.97 75.60 416.30
  L 75.66 414.41
  A 0.60 0.60 0.0 0 1 76.65 413.97
  Q 77.76 414.91 79.22 414.39
  Q 79.71 414.21 79.76 413.69
  L 80.06 410.91
  Q 80.12 410.30 79.71 409.85
  Q 77.81 407.73 75.63 409.59
  Q 75.23 409.92 74.73 410.02
  L 72.29 410.48
  Q 71.70 410.59 71.32 410.12
  L 68.35 406.45
  A 1.39 1.38 -38.2 0 1 68.59 404.47
  Q 70.57 402.97 72.94 402.60
  Q 73.48 402.51 73.25 402.02
  L 73.13 401.76
  Q 73.02 401.54 72.78 401.49
  L 68.73 400.70
  Q 68.11 400.59 67.93 401.18
  Q 67.67 402.03 66.57 401.74
  A 0.70 0.70 0.0 0 0 65.74 402.70
  Q 66.35 404.12 65.75 405.57
  A 0.54 0.54 0.0 0 1 64.79 405.65
  L 60.09 397.96
  Q 59.82 397.52 60.08 397.06
  Q 61.20 395.16 60.95 392.88
  Q 60.90 392.42 60.50 392.17
  Q 59.05 391.25 58.46 389.59
  A 1.26 1.24 1.3 0 0 57.74 388.85
  Q 52.94 386.95 51.79 381.81
  Q 51.70 381.41 51.41 381.13
  L 46.70 376.70
  Q 46.31 376.33 45.80 376.18
  Q 44.59 375.81 43.99 374.68
  A 0.87 0.86 -18.7 0 0 43.09 374.24
  L 40.04 374.75
  L 39.25 365.54
  Q 40.70 365.94 42.20 365.31
  Q 42.68 365.11 43.11 365.40
  Q 47.22 368.15 50.92 371.33
  C 53.14 373.24 55.84 373.17 56.56 376.91
  A 0.43 0.42 57.9 0 0 57.32 377.09
  L 58.31 375.75
  Q 58.59 375.38 59.05 375.46
  L 62.29 376.02
  A 0.99 0.98 22.5 0 0 63.27 375.62
  Q 64.16 374.36 65.37 374.92
  Q 66.08 375.25 66.64 376.50
  Q 68.29 380.17 71.56 381.57
  A 1.18 1.18 0.0 0 1 71.25 383.82
  C 70.03 383.97 67.03 383.67 66.52 383.90
  Q 65.05 384.56 68.75 385.93
  A 2.65 2.56 -36.1 0 0 69.83 386.08
  Q 72.32 385.91 74.53 387.32
  Q 75.00 387.63 75.40 387.23
  L 75.69 386.94
  Q 75.76 386.86 75.31 386.20
  Q 75.12 385.92 74.73 386.01
  A 0.50 0.50 0.0 0 1 74.24 385.19
  L 74.92 384.44
  A 0.74 0.74 0.0 0 1 75.87 384.31
  C 79.47 386.66 85.26 385.38 89.28 384.71
  A 0.55 0.55 0.0 0 0 89.73 384.08
  L 89.45 382.33
  A 0.56 0.56 0.0 0 1 90.25 381.74
  Q 92.75 382.99 95.30 381.81
  A 0.67 0.67 0.0 0 1 96.18 382.71
  Q 95.19 384.79 95.55 387.11
  Q 95.62 387.52 96.03 387.51
  L 98.63 387.42
  Q 99.38 387.39 99.29 388.14
  L 99.09 389.83
  A 0.72 0.72 0.0 0 0 100.37 390.36
  Q 101.35 389.11 102.85 389.09
  A 0.64 0.64 0.0 0 1 103.29 390.20
  L 98.35 394.79
  A 1.67 1.67 0.0 0 1 95.72 394.32
  L 95.13 393.16
  Q 94.80 392.51 94.31 393.05
  Q 93.68 393.75 94.17 394.55
  A 1.16 1.13 37.1 0 1 94.31 395.46
  Q 93.80 397.36 91.72 396.96
  A 0.85 0.83 35.8 0 0 91.12 397.05
  L 84.17 400.78
  Q 83.82 400.97 84.11 401.24
  Q 84.22 401.35 84.34 401.47
  Q 84.69 401.81 84.37 402.19
  Q 82.51 404.34 79.75 405.05
  Q 79.19 405.19 79.35 405.74
  Q 79.52 406.35 80.21 406.58
  C 81.12 406.88 81.85 406.37 83.03 406.77
  Q 83.49 406.92 83.67 407.37
  L 84.45 409.34
  Q 84.67 409.91 85.27 410.02
  Q 87.33 410.44 89.05 409.43
  Q 89.65 409.07 89.74 409.77
  Q 89.95 411.24 88.89 412.22
  A 0.35 0.34 -78.9 0 0 89.27 412.79
  L 92.36 411.31
  Q 92.92 411.04 93.27 411.56
  L 94.28 413.08
  A 0.57 0.57 0.0 0 1 93.84 413.96
  L 92.07 414.07
  A 0.67 0.67 0.0 0 0 92.15 415.41
  L 100.06 414.99
  A 1.07 1.06 65.1 0 1 100.87 415.29
  C 101.52 415.92 102.30 416.88 103.25 416.74
  Q 104.16 416.60 104.07 415.43
  A 0.88 0.87 23.5 0 1 105.63 414.82
  Q 106.61 416.06 107.71 414.94
  Q 108.04 414.61 108.46 414.82
  L 111.48 416.31
  A 1.35 1.33 48.0 0 0 112.50 416.37
  Q 116.30 415.00 120.70 415.25
  Z"
/>
<path fill="#bb643e" d="
  M 461.75 367.96
  L 475.04 382.00
  L 475.04 382.45
  Q 475.04 383.04 474.52 382.77
  Q 472.82 381.88 471.82 383.39
  A 2.32 2.32 0.0 0 1 468.34 383.82
  L 462.86 378.88
  Q 462.45 378.51 462.49 377.96
  C 462.72 375.35 459.23 369.76 461.75 367.96
  Z"
/>
<path fill="#bdb3bf" d="
  M 437.17 371.98
  C 431.61 382.74 419.88 394.16 408.52 398.70
  A 0.71 0.71 0.0 0 1 407.61 397.76
  Q 409.25 394.03 408.96 389.50
  L 408.66 387.28
  Q 408.73 385.52 409.46 384.00
  Q 409.19 385.47 410.01 386.15
  Q 410.45 386.50 410.96 386.28
  Q 424.42 380.46 437.17 371.98
  Z"
/>
<path fill="#61463a" d="
  M 154.50 378.29
  Q 151.27 380.12 148.49 382.57
  C 146.41 384.40 140.91 387.55 139.50 383.54
  L 141.99 383.49
  A 1.25 1.25 0.0 0 0 142.82 383.15
  C 146.20 379.93 150.44 374.40 154.50 378.29
  Z"
/>
<path fill="#b35a38" d="
  M 171.85 390.14
  L 164.31 396.77
  A 0.68 0.68 0.0 0 1 163.31 395.85
  L 169.86 386.98
  Q 170.46 386.16 169.73 385.45
  Q 168.86 384.61 167.78 384.83
  Q 167.03 384.97 167.25 384.25
  Q 168.10 381.39 170.42 379.66
  A 0.94 0.94 0.0 0 1 171.74 380.97
  Q 171.14 381.77 171.68 382.69
  Q 172.00 383.24 172.93 383.59
  Q 174.42 384.14 175.75 385.00
  Q 176.32 385.37 176.00 385.97
  L 175.07 387.68
  A 0.36 0.33 -34.2 0 0 175.02 387.89
  Q 175.19 390.34 172.46 389.96
  A 0.77 0.75 27.9 0 0 171.85 390.14
  Z"
/>
<path fill="#7f4443" d="
  M 475.27 382.96
  C 476.29 388.43 473.94 404.39 469.77 408.12
  C 466.91 410.69 461.31 411.50 458.68 407.88
  Q 458.39 407.48 458.43 406.99
  Q 458.92 400.58 457.39 393.39
  Q 468.82 396.13 473.56 386.71
  Q 473.78 386.27 474.26 386.18
  Q 475.85 385.85 475.27 382.96
  Z"
/>
<path fill="#67393b" d="
  M 325.81 418.58
  Q 324.00 422.35 324.47 426.76
  C 324.78 429.60 327.23 431.54 328.19 434.31
  Q 328.62 435.58 327.38 436.04
  Q 326.94 436.20 327.01 436.67
  Q 327.05 437.00 327.25 437.30
  Q 319.52 437.14 312.44 434.05
  C 305.78 431.14 303.44 418.56 304.42 412.76
  Q 305.25 407.81 305.35 405.20
  Q 305.37 404.70 305.70 404.32
  Q 311.94 397.29 315.82 388.70
  Q 316.06 388.17 316.63 388.29
  Q 320.44 389.12 323.84 390.87
  Q 331.12 394.61 338.59 397.53
  A 0.81 0.80 -65.1 0 1 339.00 398.66
  Q 335.11 405.89 329.26 411.76
  Q 327.73 413.30 327.06 414.90
  Q 326.23 416.87 325.81 418.58
  Z"
/>
<path fill="#bdb3bf" d="
  M 368.29 397.76
  L 369.69 402.20
  Q 369.88 402.78 369.26 402.77
  C 354.95 402.56 340.52 397.00 327.75 390.96
  L 327.74 390.68
  A 0.59 0.59 0.0 0 1 328.51 390.08
  C 335.07 392.23 341.80 395.27 348.63 395.88
  C 352.12 396.19 354.48 396.94 358.26 396.44
  Q 363.19 395.78 368.29 397.76
  Z"
/>
<path fill="#964f3e" d="
  M 126.4184 397.8909
  A 2.05 1.53 57.6 0 1 124.0282 396.9798
  A 2.05 1.53 57.6 0 1 124.2216 394.4291
  A 2.05 1.53 57.6 0 1 126.6118 395.3402
  A 2.05 1.53 57.6 0 1 126.4184 397.8909
  Z"
/>
<path fill="#403c38" d="
  M 479.25 414.54
  L 478.39 414.45
  Q 471.27 418.24 464.00 418.96
  C 464.40 414.55 468.61 413.83 469.71 409.75
  C 474.48 406.23 474.57 401.23 475.92 396.16
  Q 476.07 395.59 476.60 395.86
  C 483.92 399.63 488.61 408.94 479.25 414.54
  Z"
/>
<path fill="#403c38" d="
  M 456.42 405.40
  L 449.29 407.25
  C 447.25 402.93 451.67 399.13 455.01 396.99
  A 1.09 1.08 -15.3 0 1 456.68 397.94
  L 456.42 405.40
  Z"
/>
<path fill="#29231e" d="
  M 57.56 415.50
  L 62.59 422.03
  A 0.92 0.92 0.0 0 1 62.07 423.48
  L 51.81 425.91
  Q 39.29 424.39 33.96 413.64
  C 29.28 404.21 35.66 396.49 45.66 399.59
  Q 46.16 399.75 46.38 400.22
  Q 50.40 409.02 57.56 415.50
  Z"
/>
<path fill="#7f4443" d="
  M 141.46 401.93
  L 143.28 405.07
  Q 143.53 405.50 143.36 405.97
  C 141.55 411.08 137.74 408.56 134.06 408.25
  A 0.87 0.86 19.3 0 0 133.28 408.62
  Q 130.76 412.22 126.50 412.96
  L 130.22 408.46
  A 1.29 1.28 -27.3 0 0 130.51 407.57
  C 130.46 406.73 130.31 405.60 130.98 404.98
  Q 131.95 404.08 133.14 405.07
  Q 133.56 405.41 134.06 405.20
  L 141.46 401.93
  Z"
/>
<path fill="#29231e" d="
  M 207.89 403.84
  C 204.86 410.05 199.44 415.03 195.21 420.52
  A 0.45 0.44 -2.2 0 0 195.86 421.12
  Q 201.88 415.72 206.29 409.79
  C 209.16 405.93 225.26 409.97 229.53 411.68
  C 233.07 413.10 233.16 415.29 230.57 417.77
  C 222.78 425.21 213.80 427.50 203.82 430.44
  Q 203.29 430.60 202.80 430.35
  Q 199.37 428.63 195.52 428.16
  A 0.50 0.50 0.0 0 0 195.31 429.13
  C 203.79 431.92 236.14 445.75 229.29 458.75
  C 219.66 449.30 211.42 442.69 199.20 438.48
  C 194.90 437.00 190.71 434.61 186.53 434.09
  C 182.27 433.55 177.86 431.48 173.75 431.57
  C 166.73 431.73 158.85 433.08 152.20 431.71
  Q 145.85 430.40 139.98 427.67
  A 0.78 0.78 0.0 0 1 139.86 426.32
  Q 143.12 424.02 147.26 423.86
  Q 147.75 423.84 147.94 424.29
  Q 148.18 424.85 148.62 425.15
  Q 148.97 425.39 149.54 425.30
  Q 157.36 424.08 162.43 421.44
  Q 167.66 418.71 171.10 417.93
  Q 181.49 415.57 190.45 409.89
  C 194.42 407.38 197.89 407.89 201.52 404.05
  C 203.84 401.59 205.58 401.33 207.89 403.84
  Z"
/>
<path fill="#29231e" d="
  M 456.42 405.40
  C 457.01 412.31 465.06 413.14 469.71 409.75
  C 468.61 413.83 464.40 414.55 464.00 418.96
  L 460.47 419.28
  Q 459.40 419.38 460.47 419.54
  Q 470.93 421.11 478.39 414.45
  L 479.25 414.54
  Q 478.56 415.78 478.26 416.01
  C 472.17 420.72 463.96 427.96 462.93 435.54
  Q 460.32 435.92 458.20 437.43
  C 454.53 440.04 455.27 445.02 457.54 448.27
  Q 458.65 454.34 452.97 455.63
  A 2.08 2.07 64.3 0 1 450.90 454.90
  C 446.11 448.96 437.32 432.78 449.26 428.98
  A 1.23 1.23 0.0 0 0 450.04 428.24
  Q 452.16 422.57 451.99 416.49
  A 0.48 0.48 0.0 0 1 452.86 416.19
  Q 453.80 417.47 455.16 418.19
  A 0.41 0.41 0.0 0 0 455.62 417.51
  Q 450.57 413.42 449.29 407.25
  L 456.42 405.40
  Z"
/>
<path fill="#010001" d="
  M 478.39 414.45
  Q 470.93 421.11 460.47 419.54
  Q 459.40 419.38 460.47 419.28
  L 464.00 418.96
  Q 471.27 418.24 478.39 414.45
  Z"
/>
<path fill="#964f3e" d="
  M 325.81 418.58
  Q 327.31 427.55 330.51 435.63
  A 0.95 0.94 61.6 0 1 330.18 436.76
  Q 329.13 437.52 327.25 437.30
  Q 327.05 437.00 327.01 436.67
  Q 326.94 436.20 327.38 436.04
  Q 328.62 435.58 328.19 434.31
  C 327.23 431.54 324.78 429.60 324.47 426.76
  Q 324.00 422.35 325.81 418.58
  Z"
/>
<path fill="#2e2218" d="
  M 329.98 438.61
  Q 330.93 443.38 334.36 448.00
  A 1.11 1.11 0.0 0 1 333.99 449.64
  C 330.95 451.25 329.72 455.78 333.96 456.81
  Q 334.47 456.93 334.91 456.65
  Q 337.22 455.14 339.75 456.54
  Q 339.52 456.59 339.39 456.81
  Q 339.10 457.30 339.61 457.57
  Q 344.48 460.05 344.65 465.67
  Q 344.71 467.68 342.72 467.42
  C 340.25 467.11 338.17 467.15 335.84 466.12
  C 332.56 464.65 327.61 462.99 325.72 459.76
  C 321.07 451.78 315.68 443.96 311.11 435.86
  A 0.41 0.41 0.0 0 1 311.65 435.29
  Q 320.39 439.58 329.98 438.61
  Z"
/>
<path fill="#403c38" d="
  M 462.93 435.54
  C 464.03 443.16 465.47 454.22 456.32 456.49
  Q 455.96 456.58 455.69 456.82
  Q 455.24 457.22 454.80 456.99
  Q 454.18 456.65 454.83 456.36
  Q 460.12 453.98 457.54 448.27
  C 455.27 445.02 454.53 440.04 458.20 437.43
  Q 460.32 435.92 462.93 435.54
  Z"
/>
<path fill="#403c38" d="
  M 350.79 456.00
  Q 350.35 455.16 349.53 454.80
  A 1.19 1.18 48.8 0 0 348.69 454.74
  L 341.00 457.04
  L 339.75 456.54
  Q 337.22 455.14 334.91 456.65
  Q 334.47 456.93 333.96 456.81
  C 329.72 455.78 330.95 451.25 333.99 449.64
  A 1.11 1.11 0.0 0 0 334.36 448.00
  Q 330.93 443.38 329.98 438.61
  Q 330.40 437.74 331.06 437.96
  Q 331.46 438.09 331.79 438.70
  C 334.01 442.71 335.16 449.72 340.30 450.43
  C 343.90 450.92 357.20 454.28 353.99 460.28
  A 0.32 0.32 0.0 0 1 353.39 460.20
  Q 352.79 457.58 350.79 456.00
  Z"
/>
<path fill="#29231e" d="
  M 423.68 470.37
  Q 414.34 472.01 407.54 479.00
  C 406.94 473.88 405.53 470.38 401.42 466.84
  Q 393.10 459.67 385.01 452.26
  C 382.66 450.10 380.71 447.77 383.03 444.98
  C 389.16 437.62 425.27 449.80 423.71 458.45
  C 423.35 460.42 420.82 462.01 419.76 464.14
  A 0.89 0.87 -50.7 0 0 419.84 465.04
  L 423.68 470.37
  Z"
/>
<path fill="#403c38" d="
  M 267.22 487.76
  C 268.34 483.54 267.05 479.64 262.96 477.82
  Q 262.69 477.70 262.57 477.80
  Q 262.48 477.89 262.49 478.08
  Q 262.50 478.32 262.70 478.45
  Q 267.87 481.79 266.03 488.01
  Q 265.90 488.46 265.43 488.48
  C 256.58 488.96 251.62 484.64 247.80 476.71
  Q 242.65 466.05 240.89 454.22
  Q 240.77 453.44 241.40 453.92
  C 245.18 456.87 255.05 462.38 259.57 458.80
  A 0.88 0.88 0.0 0 1 260.98 459.30
  C 261.77 462.83 262.94 466.12 263.87 469.54
  C 265.42 475.24 276.45 474.14 275.73 482.23
  Q 275.64 483.20 275.17 482.35
  Q 274.76 481.59 274.60 480.70
  Q 274.52 480.23 274.25 479.84
  Q 273.03 478.10 271.29 476.92
  Q 270.94 476.69 270.68 476.77
  Q 270.52 476.82 270.40 476.96
  Q 270.12 477.27 270.43 477.55
  Q 273.41 480.16 274.54 484.07
  A 1.27 1.27 0.0 0 1 274.34 485.17
  Q 271.90 488.38 267.74 488.42
  Q 267.05 488.43 267.22 487.76
  Z"
/>
<path fill="#29231e" d="
  M 350.79 456.00
  Q 351.00 457.81 351.65 459.59
  C 353.17 463.80 350.97 466.72 346.45 466.82
  Q 345.92 466.83 345.91 466.30
  Q 345.81 460.41 341.00 457.04
  L 348.69 454.74
  A 1.19 1.18 48.8 0 1 349.53 454.80
  Q 350.35 455.16 350.79 456.00
  Z"
/>
<path fill="#403c38" d="
  M 423.68 470.37
  Q 427.60 473.40 432.28 475.45
  C 438.06 477.98 438.34 483.12 432.96 486.26
  Q 432.38 486.61 432.53 485.94
  Q 433.72 480.87 430.04 477.06
  Q 429.55 476.55 429.49 477.25
  Q 429.44 477.87 429.96 478.55
  C 433.17 482.73 432.13 487.92 426.17 488.50
  Q 425.57 488.56 425.60 487.95
  Q 425.92 481.34 419.77 478.87
  A 0.36 0.36 0.0 0 0 419.29 479.32
  Q 419.44 479.77 419.78 479.94
  Q 424.83 482.49 424.64 488.23
  A 0.56 0.55 -89.4 0 1 424.10 488.77
  C 418.28 488.92 407.32 486.85 407.54 479.00
  Q 414.34 472.01 423.68 470.37
  Z"
/>
</svg>
