<?xml version="1.0" encoding="UTF-8" standalone="no"?>
<svg xmlns="http://www.w3.org/2000/svg" version="1.2" baseProfile="tiny" viewBox="0.00 0.00 500.00 500.00">
<path fill="#0c0c12" d="
  M 197.44 477.12
  Q 195.26 480.17 191.56 482.06
  C 180.28 487.84 162.67 490.11 152.12 481.20
  Q 151.69 480.84 151.24 481.16
  Q 145.06 485.59 139.34 490.30
  C 137.10 492.14 132.79 492.42 130.03 491.11
  C 122.50 487.53 122.05 477.81 123.64 470.65
  C 129.32 445.07 155.72 435.81 178.23 432.70
  Q 186.11 431.61 190.53 430.19
  C 199.65 427.26 208.07 423.59 215.54 417.23
  Q 231.05 404.00 243.33 387.67
  C 247.14 382.60 249.84 376.94 252.62 371.21
  Q 252.84 370.76 252.75 370.28
  Q 252.17 367.18 251.35 366.16
  Q 244.59 357.76 243.66 347.24
  Q 243.54 345.90 242.56 346.83
  C 228.32 360.35 211.99 368.68 191.64 373.25
  Q 191.16 373.35 190.85 373.75
  C 185.25 381.00 176.99 384.44 168.02 384.44
  C 160.79 384.45 154.26 384.02 148.13 380.37
  Q 146.16 379.20 144.13 378.86
  Q 137.96 377.83 132.07 375.62
  Q 131.58 375.44 131.18 375.77
  C 125.75 380.38 119.76 380.92 112.81 378.89
  C 104.60 376.48 95.21 371.13 91.53 363.00
  Q 91.26 362.42 90.76 362.81
  C 81.49 370.09 68.78 377.02 57.10 376.98
  C 50.10 376.95 43.55 373.90 41.31 366.95
  C 37.93 356.43 45.17 339.32 51.14 330.64
  A 0.28 0.28 0.0 0 0 50.76 330.24
  C 45.37 333.50 38.82 336.67 32.32 336.41
  C 25.95 336.16 20.35 332.99 18.56 326.69
  C 13.80 309.93 22.52 287.58 35.83 277.06
  C 49.91 265.93 66.80 263.64 84.25 265.76
  C 97.67 267.40 113.04 275.72 129.24 276.51
  C 147.61 277.40 162.94 272.22 173.28 256.51
  A 1.65 1.64 -53.7 0 0 172.95 254.32
  C 156.75 241.20 143.20 223.23 136.95 203.15
  C 135.26 197.74 130.84 193.55 129.25 188.72
  Q 126.71 180.97 127.31 170.47
  Q 127.43 168.30 126.82 165.64
  C 125.08 157.99 128.35 150.48 128.45 142.85
  C 128.78 119.20 137.48 96.36 149.24 75.96
  C 171.11 37.97 208.54 11.33 251.24 1.77
  C 256.61 0.56 265.77 0.13 272.27 0.68
  C 288.54 2.06 302.16 6.49 314.74 16.63
  C 338.29 35.59 348.20 65.55 343.49 95.45
  C 339.04 123.69 321.73 146.55 301.73 165.85
  A 1.08 1.08 0.0 0 0 301.90 167.54
  L 308.99 172.02
  A 0.50 0.50 0.0 0 0 309.74 171.74
  C 317.09 147.54 348.74 136.01 371.76 139.42
  C 375.74 140.01 379.94 140.47 383.66 141.53
  C 412.79 149.84 432.47 172.56 439.55 201.56
  C 440.98 207.41 447.24 213.50 450.01 219.16
  C 463.12 245.91 463.36 280.85 443.45 304.73
  C 432.23 318.19 418.00 326.01 400.16 327.86
  Q 399.65 327.91 399.51 328.41
  Q 396.95 337.53 392.38 345.73
  C 391.32 347.63 389.39 349.05 389.27 352.00
  C 388.28 377.67 391.73 401.63 403.09 424.38
  C 406.10 430.39 411.73 434.07 418.00 435.52
  Q 426.81 437.56 443.07 439.70
  C 460.72 442.02 475.79 453.33 480.95 470.41
  C 483.67 479.42 482.36 488.05 476.50 495.18
  Q 473.85 498.41 470.48 499.26
  C 460.26 501.82 456.09 491.91 449.11 486.91
  Q 448.69 486.61 448.22 486.84
  C 446.21 487.85 444.51 489.54 442.79 490.43
  C 429.45 497.33 414.09 495.19 401.28 488.21
  Q 400.80 487.95 400.25 487.98
  L 387.77 488.71
  A 0.46 0.41 -60.8 0 0 387.51 488.80
  C 383.18 492.21 376.93 492.18 372.28 490.51
  C 358.84 485.66 348.96 477.41 344.03 463.73
  A 0.82 0.82 0.0 0 0 342.66 463.45
  Q 341.91 464.26 340.75 464.26
  Q 340.26 464.25 339.91 464.61
  C 328.50 476.24 311.27 475.72 297.40 470.12
  C 293.14 468.41 286.81 464.32 285.54 459.94
  Q 285.00 458.10 284.27 456.92
  C 280.41 450.69 277.45 441.32 278.69 434.33
  A 0.58 0.58 0.0 0 0 277.64 433.91
  Q 272.90 440.95 266.02 445.94
  A 1.24 1.24 0.0 0 0 265.50 446.95
  L 265.50 449.50
  Q 265.50 450.06 265.24 450.56
  C 259.18 462.17 235.06 479.60 221.53 472.48
  Q 221.04 472.22 220.53 472.44
  Q 210.17 477.08 198.80 476.47
  Q 197.94 476.42 197.44 477.12
  Z"
/>
<g stroke-width="2.00" fill="none" stroke-linecap="butt">
<path stroke="#385b9f" vector-effect="non-scaling-stroke" d="
  M 318.45 22.18
  Q 318.20 22.73 317.62 23.09
  A 0.78 0.76 44.4 0 1 316.81 23.09
  C 307.39 17.33 296.97 12.23 286.08 10.04
  C 280.29 8.88 272.45 9.29 265.56 8.04
  C 263.07 7.58 260.77 7.97 258.24 7.81
  C 252.45 7.44 246.88 8.50 241.32 10.02
  Q 240.06 10.36 237.64 10.33
  C 234.83 10.30 232.40 12.00 230.56 12.65
  Q 225.35 14.51 217.44 17.92
  Q 215.71 18.67 215.49 16.57"
/>
<path stroke="#254484" vector-effect="non-scaling-stroke" d="
  M 338.65 54.78
  L 336.77 55.74
  Q 336.33 55.96 336.28 56.46
  Q 335.23 67.64 334.76 70.54
  C 330.52 96.55 314.75 118.09 295.14 136.91"
/>
<path stroke="#254484" vector-effect="non-scaling-stroke" d="
  M 284.81 171.82
  Q 290.75 177.43 300.31 176.11"
/>
<path stroke="#254484" vector-effect="non-scaling-stroke" d="
  M 328.13 215.52
  L 327.98 216.50
  Q 327.91 216.97 327.44 216.89
  C 308.60 213.75 291.66 210.38 271.50 212.59
  C 267.44 213.03 261.41 212.95 256.35 214.23
  Q 255.86 214.36 255.75 214.85
  Q 255.66 215.21 255.76 215.68"
/>
<path stroke="#1a2d53" vector-effect="non-scaling-stroke" d="
  M 255.76 215.68
  L 255.12 216.00
  A 1.68 1.67 -87.4 0 0 254.40 216.66
  C 242.86 236.38 235.85 255.21 227.48 275.01
  Q 227.28 275.47 226.79 275.51
  Q 225.59 275.59 224.01 275.21
  Q 204.10 270.46 186.72 262.14"
/>
<path stroke="#254484" vector-effect="non-scaling-stroke" d="
  M 186.72 262.14
  Q 177.11 270.05 173.96 271.99
  Q 157.82 281.88 137.15 280.19
  Q 136.66 280.15 136.42 279.72
  L 135.76 278.59"
/>
<path stroke="#385b9f" vector-effect="non-scaling-stroke" d="
  M 165.51 245.31
  Q 165.17 241.24 161.14 238.21
  C 159.45 236.93 154.73 232.12 156.94 229.95
  A 0.84 0.84 0.0 0 0 157.15 229.08
  Q 156.34 226.73 155.19 224.63
  Q 154.93 224.15 155.06 223.86
  Q 155.25 223.43 155.94 223.44"
/>
<path stroke="#5a7f70" vector-effect="non-scaling-stroke" d="
  M 155.94 223.44
  C 160.14 232.16 170.02 244.46 180.27 245.51
  Q 180.85 245.57 180.75 244.99
  L 178.99 234.30"
/>
<path stroke="#385b9f" vector-effect="non-scaling-stroke" d="
  M 178.99 234.30
  Q 181.09 235.86 181.56 241.23
  Q 181.86 244.80 185.51 243.92
  Q 186.02 243.79 185.92 243.27
  Q 185.85 242.90 185.40 242.81
  A 1.65 1.43 -41.6 0 1 185.80 239.81
  Q 188.93 239.14 191.89 240.36
  A 0.84 0.83 84.9 0 0 192.91 239.14
  Q 189.02 232.99 186.47 225.97
  C 185.35 222.87 181.48 218.96 184.77 216.35"
/>
<path stroke="#5a7f70" vector-effect="non-scaling-stroke" d="
  M 184.77 216.35
  Q 207.96 227.11 232.62 222.07
  A 1.31 1.31 0.0 0 0 233.07 219.69
  Q 224.29 213.98 216.84 206.62
  Q 216.14 205.92 217.10 205.69
  C 237.85 200.59 251.33 183.17 251.81 161.96
  C 252.01 153.50 249.54 144.54 246.16 136.58
  C 243.38 130.02 235.78 119.83 228.03 122.79
  Q 221.91 125.13 215.13 131.13
  Q 203.42 141.50 191.62 151.93
  Q 190.95 152.53 191.24 151.68
  Q 196.34 136.95 198.00 121.46
  A 1.00 1.00 0.0 0 0 196.45 120.52
  C 183.27 129.30 173.15 142.21 165.52 156.00
  A 0.56 0.55 31.3 0 1 164.73 156.19
  Q 163.47 155.36 162.91 154.07"
/>
<path stroke="#385b9f" vector-effect="non-scaling-stroke" d="
  M 162.91 154.07
  Q 165.42 147.88 165.03 140.74
  Q 164.94 139.02 164.02 137.71
  A 1.64 1.64 0.0 0 1 163.73 136.78
  C 163.72 133.83 164.39 131.07 164.57 128.05
  C 164.79 124.27 167.99 117.71 166.77 114.94
  C 161.80 103.65 168.73 91.27 172.90 82.28
  C 173.49 81.01 174.71 80.49 174.82 78.57
  Q 174.85 78.08 175.34 77.98
  A 0.88 0.86 -82.6 0 0 175.98 77.47
  Q 181.55 65.07 188.49 53.40
  C 189.86 51.10 191.06 47.44 193.50 44.88
  Q 193.87 44.49 193.57 44.04
  Q 193.38 43.76 193.01 43.73
  Q 192.62 43.69 192.17 44.10
  C 186.34 49.45 179.45 55.09 174.68 60.38
  Q 163.99 72.27 157.44 87.04
  Q 157.24 87.49 156.85 87.77
  C 154.12 89.77 154.13 92.38 152.21 94.39
  A 1.60 1.57 -18.9 0 0 151.80 95.21
  Q 151.21 98.64 149.87 101.82
  C 148.62 104.77 148.50 107.16 148.10 110.16
  Q 148.07 110.41 147.83 110.48
  Q 147.69 110.52 147.53 110.50
  Q 147.22 110.45 147.19 110.75
  L 145.92 121.45
  A 1.47 1.45 -21.6 0 1 145.56 122.26
  Q 143.46 124.70 143.52 127.93
  Q 143.52 128.36 143.32 128.73
  Q 141.73 131.74 141.81 135.22
  Q 141.82 135.92 142.47 135.66
  L 143.58 135.20
  A 0.66 0.66 0.0 0 1 144.49 135.80
  L 144.56 139.53"
/>
<path stroke="#5a7f70" vector-effect="non-scaling-stroke" d="
  M 144.56 139.53
  C 144.64 144.18 144.63 152.72 146.75 156.82
  A 0.48 0.47 8.1 0 1 146.00 157.38
  L 130.41 142.79"
/>
<path stroke="#698c7b" vector-effect="non-scaling-stroke" d="
  M 184.77 216.35
  L 177.32 212.04
  A 0.26 0.26 0.0 0 0 176.93 212.27
  Q 176.94 223.66 178.99 234.30"
/>
<path stroke="#698c7b" vector-effect="non-scaling-stroke" d="
  M 155.94 223.44
  C 155.62 221.49 155.29 220.66 153.37 219.88
  Q 148.82 218.04 144.11 215.72"
/>
<path stroke="#b6c95a" vector-effect="non-scaling-stroke" d="
  M 141.42 209.73
  C 143.91 211.13 145.97 213.09 148.24 214.26
  Q 152.39 216.40 156.95 217.61
  Q 157.48 217.75 157.68 218.26
  Q 162.95 232.32 175.71 240.18
  Q 176.17 240.47 176.26 239.93
  Q 176.34 239.49 176.06 239.16
  Q 175.72 238.76 175.64 238.24
  Q 174.09 228.43 173.04 218.55
  C 172.64 214.85 173.17 211.08 173.27 207.30
  A 1.16 1.16 0.0 0 1 174.92 206.28
  L 180.23 208.73"
/>
<path stroke="#b4c643" vector-effect="non-scaling-stroke" d="
  M 180.23 208.73
  Q 200.58 220.54 223.88 219.22
  A 0.45 0.45 0.0 0 0 224.09 218.39
  Q 215.05 212.84 208.53 204.50
  A 0.50 0.50 0.0 0 1 208.82 203.70
  C 221.38 200.91 233.82 195.23 240.73 184.20
  C 249.94 169.48 249.19 151.13 241.18 136.04
  C 237.34 128.79 232.27 123.84 224.18 129.43
  C 214.30 136.25 205.04 145.58 196.43 152.90
  Q 190.57 157.88 184.90 162.95
  A 0.71 0.71 0.0 0 1 183.76 162.19
  Q 189.75 145.26 193.86 127.78
  A 0.49 0.49 0.0 0 0 193.05 127.32
  C 183.09 136.93 173.09 149.24 167.04 161.74
  Q 166.15 163.59 165.09 162.69"
/>
<path stroke="#b6c95a" vector-effect="non-scaling-stroke" d="
  M 165.09 162.69
  C 163.15 160.00 160.41 157.97 158.66 155.46
  Q 153.44 148.01 148.90 139.99
  A 0.74 0.74 0.0 0 0 148.18 139.62
  Q 147.42 139.69 147.61 140.34
  C 148.52 143.40 148.24 146.49 148.57 149.01
  C 149.34 154.92 150.66 160.44 152.25 166.13
  A 0.84 0.84 0.0 0 1 150.85 166.94
  L 143.40 159.43"
/>
<path stroke="#b4c643" vector-effect="non-scaling-stroke" d="
  M 143.40 159.43
  L 131.63 147.73
  A 0.67 0.66 45.3 0 0 130.71 147.72
  Q 130.23 148.17 129.76 149.35"
/>
<path stroke="#172343" vector-effect="non-scaling-stroke" d="
  M 188.10 264.45
  Q 186.27 263.54 186.72 262.14"
/>
<path stroke="#313b65" vector-effect="non-scaling-stroke" d="
  M 328.57 220.16
  C 321.16 218.47 314.44 217.11 306.40 216.13
  Q 302.00 215.59 297.62 214.94
  C 284.46 213.01 270.11 213.96 257.02 215.75"
/>
<path stroke="#172343" vector-effect="non-scaling-stroke" d="
  M 257.02 215.75
  Q 256.67 215.98 255.76 215.68"
/>
<path stroke="#698c7b" vector-effect="non-scaling-stroke" d="
  M 162.91 154.07
  L 147.09 131.66
  A 0.59 0.59 0.0 0 0 146.06 131.77
  Q 144.59 135.29 144.56 139.53"
/>
<path stroke="#dfdf52" vector-effect="non-scaling-stroke" d="
  M 180.23 208.73
  C 179.41 206.31 177.22 203.45 179.08 201.09
  A 0.83 0.82 54.7 0 0 179.21 200.29
  Q 178.20 197.51 176.24 195.31
  Q 175.93 194.96 175.84 194.49
  L 174.68 188.19
  A 0.88 0.85 -77.1 0 0 174.36 187.66
  L 171.88 185.68
  A 0.58 0.56 -73.3 0 1 171.68 185.29
  L 171.20 179.54
  A 0.63 0.60 18.3 0 0 170.97 179.11
  C 168.44 177.09 163.79 171.69 164.69 167.67
  Q 164.80 167.18 164.62 166.70
  Q 163.71 164.34 165.09 162.69"
/>
<path stroke="#dfdf52" vector-effect="non-scaling-stroke" d="
  M 147.55 186.56
  Q 146.13 183.19 142.88 180.16
  Q 141.35 178.73 140.34 176.85
  Q 139.33 174.99 137.99 173.33
  Q 137.67 172.94 137.60 172.45
  L 137.24 170.23
  Q 137.15 169.67 137.35 169.14
  C 138.27 166.72 137.11 161.42 141.66 162.57
  A 0.62 0.61 -73.0 0 0 142.38 162.18
  L 143.40 159.43"
/>
<path stroke="#36324b" vector-effect="non-scaling-stroke" d="
  M 393.73 258.74
  Q 383.47 258.67 373.51 258.61
  C 367.79 258.58 358.69 259.08 351.17 258.25
  C 347.58 257.86 342.25 256.14 338.50 256.26
  Q 335.43 256.37 330.50 255.26
  Q 325.99 254.24 320.45 255.37"
/>
<path stroke="#262434" vector-effect="non-scaling-stroke" d="
  M 320.45 255.37
  L 319.03 258.27
  A 0.42 0.41 1.3 0 0 319.57 258.83
  L 321.57 257.97
  A 1.28 1.28 0.0 0 1 322.46 257.94
  Q 336.09 262.45 351.16 265.02"
/>
<path stroke="#36324b" vector-effect="non-scaling-stroke" d="
  M 351.16 265.02
  Q 358.51 268.06 366.33 267.19"
/>
<path stroke="#36324b" vector-effect="non-scaling-stroke" d="
  M 375.65 298.39
  Q 371.52 297.55 367.69 297.34
  C 365.42 297.21 363.61 295.88 360.97 296.31
  A 1.40 1.38 -32.2 0 1 359.93 296.08
  Q 358.65 295.19 357.06 295.53
  Q 356.60 295.62 356.20 295.38
  C 352.55 293.18 345.60 292.19 341.29 290.92
  C 337.96 289.93 335.29 287.88 332.01 286.46
  Q 328.25 284.83 325.07 283.17
  C 320.92 281.00 312.60 277.38 307.96 279.03
  C 302.27 281.06 297.09 284.22 291.30 285.68
  C 285.98 287.02 280.63 289.10 275.24 289.96
  Q 272.46 290.40 269.68 290.83
  C 261.76 292.06 253.22 291.57 245.21 291.47
  C 233.80 291.33 222.38 289.75 211.00 288.36
  C 207.94 287.99 205.17 286.62 201.90 286.26"
/>
<path stroke="#36324b" vector-effect="non-scaling-stroke" d="
  M 200.82 287.81
  Q 195.60 295.72 186.53 301.02
  C 166.45 312.73 142.08 319.03 119.24 316.52
  Q 117.57 316.34 113.58 316.99"
/>
<path stroke="#453f59" vector-effect="non-scaling-stroke" d="
  M 98.28 303.32
  Q 103.60 300.81 107.30 296.99
  C 109.83 294.38 112.83 293.28 115.02 290.06
  A 1.15 1.12 -80.0 0 1 115.67 289.59
  L 121.72 287.90
  Q 122.20 287.77 122.58 288.08
  C 124.61 289.69 126.72 290.80 128.55 288.16
  A 0.60 0.60 0.0 0 0 128.33 287.28
  Q 122.10 284.15 115.25 282.73
  Q 113.29 282.32 111.63 279.60
  A 1.91 1.90 88.5 0 0 110.94 278.94
  Q 108.30 277.45 108.48 274.42"
/>
<path stroke="#313b65" vector-effect="non-scaling-stroke" d="
  M 115.48 276.21
  L 116.50 277.72
  Q 116.78 278.13 117.27 278.02
  Q 118.49 277.74 119.41 278.45
  Q 119.81 278.75 120.29 278.87
  C 129.25 281.17 134.86 282.92 146.24 282.97
  C 161.76 283.04 175.99 275.42 188.10 264.45"
/>
<path stroke="#262434" vector-effect="non-scaling-stroke" d="
  M 188.10 264.45
  Q 206.01 273.71 225.50 277.59
  Q 228.50 278.19 229.48 275.71
  C 235.73 259.96 240.96 246.00 248.40 231.86
  Q 252.59 223.89 257.02 215.75"
/>
<path stroke="#3b354e" vector-effect="non-scaling-stroke" d="
  M 76.37 303.35
  C 71.13 301.00 66.70 298.78 61.04 297.19
  A 0.77 0.76 -62.8 0 0 60.23 297.46
  C 58.93 299.11 59.10 301.02 58.35 302.55
  C 51.68 316.23 39.62 330.92 22.36 329.49"
/>
<path stroke="#1c1a29" vector-effect="non-scaling-stroke" d="
  M 351.16 265.02
  Q 349.82 263.46 347.72 263.12
  C 338.81 261.66 329.26 258.17 320.45 255.37"
/>
<path stroke="#3b354e" vector-effect="non-scaling-stroke" d="
  M 44.52 368.50
  Q 43.41 351.64 52.86 336.90
  C 53.89 335.29 54.13 333.50 54.70 331.71
  Q 54.89 331.14 54.30 331.02
  L 53.68 330.91"
/>
<path stroke="#254484" vector-effect="non-scaling-stroke" d="
  M 452.19 229.53
  Q 451.15 237.45 449.29 243.04
  Q 446.03 252.85 439.17 260.86
  Q 438.89 261.20 438.98 261.63
  L 441.74 274.29
  A 0.49 0.49 0.0 0 0 442.55 274.55
  Q 451.57 266.33 456.52 253.58"
/>
<path stroke="#273159" vector-effect="non-scaling-stroke" d="
  M 427.41 316.64
  Q 431.34 311.54 434.26 306.61
  C 435.83 303.95 436.58 300.78 437.71 297.50
  Q 440.67 288.90 438.93 279.29"
/>
<path stroke="#313b65" vector-effect="non-scaling-stroke" d="
  M 447.76 221.38
  C 452.13 235.12 444.90 250.08 435.96 260.47
  Q 435.62 260.86 435.77 261.36
  C 436.67 264.51 437.62 267.23 437.85 270.57
  Q 438.15 274.91 438.93 279.29"
/>
<path stroke="#36324b" vector-effect="non-scaling-stroke" d="
  M 438.93 279.29
  C 433.13 281.96 425.15 282.76 419.12 279.80"
/>
<path stroke="#36324b" vector-effect="non-scaling-stroke" d="
  M 406.49 234.12
  C 409.34 228.07 414.05 216.14 412.62 208.95
  Q 412.50 208.36 411.98 208.67
  L 401.84 214.88"
/>
<path stroke="#363e68" vector-effect="non-scaling-stroke" d="
  M 448.67 220.33
  L 447.76 221.38"
/>
<path stroke="#453f59" vector-effect="non-scaling-stroke" d="
  M 447.76 221.38
  Q 440.22 209.47 430.68 199.37
  C 429.16 197.76 426.70 196.65 424.89 195.09
  C 423.15 193.60 421.48 193.53 420.11 195.43
  A 0.57 0.54 -28.2 0 0 420.00 195.76
  L 420.00 196.52
  A 1.03 1.03 0.0 0 1 419.62 197.32
  Q 415.18 201.00 411.68 205.49
  C 410.48 207.03 408.73 208.20 407.50 209.89
  Q 407.26 210.22 406.91 210.42
  L 398.21 215.56
  Q 397.77 215.82 398.15 216.16
  Q 398.44 216.43 398.69 216.20
  Q 400.24 214.79 401.84 214.88"
/>
<path stroke="#3b354e" vector-effect="non-scaling-stroke" d="
  M 401.84 214.88
  Q 395.19 218.29 388.62 221.65
  C 387.45 222.25 385.89 222.41 384.67 223.23
  C 381.61 225.32 378.19 225.72 374.58 225.97
  C 373.48 226.05 372.56 226.66 371.42 226.83
  Q 358.45 228.77 345.59 226.41
  C 344.19 226.15 342.62 226.26 341.20 226.26
  C 338.32 226.26 336.67 224.37 333.56 226.13"
/>
<path stroke="#524862" vector-effect="non-scaling-stroke" d="
  M 401.59 181.61
  L 400.08 184.87
  A 0.76 0.76 0.0 0 1 399.33 185.31
  L 392.13 184.86
  Q 391.68 184.83 391.31 185.10
  Q 390.11 185.97 388.96 184.78
  Q 387.86 183.62 384.68 181.55
  Q 384.21 181.23 383.78 181.61
  L 382.48 182.76
  Q 382.21 182.99 381.86 183.03
  Q 380.13 183.22 379.22 181.72
  A 0.62 0.62 0.0 0 0 378.36 181.51
  Q 374.79 183.72 370.25 184.51
  Q 368.44 184.82 367.19 186.26
  C 366.13 187.49 366.71 188.90 368.22 189.31
  Q 368.72 189.45 368.79 189.96
  L 369.08 192.06
  A 0.22 0.21 82.1 0 0 369.32 192.25
  L 369.72 192.20
  Q 370.18 192.13 370.01 192.57
  Q 369.49 193.87 368.31 193.24
  A 1.03 1.03 0.0 0 0 367.03 193.51
  Q 365.29 195.70 364.53 198.42
  Q 364.37 198.96 364.01 199.39
  Q 361.26 202.65 362.77 206.77
  A 1.30 1.28 -40.2 0 1 362.67 207.87
  C 360.28 211.92 356.91 219.34 352.84 221.61
  C 350.37 222.99 347.23 222.33 344.53 222.08
  Q 344.04 222.03 343.69 221.68
  C 342.47 220.44 340.67 220.45 339.38 219.65
  Q 334.17 216.44 330.00 211.81"
/>
<path stroke="#a89d3f" vector-effect="non-scaling-stroke" d="
  M 295.63 139.72
  L 291.72 142.71"
/>
<path stroke="#858636" vector-effect="non-scaling-stroke" d="
  M 291.72 142.71
  Q 289.68 140.00 286.40 139.57"
/>
<path stroke="#757427" vector-effect="non-scaling-stroke" d="
  M 286.40 139.57
  C 278.07 136.34 276.03 148.09 278.69 153.52"
/>
<path stroke="#a89d3f" vector-effect="non-scaling-stroke" d="
  M 278.69 153.52
  L 276.20 159.49
  Q 276.14 159.62 276.01 159.66
  Q 275.82 159.73 275.62 159.80
  Q 275.23 159.95 275.24 160.36
  L 275.26 160.82"
/>
<path stroke="#bdb939" vector-effect="non-scaling-stroke" d="
  M 275.26 160.82
  L 274.75 162.15"
/>
<path stroke="#50483a" vector-effect="non-scaling-stroke" d="
  M 291.72 142.71
  Q 293.27 145.54 293.31 147.95"
/>
<path stroke="#887b3d" vector-effect="non-scaling-stroke" d="
  M 288.78 170.63
  Q 290.24 170.72 291.13 170.18
  Q 291.80 169.77 291.02 169.73
  C 285.23 169.42 277.82 166.44 275.26 160.82"
/>
<path stroke="#1d1e22" vector-effect="non-scaling-stroke" d="
  M 286.40 139.57
  L 290.41 143.54
  Q 290.88 144.00 290.23 144.00
  L 289.86 144.00
  Q 289.37 144.00 289.05 143.62
  C 287.14 141.35 283.75 139.96 281.23 142.31
  C 275.76 147.41 281.42 160.77 288.36 161.83
  C 295.46 162.90 294.16 153.22 292.70 149.43
  Q 292.49 148.90 292.57 148.58
  Q 292.71 148.01 293.31 147.95"
/>
<path stroke="#40362b" vector-effect="non-scaling-stroke" d="
  M 293.31 147.95
  C 293.74 151.42 296.34 153.72 295.28 157.96
  C 293.78 163.99 287.47 164.40 283.30 160.40
  Q 280.51 157.73 278.69 153.52"
/>
<path stroke="#453f59" vector-effect="non-scaling-stroke" d="
  M 393.51 146.85
  Q 394.33 148.09 393.73 148.80
  Q 393.43 149.15 393.51 149.60
  Q 393.76 150.97 395.05 151.54
  A 1.55 1.54 -5.0 0 1 395.71 152.09
  Q 398.09 155.52 402.12 156.45
  A 1.46 1.45 -70.5 0 1 403.10 158.51
  L 401.64 161.48
  Q 401.42 161.93 401.59 162.41
  Q 403.94 168.70 400.01 174.22
  Q 399.66 174.71 399.89 175.27
  L 401.31 178.80
  Q 401.46 179.18 401.07 179.29
  Q 400.93 179.33 400.75 179.35"
/>
<path stroke="#3b354e" vector-effect="non-scaling-stroke" d="
  M 339.03 192.87
  Q 336.72 192.20 334.35 193.59
  A 0.70 0.60 25.6 0 1 334.01 193.68
  L 324.58 193.42
  A 0.88 0.86 -29.6 0 1 324.24 193.33
  Q 321.27 191.75 318.36 193.59"
/>
<path stroke="#524862" vector-effect="non-scaling-stroke" d="
  M 314.61 189.09
  Q 320.86 191.70 325.91 191.98
  Q 326.89 192.03 329.39 192.66
  C 335.04 194.09 335.68 188.21 337.03 184.65
  Q 337.78 182.69 337.98 180.74
  Q 338.84 172.33 340.17 163.99
  Q 340.55 161.63 338.77 160.87
  A 1.17 1.16 -52.5 0 1 338.51 158.88
  L 344.37 154.31
  A 0.68 0.65 19.7 0 1 344.64 154.19
  Q 349.20 153.41 350.37 148.88
  Q 350.47 148.49 350.76 148.20
  L 352.38 146.55
  Q 352.72 146.20 353.21 146.17
  C 356.03 145.97 360.10 144.76 358.76 141.14"
/>
<path stroke="#313b65" vector-effect="non-scaling-stroke" d="
  M 410.79 158.33
  Q 413.90 163.00 415.25 168.50
  Q 417.35 177.05 416.05 184.82"
/>
<path stroke="#254484" vector-effect="non-scaling-stroke" d="
  M 416.80 163.65
  Q 417.44 166.60 418.19 169.25
  C 419.78 174.86 419.64 180.65 419.16 186.40"
/>
<path stroke="#433b54" vector-effect="non-scaling-stroke" d="
  M 146.10 193.84
  Q 144.23 194.95 141.32 194.47"
/>
<path stroke="#a89d3f" vector-effect="non-scaling-stroke" d="
  M 406.79 236.94
  Q 405.95 237.14 405.90 237.63"
/>
<path stroke="#887b3d" vector-effect="non-scaling-stroke" d="
  M 405.90 237.63
  Q 400.39 244.00 394.57 247.37
  C 392.43 248.61 389.96 248.45 387.53 249.07"
/>
<path stroke="#bdb939" vector-effect="non-scaling-stroke" d="
  M 388.46 250.29
  Q 400.31 250.26 405.90 237.63"
/>
<path stroke="#bdb939" vector-effect="non-scaling-stroke" d="
  M 416.69 280.52
  C 414.87 284.30 413.06 288.44 410.42 291.40
  C 402.49 300.30 390.46 300.95 379.49 297.41"
/>
<path stroke="#a89d3f" vector-effect="non-scaling-stroke" d="
  M 379.49 297.41
  L 376.73 296.52"
/>
<path stroke="#887b3d" vector-effect="non-scaling-stroke" d="
  M 417.90 281.70
  C 412.58 297.51 398.23 305.01 381.96 299.77
  Q 380.44 299.28 379.49 297.41"
/>
<path stroke="#bdb939" vector-effect="non-scaling-stroke" d="
  M 112.47 318.56
  C 97.65 320.30 89.29 314.23 79.32 304.68
  A 1.08 1.06 17.0 0 1 78.99 304.07
  Q 78.97 303.90 78.94 303.70"
/>
<path stroke="#887b3d" vector-effect="non-scaling-stroke" d="
  M 113.29 320.69
  C 99.53 323.31 85.49 315.95 78.12 304.63"
/>
<path stroke="#254484" vector-effect="non-scaling-stroke" d="
  M 386.96 372.25
  Q 385.03 387.02 388.89 401.62"
/>
<path stroke="#606955" vector-effect="non-scaling-stroke" d="
  M 388.89 401.62
  Q 388.77 401.69 388.66 401.76"
/>
<path stroke="#4b4d5b" vector-effect="non-scaling-stroke" d="
  M 388.66 401.76
  C 378.07 406.41 373.04 418.41 381.74 427.76
  Q 381.80 427.82 381.74 427.88
  Q 381.66 427.97 381.56 428.06
  Q 381.43 428.18 381.56 428.30
  C 386.86 433.34 393.59 431.14 398.87 427.26"
/>
<path stroke="#254484" vector-effect="non-scaling-stroke" d="
  M 398.87 427.26
  C 402.40 433.55 410.25 439.91 415.44 443.87
  Q 416.26 444.50 416.92 444.54
  Q 418.21 444.62 418.30 443.20"
/>
<path stroke="#254484" vector-effect="non-scaling-stroke" d="
  M 421.50 443.40
  Q 426.36 444.27 427.75 444.27
  Q 440.30 444.30 448.81 445.67
  Q 449.30 445.75 449.70 445.45
  Q 450.62 444.75 450.42 443.40"
/>
<path stroke="#273159" vector-effect="non-scaling-stroke" d="
  M 466.15 497.73
  C 467.80 492.42 465.38 488.23 461.73 484.45
  C 458.12 480.70 453.71 478.67 448.80 477.03
  C 445.29 475.86 441.34 475.66 437.49 475.03
  Q 433.93 474.44 428.93 474.02
  C 407.83 472.24 388.14 462.84 377.21 444.18
  C 374.19 439.02 371.30 430.37 370.06 425.19
  C 366.90 411.95 365.76 395.71 363.78 380.51"
/>
<path stroke="#637266" vector-effect="non-scaling-stroke" d="
  M 391.26 399.71
  Q 390.28 399.72 388.89 401.62"
/>
<path stroke="#bdb939" vector-effect="non-scaling-stroke" d="
  M 392.33 403.43
  C 384.95 404.74 396.77 420.80 396.30 423.66
  Q 396.19 424.28 396.82 424.25
  Q 398.16 424.18 399.36 422.45"
/>
<path stroke="#637266" vector-effect="non-scaling-stroke" d="
  M 401.09 425.69
  L 398.98 427.05"
/>
<path stroke="#887b3d" vector-effect="non-scaling-stroke" d="
  M 398.98 427.05
  Q 397.85 426.73 397.42 425.46
  Q 397.25 424.95 396.79 425.23
  Q 392.95 427.59 388.52 428.62
  Q 388.04 428.73 387.61 428.50
  Q 383.13 426.18 381.29 421.00
  C 378.69 413.69 383.62 409.13 388.64 405.51
  Q 389.05 405.22 388.99 404.72
  L 388.66 401.76"
/>
<path stroke="#4e566c" vector-effect="non-scaling-stroke" d="
  M 398.98 427.05
  Q 398.93 427.15 398.87 427.26"
/>
<path stroke="#273159" vector-effect="non-scaling-stroke" d="
  M 264.91 384.44
  Q 258.58 394.66 252.47 405.06
  C 251.61 406.51 250.00 407.69 249.01 409.26
  Q 246.40 413.38 243.12 416.95
  C 241.84 418.35 241.25 420.18 239.90 421.63
  C 230.82 431.35 220.79 441.12 209.12 447.40
  C 194.44 455.32 180.04 458.86 162.49 463.05
  C 158.94 463.90 155.32 465.33 151.66 466.38
  Q 140.23 469.65 133.17 479.16
  Q 131.34 481.62 129.40 488.96"
/>
<path stroke="#254484" vector-effect="non-scaling-stroke" d="
  M 127.16 465.86
  Q 131.46 461.98 134.83 457.38
  C 140.87 449.18 149.67 444.09 159.32 441.19
  C 161.68 440.48 165.62 439.89 168.74 438.48
  Q 169.10 438.32 169.26 438.03
  Q 169.47 437.65 169.05 437.57
  Q 168.48 437.47 168.26 436.63"
/>
</g>
<path fill="#4768aa" d="
  M 318.45 22.18
  Q 318.20 22.73 317.62 23.09
  A 0.78 0.76 44.4 0 1 316.81 23.09
  C 307.39 17.33 296.97 12.23 286.08 10.04
  C 280.29 8.88 272.45 9.29 265.56 8.04
  C 263.07 7.58 260.77 7.97 258.24 7.81
  C 252.45 7.44 246.88 8.50 241.32 10.02
  Q 240.06 10.36 237.64 10.33
  C 234.83 10.30 232.40 12.00 230.56 12.65
  Q 225.35 14.51 217.44 17.92
  Q 215.71 18.67 215.49 16.57
  Q 226.13 11.18 240.02 6.80
  C 267.19 -1.75 296.86 3.15 318.45 22.18
  Z"
/>
<path fill="#284d94" d="
  M 318.45 22.18
  Q 332.59 35.70 338.65 54.78
  L 336.77 55.74
  Q 336.33 55.96 336.28 56.46
  Q 335.23 67.64 334.76 70.54
  C 330.52 96.55 314.75 118.09 295.14 136.91
  C 289.61 131.81 281.14 130.24 274.86 134.83
  C 262.22 144.07 270.92 167.96 284.81 171.82
  Q 290.75 177.43 300.31 176.11
  L 308.13 178.04
  Q 308.64 178.17 308.73 178.69
  Q 311.87 198.40 331.73 201.41
  Q 332.20 201.48 331.96 201.89
  Q 328.27 208.10 328.13 215.52
  L 327.98 216.50
  Q 327.91 216.97 327.44 216.89
  C 308.60 213.75 291.66 210.38 271.50 212.59
  C 267.44 213.03 261.41 212.95 256.35 214.23
  Q 255.86 214.36 255.75 214.85
  Q 255.66 215.21 255.76 215.68
  L 255.12 216.00
  A 1.68 1.67 -87.4 0 0 254.40 216.66
  C 242.86 236.38 235.85 255.21 227.48 275.01
  Q 227.28 275.47 226.79 275.51
  Q 225.59 275.59 224.01 275.21
  Q 204.10 270.46 186.72 262.14
  Q 177.11 270.05 173.96 271.99
  Q 157.82 281.88 137.15 280.19
  Q 136.66 280.15 136.42 279.72
  L 135.76 278.59
  Q 161.65 278.20 175.51 256.61
  Q 175.79 256.18 176.23 256.45
  L 181.87 259.89
  A 0.61 0.61 0.0 0 0 182.52 258.86
  Q 173.10 252.56 165.51 245.31
  Q 165.17 241.24 161.14 238.21
  C 159.45 236.93 154.73 232.12 156.94 229.95
  A 0.84 0.84 0.0 0 0 157.15 229.08
  Q 156.34 226.73 155.19 224.63
  Q 154.93 224.15 155.06 223.86
  Q 155.25 223.43 155.94 223.44
  C 160.14 232.16 170.02 244.46 180.27 245.51
  Q 180.85 245.57 180.75 244.99
  L 178.99 234.30
  Q 181.09 235.86 181.56 241.23
  Q 181.86 244.80 185.51 243.92
  Q 186.02 243.79 185.92 243.27
  Q 185.85 242.90 185.40 242.81
  A 1.65 1.43 -41.6 0 1 185.80 239.81
  Q 188.93 239.14 191.89 240.36
  A 0.84 0.83 84.9 0 0 192.91 239.14
  Q 189.02 232.99 186.47 225.97
  C 185.35 222.87 181.48 218.96 184.77 216.35
  Q 207.96 227.11 232.62 222.07
  A 1.31 1.31 0.0 0 0 233.07 219.69
  Q 224.29 213.98 216.84 206.62
  Q 216.14 205.92 217.10 205.69
  C 237.85 200.59 251.33 183.17 251.81 161.96
  C 252.01 153.50 249.54 144.54 246.16 136.58
  C 243.38 130.02 235.78 119.83 228.03 122.79
  Q 221.91 125.13 215.13 131.13
  Q 203.42 141.50 191.62 151.93
  Q 190.95 152.53 191.24 151.68
  Q 196.34 136.95 198.00 121.46
  A 1.00 1.00 0.0 0 0 196.45 120.52
  C 183.27 129.30 173.15 142.21 165.52 156.00
  A 0.56 0.55 31.3 0 1 164.73 156.19
  Q 163.47 155.36 162.91 154.07
  Q 165.42 147.88 165.03 140.74
  Q 164.94 139.02 164.02 137.71
  A 1.64 1.64 0.0 0 1 163.73 136.78
  C 163.72 133.83 164.39 131.07 164.57 128.05
  C 164.79 124.27 167.99 117.71 166.77 114.94
  C 161.80 103.65 168.73 91.27 172.90 82.28
  C 173.49 81.01 174.71 80.49 174.82 78.57
  Q 174.85 78.08 175.34 77.98
  A 0.88 0.86 -82.6 0 0 175.98 77.47
  Q 181.55 65.07 188.49 53.40
  C 189.86 51.10 191.06 47.44 193.50 44.88
  Q 193.87 44.49 193.57 44.04
  Q 193.38 43.76 193.01 43.73
  Q 192.62 43.69 192.17 44.10
  C 186.34 49.45 179.45 55.09 174.68 60.38
  Q 163.99 72.27 157.44 87.04
  Q 157.24 87.49 156.85 87.77
  C 154.12 89.77 154.13 92.38 152.21 94.39
  A 1.60 1.57 -18.9 0 0 151.80 95.21
  Q 151.21 98.64 149.87 101.82
  C 148.62 104.77 148.50 107.16 148.10 110.16
  Q 148.07 110.41 147.83 110.48
  Q 147.69 110.52 147.53 110.50
  Q 147.22 110.45 147.19 110.75
  L 145.92 121.45
  A 1.47 1.45 -21.6 0 1 145.56 122.26
  Q 143.46 124.70 143.52 127.93
  Q 143.52 128.36 143.32 128.73
  Q 141.73 131.74 141.81 135.22
  Q 141.82 135.92 142.47 135.66
  L 143.58 135.20
  A 0.66 0.66 0.0 0 1 144.49 135.80
  L 144.56 139.53
  C 144.64 144.18 144.63 152.72 146.75 156.82
  A 0.48 0.47 8.1 0 1 146.00 157.38
  L 130.41 142.79
  Q 130.10 135.46 132.25 125.01
  C 137.77 98.29 149.43 75.73 166.50 54.98
  C 178.97 39.83 197.35 25.20 215.49 16.57
  Q 215.71 18.67 217.44 17.92
  Q 225.35 14.51 230.56 12.65
  C 232.40 12.00 234.83 10.30 237.64 10.33
  Q 240.06 10.36 241.32 10.02
  C 246.88 8.50 252.45 7.44 258.24 7.81
  C 260.77 7.97 263.07 7.58 265.56 8.04
  C 272.45 9.29 280.29 8.88 286.08 10.04
  C 296.97 12.23 307.39 17.33 316.81 23.09
  A 0.78 0.76 44.4 0 0 317.62 23.09
  Q 318.20 22.73 318.45 22.18
  Z"
/>
<path fill="#4768aa" d="
  M 162.91 154.07
  L 147.09 131.66
  A 0.59 0.59 0.0 0 0 146.06 131.77
  Q 144.59 135.29 144.56 139.53
  L 144.49 135.80
  A 0.66 0.66 0.0 0 0 143.58 135.20
  L 142.47 135.66
  Q 141.82 135.92 141.81 135.22
  Q 141.73 131.74 143.32 128.73
  Q 143.52 128.36 143.52 127.93
  Q 143.46 124.70 145.56 122.26
  A 1.47 1.45 -21.6 0 0 145.92 121.45
  L 147.19 110.75
  Q 147.22 110.45 147.53 110.50
  Q 147.69 110.52 147.83 110.48
  Q 148.07 110.41 148.10 110.16
  C 148.50 107.16 148.62 104.77 149.87 101.82
  Q 151.21 98.64 151.80 95.21
  A 1.60 1.57 -18.9 0 1 152.21 94.39
  C 154.13 92.38 154.12 89.77 156.85 87.77
  Q 157.24 87.49 157.44 87.04
  Q 163.99 72.27 174.68 60.38
  C 179.45 55.09 186.34 49.45 192.17 44.10
  Q 192.62 43.69 193.01 43.73
  Q 193.38 43.76 193.57 44.04
  Q 193.87 44.49 193.50 44.88
  C 191.06 47.44 189.86 51.10 188.49 53.40
  Q 181.55 65.07 175.98 77.47
  A 0.88 0.86 -82.6 0 1 175.34 77.98
  Q 174.85 78.08 174.82 78.57
  C 174.71 80.49 173.49 81.01 172.90 82.28
  C 168.73 91.27 161.80 103.65 166.77 114.94
  C 167.99 117.71 164.79 124.27 164.57 128.05
  C 164.39 131.07 163.72 133.83 163.73 136.78
  A 1.64 1.64 0.0 0 0 164.02 137.71
  Q 164.94 139.02 165.03 140.74
  Q 165.42 147.88 162.91 154.07
  Z"
/>
<path fill="#223a73" d="
  M 338.65 54.78
  C 347.36 83.67 340.10 115.41 322.66 139.43
  C 317.43 146.63 310.29 155.15 303.55 162.35
  A 0.46 0.45 71.9 0 1 302.77 161.95
  Q 305.38 147.41 295.14 136.91
  C 314.75 118.09 330.52 96.55 334.76 70.54
  Q 335.23 67.64 336.28 56.46
  Q 336.33 55.96 336.77 55.74
  L 338.65 54.78
  Z"
/>
<path fill="#8bb04b" d="
  M 184.77 216.35
  L 177.32 212.04
  A 0.26 0.26 0.0 0 0 176.93 212.27
  Q 176.94 223.66 178.99 234.30
  L 180.75 244.99
  Q 180.85 245.57 180.27 245.51
  C 170.02 244.46 160.14 232.16 155.94 223.44
  C 155.62 221.49 155.29 220.66 153.37 219.88
  Q 148.82 218.04 144.11 215.72
  L 141.42 209.73
  C 143.91 211.13 145.97 213.09 148.24 214.26
  Q 152.39 216.40 156.95 217.61
  Q 157.48 217.75 157.68 218.26
  Q 162.95 232.32 175.71 240.18
  Q 176.17 240.47 176.26 239.93
  Q 176.34 239.49 176.06 239.16
  Q 175.72 238.76 175.64 238.24
  Q 174.09 228.43 173.04 218.55
  C 172.64 214.85 173.17 211.08 173.27 207.30
  A 1.16 1.16 0.0 0 1 174.92 206.28
  L 180.23 208.73
  Q 200.58 220.54 223.88 219.22
  A 0.45 0.45 0.0 0 0 224.09 218.39
  Q 215.05 212.84 208.53 204.50
  A 0.50 0.50 0.0 0 1 208.82 203.70
  C 221.38 200.91 233.82 195.23 240.73 184.20
  C 249.94 169.48 249.19 151.13 241.18 136.04
  C 237.34 128.79 232.27 123.84 224.18 129.43
  C 214.30 136.25 205.04 145.58 196.43 152.90
  Q 190.57 157.88 184.90 162.95
  A 0.71 0.71 0.0 0 1 183.76 162.19
  Q 189.75 145.26 193.86 127.78
  A 0.49 0.49 0.0 0 0 193.05 127.32
  C 183.09 136.93 173.09 149.24 167.04 161.74
  Q 166.15 163.59 165.09 162.69
  C 163.15 160.00 160.41 157.97 158.66 155.46
  Q 153.44 148.01 148.90 139.99
  A 0.74 0.74 0.0 0 0 148.18 139.62
  Q 147.42 139.69 147.61 140.34
  C 148.52 143.40 148.24 146.49 148.57 149.01
  C 149.34 154.92 150.66 160.44 152.25 166.13
  A 0.84 0.84 0.0 0 1 150.85 166.94
  L 143.40 159.43
  L 131.63 147.73
  A 0.67 0.66 45.3 0 0 130.71 147.72
  Q 130.23 148.17 129.76 149.35
  L 130.41 142.79
  L 146.00 157.38
  A 0.48 0.47 8.1 0 0 146.75 156.82
  C 144.63 152.72 144.64 144.18 144.56 139.53
  Q 144.59 135.29 146.06 131.77
  A 0.59 0.59 0.0 0 1 147.09 131.66
  L 162.91 154.07
  Q 163.47 155.36 164.73 156.19
  A 0.56 0.55 31.3 0 0 165.52 156.00
  C 173.15 142.21 183.27 129.30 196.45 120.52
  A 1.00 1.00 0.0 0 1 198.00 121.46
  Q 196.34 136.95 191.24 151.68
  Q 190.95 152.53 191.62 151.93
  Q 203.42 141.50 215.13 131.13
  Q 221.91 125.13 228.03 122.79
  C 235.78 119.83 243.38 130.02 246.16 136.58
  C 249.54 144.54 252.01 153.50 251.81 161.96
  C 251.33 183.17 237.85 200.59 217.10 205.69
  Q 216.14 205.92 216.84 206.62
  Q 224.29 213.98 233.07 219.69
  A 1.31 1.31 0.0 0 1 232.62 222.07
  Q 207.96 227.11 184.77 216.35
  Z"
/>
<path fill="#dddb3b" d="
  M 180.23 208.73
  C 179.41 206.31 177.22 203.45 179.08 201.09
  A 0.83 0.82 54.7 0 0 179.21 200.29
  Q 178.20 197.51 176.24 195.31
  Q 175.93 194.96 175.84 194.49
  L 174.68 188.19
  A 0.88 0.85 -77.1 0 0 174.36 187.66
  L 171.88 185.68
  A 0.58 0.56 -73.3 0 1 171.68 185.29
  L 171.20 179.54
  A 0.63 0.60 18.3 0 0 170.97 179.11
  C 168.44 177.09 163.79 171.69 164.69 167.67
  Q 164.80 167.18 164.62 166.70
  Q 163.71 164.34 165.09 162.69
  Q 166.15 163.59 167.04 161.74
  C 173.09 149.24 183.09 136.93 193.05 127.32
  A 0.49 0.49 0.0 0 1 193.86 127.78
  Q 189.75 145.26 183.76 162.19
  A 0.71 0.71 0.0 0 0 184.90 162.95
  Q 190.57 157.88 196.43 152.90
  C 205.04 145.58 214.30 136.25 224.18 129.43
  C 232.27 123.84 237.34 128.79 241.18 136.04
  C 249.19 151.13 249.94 169.48 240.73 184.20
  C 233.82 195.23 221.38 200.91 208.82 203.70
  A 0.50 0.50 0.0 0 0 208.53 204.50
  Q 215.05 212.84 224.09 218.39
  A 0.45 0.45 0.0 0 1 223.88 219.22
  Q 200.58 220.54 180.23 208.73
  Z"
/>
<path fill="#dddb3b" d="
  M 295.63 139.72
  L 291.72 142.71
  Q 289.68 140.00 286.40 139.57
  C 278.07 136.34 276.03 148.09 278.69 153.52
  L 276.20 159.49
  Q 276.14 159.62 276.01 159.66
  Q 275.82 159.73 275.62 159.80
  Q 275.23 159.95 275.24 160.36
  L 275.26 160.82
  L 274.75 162.15
  C 270.59 155.41 268.80 146.36 272.81 139.57
  C 278.42 130.06 289.41 133.18 295.63 139.72
  Z"
/>
<path fill="#0c0c12" d="
  M 286.40 139.57
  L 290.41 143.54
  Q 290.88 144.00 290.23 144.00
  L 289.86 144.00
  Q 289.37 144.00 289.05 143.62
  C 287.14 141.35 283.75 139.96 281.23 142.31
  C 275.76 147.41 281.42 160.77 288.36 161.83
  C 295.46 162.90 294.16 153.22 292.70 149.43
  Q 292.49 148.90 292.57 148.58
  Q 292.71 148.01 293.31 147.95
  C 293.74 151.42 296.34 153.72 295.28 157.96
  C 293.78 163.99 287.47 164.40 283.30 160.40
  Q 280.51 157.73 278.69 153.52
  C 276.03 148.09 278.07 136.34 286.40 139.57
  Z"
/>
<path fill="#e1e269" d="
  M 165.09 162.69
  Q 163.71 164.34 164.62 166.70
  Q 164.80 167.18 164.69 167.67
  C 163.79 171.69 168.44 177.09 170.97 179.11
  A 0.63 0.60 18.3 0 1 171.20 179.54
  L 171.68 185.29
  A 0.58 0.56 -73.3 0 0 171.88 185.68
  L 174.36 187.66
  A 0.88 0.85 -77.1 0 1 174.68 188.19
  L 175.84 194.49
  Q 175.93 194.96 176.24 195.31
  Q 178.20 197.51 179.21 200.29
  A 0.83 0.82 54.7 0 1 179.08 201.09
  C 177.22 203.45 179.41 206.31 180.23 208.73
  L 174.92 206.28
  A 1.16 1.16 0.0 0 0 173.27 207.30
  C 173.17 211.08 172.64 214.85 173.04 218.55
  Q 174.09 228.43 175.64 238.24
  Q 175.72 238.76 176.06 239.16
  Q 176.34 239.49 176.26 239.93
  Q 176.17 240.47 175.71 240.18
  Q 162.95 232.32 157.68 218.26
  Q 157.48 217.75 156.95 217.61
  Q 152.39 216.40 148.24 214.26
  C 145.97 213.09 143.91 211.13 141.42 209.73
  L 138.40 202.28
  A 0.50 0.50 0.0 0 1 139.14 201.68
  Q 148.04 207.53 157.23 201.45
  C 162.24 198.15 161.18 191.34 158.15 187.22
  Q 157.28 186.03 157.83 187.41
  C 158.56 189.24 158.84 191.83 158.61 194.34
  Q 158.56 194.90 158.09 194.61
  Q 152.03 190.91 147.55 186.56
  Q 146.13 183.19 142.88 180.16
  Q 141.35 178.73 140.34 176.85
  Q 139.33 174.99 137.99 173.33
  Q 137.67 172.94 137.60 172.45
  L 137.24 170.23
  Q 137.15 169.67 137.35 169.14
  C 138.27 166.72 137.11 161.42 141.66 162.57
  A 0.62 0.61 -73.0 0 0 142.38 162.18
  L 143.40 159.43
  L 150.85 166.94
  A 0.84 0.84 0.0 0 0 152.25 166.13
  C 150.66 160.44 149.34 154.92 148.57 149.01
  C 148.24 146.49 148.52 143.40 147.61 140.34
  Q 147.42 139.69 148.18 139.62
  A 0.74 0.74 0.0 0 1 148.90 139.99
  Q 153.44 148.01 158.66 155.46
  C 160.41 157.97 163.15 160.00 165.09 162.69
  Z"
/>
<path fill="#2d3031" d="
  M 286.40 139.57
  Q 289.68 140.00 291.72 142.71
  Q 293.27 145.54 293.31 147.95
  Q 292.71 148.01 292.57 148.58
  Q 292.49 148.90 292.70 149.43
  C 294.16 153.22 295.46 162.90 288.36 161.83
  C 281.42 160.77 275.76 147.41 281.23 142.31
  C 283.75 139.96 287.14 141.35 289.05 143.62
  Q 289.37 144.00 289.86 144.00
  L 290.23 144.00
  Q 290.88 144.00 290.41 143.54
  L 286.40 139.57
  Z"
/>
<path fill="#735f43" d="
  M 295.63 139.72
  C 301.68 146.91 304.79 158.20 298.39 166.34
  Q 294.65 171.08 288.78 170.63
  Q 290.24 170.72 291.13 170.18
  Q 291.80 169.77 291.02 169.73
  C 285.23 169.42 277.82 166.44 275.26 160.82
  L 275.24 160.36
  Q 275.23 159.95 275.62 159.80
  Q 275.82 159.73 276.01 159.66
  Q 276.14 159.62 276.20 159.49
  L 278.69 153.52
  Q 280.51 157.73 283.30 160.40
  C 287.47 164.40 293.78 163.99 295.28 157.96
  C 296.34 153.72 293.74 151.42 293.31 147.95
  Q 293.27 145.54 291.72 142.71
  L 295.63 139.72
  Z"
/>
<path fill="#4a425c" d="
  M 393.51 146.85
  Q 394.33 148.09 393.73 148.80
  Q 393.43 149.15 393.51 149.60
  Q 393.76 150.97 395.05 151.54
  A 1.55 1.54 -5.0 0 1 395.71 152.09
  Q 398.09 155.52 402.12 156.45
  A 1.46 1.45 -70.5 0 1 403.10 158.51
  L 401.64 161.48
  Q 401.42 161.93 401.59 162.41
  Q 403.94 168.70 400.01 174.22
  Q 399.66 174.71 399.89 175.27
  L 401.31 178.80
  Q 401.46 179.18 401.07 179.29
  Q 400.93 179.33 400.75 179.35
  C 378.97 175.32 356.93 176.46 339.03 192.87
  Q 336.72 192.20 334.35 193.59
  A 0.70 0.60 25.6 0 1 334.01 193.68
  L 324.58 193.42
  A 0.88 0.86 -29.6 0 1 324.24 193.33
  Q 321.27 191.75 318.36 193.59
  Q 316.50 192.34 314.61 189.09
  Q 320.86 191.70 325.91 191.98
  Q 326.89 192.03 329.39 192.66
  C 335.04 194.09 335.68 188.21 337.03 184.65
  Q 337.78 182.69 337.98 180.74
  Q 338.84 172.33 340.17 163.99
  Q 340.55 161.63 338.77 160.87
  A 1.17 1.16 -52.5 0 1 338.51 158.88
  L 344.37 154.31
  A 0.68 0.65 19.7 0 1 344.64 154.19
  Q 349.20 153.41 350.37 148.88
  Q 350.47 148.49 350.76 148.20
  L 352.38 146.55
  Q 352.72 146.20 353.21 146.17
  C 356.03 145.97 360.10 144.76 358.76 141.14
  C 369.82 139.62 383.39 142.81 393.51 146.85
  Z"
/>
<path fill="#5a4d68" d="
  M 358.76 141.14
  C 360.10 144.76 356.03 145.97 353.21 146.17
  Q 352.72 146.20 352.38 146.55
  L 350.76 148.20
  Q 350.47 148.49 350.37 148.88
  Q 349.20 153.41 344.64 154.19
  A 0.68 0.65 19.7 0 0 344.37 154.31
  L 338.51 158.88
  A 1.17 1.16 -52.5 0 0 338.77 160.87
  Q 340.55 161.63 340.17 163.99
  Q 338.84 172.33 337.98 180.74
  Q 337.78 182.69 337.03 184.65
  C 335.68 188.21 335.04 194.09 329.39 192.66
  Q 326.89 192.03 325.91 191.98
  Q 320.86 191.70 314.61 189.09
  Q 310.65 184.84 311.27 176.72
  C 312.98 154.41 339.45 142.34 358.76 141.14
  Z"
/>
<path fill="#0c0c12" d="
  M 185.52 185.85
  L 230.38 143.47
  A 1.45 1.45 0.0 0 1 232.71 143.95
  C 236.42 152.48 234.80 163.86 231.51 172.10
  C 225.89 186.14 213.98 195.47 198.52 195.44
  C 187.44 195.42 179.29 185.41 183.19 174.49
  A 0.08 0.07 -31.9 0 1 183.34 174.52
  Q 182.29 180.28 184.85 185.72
  Q 185.10 186.25 185.52 185.85
  Z"
/>
<g stroke-width="2.00" fill="none" stroke-linecap="butt">
<path stroke="#aad5dd" vector-effect="non-scaling-stroke" d="
  M 224.63 180.96
  Q 223.21 178.44 220.51 178.38
  Q 220.00 178.37 219.63 178.72
  Q 218.03 180.28 215.92 179.98"
/>
<path stroke="#aad5dd" vector-effect="non-scaling-stroke" d="
  M 208.37 192.35
  Q 206.12 190.51 206.98 186.13"
/>
<path stroke="#433b54" vector-effect="non-scaling-stroke" d="
  M 216.83 174.29
  Q 216.61 172.55 214.79 172.54"
/>
<path stroke="#1c1a29" vector-effect="non-scaling-stroke" d="
  M 214.79 172.54
  C 215.34 169.76 211.86 166.15 209.49 168.22
  C 206.27 171.03 199.36 176.02 197.77 179.81
  A 1.35 1.35 0.0 0 0 197.74 180.80
  Q 198.81 183.91 201.62 184.35"
/>
<path stroke="#433b54" vector-effect="non-scaling-stroke" d="
  M 201.62 184.35
  Q 201.85 184.31 201.98 184.62"
/>
<path stroke="#332d3d" vector-effect="non-scaling-stroke" d="
  M 214.79 172.54
  Q 210.39 180.20 201.62 184.35"
/>
</g>
<path fill="#74bfd1" d="
  M 224.63 180.96
  Q 223.21 178.44 220.51 178.38
  Q 220.00 178.37 219.63 178.72
  Q 218.03 180.28 215.92 179.98
  Q 222.32 169.57 217.93 158.49
  Q 217.74 158.02 218.10 157.67
  L 230.81 145.36
  Q 231.37 144.81 231.63 145.56
  C 235.26 156.26 231.58 171.59 224.63 180.96
  Z"
/>
<path fill="#403c56" d="
  M 393.51 146.85
  Q 403.49 151.87 410.79 158.33
  Q 413.90 163.00 415.25 168.50
  Q 417.35 177.05 416.05 184.82
  Q 408.20 180.85 400.75 179.35
  Q 400.93 179.33 401.07 179.29
  Q 401.46 179.18 401.31 178.80
  L 399.89 175.27
  Q 399.66 174.71 400.01 174.22
  Q 403.94 168.70 401.59 162.41
  Q 401.42 161.93 401.64 161.48
  L 403.10 158.51
  A 1.46 1.45 -70.5 0 0 402.12 156.45
  Q 398.09 155.52 395.71 152.09
  A 1.55 1.54 -5.0 0 0 395.05 151.54
  Q 393.76 150.97 393.51 149.60
  Q 393.43 149.15 393.73 148.80
  Q 394.33 148.09 393.51 146.85
  Z"
/>
<path fill="#dddb3b" d="
  M 143.40 159.43
  L 142.38 162.18
  A 0.62 0.61 -73.0 0 1 141.66 162.57
  C 137.11 161.42 138.27 166.72 137.35 169.14
  Q 137.15 169.67 137.24 170.23
  L 137.60 172.45
  Q 137.67 172.94 137.99 173.33
  Q 139.33 174.99 140.34 176.85
  Q 141.35 178.73 142.88 180.16
  Q 146.13 183.19 147.55 186.56
  Q 135.62 177.14 130.56 167.94
  C 126.70 160.93 128.95 156.51 129.76 149.35
  Q 130.23 148.17 130.71 147.72
  A 0.67 0.66 45.3 0 1 131.63 147.73
  L 143.40 159.43
  Z"
/>
<path fill="#223a73" d="
  M 410.79 158.33
  L 416.80 163.65
  Q 417.44 166.60 418.19 169.25
  C 419.78 174.86 419.64 180.65 419.16 186.40
  L 416.05 184.82
  Q 417.35 177.05 415.25 168.50
  Q 413.90 163.00 410.79 158.33
  Z"
/>
<path fill="#2c283f" d="
  M 216.83 174.29
  Q 216.61 172.55 214.79 172.54
  C 215.34 169.76 211.86 166.15 209.49 168.22
  C 206.27 171.03 199.36 176.02 197.77 179.81
  A 1.35 1.35 0.0 0 0 197.74 180.80
  Q 198.81 183.91 201.62 184.35
  Q 201.85 184.31 201.98 184.62
  Q 197.46 185.39 192.69 183.58
  A 1.28 1.28 0.0 0 1 192.35 181.38
  C 193.47 180.48 195.05 179.71 196.05 178.70
  Q 199.19 175.54 202.45 172.50
  C 206.58 168.67 211.41 163.55 216.38 159.59
  A 0.46 0.46 0.0 0 1 217.10 159.80
  Q 219.49 166.96 216.83 174.29
  Z"
/>
<path fill="#9d9737" d="
  M 275.26 160.82
  C 277.82 166.44 285.23 169.42 291.02 169.73
  Q 291.80 169.77 291.13 170.18
  Q 290.24 170.72 288.78 170.63
  Q 279.41 169.59 274.75 162.15
  L 275.26 160.82
  Z"
/>
<path fill="#284d94" d="
  M 416.80 163.65
  Q 431.03 179.47 436.78 199.44
  A 0.32 0.32 0.0 0 1 436.25 199.76
  Q 428.42 192.47 419.16 186.40
  C 419.64 180.65 419.78 174.86 418.19 169.25
  Q 417.44 166.60 416.80 163.65
  Z"
/>
<path fill="#0c0c12" d="
  M 214.79 172.54
  Q 210.39 180.20 201.62 184.35
  Q 198.81 183.91 197.74 180.80
  A 1.35 1.35 0.0 0 1 197.77 179.81
  C 199.36 176.02 206.27 171.03 209.49 168.22
  C 211.86 166.15 215.34 169.76 214.79 172.54
  Z"
/>
<path fill="#223a73" d="
  M 300.31 176.11
  Q 290.75 177.43 284.81 171.82
  Q 293.20 173.63 298.90 168.07
  Q 299.38 167.61 299.94 167.96
  L 309.27 173.83
  A 1.41 1.41 0.0 0 1 308.11 176.37
  Q 303.81 175.08 299.51 175.05
  Q 298.99 175.04 299.29 175.46
  Q 299.61 175.91 300.31 176.11
  Z"
/>
<path fill="#e0eae9" d="
  M 212.38 169.37
  A 1.75 1.75 0.0 0 1 213.37 171.72
  C 211.78 175.29 205.44 182.72 200.81 181.99
  A 1.70 1.70 0.0 0 1 199.85 179.13
  Q 204.33 174.44 209.62 169.87
  Q 210.85 168.81 212.38 169.37
  Z"
/>
<path fill="#74bfd1" d="
  M 145.59 198.71
  C 149.18 199.81 152.21 197.90 154.16 195.03
  Q 154.47 194.57 154.94 194.86
  L 158.07 196.82
  A 0.60 0.59 30.5 0 1 158.28 197.60
  C 154.83 203.84 145.77 203.84 140.45 200.78
  C 131.12 195.41 128.23 179.95 129.14 170.09
  A 0.48 0.48 0.0 0 1 130.01 169.86
  L 134.48 176.28
  A 0.83 0.79 -61.8 0 1 134.62 176.80
  C 133.95 184.79 137.09 196.10 145.59 198.71
  Z"
/>
<path fill="#5a4d68" d="
  M 214.79 172.54
  Q 216.61 172.55 216.83 174.29
  C 214.75 181.05 209.61 185.95 201.98 184.62
  Q 201.85 184.31 201.62 184.35
  Q 210.39 180.20 214.79 172.54
  Z"
/>
<path fill="#403c56" d="
  M 137.06 182.81
  Q 137.12 183.13 136.94 183.34
  Q 136.60 183.73 136.50 183.22
  L 135.51 178.56
  Q 135.38 177.93 135.95 178.23
  Q 139.31 180.03 137.06 182.81
  Z"
/>
<path fill="#e0eae9" d="
  M 224.63 180.96
  Q 218.13 189.27 208.37 192.35
  Q 206.12 190.51 206.98 186.13
  Q 212.52 184.73 215.92 179.98
  Q 218.03 180.28 219.63 178.72
  Q 220.00 178.37 220.51 178.38
  Q 223.21 178.44 224.63 180.96
  Z"
/>
<path fill="#5a4d68" d="
  M 401.59 181.61
  L 400.08 184.87
  A 0.76 0.76 0.0 0 1 399.33 185.31
  L 392.13 184.86
  Q 391.68 184.83 391.31 185.10
  Q 390.11 185.97 388.96 184.78
  Q 387.86 183.62 384.68 181.55
  Q 384.21 181.23 383.78 181.61
  L 382.48 182.76
  Q 382.21 182.99 381.86 183.03
  Q 380.13 183.22 379.22 181.72
  A 0.62 0.62 0.0 0 0 378.36 181.51
  Q 374.79 183.72 370.25 184.51
  Q 368.44 184.82 367.19 186.26
  C 366.13 187.49 366.71 188.90 368.22 189.31
  Q 368.72 189.45 368.79 189.96
  L 369.08 192.06
  A 0.22 0.21 82.1 0 0 369.32 192.25
  L 369.72 192.20
  Q 370.18 192.13 370.01 192.57
  Q 369.49 193.87 368.31 193.24
  A 1.03 1.03 0.0 0 0 367.03 193.51
  Q 365.29 195.70 364.53 198.42
  Q 364.37 198.96 364.01 199.39
  Q 361.26 202.65 362.77 206.77
  A 1.30 1.28 -40.2 0 1 362.67 207.87
  C 360.28 211.92 356.91 219.34 352.84 221.61
  C 350.37 222.99 347.23 222.33 344.53 222.08
  Q 344.04 222.03 343.69 221.68
  C 342.47 220.44 340.67 220.45 339.38 219.65
  Q 334.17 216.44 330.00 211.81
  Q 331.83 203.36 337.07 197.56
  C 353.72 179.15 378.49 176.14 401.59 181.61
  Z"
/>
<path fill="#4a425c" d="
  M 401.59 181.61
  C 423.05 187.24 437.95 201.42 448.67 220.33
  L 447.76 221.38
  Q 440.22 209.47 430.68 199.37
  C 429.16 197.76 426.70 196.65 424.89 195.09
  C 423.15 193.60 421.48 193.53 420.11 195.43
  A 0.57 0.54 -28.2 0 0 420.00 195.76
  L 420.00 196.52
  A 1.03 1.03 0.0 0 1 419.62 197.32
  Q 415.18 201.00 411.68 205.49
  C 410.48 207.03 408.73 208.20 407.50 209.89
  Q 407.26 210.22 406.91 210.42
  L 398.21 215.56
  Q 397.77 215.82 398.15 216.16
  Q 398.44 216.43 398.69 216.20
  Q 400.24 214.79 401.84 214.88
  Q 395.19 218.29 388.62 221.65
  C 387.45 222.25 385.89 222.41 384.67 223.23
  C 381.61 225.32 378.19 225.72 374.58 225.97
  C 373.48 226.05 372.56 226.66 371.42 226.83
  Q 358.45 228.77 345.59 226.41
  C 344.19 226.15 342.62 226.26 341.20 226.26
  C 338.32 226.26 336.67 224.37 333.56 226.13
  Q 328.55 219.26 330.00 211.81
  Q 334.17 216.44 339.38 219.65
  C 340.67 220.45 342.47 220.44 343.69 221.68
  Q 344.04 222.03 344.53 222.08
  C 347.23 222.33 350.37 222.99 352.84 221.61
  C 356.91 219.34 360.28 211.92 362.67 207.87
  A 1.30 1.28 -40.2 0 0 362.77 206.77
  Q 361.26 202.65 364.01 199.39
  Q 364.37 198.96 364.53 198.42
  Q 365.29 195.70 367.03 193.51
  A 1.03 1.03 0.0 0 1 368.31 193.24
  Q 369.49 193.87 370.01 192.57
  Q 370.18 192.13 369.72 192.20
  L 369.32 192.25
  A 0.22 0.21 82.1 0 1 369.08 192.06
  L 368.79 189.96
  Q 368.72 189.45 368.22 189.31
  C 366.71 188.90 366.13 187.49 367.19 186.26
  Q 368.44 184.82 370.25 184.51
  Q 374.79 183.72 378.36 181.51
  A 0.62 0.62 0.0 0 1 379.22 181.72
  Q 380.13 183.22 381.86 183.03
  Q 382.21 182.99 382.48 182.76
  L 383.78 181.61
  Q 384.21 181.23 384.68 181.55
  Q 387.86 183.62 388.96 184.78
  Q 390.11 185.97 391.31 185.10
  Q 391.68 184.83 392.13 184.86
  L 399.33 185.31
  A 0.76 0.76 0.0 0 0 400.08 184.87
  L 401.59 181.61
  Z"
/>
<path fill="#e0eae9" d="
  M 150.49 191.95
  A 0.13 0.13 0.0 0 1 150.50 192.13
  L 150.47 192.16
  A 6.73 3.71 42.7 0 1 143.01 190.32
  L 141.90 189.29
  A 6.73 3.71 42.7 0 1 139.47 182.00
  L 139.49 181.97
  A 0.13 0.13 0.0 0 1 139.68 181.96
  L 150.49 191.95
  Z"
/>
<path fill="#74bfd1" d="
  M 206.98 186.13
  Q 206.12 190.51 208.37 192.35
  C 202.85 194.16 188.70 194.60 187.06 187.45
  A 0.96 0.96 0.0 0 1 187.36 186.51
  L 190.09 183.99
  Q 190.42 183.68 190.82 183.91
  Q 198.22 188.19 206.98 186.13
  Z"
/>
<path fill="#2c283f" d="
  M 146.10 193.84
  Q 144.23 194.95 141.32 194.47
  Q 138.41 191.24 137.96 187.61
  Q 137.72 185.64 138.66 187.39
  Q 140.97 191.71 146.10 193.84
  Z"
/>
<path fill="#2c283f" d="
  M 339.03 192.87
  L 333.77 199.08
  Q 333.44 199.47 332.93 199.47
  Q 324.50 199.33 318.36 193.59
  Q 321.27 191.75 324.24 193.33
  A 0.88 0.86 -29.6 0 0 324.58 193.42
  L 334.01 193.68
  A 0.70 0.60 25.6 0 0 334.35 193.59
  Q 336.72 192.20 339.03 192.87
  Z"
/>
<path fill="#5a4d68" d="
  M 141.32 194.47
  Q 144.23 194.95 146.10 193.84
  Q 149.05 195.62 151.61 193.07
  A 0.50 0.50 0.0 0 1 152.46 193.38
  L 152.51 193.95
  A 1.12 1.07 -26.4 0 1 152.22 194.76
  Q 147.06 200.29 141.32 194.47
  Z"
/>
<path fill="#403c56" d="
  M 447.76 221.38
  C 452.13 235.12 444.90 250.08 435.96 260.47
  Q 435.62 260.86 435.77 261.36
  C 436.67 264.51 437.62 267.23 437.85 270.57
  Q 438.15 274.91 438.93 279.29
  C 433.13 281.96 425.15 282.76 419.12 279.80
  C 412.20 275.67 405.11 270.44 400.38 263.81
  Q 399.82 263.03 400.74 263.30
  Q 402.95 263.96 405.08 264.48
  C 413.24 266.48 417.74 261.18 416.45 253.38
  Q 414.63 242.29 406.49 234.12
  C 409.34 228.07 414.05 216.14 412.62 208.95
  Q 412.50 208.36 411.98 208.67
  L 401.84 214.88
  Q 400.24 214.79 398.69 216.20
  Q 398.44 216.43 398.15 216.16
  Q 397.77 215.82 398.21 215.56
  L 406.91 210.42
  Q 407.26 210.22 407.50 209.89
  C 408.73 208.20 410.48 207.03 411.68 205.49
  Q 415.18 201.00 419.62 197.32
  A 1.03 1.03 0.0 0 0 420.00 196.52
  L 420.00 195.76
  A 0.57 0.54 -28.2 0 1 420.11 195.43
  C 421.48 193.53 423.15 193.60 424.89 195.09
  C 426.70 196.65 429.16 197.76 430.68 199.37
  Q 440.22 209.47 447.76 221.38
  Z"
/>
<path fill="#2c283f" d="
  M 406.49 234.12
  L 400.74 228.89
  A 0.47 0.46 -41.5 0 1 400.79 228.16
  L 406.84 224.03
  Q 407.39 223.65 406.82 223.32
  Q 406.41 223.07 406.04 223.29
  C 399.30 227.26 393.00 230.90 385.68 233.06
  Q 376.88 235.66 367.74 236.86
  C 357.15 238.25 340.17 235.86 333.56 226.13
  C 336.67 224.37 338.32 226.26 341.20 226.26
  C 342.62 226.26 344.19 226.15 345.59 226.41
  Q 358.45 228.77 371.42 226.83
  C 372.56 226.66 373.48 226.05 374.58 225.97
  C 378.19 225.72 381.61 225.32 384.67 223.23
  C 385.89 222.41 387.45 222.25 388.62 221.65
  Q 395.19 218.29 401.84 214.88
  L 411.98 208.67
  Q 412.50 208.36 412.62 208.95
  C 414.05 216.14 409.34 228.07 406.49 234.12
  Z"
/>
<path fill="#223a73" d="
  M 328.13 215.52
  L 328.57 220.16
  C 321.16 218.47 314.44 217.11 306.40 216.13
  Q 302.00 215.59 297.62 214.94
  C 284.46 213.01 270.11 213.96 257.02 215.75
  Q 256.67 215.98 255.76 215.68
  Q 255.66 215.21 255.75 214.85
  Q 255.86 214.36 256.35 214.23
  C 261.41 212.95 267.44 213.03 271.50 212.59
  C 291.66 210.38 308.60 213.75 327.44 216.89
  Q 327.91 216.97 327.98 216.50
  L 328.13 215.52
  Z"
/>
<path fill="#4768aa" d="
  M 184.77 216.35
  C 181.48 218.96 185.35 222.87 186.47 225.97
  Q 189.02 232.99 192.91 239.14
  A 0.84 0.83 84.9 0 1 191.89 240.36
  Q 188.93 239.14 185.80 239.81
  A 1.65 1.43 -41.6 0 0 185.40 242.81
  Q 185.85 242.90 185.92 243.27
  Q 186.02 243.79 185.51 243.92
  Q 181.86 244.80 181.56 241.23
  Q 181.09 235.86 178.99 234.30
  Q 176.94 223.66 176.93 212.27
  A 0.26 0.26 0.0 0 1 177.32 212.04
  L 184.77 216.35
  Z"
/>
<path fill="#403c56" d="
  M 328.57 220.16
  C 332.69 234.35 349.03 239.21 361.94 239.37
  C 367.66 239.44 374.03 237.95 379.85 236.58
  A 0.16 0.16 0.0 0 1 380.05 236.70
  Q 383.87 249.38 393.73 258.74
  Q 383.47 258.67 373.51 258.61
  C 367.79 258.58 358.69 259.08 351.17 258.25
  C 347.58 257.86 342.25 256.14 338.50 256.26
  Q 335.43 256.37 330.50 255.26
  Q 325.99 254.24 320.45 255.37
  L 319.03 258.27
  A 0.42 0.41 1.3 0 0 319.57 258.83
  L 321.57 257.97
  A 1.28 1.28 0.0 0 1 322.46 257.94
  Q 336.09 262.45 351.16 265.02
  Q 358.51 268.06 366.33 267.19
  C 377.36 268.61 388.58 269.34 399.35 266.46
  Q 399.84 266.33 400.19 266.69
  L 404.17 270.85
  A 0.36 0.36 0.0 0 1 403.87 271.46
  C 389.25 269.79 368.83 280.47 375.65 298.39
  Q 371.52 297.55 367.69 297.34
  C 365.42 297.21 363.61 295.88 360.97 296.31
  A 1.40 1.38 -32.2 0 1 359.93 296.08
  Q 358.65 295.19 357.06 295.53
  Q 356.60 295.62 356.20 295.38
  C 352.55 293.18 345.60 292.19 341.29 290.92
  C 337.96 289.93 335.29 287.88 332.01 286.46
  Q 328.25 284.83 325.07 283.17
  C 320.92 281.00 312.60 277.38 307.96 279.03
  C 302.27 281.06 297.09 284.22 291.30 285.68
  C 285.98 287.02 280.63 289.10 275.24 289.96
  Q 272.46 290.40 269.68 290.83
  C 261.76 292.06 253.22 291.57 245.21 291.47
  C 233.80 291.33 222.38 289.75 211.00 288.36
  C 207.94 287.99 205.17 286.62 201.90 286.26
  L 190.67 275.57
  Q 186.97 272.04 189.93 276.21
  Q 193.61 281.39 200.82 287.81
  Q 195.60 295.72 186.53 301.02
  C 166.45 312.73 142.08 319.03 119.24 316.52
  Q 117.57 316.34 113.58 316.99
  Q 108.33 308.14 98.28 303.32
  Q 103.60 300.81 107.30 296.99
  C 109.83 294.38 112.83 293.28 115.02 290.06
  A 1.15 1.12 -80.0 0 1 115.67 289.59
  L 121.72 287.90
  Q 122.20 287.77 122.58 288.08
  C 124.61 289.69 126.72 290.80 128.55 288.16
  A 0.60 0.60 0.0 0 0 128.33 287.28
  Q 122.10 284.15 115.25 282.73
  Q 113.29 282.32 111.63 279.60
  A 1.91 1.90 88.5 0 0 110.94 278.94
  Q 108.30 277.45 108.48 274.42
  L 115.48 276.21
  L 116.50 277.72
  Q 116.78 278.13 117.27 278.02
  Q 118.49 277.74 119.41 278.45
  Q 119.81 278.75 120.29 278.87
  C 129.25 281.17 134.86 282.92 146.24 282.97
  C 161.76 283.04 175.99 275.42 188.10 264.45
  Q 206.01 273.71 225.50 277.59
  Q 228.50 278.19 229.48 275.71
  C 235.73 259.96 240.96 246.00 248.40 231.86
  Q 252.59 223.89 257.02 215.75
  C 270.11 213.96 284.46 213.01 297.62 214.94
  Q 302.00 215.59 306.40 216.13
  C 314.44 217.11 321.16 218.47 328.57 220.16
  Z"
/>
<path fill="#4768aa" d="
  M 144.11 215.72
  Q 148.82 218.04 153.37 219.88
  C 155.29 220.66 155.62 221.49 155.94 223.44
  Q 155.25 223.43 155.06 223.86
  Q 154.93 224.15 155.19 224.63
  Q 156.34 226.73 157.15 229.08
  A 0.84 0.84 0.0 0 1 156.94 229.95
  C 154.73 232.12 159.45 236.93 161.14 238.21
  Q 165.17 241.24 165.51 245.31
  Q 152.20 231.91 144.11 215.72
  Z"
/>
<path fill="#0c0c12" d="
  M 255.76 215.68
  Q 256.67 215.98 257.02 215.75
  Q 252.59 223.89 248.40 231.86
  C 240.96 246.00 235.73 259.96 229.48 275.71
  Q 228.50 278.19 225.50 277.59
  Q 206.01 273.71 188.10 264.45
  Q 186.27 263.54 186.72 262.14
  Q 204.10 270.46 224.01 275.21
  Q 225.59 275.59 226.79 275.51
  Q 227.28 275.47 227.48 275.01
  C 235.85 255.21 242.86 236.38 254.40 216.66
  A 1.68 1.67 -87.4 0 1 255.12 216.00
  L 255.76 215.68
  Z"
/>
<path fill="#223a73" d="
  M 448.67 220.33
  L 452.19 229.53
  Q 451.15 237.45 449.29 243.04
  Q 446.03 252.85 439.17 260.86
  Q 438.89 261.20 438.98 261.63
  L 441.74 274.29
  A 0.49 0.49 0.0 0 0 442.55 274.55
  Q 451.57 266.33 456.52 253.58
  Q 458.93 290.75 431.96 313.97
  Q 430.90 314.88 427.41 316.64
  Q 431.34 311.54 434.26 306.61
  C 435.83 303.95 436.58 300.78 437.71 297.50
  Q 440.67 288.90 438.93 279.29
  Q 438.15 274.91 437.85 270.57
  C 437.62 267.23 436.67 264.51 435.77 261.36
  Q 435.62 260.86 435.96 260.47
  C 444.90 250.08 452.13 235.12 447.76 221.38
  L 448.67 220.33
  Z"
/>
<path fill="#735f43" d="
  M 406.79 236.94
  Q 405.95 237.14 405.90 237.63
  Q 400.39 244.00 394.57 247.37
  C 392.43 248.61 389.96 248.45 387.53 249.07
  Q 383.49 243.50 381.68 236.87
  Q 381.54 236.35 382.07 236.24
  Q 390.59 234.42 397.98 229.85
  A 1.02 1.02 0.0 0 1 399.21 229.97
  L 406.79 236.94
  Z"
/>
<path fill="#284d94" d="
  M 452.19 229.53
  Q 456.76 242.03 456.52 253.58
  Q 451.57 266.33 442.55 274.55
  A 0.49 0.49 0.0 0 1 441.74 274.29
  L 438.98 261.63
  Q 438.89 261.20 439.17 260.86
  Q 446.03 252.85 449.29 243.04
  Q 451.15 237.45 452.19 229.53
  Z"
/>
<path fill="#dddb3b" d="
  M 406.79 236.94
  C 410.86 242.02 419.33 257.10 412.16 262.23
  Q 410.53 263.39 408.07 263.18
  C 399.46 262.45 393.35 256.86 388.46 250.29
  Q 400.31 250.26 405.90 237.63
  Q 405.95 237.14 406.79 236.94
  Z"
/>
<path fill="#9d9737" d="
  M 405.90 237.63
  Q 400.31 250.26 388.46 250.29
  Q 387.79 249.80 387.53 249.07
  C 389.96 248.45 392.43 248.61 394.57 247.37
  Q 400.39 244.00 405.90 237.63
  Z"
/>
<path fill="#2c283f" d="
  M 393.73 258.74
  Q 396.84 260.58 398.40 264.48
  Q 398.62 265.03 398.03 265.13
  C 395.13 265.64 392.58 266.44 389.61 266.43
  Q 378.08 266.37 366.33 267.19
  Q 358.51 268.06 351.16 265.02
  Q 349.82 263.46 347.72 263.12
  C 338.81 261.66 329.26 258.17 320.45 255.37
  Q 325.99 254.24 330.50 255.26
  Q 335.43 256.37 338.50 256.26
  C 342.25 256.14 347.58 257.86 351.17 258.25
  C 358.69 259.08 367.79 258.58 373.51 258.61
  Q 383.47 258.67 393.73 258.74
  Z"
/>
<path fill="#0c0c12" d="
  M 320.45 255.37
  C 329.26 258.17 338.81 261.66 347.72 263.12
  Q 349.82 263.46 351.16 265.02
  Q 336.09 262.45 322.46 257.94
  A 1.28 1.28 0.0 0 0 321.57 257.97
  L 319.57 258.83
  A 0.42 0.41 1.3 0 1 319.03 258.27
  L 320.45 255.37
  Z"
/>
<path fill="#223a73" d="
  M 186.72 262.14
  Q 186.27 263.54 188.10 264.45
  C 175.99 275.42 161.76 283.04 146.24 282.97
  C 134.86 282.92 129.25 281.17 120.29 278.87
  Q 119.81 278.75 119.41 278.45
  Q 118.49 277.74 117.27 278.02
  Q 116.78 278.13 116.50 277.72
  L 115.48 276.21
  Q 125.55 278.41 135.76 278.59
  L 136.42 279.72
  Q 136.66 280.15 137.15 280.19
  Q 157.82 281.88 173.96 271.99
  Q 177.11 270.05 186.72 262.14
  Z"
/>
<path fill="#4a425c" d="
  M 108.48 274.42
  Q 108.30 277.45 110.94 278.94
  A 1.91 1.90 88.5 0 1 111.63 279.60
  Q 113.29 282.32 115.25 282.73
  Q 122.10 284.15 128.33 287.28
  A 0.60 0.60 0.0 0 1 128.55 288.16
  C 126.72 290.80 124.61 289.69 122.58 288.08
  Q 122.20 287.77 121.72 287.90
  L 115.67 289.59
  A 1.15 1.12 -80.0 0 0 115.02 290.06
  C 112.83 293.28 109.83 294.38 107.30 296.99
  Q 103.60 300.81 98.28 303.32
  Q 85.25 295.50 76.37 303.35
  C 71.13 301.00 66.70 298.78 61.04 297.19
  A 0.77 0.76 -62.8 0 0 60.23 297.46
  C 58.93 299.11 59.10 301.02 58.35 302.55
  C 51.68 316.23 39.62 330.92 22.36 329.49
  C 21.64 327.41 20.50 325.27 20.20 323.06
  C 16.69 297.19 32.91 272.97 59.02 268.30
  C 76.20 265.23 92.29 268.01 108.48 274.42
  Z"
/>
<path fill="#dddb3b" d="
  M 416.69 280.52
  C 414.87 284.30 413.06 288.44 410.42 291.40
  C 402.49 300.30 390.46 300.95 379.49 297.41
  L 376.73 296.52
  C 371.73 281.31 389.34 272.86 401.50 273.02
  C 407.56 273.10 411.75 277.36 416.69 280.52
  Z"
/>
<path fill="#2c283f" d="
  M 375.65 298.39
  Q 377.58 301.49 380.55 303.87
  Q 383.25 306.03 386.99 307.11
  C 403.56 311.90 425.52 299.52 419.12 279.80
  C 425.15 282.76 433.13 281.96 438.93 279.29
  Q 440.67 288.90 437.71 297.50
  C 436.58 300.78 435.83 303.95 434.26 306.61
  Q 431.34 311.54 427.41 316.64
  Q 412.74 326.19 394.00 326.45
  C 378.31 326.67 363.26 323.29 348.73 317.51
  C 343.18 315.30 337.06 313.69 331.37 311.25
  Q 331.28 311.21 331.17 311.27
  Q 331.14 311.28 331.12 311.29
  Q 331.07 311.30 331.10 311.32
  Q 340.77 316.51 351.32 319.80
  A 0.33 0.33 0.0 0 1 351.46 320.34
  Q 336.38 335.85 315.52 342.06
  C 300.59 346.51 280.51 342.96 267.05 334.98
  C 263.65 332.97 262.93 328.88 261.50 326.29
  Q 255.21 314.93 242.99 310.46
  Q 242.68 310.34 242.48 310.53
  A 0.28 0.28 0.0 0 0 242.54 310.98
  Q 251.34 315.91 258.01 323.44
  Q 258.34 323.82 258.14 324.29
  Q 256.93 327.01 256.04 328.27
  C 247.61 340.16 237.37 350.93 224.75 358.32
  Q 209.40 367.30 191.86 371.52
  Q 191.44 371.62 191.40 371.19
  C 190.26 360.41 145.43 360.79 145.73 376.66
  Q 145.74 377.31 145.10 377.23
  Q 138.71 376.40 132.81 373.85
  Q 132.34 373.64 132.26 373.14
  C 130.27 361.76 112.46 353.27 102.44 352.02
  C 96.89 351.33 90.32 353.46 90.74 360.31
  Q 90.77 360.80 90.36 361.07
  C 79.63 368.20 55.08 384.45 44.52 368.50
  Q 43.41 351.64 52.86 336.90
  C 53.89 335.29 54.13 333.50 54.70 331.71
  Q 54.89 331.14 54.30 331.02
  L 53.68 330.91
  Q 62.27 319.77 74.84 313.21
  Q 75.29 312.97 75.54 313.42
  Q 83.83 328.85 101.51 331.77
  Q 107.27 332.72 112.03 329.95
  Q 112.52 329.67 113.05 329.89
  L 124.03 334.51
  A 1.45 1.43 -0.4 0 1 124.77 335.23
  C 131.20 349.23 150.31 350.44 163.00 346.24
  Q 170.51 343.76 173.73 336.89
  Q 173.94 336.43 174.44 336.30
  C 192.14 331.61 208.57 324.08 220.20 310.23
  Q 223.35 306.47 225.81 303.35
  Q 226.66 302.27 225.42 301.70
  Q 212.20 295.64 201.90 286.26
  C 205.17 286.62 207.94 287.99 211.00 288.36
  C 222.38 289.75 233.80 291.33 245.21 291.47
  C 253.22 291.57 261.76 292.06 269.68 290.83
  Q 272.46 290.40 275.24 289.96
  C 280.63 289.10 285.98 287.02 291.30 285.68
  C 297.09 284.22 302.27 281.06 307.96 279.03
  C 312.60 277.38 320.92 281.00 325.07 283.17
  Q 328.25 284.83 332.01 286.46
  C 335.29 287.88 337.96 289.93 341.29 290.92
  C 345.60 292.19 352.55 293.18 356.20 295.38
  Q 356.60 295.62 357.06 295.53
  Q 358.65 295.19 359.93 296.08
  A 1.40 1.38 -32.2 0 0 360.97 296.31
  C 363.61 295.88 365.42 297.21 367.69 297.34
  Q 371.52 297.55 375.65 298.39
  Z"
/>
<path fill="#9d9737" d="
  M 416.69 280.52
  Q 417.53 280.40 417.90 281.70
  C 412.58 297.51 398.23 305.01 381.96 299.77
  Q 380.44 299.28 379.49 297.41
  C 390.46 300.95 402.49 300.30 410.42 291.40
  C 413.06 288.44 414.87 284.30 416.69 280.52
  Z"
/>
<path fill="#735f43" d="
  M 417.90 281.70
  C 419.60 289.32 417.20 296.18 410.99 301.08
  C 401.73 308.39 382.61 309.79 376.73 296.52
  L 379.49 297.41
  Q 380.44 299.28 381.96 299.77
  C 398.23 305.01 412.58 297.51 417.90 281.70
  Z"
/>
<path fill="#2c283f" d="
  M 200.82 287.81
  Q 207.18 293.17 215.05 298.21
  Q 218.89 300.66 223.37 302.00
  A 0.82 0.82 0.0 0 1 223.81 303.25
  C 211.79 320.33 194.26 329.31 174.38 334.75
  Q 173.91 334.88 173.64 334.46
  C 166.62 323.14 133.27 322.73 125.56 332.78
  Q 125.27 333.16 124.83 332.97
  L 114.32 328.63
  Q 113.80 328.41 114.05 327.91
  Q 116.60 322.71 113.58 316.99
  Q 117.57 316.34 119.24 316.52
  C 142.08 319.03 166.45 312.73 186.53 301.02
  Q 195.60 295.72 200.82 287.81
  Z"
/>
<path fill="#2c283f" d="
  M 76.37 303.35
  Q 74.65 307.20 75.02 311.17
  Q 75.07 311.64 74.64 311.87
  C 71.74 313.37 68.68 314.73 66.04 316.70
  C 57.46 323.11 47.45 331.91 37.01 334.28
  C 32.86 335.22 24.20 334.44 22.36 329.49
  C 39.62 330.92 51.68 316.23 58.35 302.55
  C 59.10 301.02 58.93 299.11 60.23 297.46
  A 0.77 0.76 -62.8 0 1 61.04 297.19
  C 66.70 298.78 71.13 301.00 76.37 303.35
  Z"
/>
<path fill="#dddb3b" d="
  M 112.47 318.56
  C 97.65 320.30 89.29 314.23 79.32 304.68
  A 1.08 1.06 17.0 0 1 78.99 304.07
  Q 78.97 303.90 78.94 303.70
  C 81.94 300.82 87.38 300.97 91.22 302.14
  Q 104.67 306.25 112.47 318.56
  Z"
/>
<path fill="#9d9737" d="
  M 78.94 303.70
  Q 78.97 303.90 78.99 304.07
  A 1.08 1.06 17.0 0 0 79.32 304.68
  C 89.29 314.23 97.65 320.30 112.47 318.56
  L 113.29 320.69
  C 99.53 323.31 85.49 315.95 78.12 304.63
  L 78.94 303.70
  Z"
/>
<path fill="#735f43" d="
  M 78.12 304.63
  C 85.49 315.95 99.53 323.31 113.29 320.69
  C 115.34 330.36 105.08 331.33 98.54 329.72
  Q 84.78 326.34 77.84 313.99
  C 76.05 310.81 75.69 307.36 78.12 304.63
  Z"
/>
<path fill="#403c56" d="
  M 207.80 327.33
  C 211.48 323.89 215.53 322.84 218.55 318.15
  Q 218.81 317.74 219.27 317.57
  C 223.88 315.91 232.29 314.23 233.11 321.60
  Q 233.16 322.12 232.86 322.53
  C 230.90 325.25 227.93 325.77 225.82 327.19
  Q 209.28 338.30 189.65 342.55
  A 1.98 1.98 0.0 0 1 187.25 340.61
  L 187.25 339.58
  Q 187.25 338.97 187.79 338.68
  Q 192.00 336.40 196.18 334.05
  C 197.88 333.09 199.40 331.49 201.47 330.61
  C 203.38 329.79 204.89 328.44 206.96 327.82
  Q 207.44 327.67 207.80 327.33
  Z"
/>
<path fill="#2c283f" d="
  M 259.73 330.67
  C 269.46 340.63 284.22 344.89 297.77 345.36
  C 316.81 346.02 339.51 336.23 351.83 321.51
  A 2.04 2.04 0.0 0 1 354.02 320.87
  C 367.96 325.34 382.12 328.96 396.99 328.24
  Q 397.46 328.22 397.34 328.67
  C 393.66 342.83 387.23 352.39 375.32 361.44
  Q 374.78 361.85 374.77 361.17
  C 374.76 357.58 373.67 354.52 369.95 353.30
  C 358.80 349.65 343.19 359.00 335.51 366.51
  C 331.72 370.21 326.47 377.41 327.83 383.61
  Q 327.93 384.10 327.50 384.36
  C 326.10 385.17 324.38 385.23 323.25 385.50
  Q 307.64 389.27 291.15 386.44
  A 0.79 0.78 -69.3 0 1 290.62 385.25
  C 298.93 371.88 266.60 345.16 254.68 354.74
  C 252.44 356.54 251.67 359.36 250.73 362.09
  Q 250.49 362.77 250.13 362.14
  Q 245.53 354.15 245.02 344.89
  Q 245.00 344.39 245.32 344.00
  C 250.01 338.41 255.45 332.38 258.74 325.86
  Q 259.02 325.29 259.34 325.84
  L 261.97 330.32
  A 0.33 0.32 0.4 0 1 261.52 330.76
  L 260.25 330.01
  A 0.42 0.42 0.0 0 0 259.73 330.67
  Z"
/>
<path fill="#735f43" d="
  M 143.75 346.47
  C 137.79 345.44 128.77 341.27 126.45 334.71
  A 0.99 0.99 0.0 0 1 126.73 333.64
  C 136.79 324.75 156.58 326.45 167.52 330.89
  C 171.10 332.34 173.35 335.49 170.61 338.98
  C 164.52 346.75 152.30 347.94 143.75 346.47
  Z"
/>
<path fill="#4a425c" d="
  M 53.68 330.91
  L 54.30 331.02
  Q 54.89 331.14 54.70 331.71
  C 54.13 333.50 53.89 335.29 52.86 336.90
  Q 43.41 351.64 44.52 368.50
  C 43.66 367.73 42.74 366.85 42.56 365.61
  C 40.85 353.96 46.74 340.39 53.68 330.91
  Z"
/>
<path fill="#223a73" d="
  M 386.96 372.25
  Q 385.03 387.02 388.89 401.62
  Q 388.77 401.69 388.66 401.76
  C 378.07 406.41 373.04 418.41 381.74 427.76
  Q 381.80 427.82 381.74 427.88
  Q 381.66 427.97 381.56 428.06
  Q 381.43 428.18 381.56 428.30
  C 386.86 433.34 393.59 431.14 398.87 427.26
  C 402.40 433.55 410.25 439.91 415.44 443.87
  Q 416.26 444.50 416.92 444.54
  Q 418.21 444.62 418.30 443.20
  Q 420.86 444.51 421.50 443.40
  Q 426.36 444.27 427.75 444.27
  Q 440.30 444.30 448.81 445.67
  Q 449.30 445.75 449.70 445.45
  Q 450.62 444.75 450.42 443.40
  C 469.72 449.71 489.54 471.68 476.59 492.54
  Q 472.80 498.65 466.15 497.73
  C 467.80 492.42 465.38 488.23 461.73 484.45
  C 458.12 480.70 453.71 478.67 448.80 477.03
  C 445.29 475.86 441.34 475.66 437.49 475.03
  Q 433.93 474.44 428.93 474.02
  C 407.83 472.24 388.14 462.84 377.21 444.18
  C 374.19 439.02 371.30 430.37 370.06 425.19
  C 366.90 411.95 365.76 395.71 363.78 380.51
  Q 371.34 374.20 374.60 364.55
  A 1.61 1.59 82.2 0 1 375.20 363.75
  Q 381.93 359.12 386.94 352.66
  Q 387.27 352.23 387.26 352.78
  L 386.96 372.25
  Z"
/>
<path fill="#735f43" d="
  M 114.07 377.57
  C 108.01 376.73 90.22 365.66 92.57 357.73
  C 96.10 345.85 131.17 361.85 130.24 373.39
  Q 130.20 373.90 129.84 374.24
  C 124.88 378.94 120.45 378.45 114.07 377.57
  Z"
/>
<path fill="#735f43" d="
  M 347.05 386.89
  C 341.82 388.10 326.24 387.75 329.54 378.53
  C 333.86 366.46 346.79 358.04 358.73 354.72
  C 368.22 352.08 377.31 355.79 371.56 367.35
  C 366.19 378.15 358.83 384.17 347.05 386.89
  Z"
/>
<path fill="#735f43" d="
  M 276.15 387.61
  C 266.53 385.38 258.54 377.78 254.37 368.77
  C 249.77 358.84 256.16 351.18 266.57 355.11
  Q 282.93 361.29 290.01 376.77
  C 294.15 385.82 282.52 389.09 276.15 387.61
  Z"
/>
<path fill="#735f43" d="
  M 156.57 381.87
  C 153.92 381.33 146.99 379.36 147.33 375.51
  C 147.99 367.89 165.14 365.35 170.57 365.32
  C 177.55 365.29 183.09 365.79 188.74 369.33
  A 1.87 1.87 0.0 0 1 189.57 371.35
  C 189.13 373.16 188.16 374.84 186.63 376.10
  C 178.30 383.00 166.81 383.95 156.57 381.87
  Z"
/>
<path fill="#284d94" d="
  M 386.96 372.25
  L 391.26 399.71
  Q 390.28 399.72 388.89 401.62
  Q 385.03 387.02 386.96 372.25
  Z"
/>
<path fill="#223a73" d="
  M 264.91 384.44
  Q 258.58 394.66 252.47 405.06
  C 251.61 406.51 250.00 407.69 249.01 409.26
  Q 246.40 413.38 243.12 416.95
  C 241.84 418.35 241.25 420.18 239.90 421.63
  C 230.82 431.35 220.79 441.12 209.12 447.40
  C 194.44 455.32 180.04 458.86 162.49 463.05
  C 158.94 463.90 155.32 465.33 151.66 466.38
  Q 140.23 469.65 133.17 479.16
  Q 131.34 481.62 129.40 488.96
  Q 120.66 478.95 127.16 465.86
  Q 131.46 461.98 134.83 457.38
  C 140.87 449.18 149.67 444.09 159.32 441.19
  C 161.68 440.48 165.62 439.89 168.74 438.48
  Q 169.10 438.32 169.26 438.03
  Q 169.47 437.65 169.05 437.57
  Q 168.48 437.47 168.26 436.63
  C 181.05 433.73 194.68 432.81 206.55 426.20
  Q 213.63 422.27 221.89 415.00
  C 234.93 403.53 247.07 389.54 253.76 373.30
  A 0.49 0.49 0.0 0 1 254.63 373.22
  Q 258.83 379.75 264.91 384.44
  Z"
/>
<path fill="#2c283f" d="
  M 363.78 380.51
  C 365.76 395.71 366.90 411.95 370.06 425.19
  C 371.30 430.37 374.19 439.02 377.21 444.18
  C 388.14 462.84 407.83 472.24 428.93 474.02
  Q 433.93 474.44 437.49 475.03
  C 441.34 475.66 445.29 475.86 448.80 477.03
  C 453.71 478.67 458.12 480.70 461.73 484.45
  C 465.38 488.23 467.80 492.42 466.15 497.73
  C 458.93 496.96 456.07 489.47 450.19 485.98
  C 441.92 481.06 431.47 481.76 422.30 483.13
  C 411.40 484.75 399.53 487.26 389.30 486.81
  A 0.76 0.75 83.8 0 1 388.60 486.24
  C 385.11 472.28 366.65 459.27 354.18 453.80
  Q 351.19 452.49 347.87 452.43
  A 1.06 1.03 71.4 0 1 347.06 452.01
  C 335.18 435.99 329.56 411.06 328.56 391.53
  C 328.48 389.86 327.82 387.58 328.56 385.54
  A 0.47 0.47 0.0 0 1 329.33 385.37
  Q 331.71 387.66 334.80 388.16
  Q 351.04 390.77 363.78 380.51
  Z"
/>
<path fill="#2c283f" d="
  M 264.91 384.44
  C 270.73 388.32 282.13 392.20 288.38 387.61
  A 1.48 1.48 0.0 0 1 290.67 389.21
  L 286.70 402.87
  A 0.19 0.19 0.0 0 0 287.04 403.02
  Q 290.88 396.49 292.28 389.06
  A 0.80 0.80 0.0 0 1 293.21 388.42
  C 303.57 390.35 315.45 388.68 325.69 386.56
  A 0.63 0.62 79.0 0 1 326.44 387.07
  Q 326.86 389.54 327.26 394.25
  C 328.87 413.17 334.15 436.63 345.29 452.68
  Q 345.59 453.10 345.21 453.46
  Q 342.05 456.45 343.34 460.98
  Q 343.47 461.45 343.01 461.62
  L 338.34 463.27
  Q 337.88 463.43 337.52 463.11
  C 329.35 455.99 316.29 454.42 304.74 453.97
  C 297.69 453.70 291.90 453.38 286.66 455.78
  Q 286.28 455.96 286.08 455.59
  C 277.89 440.18 278.38 425.80 284.27 409.84
  A 0.26 0.25 -80.3 0 0 284.03 409.50
  Q 283.88 409.50 283.72 409.50
  Q 283.60 409.50 283.55 409.61
  Q 281.46 413.91 280.10 418.48
  C 278.69 423.22 279.69 428.82 276.08 433.48
  Q 271.18 439.81 264.96 445.23
  A 0.62 0.61 -32.0 0 1 263.99 445.01
  Q 263.51 443.89 261.95 443.76
  C 249.81 442.72 222.67 454.39 219.61 467.98
  A 1.39 1.37 -54.1 0 0 219.77 469.01
  Q 220.84 470.78 218.77 471.47
  C 202.61 476.88 185.24 474.30 167.82 472.39
  C 162.18 471.76 152.95 470.91 151.01 478.39
  Q 150.90 478.84 150.51 479.10
  Q 146.49 481.83 138.82 488.27
  Q 134.97 491.50 129.40 488.96
  Q 131.34 481.62 133.17 479.16
  Q 140.23 469.65 151.66 466.38
  C 155.32 465.33 158.94 463.90 162.49 463.05
  C 180.04 458.86 194.44 455.32 209.12 447.40
  C 220.79 441.12 230.82 431.35 239.90 421.63
  C 241.25 420.18 241.84 418.35 243.12 416.95
  Q 246.40 413.38 249.01 409.26
  C 250.00 407.69 251.61 406.51 252.47 405.06
  Q 258.58 394.66 264.91 384.44
  Z"
/>
<path fill="#9d9737" d="
  M 391.26 399.71
  L 392.33 403.43
  C 384.95 404.74 396.77 420.80 396.30 423.66
  Q 396.19 424.28 396.82 424.25
  Q 398.16 424.18 399.36 422.45
  L 401.09 425.69
  L 398.98 427.05
  Q 397.85 426.73 397.42 425.46
  Q 397.25 424.95 396.79 425.23
  Q 392.95 427.59 388.52 428.62
  Q 388.04 428.73 387.61 428.50
  Q 383.13 426.18 381.29 421.00
  C 378.69 413.69 383.62 409.13 388.64 405.51
  Q 389.05 405.22 388.99 404.72
  L 388.66 401.76
  Q 388.77 401.69 388.89 401.62
  Q 390.28 399.72 391.26 399.71
  Z"
/>
<path fill="#735f43" d="
  M 388.66 401.76
  L 388.99 404.72
  Q 389.05 405.22 388.64 405.51
  C 383.62 409.13 378.69 413.69 381.29 421.00
  Q 383.13 426.18 387.61 428.50
  Q 388.04 428.73 388.52 428.62
  Q 392.95 427.59 396.79 425.23
  Q 397.25 424.95 397.42 425.46
  Q 397.85 426.73 398.98 427.05
  Q 398.93 427.15 398.87 427.26
  C 393.59 431.14 386.86 433.34 381.56 428.30
  Q 381.43 428.18 381.56 428.06
  Q 381.66 427.97 381.74 427.88
  Q 381.80 427.82 381.74 427.76
  C 373.04 418.41 378.07 406.41 388.66 401.76
  Z"
/>
<path fill="#dddb3b" d="
  M 392.33 403.43
  Q 394.88 413.36 399.36 422.45
  Q 398.16 424.18 396.82 424.25
  Q 396.19 424.28 396.30 423.66
  C 396.77 420.80 384.95 404.74 392.33 403.43
  Z"
/>
<path fill="#284d94" d="
  M 401.09 425.69
  Q 407.24 436.82 418.30 443.20
  Q 418.21 444.62 416.92 444.54
  Q 416.26 444.50 415.44 443.87
  C 410.25 439.91 402.40 433.55 398.87 427.26
  Q 398.93 427.15 398.98 427.05
  L 401.09 425.69
  Z"
/>
<path fill="#284d94" d="
  M 450.42 443.40
  Q 450.62 444.75 449.70 445.45
  Q 449.30 445.75 448.81 445.67
  Q 440.30 444.30 427.75 444.27
  Q 426.36 444.27 421.50 443.40
  Q 416.47 440.64 412.76 436.81
  Q 412.23 436.27 412.98 436.41
  L 450.42 443.40
  Z"
/>
<path fill="#284d94" d="
  M 168.26 436.63
  Q 168.48 437.47 169.05 437.57
  Q 169.47 437.65 169.26 438.03
  Q 169.10 438.32 168.74 438.48
  C 165.62 439.89 161.68 440.48 159.32 441.19
  C 149.67 444.09 140.87 449.18 134.83 457.38
  Q 131.46 461.98 127.16 465.86
  C 131.34 448.94 153.09 439.53 168.26 436.63
  Z"
/>
<path fill="#735f43" d="
  M 262.54 445.52
  A 1.51 1.50 -81.3 0 1 263.78 447.21
  C 261.97 460.54 240.22 471.27 228.24 472.11
  C 222.35 472.52 219.58 469.26 222.87 463.93
  C 229.01 454.00 251.10 443.59 262.54 445.52
  Z"
/>
<path fill="#735f43" d="
  M 352.75 475.42
  C 349.23 471.50 340.67 458.65 347.54 454.14
  Q 347.98 453.85 348.50 453.98
  C 359.61 456.74 375.06 467.37 381.71 476.70
  C 383.64 479.41 386.41 482.20 386.52 485.79
  Q 386.54 486.29 386.19 486.65
  C 382.75 490.29 377.43 490.14 372.93 488.76
  C 365.26 486.40 357.96 481.23 352.75 475.42
  Z"
/>
<path fill="#735f43" d="
  M 307.71 471.31
  C 300.93 469.87 290.84 467.28 287.66 460.35
  C 286.43 457.69 288.27 456.63 290.60 456.27
  Q 310.41 453.28 329.18 459.84
  C 331.36 460.60 334.39 462.16 335.59 463.80
  Q 337.20 465.99 334.80 467.27
  Q 321.67 474.28 307.71 471.31
  Z"
/>
<path fill="#735f43" d="
  M 164.55 484.73
  C 160.84 484.16 153.10 483.05 152.66 478.14
  Q 152.61 477.63 152.95 477.23
  C 158.53 470.55 172.96 475.01 180.68 475.59
  Q 187.93 476.13 195.11 476.53
  A 0.45 0.45 0.0 0 1 195.35 477.35
  Q 181.45 487.35 164.55 484.73
  Z"
/>
<path fill="#735f43" d="
  M 404.84 488.60
  Q 402.37 487.63 405.00 487.33
  C 418.53 485.78 431.86 482.06 445.92 485.43
  Q 446.86 485.66 446.07 486.23
  C 433.03 495.64 419.34 494.29 404.84 488.60
  Z"
/>
</svg>
