<?xml version="1.0" encoding="UTF-8" standalone="no"?>
<svg xmlns="http://www.w3.org/2000/svg" version="1.2" baseProfile="tiny" viewBox="0.00 0.00 500.00 500.00">
<path fill="#b1a079" d="
  M 153.17 355.01
  C 149.62 346.77 149.69 339.87 148.46 331.41
  C 147.38 323.90 147.92 315.78 148.02 308.19
  C 148.06 305.19 147.14 302.42 146.84 299.32
  Q 146.62 297.07 146.29 295.80
  C 140.74 274.84 127.18 266.94 107.17 261.58
  C 90.17 257.03 74.88 241.47 79.92 222.71
  Q 82.51 213.06 92.02 208.15
  C 95.74 206.23 100.71 206.04 105.09 205.15
  Q 105.81 205.01 105.30 204.48
  C 100.86 199.95 96.81 195.28 91.61 191.58
  C 83.55 185.85 75.24 180.72 72.36 170.42
  C 69.51 160.23 70.85 149.48 77.41 141.02
  C 85.72 130.28 98.49 124.05 112.14 126.42
  C 119.92 127.77 129.72 133.66 134.49 140.05
  C 139.66 146.96 140.29 159.99 142.99 167.93
  C 147.80 182.10 161.53 203.11 176.72 207.78
  C 180.48 208.94 192.10 211.17 194.34 206.55
  C 196.24 202.61 195.02 197.48 193.11 193.71
  C 188.80 185.22 183.02 173.91 185.10 164.36
  Q 187.05 155.43 191.98 149.76
  C 199.26 141.39 213.11 136.10 223.00 143.73
  A 0.44 0.43 11.6 0 0 223.69 143.28
  C 221.07 133.26 220.12 122.38 223.35 112.46
  C 233.00 82.85 270.34 69.18 288.45 102.01
  C 292.70 109.71 292.08 120.34 290.53 128.69
  C 288.00 142.36 294.54 156.28 304.53 165.38
  A 0.82 0.81 -52.7 0 0 305.77 165.21
  C 310.23 158.11 308.17 149.26 311.85 141.77
  C 321.99 121.20 346.23 120.63 358.22 139.22
  Q 358.88 140.24 358.99 141.20
  A 0.39 0.39 0.0 0 0 359.72 141.36
  Q 362.31 137.08 365.00 132.93
  Q 378.45 112.17 402.54 114.83
  C 415.05 116.21 423.33 127.31 424.54 139.25
  C 425.13 145.09 425.40 149.11 423.46 154.24
  Q 421.69 158.91 420.20 162.41
  C 416.30 171.59 408.78 178.51 405.16 187.81
  C 397.01 208.74 396.27 232.42 408.94 251.83
  Q 414.06 259.68 418.68 268.10
  A 0.28 0.28 0.0 0 0 419.20 268.03
  C 423.35 250.21 435.85 229.84 447.21 216.23
  C 457.12 204.35 475.90 191.25 491.59 201.28
  C 501.48 207.61 499.64 220.44 497.24 229.89
  C 494.95 238.93 489.18 248.85 483.79 255.81
  C 467.86 276.40 452.03 290.88 429.81 304.20
  A 1.28 1.28 0.0 0 0 429.24 304.97
  C 422.81 329.44 402.45 348.70 383.03 363.76
  C 354.08 386.20 320.32 402.48 285.01 412.24
  C 273.63 415.39 257.74 416.44 241.50 416.82
  C 222.52 417.27 206.97 414.79 190.45 406.31
  C 182.59 402.27 176.01 395.74 170.22 389.26
  Q 169.89 388.89 169.41 389.01
  C 158.41 391.87 147.88 391.64 136.68 390.63
  C 112.42 388.45 82.19 377.27 72.12 352.89
  C 66.98 340.42 69.14 325.30 83.23 319.99
  C 108.79 310.37 136.58 338.88 153.05 355.10
  Q 153.32 355.37 153.17 355.01
  Z"
/>
<g stroke-width="2.00" fill="none" stroke-linecap="butt">
<path stroke="#f3edd4" vector-effect="non-scaling-stroke" d="
  M 406.28 179.99
  Q 406.37 179.13 406.27 179.00
  A 0.74 0.74 0.0 0 0 405.04 179.14
  C 403.16 182.88 400.84 185.82 399.49 189.91
  Q 397.25 196.71 393.10 202.60
  Q 392.80 203.01 392.89 203.52
  Q 393.14 205.00 391.99 205.94
  A 1.09 1.07 -16.4 0 0 391.59 206.66
  C 390.98 212.69 388.39 218.66 387.86 223.73
  C 387.21 229.88 387.99 233.51 391.85 238.54
  C 392.99 240.03 392.87 241.82 394.10 243.55
  C 395.92 246.10 400.98 255.34 404.41 254.76
  A 2.03 2.03 0.0 0 1 406.39 255.57
  L 410.23 260.88
  Q 410.50 261.26 410.89 261.00
  Q 411.30 260.72 411.29 260.00"
/>
<path stroke="#f3edd4" vector-effect="non-scaling-stroke" d="
  M 489.12 202.41
  Q 487.61 203.32 488.68 203.97
  Q 494.74 207.64 494.50 214.86
  Q 494.49 215.33 494.19 215.71
  Q 491.55 219.11 491.43 223.43
  A 1.34 1.30 67.0 0 1 491.10 224.28
  Q 488.93 226.73 489.78 229.92
  Q 489.80 229.98 489.55 230.82
  Q 489.35 231.51 488.53 231.23
  A 0.89 0.88 29.3 0 0 487.56 231.50
  Q 486.45 232.88 486.55 234.75
  A 1.28 1.23 62.3 0 1 486.32 235.54
  C 484.25 238.45 481.72 243.29 478.28 244.57
  A 0.89 0.86 -0.4 0 0 477.77 245.07
  C 476.10 249.26 472.57 253.15 470.24 257.15
  C 468.35 260.37 466.46 262.25 463.48 264.02
  Q 460.36 265.86 459.03 267.16
  Q 456.69 269.47 454.51 271.93
  Q 453.88 272.64 453.83 273.25
  C 453.69 274.79 455.20 275.08 456.48 274.86
  Q 458.29 274.56 460.69 274.42
  A 1.00 1.00 0.0 0 1 461.41 276.16
  Q 461.04 276.50 461.52 277.33"
/>
<path stroke="#e7dfbf" vector-effect="non-scaling-stroke" d="
  M 417.41 325.91
  L 414.60 322.79
  A 0.99 0.99 0.0 0 0 413.32 322.63
  Q 381.04 343.72 344.75 357.25
  Q 328.09 363.46 314.20 366.53
  Q 312.74 366.85 307.23 367.33
  C 303.02 367.70 299.49 369.59 295.35 370.07
  Q 293.81 370.26 292.26 370.81
  C 286.23 372.96 279.40 373.46 273.09 374.48
  C 255.63 377.31 236.85 377.48 219.15 378.02
  A 1.97 1.90 57.5 0 1 218.20 377.79
  C 213.37 375.12 210.25 377.12 206.03 377.38
  Q 199.86 377.76 193.72 377.41
  C 186.56 377.01 179.63 377.60 172.92 376.71
  C 161.29 375.18 149.71 374.35 138.18 371.91
  C 134.11 371.05 130.55 368.55 127.06 367.42
  C 125.08 366.78 122.69 368.16 120.88 366.13
  A 1.40 1.40 0.0 0 0 120.06 365.68
  C 116.53 365.14 113.74 363.09 111.29 361.92
  Q 103.08 357.96 94.42 352.34
  C 89.72 349.29 86.34 344.54 83.50 341.72
  Q 80.35 338.58 77.23 335.42
  Q 76.85 335.03 76.73 334.50
  Q 76.40 332.87 74.80 332.67
  Q 74.25 332.60 74.09 332.07
  L 73.85 331.31"
/>
<path stroke="#f3edd4" vector-effect="non-scaling-stroke" d="
  M 151.72 338.75
  L 152.33 338.75
  Q 152.82 338.75 152.86 338.26
  C 153.37 331.26 157.24 325.70 157.08 319.07
  C 156.87 310.73 157.28 302.39 156.89 294.07
  C 156.66 289.10 151.38 280.58 147.51 277.52
  Q 142.43 273.50 137.28 269.57
  C 135.21 267.99 132.91 267.61 130.48 266.82
  Q 129.79 266.60 129.59 266.90
  Q 129.37 267.24 129.47 268.06"
/>
<path stroke="#f3edd4" vector-effect="non-scaling-stroke" d="
  M 97.24 254.11
  Q 97.89 254.08 98.23 253.87
  Q 98.80 253.53 98.25 253.15
  L 90.88 248.00
  A 1.47 1.47 0.0 0 1 90.60 245.84
  C 91.24 245.10 90.42 240.69 90.78 238.97
  A 0.53 0.53 0.0 0 1 91.32 238.56
  L 94.99 238.68
  Q 95.67 238.70 95.91 238.06
  Q 97.46 234.01 96.62 229.73
  A 0.85 0.80 53.0 0 1 96.68 229.20
  C 97.10 228.28 97.48 227.36 96.87 226.43
  Q 93.91 221.88 89.12 225.75
  A 0.65 0.65 0.0 0 1 88.07 225.38
  L 87.28 221.64
  Q 87.20 221.25 86.96 220.94
  Q 86.68 220.58 86.52 219.89
  Q 86.42 219.43 86.69 219.05
  Q 89.06 215.77 86.83 214.98"
/>
<path stroke="#f3edd4" vector-effect="non-scaling-stroke" d="
  M 88.65 134.14
  L 88.61 135.00
  Q 88.57 135.71 89.20 135.40
  Q 94.76 132.62 100.90 132.66
  C 105.75 132.70 108.14 130.95 113.06 133.53
  C 121.83 138.11 130.47 141.84 134.02 147.99
  A 0.61 0.60 40.6 0 0 135.11 147.91
  L 135.47 146.96"
/>
<path stroke="#daceaf" vector-effect="non-scaling-stroke" d="
  M 172.68 388.80
  Q 175.17 388.34 178.06 391.47
  C 180.17 393.75 182.54 396.30 185.65 396.72
  Q 187.14 396.92 188.56 397.40
  C 191.98 398.54 195.01 398.29 198.12 400.74
  A 1.22 1.20 62.3 0 0 198.96 401.01
  C 201.97 400.83 210.98 404.28 212.30 400.49
  A 0.72 0.71 -80.1 0 1 212.97 400.01
  C 214.83 400.01 217.77 399.67 218.89 401.43
  Q 219.14 401.84 219.60 401.70
  C 221.36 401.15 222.64 400.47 224.55 400.49
  C 230.78 400.55 236.13 399.28 243.09 399.20
  C 248.58 399.15 255.14 398.10 261.47 399.05
  Q 264.97 399.57 267.54 399.24
  Q 282.17 397.35 296.22 392.77
  Q 308.06 388.92 311.93 388.93
  Q 316.17 388.94 320.36 388.32
  Q 320.87 388.24 321.36 388.39
  Q 324.05 389.20 324.75 386.88
  A 2.90 2.90 0.0 0 1 328.68 385.06
  C 331.85 386.44 334.51 382.85 339.16 384.53
  A 0.89 0.87 -45.4 0 0 339.80 384.52
  L 342.77 383.30
  A 0.92 0.90 -3.7 0 0 343.30 382.71
  Q 344.48 378.65 348.74 379.27
  Q 349.22 379.34 349.59 379.04
  C 352.70 376.57 356.46 375.97 359.41 374.15
  Q 366.24 369.96 373.08 365.64
  Q 373.56 365.33 373.56 364.75
  Q 373.53 362.82 375.20 362.11
  Q 375.80 361.85 376.05 361.25
  L 376.87 359.26
  A 1.22 1.22 0.0 0 0 375.24 357.69
  Q 366.84 361.47 358.71 364.76
  C 353.01 367.07 347.30 368.54 341.60 370.36
  C 339.66 370.98 337.55 372.70 334.99 372.76
  Q 327.46 372.92 321.48 376.74
  Q 321.07 377.00 320.60 377.00
  Q 318.40 377.03 316.87 378.47
  Q 316.48 378.83 315.98 378.96
  C 311.26 380.11 307.44 381.78 302.00 380.83
  C 289.30 378.61 275.66 383.77 263.04 385.09
  Q 258.09 385.60 253.14 386.23
  C 241.22 387.76 228.67 387.53 216.64 387.63
  C 207.63 387.70 198.23 385.89 188.75 385.99
  Q 186.66 386.02 181.35 383.91
  Q 177.29 382.31 174.01 381.85
  C 162.55 380.27 151.61 379.40 139.36 376.10
  C 136.47 375.32 132.97 375.24 129.82 374.15
  Q 123.53 371.98 123.38 371.94
  Q 106.77 367.23 92.72 357.03
  Q 92.03 356.53 90.67 357.16
  Q 90.15 357.41 89.75 356.99
  L 77.09 343.74
  Q 76.57 343.20 76.08 343.76
  L 75.54 344.39
  A 0.72 0.71 -49.3 0 0 75.61 345.39
  C 76.33 346.01 76.46 346.64 77.01 347.27
  Q 84.39 355.56 93.21 362.25
  Q 95.62 364.08 99.45 367.68
  Q 102.53 370.57 106.13 372.87
  A 1.90 1.84 -89.1 0 1 106.75 373.53
  C 107.59 375.03 109.19 375.24 110.13 375.84
  C 118.45 381.15 125.68 381.40 134.89 383.47
  Q 143.80 385.49 152.94 385.04
  C 157.79 384.80 162.16 386.30 167.26 385.57"
/>
</g>
<path fill="#ede6c7" d="
  M 406.28 179.99
  Q 406.37 179.13 406.27 179.00
  A 0.74 0.74 0.0 0 0 405.04 179.14
  C 403.16 182.88 400.84 185.82 399.49 189.91
  Q 397.25 196.71 393.10 202.60
  Q 392.80 203.01 392.89 203.52
  Q 393.14 205.00 391.99 205.94
  A 1.09 1.07 -16.4 0 0 391.59 206.66
  C 390.98 212.69 388.39 218.66 387.86 223.73
  C 387.21 229.88 387.99 233.51 391.85 238.54
  C 392.99 240.03 392.87 241.82 394.10 243.55
  C 395.92 246.10 400.98 255.34 404.41 254.76
  A 2.03 2.03 0.0 0 1 406.39 255.57
  L 410.23 260.88
  Q 410.50 261.26 410.89 261.00
  Q 411.30 260.72 411.29 260.00
  C 413.52 263.83 417.75 269.99 417.60 274.48
  Q 417.50 277.27 416.78 280.02
  Q 416.51 281.06 417.51 281.86
  A 0.69 0.68 24.0 0 0 418.62 281.44
  Q 420.64 268.29 426.07 255.89
  C 434.92 235.68 459.87 189.60 489.12 202.41
  Q 487.61 203.32 488.68 203.97
  Q 494.74 207.64 494.50 214.86
  Q 494.49 215.33 494.19 215.71
  Q 491.55 219.11 491.43 223.43
  A 1.34 1.30 67.0 0 1 491.10 224.28
  Q 488.93 226.73 489.78 229.92
  Q 489.80 229.98 489.55 230.82
  Q 489.35 231.51 488.53 231.23
  A 0.89 0.88 29.3 0 0 487.56 231.50
  Q 486.45 232.88 486.55 234.75
  A 1.28 1.23 62.3 0 1 486.32 235.54
  C 484.25 238.45 481.72 243.29 478.28 244.57
  A 0.89 0.86 -0.4 0 0 477.77 245.07
  C 476.10 249.26 472.57 253.15 470.24 257.15
  C 468.35 260.37 466.46 262.25 463.48 264.02
  Q 460.36 265.86 459.03 267.16
  Q 456.69 269.47 454.51 271.93
  Q 453.88 272.64 453.83 273.25
  C 453.69 274.79 455.20 275.08 456.48 274.86
  Q 458.29 274.56 460.69 274.42
  A 1.00 1.00 0.0 0 1 461.41 276.16
  Q 461.04 276.50 461.52 277.33
  Q 445.50 292.29 426.68 303.57
  Q 426.23 303.84 426.09 304.34
  C 423.86 311.98 421.86 318.42 417.41 325.91
  L 414.60 322.79
  A 0.99 0.99 0.0 0 0 413.32 322.63
  Q 381.04 343.72 344.75 357.25
  Q 328.09 363.46 314.20 366.53
  Q 312.74 366.85 307.23 367.33
  C 303.02 367.70 299.49 369.59 295.35 370.07
  Q 293.81 370.26 292.26 370.81
  C 286.23 372.96 279.40 373.46 273.09 374.48
  C 255.63 377.31 236.85 377.48 219.15 378.02
  A 1.97 1.90 57.5 0 1 218.20 377.79
  C 213.37 375.12 210.25 377.12 206.03 377.38
  Q 199.86 377.76 193.72 377.41
  C 186.56 377.01 179.63 377.60 172.92 376.71
  C 161.29 375.18 149.71 374.35 138.18 371.91
  C 134.11 371.05 130.55 368.55 127.06 367.42
  C 125.08 366.78 122.69 368.16 120.88 366.13
  A 1.40 1.40 0.0 0 0 120.06 365.68
  C 116.53 365.14 113.74 363.09 111.29 361.92
  Q 103.08 357.96 94.42 352.34
  C 89.72 349.29 86.34 344.54 83.50 341.72
  Q 80.35 338.58 77.23 335.42
  Q 76.85 335.03 76.73 334.50
  Q 76.40 332.87 74.80 332.67
  Q 74.25 332.60 74.09 332.07
  L 73.85 331.31
  Q 77.54 324.43 82.95 322.49
  C 95.63 317.93 104.88 320.92 116.43 327.57
  C 131.72 336.37 146.83 351.52 159.88 367.23
  A 0.46 0.46 0.0 0 0 160.57 367.25
  Q 161.17 366.62 160.70 366.05
  C 155.55 359.69 152.62 346.78 151.72 338.75
  L 152.33 338.75
  Q 152.82 338.75 152.86 338.26
  C 153.37 331.26 157.24 325.70 157.08 319.07
  C 156.87 310.73 157.28 302.39 156.89 294.07
  C 156.66 289.10 151.38 280.58 147.51 277.52
  Q 142.43 273.50 137.28 269.57
  C 135.21 267.99 132.91 267.61 130.48 266.82
  Q 129.79 266.60 129.59 266.90
  Q 129.37 267.24 129.47 268.06
  C 118.57 261.89 107.55 260.45 97.24 254.11
  Q 97.89 254.08 98.23 253.87
  Q 98.80 253.53 98.25 253.15
  L 90.88 248.00
  A 1.47 1.47 0.0 0 1 90.60 245.84
  C 91.24 245.10 90.42 240.69 90.78 238.97
  A 0.53 0.53 0.0 0 1 91.32 238.56
  L 94.99 238.68
  Q 95.67 238.70 95.91 238.06
  Q 97.46 234.01 96.62 229.73
  A 0.85 0.80 53.0 0 1 96.68 229.20
  C 97.10 228.28 97.48 227.36 96.87 226.43
  Q 93.91 221.88 89.12 225.75
  A 0.65 0.65 0.0 0 1 88.07 225.38
  L 87.28 221.64
  Q 87.20 221.25 86.96 220.94
  Q 86.68 220.58 86.52 219.89
  Q 86.42 219.43 86.69 219.05
  Q 89.06 215.77 86.83 214.98
  Q 94.46 206.62 106.61 207.85
  C 107.78 207.96 108.94 208.88 109.58 209.67
  Q 113.69 214.83 117.79 219.98
  C 122.43 225.81 125.56 231.77 128.75 238.23
  A 0.39 0.39 0.0 0 0 129.49 238.02
  Q 129.24 235.87 128.38 233.92
  C 120.27 215.65 108.40 201.09 90.77 188.91
  C 83.50 183.89 75.67 176.49 73.86 167.47
  C 71.21 154.25 76.70 140.80 88.65 134.14
  L 88.61 135.00
  Q 88.57 135.71 89.20 135.40
  Q 94.76 132.62 100.90 132.66
  C 105.75 132.70 108.14 130.95 113.06 133.53
  C 121.83 138.11 130.47 141.84 134.02 147.99
  A 0.61 0.60 40.6 0 0 135.11 147.91
  L 135.47 146.96
  C 138.01 156.46 140.02 167.18 143.70 175.40
  Q 152.44 194.92 169.90 207.71
  C 172.17 209.37 176.83 210.52 179.68 211.06
  Q 195.81 214.09 207.43 202.16
  C 214.45 194.94 220.21 187.29 223.17 177.73
  C 226.43 167.19 228.89 158.75 226.54 147.30
  Q 224.55 137.57 223.96 127.67
  C 222.70 106.42 238.89 84.97 261.01 85.16
  C 272.74 85.26 283.02 94.35 287.17 104.71
  C 290.18 112.23 289.64 120.90 288.24 129.05
  C 284.90 148.48 298.04 167.47 315.28 175.11
  C 333.71 183.27 351.14 166.75 357.73 151.27
  C 362.77 139.41 366.65 131.25 377.28 123.31
  C 383.83 118.43 390.78 117.20 398.72 117.17
  C 413.08 117.12 420.94 126.93 422.61 140.23
  C 424.58 155.97 414.74 167.49 406.28 179.99
  Z"
/>
<g stroke-width="2.00" fill="none" stroke-linecap="butt">
<path stroke="#e6ddc3" vector-effect="non-scaling-stroke" d="
  M 227.54 312.36
  C 226.48 311.74 224.66 310.52 223.45 310.89
  Q 222.45 311.19 222.25 312.10"
/>
<path stroke="#fbf9ec" vector-effect="non-scaling-stroke" d="
  M 222.25 312.10
  Q 218.71 311.40 215.09 313.38"
/>
<path stroke="#e6ddc3" vector-effect="non-scaling-stroke" d="
  M 215.09 313.38
  Q 212.75 312.46 209.91 316.31"
/>
<path stroke="#e9e1cf" vector-effect="non-scaling-stroke" d="
  M 231.13 357.58
  C 237.81 343.18 236.94 321.56 222.25 312.10"
/>
<path stroke="#e9e1cf" vector-effect="non-scaling-stroke" d="
  M 224.04 358.97
  C 222.02 356.96 219.67 355.43 217.97 353.38
  Q 202.81 335.04 215.09 313.38"
/>
<path stroke="#e9e1cf" vector-effect="non-scaling-stroke" d="
  M 349.68 324.18
  C 358.94 310.15 358.58 287.11 343.20 277.05"
/>
<path stroke="#e9e1cf" vector-effect="non-scaling-stroke" d="
  M 343.39 325.49
  C 327.31 316.95 325.48 293.93 334.28 278.98"
/>
</g>
<path fill="#f8f4e0" d="
  M 252.48 116.34
  A 0.25 0.25 0.0 0 1 252.55 116.68
  C 250.06 120.78 244.30 129.00 238.52 125.97
  Q 233.34 123.26 233.18 117.32
  C 233.08 113.43 236.06 110.50 236.68 106.35
  Q 237.38 101.60 240.86 98.26
  Q 241.21 97.92 241.70 97.84
  C 246.15 97.13 252.78 98.73 254.29 103.70
  A 1.30 1.28 50.8 0 1 254.20 104.64
  Q 252.74 107.39 251.08 109.95
  C 249.02 113.13 249.66 114.38 252.48 116.34
  Z"
/>
<path fill="#b1a079" d="
  M 31.99 103.26
  C 45.06 110.57 47.16 131.15 34.58 139.89
  C 29.55 143.38 22.33 144.03 16.31 143.39
  C 9.41 142.66 5.26 137.85 2.42 131.74
  Q -0.82 124.75 0.87 116.54
  C 3.54 103.63 20.99 97.10 31.99 103.26
  Z"
/>
<path stroke="#e7dfbf" stroke-width="2.00" fill="none" stroke-linecap="butt" vector-effect="non-scaling-stroke" d="
  M 39.87 117.98
  Q 36.98 119.32 34.19 120.84
  C 26.32 125.12 17.86 125.51 9.15 125.69
  Q 8.65 125.70 8.19 125.49
  Q 6.68 124.80 5.45 125.95
  Q 5.08 126.30 5.18 126.79
  Q 5.69 129.36 3.49 129.30"
/>
<path fill="#ede6c7" d="
  M 39.87 117.98
  Q 36.98 119.32 34.19 120.84
  C 26.32 125.12 17.86 125.51 9.15 125.69
  Q 8.65 125.70 8.19 125.49
  Q 6.68 124.80 5.45 125.95
  Q 5.08 126.30 5.18 126.79
  Q 5.69 129.36 3.49 129.30
  C 0.98 120.99 2.70 111.00 10.67 106.43
  C 22.97 99.37 35.87 103.95 39.87 117.98
  Z"
/>
<path fill="#f8f4e0" d="
  M 13.75 110.99
  C 19.44 111.60 15.52 124.99 6.56 123.49
  A 0.98 0.97 -6.8 0 1 5.83 122.92
  C 4.43 119.73 5.72 117.30 7.24 114.20
  Q 9.06 110.48 13.75 110.99
  Z"
/>
<path fill="#e1d7b7" d="
  M 39.87 117.98
  C 42.69 131.04 36.10 140.06 23.12 141.22
  C 13.84 142.05 6.59 138.60 3.49 129.30
  Q 5.69 129.36 5.18 126.79
  Q 5.08 126.30 5.45 125.95
  Q 6.68 124.80 8.19 125.49
  Q 8.65 125.70 9.15 125.69
  C 17.86 125.51 26.32 125.12 34.19 120.84
  Q 36.98 119.32 39.87 117.98
  Z"
/>
<path fill="#f8f4e0" d="
  M 381.95 127.70
  C 386.70 124.06 389.06 123.66 393.56 128.00
  Q 393.89 128.31 393.97 128.76
  Q 394.26 130.24 393.49 131.48
  Q 393.23 131.92 393.25 132.42
  Q 393.32 134.27 392.19 135.69
  Q 391.70 136.31 391.40 137.04
  Q 387.42 146.55 376.91 146.43
  A 0.56 0.52 65.3 0 1 376.54 146.28
  Q 372.81 142.91 375.91 139.43
  Q 376.35 138.93 376.38 138.28
  Q 376.72 131.73 381.95 127.70
  Z"
/>
<path fill="#d3c5a6" d="
  M 311.30 153.76
  C 312.49 137.65 325.14 122.83 342.14 129.17
  C 347.64 131.22 359.96 138.45 357.62 145.99
  C 354.14 157.23 342.03 173.80 328.95 174.54
  C 326.69 174.66 324.57 175.25 322.36 174.76
  Q 314.70 173.05 308.02 169.14
  A 0.94 0.93 28.2 0 1 307.65 167.93
  Q 310.74 161.38 311.30 153.76
  Z"
/>
<path fill="#d3c5a6" d="
  M 27.81 136.04
  C 21.59 137.54 16.22 138.51 12.92 133.32
  A 0.10 0.10 0.0 0 1 13.00 133.17
  Q 26.17 131.84 35.30 127.87
  A 0.75 0.75 0.0 0 1 36.29 128.84
  Q 33.92 134.58 27.81 136.04
  Z"
/>
<path fill="#f8f4e0" d="
  M 135.47 146.96
  L 135.11 147.91
  A 0.61 0.60 40.6 0 1 134.02 147.99
  C 130.47 141.84 121.83 138.11 113.06 133.53
  C 108.14 130.95 105.75 132.70 100.90 132.66
  Q 94.76 132.62 89.20 135.40
  Q 88.57 135.71 88.61 135.00
  L 88.65 134.14
  C 95.85 129.40 103.75 127.20 112.33 129.35
  C 122.47 131.89 130.45 137.55 135.47 146.96
  Z"
/>
<path fill="#f8f4e0" d="
  M 96.78 141.68
  C 98.61 140.49 102.32 141.45 102.36 143.94
  Q 102.53 154.04 103.28 160.91
  Q 103.34 161.42 103.12 161.88
  C 102.13 164.02 101.69 166.41 100.38 168.20
  Q 93.44 177.74 82.81 170.17
  Q 82.40 169.88 82.26 169.40
  C 80.38 162.85 80.69 155.91 84.45 150.11
  C 87.48 145.42 89.07 140.34 95.88 141.85
  Q 96.37 141.96 96.78 141.68
  Z"
/>
<path fill="#d3c5a6" d="
  M 197.34 206.60
  C 198.11 195.30 190.32 184.99 188.00 175.52
  C 186.13 167.92 187.82 159.82 191.57 153.81
  C 196.30 146.22 207.16 139.23 216.45 142.49
  C 220.64 143.96 225.60 146.25 225.73 151.50
  C 226.00 161.73 224.96 168.50 221.57 177.38
  C 217.68 187.53 208.59 202.44 197.84 206.96
  Q 197.29 207.20 197.34 206.60
  Z"
/>
<path fill="#f8f4e0" d="
  M 406.28 179.99
  C 404.44 184.16 402.19 188.30 400.99 192.49
  C 396.32 208.80 394.26 233.41 404.47 248.20
  C 405.33 249.43 405.19 250.44 405.92 251.58
  Q 408.60 255.81 411.29 260.00
  Q 411.30 260.72 410.89 261.00
  Q 410.50 261.26 410.23 260.88
  L 406.39 255.57
  A 2.03 2.03 0.0 0 0 404.41 254.76
  C 400.98 255.34 395.92 246.10 394.10 243.55
  C 392.87 241.82 392.99 240.03 391.85 238.54
  C 387.99 233.51 387.21 229.88 387.86 223.73
  C 388.39 218.66 390.98 212.69 391.59 206.66
  A 1.09 1.07 -16.4 0 1 391.99 205.94
  Q 393.14 205.00 392.89 203.52
  Q 392.80 203.01 393.10 202.60
  Q 397.25 196.71 399.49 189.91
  C 400.84 185.82 403.16 182.88 405.04 179.14
  A 0.74 0.74 0.0 0 1 406.27 179.00
  Q 406.37 179.13 406.28 179.99
  Z"
/>
<path fill="#f8f4e0" d="
  M 227.54 312.36
  C 226.48 311.74 224.66 310.52 223.45 310.89
  Q 222.45 311.19 222.25 312.10
  Q 218.71 311.40 215.09 313.38
  Q 212.75 312.46 209.91 316.31
  Q 199.76 312.11 191.00 306.41
  C 188.54 304.80 187.82 302.31 185.88 300.19
  Q 180.72 294.58 177.71 287.51
  A 1.93 1.91 7.3 0 0 177.10 286.73
  Q 174.13 284.53 174.81 280.99
  C 175.16 279.12 174.24 277.85 174.59 276.32
  C 175.83 271.02 175.81 265.23 177.73 260.37
  Q 183.78 245.10 194.55 232.86
  C 201.23 225.26 210.25 220.31 220.16 218.77
  Q 232.06 216.92 242.85 211.60
  C 248.21 208.97 257.18 205.01 262.87 206.54
  C 268.83 208.14 271.15 204.29 274.45 200.75
  C 276.03 199.06 276.30 197.49 279.17 197.17
  Q 279.66 197.12 280.06 196.83
  C 283.93 193.96 288.48 189.03 293.97 191.86
  C 298.37 194.12 309.95 201.04 309.98 205.57
  Q 309.99 206.06 310.32 206.43
  C 318.57 215.50 304.24 219.51 298.69 220.47
  Q 297.25 220.72 296.66 221.76
  C 294.17 226.09 291.66 224.99 288.80 221.95
  C 285.44 218.37 280.65 214.60 279.95 209.75
  Q 279.87 209.21 279.35 209.03
  L 275.83 207.82
  Q 275.36 207.65 274.90 207.84
  Q 272.17 208.91 270.29 211.05
  C 268.65 212.92 268.56 215.59 266.75 217.49
  Q 262.53 221.90 258.37 226.28
  A 1.47 1.47 0.0 0 0 258.18 228.04
  C 264.90 239.17 269.20 246.10 259.54 257.86
  Q 259.21 258.26 259.23 258.78
  C 259.68 268.35 253.25 273.70 246.77 279.40
  Q 245.71 280.34 246.42 281.56
  Q 246.91 282.39 246.02 283.86
  C 244.81 285.87 244.63 288.40 243.77 290.28
  Q 242.06 294.02 240.01 297.58
  Q 239.76 298.02 239.76 298.52
  Q 239.73 301.62 237.20 303.43
  Q 231.84 307.31 227.54 312.36
  Z"
/>
<path fill="#f8f4e0" d="
  M 489.12 202.41
  Q 498.83 208.50 496.49 222.00
  Q 493.79 237.54 484.49 250.25
  C 477.26 260.14 472.07 267.46 461.52 277.33
  Q 461.04 276.50 461.41 276.16
  A 1.00 1.00 0.0 0 0 460.69 274.42
  Q 458.29 274.56 456.48 274.86
  C 455.20 275.08 453.69 274.79 453.83 273.25
  Q 453.88 272.64 454.51 271.93
  Q 456.69 269.47 459.03 267.16
  Q 460.36 265.86 463.48 264.02
  C 466.46 262.25 468.35 260.37 470.24 257.15
  C 472.57 253.15 476.10 249.26 477.77 245.07
  A 0.89 0.86 -0.4 0 1 478.28 244.57
  C 481.72 243.29 484.25 238.45 486.32 235.54
  A 1.28 1.23 62.3 0 0 486.55 234.75
  Q 486.45 232.88 487.56 231.50
  A 0.89 0.88 29.3 0 1 488.53 231.23
  Q 489.35 231.51 489.55 230.82
  Q 489.80 229.98 489.78 229.92
  Q 488.93 226.73 491.10 224.28
  A 1.34 1.30 67.0 0 0 491.43 223.43
  Q 491.55 219.11 494.19 215.71
  Q 494.49 215.33 494.50 214.86
  Q 494.74 207.64 488.68 203.97
  Q 487.61 203.32 489.12 202.41
  Z"
/>
<path fill="#f8f4e0" d="
  M 460.35 221.88
  C 452.90 217.60 467.46 204.51 471.18 212.44
  Q 471.37 212.86 471.19 213.28
  C 470.01 215.94 464.06 224.01 460.35 221.88
  Z"
/>
<path fill="#f8f4e0" d="
  M 86.83 214.98
  Q 89.06 215.77 86.69 219.05
  Q 86.42 219.43 86.52 219.89
  Q 86.68 220.58 86.96 220.94
  Q 87.20 221.25 87.28 221.64
  L 88.07 225.38
  A 0.65 0.65 0.0 0 0 89.12 225.75
  Q 93.91 221.88 96.87 226.43
  C 97.48 227.36 97.10 228.28 96.68 229.20
  A 0.85 0.80 53.0 0 0 96.62 229.73
  Q 97.46 234.01 95.91 238.06
  Q 95.67 238.70 94.99 238.68
  L 91.32 238.56
  A 0.53 0.53 0.0 0 0 90.78 238.97
  C 90.42 240.69 91.24 245.10 90.60 245.84
  A 1.47 1.47 0.0 0 0 90.88 248.00
  L 98.25 253.15
  Q 98.80 253.53 98.23 253.87
  Q 97.89 254.08 97.24 254.11
  C 82.84 246.36 75.74 228.74 86.83 214.98
  Z"
/>
<path fill="#f8f4e0" d="
  M 151.72 338.75
  Q 149.73 328.03 150.03 324.25
  C 150.93 313.06 151.54 300.63 146.89 290.10
  Q 142.35 279.83 134.69 271.55
  C 133.20 269.94 131.35 269.11 129.47 268.06
  Q 129.37 267.24 129.59 266.90
  Q 129.79 266.60 130.48 266.82
  C 132.91 267.61 135.21 267.99 137.28 269.57
  Q 142.43 273.50 147.51 277.52
  C 151.38 280.58 156.66 289.10 156.89 294.07
  C 157.28 302.39 156.87 310.73 157.08 319.07
  C 157.24 325.70 153.37 331.26 152.86 338.26
  Q 152.82 338.75 152.33 338.75
  L 151.72 338.75
  Z"
/>
<path fill="#d3c5a6" d="
  M 349.68 324.18
  C 358.94 310.15 358.58 287.11 343.20 277.05
  Q 347.70 275.66 351.39 280.10
  C 360.77 291.40 363.08 313.45 351.55 324.23
  Q 351.17 324.58 350.68 324.44
  L 349.68 324.18
  Z"
/>
<path fill="#fefdf7" d="
  M 343.20 277.05
  C 358.58 287.11 358.94 310.15 349.68 324.18
  Q 346.19 326.33 343.39 325.49
  C 327.31 316.95 325.48 293.93 334.28 278.98
  Q 338.33 276.41 343.20 277.05
  Z"
/>
<path fill="#d3c5a6" d="
  M 334.28 278.98
  C 325.48 293.93 327.31 316.95 343.39 325.49
  L 342.32 326.27
  Q 341.95 326.54 341.51 326.40
  C 326.34 321.69 322.84 298.60 327.36 285.72
  Q 329.15 280.62 334.28 278.98
  Z"
/>
<path fill="#d3c5a6" d="
  M 227.54 312.36
  C 236.71 319.86 238.75 329.77 238.76 341.02
  C 238.76 344.00 237.06 359.63 231.13 357.58
  C 237.81 343.18 236.94 321.56 222.25 312.10
  Q 222.45 311.19 223.45 310.89
  C 224.66 310.52 226.48 311.74 227.54 312.36
  Z"
/>
<path fill="#fefdf7" d="
  M 222.25 312.10
  C 236.94 321.56 237.81 343.18 231.13 357.58
  Q 227.61 359.59 224.04 358.97
  C 222.02 356.96 219.67 355.43 217.97 353.38
  Q 202.81 335.04 215.09 313.38
  Q 218.71 311.40 222.25 312.10
  Z"
/>
<path fill="#d3c5a6" d="
  M 215.09 313.38
  Q 202.81 335.04 217.97 353.38
  C 219.67 355.43 222.02 356.96 224.04 358.97
  Q 223.48 359.86 222.65 360.31
  Q 222.23 360.53 221.81 360.32
  Q 215.01 356.90 212.05 352.21
  C 206.29 343.09 203.24 326.45 209.91 316.31
  Q 212.75 312.46 215.09 313.38
  Z"
/>
<path fill="#e1d7b7" d="
  M 417.41 325.91
  Q 402.23 345.63 382.19 361.41
  C 354.53 383.19 321.46 398.73 288.74 408.48
  C 274.23 412.80 258.97 413.46 243.49 414.32
  C 217.34 415.77 191.03 409.41 172.68 388.80
  Q 175.17 388.34 178.06 391.47
  C 180.17 393.75 182.54 396.30 185.65 396.72
  Q 187.14 396.92 188.56 397.40
  C 191.98 398.54 195.01 398.29 198.12 400.74
  A 1.22 1.20 62.3 0 0 198.96 401.01
  C 201.97 400.83 210.98 404.28 212.30 400.49
  A 0.72 0.71 -80.1 0 1 212.97 400.01
  C 214.83 400.01 217.77 399.67 218.89 401.43
  Q 219.14 401.84 219.60 401.70
  C 221.36 401.15 222.64 400.47 224.55 400.49
  C 230.78 400.55 236.13 399.28 243.09 399.20
  C 248.58 399.15 255.14 398.10 261.47 399.05
  Q 264.97 399.57 267.54 399.24
  Q 282.17 397.35 296.22 392.77
  Q 308.06 388.92 311.93 388.93
  Q 316.17 388.94 320.36 388.32
  Q 320.87 388.24 321.36 388.39
  Q 324.05 389.20 324.75 386.88
  A 2.90 2.90 0.0 0 1 328.68 385.06
  C 331.85 386.44 334.51 382.85 339.16 384.53
  A 0.89 0.87 -45.4 0 0 339.80 384.52
  L 342.77 383.30
  A 0.92 0.90 -3.7 0 0 343.30 382.71
  Q 344.48 378.65 348.74 379.27
  Q 349.22 379.34 349.59 379.04
  C 352.70 376.57 356.46 375.97 359.41 374.15
  Q 366.24 369.96 373.08 365.64
  Q 373.56 365.33 373.56 364.75
  Q 373.53 362.82 375.20 362.11
  Q 375.80 361.85 376.05 361.25
  L 376.87 359.26
  A 1.22 1.22 0.0 0 0 375.24 357.69
  Q 366.84 361.47 358.71 364.76
  C 353.01 367.07 347.30 368.54 341.60 370.36
  C 339.66 370.98 337.55 372.70 334.99 372.76
  Q 327.46 372.92 321.48 376.74
  Q 321.07 377.00 320.60 377.00
  Q 318.40 377.03 316.87 378.47
  Q 316.48 378.83 315.98 378.96
  C 311.26 380.11 307.44 381.78 302.00 380.83
  C 289.30 378.61 275.66 383.77 263.04 385.09
  Q 258.09 385.60 253.14 386.23
  C 241.22 387.76 228.67 387.53 216.64 387.63
  C 207.63 387.70 198.23 385.89 188.75 385.99
  Q 186.66 386.02 181.35 383.91
  Q 177.29 382.31 174.01 381.85
  C 162.55 380.27 151.61 379.40 139.36 376.10
  C 136.47 375.32 132.97 375.24 129.82 374.15
  Q 123.53 371.98 123.38 371.94
  Q 106.77 367.23 92.72 357.03
  Q 92.03 356.53 90.67 357.16
  Q 90.15 357.41 89.75 356.99
  L 77.09 343.74
  Q 76.57 343.20 76.08 343.76
  L 75.54 344.39
  A 0.72 0.71 -49.3 0 0 75.61 345.39
  C 76.33 346.01 76.46 346.64 77.01 347.27
  Q 84.39 355.56 93.21 362.25
  Q 95.62 364.08 99.45 367.68
  Q 102.53 370.57 106.13 372.87
  A 1.90 1.84 -89.1 0 1 106.75 373.53
  C 107.59 375.03 109.19 375.24 110.13 375.84
  C 118.45 381.15 125.68 381.40 134.89 383.47
  Q 143.80 385.49 152.94 385.04
  C 157.79 384.80 162.16 386.30 167.26 385.57
  L 167.69 386.07
  A 0.88 0.88 0.0 0 1 167.13 387.52
  C 158.53 388.60 149.94 389.33 141.35 388.57
  C 137.85 388.26 134.16 388.34 130.92 387.83
  C 108.47 384.31 83.47 373.99 74.32 351.21
  Q 72.14 345.76 72.09 341.54
  Q 72.03 336.16 73.85 331.31
  L 74.09 332.07
  Q 74.25 332.60 74.80 332.67
  Q 76.40 332.87 76.73 334.50
  Q 76.85 335.03 77.23 335.42
  Q 80.35 338.58 83.50 341.72
  C 86.34 344.54 89.72 349.29 94.42 352.34
  Q 103.08 357.96 111.29 361.92
  C 113.74 363.09 116.53 365.14 120.06 365.68
  A 1.40 1.40 0.0 0 1 120.88 366.13
  C 122.69 368.16 125.08 366.78 127.06 367.42
  C 130.55 368.55 134.11 371.05 138.18 371.91
  C 149.71 374.35 161.29 375.18 172.92 376.71
  C 179.63 377.60 186.56 377.01 193.72 377.41
  Q 199.86 377.76 206.03 377.38
  C 210.25 377.12 213.37 375.12 218.20 377.79
  A 1.97 1.90 57.5 0 0 219.15 378.02
  C 236.85 377.48 255.63 377.31 273.09 374.48
  C 279.40 373.46 286.23 372.96 292.26 370.81
  Q 293.81 370.26 295.35 370.07
  C 299.49 369.59 303.02 367.70 307.23 367.33
  Q 312.74 366.85 314.20 366.53
  Q 328.09 363.46 344.75 357.25
  Q 381.04 343.72 413.32 322.63
  A 0.99 0.99 0.0 0 1 414.60 322.79
  L 417.41 325.91
  Z"
/>
<path fill="#f8f4e0" d="
  M 104.38 339.81
  C 101.12 339.02 93.83 336.89 92.33 334.06
  Q 92.11 333.66 92.18 333.21
  C 93.63 322.59 110.03 331.38 109.41 336.68
  C 109.13 339.14 106.82 340.39 104.38 339.81
  Z"
/>
<path fill="#d3c5a6" d="
  M 288.52 351.40
  C 285.69 351.65 278.05 350.51 276.46 347.48
  A 0.68 0.68 0.0 0 1 277.30 346.53
  C 285.45 349.58 294.45 350.54 299.09 341.43
  A 1.69 1.68 7.8 0 1 300.26 340.55
  Q 302.26 340.14 302.30 341.67
  Q 302.32 342.35 301.76 343.11
  C 298.56 347.44 293.95 350.94 288.52 351.40
  Z"
/>
<path fill="#d3c5a6" d="
  M 172.68 388.80
  L 167.89 382.21
  A 0.75 0.75 0.0 0 0 166.56 382.46
  Q 166.21 383.79 167.26 385.57
  C 162.16 386.30 157.79 384.80 152.94 385.04
  Q 143.80 385.49 134.89 383.47
  C 125.68 381.40 118.45 381.15 110.13 375.84
  C 109.19 375.24 107.59 375.03 106.75 373.53
  A 1.90 1.84 -89.1 0 0 106.13 372.87
  Q 102.53 370.57 99.45 367.68
  Q 95.62 364.08 93.21 362.25
  Q 84.39 355.56 77.01 347.27
  C 76.46 346.64 76.33 346.01 75.61 345.39
  A 0.72 0.71 -49.3 0 1 75.54 344.39
  L 76.08 343.76
  Q 76.57 343.20 77.09 343.74
  L 89.75 356.99
  Q 90.15 357.41 90.67 357.16
  Q 92.03 356.53 92.72 357.03
  Q 106.77 367.23 123.38 371.94
  Q 123.53 371.98 129.82 374.15
  C 132.97 375.24 136.47 375.32 139.36 376.10
  C 151.61 379.40 162.55 380.27 174.01 381.85
  Q 177.29 382.31 181.35 383.91
  Q 186.66 386.02 188.75 385.99
  C 198.23 385.89 207.63 387.70 216.64 387.63
  C 228.67 387.53 241.22 387.76 253.14 386.23
  Q 258.09 385.60 263.04 385.09
  C 275.66 383.77 289.30 378.61 302.00 380.83
  C 307.44 381.78 311.26 380.11 315.98 378.96
  Q 316.48 378.83 316.87 378.47
  Q 318.40 377.03 320.60 377.00
  Q 321.07 377.00 321.48 376.74
  Q 327.46 372.92 334.99 372.76
  C 337.55 372.70 339.66 370.98 341.60 370.36
  C 347.30 368.54 353.01 367.07 358.71 364.76
  Q 366.84 361.47 375.24 357.69
  A 1.22 1.22 0.0 0 1 376.87 359.26
  L 376.05 361.25
  Q 375.80 361.85 375.20 362.11
  Q 373.53 362.82 373.56 364.75
  Q 373.56 365.33 373.08 365.64
  Q 366.24 369.96 359.41 374.15
  C 356.46 375.97 352.70 376.57 349.59 379.04
  Q 349.22 379.34 348.74 379.27
  Q 344.48 378.65 343.30 382.71
  A 0.92 0.90 -3.7 0 1 342.77 383.30
  L 339.80 384.52
  A 0.89 0.87 -45.4 0 1 339.16 384.53
  C 334.51 382.85 331.85 386.44 328.68 385.06
  A 2.90 2.90 0.0 0 0 324.75 386.88
  Q 324.05 389.20 321.36 388.39
  Q 320.87 388.24 320.36 388.32
  Q 316.17 388.94 311.93 388.93
  Q 308.06 388.92 296.22 392.77
  Q 282.17 397.35 267.54 399.24
  Q 264.97 399.57 261.47 399.05
  C 255.14 398.10 248.58 399.15 243.09 399.20
  C 236.13 399.28 230.78 400.55 224.55 400.49
  C 222.64 400.47 221.36 401.15 219.60 401.70
  Q 219.14 401.84 218.89 401.43
  C 217.77 399.67 214.83 400.01 212.97 400.01
  A 0.72 0.71 -80.1 0 0 212.30 400.49
  C 210.98 404.28 201.97 400.83 198.96 401.01
  A 1.22 1.20 62.3 0 1 198.12 400.74
  C 195.01 398.29 191.98 398.54 188.56 397.40
  Q 187.14 396.92 185.65 396.72
  C 182.54 396.30 180.17 393.75 178.06 391.47
  Q 175.17 388.34 172.68 388.80
  Z"
/>
</svg>
