<?xml version="1.0" encoding="UTF-8" standalone="no"?>
<svg xmlns="http://www.w3.org/2000/svg" version="1.2" baseProfile="tiny" viewBox="0.00 0.00 500.00 500.00">
<path fill="#f2b8c4" d="
  M 328.79 106.12
  L 325.70 108.35
  Q 314.08 103.37 300.94 104.68
  Q 290.56 105.71 283.12 112.00
  C 281.38 113.34 280.20 115.13 278.11 116.05
  C 269.48 119.85 264.69 126.41 262.46 135.72
  C 256.98 158.61 268.77 184.73 291.25 193.51
  Q 291.67 193.67 292.12 193.59
  Q 293.58 193.33 294.74 193.53
  Q 309.57 196.08 324.59 195.77
  C 325.97 195.74 327.53 196.17 328.88 196.41
  Q 339.42 199.40 351.25 199.50
  Q 352.77 199.51 353.32 200.63
  C 334.67 210.93 311.42 207.01 293.95 196.22
  C 291.87 194.94 289.67 194.50 287.41 193.82
  A 0.52 0.52 0.0 0 0 286.85 194.63
  C 294.85 205.12 305.76 211.85 318.78 215.91
  C 342.71 223.39 381.18 226.96 389.09 194.55
  Q 394.06 172.86 380.40 154.85
  Q 380.20 154.58 380.06 154.21
  Q 379.88 153.73 379.36 153.74
  L 378.60 153.76
  L 379.39 152.01
  C 392.47 166.56 395.46 186.11 387.68 203.86
  C 386.61 206.31 384.39 208.46 382.98 211.10
  A 0.63 0.62 26.6 0 0 383.27 211.95
  C 401.99 220.63 418.20 234.88 424.13 254.96
  Q 424.85 257.43 426.32 259.48
  Q 441.06 280.14 438.92 305.13
  C 438.01 315.77 434.28 322.15 427.24 329.75
  C 416.84 340.97 407.86 342.03 393.54 341.36
  A 1.62 1.56 -57.9 0 0 392.62 341.59
  Q 386.47 345.27 379.64 347.16
  C 359.71 352.68 338.98 339.34 326.12 325.44
  A 0.84 0.82 -50.6 0 0 324.80 325.58
  Q 321.33 331.33 316.63 336.10
  A 0.52 0.52 0.0 0 0 316.68 336.87
  C 332.22 349.21 346.31 364.31 354.59 381.93
  C 356.07 385.06 357.98 392.45 355.92 396.14
  Q 353.84 399.87 353.45 404.21
  Q 353.40 404.80 353.03 405.25
  L 350.40 408.45
  A 0.71 0.70 -33.0 0 0 350.27 409.05
  C 354.44 424.80 347.84 445.68 338.74 458.22
  C 335.99 462.02 336.77 464.19 340.79 466.32
  Q 347.18 469.69 352.98 469.78
  C 362.09 469.91 372.17 472.18 372.61 482.89
  Q 372.63 483.40 372.29 483.79
  C 364.67 492.46 354.80 493.55 344.02 491.77
  Q 335.71 490.39 334.39 490.34
  C 318.85 489.80 306.77 499.38 291.61 499.68
  C 282.77 499.86 270.80 495.53 262.93 493.84
  C 252.34 491.58 242.05 494.03 231.51 496.78
  C 213.35 501.52 199.24 492.51 181.99 490.54
  C 170.57 489.23 159.14 493.99 147.44 494.93
  C 141.88 495.38 137.30 494.21 131.49 492.03
  C 127.74 490.62 123.79 488.82 119.80 488.29
  C 113.29 487.42 107.04 488.20 100.55 488.84
  C 94.43 489.44 86.76 488.84 85.03 481.69
  C 82.67 472.01 99.40 469.24 105.44 469.33
  C 113.92 469.46 118.43 469.14 124.86 463.37
  C 132.51 456.51 142.19 450.53 152.96 453.46
  A 0.50 0.50 0.0 0 0 153.53 452.74
  C 142.95 433.19 146.45 413.73 157.07 395.07
  Q 169.75 372.78 186.81 356.56
  Q 188.39 355.06 188.63 353.78
  Q 190.05 346.26 193.18 339.28
  A 0.71 0.71 0.0 0 0 193.07 338.53
  L 191.05 336.16
  A 0.69 0.68 36.9 0 0 189.91 336.32
  C 177.34 363.65 148.87 386.94 117.29 375.39
  C 113.42 373.97 109.46 374.55 105.49 374.64
  Q 93.52 374.91 83.02 369.25
  C 57.14 355.29 56.06 328.33 68.86 304.69
  Q 69.10 304.25 68.95 303.77
  Q 64.82 290.04 70.85 278.07
  Q 80.87 258.18 98.28 244.53
  A 0.65 0.64 -48.9 0 0 98.21 243.46
  C 70.61 227.32 73.37 196.19 92.48 175.01
  Q 92.52 176.57 92.98 176.72
  C 89.25 179.85 88.19 183.51 85.73 187.31
  Q 82.96 191.59 81.33 198.16
  Q 76.02 219.59 88.46 233.66
  C 98.35 244.84 114.28 248.31 128.93 246.84
  A 0.34 0.34 0.0 0 0 129.00 246.18
  C 117.45 242.50 107.73 235.61 102.72 223.75
  Q 102.60 222.50 103.06 221.47
  Q 103.28 220.96 103.77 221.22
  C 108.87 223.86 111.74 228.00 118.46 228.49
  C 130.38 233.58 140.33 238.07 153.65 238.26
  C 158.18 238.32 165.49 236.02 169.50 234.49
  C 186.03 228.16 198.39 215.75 206.46 200.18
  C 211.85 189.79 214.54 176.64 210.61 165.33
  C 209.35 161.71 206.71 158.26 204.84 154.60
  C 201.00 145.52 191.88 137.50 182.63 134.44
  C 171.66 130.83 156.09 129.22 145.23 134.52
  L 142.28 132.89
  Q 148.84 129.65 155.99 129.28
  C 175.20 128.28 197.29 133.98 206.24 152.59
  Q 207.43 155.07 209.41 158.09
  C 217.71 170.75 214.84 188.10 208.52 200.40
  C 203.70 209.65 195.81 221.21 186.75 227.13
  A 0.72 0.72 0.0 0 0 186.60 228.21
  Q 190.77 232.96 193.02 238.86
  Q 193.23 239.42 193.73 239.10
  Q 206.66 230.81 212.94 216.80
  A 0.58 0.58 0.0 0 1 214.02 216.84
  C 215.68 221.39 221.71 230.59 227.53 228.94
  C 232.53 227.52 233.27 222.47 234.10 217.67
  Q 234.22 216.96 234.61 217.56
  C 238.85 224.10 253.06 240.75 262.23 236.38
  Q 262.71 236.16 262.93 235.68
  C 267.08 226.90 266.18 215.82 264.49 206.48
  Q 264.12 204.47 265.60 205.89
  Q 280.20 219.92 299.52 225.95
  Q 300.13 226.14 300.22 225.50
  Q 301.19 218.67 303.82 212.29
  A 0.69 0.68 -65.7 0 0 303.50 211.43
  Q 291.66 205.33 284.82 194.27
  Q 283.75 192.56 282.06 191.44
  Q 276.85 188.00 272.80 183.35
  C 260.47 168.57 254.81 146.09 263.19 127.73
  Q 266.33 124.49 268.23 120.16
  C 272.04 117.33 276.96 115.47 280.03 112.23
  C 291.77 99.85 312.01 101.18 326.53 106.39
  A 0.61 0.61 0.0 0 0 327.32 105.64
  C 318.23 75.10 295.30 44.92 269.25 26.74
  C 250.79 13.85 227.99 6.51 205.40 3.47
  C 183.63 0.53 159.37 4.03 140.79 16.38
  C 136.17 19.46 133.14 22.76 132.03 27.98
  A 1.13 1.13 0.0 0 0 133.01 29.34
  Q 137.03 29.80 141.20 28.74
  C 151.34 27.67 163.33 32.28 167.54 42.08
  C 170.24 45.82 170.71 48.65 171.62 53.41
  C 173.92 65.48 168.09 73.72 159.98 81.99
  C 147.04 95.19 135.57 109.56 133.62 128.38
  L 131.97 128.38
  Q 133.36 116.57 135.90 111.41
  Q 142.75 97.50 153.71 86.45
  C 158.43 81.70 163.72 77.04 166.54 71.13
  C 169.98 63.89 171.42 58.16 169.35 49.52
  C 168.73 46.97 165.92 41.02 164.05 39.01
  Q 155.09 29.37 141.28 30.68
  C 137.20 31.06 128.62 32.78 130.17 27.14
  C 134.50 11.37 165.17 2.76 179.42 1.49
  C 184.35 1.06 189.00 0.12 193.87 0.55
  C 213.51 2.31 231.57 6.44 248.76 13.87
  C 282.33 28.38 307.10 56.63 322.75 89.22
  Q 326.63 97.30 328.79 106.12
  Z
  M 208.58 293.23
  L 203.15 291.11
  A 0.76 0.75 13.2 0 0 202.12 291.74
  L 201.53 298.29
  A 0.41 0.41 0.0 0 0 202.13 298.69
  Q 202.60 298.44 202.78 297.91
  Q 202.96 297.40 203.43 297.12
  L 208.65 293.95
  A 0.41 0.40 39.9 0 0 208.58 293.23
  Z"
/>
<g stroke-width="2.00" fill="none" stroke-linecap="butt">
<path stroke="#faedd9" vector-effect="non-scaling-stroke" d="
  M 297.17 227.66
  L 285.86 231.82"
/>
<path stroke="#e19894" vector-effect="non-scaling-stroke" d="
  M 285.86 231.82
  C 278.83 224.03 272.53 229.90 271.32 237.98"
/>
<path stroke="#faedd9" vector-effect="non-scaling-stroke" d="
  M 271.32 237.98
  Q 271.49 235.70 269.14 236.98
  C 267.25 238.00 264.61 238.05 262.43 238.72"
/>
<path stroke="#e2a295" vector-effect="non-scaling-stroke" d="
  M 256.17 283.21
  C 255.42 280.71 252.78 281.22 252.20 283.49"
/>
<path stroke="#e2a295" vector-effect="non-scaling-stroke" d="
  M 224.51 275.90
  C 229.94 268.42 227.39 257.59 224.38 249.78"
/>
<path stroke="#e2a295" vector-effect="non-scaling-stroke" d="
  M 271.32 237.98
  C 270.23 245.93 270.83 257.29 275.68 264.08
  C 280.83 271.29 292.41 268.12 295.19 261.33
  C 298.99 252.03 292.43 238.97 285.86 231.82"
/>
<path stroke="#faedd9" vector-effect="non-scaling-stroke" d="
  M 258.50 239.76
  Q 254.08 241.42 248.37 242.69
  C 246.60 243.09 245.18 244.16 243.27 244.52
  C 237.53 245.62 232.35 247.33 226.45 247.65
  Q 225.94 247.68 225.57 248.03
  Q 224.79 248.76 224.38 249.78"
/>
<path stroke="#e19894" vector-effect="non-scaling-stroke" d="
  M 224.38 249.78
  C 210.30 218.22 195.29 268.26 207.93 276.03
  Q 216.82 281.50 224.51 275.90"
/>
<path stroke="#faedd9" vector-effect="non-scaling-stroke" d="
  M 224.51 275.90
  Q 235.58 280.53 249.49 283.55
  Q 251.16 283.91 252.20 283.49"
/>
<path stroke="#e19894" vector-effect="non-scaling-stroke" d="
  M 252.20 283.49
  Q 252.12 284.80 253.75 284.75
  Q 255.04 284.71 256.17 283.21"
/>
<path stroke="#faedd9" vector-effect="non-scaling-stroke" d="
  M 256.17 283.21
  L 256.50 283.89
  Q 256.71 284.34 257.19 284.41
  Q 270.93 286.57 282.32 285.07
  Q 287.65 284.36 290.03 284.60"
/>
<path stroke="#faedd9" vector-effect="non-scaling-stroke" d="
  M 322.22 219.03
  Q 321.19 227.49 324.34 235.60
  C 328.62 246.60 333.11 258.86 338.95 268.61
  C 345.16 278.99 355.39 295.81 368.44 297.88
  C 375.20 298.96 377.16 297.85 383.19 295.04
  C 392.09 290.90 399.83 284.47 403.47 275.05
  A 0.54 0.53 -72.3 0 0 403.11 274.34
  L 394.73 272.10"
/>
<path stroke="#f8d8d7" vector-effect="non-scaling-stroke" d="
  M 394.73 272.10
  L 395.13 271.73
  Q 395.86 271.06 395.03 270.52
  C 387.84 265.86 382.45 261.01 377.16 254.01
  C 374.14 250.02 370.47 246.06 368.62 241.30"
/>
<path stroke="#faedd9" vector-effect="non-scaling-stroke" d="
  M 368.62 241.30
  C 371.13 243.56 372.92 246.34 375.39 248.31
  C 383.95 255.16 391.28 257.82 400.20 261.67
  C 410.26 266.01 417.06 262.22 421.98 253.21"
/>
<path stroke="#f8e2d8" vector-effect="non-scaling-stroke" d="
  M 344.92 223.31
  C 351.64 245.66 372.48 265.62 394.73 272.10"
/>
<path stroke="#f8e2d8" vector-effect="non-scaling-stroke" d="
  M 368.62 241.30
  Q 363.62 232.32 359.91 222.12"
/>
<path stroke="#faedd9" vector-effect="non-scaling-stroke" d="
  M 197.10 260.23
  Q 196.29 264.33 195.32 268.31
  C 194.72 270.73 195.80 274.13 195.60 276.56
  C 195.13 282.40 192.18 286.33 190.51 291.15
  Q 187.32 300.35 183.00 309.11
  Q 182.74 309.63 182.20 309.42
  L 180.36 308.70"
/>
<path stroke="#faedd9" vector-effect="non-scaling-stroke" d="
  M 182.97 281.19
  Q 184.63 278.14 184.02 274.81
  C 182.47 266.34 181.95 257.81 180.37 249.28
  Q 180.12 247.89 179.14 247.99
  A 0.68 0.68 0.0 0 0 178.55 248.54
  Q 175.74 263.49 172.88 278.41
  C 171.60 285.03 168.23 293.54 165.47 299.23
  C 154.62 321.69 134.31 338.48 109.41 343.15
  C 101.53 344.63 88.73 345.02 81.36 342.41
  Q 70.71 338.64 62.27 330.50"
/>
<path stroke="#faedd9" vector-effect="non-scaling-stroke" d="
  M 78.43 307.02
  Q 93.23 303.78 105.52 294.55"
/>
<path stroke="#f8e2d8" vector-effect="non-scaling-stroke" d="
  M 105.52 294.55
  Q 110.61 292.88 114.71 289.70
  Q 138.38 271.32 151.65 243.75"
/>
<path stroke="#f8d8d7" vector-effect="non-scaling-stroke" d="
  M 105.52 294.55
  Q 104.30 294.38 105.39 292.03
  Q 105.82 291.09 106.77 290.09
  Q 114.31 282.05 121.24 272.43"
/>
<path stroke="#f8e2d8" vector-effect="non-scaling-stroke" d="
  M 121.24 272.43
  Q 128.45 263.39 132.44 251.23
  Q 133.30 248.60 131.77 248.70"
/>
<path stroke="#faedd9" vector-effect="non-scaling-stroke" d="
  M 121.24 272.43
  Q 111.81 280.38 101.54 283.37
  C 101.16 283.48 100.87 283.91 100.37 284.06
  C 94.87 285.74 81.97 288.18 77.31 283.89
  Q 74.58 281.37 73.76 276.29"
/>
<path stroke="#faedd9" vector-effect="non-scaling-stroke" d="
  M 304.08 290.01
  L 303.98 289.52
  Q 303.90 289.17 303.59 288.98
  L 295.82 284.39"
/>
<path stroke="#f8e2d8" vector-effect="non-scaling-stroke" d="
  M 301.22 294.58
  C 289.59 310.19 275.91 320.90 262.00 333.37
  A 0.75 0.75 0.0 0 0 262.68 334.66
  Q 286.43 328.72 304.91 311.99"
/>
<path stroke="#faedd9" vector-effect="non-scaling-stroke" d="
  M 304.91 311.99
  C 308.87 316.80 302.92 326.57 299.73 330.24
  Q 283.10 349.34 257.50 350.31
  Q 256.45 350.35 255.31 351.37"
/>
<path stroke="#faedd9" vector-effect="non-scaling-stroke" d="
  M 236.73 315.62
  Q 245.69 307.91 255.53 302.34
  C 259.30 300.20 262.52 297.56 265.89 294.99"
/>
<path stroke="#f8d8d7" vector-effect="non-scaling-stroke" d="
  M 306.74 309.60
  Q 305.47 310.66 304.91 311.99"
/>
<path stroke="#faedd9" vector-effect="non-scaling-stroke" d="
  M 240.60 361.74
  C 236.20 362.71 231.93 364.39 227.75 364.58
  Q 217.85 365.04 207.71 360.82
  C 200.11 357.65 195.22 353.18 196.19 344.40"
/>
<path stroke="#faedd9" vector-effect="non-scaling-stroke" d="
  M 307.94 378.56
  Q 294.40 378.33 284.26 377.16
  Q 275.14 376.11 264.41 373.22"
/>
<path stroke="#f8d8d7" vector-effect="non-scaling-stroke" d="
  M 264.41 373.22
  L 276.96 360.27
  A 0.47 0.46 -67.3 0 0 276.64 359.48
  C 272.44 359.41 260.63 367.84 257.12 370.54"
/>
<path stroke="#faedd9" vector-effect="non-scaling-stroke" d="
  M 257.12 370.54
  L 244.73 364.68
  A 1.08 1.07 -87.4 0 1 244.17 364.06
  Q 243.72 362.82 242.20 362.92"
/>
<path stroke="#f8e2d8" vector-effect="non-scaling-stroke" d="
  M 257.12 370.54
  Q 236.79 386.31 223.06 400.81
  Q 210.71 413.87 207.05 432.39"
/>
<path stroke="#faedd9" vector-effect="non-scaling-stroke" d="
  M 207.05 432.39
  Q 202.29 428.84 198.58 424.05
  C 188.52 411.07 181.67 398.22 181.54 381.38
  C 181.50 376.86 180.88 371.87 182.58 366.75
  Q 182.73 366.29 182.49 365.87
  Q 182.01 365.04 181.23 364.54"
/>
<path stroke="#f8e2d8" vector-effect="non-scaling-stroke" d="
  M 264.41 373.22
  C 244.03 394.11 226.91 414.56 219.04 441.81"
/>
<path stroke="#f8d8d7" vector-effect="non-scaling-stroke" d="
  M 219.04 441.81
  Q 218.89 441.92 218.74 442.02"
/>
<path stroke="#f4c3cd" vector-effect="non-scaling-stroke" d="
  M 218.74 442.02
  L 208.52 433.76
  Q 208.21 433.50 207.81 433.51
  L 207.22 433.51"
/>
<path stroke="#f8d8d7" vector-effect="non-scaling-stroke" d="
  M 207.22 433.51
  Q 207.41 432.83 207.05 432.39"
/>
<path stroke="#f8e2d8" vector-effect="non-scaling-stroke" d="
  M 310.04 460.22
  Q 320.10 454.76 325.69 449.93
  C 335.63 441.32 345.17 425.08 338.69 411.94
  C 337.65 409.82 335.10 407.94 333.32 410.55
  C 331.00 413.96 329.91 420.43 328.40 424.04
  C 322.05 439.14 310.70 449.56 297.03 459.95"
/>
<path stroke="#f6d8cf" vector-effect="non-scaling-stroke" d="
  M 297.03 459.95
  Q 296.27 460.79 294.56 461.35"
/>
<path stroke="#f6cece" vector-effect="non-scaling-stroke" d="
  M 207.22 433.51
  C 205.71 444.24 207.67 455.68 215.79 463.44
  Q 216.55 464.16 217.45 463.63
  Q 217.98 463.31 217.82 461.99
  Q 216.55 451.70 218.74 442.02"
/>
<path stroke="#faedd9" vector-effect="non-scaling-stroke" d="
  M 219.04 441.81
  Q 233.42 450.98 249.78 455.88
  C 261.59 459.42 277.94 462.39 290.14 460.83
  C 291.72 460.62 292.94 461.25 294.56 461.35"
/>
<path stroke="#f6cece" vector-effect="non-scaling-stroke" d="
  M 294.56 461.35
  L 284.57 467.47
  A 0.72 0.72 0.0 0 0 284.86 468.80
  C 291.97 469.64 303.06 464.20 308.95 460.40"
/>
<path stroke="#f8d8d7" vector-effect="non-scaling-stroke" d="
  M 308.95 460.40
  Q 309.70 460.40 310.04 460.22"
/>
<path stroke="#faedd9" vector-effect="non-scaling-stroke" d="
  M 310.04 460.22
  Q 314.43 461.09 318.56 460.07
  C 323.98 458.73 329.42 457.63 334.81 456.06
  A 1.16 1.14 45.4 0 1 335.49 456.07
  L 337.75 456.86"
/>
<path stroke="#faedd9" vector-effect="non-scaling-stroke" d="
  M 342.06 468.56
  C 332.16 471.91 322.76 472.38 312.57 474.05
  C 303.83 475.48 296.42 474.26 288.33 475.77
  Q 284.21 476.54 281.08 476.50
  C 267.24 476.32 253.37 476.88 239.58 476.75
  C 236.90 476.72 235.00 475.32 231.74 475.52
  C 220.77 476.20 208.43 476.82 199.46 482.98
  Q 195.85 485.46 191.76 491.01"
/>
<path stroke="#f4c3cd" vector-effect="non-scaling-stroke" d="
  M 308.95 460.40
  Q 309.04 460.17 309.00 459.98
  Q 308.90 459.53 308.44 459.64
  Q 302.80 461.09 297.03 459.95"
/>
</g>
<path fill="#faf7da" d="
  M 268.23 120.16
  Q 274.89 109.31 277.26 97.50
  C 282.43 71.77 260.82 47.24 238.78 37.49
  Q 232.10 34.54 225.96 34.55
  Q 220.89 32.91 215.25 33.67
  A 0.45 0.44 5.5 0 0 214.90 33.95
  Q 214.65 34.60 215.61 35.10
  C 226.83 40.83 233.25 50.05 237.73 61.87
  C 238.61 64.20 238.80 67.18 239.93 69.81
  C 244.69 80.86 246.07 93.62 245.61 105.57
  C 245.55 107.04 244.74 108.60 244.70 110.25
  C 244.60 114.15 243.22 117.47 242.50 121.25
  Q 241.77 125.13 240.53 128.69
  Q 239.14 132.66 238.07 136.85
  Q 230.76 145.96 221.93 153.82
  A 0.99 0.96 82.8 0 0 221.72 154.10
  L 221.06 155.36
  A 0.73 0.73 0.0 0 0 221.96 156.39
  C 235.95 151.44 248.04 143.63 258.02 132.70
  Q 260.39 130.11 263.19 127.73
  C 254.81 146.09 260.47 168.57 272.80 183.35
  Q 266.10 188.23 258.16 191.22
  A 2.17 2.14 -78.2 0 0 257.39 191.73
  C 255.57 193.61 253.44 193.32 251.40 194.14
  Q 250.09 194.66 248.70 194.98
  Q 248.25 195.09 247.89 195.38
  Q 245.85 197.05 243.56 197.37
  C 234.95 198.58 225.69 200.56 217.02 200.54
  Q 212.88 200.52 208.52 200.40
  C 214.84 188.10 217.71 170.75 209.41 158.09
  Q 207.43 155.07 206.24 152.59
  C 197.29 133.98 175.20 128.28 155.99 129.28
  Q 148.84 129.65 142.28 132.89
  L 133.62 128.38
  C 135.57 109.56 147.04 95.19 159.98 81.99
  C 168.09 73.72 173.92 65.48 171.62 53.41
  C 170.71 48.65 170.24 45.82 167.54 42.08
  Q 168.90 39.55 174.43 41.66
  C 187.36 46.59 194.13 58.39 195.65 72.12
  C 196.08 76.03 195.65 80.70 195.41 84.88
  C 194.90 93.77 192.87 101.59 189.19 109.50
  A 1.06 1.06 0.0 0 0 189.92 110.98
  Q 190.28 111.07 190.99 110.90
  C 195.22 109.88 204.03 98.39 206.21 94.88
  C 212.87 94.11 215.64 85.12 215.69 79.55
  C 215.94 49.17 189.05 27.12 161.24 21.66
  Q 158.87 21.20 151.64 22.10
  Q 151.18 22.16 151.22 22.63
  L 151.28 23.35
  Q 148.88 25.43 144.57 25.99
  Q 144.07 26.06 143.69 26.41
  L 141.20 28.74
  Q 137.03 29.80 133.01 29.34
  A 1.13 1.13 0.0 0 1 132.03 27.98
  C 133.14 22.76 136.17 19.46 140.79 16.38
  C 159.37 4.03 183.63 0.53 205.40 3.47
  C 227.99 6.51 250.79 13.85 269.25 26.74
  C 295.30 44.92 318.23 75.10 327.32 105.64
  A 0.61 0.61 0.0 0 1 326.53 106.39
  C 312.01 101.18 291.77 99.85 280.03 112.23
  C 276.96 115.47 272.04 117.33 268.23 120.16
  Z"
/>
<path fill="#f6cdd6" d="
  M 206.21 94.88
  Q 204.51 86.76 203.18 78.61
  C 199.35 55.25 190.25 37.22 168.34 27.66
  C 163.14 25.39 157.14 24.91 151.28 23.35
  L 151.22 22.63
  Q 151.18 22.16 151.64 22.10
  Q 158.87 21.20 161.24 21.66
  C 189.05 27.12 215.94 49.17 215.69 79.55
  C 215.64 85.12 212.87 94.11 206.21 94.88
  Z"
/>
<path fill="#f9e3d7" d="
  M 151.28 23.35
  C 157.14 24.91 163.14 25.39 168.34 27.66
  C 190.25 37.22 199.35 55.25 203.18 78.61
  Q 204.51 86.76 206.21 94.88
  C 204.03 98.39 195.22 109.88 190.99 110.90
  Q 190.28 111.07 189.92 110.98
  A 1.06 1.06 0.0 0 1 189.19 109.50
  C 192.87 101.59 194.90 93.77 195.41 84.88
  C 195.65 80.70 196.08 76.03 195.65 72.12
  C 194.13 58.39 187.36 46.59 174.43 41.66
  Q 168.90 39.55 167.54 42.08
  C 163.33 32.28 151.34 27.67 141.20 28.74
  L 143.69 26.41
  Q 144.07 26.06 144.57 25.99
  Q 148.88 25.43 151.28 23.35
  Z"
/>
<path fill="#f9e3d7" d="
  M 225.96 34.55
  L 225.63 34.77
  A 0.78 0.77 40.9 0 0 225.73 36.13
  C 233.18 39.49 239.56 43.57 244.88 49.95
  C 268.86 78.65 259.54 110.69 238.07 136.85
  Q 239.14 132.66 240.53 128.69
  Q 241.77 125.13 242.50 121.25
  C 243.22 117.47 244.60 114.15 244.70 110.25
  C 244.74 108.60 245.55 107.04 245.61 105.57
  C 246.07 93.62 244.69 80.86 239.93 69.81
  C 238.80 67.18 238.61 64.20 237.73 61.87
  C 233.25 50.05 226.83 40.83 215.61 35.10
  Q 214.65 34.60 214.90 33.95
  A 0.45 0.44 5.5 0 1 215.25 33.67
  Q 220.89 32.91 225.96 34.55
  Z"
/>
<path fill="#f6cdd6" d="
  M 225.96 34.55
  Q 232.10 34.54 238.78 37.49
  C 260.82 47.24 282.43 71.77 277.26 97.50
  Q 274.89 109.31 268.23 120.16
  Q 266.33 124.49 263.19 127.73
  Q 260.39 130.11 258.02 132.70
  C 248.04 143.63 235.95 151.44 221.96 156.39
  A 0.73 0.73 0.0 0 1 221.06 155.36
  L 221.72 154.10
  A 0.99 0.96 82.8 0 1 221.93 153.82
  Q 230.76 145.96 238.07 136.85
  C 259.54 110.69 268.86 78.65 244.88 49.95
  C 239.56 43.57 233.18 39.49 225.73 36.13
  A 0.78 0.77 40.9 0 1 225.63 34.77
  L 225.96 34.55
  Z"
/>
<path fill="#8e2d2c" d="
  M 379.39 152.01
  L 378.60 153.76
  Q 374.57 161.86 366.17 164.33
  C 356.51 167.16 342.14 160.62 334.25 155.17
  Q 326.21 149.00 320.57 140.46
  C 313.02 129.13 312.49 116.42 325.70 108.35
  L 328.79 106.12
  Q 344.33 99.52 348.49 98.21
  C 365.47 92.84 380.05 100.16 381.73 118.79
  Q 383.34 136.65 379.39 152.01
  Z"
/>
<g stroke-width="2.00" fill="none" stroke-linecap="butt">
<path stroke="#e4716f" vector-effect="non-scaling-stroke" d="
  M 379.84 137.72
  Q 376.93 138.77 373.60 135.22
  C 370.92 132.37 368.05 131.58 364.40 131.11
  Q 363.87 131.04 363.54 130.62
  L 357.48 123.21
  Q 357.11 122.75 357.24 122.18
  Q 357.46 121.28 356.84 120.70
  A 1.35 1.32 18.5 0 1 356.43 119.90
  C 355.54 113.54 357.89 109.32 354.28 103.16
  A 1.15 1.15 0.0 0 0 353.45 102.60
  Q 350.34 102.11 348.87 100.22"
/>
<path stroke="#d55658" vector-effect="non-scaling-stroke" d="
  M 341.74 157.42
  Q 329.96 140.91 327.28 121.56
  C 326.73 117.55 327.43 113.51 327.64 109.31"
/>
</g>
<path fill="#e7837f" d="
  M 379.84 137.72
  Q 376.93 138.77 373.60 135.22
  C 370.92 132.37 368.05 131.58 364.40 131.11
  Q 363.87 131.04 363.54 130.62
  L 357.48 123.21
  Q 357.11 122.75 357.24 122.18
  Q 357.46 121.28 356.84 120.70
  A 1.35 1.32 18.5 0 1 356.43 119.90
  C 355.54 113.54 357.89 109.32 354.28 103.16
  A 1.15 1.15 0.0 0 0 353.45 102.60
  Q 350.34 102.11 348.87 100.22
  C 358.74 97.94 366.97 97.25 374.25 104.66
  C 381.60 112.15 381.61 127.82 379.84 137.72
  Z"
/>
<path fill="#e15f5f" d="
  M 348.87 100.22
  Q 350.34 102.11 353.45 102.60
  A 1.15 1.15 0.0 0 1 354.28 103.16
  C 357.89 109.32 355.54 113.54 356.43 119.90
  A 1.35 1.32 18.5 0 0 356.84 120.70
  Q 357.46 121.28 357.24 122.18
  Q 357.11 122.75 357.48 123.21
  L 363.54 130.62
  Q 363.87 131.04 364.40 131.11
  C 368.05 131.58 370.92 132.37 373.60 135.22
  Q 376.93 138.77 379.84 137.72
  Q 379.81 146.78 376.44 153.45
  C 369.27 167.65 353.01 163.87 341.74 157.42
  Q 329.96 140.91 327.28 121.56
  C 326.73 117.55 327.43 113.51 327.64 109.31
  Q 337.70 103.29 348.87 100.22
  Z"
/>
<path fill="#faf7da" d="
  M 325.70 108.35
  C 312.49 116.42 313.02 129.13 320.57 140.46
  C 314.34 144.42 302.73 142.60 295.55 141.16
  Q 284.43 132.18 282.07 115.37
  L 283.12 112.00
  Q 290.56 105.71 300.94 104.68
  Q 314.08 103.37 325.70 108.35
  Z"
/>
<path fill="#c94c50" d="
  M 327.64 109.31
  C 327.43 113.51 326.73 117.55 327.28 121.56
  Q 329.96 140.91 341.74 157.42
  Q 324.79 149.19 318.44 132.55
  C 314.43 122.03 318.35 114.64 327.64 109.31
  Z"
/>
<path fill="#f9e3d7" d="
  M 283.12 112.00
  L 282.07 115.37
  Q 277.11 117.81 275.98 126.81
  Q 271.64 140.26 277.50 152.95
  Q 278.54 155.20 280.99 158.73
  C 285.09 164.64 288.83 171.07 294.65 175.35
  C 303.45 181.84 311.19 187.68 321.23 192.24
  C 322.82 192.97 324.51 192.94 326.45 193.98
  Q 327.94 194.78 329.83 195.05
  L 328.88 196.41
  C 327.53 196.17 325.97 195.74 324.59 195.77
  Q 309.57 196.08 294.74 193.53
  Q 293.58 193.33 292.12 193.59
  Q 291.67 193.67 291.25 193.51
  C 268.77 184.73 256.98 158.61 262.46 135.72
  C 264.69 126.41 269.48 119.85 278.11 116.05
  C 280.20 115.13 281.38 113.34 283.12 112.00
  Z"
/>
<path fill="#7c4a23" d="
  M 364.4623 120.6936
  A 3.69 1.61 118.8 0 1 364.8291 116.6844
  A 3.69 1.61 118.8 0 1 368.0177 114.2264
  A 3.69 1.61 118.8 0 1 367.6509 118.2356
  A 3.69 1.61 118.8 0 1 364.4623 120.6936
  Z"
/>
<path fill="#f6cdd6" d="
  M 282.07 115.37
  Q 284.43 132.18 295.55 141.16
  C 303.19 148.48 311.65 152.77 322.02 156.93
  Q 301.45 157.74 286.56 146.19
  Q 278.14 139.66 275.98 126.81
  Q 277.11 117.81 282.07 115.37
  Z"
/>
<path fill="#8e2d2c" d="
  M 131.97 128.38
  L 133.62 128.38
  L 142.28 132.89
  L 145.23 134.52
  C 155.81 142.37 165.86 149.79 159.65 164.00
  C 154.51 175.78 144.97 184.36 133.70 190.18
  L 126.04 193.38
  C 114.40 197.82 101.00 197.56 95.77 184.09
  L 92.98 176.72
  Q 92.52 176.57 92.48 175.01
  Q 91.17 169.57 91.15 163.67
  C 91.10 153.01 92.96 141.32 98.59 132.35
  C 105.19 121.84 122.23 124.65 131.97 128.38
  Z"
/>
<g stroke-width="2.00" fill="none" stroke-linecap="butt">
<path stroke="#e4716f" vector-effect="non-scaling-stroke" d="
  M 140.55 133.77
  Q 139.94 135.86 137.77 136.08
  Q 137.26 136.13 136.84 136.40
  C 132.92 138.91 127.68 142.64 122.31 142.29
  C 114.38 141.77 109.85 142.35 104.57 135.83
  A 0.93 0.92 -5.3 0 0 104.28 135.59
  L 99.80 133.24"
/>
<path stroke="#d55658" vector-effect="non-scaling-stroke" d="
  M 157.13 165.58
  C 147.20 170.84 139.33 177.32 127.48 175.38
  Q 121.78 174.45 119.15 173.09
  C 115.21 171.04 107.88 163.59 105.99 158.12
  C 104.86 154.86 103.42 151.75 102.10 148.58
  C 101.28 146.60 99.31 144.66 99.06 141.76
  Q 99.03 141.30 98.68 141.00
  L 96.88 139.42"
/>
</g>
<path fill="#e7837f" d="
  M 140.55 133.77
  Q 139.94 135.86 137.77 136.08
  Q 137.26 136.13 136.84 136.40
  C 132.92 138.91 127.68 142.64 122.31 142.29
  C 114.38 141.77 109.85 142.35 104.57 135.83
  A 0.93 0.92 -5.3 0 0 104.28 135.59
  L 99.80 133.24
  C 107.70 120.64 130.50 128.63 140.55 133.77
  Z"
/>
<path fill="#faf7da" d="
  M 275.98 126.81
  Q 278.14 139.66 286.56 146.19
  Q 301.45 157.74 322.02 156.93
  L 332.42 157.03
  Q 333.01 157.04 333.22 156.50
  Q 333.62 155.47 334.25 155.17
  C 342.14 160.62 356.51 167.16 366.17 164.33
  Q 374.57 161.86 378.60 153.76
  L 379.36 153.74
  Q 379.88 153.73 380.06 154.21
  Q 380.20 154.58 380.40 154.85
  Q 394.06 172.86 389.09 194.55
  Q 386.20 195.30 383.51 196.70
  Q 380.24 198.40 378.15 198.86
  Q 367.88 201.14 357.35 200.62
  Q 356.87 200.60 356.53 200.28
  Q 355.95 199.74 356.01 199.30
  C 362.32 194.69 369.46 185.21 367.50 176.82
  A 0.95 0.94 52.7 0 0 365.75 176.58
  C 358.58 189.70 342.97 194.18 329.83 195.05
  Q 327.94 194.78 326.45 193.98
  C 324.51 192.94 322.82 192.97 321.23 192.24
  C 311.19 187.68 303.45 181.84 294.65 175.35
  C 288.83 171.07 285.09 164.64 280.99 158.73
  Q 278.54 155.20 277.50 152.95
  Q 271.64 140.26 275.98 126.81
  Z"
/>
<path fill="#faf7da" d="
  M 204.84 154.60
  L 203.45 158.46
  Q 197.36 176.10 180.76 185.54
  C 173.57 187.96 166.36 191.04 159.19 192.38
  C 150.00 194.09 143.06 193.16 134.74 192.33
  Q 134.24 192.27 134.02 191.83
  Q 133.67 191.14 133.70 190.18
  C 144.97 184.36 154.51 175.78 159.65 164.00
  C 165.86 149.79 155.81 142.37 145.23 134.52
  C 156.09 129.22 171.66 130.83 182.63 134.44
  C 191.88 137.50 201.00 145.52 204.84 154.60
  Z"
/>
<path fill="#7c4a23" d="
  M 338.99 137.74
  A 0.07 0.07 0.0 0 1 338.90 137.75
  L 338.89 137.74
  A 2.84 2.50 -51.9 0 1 338.67 133.97
  L 339.70 132.66
  A 2.84 2.50 -51.9 0 1 343.42 131.97
  L 343.42 131.97
  A 0.07 0.07 0.0 0 1 343.44 132.07
  L 338.99 137.74
  Z"
/>
<path fill="#e15f5f" d="
  M 99.80 133.24
  L 104.28 135.59
  A 0.93 0.92 -5.3 0 1 104.57 135.83
  C 109.85 142.35 114.38 141.77 122.31 142.29
  C 127.68 142.64 132.92 138.91 136.84 136.40
  Q 137.26 136.13 137.77 136.08
  Q 139.94 135.86 140.55 133.77
  Q 149.63 138.87 156.35 146.76
  C 161.65 152.98 159.81 158.65 157.13 165.58
  C 147.20 170.84 139.33 177.32 127.48 175.38
  Q 121.78 174.45 119.15 173.09
  C 115.21 171.04 107.88 163.59 105.99 158.12
  C 104.86 154.86 103.42 151.75 102.10 148.58
  C 101.28 146.60 99.31 144.66 99.06 141.76
  Q 99.03 141.30 98.68 141.00
  L 96.88 139.42
  L 99.80 133.24
  Z"
/>
<path fill="#c94c50" d="
  M 96.88 139.42
  L 98.68 141.00
  Q 99.03 141.30 99.06 141.76
  C 99.31 144.66 101.28 146.60 102.10 148.58
  C 103.42 151.75 104.86 154.86 105.99 158.12
  C 107.88 163.59 115.21 171.04 119.15 173.09
  Q 121.78 174.45 127.48 175.38
  C 139.33 177.32 147.20 170.84 157.13 165.58
  Q 146.82 183.71 127.52 191.13
  C 115.59 195.72 102.69 196.92 96.96 182.59
  Q 88.43 161.28 96.88 139.42
  Z"
/>
<path fill="#f9e3d7" d="
  M 320.57 140.46
  Q 326.21 149.00 334.25 155.17
  Q 333.62 155.47 333.22 156.50
  Q 333.01 157.04 332.42 157.03
  L 322.02 156.93
  C 311.65 152.77 303.19 148.48 295.55 141.16
  C 302.73 142.60 314.34 144.42 320.57 140.46
  Z"
/>
<path fill="#7c4a23" d="
  M 366.9457 149.9334
  A 3.65 1.37 115.9 0 1 367.3076 146.0516
  A 3.65 1.37 115.9 0 1 370.1343 143.3666
  A 3.65 1.37 115.9 0 1 369.7724 147.2484
  A 3.65 1.37 115.9 0 1 366.9457 149.9334
  Z"
/>
<path fill="#7c4a23" d="
  M 112.7998 151.4043
  A 3.98 1.63 66.3 0 1 109.7075 148.4152
  A 3.98 1.63 66.3 0 1 109.6002 144.1157
  A 3.98 1.63 66.3 0 1 112.6925 147.1048
  A 3.98 1.63 66.3 0 1 112.7998 151.4043
  Z"
/>
<path fill="#f9e3d7" d="
  M 204.84 154.60
  C 206.71 158.26 209.35 161.71 210.61 165.33
  C 214.54 176.64 211.85 189.79 206.46 200.18
  C 198.39 215.75 186.03 228.16 169.50 234.49
  C 165.49 236.02 158.18 238.32 153.65 238.26
  C 140.33 238.07 130.38 233.58 118.46 228.49
  Q 118.58 227.82 118.43 227.36
  C 122.01 227.53 125.19 228.55 128.50 228.38
  C 145.66 227.51 156.60 217.74 164.47 203.26
  Q 174.69 202.19 185.57 197.09
  Q 203.43 188.71 206.75 169.54
  C 207.31 166.32 206.66 163.24 206.12 159.83
  Q 205.75 157.47 203.45 158.46
  L 204.84 154.60
  Z"
/>
<path fill="#7c4a23" d="
  M 144.0125 164.2046
  A 3.86 1.86 54.3 0 1 140.2495 162.1554
  A 3.86 1.86 54.3 0 1 139.5075 157.9354
  A 3.86 1.86 54.3 0 1 143.2705 159.9846
  A 3.86 1.86 54.3 0 1 144.0125 164.2046
  Z"
/>
<path fill="#f6cdd6" d="
  M 164.47 203.26
  Q 152.55 204.98 142.26 202.86
  L 139.84 201.29
  A 0.56 0.56 0.0 0 1 140.10 200.27
  Q 162.53 198.25 180.76 185.54
  Q 197.36 176.10 203.45 158.46
  Q 205.75 157.47 206.12 159.83
  C 206.66 163.24 207.31 166.32 206.75 169.54
  Q 203.43 188.71 185.57 197.09
  Q 174.69 202.19 164.47 203.26
  Z"
/>
<path fill="#7c4a23" d="
  M 116.5547 182.0002
  A 3.71 1.65 64.2 0 1 113.4545 179.3781
  A 3.71 1.65 64.2 0 1 113.3253 175.3198
  A 3.71 1.65 64.2 0 1 116.4255 177.9419
  A 3.71 1.65 64.2 0 1 116.5547 182.0002
  Z"
/>
<path fill="#f6cdd6" d="
  M 356.01 199.30
  L 353.32 200.63
  Q 352.77 199.51 351.25 199.50
  Q 339.42 199.40 328.88 196.41
  L 329.83 195.05
  C 342.97 194.18 358.58 189.70 365.75 176.58
  A 0.95 0.94 52.7 0 1 367.50 176.82
  C 369.46 185.21 362.32 194.69 356.01 199.30
  Z"
/>
<path fill="#f9e3d7" d="
  M 92.98 176.72
  L 95.77 184.09
  Q 95.07 184.18 94.25 184.68
  Q 93.84 184.94 93.76 185.42
  Q 93.28 188.62 92.57 191.77
  C 91.13 198.05 91.75 205.27 94.04 210.98
  Q 96.06 216.01 101.50 221.09
  L 102.72 223.75
  C 107.73 235.61 117.45 242.50 129.00 246.18
  A 0.34 0.34 0.0 0 1 128.93 246.84
  C 114.28 248.31 98.35 244.84 88.46 233.66
  Q 76.02 219.59 81.33 198.16
  Q 82.96 191.59 85.73 187.31
  C 88.19 183.51 89.25 179.85 92.98 176.72
  Z"
/>
<path fill="#f9e3d7" d="
  M 272.80 183.35
  Q 276.85 188.00 282.06 191.44
  Q 283.75 192.56 284.82 194.27
  Q 291.66 205.33 303.50 211.43
  A 0.69 0.68 -65.7 0 1 303.82 212.29
  Q 301.19 218.67 300.22 225.50
  Q 300.13 226.14 299.52 225.95
  Q 280.20 219.92 265.60 205.89
  Q 264.12 204.47 264.49 206.48
  C 266.18 215.82 267.08 226.90 262.93 235.68
  Q 262.71 236.16 262.23 236.38
  C 253.06 240.75 238.85 224.10 234.61 217.56
  Q 234.22 216.96 234.10 217.67
  C 233.27 222.47 232.53 227.52 227.53 228.94
  C 221.71 230.59 215.68 221.39 214.02 216.84
  A 0.58 0.58 0.0 0 0 212.94 216.80
  Q 206.66 230.81 193.73 239.10
  Q 193.23 239.42 193.02 238.86
  Q 190.77 232.96 186.60 228.21
  A 0.72 0.72 0.0 0 1 186.75 227.13
  C 195.81 221.21 203.70 209.65 208.52 200.40
  Q 212.88 200.52 217.02 200.54
  C 225.69 200.56 234.95 198.58 243.56 197.37
  Q 245.85 197.05 247.89 195.38
  Q 248.25 195.09 248.70 194.98
  Q 250.09 194.66 251.40 194.14
  C 253.44 193.32 255.57 193.61 257.39 191.73
  A 2.17 2.14 -78.2 0 1 258.16 191.22
  Q 266.10 188.23 272.80 183.35
  Z"
/>
<path fill="#faf7da" d="
  M 95.77 184.09
  C 101.00 197.56 114.40 197.82 126.04 193.38
  L 126.01 195.79
  Q 126.00 196.25 126.36 196.56
  Q 133.46 202.74 142.26 202.86
  Q 152.55 204.98 164.47 203.26
  C 156.60 217.74 145.66 227.51 128.50 228.38
  C 125.19 228.55 122.01 227.53 118.43 227.36
  Q 106.25 220.51 102.18 206.99
  Q 101.95 206.20 101.82 206.11
  Q 100.67 205.33 100.50 206.71
  Q 99.70 213.07 101.50 221.09
  Q 96.06 216.01 94.04 210.98
  C 91.75 205.27 91.13 198.05 92.57 191.77
  Q 93.28 188.62 93.76 185.42
  Q 93.84 184.94 94.25 184.68
  Q 95.07 184.18 95.77 184.09
  Z"
/>
<path fill="#f9e3d7" d="
  M 180.76 185.54
  Q 162.53 198.25 140.10 200.27
  A 0.56 0.56 0.0 0 0 139.84 201.29
  L 142.26 202.86
  Q 133.46 202.74 126.36 196.56
  Q 126.00 196.25 126.01 195.79
  L 126.04 193.38
  L 133.70 190.18
  Q 133.67 191.14 134.02 191.83
  Q 134.24 192.27 134.74 192.33
  C 143.06 193.16 150.00 194.09 159.19 192.38
  C 166.36 191.04 173.57 187.96 180.76 185.54
  Z"
/>
<path fill="#f9e3d7" d="
  M 353.32 200.63
  L 356.01 199.30
  Q 355.95 199.74 356.53 200.28
  Q 356.87 200.60 357.35 200.62
  Q 367.88 201.14 378.15 198.86
  Q 380.24 198.40 383.51 196.70
  Q 386.20 195.30 389.09 194.55
  C 381.18 226.96 342.71 223.39 318.78 215.91
  C 305.76 211.85 294.85 205.12 286.85 194.63
  A 0.52 0.52 0.0 0 1 287.41 193.82
  C 289.67 194.50 291.87 194.94 293.95 196.22
  C 311.42 207.01 334.67 210.93 353.32 200.63
  Z"
/>
<path fill="#f6cdd6" d="
  M 118.43 227.36
  Q 118.58 227.82 118.46 228.49
  C 111.74 228.00 108.87 223.86 103.77 221.22
  Q 103.28 220.96 103.06 221.47
  Q 102.60 222.50 102.72 223.75
  L 101.50 221.09
  Q 99.70 213.07 100.50 206.71
  Q 100.67 205.33 101.82 206.11
  Q 101.95 206.20 102.18 206.99
  Q 106.25 220.51 118.43 227.36
  Z"
/>
<path fill="#f9e3d7" d="
  M 297.17 227.66
  L 285.86 231.82
  C 278.83 224.03 272.53 229.90 271.32 237.98
  Q 271.49 235.70 269.14 236.98
  C 267.25 238.00 264.61 238.05 262.43 238.72
  C 269.66 233.59 267.78 217.76 266.57 210.29
  A 0.54 0.54 0.0 0 1 267.46 209.81
  Q 280.75 221.60 297.17 227.66
  Z"
/>
<path fill="#f9e3d7" d="
  M 322.22 219.03
  Q 321.19 227.49 324.34 235.60
  C 328.62 246.60 333.11 258.86 338.95 268.61
  C 345.16 278.99 355.39 295.81 368.44 297.88
  C 375.20 298.96 377.16 297.85 383.19 295.04
  C 392.09 290.90 399.83 284.47 403.47 275.05
  A 0.54 0.53 -72.3 0 0 403.11 274.34
  L 394.73 272.10
  L 395.13 271.73
  Q 395.86 271.06 395.03 270.52
  C 387.84 265.86 382.45 261.01 377.16 254.01
  C 374.14 250.02 370.47 246.06 368.62 241.30
  C 371.13 243.56 372.92 246.34 375.39 248.31
  C 383.95 255.16 391.28 257.82 400.20 261.67
  C 410.26 266.01 417.06 262.22 421.98 253.21
  Q 424.70 261.88 423.84 270.03
  A 0.58 0.58 0.0 0 0 424.99 270.17
  L 425.95 262.98
  A 0.25 0.25 0.0 0 1 426.40 262.87
  C 434.70 274.15 437.98 289.17 437.25 302.76
  C 436.07 324.39 417.67 341.88 395.74 339.73
  C 378.96 338.08 360.77 321.63 351.07 309.94
  C 335.14 290.73 327.30 270.98 321.52 246.52
  A 0.77 0.77 0.0 0 0 320.00 246.65
  C 318.24 274.58 326.70 300.88 345.22 321.53
  C 353.90 331.19 368.35 342.10 381.62 343.57
  A 0.74 0.74 0.0 0 1 381.72 345.02
  C 361.20 350.27 341.91 339.57 328.35 325.39
  C 322.60 319.38 316.53 311.24 312.73 303.66
  C 304.27 286.76 299.52 265.88 300.04 247.02
  C 300.35 235.84 301.42 223.67 305.19 213.21
  Q 305.36 212.72 305.85 212.90
  L 322.22 219.03
  Z"
/>
<path fill="#faf7da" d="
  M 421.98 253.21
  C 417.06 262.22 410.26 266.01 400.20 261.67
  C 391.28 257.82 383.95 255.16 375.39 248.31
  C 372.92 246.34 371.13 243.56 368.62 241.30
  Q 363.62 232.32 359.91 222.12
  Q 371.49 219.75 380.66 213.27
  A 1.85 1.83 39.6 0 1 382.51 213.11
  C 400.12 221.42 415.46 234.62 421.98 253.21
  Z"
/>
<path fill="#c94c50" d="
  M 275.87 220.59
  A 3.43 3.43 0.0 0 1 272.44 224.02
  A 3.43 3.43 0.0 0 1 269.01 220.59
  A 3.43 3.43 0.0 0 1 272.44 217.16
  A 3.43 3.43 0.0 0 1 275.87 220.59
  Z"
/>
<path fill="#faf7da" d="
  M 322.22 219.03
  Q 334.16 222.17 344.92 223.31
  C 351.64 245.66 372.48 265.62 394.73 272.10
  L 403.11 274.34
  A 0.54 0.53 -72.3 0 1 403.47 275.05
  C 399.83 284.47 392.09 290.90 383.19 295.04
  C 377.16 297.85 375.20 298.96 368.44 297.88
  C 355.39 295.81 345.16 278.99 338.95 268.61
  C 333.11 258.86 328.62 246.60 324.34 235.60
  Q 321.19 227.49 322.22 219.03
  Z"
/>
<path fill="#f9e3d7" d="
  M 258.50 239.76
  Q 254.08 241.42 248.37 242.69
  C 246.60 243.09 245.18 244.16 243.27 244.52
  C 237.53 245.62 232.35 247.33 226.45 247.65
  Q 225.94 247.68 225.57 248.03
  Q 224.79 248.76 224.38 249.78
  C 210.30 218.22 195.29 268.26 207.93 276.03
  Q 216.82 281.50 224.51 275.90
  Q 235.58 280.53 249.49 283.55
  Q 251.16 283.91 252.20 283.49
  Q 252.12 284.80 253.75 284.75
  Q 255.04 284.71 256.17 283.21
  L 256.50 283.89
  Q 256.71 284.34 257.19 284.41
  Q 270.93 286.57 282.32 285.07
  Q 287.65 284.36 290.03 284.60
  C 278.97 290.57 263.17 294.59 252.43 295.89
  Q 247.90 296.44 236.44 296.07
  Q 219.19 295.51 203.34 288.92
  A 1.65 1.63 10.7 0 1 202.33 287.46
  Q 201.72 264.24 194.28 242.28
  A 1.11 1.11 0.0 0 1 194.73 240.99
  Q 206.51 233.48 213.26 221.15
  Q 213.57 220.58 213.94 221.11
  C 216.11 224.18 218.58 227.96 221.48 229.80
  C 228.30 234.09 233.16 228.58 234.86 222.08
  Q 235.07 221.31 235.53 221.96
  Q 244.99 235.05 258.50 239.76
  Z"
/>
<path fill="#f6cdd6" d="
  M 359.91 222.12
  Q 363.62 232.32 368.62 241.30
  C 370.47 246.06 374.14 250.02 377.16 254.01
  C 382.45 261.01 387.84 265.86 395.03 270.52
  Q 395.86 271.06 395.13 271.73
  L 394.73 272.10
  C 372.48 265.62 351.64 245.66 344.92 223.31
  L 359.91 222.12
  Z"
/>
<path fill="#c94c50" d="
  M 217.88 230.31
  A 3.27 3.27 0.0 0 1 214.61 233.58
  A 3.27 3.27 0.0 0 1 211.34 230.31
  A 3.27 3.27 0.0 0 1 214.61 227.04
  A 3.27 3.27 0.0 0 1 217.88 230.31
  Z"
/>
<path fill="#faf7da" d="
  M 297.17 227.66
  L 299.15 228.01
  Q 299.71 228.12 299.64 228.68
  Q 297.89 243.19 297.86 247.49
  Q 297.76 262.50 300.86 277.16
  Q 300.97 277.65 300.62 278.00
  C 297.77 280.93 293.59 282.65 290.03 284.60
  Q 287.65 284.36 282.32 285.07
  Q 270.93 286.57 257.19 284.41
  Q 256.71 284.34 256.50 283.89
  L 256.17 283.21
  C 255.42 280.71 252.78 281.22 252.20 283.49
  Q 251.16 283.91 249.49 283.55
  Q 235.58 280.53 224.51 275.90
  C 229.94 268.42 227.39 257.59 224.38 249.78
  Q 224.79 248.76 225.57 248.03
  Q 225.94 247.68 226.45 247.65
  C 232.35 247.33 237.53 245.62 243.27 244.52
  C 245.18 244.16 246.60 243.09 248.37 242.69
  Q 254.08 241.42 258.50 239.76
  L 262.43 238.72
  C 264.61 238.05 267.25 238.00 269.14 236.98
  Q 271.49 235.70 271.32 237.98
  C 270.23 245.93 270.83 257.29 275.68 264.08
  C 280.83 271.29 292.41 268.12 295.19 261.33
  C 298.99 252.03 292.43 238.97 285.86 231.82
  L 297.17 227.66
  Z"
/>
<path fill="#c94c50" d="
  M 285.86 231.82
  C 292.43 238.97 298.99 252.03 295.19 261.33
  C 292.41 268.12 280.83 271.29 275.68 264.08
  C 270.83 257.29 270.23 245.93 271.32 237.98
  C 272.53 229.90 278.83 224.03 285.86 231.82
  Z"
/>
<path stroke="#e4716f" stroke-width="2.00" fill="none" stroke-linecap="butt" vector-effect="non-scaling-stroke" d="
  M 293.89 260.72
  Q 291.75 256.22 287.31 256.99
  C 282.67 257.79 278.39 257.89 278.10 263.84"
/>
<path fill="#faf7da" d="
  M 197.10 260.23
  Q 196.29 264.33 195.32 268.31
  C 194.72 270.73 195.80 274.13 195.60 276.56
  C 195.13 282.40 192.18 286.33 190.51 291.15
  Q 187.32 300.35 183.00 309.11
  Q 182.74 309.63 182.20 309.42
  L 180.36 308.70
  Q 183.86 295.04 182.97 281.19
  Q 184.63 278.14 184.02 274.81
  C 182.47 266.34 181.95 257.81 180.37 249.28
  Q 180.12 247.89 179.14 247.99
  A 0.68 0.68 0.0 0 0 178.55 248.54
  Q 175.74 263.49 172.88 278.41
  C 171.60 285.03 168.23 293.54 165.47 299.23
  C 154.62 321.69 134.31 338.48 109.41 343.15
  C 101.53 344.63 88.73 345.02 81.36 342.41
  Q 70.71 338.64 62.27 330.50
  Q 63.44 318.40 69.70 306.56
  A 0.65 0.64 -53.9 0 1 70.72 306.39
  Q 73.82 309.39 78.43 307.02
  Q 93.23 303.78 105.52 294.55
  Q 110.61 292.88 114.71 289.70
  Q 138.38 271.32 151.65 243.75
  Q 156.64 240.49 161.23 239.18
  Q 174.51 235.41 184.14 229.20
  Q 184.56 228.93 184.85 229.34
  C 191.59 238.67 194.50 249.25 197.10 260.23
  Z"
/>
<path fill="#e15f5f" d="
  M 293.89 260.72
  Q 291.75 256.22 287.31 256.99
  C 282.67 257.79 278.39 257.89 278.10 263.84
  C 272.58 258.46 272.32 247.90 272.61 240.68
  C 272.81 235.78 274.96 227.47 281.56 230.71
  C 287.71 233.72 293.01 245.49 294.45 251.52
  Q 295.43 255.62 293.89 260.72
  Z"
/>
<path stroke="#bba17f" stroke-width="2.00" fill="none" stroke-linecap="butt" vector-effect="non-scaling-stroke" d="
  M 281.34 241.78
  Q 280.81 241.64 280.44 241.86"
/>
<path fill="#faf7da" d="
  M 281.34 241.78
  Q 280.81 241.64 280.44 241.86
  Q 276.51 241.35 277.24 236.64
  C 278.06 231.33 286.03 236.38 281.34 241.78
  Z"
/>
<path fill="#c94c50" d="
  M 224.38 249.78
  C 227.39 257.59 229.94 268.42 224.51 275.90
  Q 216.82 281.50 207.93 276.03
  C 195.29 268.26 210.30 218.22 224.38 249.78
  Z"
/>
<g stroke-width="2.00" fill="none" stroke-linecap="butt">
<path stroke="#e4716f" vector-effect="non-scaling-stroke" d="
  M 223.44 274.04
  Q 222.13 267.48 216.68 267.59"
/>
<path stroke="#af5541" vector-effect="non-scaling-stroke" d="
  M 216.68 267.59
  Q 219.53 260.64 216.71 252.67
  Q 216.52 252.15 215.97 252.23
  L 213.57 252.58
  A 0.85 0.85 0.0 0 0 212.84 253.32
  Q 212.11 259.41 212.78 265.06"
/>
<path stroke="#e4716f" vector-effect="non-scaling-stroke" d="
  M 212.78 265.06
  Q 208.60 265.12 205.20 268.68"
/>
<path stroke="#b26751" vector-effect="non-scaling-stroke" d="
  M 216.68 267.59
  Q 214.93 269.45 212.78 265.06"
/>
</g>
<path fill="#e15f5f" d="
  M 223.44 274.04
  Q 222.13 267.48 216.68 267.59
  Q 219.53 260.64 216.71 252.67
  Q 216.52 252.15 215.97 252.23
  L 213.57 252.58
  A 0.85 0.85 0.0 0 0 212.84 253.32
  Q 212.11 259.41 212.78 265.06
  Q 208.60 265.12 205.20 268.68
  C 204.02 260.01 205.95 248.97 211.72 241.91
  A 1.33 1.32 14.6 0 1 212.55 241.43
  Q 217.11 240.71 219.29 243.99
  C 223.85 250.83 229.55 266.42 223.44 274.04
  Z"
/>
<path fill="#7c4a23" d="
  M 280.44 241.86
  Q 280.81 241.64 281.34 241.78
  Q 282.33 241.29 282.99 242.47
  C 284.81 245.75 287.64 252.58 285.43 256.12
  Q 285.15 256.56 284.63 256.64
  C 280.23 257.30 279.27 247.24 279.04 244.00
  Q 278.88 241.85 280.44 241.86
  Z"
/>
<path fill="#f6cdd6" d="
  M 151.65 243.75
  Q 138.38 271.32 114.71 289.70
  Q 110.61 292.88 105.52 294.55
  Q 104.30 294.38 105.39 292.03
  Q 105.82 291.09 106.77 290.09
  Q 114.31 282.05 121.24 272.43
  Q 128.45 263.39 132.44 251.23
  Q 133.30 248.60 131.77 248.70
  L 151.65 243.75
  Z"
/>
<path fill="#faf7da" d="
  M 214.1574 251.9466
  A 3.66 2.88 94.9 0 1 211.6005 248.0540
  A 3.66 2.88 94.9 0 1 214.7826 244.6534
  A 3.66 2.88 94.9 0 1 217.3395 248.5460
  A 3.66 2.88 94.9 0 1 214.1574 251.9466
  Z"
/>
<path fill="#faf7da" d="
  M 131.77 248.70
  Q 133.30 248.60 132.44 251.23
  Q 128.45 263.39 121.24 272.43
  Q 111.81 280.38 101.54 283.37
  C 101.16 283.48 100.87 283.91 100.37 284.06
  C 94.87 285.74 81.97 288.18 77.31 283.89
  Q 74.58 281.37 73.76 276.29
  Q 77.25 268.33 82.75 262.25
  C 86.51 258.09 96.58 246.38 100.67 245.27
  Q 101.17 245.13 101.64 245.36
  C 110.44 249.57 121.53 249.44 131.77 248.70
  Z"
/>
<path fill="#f9e3d7" d="
  M 182.97 281.19
  L 181.69 275.41
  A 0.59 0.59 0.0 0 0 180.53 275.42
  C 172.51 313.90 151.72 353.53 114.77 371.48
  C 111.70 372.97 110.42 372.61 107.42 372.74
  C 82.82 373.74 60.61 356.62 62.27 330.50
  Q 70.71 338.64 81.36 342.41
  C 88.73 345.02 101.53 344.63 109.41 343.15
  C 134.31 338.48 154.62 321.69 165.47 299.23
  C 168.23 293.54 171.60 285.03 172.88 278.41
  Q 175.74 263.49 178.55 248.54
  A 0.68 0.68 0.0 0 1 179.14 247.99
  Q 180.12 247.89 180.37 249.28
  C 181.95 257.81 182.47 266.34 184.02 274.81
  Q 184.63 278.14 182.97 281.19
  Z"
/>
<path fill="#7c4a23" d="
  M 216.68 267.59
  Q 214.93 269.45 212.78 265.06
  Q 212.11 259.41 212.84 253.32
  A 0.85 0.85 0.0 0 1 213.57 252.58
  L 215.97 252.23
  Q 216.52 252.15 216.71 252.67
  Q 219.53 260.64 216.68 267.59
  Z"
/>
<path fill="#e7837f" d="
  M 293.89 260.72
  C 290.83 266.71 283.32 268.43 278.10 263.84
  C 278.39 257.89 282.67 257.79 287.31 256.99
  Q 291.75 256.22 293.89 260.72
  Z"
/>
<path fill="#f9e3d7" d="
  M 197.10 260.23
  Q 198.28 263.75 198.47 266.00
  C 199.34 276.71 201.01 286.51 199.67 297.99
  C 196.74 323.22 184.32 352.68 163.19 367.17
  C 153.07 374.11 137.82 378.29 125.32 375.56
  Q 120.94 374.60 125.38 373.99
  C 152.39 370.26 176.41 333.63 180.36 308.70
  L 182.20 309.42
  Q 182.74 309.63 183.00 309.11
  Q 187.32 300.35 190.51 291.15
  C 192.18 286.33 195.13 282.40 195.60 276.56
  C 195.80 274.13 194.72 270.73 195.32 268.31
  Q 196.29 264.33 197.10 260.23
  Z"
/>
<path fill="#e7837f" d="
  M 212.78 265.06
  Q 214.93 269.45 216.68 267.59
  Q 222.13 267.48 223.44 274.04
  C 216.63 280.04 207.39 276.62 205.20 268.68
  Q 208.60 265.12 212.78 265.06
  Z"
/>
<path fill="#f9e3d7" d="
  M 121.24 272.43
  Q 114.31 282.05 106.77 290.09
  Q 105.82 291.09 105.39 292.03
  Q 104.30 294.38 105.52 294.55
  Q 93.23 303.78 78.43 307.02
  L 72.68 305.64
  Q 72.18 305.52 71.93 305.08
  C 66.73 296.20 69.06 285.35 73.76 276.29
  Q 74.58 281.37 77.31 283.89
  C 81.97 288.18 94.87 285.74 100.37 284.06
  C 100.87 283.91 101.16 283.48 101.54 283.37
  Q 111.81 280.38 121.24 272.43
  Z"
/>
<path fill="#f9e3d7" d="
  M 304.08 290.01
  L 303.98 289.52
  Q 303.90 289.17 303.59 288.98
  L 295.82 284.39
  L 301.72 280.68
  Q 302.21 280.37 302.33 280.94
  Q 303.21 284.95 304.28 288.72
  Q 304.47 289.40 304.08 290.01
  Z"
/>
<path fill="#c94c50" d="
  M 256.17 283.21
  Q 255.04 284.71 253.75 284.75
  Q 252.12 284.80 252.20 283.49
  C 252.78 281.22 255.42 280.71 256.17 283.21
  Z"
/>
<path fill="#faf7da" d="
  M 295.82 284.39
  L 303.59 288.98
  Q 303.90 289.17 303.98 289.52
  L 304.08 290.01
  L 301.22 294.58
  C 289.59 310.19 275.91 320.90 262.00 333.37
  A 0.75 0.75 0.0 0 0 262.68 334.66
  Q 286.43 328.72 304.91 311.99
  C 308.87 316.80 302.92 326.57 299.73 330.24
  Q 283.10 349.34 257.50 350.31
  Q 256.45 350.35 255.31 351.37
  Q 254.28 351.13 253.73 350.68
  Q 253.30 350.33 253.60 349.86
  C 257.42 343.83 257.91 342.33 254.57 336.18
  A 1.29 1.27 39.0 0 1 254.46 335.20
  C 258.63 320.89 257.92 312.96 240.28 316.74
  Q 237.21 317.39 236.73 315.62
  Q 245.69 307.91 255.53 302.34
  C 259.30 300.20 262.52 297.56 265.89 294.99
  Q 281.47 292.06 295.82 284.39
  Z"
/>
<path fill="#f9e3d7" d="
  M 265.89 294.99
  C 262.52 297.56 259.30 300.20 255.53 302.34
  Q 245.69 307.91 236.73 315.62
  C 232.55 302.13 219.29 320.05 215.96 324.45
  Q 210.10 332.19 199.20 339.80
  Q 198.79 340.09 198.34 339.87
  Q 194.68 338.07 192.09 334.88
  A 1.94 1.93 -52.2 0 1 191.84 332.86
  Q 198.72 317.86 201.50 301.62
  Q 201.56 301.27 201.81 301.01
  Q 206.44 296.34 212.77 294.48
  A 0.69 0.67 -45.8 0 1 213.15 294.47
  L 221.00 296.38
  A 0.35 0.34 -52.3 0 1 221.08 297.02
  C 213.40 301.08 204.08 310.42 203.30 319.70
  A 1.07 1.06 -16.9 0 0 205.03 320.62
  C 214.61 312.87 224.81 304.20 236.17 299.03
  A 0.57 0.55 79.4 0 0 236.50 298.53
  Q 236.50 298.37 236.50 298.21
  Q 236.50 297.96 236.75 297.93
  L 265.89 294.99
  Z"
/>
<path fill="#f6cdd6" d="
  M 301.22 294.58
  C 302.75 297.10 304.54 299.34 305.22 302.17
  Q 306.10 305.79 306.74 309.60
  Q 305.47 310.66 304.91 311.99
  Q 286.43 328.72 262.68 334.66
  A 0.75 0.75 0.0 0 1 262.00 333.37
  C 275.91 320.90 289.59 310.19 301.22 294.58
  Z"
/>
<path fill="#f9e3d7" d="
  M 255.31 351.37
  Q 256.45 350.35 257.50 350.31
  Q 283.10 349.34 299.73 330.24
  C 302.92 326.57 308.87 316.80 304.91 311.99
  Q 305.47 310.66 306.74 309.60
  L 310.65 304.97
  Q 310.92 304.64 311.11 305.02
  Q 315.22 313.53 321.47 320.53
  Q 322.06 321.18 322.58 323.00
  Q 322.71 323.45 322.55 323.90
  Q 320.10 330.53 315.68 334.42
  Q 291.87 355.37 259.26 352.40
  C 257.97 352.28 256.51 351.79 255.31 351.37
  Z"
/>
<path fill="#faf7da" d="
  M 240.60 361.74
  C 236.20 362.71 231.93 364.39 227.75 364.58
  Q 217.85 365.04 207.71 360.82
  C 200.11 357.65 195.22 353.18 196.19 344.40
  C 201.37 339.91 207.78 335.67 211.95 331.51
  Q 217.10 326.36 221.99 319.50
  C 223.71 317.09 230.18 310.26 233.65 313.61
  Q 234.01 313.96 234.10 314.45
  C 236.29 326.19 263.50 303.87 252.50 336.21
  Q 252.33 336.73 252.64 337.19
  L 255.06 340.65
  A 1.21 1.19 33.2 0 1 255.25 341.52
  C 254.00 349.00 245.48 357.79 240.60 361.74
  Z"
/>
<path fill="#faf7da" d="
  M 349.69 406.62
  C 343.07 410.85 337.06 401.25 330.42 400.82
  C 325.46 400.49 321.37 406.92 316.92 402.14
  Q 315.34 400.44 314.69 396.45
  C 313.73 390.54 313.20 385.36 310.59 379.80
  Q 303.48 364.65 297.58 349.06
  A 0.40 0.39 -21.8 0 1 297.80 348.56
  Q 306.64 344.73 314.06 338.54
  A 1.44 1.43 -46.4 0 1 315.83 338.49
  Q 335.11 352.86 348.20 373.26
  C 352.13 379.37 357.58 389.59 354.50 396.30
  A 0.74 0.74 0.0 0 1 353.12 396.22
  L 351.63 391.65
  A 0.65 0.65 0.0 0 0 350.37 391.96
  C 350.98 395.41 352.59 400.94 351.76 403.99
  Q 351.33 405.57 349.69 406.62
  Z"
/>
<path fill="#f9e3d7" d="
  M 196.19 344.40
  C 195.22 353.18 200.11 357.65 207.71 360.82
  Q 217.85 365.04 227.75 364.58
  C 231.93 364.39 236.20 362.71 240.60 361.74
  Q 230.24 371.32 217.03 374.54
  Q 214.15 375.24 205.76 374.35
  C 187.69 372.44 186.50 353.20 194.73 340.91
  Q 194.98 340.54 195.39 340.73
  L 196.78 341.38
  A 0.49 0.48 -58.1 0 1 196.95 342.13
  Q 196.06 343.24 196.19 344.40
  Z"
/>
<path fill="#f9e3d7" d="
  M 307.94 378.56
  Q 294.40 378.33 284.26 377.16
  Q 275.14 376.11 264.41 373.22
  L 276.96 360.27
  A 0.47 0.46 -67.3 0 0 276.64 359.48
  C 272.44 359.41 260.63 367.84 257.12 370.54
  L 244.73 364.68
  A 1.08 1.07 -87.4 0 1 244.17 364.06
  Q 243.72 362.82 242.20 362.92
  L 251.53 352.77
  Q 251.87 352.39 252.37 352.51
  C 266.79 356.01 280.73 354.14 294.83 349.83
  A 0.64 0.64 0.0 0 1 295.61 350.19
  L 307.94 378.56
  Z"
/>
<path fill="#faf7da" d="
  M 242.20 362.92
  Q 243.72 362.82 244.17 364.06
  A 1.08 1.07 -87.4 0 0 244.73 364.68
  L 257.12 370.54
  Q 236.79 386.31 223.06 400.81
  Q 210.71 413.87 207.05 432.39
  Q 202.29 428.84 198.58 424.05
  C 188.52 411.07 181.67 398.22 181.54 381.38
  C 181.50 376.86 180.88 371.87 182.58 366.75
  Q 182.73 366.29 182.49 365.87
  Q 182.01 365.04 181.23 364.54
  L 187.55 358.10
  A 0.32 0.32 0.0 0 1 188.09 358.28
  C 189.89 370.88 198.79 376.40 211.01 376.44
  C 222.83 376.48 233.17 370.36 242.20 362.92
  Z"
/>
<path fill="#f6cdd6" d="
  M 264.41 373.22
  C 244.03 394.11 226.91 414.56 219.04 441.81
  Q 218.89 441.92 218.74 442.02
  L 208.52 433.76
  Q 208.21 433.50 207.81 433.51
  L 207.22 433.51
  Q 207.41 432.83 207.05 432.39
  Q 210.71 413.87 223.06 400.81
  Q 236.79 386.31 257.12 370.54
  C 260.63 367.84 272.44 359.41 276.64 359.48
  A 0.47 0.46 -67.3 0 1 276.96 360.27
  L 264.41 373.22
  Z"
/>
<path fill="#f9e3d7" d="
  M 181.23 364.54
  Q 182.01 365.04 182.49 365.87
  Q 182.73 366.29 182.58 366.75
  C 180.88 371.87 181.50 376.86 181.54 381.38
  C 181.67 398.22 188.52 411.07 198.58 424.05
  Q 202.29 428.84 207.05 432.39
  Q 207.41 432.83 207.22 433.51
  C 205.71 444.24 207.67 455.68 215.79 463.44
  Q 216.55 464.16 217.45 463.63
  Q 217.98 463.31 217.82 461.99
  Q 216.55 451.70 218.74 442.02
  Q 218.89 441.92 219.04 441.81
  Q 233.42 450.98 249.78 455.88
  C 261.59 459.42 277.94 462.39 290.14 460.83
  C 291.72 460.62 292.94 461.25 294.56 461.35
  L 284.57 467.47
  A 0.72 0.72 0.0 0 0 284.86 468.80
  C 291.97 469.64 303.06 464.20 308.95 460.40
  Q 309.70 460.40 310.04 460.22
  Q 314.43 461.09 318.56 460.07
  C 323.98 458.73 329.42 457.63 334.81 456.06
  A 1.16 1.14 45.4 0 1 335.49 456.07
  L 337.75 456.86
  C 337.15 458.61 335.71 459.83 335.48 461.59
  C 335.05 464.95 339.01 467.51 342.06 468.56
  C 332.16 471.91 322.76 472.38 312.57 474.05
  C 303.83 475.48 296.42 474.26 288.33 475.77
  Q 284.21 476.54 281.08 476.50
  C 267.24 476.32 253.37 476.88 239.58 476.75
  C 236.90 476.72 235.00 475.32 231.74 475.52
  C 220.77 476.20 208.43 476.82 199.46 482.98
  Q 195.85 485.46 191.76 491.01
  C 181.48 488.19 172.52 488.68 162.10 491.04
  C 153.82 492.91 145.16 494.69 137.00 492.49
  C 131.39 490.98 125.00 487.29 118.22 486.52
  C 111.70 485.77 103.94 487.18 97.27 487.65
  Q 88.24 488.28 85.74 480.10
  Q 85.59 479.59 85.79 479.10
  C 88.62 472.07 100.44 469.80 106.43 470.56
  C 116.96 471.89 120.74 468.71 128.17 462.19
  C 134.60 456.53 146.55 451.72 154.83 455.85
  A 1.25 1.23 1.0 0 1 155.38 456.41
  Q 156.98 459.57 160.39 460.63
  A 1.56 1.56 0.0 0 0 162.34 458.68
  C 157.07 441.53 159.97 425.69 165.74 409.04
  A 0.85 0.84 -10.6 0 0 164.39 408.12
  C 160.06 411.79 157.13 417.01 155.01 422.44
  Q 151.13 432.38 152.12 444.65
  A 0.44 0.43 -55.6 0 1 151.27 444.81
  C 149.24 437.91 148.25 430.94 149.01 423.67
  C 151.25 402.30 166.28 380.53 181.23 364.54
  Z"
/>
<path fill="#faf7da" d="
  M 264.41 373.22
  Q 275.14 376.11 284.26 377.16
  Q 294.40 378.33 307.94 378.56
  C 311.07 384.82 311.87 391.88 313.39 398.65
  C 314.69 404.41 319.27 407.10 324.63 404.33
  C 333.11 399.96 337.04 406.93 344.49 409.20
  C 345.46 409.50 346.94 409.35 348.07 409.80
  Q 348.56 409.99 348.71 410.49
  C 353.13 424.68 345.82 444.96 337.75 456.86
  L 335.49 456.07
  A 1.16 1.14 45.4 0 0 334.81 456.06
  C 329.42 457.63 323.98 458.73 318.56 460.07
  Q 314.43 461.09 310.04 460.22
  Q 320.10 454.76 325.69 449.93
  C 335.63 441.32 345.17 425.08 338.69 411.94
  C 337.65 409.82 335.10 407.94 333.32 410.55
  C 331.00 413.96 329.91 420.43 328.40 424.04
  C 322.05 439.14 310.70 449.56 297.03 459.95
  Q 296.27 460.79 294.56 461.35
  C 292.94 461.25 291.72 460.62 290.14 460.83
  C 277.94 462.39 261.59 459.42 249.78 455.88
  Q 233.42 450.98 219.04 441.81
  C 226.91 414.56 244.03 394.11 264.41 373.22
  Z"
/>
<path fill="#f6cdd6" d="
  M 310.04 460.22
  Q 309.70 460.40 308.95 460.40
  Q 309.04 460.17 309.00 459.98
  Q 308.90 459.53 308.44 459.64
  Q 302.80 461.09 297.03 459.95
  C 310.70 449.56 322.05 439.14 328.40 424.04
  C 329.91 420.43 331.00 413.96 333.32 410.55
  C 335.10 407.94 337.65 409.82 338.69 411.94
  C 345.17 425.08 335.63 441.32 325.69 449.93
  Q 320.10 454.76 310.04 460.22
  Z"
/>
<path fill="#f2b8c4" d="
  M 207.22 433.51
  L 207.81 433.51
  Q 208.21 433.50 208.52 433.76
  L 218.74 442.02
  Q 216.55 451.70 217.82 461.99
  Q 217.98 463.31 217.45 463.63
  Q 216.55 464.16 215.79 463.44
  C 207.67 455.68 205.71 444.24 207.22 433.51
  Z"
/>
<path fill="#f2b8c4" d="
  M 308.95 460.40
  C 303.06 464.20 291.97 469.64 284.86 468.80
  A 0.72 0.72 0.0 0 1 284.57 467.47
  L 294.56 461.35
  Q 296.27 460.79 297.03 459.95
  Q 302.80 461.09 308.44 459.64
  Q 308.90 459.53 309.00 459.98
  Q 309.04 460.17 308.95 460.40
  Z"
/>
<path fill="#faf7da" d="
  M 342.06 468.56
  Q 349.13 471.36 351.33 471.21
  Q 356.95 470.84 362.38 472.19
  C 366.87 473.32 372.06 478.34 370.33 482.76
  C 367.41 490.28 352.37 491.94 346.01 490.50
  Q 330.96 487.10 316.36 491.98
  C 306.35 495.33 297.03 499.35 286.56 497.92
  C 279.08 496.89 269.41 493.43 262.44 492.25
  C 252.31 490.53 244.80 492.18 234.03 494.95
  C 218.56 498.94 207.16 495.14 191.76 491.01
  Q 195.85 485.46 199.46 482.98
  C 208.43 476.82 220.77 476.20 231.74 475.52
  C 235.00 475.32 236.90 476.72 239.58 476.75
  C 253.37 476.88 267.24 476.32 281.08 476.50
  Q 284.21 476.54 288.33 475.77
  C 296.42 474.26 303.83 475.48 312.57 474.05
  C 322.76 472.38 332.16 471.91 342.06 468.56
  Z"
/>
</svg>
