<?xml version="1.0" encoding="UTF-8" standalone="no"?>
<svg xmlns="http://www.w3.org/2000/svg" version="1.2" baseProfile="tiny" viewBox="0.00 0.00 500.00 500.00">
<path fill="#020202" fill-opacity="0.996" d="
  M 65.00 392.18
  L 63.55 394.62
  A 0.52 0.51 -69.6 0 0 63.90 395.39
  C 73.25 397.08 86.05 395.40 94.21 393.95
  Q 94.75 393.85 94.88 393.32
  C 95.87 389.21 95.37 384.99 91.91 382.23
  Q 88.29 379.34 83.90 380.50
  C 79.39 379.72 69.82 387.78 67.73 389.88
  L 65.77 391.47
  L 65.63 391.01
  Q 65.48 390.51 64.97 390.64
  Q 59.09 392.13 53.00 392.31
  Q 52.05 392.34 51.76 391.90
  L 66.23 389.65
  Q 66.75 389.57 67.13 389.21
  Q 73.76 382.92 82.17 379.37
  Q 82.69 379.15 82.58 378.60
  C 81.61 373.98 78.09 373.03 73.78 373.99
  C 64.26 376.10 55.19 382.39 51.76 391.90
  Q 51.45 391.49 51.33 391.15
  Q 51.21 390.82 51.40 390.35
  Q 52.11 388.63 53.15 387.03
  A 0.66 0.65 -51.2 0 0 53.07 386.21
  Q 52.76 385.90 52.20 385.70
  Q 52.62 385.47 53.22 385.49
  Q 53.74 385.50 54.09 385.11
  Q 62.00 376.23 73.52 373.16
  Q 74.01 373.02 73.79 372.56
  Q 71.93 368.69 68.01 369.52
  Q 53.99 372.48 46.82 384.62
  A 0.58 0.58 0.0 0 0 47.27 385.49
  L 52.09 385.90
  Q 49.45 386.62 46.54 386.14
  Q 45.97 386.05 46.10 385.48
  Q 46.69 383.10 48.20 381.17
  C 57.41 369.36 69.43 367.59 83.56 366.87
  Q 88.10 366.64 92.27 367.76
  A 0.44 0.44 0.0 0 0 92.64 366.98
  C 71.14 351.53 38.08 323.41 36.23 294.80
  Q 34.79 272.37 50.28 254.65
  Q 51.19 255.69 50.95 255.97
  Q 49.89 256.09 49.55 256.57
  Q 47.73 259.07 45.97 261.65
  Q 45.69 262.06 46.03 262.42
  L 46.31 262.72
  L 45.95 263.27
  Q 44.93 263.36 44.52 264.05
  Q 39.15 273.14 37.30 284.77
  A 0.58 0.58 0.0 0 0 38.28 285.27
  C 41.80 281.70 54.58 293.25 57.88 296.25
  Q 58.64 296.93 58.34 295.96
  C 57.29 292.50 53.83 291.59 52.57 287.29
  L 53.78 286.68
  Q 54.27 291.63 58.47 293.05
  L 58.73 294.04
  Q 64.17 305.78 72.44 315.09
  Q 89.42 335.30 114.37 343.36
  Q 114.88 343.52 115.35 343.27
  Q 126.85 337.17 135.94 327.84
  A 1.62 1.61 58.3 0 0 136.32 326.20
  L 134.83 321.66
  Q 133.12 309.41 136.60 296.19
  Q 140.00 281.96 147.44 268.94
  Q 150.32 264.07 153.08 259.66
  C 153.80 258.52 153.42 257.83 152.89 256.73
  Q 150.72 250.07 146.56 243.48
  L 144.42 239.51
  L 145.18 239.12
  L 148.18 243.36
  L 153.54 254.71
  L 154.02 256.52
  A 0.61 0.61 0.0 0 0 155.10 256.73
  L 164.60 243.95
  A 0.48 0.48 0.0 0 0 164.54 243.31
  L 160.92 240.00
  L 154.97 236.08
  Q 152.99 235.28 152.56 233.91
  Q 154.45 234.30 155.83 235.31
  L 161.50 239.09
  L 165.38 242.79
  Q 165.70 243.10 166.02 242.79
  L 173.94 235.12
  Q 174.28 234.79 174.17 234.33
  Q 172.26 226.25 168.29 218.97
  Q 168.28 218.85 168.59 218.43
  C 171.86 221.92 173.85 228.85 174.85 233.40
  A 0.69 0.68 -24.4 0 0 175.93 233.80
  C 190.57 222.91 212.35 219.07 225.61 234.40
  Q 225.95 234.79 226.33 234.44
  Q 248.27 214.11 275.49 201.99
  Q 292.70 195.34 310.46 190.60
  Q 314.88 189.43 332.00 183.75
  Q 348.54 178.27 371.26 174.34
  L 391.48 171.45
  Q 405.22 169.92 422.50 170.23
  Q 451.86 170.77 477.99 175.35
  C 479.01 175.53 479.68 176.38 481.05 175.86
  Q 481.54 175.68 482.05 175.76
  L 496.26 177.94
  A 3.25 2.78 24.1 0 0 498.91 177.16
  Q 499.25 176.81 498.18 175.79
  C 496.19 173.91 493.35 173.35 491.58 172.44
  Q 480.54 166.72 469.51 160.98
  Q 460.74 156.41 436.47 148.13
  Q 436.06 147.99 435.89 148.38
  Q 432.58 155.87 426.45 161.40
  A 0.43 0.43 0.0 0 1 425.73 161.05
  Q 426.41 153.56 425.07 146.18
  A 1.69 1.69 0.0 0 0 423.71 144.82
  L 417.96 143.78
  Q 404.40 140.74 382.81 138.62
  Q 381.47 138.48 380.66 138.76
  Q 379.90 139.02 379.60 140.30
  Q 377.24 150.37 371.33 158.25
  A 0.84 0.84 0.0 0 1 369.82 157.77
  Q 369.55 147.92 365.96 138.74
  A 1.80 1.79 81.6 0 0 364.46 137.62
  C 349.51 136.21 333.21 136.34 318.32 138.95
  Q 317.74 139.06 317.78 139.65
  Q 319.05 155.97 313.02 171.12
  A 0.78 0.78 0.0 0 1 311.55 171.06
  L 307.95 159.04
  L 306.84 156.41
  Q 303.90 149.09 298.86 142.99
  A 0.92 0.91 64.6 0 0 297.97 142.67
  C 278.35 146.36 257.95 153.77 240.20 163.30
  A 1.01 1.00 65.3 0 0 239.74 164.56
  Q 242.86 172.52 244.01 181.38
  L 244.39 185.07
  Q 245.28 195.91 244.35 206.77
  Q 244.33 207.01 244.21 207.18
  Q 243.99 207.47 243.89 207.52
  A 0.79 0.78 -29.1 0 1 242.83 207.22
  C 236.18 195.28 229.80 184.85 219.47 175.75
  A 1.24 1.24 0.0 0 0 217.99 175.64
  C 203.95 184.59 191.15 193.75 179.27 205.71
  Q 180.25 202.82 182.60 201.11
  Q 198.76 185.60 217.88 174.48
  Q 218.88 173.90 219.77 174.63
  Q 226.55 180.08 232.32 187.97
  L 234.03 190.40
  L 242.98 205.83
  A 0.37 0.37 0.0 0 0 243.67 205.66
  Q 244.28 195.75 243.05 185.32
  L 242.68 181.46
  Q 241.59 173.16 238.25 164.41
  A 1.47 1.46 -25.0 0 1 238.92 162.60
  Q 266.94 147.36 298.30 141.48
  Q 298.82 141.38 299.19 141.75
  C 306.14 148.71 310.34 160.57 312.00 170.00
  A 0.28 0.27 -40.4 0 0 312.53 170.04
  Q 317.85 155.09 316.70 139.24
  Q 316.61 138.01 317.83 137.85
  Q 341.39 134.72 365.06 136.51
  A 1.90 1.88 -9.3 0 1 366.65 137.64
  Q 370.66 146.88 370.78 156.99
  A 0.33 0.33 0.0 0 0 371.39 157.17
  Q 376.94 148.58 379.30 138.62
  A 1.73 1.72 8.9 0 1 381.12 137.30
  Q 399.61 138.78 418.01 142.77
  L 424.61 144.25
  Q 425.14 144.37 425.30 144.89
  Q 427.49 152.04 426.23 159.48
  A 0.78 0.78 0.0 0 0 427.65 160.04
  L 435.99 147.43
  Q 436.27 147.01 436.75 147.16
  Q 457.83 154.03 467.48 159.05
  Q 481.31 166.25 495.07 173.22
  A 0.32 0.32 0.0 0 0 495.42 172.69
  C 480.51 160.10 463.20 151.12 445.51 143.23
  Q 435.97 138.97 421.76 136.02
  L 416.46 134.48
  Q 416.24 134.42 416.41 134.28
  Q 416.53 134.18 416.75 134.23
  Q 419.04 134.79 421.35 135.22
  Q 421.61 135.26 421.80 135.07
  L 422.06 134.82
  A 0.34 0.33 29.6 0 0 421.90 134.26
  C 405.27 129.98 388.67 126.18 371.50 124.13
  C 352.82 121.89 340.65 121.17 320.91 121.28
  Q 320.36 121.28 320.33 121.82
  L 320.03 126.28
  Q 319.88 125.94 318.92 125.77
  C 319.28 121.99 318.97 117.92 319.36 114.50
  Q 320.97 100.45 324.40 86.76
  L 328.15 75.28
  Q 329.24 71.96 326.11 73.52
  C 303.45 84.82 288.22 107.39 280.70 131.03
  Q 280.47 131.02 280.16 131.17
  Q 279.84 131.33 279.77 130.98
  L 279.61 130.26
  L 281.54 124.58
  A 0.74 0.74 0.0 0 0 280.76 123.61
  Q 261.27 125.77 242.02 129.56
  A 1.14 1.14 0.0 0 0 241.10 130.80
  L 242.65 146.23
  Q 241.43 146.54 241.35 145.49
  Q 239.13 128.16 240.05 110.37
  Q 240.89 98.51 244.50 86.77
  A 0.98 0.98 0.0 0 0 243.25 85.56
  Q 240.65 86.43 238.36 88.38
  Q 214.16 109.07 206.82 140.02
  L 206.29 140.01
  Q 205.79 139.99 205.75 139.49
  L 205.71 139.00
  Q 205.80 138.77 205.77 138.59
  Q 205.69 138.11 205.22 138.23
  Q 192.16 141.54 184.70 144.47
  Q 179.49 146.51 171.01 151.68
  Q 168.19 150.87 168.10 154.49
  Q 167.64 174.04 169.23 190.44
  C 169.35 191.63 170.32 193.34 169.45 194.44
  Q 159.90 206.52 146.30 217.93
  Q 144.72 218.32 143.26 219.55
  L 142.22 219.45
  C 153.20 211.25 159.89 203.58 168.31 194.73
  Q 168.66 194.36 168.57 193.87
  L 167.46 187.48
  Q 165.05 161.00 168.37 134.47
  Q 168.46 133.75 167.85 134.13
  C 162.98 137.16 158.75 142.53 155.41 147.63
  Q 155.13 147.54 154.92 147.49
  Q 154.59 147.42 154.50 147.08
  Q 154.46 146.91 154.38 146.74
  Q 160.06 139.00 166.96 133.50
  A 1.43 1.43 0.0 0 1 169.27 134.70
  L 168.36 150.18
  Q 168.31 150.95 169.02 150.63
  L 183.00 144.29
  A 1.98 1.97 75.7 0 0 184.16 142.33
  Q 181.92 115.58 186.78 88.51
  L 187.50 86.62
  A 0.58 0.58 0.0 0 0 186.71 85.89
  C 175.33 91.29 165.87 102.55 159.39 113.05
  Q 145.28 135.88 140.30 162.51
  Q 140.03 163.66 139.67 163.81
  Q 123.80 171.41 109.05 181.04
  C 105.19 183.56 102.05 186.75 98.57 189.84
  L 97.65 189.22
  L 104.13 183.45
  Q 104.51 183.11 104.53 182.59
  L 105.00 161.30
  L 109.10 131.72
  Q 109.30 131.12 109.25 130.49
  A 0.67 0.67 0.0 0 0 108.23 129.99
  Q 86.59 143.57 75.48 166.60
  Q 75.20 167.18 75.84 167.21
  Q 77.18 167.28 78.38 166.52
  L 91.77 165.43
  L 101.38 166.90
  Q 103.03 167.15 101.67 168.12
  L 82.78 181.58
  Q 82.39 181.42 82.49 180.50
  L 100.42 168.01
  Q 101.21 167.46 100.25 167.33
  Q 75.75 164.00 55.31 177.40
  A 0.68 0.64 28.6 0 1 54.88 177.51
  Q 54.76 177.50 54.62 177.50
  Q 53.94 177.49 54.50 177.10
  Q 60.15 173.12 66.47 170.31
  Q 66.96 170.09 67.20 169.61
  Q 74.24 155.38 84.98 143.70
  A 0.36 0.36 0.0 0 0 84.66 143.10
  C 71.31 145.46 61.69 151.34 51.32 159.84
  Q 51.45 158.95 52.35 158.12
  Q 65.55 145.93 83.27 142.59
  Q 84.37 142.38 85.30 142.54
  A 0.85 0.85 0.0 0 1 85.80 143.94
  Q 76.06 155.05 68.93 168.00
  A 0.78 0.78 0.0 0 0 69.67 169.15
  C 72.14 168.98 73.62 167.92 74.77 165.60
  Q 85.51 143.94 106.20 130.20
  C 107.22 129.52 108.17 128.61 109.40 129.22
  Q 110.76 129.89 110.33 132.01
  Q 105.47 156.15 105.18 180.29
  A 1.13 1.13 0.0 0 0 106.93 181.24
  Q 121.92 171.27 138.08 163.30
  A 1.29 1.23 86.0 0 0 138.73 162.52
  C 140.30 156.96 141.48 150.76 143.05 145.89
  C 149.98 124.46 161.12 103.53 178.95 89.18
  Q 182.41 86.39 186.22 85.19
  A 1.54 1.54 0.0 0 1 188.20 86.94
  Q 183.18 114.22 185.26 141.89
  A 0.87 0.87 0.0 0 0 186.39 142.66
  L 205.76 136.56
  A 1.52 1.51 89.7 0 0 206.76 135.54
  Q 214.39 108.85 235.05 90.07
  C 237.70 87.66 241.62 84.57 243.50 84.84
  Q 246.13 85.22 245.40 87.78
  Q 241.04 103.03 240.97 118.44
  C 240.95 120.68 240.16 124.36 241.03 127.48
  Q 241.16 127.96 241.65 128.05
  Q 244.95 128.66 247.53 126.97
  Q 247.96 126.68 248.10 126.19
  C 253.69 106.67 267.04 87.10 285.37 77.32
  Q 285.84 77.07 286.26 77.40
  C 287.62 78.45 286.89 79.84 286.61 81.17
  Q 283.08 98.05 283.12 112.07
  Q 283.14 116.75 282.52 119.06
  Q 282.33 119.75 283.05 119.75
  L 283.44 119.75
  Q 283.87 119.75 284.04 119.35
  C 291.62 101.07 307.62 79.71 326.70 72.47
  Q 328.42 71.81 329.21 72.83
  Q 329.56 73.28 329.38 73.82
  Q 322.14 95.60 320.07 118.50
  A 1.68 1.68 0.0 0 0 321.79 120.34
  Q 340.70 119.75 359.75 121.75
  Q 391.69 125.12 415.49 131.79
  C 441.58 139.11 469.79 151.37 492.19 168.84
  Q 496.37 172.10 499.58 176.07
  A 1.56 1.56 0.0 0 1 498.88 178.53
  Q 497.85 178.88 496.02 178.63
  Q 475.84 175.78 455.63 173.17
  C 449.80 172.42 443.40 172.26 436.76 171.73
  Q 413.45 169.87 385.45 173.49
  C 330.51 180.59 243.58 205.90 241.44 275.92
  Q 241.41 276.81 240.38 277.88
  Q 237.13 281.26 233.45 284.18
  A 1.48 1.45 78.1 0 0 232.94 284.98
  C 228.67 302.25 220.37 316.48 209.94 330.97
  Q 209.64 331.38 209.88 331.84
  C 220.04 351.02 228.63 370.70 233.32 391.94
  Q 234.20 395.92 232.12 398.63
  C 219.80 414.72 201.69 423.72 182.02 427.79
  Q 180.30 428.15 179.26 427.40
  A 0.89 0.88 -67.3 0 1 178.91 426.54
  Q 179.63 422.30 182.05 418.78
  A 0.46 0.46 0.0 0 0 181.52 418.08
  Q 171.27 421.62 160.46 422.35
  A 1.46 1.46 0.0 0 1 158.96 420.50
  L 160.55 414.96
  A 0.47 0.47 0.0 0 0 160.03 414.36
  L 149.94 415.71
  A 1.52 1.52 0.0 0 1 148.30 413.70
  C 153.96 397.61 173.52 387.54 189.35 385.23
  A 0.46 0.46 0.0 0 0 189.68 384.54
  C 189.25 383.81 188.06 383.40 187.53 383.06
  Q 159.67 364.84 141.34 337.05
  Q 141.02 336.57 140.51 336.82
  Q 132.89 340.51 124.67 342.59
  A 0.92 0.92 0.0 0 0 124.07 343.89
  Q 131.34 358.45 136.43 374.08
  C 138.09 379.18 134.21 381.49 129.97 383.91
  C 123.90 387.38 118.26 389.07 110.59 391.32
  Q 87.85 398.01 64.02 396.30
  A 1.25 1.25 0.0 0 1 62.86 395.00
  Q 62.93 393.05 65.00 392.18
  Z
  M 172.90 256.34
  L 168.92 255.04
  Q 163.15 253.62 157.30 255.82
  Q 156.82 256.00 156.55 256.44
  L 147.36 271.38
  A 0.58 0.58 0.0 0 0 148.03 272.24
  Q 153.02 270.67 158.05 271.90
  Q 159.11 271.84 160.08 272.33
  Q 170.01 275.14 176.31 282.94
  Q 186.92 296.06 190.82 314.04
  L 191.28 318.80
  C 189.61 316.57 189.88 314.12 189.37 312.20
  Q 186.27 300.49 179.53 289.71
  C 175.55 283.34 167.13 274.29 159.37 273.53
  Q 157.88 272.85 156.92 273.00
  Q 151.66 272.09 147.03 273.74
  Q 146.52 273.92 146.27 274.39
  Q 140.48 285.10 137.69 296.96
  Q 137.48 297.86 138.29 297.40
  C 154.94 287.80 180.57 306.98 190.58 319.44
  Q 190.98 319.94 191.22 319.35
  Q 191.30 319.13 191.28 318.80
  L 191.39 321.28
  Q 191.44 322.29 190.80 321.51
  L 186.72 316.58
  Q 173.30 302.64 155.31 296.96
  Q 146.07 294.05 137.87 298.88
  Q 137.27 299.23 137.01 300.49
  Q 134.68 311.96 136.43 321.98
  C 138.48 330.59 143.40 338.42 148.65 345.38
  Q 167.34 370.15 194.21 385.72
  Q 194.84 386.09 194.11 386.03
  Q 193.53 385.97 193.03 385.64
  A 1.24 1.23 -31.6 0 0 192.22 385.45
  Q 180.69 386.94 170.41 392.27
  A 0.48 0.47 -54.8 0 0 170.56 393.16
  L 172.07 393.37
  A 0.73 0.68 65.6 0 1 172.45 393.53
  L 175.72 396.20
  A 0.78 0.77 -42.2 0 0 176.66 396.24
  Q 184.16 391.06 190.84 389.15
  Q 194.48 388.11 191.08 389.79
  L 186.26 392.17
  L 179.67 395.31
  A 0.41 0.41 0.0 0 0 179.98 396.07
  C 184.77 394.40 190.29 399.08 192.50 402.93
  Q 192.78 403.43 193.22 403.06
  L 198.61 398.49
  L 204.95 394.40
  Q 205.25 394.20 205.24 394.56
  Q 205.23 394.72 205.08 394.83
  Q 203.65 395.84 202.59 396.99
  L 199.02 399.39
  Q 198.27 399.89 199.17 399.98
  Q 211.87 401.27 212.87 414.02
  Q 212.92 414.62 213.41 414.27
  L 220.24 409.41
  Q 226.92 404.45 231.59 397.23
  C 233.42 394.37 232.68 392.20 231.86 389.20
  Q 228.52 374.32 223.58 363.43
  C 219.04 353.42 214.95 343.24 209.72 333.75
  Q 209.73 332.98 208.95 332.74
  Q 208.44 332.59 208.09 332.99
  Q 205.38 336.07 203.95 337.44
  Q 203.68 337.70 203.40 337.69
  Q 203.02 337.67 203.27 337.38
  C 218.12 320.44 232.25 296.24 233.65 273.78
  C 235.08 253.20 229.54 225.70 203.38 225.40
  C 192.77 225.28 182.71 230.05 174.52 236.58
  A 0.48 0.47 13.1 0 0 175.02 237.38
  Q 175.13 237.33 175.38 237.18
  Q 175.57 237.08 175.77 237.08
  C 194.87 237.12 205.37 257.93 208.13 273.93
  C 209.20 280.12 208.77 286.14 207.54 292.27
  A 0.52 0.52 0.0 0 1 206.84 292.66
  Q 206.37 292.48 206.23 291.94
  Q 206.03 291.16 206.01 291.11
  C 200.14 276.35 188.13 262.09 172.90 256.34
  Z
  M 39.24 304.79
  C 42.64 315.57 49.16 324.56 56.50 333.00
  Q 76.16 355.61 101.45 371.67
  Q 101.77 371.88 101.40 372.00
  Q 101.14 372.08 100.85 371.89
  Q 97.06 369.39 92.73 368.08
  Q 91.77 367.79 91.07 368.19
  Q 90.70 368.40 90.27 368.35
  Q 81.28 367.30 72.40 369.01
  A 0.39 0.39 0.0 0 0 72.20 369.67
  L 75.01 372.38
  A 0.65 0.65 0.0 0 0 75.62 372.54
  Q 82.28 370.75 89.16 370.45
  Q 89.52 370.43 89.30 370.71
  Q 89.10 370.96 88.74 370.99
  Q 83.77 371.45 79.11 372.57
  A 0.50 0.50 0.0 0 0 79.05 373.52
  Q 82.55 374.78 83.49 378.43
  A 0.52 0.52 0.0 0 0 84.19 378.78
  Q 90.96 376.10 98.25 375.75
  Q 98.44 375.74 98.44 375.81
  Q 98.44 375.87 98.44 375.94
  Q 98.44 376.04 98.26 376.06
  Q 92.21 376.82 86.42 378.66
  A 0.47 0.47 0.0 0 0 86.55 379.57
  C 94.61 379.78 96.25 386.00 95.71 392.70
  A 0.79 0.79 0.0 0 0 96.65 393.54
  C 109.13 391.10 122.63 387.50 133.17 380.92
  C 135.81 379.27 136.20 376.52 135.24 373.54
  Q 131.70 362.61 126.95 352.24
  L 122.79 344.00
  A 0.67 0.66 67.3 0 0 121.99 343.67
  C 118.02 345.03 115.12 345.27 111.01 343.73
  Q 96.18 338.16 83.85 328.26
  C 81.16 326.10 77.87 322.70 74.58 320.07
  C 67.24 311.28 63.73 303.70 57.21 296.92
  C 52.67 292.43 44.14 284.69 37.95 286.14
  A 0.87 0.86 -89.4 0 0 37.31 286.77
  C 35.94 292.12 37.70 299.92 39.24 304.79
  Z"
/>
<g stroke-width="2.00" fill="none" stroke-linecap="butt">
<path stroke="#b75a64" vector-effect="non-scaling-stroke" d="
  M 285.96 80.01
  Q 274.94 85.30 268.20 95.70
  C 263.54 102.90 258.32 108.02 254.90 116.47
  Q 252.92 121.37 250.79 126.54"
/>
<path stroke="#438f77" vector-effect="non-scaling-stroke" d="
  M 251.44 238.18
  Q 250.98 237.76 249.41 238.67
  Q 248.54 239.17 248.95 238.26
  L 250.88 234.00
  Q 251.12 233.47 251.56 233.08
  Q 252.30 232.44 251.94 231.34
  Q 251.78 230.87 251.96 230.40
  C 254.52 223.67 258.82 219.01 263.26 213.27
  Q 265.73 210.08 268.95 207.56
  Q 269.38 207.22 268.93 206.89
  Q 268.63 206.67 268.18 206.63"
/>
<path stroke="#1d4137" vector-effect="non-scaling-stroke" d="
  M 172.90 256.34
  L 168.92 255.04"
/>
<path stroke="#0b362e" vector-effect="non-scaling-stroke" d="
  M 168.92 255.04
  Q 163.15 253.62 157.30 255.82
  Q 156.82 256.00 156.55 256.44
  L 147.36 271.38
  A 0.58 0.58 0.0 0 0 148.03 272.24
  Q 153.02 270.67 158.05 271.90"
/>
<path stroke="#1d4137" vector-effect="non-scaling-stroke" d="
  M 158.05 271.90
  Q 159.11 271.84 160.08 272.33"
/>
<path stroke="#0b362e" vector-effect="non-scaling-stroke" d="
  M 160.08 272.33
  Q 170.01 275.14 176.31 282.94
  Q 186.92 296.06 190.82 314.04"
/>
<path stroke="#0c2a25" vector-effect="non-scaling-stroke" d="
  M 190.82 314.04
  L 191.28 318.80"
/>
<path stroke="#6d2329" vector-effect="non-scaling-stroke" d="
  M 191.28 318.80
  C 189.61 316.57 189.88 314.12 189.37 312.20
  Q 186.27 300.49 179.53 289.71
  C 175.55 283.34 167.13 274.29 159.37 273.53"
/>
<path stroke="#774144" vector-effect="non-scaling-stroke" d="
  M 159.37 273.53
  Q 157.88 272.85 156.92 273.00"
/>
<path stroke="#6d2329" vector-effect="non-scaling-stroke" d="
  M 156.92 273.00
  Q 151.66 272.09 147.03 273.74
  Q 146.52 273.92 146.27 274.39
  Q 140.48 285.10 137.69 296.96
  Q 137.48 297.86 138.29 297.40
  C 154.94 287.80 180.57 306.98 190.58 319.44
  Q 190.98 319.94 191.22 319.35
  Q 191.30 319.13 191.28 318.80"
/>
<path stroke="#0c2a25" vector-effect="non-scaling-stroke" d="
  M 191.28 318.80
  L 191.39 321.28
  Q 191.44 322.29 190.80 321.51
  L 186.72 316.58"
/>
<path stroke="#0b362e" vector-effect="non-scaling-stroke" d="
  M 186.72 316.58
  Q 173.30 302.64 155.31 296.96
  Q 146.07 294.05 137.87 298.88
  Q 137.27 299.23 137.01 300.49
  Q 134.68 311.96 136.43 321.98"
/>
<path stroke="#0c2a25" vector-effect="non-scaling-stroke" d="
  M 136.43 321.98
  C 138.48 330.59 143.40 338.42 148.65 345.38
  Q 167.34 370.15 194.21 385.72
  Q 194.84 386.09 194.11 386.03
  Q 193.53 385.97 193.03 385.64
  A 1.24 1.23 -31.6 0 0 192.22 385.45
  Q 180.69 386.94 170.41 392.27
  A 0.48 0.47 -54.8 0 0 170.56 393.16
  L 172.07 393.37
  A 0.73 0.68 65.6 0 1 172.45 393.53
  L 175.72 396.20
  A 0.78 0.77 -42.2 0 0 176.66 396.24
  Q 184.16 391.06 190.84 389.15
  Q 194.48 388.11 191.08 389.79
  L 186.26 392.17"
/>
<path stroke="#0b362e" vector-effect="non-scaling-stroke" d="
  M 186.26 392.17
  L 179.67 395.31
  A 0.41 0.41 0.0 0 0 179.98 396.07
  C 184.77 394.40 190.29 399.08 192.50 402.93
  Q 192.78 403.43 193.22 403.06
  L 198.61 398.49"
/>
<path stroke="#0c2a25" vector-effect="non-scaling-stroke" d="
  M 198.61 398.49
  L 204.95 394.40
  Q 205.25 394.20 205.24 394.56
  Q 205.23 394.72 205.08 394.83
  Q 203.65 395.84 202.59 396.99"
/>
<path stroke="#0b362e" vector-effect="non-scaling-stroke" d="
  M 202.59 396.99
  L 199.02 399.39
  Q 198.27 399.89 199.17 399.98
  Q 211.87 401.27 212.87 414.02
  Q 212.92 414.62 213.41 414.27
  L 220.24 409.41"
/>
<path stroke="#0c2a25" vector-effect="non-scaling-stroke" d="
  M 220.24 409.41
  Q 226.92 404.45 231.59 397.23
  C 233.42 394.37 232.68 392.20 231.86 389.20"
/>
<path stroke="#1d4137" vector-effect="non-scaling-stroke" d="
  M 231.86 389.20
  Q 228.52 374.32 223.58 363.43
  C 219.04 353.42 214.95 343.24 209.72 333.75"
/>
<path stroke="#0c2a25" vector-effect="non-scaling-stroke" d="
  M 209.72 333.75
  Q 209.73 332.98 208.95 332.74
  Q 208.44 332.59 208.09 332.99
  Q 205.38 336.07 203.95 337.44
  Q 203.68 337.70 203.40 337.69
  Q 203.02 337.67 203.27 337.38
  C 218.12 320.44 232.25 296.24 233.65 273.78"
/>
<path stroke="#0b362e" vector-effect="non-scaling-stroke" d="
  M 233.65 273.78
  C 235.08 253.20 229.54 225.70 203.38 225.40
  C 192.77 225.28 182.71 230.05 174.52 236.58
  A 0.48 0.47 13.1 0 0 175.02 237.38
  Q 175.13 237.33 175.38 237.18
  Q 175.57 237.08 175.77 237.08
  C 194.87 237.12 205.37 257.93 208.13 273.93
  C 209.20 280.12 208.77 286.14 207.54 292.27
  A 0.52 0.52 0.0 0 1 206.84 292.66
  Q 206.37 292.48 206.23 291.94
  Q 206.03 291.16 206.01 291.11
  C 200.14 276.35 188.13 262.09 172.90 256.34"
/>
<path stroke="#155e51" vector-effect="non-scaling-stroke" d="
  M 233.65 273.78
  Q 229.57 277.47 226.10 281.71
  C 215.77 294.31 204.23 304.77 190.82 314.04"
/>
<path stroke="#257563" vector-effect="non-scaling-stroke" d="
  M 160.08 272.33
  Q 161.87 269.02 163.63 265.79
  C 165.85 261.71 170.20 260.32 172.90 256.34"
/>
<path stroke="#27695a" vector-effect="non-scaling-stroke" d="
  M 209.72 333.75
  Q 209.40 333.72 209.21 333.90
  Q 208.83 334.26 209.09 334.71
  Q 213.37 342.26 214.80 345.69
  C 220.91 360.40 227.34 374.26 230.78 389.66
  A 0.47 0.47 0.0 0 0 231.69 389.71
  L 231.86 389.20"
/>
<path stroke="#155e51" vector-effect="non-scaling-stroke" d="
  M 220.24 409.41
  Q 216.96 402.78 209.61 399.33
  C 207.54 398.36 204.90 398.10 202.59 396.99"
/>
<path stroke="#155e51" vector-effect="non-scaling-stroke" d="
  M 198.61 398.49
  Q 196.90 396.37 194.26 394.61
  C 191.95 393.08 188.99 393.09 186.26 392.17"
/>
<path stroke="#155e51" vector-effect="non-scaling-stroke" d="
  M 136.43 321.98
  Q 137.19 322.10 137.72 321.92
  Q 138.16 321.77 138.49 322.08
  Q 150.32 333.18 165.36 327.04
  Q 169.86 325.20 172.82 324.16
  C 178.56 322.13 182.09 319.80 186.72 316.58"
/>
<path stroke="#e2626b" vector-effect="non-scaling-stroke" d="
  M 156.92 273.00
  Q 155.75 275.10 154.53 277.07
  C 152.14 280.93 150.72 285.63 149.14 289.90
  A 0.45 0.45 0.0 0 0 149.59 290.50
  Q 150.51 290.44 150.87 289.58
  Q 154.37 281.26 159.37 273.53"
/>
<path stroke="#257563" vector-effect="non-scaling-stroke" d="
  M 168.92 255.04
  C 164.50 259.42 161.26 266.34 158.05 271.90"
/>
<path stroke="#e2626b" vector-effect="non-scaling-stroke" d="
  M 173.93 255.58
  L 179.67 245.96
  A 0.93 0.92 -4.6 0 0 178.28 244.78
  Q 173.04 249.15 169.54 254.25"
/>
<path stroke="#e2626b" vector-effect="non-scaling-stroke" d="
  M 160.93 251.55
  L 173.42 238.02"
/>
<path stroke="#0c2a25" vector-effect="non-scaling-stroke" d="
  M 39.24 304.79
  C 42.64 315.57 49.16 324.56 56.50 333.00
  Q 76.16 355.61 101.45 371.67
  Q 101.77 371.88 101.40 372.00
  Q 101.14 372.08 100.85 371.89
  Q 97.06 369.39 92.73 368.08
  Q 91.77 367.79 91.07 368.19
  Q 90.70 368.40 90.27 368.35
  Q 81.28 367.30 72.40 369.01
  A 0.39 0.39 0.0 0 0 72.20 369.67
  L 75.01 372.38
  A 0.65 0.65 0.0 0 0 75.62 372.54
  Q 82.28 370.75 89.16 370.45
  Q 89.52 370.43 89.30 370.71
  Q 89.10 370.96 88.74 370.99
  Q 83.77 371.45 79.11 372.57
  A 0.50 0.50 0.0 0 0 79.05 373.52
  Q 82.55 374.78 83.49 378.43
  A 0.52 0.52 0.0 0 0 84.19 378.78
  Q 90.96 376.10 98.25 375.75
  Q 98.44 375.74 98.44 375.81
  Q 98.44 375.87 98.44 375.94
  Q 98.44 376.04 98.26 376.06
  Q 92.21 376.82 86.42 378.66
  A 0.47 0.47 0.0 0 0 86.55 379.57
  C 94.61 379.78 96.25 386.00 95.71 392.70
  A 0.79 0.79 0.0 0 0 96.65 393.54
  C 109.13 391.10 122.63 387.50 133.17 380.92
  C 135.81 379.27 136.20 376.52 135.24 373.54
  Q 131.70 362.61 126.95 352.24"
/>
<path stroke="#101d21" vector-effect="non-scaling-stroke" d="
  M 126.95 352.24
  L 122.79 344.00
  A 0.67 0.66 67.3 0 0 121.99 343.67
  C 118.02 345.03 115.12 345.27 111.01 343.73
  Q 96.18 338.16 83.85 328.26
  C 81.16 326.10 77.87 322.70 74.58 320.07"
/>
<path stroke="#0c2a25" vector-effect="non-scaling-stroke" d="
  M 74.58 320.07
  C 67.24 311.28 63.73 303.70 57.21 296.92"
/>
<path stroke="#0b362e" vector-effect="non-scaling-stroke" d="
  M 57.21 296.92
  C 52.67 292.43 44.14 284.69 37.95 286.14
  A 0.87 0.86 -89.4 0 0 37.31 286.77
  C 35.94 292.12 37.70 299.92 39.24 304.79"
/>
<path stroke="#155e51" vector-effect="non-scaling-stroke" d="
  M 57.21 296.92
  C 51.57 303.22 46.99 303.09 39.24 304.79"
/>
<path stroke="#1a4544" vector-effect="non-scaling-stroke" d="
  M 74.58 320.07
  C 75.86 326.50 79.45 327.50 82.68 332.01
  A 1.00 0.03 54.3 0 0 83.25 332.76
  Q 85.48 334.32 86.10 336.94
  Q 86.22 337.44 86.59 337.79
  Q 93.73 344.57 102.60 348.86
  C 105.38 350.21 107.71 351.74 110.75 352.35
  C 115.48 353.29 122.84 355.60 126.95 352.24"
/>
</g>
<path fill="#f0a39e" d="
  M 324.40 86.76
  L 322.29 86.49
  Q 321.81 86.43 321.68 86.90
  Q 321.27 88.33 320.02 89.08
  Q 319.57 89.34 319.28 89.77
  C 317.24 92.71 315.12 94.76 312.87 98.11
  C 311.16 100.67 308.82 101.64 306.30 103.17
  Q 300.46 106.72 294.19 109.71
  Q 293.74 109.93 293.46 110.34
  Q 286.44 120.64 282.65 133.15
  Q 281.38 133.71 280.96 132.39
  Q 280.74 131.70 280.70 131.03
  C 288.22 107.39 303.45 84.82 326.11 73.52
  Q 329.24 71.96 328.15 75.28
  L 324.40 86.76
  Z"
/>
<path fill="#c3686d" d="
  M 285.96 80.01
  Q 274.94 85.30 268.20 95.70
  C 263.54 102.90 258.32 108.02 254.90 116.47
  Q 252.92 121.37 250.79 126.54
  Q 250.63 126.70 249.69 126.77
  A 0.60 0.59 -83.1 0 1 249.08 125.99
  C 255.87 105.76 266.60 89.39 285.70 77.88
  Q 286.15 77.60 286.25 78.13
  Q 286.36 78.70 285.96 80.01
  Z"
/>
<path fill="#aa4b5b" d="
  M 285.96 80.01
  Q 281.59 100.39 281.99 121.87
  Q 281.99 122.24 281.62 122.30
  L 250.79 126.54
  Q 252.92 121.37 254.90 116.47
  C 258.32 108.02 263.54 102.90 268.20 95.70
  Q 274.94 85.30 285.96 80.01
  Z"
/>
<path fill="#f0a39e" d="
  M 240.05 110.37
  Q 234.02 116.52 230.39 124.39
  C 229.87 125.53 228.97 126.17 228.67 127.61
  Q 228.57 128.12 228.20 128.48
  Q 223.15 133.46 219.84 139.73
  A 0.79 0.76 -85.2 0 1 219.43 140.09
  L 211.04 143.29
  A 0.42 0.40 1.2 0 0 210.79 143.52
  Q 208.97 147.61 208.11 152.02
  Q 206.75 159.05 208.99 164.20
  L 207.98 164.86
  A 2.09 2.09 0.0 0 1 204.74 163.24
  Q 204.03 151.38 206.82 140.02
  Q 214.16 109.07 238.36 88.38
  Q 240.65 86.43 243.25 85.56
  A 0.98 0.98 0.0 0 1 244.50 86.77
  Q 240.89 98.51 240.05 110.37
  Z"
/>
<path fill="#f0a39e" d="
  M 186.78 88.51
  Q 185.25 88.38 184.33 89.91
  Q 177.04 94.37 171.50 100.98
  Q 159.54 115.22 151.95 132.19
  Q 148.99 138.81 142.19 162.32
  Q 140.51 163.37 140.30 162.51
  Q 145.28 135.88 159.39 113.05
  C 165.87 102.55 175.33 91.29 186.71 85.89
  A 0.58 0.58 0.0 0 1 187.50 86.62
  L 186.78 88.51
  Z"
/>
<path fill="#eb7f86" d="
  M 324.40 86.76
  Q 320.97 100.45 319.36 114.50
  C 318.97 117.92 319.28 121.99 318.92 125.77
  Q 318.87 126.38 318.25 126.52
  Q 311.37 128.08 302.19 129.37
  C 295.51 130.31 289.28 131.83 282.65 133.15
  Q 286.44 120.64 293.46 110.34
  Q 293.74 109.93 294.19 109.71
  Q 300.46 106.72 306.30 103.17
  C 308.82 101.64 311.16 100.67 312.87 98.11
  C 315.12 94.76 317.24 92.71 319.28 89.77
  Q 319.57 89.34 320.02 89.08
  Q 321.27 88.33 321.68 86.90
  Q 321.81 86.43 322.29 86.49
  L 324.40 86.76
  Z"
/>
<path fill="#aa4b5b" d="
  M 186.78 88.51
  Q 181.92 115.58 184.16 142.33
  A 1.98 1.97 75.7 0 1 183.00 144.29
  L 169.02 150.63
  Q 168.31 150.95 168.36 150.18
  L 169.27 134.70
  A 1.43 1.43 0.0 0 0 166.96 133.50
  Q 160.06 139.00 154.38 146.74
  L 145.42 158.90
  Q 151.88 132.44 166.07 109.96
  C 170.74 102.56 178.14 96.28 184.33 89.91
  Q 185.25 88.38 186.78 88.51
  Z"
/>
<path fill="#c3686d" d="
  M 184.33 89.91
  C 178.14 96.28 170.74 102.56 166.07 109.96
  Q 151.88 132.44 145.42 158.90
  Q 145.99 161.42 142.19 162.32
  Q 148.99 138.81 151.95 132.19
  Q 159.54 115.22 171.50 100.98
  Q 177.04 94.37 184.33 89.91
  Z"
/>
<path fill="#eb7f86" d="
  M 240.05 110.37
  Q 239.13 128.16 241.35 145.49
  Q 241.43 147.17 240.44 147.69
  Q 225.07 155.67 208.99 164.20
  Q 206.75 159.05 208.11 152.02
  Q 208.97 147.61 210.79 143.52
  A 0.42 0.40 1.2 0 1 211.04 143.29
  L 219.43 140.09
  A 0.79 0.76 -85.2 0 0 219.84 139.73
  Q 223.15 133.46 228.20 128.48
  Q 228.57 128.12 228.67 127.61
  C 228.97 126.17 229.87 125.53 230.39 124.39
  Q 234.02 116.52 240.05 110.37
  Z"
/>
<path fill="#d84450" d="
  M 421.76 136.02
  Q 421.26 138.25 419.51 140.26
  Q 419.18 140.65 419.24 141.16
  Q 419.44 142.97 418.01 142.77
  Q 399.61 138.78 381.12 137.30
  A 1.73 1.72 8.9 0 0 379.30 138.62
  Q 376.94 148.58 371.39 157.17
  A 0.33 0.33 0.0 0 1 370.78 156.99
  Q 370.66 146.88 366.65 137.64
  A 1.90 1.88 -9.3 0 0 365.06 136.51
  Q 341.39 134.72 317.83 137.85
  Q 316.61 138.01 316.70 139.24
  Q 317.85 155.09 312.53 170.04
  A 0.28 0.27 -40.4 0 1 312.00 170.00
  C 310.34 160.57 306.14 148.71 299.19 141.75
  Q 298.82 141.38 298.30 141.48
  Q 266.94 147.36 238.92 162.60
  A 1.47 1.46 -25.0 0 0 238.25 164.41
  Q 241.59 173.16 242.68 181.46
  Q 237.19 183.96 232.32 187.97
  Q 226.55 180.08 219.77 174.63
  Q 218.88 173.90 217.88 174.48
  Q 198.76 185.60 182.60 201.11
  L 182.70 197.51
  L 183.86 195.60
  Q 184.19 195.04 183.54 194.97
  Q 183.12 194.93 182.56 195.79
  L 157.64 211.01
  Q 157.53 211.08 157.51 211.20
  Q 157.48 211.34 157.57 211.43
  Q 152.13 215.69 146.30 217.93
  Q 159.90 206.52 169.45 194.44
  C 170.32 193.34 169.35 191.63 169.23 190.44
  Q 167.64 174.04 168.10 154.49
  Q 168.19 150.87 171.01 151.68
  L 205.59 138.96
  C 203.90 145.47 201.03 160.69 205.20 166.23
  A 0.21 0.21 0.0 0 1 205.14 166.53
  Q 189.60 176.07 175.62 187.10
  Q 173.55 188.73 170.58 192.42
  Q 170.49 192.52 170.52 192.61
  Q 170.54 192.67 170.58 192.70
  Q 170.71 192.80 170.87 192.63
  C 178.14 185.05 188.96 178.12 197.76 172.32
  C 210.72 163.78 226.05 156.72 240.20 149.22
  Q 242.33 148.09 242.65 146.23
  L 241.10 130.80
  A 1.14 1.14 0.0 0 1 242.02 129.56
  Q 261.27 125.77 280.76 123.61
  A 0.74 0.74 0.0 0 1 281.54 124.58
  L 279.61 130.26
  Q 279.37 131.88 280.15 133.68
  Q 280.37 134.19 279.83 134.32
  Q 261.50 138.60 244.32 146.34
  Q 243.77 146.59 243.45 146.91
  A 0.26 0.26 0.0 0 0 243.73 147.34
  Q 257.62 141.84 271.65 137.55
  C 285.90 133.19 301.32 130.66 316.31 128.05
  C 327.46 126.11 340.80 125.60 350.50 126.28
  C 367.93 127.50 383.54 128.41 402.44 131.57
  L 407.08 132.20
  Q 407.21 132.22 407.24 132.09
  Q 407.25 132.04 407.25 131.99
  Q 407.24 131.81 406.98 131.78
  L 402.50 131.33
  Q 392.84 129.04 385.50 128.26
  C 365.26 126.08 342.15 124.19 320.03 126.28
  L 320.33 121.82
  Q 320.36 121.28 320.91 121.28
  C 340.65 121.17 352.82 121.89 371.50 124.13
  C 388.67 126.18 405.27 129.98 421.90 134.26
  A 0.34 0.33 29.6 0 1 422.06 134.82
  L 421.80 135.07
  Q 421.61 135.26 421.35 135.22
  Q 419.04 134.79 416.75 134.23
  Q 416.53 134.18 416.41 134.28
  Q 416.24 134.42 416.46 134.48
  L 421.76 136.02
  Z"
/>
<path fill="#39261b" d="
  M 402.50 131.33
  Q 402.47 131.45 402.44 131.57
  C 383.54 128.41 367.93 127.50 350.50 126.28
  C 340.80 125.60 327.46 126.11 316.31 128.05
  C 301.32 130.66 285.90 133.19 271.65 137.55
  Q 257.62 141.84 243.73 147.34
  A 0.26 0.26 0.0 0 1 243.45 146.91
  Q 243.77 146.59 244.32 146.34
  Q 261.50 138.60 279.83 134.32
  Q 280.37 134.19 280.15 133.68
  Q 279.37 131.88 279.61 130.26
  L 279.77 130.98
  Q 279.84 131.33 280.16 131.17
  Q 280.47 131.02 280.70 131.03
  Q 280.74 131.70 280.96 132.39
  Q 281.38 133.71 282.65 133.15
  C 289.28 131.83 295.51 130.31 302.19 129.37
  Q 311.37 128.08 318.25 126.52
  Q 318.87 126.38 318.92 125.77
  Q 319.88 125.94 320.03 126.28
  C 342.15 124.19 365.26 126.08 385.50 128.26
  Q 392.84 129.04 402.50 131.33
  Z"
/>
<path fill="#f0a39e" d="
  M 109.10 131.72
  C 103.70 133.65 101.08 138.37 97.05 142.01
  C 88.83 149.44 83.13 156.30 78.38 166.52
  Q 77.18 167.28 75.84 167.21
  Q 75.20 167.18 75.48 166.60
  Q 86.59 143.57 108.23 129.99
  A 0.67 0.67 0.0 0 1 109.25 130.49
  Q 109.30 131.12 109.10 131.72
  Z"
/>
<path fill="#aa4b5b" d="
  M 402.50 131.33
  L 406.98 131.78
  Q 407.24 131.81 407.25 131.99
  Q 407.25 132.04 407.24 132.09
  Q 407.21 132.22 407.08 132.20
  L 402.44 131.57
  Q 402.47 131.45 402.50 131.33
  Z"
/>
<path fill="#c3686d" d="
  M 109.10 131.72
  L 105.00 161.30
  Q 100.62 162.23 93.94 163.06
  Q 92.08 163.29 91.77 165.43
  L 78.38 166.52
  C 83.13 156.30 88.83 149.44 97.05 142.01
  C 101.08 138.37 103.70 133.65 109.10 131.72
  Z"
/>
<path fill="#f0a39e" d="
  M 167.46 187.48
  Q 167.18 187.94 167.20 188.71
  Q 167.21 189.37 166.67 188.98
  L 166.41 188.78
  Q 166.12 188.57 166.17 188.22
  Q 166.71 184.63 164.93 181.49
  A 1.02 1.00 -11.1 0 0 164.17 180.99
  L 159.32 180.45
  Q 158.66 180.38 158.20 180.84
  L 150.28 188.62
  Q 149.81 189.08 149.16 189.02
  L 141.38 188.31
  A 0.58 0.56 -60.4 0 0 140.98 188.43
  C 138.67 190.28 139.23 192.52 138.72 194.65
  Q 135.31 208.90 134.31 223.42
  Q 133.51 224.68 132.50 224.46
  Q 130.88 222.19 130.92 218.74
  C 131.17 192.99 140.40 167.60 155.41 147.63
  C 158.75 142.53 162.98 137.16 167.85 134.13
  Q 168.46 133.75 168.37 134.47
  Q 165.05 161.00 167.46 187.48
  Z"
/>
<path fill="#aa4b5b" d="
  M 421.76 136.02
  Q 435.97 138.97 445.51 143.23
  C 463.20 151.12 480.51 160.10 495.42 172.69
  A 0.32 0.32 0.0 0 1 495.07 173.22
  Q 481.31 166.25 467.48 159.05
  Q 457.83 154.03 436.75 147.16
  Q 436.27 147.01 435.99 147.43
  L 427.65 160.04
  A 0.78 0.78 0.0 0 1 426.23 159.48
  Q 427.49 152.04 425.30 144.89
  Q 425.14 144.37 424.61 144.25
  L 418.01 142.77
  Q 419.44 142.97 419.24 141.16
  Q 419.18 140.65 419.51 140.26
  Q 421.26 138.25 421.76 136.02
  Z"
/>
<path fill="#136a5a" d="
  M 417.96 143.78
  L 421.49 151.97
  Q 421.68 152.43 421.56 152.91
  C 420.76 156.19 417.29 163.13 414.29 164.53
  C 411.30 165.93 408.61 167.98 405.19 167.93
  Q 400.83 167.88 396.49 168.48
  Q 396.03 168.54 395.94 169.00
  C 395.54 171.07 392.96 170.68 391.48 171.45
  L 371.26 174.34
  Q 368.55 174.68 366.27 173.44
  A 1.55 1.49 -34.0 0 0 365.30 173.27
  C 340.48 176.83 315.10 182.56 292.12 192.84
  C 287.66 194.84 276.93 197.98 275.49 201.99
  Q 248.27 214.11 226.33 234.44
  Q 225.95 234.79 225.61 234.40
  C 212.35 219.07 190.57 222.91 175.93 233.80
  A 0.69 0.68 -24.4 0 1 174.85 233.40
  C 173.85 228.85 171.86 221.92 168.59 218.43
  L 179.27 205.71
  C 191.15 193.75 203.95 184.59 217.99 175.64
  A 1.24 1.24 0.0 0 1 219.47 175.75
  C 229.80 184.85 236.18 195.28 242.83 207.22
  A 0.79 0.78 -29.1 0 0 243.89 207.52
  Q 243.99 207.47 244.21 207.18
  Q 244.33 207.01 244.35 206.77
  Q 245.28 195.91 244.39 185.07
  C 248.32 181.81 252.28 181.99 256.19 180.10
  Q 262.07 177.26 267.00 173.49
  A 0.90 0.90 0.0 0 0 266.28 171.89
  C 264.15 172.32 262.33 172.72 260.39 173.76
  Q 252.49 178.00 244.01 181.38
  Q 242.86 172.52 239.74 164.56
  A 1.01 1.00 65.3 0 1 240.20 163.30
  C 257.95 153.77 278.35 146.36 297.97 142.67
  A 0.92 0.91 64.6 0 1 298.86 142.99
  Q 303.90 149.09 306.84 156.41
  Q 304.79 157.24 302.67 157.57
  C 297.69 158.33 289.60 161.31 286.81 165.01
  A 0.47 0.47 0.0 0 0 287.18 165.76
  Q 290.71 165.86 293.87 164.40
  C 296.70 163.08 299.15 162.80 301.88 161.79
  C 303.60 161.16 305.29 159.52 307.95 159.04
  L 311.55 171.06
  A 0.78 0.78 0.0 0 0 313.02 171.12
  Q 319.05 155.97 317.78 139.65
  Q 317.74 139.06 318.32 138.95
  C 333.21 136.34 349.51 136.21 364.46 137.62
  A 1.80 1.79 81.6 0 1 365.96 138.74
  Q 369.55 147.92 369.82 157.77
  A 0.84 0.84 0.0 0 0 371.33 158.25
  Q 377.24 150.37 379.60 140.30
  Q 379.90 139.02 380.66 138.76
  Q 381.47 138.48 382.81 138.62
  Q 404.40 140.74 417.96 143.78
  Z"
/>
<path fill="#aa4b5b" d="
  M 205.71 139.00
  Q 205.65 138.98 205.59 138.96
  L 171.01 151.68
  Q 179.49 146.51 184.70 144.47
  Q 192.16 141.54 205.22 138.23
  Q 205.69 138.11 205.77 138.59
  Q 205.80 138.77 205.71 139.00
  Z"
/>
<path fill="#39261b" d="
  M 205.59 138.96
  Q 205.65 138.98 205.71 139.00
  L 205.75 139.49
  Q 205.79 139.99 206.29 140.01
  L 206.82 140.02
  Q 204.03 151.38 204.74 163.24
  A 2.09 2.09 0.0 0 0 207.98 164.86
  L 208.99 164.20
  Q 225.07 155.67 240.44 147.69
  Q 241.43 147.17 241.35 145.49
  Q 241.43 146.54 242.65 146.23
  Q 242.33 148.09 240.20 149.22
  C 226.05 156.72 210.72 163.78 197.76 172.32
  C 188.96 178.12 178.14 185.05 170.87 192.63
  Q 170.71 192.80 170.58 192.70
  Q 170.54 192.67 170.52 192.61
  Q 170.49 192.52 170.58 192.42
  Q 173.55 188.73 175.62 187.10
  Q 189.60 176.07 205.14 166.53
  A 0.21 0.21 0.0 0 0 205.20 166.23
  C 201.03 160.69 203.90 145.47 205.59 138.96
  Z"
/>
<path fill="#39261b" d="
  M 53.63 142.52
  L 52.82 143.00
  Q 53.59 142.87 52.22 142.70
  Q 52.30 142.37 52.20 141.97
  Q 52.39 141.63 52.70 141.51
  A 0.55 0.54 -8.8 0 1 53.43 142.04
  Q 53.41 142.32 53.63 142.52
  Z"
/>
<path fill="#020202" fill-opacity="0.996" d="
  M 52.20 141.97
  Q 52.30 142.37 52.22 142.70
  C 42.65 150.48 38.16 158.78 33.08 169.78
  C 32.32 162.81 46.01 145.01 52.20 141.97
  Z"
/>
<path fill="#020202" fill-opacity="0.996" d="
  M 53.63 142.52
  L 50.01 159.38
  Q 49.87 160.03 50.53 159.94
  L 51.32 159.84
  Q 44.40 166.90 39.61 175.61
  A 0.19 0.19 0.0 0 1 39.25 175.54
  C 38.96 172.64 46.58 163.54 48.44 161.60
  A 1.63 1.62 73.5 0 0 48.86 160.82
  L 52.82 143.00
  L 53.63 142.52
  Z"
/>
<path fill="#e9e49d" d="
  M 52.22 142.70
  Q 53.59 142.87 52.82 143.00
  L 48.86 160.82
  A 1.63 1.62 73.5 0 1 48.44 161.60
  C 46.58 163.54 38.96 172.64 39.25 175.54
  A 0.19 0.19 0.0 0 0 39.61 175.61
  Q 44.40 166.90 51.32 159.84
  C 61.69 151.34 71.31 145.46 84.66 143.10
  A 0.36 0.36 0.0 0 1 84.98 143.70
  Q 74.24 155.38 67.20 169.61
  Q 66.96 170.09 66.47 170.31
  Q 60.15 173.12 54.50 177.10
  Q 53.94 177.49 54.62 177.50
  Q 54.76 177.50 54.88 177.51
  A 0.68 0.64 28.6 0 0 55.31 177.40
  Q 75.75 164.00 100.25 167.33
  Q 101.21 167.46 100.42 168.01
  L 82.49 180.50
  L 73.40 186.49
  A 1.62 1.61 28.2 0 1 72.52 186.75
  L 69.45 186.75
  Q 68.86 186.75 69.21 187.22
  Q 69.30 187.33 69.42 187.43
  Q 69.66 187.63 70.09 187.67
  Q 84.34 189.09 97.79 193.58
  A 0.34 0.34 0.0 0 1 97.80 194.23
  Q 86.00 198.57 73.71 201.04
  C 71.74 201.44 70.67 200.83 68.98 200.02
  Q 68.67 199.87 68.63 200.22
  Q 68.61 200.35 68.66 200.50
  Q 68.72 200.73 69.01 200.90
  Q 77.17 205.85 84.16 212.37
  A 0.40 0.40 0.0 0 1 83.82 213.06
  L 64.04 209.65
  Q 65.90 208.10 68.72 208.09
  A 0.54 0.54 0.0 0 0 69.10 207.16
  Q 65.73 203.93 61.50 201.94
  A 0.73 0.72 44.7 0 1 61.49 200.63
  L 70.39 196.34
  A 0.53 0.53 0.0 0 0 70.39 195.38
  Q 64.42 192.56 57.81 192.50
  A 0.49 0.49 0.0 0 1 57.43 191.70
  L 64.58 182.66
  Q 65.30 181.75 64.14 181.62
  Q 55.80 180.72 48.12 183.80
  A 0.47 0.47 0.0 0 1 47.48 183.32
  Q 48.16 176.53 50.25 170.03
  A 0.67 0.66 -6.8 0 0 49.27 169.26
  Q 41.81 173.73 37.95 181.57
  A 0.47 0.46 54.5 0 1 37.07 181.42
  L 35.89 172.44
  Q 35.80 171.72 35.28 172.23
  Q 33.35 174.10 32.62 176.66
  A 1.07 1.01 -82.6 0 1 31.66 177.44
  Q 31.49 177.44 31.41 176.71
  L 33.08 169.78
  C 38.16 158.78 42.65 150.48 52.22 142.70
  Z"
/>
<path fill="#165148" d="
  M 417.96 143.78
  L 423.71 144.82
  A 1.69 1.69 0.0 0 1 425.07 146.18
  Q 426.41 153.56 425.73 161.05
  A 0.43 0.43 0.0 0 0 426.45 161.40
  Q 432.58 155.87 435.89 148.38
  Q 436.06 147.99 436.47 148.13
  Q 460.74 156.41 469.51 160.98
  Q 480.54 166.72 491.58 172.44
  C 493.35 173.35 496.19 173.91 498.18 175.79
  Q 499.25 176.81 498.91 177.16
  A 3.25 2.78 24.1 0 1 496.26 177.94
  L 482.05 175.76
  Q 481.54 175.68 481.05 175.86
  C 479.68 176.38 479.01 175.53 477.99 175.35
  Q 451.86 170.77 422.50 170.23
  Q 405.22 169.92 391.48 171.45
  C 392.96 170.68 395.54 171.07 395.94 169.00
  Q 396.03 168.54 396.49 168.48
  Q 400.83 167.88 405.19 167.93
  C 408.61 167.98 411.30 165.93 414.29 164.53
  C 417.29 163.13 420.76 156.19 421.56 152.91
  Q 421.68 152.43 421.49 151.97
  L 417.96 143.78
  Z"
/>
<path fill="#39261b" d="
  M 154.38 146.74
  Q 154.46 146.91 154.50 147.08
  Q 154.59 147.42 154.92 147.49
  Q 155.13 147.54 155.41 147.63
  C 140.40 167.60 131.17 192.99 130.92 218.74
  Q 130.88 222.19 132.50 224.46
  Q 131.85 225.12 130.60 225.09
  Q 113.90 210.40 90.18 211.15
  Q 88.49 211.21 88.76 212.88
  Q 90.14 221.22 88.81 229.42
  A 0.45 0.45 0.0 0 0 89.47 229.88
  C 98.30 224.92 108.46 229.04 114.84 236.12
  Q 115.41 236.69 115.23 237.26
  Q 115.05 237.84 114.65 237.38
  C 108.27 230.17 98.43 226.12 89.38 231.23
  A 0.91 0.90 68.1 0 0 88.95 232.24
  L 89.58 234.70
  A 0.34 0.34 0.0 0 1 88.96 234.96
  Q 87.21 232.14 87.63 228.82
  Q 88.74 220.01 87.04 211.54
  Q 85.54 205.56 81.71 201.10
  A 0.80 0.79 63.4 0 0 80.94 200.84
  L 74.49 202.14
  A 0.34 0.34 0.0 0 0 74.37 202.76
  Q 80.37 206.84 85.40 211.99
  L 86.19 213.56
  Q 86.47 214.10 85.94 214.41
  Q 85.47 214.67 84.68 214.34
  L 76.24 212.67
  A 0.51 0.51 0.0 0 0 75.65 213.32
  L 77.34 218.75
  Q 78.86 228.57 75.25 235.75
  Q 69.41 247.35 72.35 257.66
  Q 74.85 265.44 81.85 268.85
  Q 82.37 269.11 82.60 268.57
  C 84.96 262.96 89.41 263.73 94.25 265.17
  Q 94.88 265.36 94.70 264.72
  L 93.02 258.92
  L 93.05 257.68
  Q 91.80 254.09 92.86 250.43
  A 0.24 0.24 0.0 0 1 93.33 250.49
  Q 93.55 258.25 96.52 265.43
  Q 96.69 265.83 97.06 266.06
  L 102.91 269.69
  Q 103.48 270.04 102.86 270.29
  Q 102.57 270.40 102.29 270.24
  Q 96.45 266.83 90.33 265.60
  C 86.42 264.81 85.04 266.19 83.50 269.48
  Q 78.22 280.78 80.11 290.84
  Q 80.99 294.49 83.08 295.32
  Q 83.51 295.49 83.74 295.89
  Q 86.08 300.01 90.78 300.45
  A 0.36 0.36 0.0 0 0 91.11 299.89
  L 88.51 296.10
  Q 88.35 295.87 88.59 295.72
  L 89.04 295.46
  A 0.26 0.26 0.0 0 1 89.41 295.59
  C 90.68 298.79 95.86 303.47 98.94 299.70
  Q 99.28 299.29 98.78 299.12
  Q 95.60 298.06 94.30 295.43
  C 90.31 288.01 90.95 280.56 92.87 272.82
  A 1.02 1.01 21.0 0 1 94.33 272.18
  Q 99.28 274.83 104.72 276.20
  A 1.53 1.52 -89.9 0 0 106.57 274.35
  Q 104.04 264.31 101.95 254.26
  Q 101.66 252.89 102.31 251.98
  Q 102.81 251.28 102.92 252.14
  L 103.15 253.85
  Q 105.10 263.40 107.48 272.46
  C 109.16 278.85 104.13 276.93 100.74 276.22
  L 94.51 273.72
  Q 93.99 273.51 93.90 274.06
  L 92.96 279.75
  L 92.56 284.80
  Q 92.53 288.56 93.87 291.29
  Q 95.09 297.60 100.74 298.65
  Q 101.27 298.75 100.95 299.19
  C 99.22 301.63 97.41 302.17 94.26 301.77
  C 92.14 301.51 89.80 301.87 87.90 300.90
  Q 76.02 294.84 78.84 280.14
  L 81.62 270.60
  Q 81.78 270.07 81.28 269.81
  Q 76.24 267.23 73.43 262.29
  A 0.60 0.60 0.0 0 0 72.35 262.36
  L 71.56 264.30
  Q 66.59 269.55 67.94 274.63
  C 68.32 279.71 70.56 288.49 76.09 290.52
  A 0.73 0.73 0.0 0 1 76.29 291.78
  Q 73.66 293.82 70.16 293.39
  L 64.08 294.85
  Q 63.54 294.98 63.07 294.71
  Q 61.08 293.60 58.73 294.04
  L 58.47 293.05
  L 58.80 293.16
  Q 58.98 293.22 59.34 292.95
  Q 59.56 292.79 59.57 292.47
  C 59.57 292.00 57.65 289.08 57.43 287.74
  L 57.06 286.00
  L 57.37 285.98
  Q 57.82 288.13 58.67 288.61
  Q 61.04 295.20 67.06 293.26
  A 0.61 0.61 0.0 0 0 67.24 292.19
  Q 65.19 290.64 64.25 288.86
  Q 64.12 288.58 63.99 288.31
  L 64.49 287.95
  L 65.39 288.61
  Q 67.70 293.56 74.27 291.93
  Q 75.74 291.57 74.37 290.92
  Q 71.93 289.78 70.00 286.31
  C 66.58 279.07 67.16 272.34 65.02 264.85
  Q 64.88 264.34 65.29 264.67
  Q 66.97 266.04 66.73 268.24
  Q 66.62 269.29 67.34 268.52
  Q 68.39 267.40 68.72 265.75
  Q 70.37 263.87 71.74 261.67
  Q 72.41 260.61 71.83 259.43
  Q 69.90 255.51 69.99 251.32
  A 0.25 0.25 0.0 0 0 69.51 251.20
  L 64.84 260.37
  A 0.50 0.49 27.6 0 0 65.05 261.03
  Q 67.32 262.20 68.50 264.43
  A 0.39 0.39 0.0 0 1 68.47 264.85
  Q 68.29 265.08 67.94 265.06
  C 63.30 258.27 57.26 260.06 55.45 267.74
  C 54.08 273.56 52.60 280.63 53.67 286.56
  Q 53.72 286.62 53.78 286.68
  L 52.57 287.29
  Q 52.15 283.16 52.20 278.94
  C 52.24 275.08 51.28 271.20 51.21 267.25
  C 51.16 264.65 48.34 264.02 45.95 263.27
  L 46.31 262.72
  Q 48.36 262.76 50.37 264.03
  A 0.44 0.44 0.0 0 0 51.04 263.71
  L 51.65 258.67
  L 52.82 273.69
  A 0.09 0.09 0.0 0 0 52.94 273.77
  Q 53.09 273.72 53.24 273.67
  Q 53.45 273.60 53.46 273.37
  Q 53.57 267.94 55.51 264.35
  Q 58.38 258.85 62.93 260.11
  Q 63.45 260.25 63.72 259.78
  Q 67.93 252.61 70.52 245.31
  C 71.82 240.27 74.53 235.09 75.49 231.08
  Q 77.11 224.37 75.91 217.72
  Q 75.76 216.89 75.04 217.33
  Q 67.61 221.96 63.24 229.54
  A 0.37 0.37 0.0 0 1 62.57 229.47
  Q 62.19 228.38 63.36 226.44
  L 66.87 222.29
  A 0.82 0.81 56.0 0 0 67.02 221.50
  L 66.25 219.24
  A 0.51 0.51 0.0 0 0 65.27 219.27
  Q 64.76 221.16 63.31 222.36
  L 63.35 220.13
  C 66.69 218.38 65.79 214.52 65.58 211.53
  Q 65.53 210.89 64.90 210.81
  L 61.80 210.46
  Q 61.30 210.40 61.27 210.90
  L 61.20 211.77
  Q 61.14 211.56 60.51 211.07
  Q 54.56 209.90 48.15 212.45
  L 47.61 212.52
  Q 47.26 212.57 47.21 212.91
  Q 47.18 213.20 47.37 213.23
  C 43.95 211.95 36.58 220.11 35.51 222.04
  C 32.90 226.73 29.80 234.43 25.52 233.43
  Q 25.32 233.22 25.27 233.04
  C 30.46 232.85 32.68 224.27 35.48 220.64
  Q 45.76 207.26 64.04 209.65
  L 83.82 213.06
  A 0.40 0.40 0.0 0 0 84.16 212.37
  Q 77.17 205.85 69.01 200.90
  Q 68.72 200.73 68.66 200.50
  Q 68.61 200.35 68.63 200.22
  Q 68.67 199.87 68.98 200.02
  C 70.67 200.83 71.74 201.44 73.71 201.04
  Q 86.00 198.57 97.80 194.23
  A 0.34 0.34 0.0 0 0 97.79 193.58
  Q 84.34 189.09 70.09 187.67
  Q 69.66 187.63 69.42 187.43
  Q 69.30 187.33 69.21 187.22
  Q 68.86 186.75 69.45 186.75
  L 72.52 186.75
  A 1.62 1.61 28.2 0 0 73.40 186.49
  L 82.49 180.50
  Q 82.39 181.42 82.78 181.58
  L 76.32 186.23
  Q 75.47 186.84 76.50 187.00
  Q 85.57 188.46 94.35 191.27
  A 1.05 1.04 -55.2 0 0 95.32 191.09
  L 97.65 189.22
  L 98.57 189.84
  Q 98.23 190.10 98.01 190.74
  Q 96.53 191.26 97.32 191.97
  Q 98.43 192.97 99.99 193.97
  Q 100.61 194.37 99.93 194.64
  L 89.63 198.86
  Q 85.50 199.60 84.69 202.97
  L 88.01 210.02
  Q 88.18 210.40 88.60 210.35
  Q 111.63 207.93 129.30 222.49
  Q 129.73 222.84 129.70 222.29
  C 128.58 202.45 134.09 184.13 142.13 166.31
  L 143.13 164.09
  Q 143.44 163.40 142.78 163.76
  Q 141.37 164.53 139.67 163.81
  Q 140.03 163.66 140.30 162.51
  Q 140.51 163.37 142.19 162.32
  Q 145.99 161.42 145.42 158.90
  L 154.38 146.74
  Z"
/>
<path stroke="#cd777d" stroke-width="2.00" fill="none" stroke-linecap="butt" vector-effect="non-scaling-stroke" d="
  M 69.18 211.62
  L 70.14 218.32"
/>
<path fill="#37806c" d="
  M 306.84 156.41
  L 307.95 159.04
  C 305.29 159.52 303.60 161.16 301.88 161.79
  C 299.15 162.80 296.70 163.08 293.87 164.40
  Q 290.71 165.86 287.18 165.76
  A 0.47 0.47 0.0 0 1 286.81 165.01
  C 289.60 161.31 297.69 158.33 302.67 157.57
  Q 304.79 157.24 306.84 156.41
  Z"
/>
<path fill="#aa4b5b" d="
  M 105.00 161.30
  L 104.53 182.59
  Q 104.51 183.11 104.13 183.45
  L 97.65 189.22
  L 95.32 191.09
  A 1.05 1.04 -55.2 0 1 94.35 191.27
  Q 85.57 188.46 76.50 187.00
  Q 75.47 186.84 76.32 186.23
  L 82.78 181.58
  L 101.67 168.12
  Q 103.03 167.15 101.38 166.90
  L 91.77 165.43
  Q 92.08 163.29 93.94 163.06
  Q 100.62 162.23 105.00 161.30
  Z"
/>
<path fill="#39261b" d="
  M 30.09 162.97
  Q 29.80 163.50 29.90 164.27
  L 29.26 164.23
  Q 29.26 163.85 28.82 163.16
  Q 29.10 163.03 29.33 162.88
  Q 29.56 162.72 29.71 162.74
  Q 29.93 162.76 30.09 162.97
  Z"
/>
<path fill="#020202" fill-opacity="0.996" d="
  M 30.09 162.97
  Q 31.36 165.89 31.71 169.05
  Q 31.77 169.65 32.13 169.74
  Q 32.47 169.83 33.08 169.78
  L 31.41 176.71
  L 30.43 179.84
  L 31.73 171.31
  Q 31.81 170.81 31.66 170.32
  L 29.90 164.27
  Q 29.80 163.50 30.09 162.97
  Z"
/>
<path fill="#020202" fill-opacity="0.996" d="
  M 28.82 163.16
  Q 29.26 163.85 29.26 164.23
  Q 26.60 171.19 27.42 178.47
  L 26.83 181.79
  Q 25.02 172.25 28.82 163.16
  Z"
/>
<path fill="#aa4b5b" d="
  M 142.13 166.31
  Q 141.80 165.81 141.43 165.60
  Q 141.09 165.41 140.56 165.66
  C 126.57 172.12 111.68 179.69 99.93 190.45
  A 1.20 1.17 23.4 0 1 99.09 190.77
  L 98.01 190.74
  Q 98.23 190.10 98.57 189.84
  C 102.05 186.75 105.19 183.56 109.05 181.04
  Q 123.80 171.41 139.67 163.81
  Q 141.37 164.53 142.78 163.76
  Q 143.44 163.40 143.13 164.09
  L 142.13 166.31
  Z"
/>
<path fill="#e9e49d" d="
  M 29.26 164.23
  L 29.90 164.27
  L 31.66 170.32
  Q 31.81 170.81 31.73 171.31
  L 30.43 179.84
  Q 31.27 181.74 30.76 182.70
  A 0.47 0.47 0.0 0 1 29.89 182.61
  L 29.08 179.58
  A 0.79 0.79 0.0 0 0 28.32 179.00
  L 27.51 179.00
  Q 27.55 178.75 27.42 178.47
  Q 26.60 171.19 29.26 164.23
  Z"
/>
<path fill="#d84450" d="
  M 142.13 166.31
  C 134.09 184.13 128.58 202.45 129.70 222.29
  Q 129.73 222.84 129.30 222.49
  Q 111.63 207.93 88.60 210.35
  Q 88.18 210.40 88.01 210.02
  L 84.69 202.97
  Q 88.21 201.68 89.63 198.86
  L 99.93 194.64
  Q 100.61 194.37 99.99 193.97
  Q 98.43 192.97 97.32 191.97
  Q 96.53 191.26 98.01 190.74
  L 99.09 190.77
  A 1.20 1.17 23.4 0 0 99.93 190.45
  C 111.68 179.69 126.57 172.12 140.56 165.66
  Q 141.09 165.41 141.43 165.60
  Q 141.80 165.81 142.13 166.31
  Z"
/>
<path fill="#eecc36" d="
  M 64.04 209.65
  Q 45.76 207.26 35.48 220.64
  C 32.68 224.27 30.46 232.85 25.27 233.04
  L 23.91 232.53
  L 24.52 231.46
  Q 25.00 230.04 24.45 228.28
  A 0.45 0.44 -1.8 0 1 24.98 227.72
  L 27.66 228.34
  Q 28.32 228.50 28.22 227.83
  L 27.78 224.70
  A 0.60 0.60 0.0 0 1 28.29 224.03
  L 31.03 223.69
  Q 31.78 223.59 32.04 222.89
  C 34.48 216.40 41.93 204.03 49.51 204.50
  C 55.70 211.20 62.16 197.86 54.97 196.38
  C 51.10 195.59 47.36 199.69 49.74 203.29
  L 38.35 204.60
  Q 37.85 204.65 37.59 205.10
  L 35.24 209.26
  A 0.70 0.70 0.0 0 1 34.03 209.27
  L 32.06 206.01
  Q 31.74 205.48 31.35 205.96
  L 28.23 209.78
  L 27.97 210.25
  Q 26.78 210.41 26.26 209.24
  Q 25.05 206.53 23.81 203.94
  A 0.74 0.73 -28.4 0 0 22.76 203.63
  L 17.78 206.68
  L 15.63 196.60
  Q 15.51 196.02 14.99 196.31
  L 9.08 199.59
  A 1.00 0.99 70.6 0 1 7.62 198.88
  L 6.74 193.76
  A 2.06 2.06 0.0 0 0 3.93 192.20
  L 2.16 192.94
  Q 1.34 193.28 1.57 192.42
  Q 4.34 182.24 14.47 179.60
  Q 14.99 179.47 15.40 179.82
  C 20.49 184.26 25.38 198.60 34.31 192.03
  L 35.20 190.87
  Q 35.74 190.17 34.92 190.51
  L 33.52 191.11
  Q 33.62 188.60 32.28 186.79
  Q 31.48 185.71 31.82 187.01
  L 32.36 189.04
  A 0.58 0.58 0.0 0 1 31.63 189.74
  Q 30.73 189.47 30.43 188.56
  Q 30.42 188.51 30.33 188.50
  Q 30.21 188.49 30.08 188.56
  Q 30.00 188.60 30.03 188.69
  L 31.39 191.90
  A 0.51 0.50 73.6 0 1 31.02 192.59
  Q 28.43 193.08 25.32 190.85
  Q 25.60 190.59 25.89 190.32
  Q 26.09 190.11 25.95 189.76
  L 25.98 189.44
  Q 26.00 189.11 26.27 189.32
  L 27.10 189.95
  A 0.53 0.53 0.0 0 0 27.95 189.59
  Q 28.13 187.95 27.52 186.33
  Q 28.05 184.71 27.43 182.77
  L 27.51 179.00
  L 28.32 179.00
  A 0.79 0.79 0.0 0 1 29.08 179.58
  L 29.89 182.61
  A 0.47 0.47 0.0 0 0 30.76 182.70
  Q 31.27 181.74 30.43 179.84
  L 31.41 176.71
  Q 31.49 177.44 31.66 177.44
  A 1.07 1.01 -82.6 0 0 32.62 176.66
  Q 33.35 174.10 35.28 172.23
  Q 35.80 171.72 35.89 172.44
  L 37.07 181.42
  A 0.47 0.46 54.5 0 0 37.95 181.57
  Q 41.81 173.73 49.27 169.26
  A 0.67 0.66 -6.8 0 1 50.25 170.03
  Q 48.16 176.53 47.48 183.32
  A 0.47 0.47 0.0 0 0 48.12 183.80
  Q 55.80 180.72 64.14 181.62
  Q 65.30 181.75 64.58 182.66
  L 57.43 191.70
  A 0.49 0.49 0.0 0 0 57.81 192.50
  Q 64.42 192.56 70.39 195.38
  A 0.53 0.53 0.0 0 1 70.39 196.34
  L 61.49 200.63
  A 0.73 0.72 44.7 0 0 61.50 201.94
  Q 65.73 203.93 69.10 207.16
  A 0.54 0.54 0.0 0 1 68.72 208.09
  Q 65.90 208.10 64.04 209.65
  Z
  M 46.26 194.71
  L 49.98 193.02
  Q 50.29 192.88 50.03 192.65
  Q 49.75 192.40 49.24 192.48
  Q 42.85 193.58 40.64 199.53
  Q 40.32 200.40 41.04 199.81
  Q 44.77 196.72 49.65 196.42
  A 0.43 0.43 0.0 0 0 49.62 195.56
  L 46.44 195.56
  A 0.45 0.44 -57.1 0 1 46.26 194.71
  Z"
/>
<path stroke="#78671c" stroke-width="2.00" fill="none" stroke-linecap="butt" vector-effect="non-scaling-stroke" d="
  M 46.26 194.71
  L 49.98 193.02
  Q 50.29 192.88 50.03 192.65
  Q 49.75 192.40 49.24 192.48
  Q 42.85 193.58 40.64 199.53
  Q 40.32 200.40 41.04 199.81
  Q 44.77 196.72 49.65 196.42
  A 0.43 0.43 0.0 0 0 49.62 195.56
  L 46.44 195.56
  A 0.45 0.44 -57.1 0 1 46.26 194.71"
/>
<path fill="#37806c" d="
  M 244.39 185.07
  L 244.01 181.38
  Q 252.49 178.00 260.39 173.76
  C 262.33 172.72 264.15 172.32 266.28 171.89
  A 0.90 0.90 0.0 0 1 267.00 173.49
  Q 262.07 177.26 256.19 180.10
  C 252.28 181.99 248.32 181.81 244.39 185.07
  Z"
/>
<path fill="#165148" d="
  M 371.26 174.34
  Q 348.54 178.27 332.00 183.75
  Q 314.88 189.43 310.46 190.60
  Q 292.70 195.34 275.49 201.99
  C 276.93 197.98 287.66 194.84 292.12 192.84
  C 315.10 182.56 340.48 176.83 365.30 173.27
  A 1.55 1.49 -34.0 0 1 366.27 173.44
  Q 368.55 174.68 371.26 174.34
  Z"
/>
<path fill="#a8864c" d="
  M 27.42 178.47
  Q 27.55 178.75 27.51 179.00
  L 27.43 182.77
  L 27.04 182.25
  Q 27.00 181.56 26.83 181.79
  L 27.42 178.47
  Z"
/>
<path fill="#020202" fill-opacity="0.996" d="
  M 25.32 190.85
  Q 28.43 193.08 31.02 192.59
  A 0.51 0.50 73.6 0 0 31.39 191.90
  L 30.03 188.69
  Q 30.00 188.60 30.08 188.56
  Q 30.21 188.49 30.33 188.50
  Q 30.42 188.51 30.43 188.56
  Q 30.73 189.47 31.63 189.74
  A 0.58 0.58 0.0 0 0 32.36 189.04
  L 31.82 187.01
  Q 31.48 185.71 32.28 186.79
  Q 33.62 188.60 33.52 191.11
  Q 33.36 191.38 34.31 192.03
  C 25.38 198.60 20.49 184.26 15.40 179.82
  Q 14.99 179.47 14.47 179.60
  Q 4.34 182.24 1.57 192.42
  Q 1.34 193.28 2.16 192.94
  L 3.93 192.20
  A 2.06 2.06 0.0 0 1 6.74 193.76
  L 7.62 198.88
  A 1.00 0.99 70.6 0 0 9.08 199.59
  L 14.99 196.31
  Q 15.51 196.02 15.63 196.60
  L 17.78 206.68
  Q 15.62 202.54 15.41 198.31
  A 0.85 0.85 0.0 0 0 14.14 197.62
  L 9.06 200.61
  A 1.32 1.32 0.0 0 1 7.11 199.76
  L 5.75 193.49
  A 0.60 0.59 -14.1 0 0 5.00 193.05
  L 1.60 194.06
  A 0.98 0.97 88.9 0 1 0.38 192.88
  Q 3.23 181.70 14.25 178.70
  A 1.46 1.43 -39.3 0 1 15.25 178.79
  Q 16.60 179.45 17.42 180.56
  Q 21.46 186.10 25.32 190.85
  Z"
/>
<path fill="#eb7f86" d="
  M 167.46 187.48
  L 168.57 193.87
  Q 168.66 194.36 168.31 194.73
  C 159.89 203.58 153.20 211.25 142.22 219.45
  Q 139.88 220.64 137.60 221.99
  C 136.30 222.77 136.23 223.48 134.31 223.42
  Q 135.31 208.90 138.72 194.65
  C 139.23 192.52 138.67 190.28 140.98 188.43
  A 0.58 0.56 -60.4 0 1 141.38 188.31
  L 149.16 189.02
  Q 149.81 189.08 150.28 188.62
  L 158.20 180.84
  Q 158.66 180.38 159.32 180.45
  L 164.17 180.99
  A 1.02 1.00 -11.1 0 1 164.93 181.49
  Q 166.71 184.63 166.17 188.22
  Q 166.12 188.57 166.41 188.78
  L 166.67 188.98
  Q 167.21 189.37 167.20 188.71
  Q 167.18 187.94 167.46 187.48
  Z"
/>
<path fill="#39261b" d="
  M 25.78 182.75
  Q 25.73 182.90 25.68 183.05
  Q 24.02 182.22 24.23 183.50
  L 23.78 182.72
  Q 23.68 182.34 23.75 182.05
  Q 23.88 181.49 24.43 181.64
  Q 25.25 181.86 25.78 182.75
  Z"
/>
<path fill="#eb7f86" d="
  M 242.68 181.46
  L 243.05 185.32
  Q 238.65 188.66 234.03 190.40
  L 232.32 187.97
  Q 237.19 183.96 242.68 181.46
  Z"
/>
<path fill="#020202" fill-opacity="0.996" d="
  M 27.04 182.25
  L 27.43 182.77
  Q 28.05 184.71 27.52 186.33
  Q 27.33 184.18 25.68 183.05
  Q 25.73 182.90 25.78 182.75
  Q 27.18 182.93 27.04 182.25
  Z"
/>
<path fill="#020202" fill-opacity="0.996" d="
  M 23.78 182.72
  L 24.23 183.50
  L 25.95 189.76
  Q 26.09 190.11 25.89 190.32
  Q 23.51 186.92 23.78 182.72
  Z"
/>
<path fill="#e9e49d" d="
  M 25.68 183.05
  Q 27.33 184.18 27.52 186.33
  Q 28.13 187.95 27.95 189.59
  A 0.53 0.53 0.0 0 1 27.10 189.95
  L 26.27 189.32
  Q 26.00 189.11 25.98 189.44
  L 25.95 189.76
  L 24.23 183.50
  Q 24.02 182.22 25.68 183.05
  Z"
/>
<path fill="#d84450" d="
  M 243.05 185.32
  Q 244.28 195.75 243.67 205.66
  A 0.37 0.37 0.0 0 1 242.98 205.83
  L 234.03 190.40
  Q 238.65 188.66 243.05 185.32
  Z"
/>
<path fill="#a8864c" d="
  M 15.01 186.76
  A 0.21 0.20 51.0 0 1 14.97 187.16
  L 11.15 187.55
  A 0.17 0.17 0.0 0 1 11.04 187.23
  Q 12.92 186.05 15.01 186.76
  Z"
/>
<path fill="#a8864c" d="
  M 34.31 192.03
  Q 33.36 191.38 33.52 191.11
  L 34.92 190.51
  Q 35.74 190.17 35.20 190.87
  L 34.31 192.03
  Z"
/>
<path fill="#020202" fill-opacity="0.996" d="
  M 46.44 195.56
  L 49.62 195.56
  A 0.43 0.43 0.0 0 1 49.65 196.42
  Q 44.77 196.72 41.04 199.81
  Q 40.32 200.40 40.64 199.53
  Q 42.85 193.58 49.24 192.48
  Q 49.75 192.40 50.03 192.65
  Q 50.29 192.88 49.98 193.02
  L 46.26 194.71
  A 0.45 0.44 -57.1 0 0 46.44 195.56
  Z"
/>
<path fill="#37806c" d="
  M 251.44 238.18
  Q 250.98 237.76 249.41 238.67
  Q 248.54 239.17 248.95 238.26
  L 250.88 234.00
  Q 251.12 233.47 251.56 233.08
  Q 252.30 232.44 251.94 231.34
  Q 251.78 230.87 251.96 230.40
  C 254.52 223.67 258.82 219.01 263.26 213.27
  Q 265.73 210.08 268.95 207.56
  Q 269.38 207.22 268.93 206.89
  Q 268.63 206.67 268.18 206.63
  C 274.00 204.20 279.76 201.17 285.51 199.25
  Q 295.57 195.88 305.74 192.83
  Q 306.04 192.74 306.17 193.04
  Q 306.22 193.17 306.27 193.31
  Q 306.28 193.32 306.26 193.33
  C 284.28 203.88 264.34 216.98 251.44 238.18
  Z"
/>
<path fill="#e9e49d" d="
  M 182.70 197.51
  C 171.54 217.25 153.77 232.52 135.11 244.77
  C 133.21 246.02 133.47 246.67 133.51 248.76
  Q 133.82 266.05 132.15 283.03
  A 0.97 0.96 6.1 0 1 131.07 283.89
  Q 119.04 282.47 107.58 278.58
  C 107.15 278.44 106.69 278.51 106.25 278.52
  Q 105.03 278.58 104.71 278.33
  Q 100.82 277.76 100.74 276.22
  C 104.13 276.93 109.16 278.85 107.48 272.46
  Q 105.10 263.40 103.15 253.85
  L 113.02 255.87
  A 1.14 1.14 0.0 0 0 114.38 254.89
  L 117.00 233.42
  Q 117.05 233.04 117.39 232.89
  Q 127.25 228.51 141.14 221.10
  Q 142.72 220.26 143.26 219.55
  Q 144.72 218.32 146.30 217.93
  Q 152.13 215.69 157.57 211.43
  Q 158.22 211.63 158.49 211.49
  Q 170.66 205.07 181.70 196.86
  A 1.12 1.11 -6.8 0 0 182.01 196.47
  Q 182.18 196.12 182.56 195.79
  Q 183.12 194.93 183.54 194.97
  Q 184.19 195.04 183.86 195.60
  L 182.70 197.51
  Z"
/>
<path fill="#eecc36" d="
  M 182.56 195.79
  Q 182.18 196.12 182.01 196.47
  A 1.12 1.11 -6.8 0 1 181.70 196.86
  Q 170.66 205.07 158.49 211.49
  Q 158.22 211.63 157.57 211.43
  Q 157.48 211.34 157.51 211.20
  Q 157.53 211.08 157.64 211.01
  L 182.56 195.79
  Z"
/>
<path fill="#b15e3a" d="
  M 49.51 204.50
  C 52.08 203.75 55.37 203.04 55.50 199.75
  Q 55.55 198.52 55.06 199.66
  Q 53.72 202.78 49.74 203.29
  C 47.36 199.69 51.10 195.59 54.97 196.38
  C 62.16 197.86 55.70 211.20 49.51 204.50
  Z"
/>
<path fill="#eecc36" d="
  M 182.70 197.51
  L 182.60 201.11
  Q 180.25 202.82 179.27 205.71
  L 168.59 218.43
  Q 168.28 218.85 168.29 218.97
  C 163.47 224.92 157.36 229.46 152.18 233.89
  L 145.18 239.12
  L 144.42 239.51
  Q 143.29 239.90 143.33 240.92
  C 138.67 243.59 133.95 245.03 135.28 250.17
  L 134.32 271.14
  Q 134.50 277.73 132.85 284.09
  Q 132.70 284.67 132.10 284.67
  L 126.78 284.67
  Q 124.95 283.82 122.86 284.00
  Q 113.76 281.92 107.19 279.56
  Q 106.56 279.34 106.25 278.52
  C 106.69 278.51 107.15 278.44 107.58 278.58
  Q 119.04 282.47 131.07 283.89
  A 0.97 0.96 6.1 0 0 132.15 283.03
  Q 133.82 266.05 133.51 248.76
  C 133.47 246.67 133.21 246.02 135.11 244.77
  C 153.77 232.52 171.54 217.25 182.70 197.51
  Z"
/>
<path fill="#aa4b5b" d="
  M 89.63 198.86
  Q 88.21 201.68 84.69 202.97
  Q 85.50 199.60 89.63 198.86
  Z"
/>
<path fill="#020202" fill-opacity="0.996" d="
  M 49.51 204.50
  C 41.93 204.03 34.48 216.40 32.04 222.89
  Q 31.78 223.59 31.03 223.69
  L 28.29 224.03
  A 0.60 0.60 0.0 0 0 27.78 224.70
  L 28.22 227.83
  Q 28.32 228.50 27.66 228.34
  L 24.98 227.72
  A 0.45 0.44 -1.8 0 0 24.45 228.28
  Q 25.00 230.04 24.52 231.46
  Q 23.42 229.20 23.85 226.95
  Q 23.95 226.44 24.45 226.58
  L 27.00 227.29
  A 0.48 0.47 0.4 0 0 27.59 226.71
  L 26.97 224.38
  A 0.57 0.57 0.0 0 1 27.42 223.67
  L 30.72 223.08
  Q 31.24 222.99 31.41 222.48
  Q 34.93 211.76 44.20 205.30
  Q 45.08 204.69 44.01 204.59
  Q 37.76 204.01 35.98 209.70
  A 1.41 1.40 -58.9 0 1 33.65 210.28
  L 33.31 209.93
  Q 32.94 209.56 32.53 209.90
  Q 31.09 211.07 29.26 210.69
  L 29.65 209.80
  Q 30.61 210.24 32.38 209.17
  A 0.89 0.89 0.0 0 0 31.82 207.53
  Q 30.79 207.65 29.86 209.59
  Q 29.17 209.49 28.23 209.78
  L 31.35 205.96
  Q 31.74 205.48 32.06 206.01
  L 34.03 209.27
  A 0.70 0.70 0.0 0 0 35.24 209.26
  L 37.59 205.10
  Q 37.85 204.65 38.35 204.60
  L 49.74 203.29
  Q 53.72 202.78 55.06 199.66
  Q 55.55 198.52 55.50 199.75
  C 55.37 203.04 52.08 203.75 49.51 204.50
  Z"
/>
<path fill="#aa4b5b" d="
  M 83.45 200.00
  L 84.05 200.00
  A 0.46 0.46 0.0 0 1 84.31 200.83
  Q 83.74 201.24 83.18 200.82
  A 0.46 0.45 63.3 0 1 83.45 200.00
  Z"
/>
<path fill="#a8864c" d="
  M 87.04 211.54
  Q 86.12 211.47 85.40 211.99
  Q 80.37 206.84 74.37 202.76
  A 0.34 0.34 0.0 0 1 74.49 202.14
  L 80.94 200.84
  A 0.80 0.79 63.4 0 1 81.71 201.10
  Q 85.54 205.56 87.04 211.54
  Z"
/>
<path fill="#020202" fill-opacity="0.996" d="
  M 27.97 210.25
  Q 27.72 210.66 27.76 211.00
  Q 27.79 211.19 27.97 211.24
  Q 28.11 211.28 28.25 211.30
  Q 28.34 211.59 28.14 211.77
  Q 20.22 215.56 14.73 222.66
  A 0.83 0.83 0.0 0 0 15.64 223.96
  C 20.37 222.42 23.47 219.27 29.25 217.58
  Q 29.73 217.86 30.49 217.73
  Q 30.51 217.73 30.52 217.74
  L 30.71 217.91
  Q 30.72 217.92 30.60 217.94
  Q 26.80 218.59 24.26 220.87
  C 23.78 220.62 23.15 220.66 22.66 221.01
  Q 19.82 223.00 16.86 224.39
  A 1.78 1.77 63.2 0 1 14.54 223.62
  Q 13.74 222.15 15.05 220.95
  C 18.84 217.48 21.56 214.42 26.30 212.19
  A 0.69 0.69 0.0 0 0 26.62 211.25
  L 23.35 204.92
  A 0.56 0.56 0.0 0 0 22.55 204.70
  L 19.19 206.83
  A 1.15 1.09 26.1 0 1 18.61 207.01
  Q 17.62 207.05 17.78 206.68
  L 22.76 203.63
  A 0.74 0.73 -28.4 0 1 23.81 203.94
  Q 25.05 206.53 26.26 209.24
  Q 26.78 210.41 27.97 210.25
  Z"
/>
<path fill="#b15e3a" d="
  M 24.52 231.46
  L 23.91 232.53
  Q 23.12 232.56 22.31 232.23
  L 19.16 228.19
  Q 21.19 228.48 22.22 228.03
  Q 22.70 227.82 22.50 227.33
  L 20.87 223.45
  Q 21.53 223.13 22.48 223.25
  Q 24.32 224.11 24.24 221.98
  L 24.26 220.87
  Q 26.80 218.59 30.60 217.94
  Q 30.72 217.92 30.71 217.91
  L 30.52 217.74
  Q 30.51 217.73 30.49 217.73
  Q 29.73 217.86 29.25 217.58
  C 33.64 218.03 34.85 211.40 28.14 211.77
  Q 28.34 211.59 28.25 211.30
  Q 28.72 211.23 29.26 210.69
  Q 31.09 211.07 32.53 209.90
  Q 32.94 209.56 33.31 209.93
  L 33.65 210.28
  A 1.41 1.40 -58.9 0 0 35.98 209.70
  Q 37.76 204.01 44.01 204.59
  Q 45.08 204.69 44.20 205.30
  Q 34.93 211.76 31.41 222.48
  Q 31.24 222.99 30.72 223.08
  L 27.42 223.67
  A 0.57 0.57 0.0 0 0 26.97 224.38
  L 27.59 226.71
  A 0.48 0.47 0.4 0 1 27.00 227.29
  L 24.45 226.58
  Q 23.95 226.44 23.85 226.95
  Q 23.42 229.20 24.52 231.46
  Z"
/>
<path fill="#4f9d81" d="
  M 268.18 206.63
  Q 268.63 206.67 268.93 206.89
  Q 269.38 207.22 268.95 207.56
  Q 265.73 210.08 263.26 213.27
  C 258.82 219.01 254.52 223.67 251.96 230.40
  Q 251.78 230.87 251.94 231.34
  Q 252.30 232.44 251.56 233.08
  Q 251.12 233.47 250.88 234.00
  L 248.95 238.26
  Q 248.54 239.17 249.41 238.67
  Q 250.98 237.76 251.44 238.18
  C 245.42 248.02 240.46 261.59 240.89 273.18
  A 0.38 0.38 0.0 0 1 240.16 273.32
  C 238.52 268.92 235.49 264.00 234.88 259.37
  Q 233.24 246.77 226.67 235.86
  Q 226.43 235.46 226.78 235.15
  C 240.07 223.36 252.41 213.95 268.18 206.63
  Z"
/>
<path fill="#b15e3a" d="
  M 29.65 209.80
  Q 29.76 209.70 29.86 209.59
  Q 30.79 207.65 31.82 207.53
  A 0.89 0.89 0.0 0 1 32.38 209.17
  Q 30.61 210.24 29.65 209.80
  Z"
/>
<path fill="#e9e49d" d="
  M 60.51 211.07
  Q 62.14 214.74 62.56 218.08
  C 62.78 219.90 61.98 222.22 62.27 224.50
  C 61.12 228.63 60.66 232.92 63.18 236.74
  Q 66.23 241.36 70.52 245.31
  Q 67.93 252.61 63.72 259.78
  Q 63.45 260.25 62.93 260.11
  Q 58.38 258.85 55.51 264.35
  Q 53.57 261.35 52.75 257.25
  Q 52.65 256.78 52.21 256.44
  Q 51.84 256.16 51.70 255.70
  L 48.58 245.20
  Q 48.47 243.63 47.57 242.43
  Q 47.15 240.36 48.06 238.76
  C 48.87 237.32 48.58 235.83 49.10 234.33
  Q 50.17 231.24 50.58 228.00
  C 50.81 226.20 52.05 224.16 51.30 221.98
  C 50.20 218.82 49.49 215.63 48.15 212.45
  Q 54.56 209.90 60.51 211.07
  Z"
/>
<path fill="#f0a39e" d="
  M 69.18 211.62
  L 70.14 218.32
  L 68.55 219.86
  A 0.71 0.70 64.3 0 1 67.36 219.44
  L 66.38 211.58
  Q 66.32 211.11 66.78 211.04
  Q 67.91 210.86 69.18 211.62
  Z"
/>
<path fill="#eecc36" d="
  M 60.51 211.07
  Q 61.14 211.56 61.20 211.77
  C 62.67 214.46 64.31 216.85 63.35 220.13
  L 63.31 222.36
  L 62.51 224.56
  Q 62.39 224.53 62.27 224.50
  C 61.98 222.22 62.78 219.90 62.56 218.08
  Q 62.14 214.74 60.51 211.07
  Z"
/>
<path fill="#ef9a67" d="
  M 130.60 225.09
  Q 123.65 228.57 116.69 231.94
  Q 115.19 232.66 114.84 236.12
  C 108.46 229.04 98.30 224.92 89.47 229.88
  A 0.45 0.45 0.0 0 1 88.81 229.42
  Q 90.14 221.22 88.76 212.88
  Q 88.49 211.21 90.18 211.15
  Q 113.90 210.40 130.60 225.09
  Z"
/>
<path fill="#aa4b5b" d="
  M 69.18 211.62
  L 73.47 212.19
  Q 74.27 212.29 73.81 212.96
  L 70.14 218.32
  L 69.18 211.62
  Z"
/>
<path fill="#eecc36" d="
  M 87.04 211.54
  Q 88.74 220.01 87.63 228.82
  Q 87.21 232.14 88.96 234.96
  A 0.34 0.34 0.0 0 0 89.58 234.70
  L 88.95 232.24
  A 0.91 0.90 68.1 0 1 89.38 231.23
  C 98.43 226.12 108.27 230.17 114.65 237.38
  Q 115.05 237.84 115.23 237.26
  Q 115.41 236.69 114.84 236.12
  Q 115.19 232.66 116.69 231.94
  Q 123.65 228.57 130.60 225.09
  Q 131.85 225.12 132.50 224.46
  Q 133.51 224.68 134.31 223.42
  C 136.23 223.48 136.30 222.77 137.60 221.99
  Q 139.88 220.64 142.22 219.45
  L 143.26 219.55
  Q 142.72 220.26 141.14 221.10
  Q 127.25 228.51 117.39 232.89
  Q 117.05 233.04 117.00 233.42
  L 114.38 254.89
  A 1.14 1.14 0.0 0 1 113.02 255.87
  L 103.15 253.85
  L 102.92 252.14
  Q 102.81 251.28 102.31 251.98
  Q 101.66 252.89 101.95 254.26
  Q 104.04 264.31 106.57 274.35
  A 1.53 1.52 -89.9 0 1 104.72 276.20
  Q 99.28 274.83 94.33 272.18
  A 1.02 1.01 21.0 0 0 92.87 272.82
  C 90.95 280.56 90.31 288.01 94.30 295.43
  L 87.85 294.43
  Q 87.37 294.36 87.00 294.05
  Q 84.91 292.33 82.61 292.06
  C 81.52 287.88 82.30 284.82 82.19 280.96
  A 0.31 0.31 0.0 0 0 81.59 280.87
  C 80.61 283.69 81.08 288.43 81.29 290.69
  Q 80.46 291.13 80.11 290.84
  Q 78.22 280.78 83.50 269.48
  C 85.04 266.19 86.42 264.81 90.33 265.60
  Q 96.45 266.83 102.29 270.24
  Q 102.57 270.40 102.86 270.29
  Q 103.48 270.04 102.91 269.69
  L 97.06 266.06
  Q 96.69 265.83 96.52 265.43
  Q 93.55 258.25 93.33 250.49
  A 0.24 0.24 0.0 0 0 92.86 250.43
  Q 91.80 254.09 93.05 257.68
  Q 92.69 257.62 92.25 257.75
  Q 91.76 257.91 91.34 257.60
  Q 83.08 251.50 77.87 242.63
  A 0.39 0.39 0.0 0 0 77.21 242.62
  Q 72.82 249.52 73.75 257.90
  L 72.35 257.66
  Q 69.41 247.35 75.25 235.75
  Q 78.86 228.57 77.34 218.75
  Q 81.46 217.90 84.68 214.34
  Q 85.47 214.67 85.94 214.41
  Q 86.47 214.10 86.19 213.56
  L 85.40 211.99
  Q 86.12 211.47 87.04 211.54
  Z"
/>
<path stroke="#c9b575" stroke-width="2.00" fill="none" stroke-linecap="butt" vector-effect="non-scaling-stroke" d="
  M 104.79 251.78
  L 105.56 251.28"
/>
<path fill="#ef9a67" d="
  M 28.14 211.77
  C 34.85 211.40 33.64 218.03 29.25 217.58
  C 23.47 219.27 20.37 222.42 15.64 223.96
  A 0.83 0.83 0.0 0 1 14.73 222.66
  Q 20.22 215.56 28.14 211.77
  Z"
/>
<path fill="#eecc36" d="
  M 48.15 212.45
  C 49.49 215.63 50.20 218.82 51.30 221.98
  C 52.05 224.16 50.81 226.20 50.58 228.00
  Q 50.17 231.24 49.10 234.33
  C 48.58 235.83 48.87 237.32 48.06 238.76
  Q 47.15 240.36 47.57 242.43
  Q 47.20 242.29 46.82 242.15
  Q 48.23 234.48 50.10 226.32
  Q 50.67 223.83 50.11 221.59
  Q 49.03 217.26 47.37 213.23
  Q 47.18 213.20 47.21 212.91
  Q 47.26 212.57 47.61 212.52
  L 48.15 212.45
  Z"
/>
<path fill="#a8864c" d="
  M 84.68 214.34
  Q 81.46 217.90 77.34 218.75
  L 75.65 213.32
  A 0.51 0.51 0.0 0 1 76.24 212.67
  L 84.68 214.34
  Z"
/>
<path fill="#aa4b5b" d="
  M 74.04 214.80
  A 0.52 0.52 0.0 0 1 74.98 215.20
  Q 74.63 216.53 73.19 216.84
  Q 72.75 216.93 72.99 216.55
  L 74.04 214.80
  Z"
/>
<path fill="#ef9a67" d="
  M 70.52 245.31
  Q 66.23 241.36 63.18 236.74
  C 60.66 232.92 61.12 228.63 62.27 224.50
  Q 62.39 224.53 62.51 224.56
  L 63.36 226.44
  Q 62.19 228.38 62.57 229.47
  A 0.37 0.37 0.0 0 0 63.24 229.54
  Q 67.61 221.96 75.04 217.33
  Q 75.76 216.89 75.91 217.72
  Q 77.11 224.37 75.49 231.08
  C 74.53 235.09 71.82 240.27 70.52 245.31
  Z"
/>
<path fill="#d84450" d="
  M 63.36 226.44
  L 62.51 224.56
  L 63.31 222.36
  Q 64.76 221.16 65.27 219.27
  A 0.51 0.51 0.0 0 1 66.25 219.24
  L 67.02 221.50
  A 0.82 0.81 56.0 0 1 66.87 222.29
  L 63.36 226.44
  Z"
/>
<path fill="#d84450" d="
  M 168.29 218.97
  Q 172.26 226.25 174.17 234.33
  Q 174.28 234.79 173.94 235.12
  L 166.02 242.79
  Q 165.70 243.10 165.38 242.79
  L 161.50 239.09
  L 166.37 224.03
  A 0.45 0.45 0.0 0 0 165.59 223.60
  L 155.83 235.31
  Q 154.45 234.30 152.56 233.91
  Q 153.08 234.23 152.18 233.89
  C 157.36 229.46 163.47 224.92 168.29 218.97
  Z"
/>
<path fill="#020202" fill-opacity="0.996" d="
  M 24.24 221.98
  Q 24.32 224.11 22.48 223.25
  L 24.24 221.98
  Z"
/>
<path fill="#020202" fill-opacity="0.996" d="
  M 20.87 223.45
  L 22.50 227.33
  Q 22.70 227.82 22.22 228.03
  Q 21.19 228.48 19.16 228.19
  Q 20.63 227.82 21.22 227.18
  Q 21.59 226.77 21.33 226.28
  Q 20.58 224.82 20.87 223.45
  Z"
/>
<path fill="#aa4b5b" d="
  M 161.50 239.09
  L 155.83 235.31
  L 165.59 223.60
  A 0.45 0.45 0.0 0 1 166.37 224.03
  L 161.50 239.09
  Z"
/>
<path fill="#136a5a" d="
  M 233.65 273.78
  Q 229.57 277.47 226.10 281.71
  C 215.77 294.31 204.23 304.77 190.82 314.04
  Q 186.92 296.06 176.31 282.94
  Q 170.01 275.14 160.08 272.33
  Q 161.87 269.02 163.63 265.79
  C 165.85 261.71 170.20 260.32 172.90 256.34
  C 188.13 262.09 200.14 276.35 206.01 291.11
  Q 206.03 291.16 206.23 291.94
  Q 206.37 292.48 206.84 292.66
  A 0.52 0.52 0.0 0 0 207.54 292.27
  C 208.77 286.14 209.20 280.12 208.13 273.93
  C 205.37 257.93 194.87 237.12 175.77 237.08
  Q 175.57 237.08 175.38 237.18
  Q 175.13 237.33 175.02 237.38
  A 0.48 0.47 13.1 0 1 174.52 236.58
  C 182.71 230.05 192.77 225.28 203.38 225.40
  C 229.54 225.70 235.08 253.20 233.65 273.78
  Z"
/>
<path fill="#020202" fill-opacity="0.996" d="
  M 22.31 232.23
  Q 23.12 232.56 23.91 232.53
  L 25.27 233.04
  Q 25.32 233.22 25.52 233.43
  Q 23.38 233.76 22.31 232.23
  Z"
/>
<path fill="#136a5a" d="
  M 152.18 233.89
  Q 153.08 234.23 152.56 233.91
  Q 152.99 235.28 154.97 236.08
  L 148.18 243.36
  L 145.18 239.12
  L 152.18 233.89
  Z"
/>
<path fill="#165148" d="
  M 154.97 236.08
  L 160.92 240.00
  Q 158.57 248.06 153.54 254.71
  L 148.18 243.36
  L 154.97 236.08
  Z"
/>
<path fill="#d84450" d="
  M 173.93 255.58
  L 179.67 245.96
  A 0.93 0.92 -4.6 0 0 178.28 244.78
  Q 173.04 249.15 169.54 254.25
  Q 164.63 252.93 158.99 254.11
  Q 158.44 254.23 158.66 253.71
  Q 159.42 251.90 160.93 251.55
  L 173.42 238.02
  Q 188.21 237.49 197.80 251.21
  Q 209.82 268.41 207.25 289.41
  A 0.47 0.47 0.0 0 1 206.32 289.47
  C 202.92 276.26 186.36 260.47 173.93 255.58
  Z"
/>
<path fill="#eb7f86" d="
  M 173.42 238.02
  L 160.93 251.55
  Q 165.47 243.43 173.42 238.02
  Z"
/>
<path fill="#e9e49d" d="
  M 144.42 239.51
  L 146.56 243.48
  Q 146.66 244.52 145.16 244.83
  L 143.33 240.92
  Q 143.29 239.90 144.42 239.51
  Z"
/>
<path fill="#136a5a" d="
  M 160.92 240.00
  L 164.54 243.31
  A 0.48 0.48 0.0 0 1 164.60 243.95
  L 155.10 256.73
  A 0.61 0.61 0.0 0 1 154.02 256.52
  L 153.54 254.71
  Q 158.57 248.06 160.92 240.00
  Z"
/>
<path fill="#ef9a67" d="
  M 143.33 240.92
  L 145.16 244.83
  Q 145.24 246.22 144.79 244.93
  Q 140.63 248.90 135.28 250.17
  C 133.95 245.03 138.67 243.59 143.33 240.92
  Z"
/>
<path fill="#a8864c" d="
  M 104.79 251.78
  L 105.56 251.28
  Q 106.25 251.26 106.97 250.44
  Q 110.62 246.27 114.39 242.09
  Q 114.94 241.49 114.82 242.29
  L 113.08 254.24
  Q 112.98 254.88 112.36 254.68
  Q 108.42 253.40 104.51 252.67
  Q 103.94 252.57 104.79 251.78
  Z"
/>
<path fill="#a8864c" d="
  M 46.82 242.15
  Q 47.20 242.29 47.57 242.43
  Q 48.47 243.63 48.58 245.20
  L 48.34 247.09
  L 46.82 242.15
  Z"
/>
<path fill="#e9e49d" d="
  M 93.05 257.68
  L 93.02 258.92
  Q 91.51 259.03 89.31 259.81
  Q 80.85 262.82 73.75 257.90
  Q 72.82 249.52 77.21 242.62
  A 0.39 0.39 0.0 0 1 77.87 242.63
  Q 83.08 251.50 91.34 257.60
  Q 91.76 257.91 92.25 257.75
  Q 92.69 257.62 93.05 257.68
  Z"
/>
<path fill="#e9e49d" d="
  M 105.56 251.28
  L 104.79 251.78
  Q 104.06 251.85 103.82 251.42
  Q 103.66 251.15 103.83 250.57
  Q 104.80 247.10 105.16 243.47
  A 0.46 0.46 0.0 0 1 105.92 243.17
  L 108.97 245.81
  A 0.94 0.94 0.0 0 1 108.93 247.26
  L 105.89 249.64
  Q 105.46 249.98 105.50 250.54
  L 105.56 251.28
  Z"
/>
<path fill="#a8864c" d="
  M 146.56 243.48
  Q 150.72 250.07 152.89 256.73
  L 147.98 261.13
  Q 147.85 260.77 147.35 261.26
  Q 146.92 253.38 144.79 244.93
  Q 145.24 246.22 145.16 244.83
  Q 146.66 244.52 146.56 243.48
  Z"
/>
<path fill="#eb7f86" d="
  M 173.93 255.58
  L 169.54 254.25
  Q 173.04 249.15 178.28 244.78
  A 0.93 0.92 -4.6 0 1 179.67 245.96
  L 173.93 255.58
  Z"
/>
<path fill="#eecc36" d="
  M 48.58 245.20
  L 51.70 255.70
  Q 51.84 256.16 52.21 256.44
  Q 52.65 256.78 52.75 257.25
  Q 53.57 261.35 55.51 264.35
  Q 53.57 267.94 53.46 273.37
  Q 53.45 273.60 53.24 273.67
  Q 53.09 273.72 52.94 273.77
  A 0.09 0.09 0.0 0 1 52.82 273.69
  L 51.65 258.67
  L 50.95 255.97
  Q 51.19 255.69 50.28 254.65
  L 48.34 247.09
  L 48.58 245.20
  Z"
/>
<path fill="#b15e3a" d="
  M 144.79 244.93
  Q 146.92 253.38 147.35 261.26
  L 134.32 271.14
  L 135.28 250.17
  Q 140.63 248.90 144.79 244.93
  Z"
/>
<path fill="#a8864c" d="
  M 68.72 265.75
  Q 68.41 265.29 67.94 265.06
  Q 68.29 265.08 68.47 264.85
  A 0.39 0.39 0.0 0 0 68.50 264.43
  Q 67.32 262.20 65.05 261.03
  A 0.50 0.49 27.6 0 1 64.84 260.37
  L 69.51 251.20
  A 0.25 0.25 0.0 0 1 69.99 251.32
  Q 69.90 255.51 71.83 259.43
  Q 72.41 260.61 71.74 261.67
  Q 70.37 263.87 68.72 265.75
  Z"
/>
<path fill="#136a5a" d="
  M 168.92 255.04
  C 164.50 259.42 161.26 266.34 158.05 271.90
  Q 153.02 270.67 148.03 272.24
  A 0.58 0.58 0.0 0 1 147.36 271.38
  L 156.55 256.44
  Q 156.82 256.00 157.30 255.82
  Q 163.15 253.62 168.92 255.04
  Z"
/>
<path fill="#37806c" d="
  M 168.92 255.04
  L 172.90 256.34
  C 170.20 260.32 165.85 261.71 163.63 265.79
  Q 161.87 269.02 160.08 272.33
  Q 159.11 271.84 158.05 271.90
  C 161.26 266.34 164.50 259.42 168.92 255.04
  Z"
/>
<path fill="#136a5a" d="
  M 50.95 255.97
  L 51.65 258.67
  L 51.04 263.71
  A 0.44 0.44 0.0 0 1 50.37 264.03
  Q 48.36 262.76 46.31 262.72
  L 46.03 262.42
  Q 45.69 262.06 45.97 261.65
  Q 47.73 259.07 49.55 256.57
  Q 49.89 256.09 50.95 255.97
  Z"
/>
<path fill="#e9e49d" d="
  M 152.89 256.73
  C 153.42 257.83 153.80 258.52 153.08 259.66
  Q 150.32 264.07 147.44 268.94
  Q 146.71 264.79 147.98 261.13
  L 152.89 256.73
  Z"
/>
<path fill="#a8864c" d="
  M 72.35 257.66
  L 73.75 257.90
  Q 80.85 262.82 89.31 259.81
  Q 91.51 259.03 93.02 258.92
  L 94.70 264.72
  Q 94.88 265.36 94.25 265.17
  C 89.41 263.73 84.96 262.96 82.60 268.57
  Q 82.37 269.11 81.85 268.85
  Q 74.85 265.44 72.35 257.66
  Z"
/>
<path fill="#eecc36" d="
  M 67.94 265.06
  Q 68.41 265.29 68.72 265.75
  Q 68.39 267.40 67.34 268.52
  Q 66.62 269.29 66.73 268.24
  Q 66.97 266.04 65.29 264.67
  Q 64.88 264.34 65.02 264.85
  C 67.16 272.34 66.58 279.07 70.00 286.31
  Q 67.52 286.87 65.39 288.61
  L 64.49 287.95
  C 63.62 286.25 62.73 284.95 62.50 282.96
  Q 62.09 279.44 61.31 275.28
  A 0.27 0.27 0.0 0 0 60.78 275.31
  Q 60.38 282.13 63.99 288.31
  Q 64.12 288.58 64.25 288.86
  L 58.67 288.61
  Q 57.82 288.13 57.37 285.98
  Q 56.31 280.66 56.86 275.06
  A 1.10 1.10 0.0 0 0 55.59 273.86
  Q 55.38 273.90 55.32 274.78
  Q 54.95 280.53 57.06 286.00
  L 57.43 287.74
  Q 56.92 288.54 56.47 288.45
  Q 56.18 288.39 55.89 287.75
  Q 55.08 285.93 53.67 286.56
  C 52.60 280.63 54.08 273.56 55.45 267.74
  C 57.26 260.06 63.30 258.27 67.94 265.06
  Z"
/>
<path fill="#ef9a67" d="
  M 147.98 261.13
  Q 146.71 264.79 147.44 268.94
  Q 140.00 281.96 136.60 296.19
  C 116.24 317.15 88.22 317.25 70.16 293.39
  Q 73.66 293.82 76.29 291.78
  A 0.73 0.73 0.0 0 0 76.09 290.52
  C 70.56 288.49 68.32 279.71 67.94 274.63
  Q 71.91 272.44 75.20 277.04
  Q 75.62 277.63 76.25 277.48
  Q 77.00 280.09 78.84 280.14
  Q 76.02 294.84 87.90 300.90
  C 89.80 301.87 92.14 301.51 94.26 301.77
  C 97.41 302.17 99.22 301.63 100.95 299.19
  Q 101.27 298.75 100.74 298.65
  Q 95.09 297.60 93.87 291.29
  C 102.75 293.39 111.47 293.01 118.88 287.52
  L 119.39 287.50
  Q 124.65 289.47 126.78 284.67
  L 132.10 284.67
  Q 132.70 284.67 132.85 284.09
  Q 134.50 277.73 134.32 271.14
  L 147.35 261.26
  Q 147.85 260.77 147.98 261.13
  Z"
/>
<path fill="#a8864c" d="
  M 78.84 280.14
  Q 77.00 280.09 76.25 277.48
  L 71.56 264.30
  L 72.35 262.36
  A 0.60 0.60 0.0 0 1 73.43 262.29
  Q 76.24 267.23 81.28 269.81
  Q 81.78 270.07 81.62 270.60
  L 78.84 280.14
  Z"
/>
<path fill="#d84450" d="
  M 45.95 263.27
  C 48.34 264.02 51.16 264.65 51.21 267.25
  C 51.28 271.20 52.24 275.08 52.20 278.94
  Q 52.15 283.16 52.57 287.29
  C 53.83 291.59 57.29 292.50 58.34 295.96
  Q 58.64 296.93 57.88 296.25
  C 54.58 293.25 41.80 281.70 38.28 285.27
  A 0.58 0.58 0.0 0 1 37.30 284.77
  Q 39.15 273.14 44.52 264.05
  Q 44.93 263.36 45.95 263.27
  Z"
/>
<path fill="#b15e3a" d="
  M 71.56 264.30
  L 76.25 277.48
  Q 75.62 277.63 75.20 277.04
  Q 71.91 272.44 67.94 274.63
  Q 66.59 269.55 71.56 264.30
  Z"
/>
<path fill="#4f9d81" d="
  M 233.87 281.61
  C 235.12 274.31 234.86 270.22 234.99 265.16
  A 0.41 0.41 0.0 0 1 235.78 265.01
  L 240.33 276.03
  Q 240.62 276.73 240.05 277.23
  L 234.58 282.01
  Q 233.66 282.83 233.87 281.61
  Z"
/>
<path fill="#d84450" d="
  M 156.92 273.00
  Q 155.75 275.10 154.53 277.07
  C 152.14 280.93 150.72 285.63 149.14 289.90
  A 0.45 0.45 0.0 0 0 149.59 290.50
  Q 150.51 290.44 150.87 289.58
  Q 154.37 281.26 159.37 273.53
  C 167.13 274.29 175.55 283.34 179.53 289.71
  Q 186.27 300.49 189.37 312.20
  C 189.88 314.12 189.61 316.57 191.28 318.80
  Q 191.30 319.13 191.22 319.35
  Q 190.98 319.94 190.58 319.44
  C 180.57 306.98 154.94 287.80 138.29 297.40
  Q 137.48 297.86 137.69 296.96
  Q 140.48 285.10 146.27 274.39
  Q 146.52 273.92 147.03 273.74
  Q 151.66 272.09 156.92 273.00
  Z"
/>
<path fill="#eb7f86" d="
  M 156.92 273.00
  Q 157.88 272.85 159.37 273.53
  Q 154.37 281.26 150.87 289.58
  Q 150.51 290.44 149.59 290.50
  A 0.45 0.45 0.0 0 1 149.14 289.90
  C 150.72 285.63 152.14 280.93 154.53 277.07
  Q 155.75 275.10 156.92 273.00
  Z"
/>
<path fill="#b15e3a" d="
  M 100.74 276.22
  Q 100.82 277.76 104.71 278.33
  C 101.10 280.40 96.91 279.75 92.96 279.75
  L 93.90 274.06
  Q 93.99 273.51 94.51 273.72
  L 100.74 276.22
  Z"
/>
<path fill="#a8864c" d="
  M 57.37 285.98
  L 57.06 286.00
  Q 54.95 280.53 55.32 274.78
  Q 55.38 273.90 55.59 273.86
  A 1.10 1.10 0.0 0 1 56.86 275.06
  Q 56.31 280.66 57.37 285.98
  Z"
/>
<path fill="#165148" d="
  M 233.65 273.78
  C 232.25 296.24 218.12 320.44 203.27 337.38
  Q 203.02 337.67 203.40 337.69
  Q 203.68 337.70 203.95 337.44
  Q 205.38 336.07 208.09 332.99
  Q 208.44 332.59 208.95 332.74
  Q 209.73 332.98 209.72 333.75
  Q 209.40 333.72 209.21 333.90
  Q 208.83 334.26 209.09 334.71
  Q 213.37 342.26 214.80 345.69
  C 220.91 360.40 227.34 374.26 230.78 389.66
  A 0.47 0.47 0.0 0 0 231.69 389.71
  L 231.86 389.20
  C 232.68 392.20 233.42 394.37 231.59 397.23
  Q 226.92 404.45 220.24 409.41
  Q 216.96 402.78 209.61 399.33
  C 207.54 398.36 204.90 398.10 202.59 396.99
  Q 203.65 395.84 205.08 394.83
  Q 205.23 394.72 205.24 394.56
  Q 205.25 394.20 204.95 394.40
  L 198.61 398.49
  Q 196.90 396.37 194.26 394.61
  C 191.95 393.08 188.99 393.09 186.26 392.17
  L 191.08 389.79
  Q 194.48 388.11 190.84 389.15
  Q 184.16 391.06 176.66 396.24
  A 0.78 0.77 -42.2 0 1 175.72 396.20
  L 172.45 393.53
  A 0.73 0.68 65.6 0 0 172.07 393.37
  L 170.56 393.16
  A 0.48 0.47 -54.8 0 1 170.41 392.27
  Q 180.69 386.94 192.22 385.45
  A 1.24 1.23 -31.6 0 1 193.03 385.64
  Q 193.53 385.97 194.11 386.03
  Q 194.84 386.09 194.21 385.72
  Q 167.34 370.15 148.65 345.38
  C 143.40 338.42 138.48 330.59 136.43 321.98
  Q 137.19 322.10 137.72 321.92
  Q 138.16 321.77 138.49 322.08
  Q 150.32 333.18 165.36 327.04
  Q 169.86 325.20 172.82 324.16
  C 178.56 322.13 182.09 319.80 186.72 316.58
  L 190.80 321.51
  Q 191.44 322.29 191.39 321.28
  L 191.28 318.80
  L 190.82 314.04
  C 204.23 304.77 215.77 294.31 226.10 281.71
  Q 229.57 277.47 233.65 273.78
  Z
  M 211.0280 388.1382
  A 7.44 0.49 7.4 0 0 203.7131 386.6941
  A 7.44 0.49 7.4 0 0 196.2720 386.2218
  A 7.44 0.49 7.4 0 0 203.5869 387.6659
  A 7.44 0.49 7.4 0 0 211.0280 388.1382
  Z
  M 208.37 392.67
  L 211.56 391.32
  A 0.43 0.43 0.0 0 0 211.28 390.51
  Q 209.45 390.97 208.09 392.25
  Q 207.07 393.22 208.37 392.67
  Z"
/>
<g stroke-width="2.00" fill="none" stroke-linecap="butt">
<path stroke="#0c2a25" vector-effect="non-scaling-stroke" d="
  M 211.0280 388.1382
  A 7.44 0.49 7.4 0 0 203.7131 386.6941
  A 7.44 0.49 7.4 0 0 196.2720 386.2218
  A 7.44 0.49 7.4 0 0 203.5869 387.6659
  A 7.44 0.49 7.4 0 0 211.0280 388.1382"
/>
<path stroke="#0c2a25" vector-effect="non-scaling-stroke" d="
  M 208.37 392.67
  L 211.56 391.32
  A 0.43 0.43 0.0 0 0 211.28 390.51
  Q 209.45 390.97 208.09 392.25
  Q 207.07 393.22 208.37 392.67"
/>
</g>
<path fill="#a8864c" d="
  M 64.49 287.95
  L 63.99 288.31
  Q 60.38 282.13 60.78 275.31
  A 0.27 0.27 0.0 0 1 61.31 275.28
  Q 62.09 279.44 62.50 282.96
  C 62.73 284.95 63.62 286.25 64.49 287.95
  Z"
/>
<path fill="#a8864c" d="
  M 104.71 278.33
  Q 105.03 278.58 106.25 278.52
  Q 106.56 279.34 107.19 279.56
  Q 113.76 281.92 122.86 284.00
  L 119.39 287.50
  L 118.88 287.52
  Q 118.28 286.20 116.36 286.94
  A 1.12 1.10 48.2 0 1 115.44 286.88
  Q 111.59 284.83 110.24 284.75
  Q 108.81 284.66 108.68 284.36
  A 2.18 2.18 0.0 0 0 105.94 283.14
  Q 99.27 285.49 92.56 284.80
  L 92.96 279.75
  C 96.91 279.75 101.10 280.40 104.71 278.33
  Z"
/>
<path fill="#39261b" d="
  M 82.61 292.06
  Q 81.16 292.69 81.29 290.69
  C 81.08 288.43 80.61 283.69 81.59 280.87
  A 0.31 0.31 0.0 0 1 82.19 280.96
  C 82.30 284.82 81.52 287.88 82.61 292.06
  Z"
/>
<path fill="#39261b" d="
  M 87.44 291.76
  A 0.01 0.01 0.0 0 1 87.43 291.77
  L 87.28 291.78
  A 4.57 0.82 87.1 0 1 86.23 287.25
  L 86.21 286.99
  A 4.57 0.82 87.1 0 1 86.80 282.39
  L 86.95 282.38
  A 0.01 0.01 0.0 0 1 86.96 282.39
  L 87.44 291.76
  Z"
/>
<path fill="#e9e49d" d="
  M 118.88 287.52
  C 111.47 293.01 102.75 293.39 93.87 291.29
  Q 92.53 288.56 92.56 284.80
  Q 99.27 285.49 105.94 283.14
  A 2.18 2.18 0.0 0 1 108.68 284.36
  Q 108.81 284.66 110.24 284.75
  Q 111.59 284.83 115.44 286.88
  A 1.12 1.10 48.2 0 0 116.36 286.94
  Q 118.28 286.20 118.88 287.52
  Z"
/>
<path fill="#b15e3a" d="
  M 122.86 284.00
  Q 124.95 283.82 126.78 284.67
  Q 124.65 289.47 119.39 287.50
  L 122.86 284.00
  Z"
/>
<path fill="#136a5a" d="
  M 57.21 296.92
  C 51.57 303.22 46.99 303.09 39.24 304.79
  C 37.70 299.92 35.94 292.12 37.31 286.77
  A 0.87 0.86 -89.4 0 1 37.95 286.14
  C 44.14 284.69 52.67 292.43 57.21 296.92
  Z"
/>
<path fill="#a8864c" d="
  M 57.43 287.74
  C 57.65 289.08 59.57 292.00 59.57 292.47
  Q 59.56 292.79 59.34 292.95
  Q 58.98 293.22 58.80 293.16
  L 58.47 293.05
  Q 54.27 291.63 53.78 286.68
  Q 53.72 286.62 53.67 286.56
  Q 55.08 285.93 55.89 287.75
  Q 56.18 288.39 56.47 288.45
  Q 56.92 288.54 57.43 287.74
  Z"
/>
<path fill="#a8864c" d="
  M 70.00 286.31
  Q 71.93 289.78 74.37 290.92
  Q 75.74 291.57 74.27 291.93
  Q 67.70 293.56 65.39 288.61
  Q 67.52 286.87 70.00 286.31
  Z"
/>
<path fill="#a8864c" d="
  M 64.25 288.86
  Q 65.19 290.64 67.24 292.19
  A 0.61 0.61 0.0 0 1 67.06 293.26
  Q 61.04 295.20 58.67 288.61
  L 64.25 288.86
  Z"
/>
<path fill="#a8864c" d="
  M 81.29 290.69
  Q 81.16 292.69 82.61 292.06
  Q 84.91 292.33 87.00 294.05
  Q 87.37 294.36 87.85 294.43
  L 94.30 295.43
  Q 95.60 298.06 98.78 299.12
  Q 99.28 299.29 98.94 299.70
  C 95.86 303.47 90.68 298.79 89.41 295.59
  A 0.26 0.26 0.0 0 0 89.04 295.46
  L 88.59 295.72
  Q 88.35 295.87 88.51 296.10
  L 91.11 299.89
  A 0.36 0.36 0.0 0 1 90.78 300.45
  Q 86.08 300.01 83.74 295.89
  Q 83.51 295.49 83.08 295.32
  Q 80.99 294.49 80.11 290.84
  Q 80.46 291.13 81.29 290.69
  Z"
/>
<path fill="#e9e49d" d="
  M 70.16 293.39
  C 88.22 317.25 116.24 317.15 136.60 296.19
  Q 133.12 309.41 134.83 321.66
  C 120.46 333.08 104.02 333.15 88.03 325.09
  Q 79.91 321.00 72.44 315.09
  Q 64.17 305.78 58.73 294.04
  Q 61.08 293.60 63.07 294.71
  Q 63.54 294.98 64.08 294.85
  L 70.16 293.39
  Z"
/>
<path fill="#136a5a" d="
  M 186.72 316.58
  C 182.09 319.80 178.56 322.13 172.82 324.16
  Q 169.86 325.20 165.36 327.04
  Q 150.32 333.18 138.49 322.08
  Q 138.16 321.77 137.72 321.92
  Q 137.19 322.10 136.43 321.98
  Q 134.68 311.96 137.01 300.49
  Q 137.27 299.23 137.87 298.88
  Q 146.07 294.05 155.31 296.96
  Q 173.30 302.64 186.72 316.58
  Z"
/>
<path fill="#165148" d="
  M 57.21 296.92
  C 63.73 303.70 67.24 311.28 74.58 320.07
  C 75.86 326.50 79.45 327.50 82.68 332.01
  A 1.00 0.03 54.3 0 0 83.25 332.76
  Q 85.48 334.32 86.10 336.94
  Q 86.22 337.44 86.59 337.79
  Q 93.73 344.57 102.60 348.86
  C 105.38 350.21 107.71 351.74 110.75 352.35
  C 115.48 353.29 122.84 355.60 126.95 352.24
  Q 131.70 362.61 135.24 373.54
  C 136.20 376.52 135.81 379.27 133.17 380.92
  C 122.63 387.50 109.13 391.10 96.65 393.54
  A 0.79 0.79 0.0 0 1 95.71 392.70
  C 96.25 386.00 94.61 379.78 86.55 379.57
  A 0.47 0.47 0.0 0 1 86.42 378.66
  Q 92.21 376.82 98.26 376.06
  Q 98.44 376.04 98.44 375.94
  Q 98.44 375.87 98.44 375.81
  Q 98.44 375.74 98.25 375.75
  Q 90.96 376.10 84.19 378.78
  A 0.52 0.52 0.0 0 1 83.49 378.43
  Q 82.55 374.78 79.05 373.52
  A 0.50 0.50 0.0 0 1 79.11 372.57
  Q 83.77 371.45 88.74 370.99
  Q 89.10 370.96 89.30 370.71
  Q 89.52 370.43 89.16 370.45
  Q 82.28 370.75 75.62 372.54
  A 0.65 0.65 0.0 0 1 75.01 372.38
  L 72.20 369.67
  A 0.39 0.39 0.0 0 1 72.40 369.01
  Q 81.28 367.30 90.27 368.35
  Q 90.70 368.40 91.07 368.19
  Q 91.77 367.79 92.73 368.08
  Q 97.06 369.39 100.85 371.89
  Q 101.14 372.08 101.40 372.00
  Q 101.77 371.88 101.45 371.67
  Q 76.16 355.61 56.50 333.00
  C 49.16 324.56 42.64 315.57 39.24 304.79
  C 46.99 303.09 51.57 303.22 57.21 296.92
  Z
  M 113.8619 377.2124
  A 0.27 0.27 0.0 0 0 113.7139 376.8604
  L 105.6403 373.5656
  A 0.27 0.27 0.0 0 0 105.2883 373.7136
  L 105.2581 373.7876
  A 0.27 0.27 0.0 0 0 105.4061 374.1396
  L 113.4797 377.4344
  A 0.27 0.27 0.0 0 0 113.8317 377.2864
  L 113.8619 377.2124
  Z"
/>
<path stroke="#0c2a25" stroke-width="2.00" fill="none" stroke-linecap="butt" vector-effect="non-scaling-stroke" d="
  M 113.8619 377.2124
  A 0.27 0.27 0.0 0 0 113.7139 376.8604
  L 105.6403 373.5656
  A 0.27 0.27 0.0 0 0 105.2883 373.7136
  L 105.2581 373.7876
  A 0.27 0.27 0.0 0 0 105.4061 374.1396
  L 113.4797 377.4344
  A 0.27 0.27 0.0 0 0 113.8317 377.2864
  L 113.8619 377.2124"
/>
<path fill="#ef9a67" d="
  M 72.44 315.09
  Q 79.91 321.00 88.03 325.09
  C 104.02 333.15 120.46 333.08 134.83 321.66
  L 136.32 326.20
  A 1.62 1.61 58.3 0 1 135.94 327.84
  Q 126.85 337.17 115.35 343.27
  Q 114.88 343.52 114.37 343.36
  Q 89.42 335.30 72.44 315.09
  Z"
/>
<path fill="#1d3840" d="
  M 74.58 320.07
  C 77.87 322.70 81.16 326.10 83.85 328.26
  Q 96.18 338.16 111.01 343.73
  C 115.12 345.27 118.02 345.03 121.99 343.67
  A 0.67 0.66 67.3 0 1 122.79 344.00
  L 126.95 352.24
  C 122.84 355.60 115.48 353.29 110.75 352.35
  C 107.71 351.74 105.38 350.21 102.60 348.86
  Q 93.73 344.57 86.59 337.79
  Q 86.22 337.44 86.10 336.94
  Q 85.48 334.32 83.25 332.76
  A 1.00 0.03 54.3 0 1 82.68 332.01
  C 79.45 327.50 75.86 326.50 74.58 320.07
  Z"
/>
<path fill="#37806c" d="
  M 136.54 328.72
  A 0.33 0.32 -35.9 0 1 137.07 328.80
  L 139.88 334.46
  Q 140.71 336.15 138.93 336.76
  L 118.35 343.73
  A 0.35 0.35 0.0 0 1 118.06 343.09
  Q 128.28 337.15 136.54 328.72
  Z"
/>
<path fill="#37806c" d="
  M 209.72 333.75
  C 214.95 343.24 219.04 353.42 223.58 363.43
  Q 228.52 374.32 231.86 389.20
  L 231.69 389.71
  A 0.47 0.47 0.0 0 1 230.78 389.66
  C 227.34 374.26 220.91 360.40 214.80 345.69
  Q 213.37 342.26 209.09 334.71
  Q 208.83 334.26 209.21 333.90
  Q 209.40 333.72 209.72 333.75
  Z"
/>
<path fill="#aa4b5b" d="
  M 52.20 385.70
  Q 52.15 385.80 52.09 385.90
  L 47.27 385.49
  A 0.58 0.58 0.0 0 1 46.82 384.62
  Q 53.99 372.48 68.01 369.52
  Q 71.93 368.69 73.79 372.56
  Q 74.01 373.02 73.52 373.16
  Q 62.00 376.23 54.09 385.11
  Q 53.74 385.50 53.22 385.49
  Q 52.62 385.47 52.20 385.70
  Z"
/>
<path fill="#aa4b5b" d="
  M 51.76 391.90
  C 55.19 382.39 64.26 376.10 73.78 373.99
  C 78.09 373.03 81.61 373.98 82.58 378.60
  Q 82.69 379.15 82.17 379.37
  Q 73.76 382.92 67.13 389.21
  Q 66.75 389.57 66.23 389.65
  L 51.76 391.90
  Z"
/>
<path fill="#020202" fill-opacity="0.996" d="
  M 113.8317 377.2864
  A 0.27 0.27 0.0 0 1 113.4797 377.4344
  L 105.4061 374.1396
  A 0.27 0.27 0.0 0 1 105.2581 373.7876
  L 105.2883 373.7136
  A 0.27 0.27 0.0 0 1 105.6403 373.5656
  L 113.7139 376.8604
  A 0.27 0.27 0.0 0 1 113.8619 377.2124
  L 113.8317 377.2864
  Z"
/>
<path fill="#aa4b5b" d="
  M 65.00 392.18
  Q 65.23 391.76 65.77 391.47
  L 67.73 389.88
  Q 67.96 390.30 68.17 390.44
  Q 68.38 390.58 68.72 390.27
  Q 75.17 384.36 83.90 380.50
  Q 88.29 379.34 91.91 382.23
  C 95.37 384.99 95.87 389.21 94.88 393.32
  Q 94.75 393.85 94.21 393.95
  C 86.05 395.40 73.25 397.08 63.90 395.39
  A 0.52 0.51 -69.6 0 1 63.55 394.62
  L 65.00 392.18
  Z"
/>
<path fill="#c3686d" d="
  M 83.90 380.50
  Q 75.17 384.36 68.72 390.27
  Q 68.38 390.58 68.17 390.44
  Q 67.96 390.30 67.73 389.88
  C 69.82 387.78 79.39 379.72 83.90 380.50
  Z"
/>
<path fill="#020202" fill-opacity="0.996" d="
  M 211.0280 388.1382
  A 7.44 0.49 7.4 0 1 203.5869 387.6659
  A 7.44 0.49 7.4 0 1 196.2720 386.2218
  A 7.44 0.49 7.4 0 1 203.7131 386.6941
  A 7.44 0.49 7.4 0 1 211.0280 388.1382
  Z"
/>
<path fill="#020202" fill-opacity="0.996" d="
  M 208.37 392.67
  Q 207.07 393.22 208.09 392.25
  Q 209.45 390.97 211.28 390.51
  A 0.43 0.43 0.0 0 1 211.56 391.32
  L 208.37 392.67
  Z"
/>
<path fill="#136a5a" d="
  M 186.26 392.17
  C 188.99 393.09 191.95 393.08 194.26 394.61
  Q 196.90 396.37 198.61 398.49
  L 193.22 403.06
  Q 192.78 403.43 192.50 402.93
  C 190.29 399.08 184.77 394.40 179.98 396.07
  A 0.41 0.41 0.0 0 1 179.67 395.31
  L 186.26 392.17
  Z"
/>
<path fill="#eb7f86" d="
  M 164.71 395.70
  C 168.01 393.29 172.69 393.04 175.00 396.82
  Q 175.27 397.28 174.83 397.57
  Q 166.07 403.45 161.40 412.92
  Q 161.15 413.44 160.58 413.51
  L 150.10 414.85
  A 0.58 0.58 0.0 0 1 149.47 414.12
  C 151.54 406.43 158.51 400.23 164.71 395.70
  Z"
/>
<path fill="#eb7f86" d="
  M 188.22 408.98
  C 186.36 410.14 184.29 414.25 182.99 416.18
  Q 182.74 416.56 182.31 416.72
  Q 171.87 420.64 160.73 421.51
  A 0.73 0.73 0.0 0 1 159.96 420.61
  Q 163.14 407.42 173.78 399.27
  C 180.32 394.26 188.42 397.24 191.92 404.15
  Q 192.17 404.66 192.59 404.27
  C 201.00 396.35 212.20 404.29 211.74 414.34
  A 2.30 2.29 -10.8 0 1 210.38 416.34
  C 200.56 420.80 191.40 425.03 180.66 426.98
  Q 180.09 427.08 180.08 426.51
  C 179.98 422.21 186.06 413.01 188.52 409.29
  Q 189.08 408.45 188.22 408.98
  Z"
/>
<path fill="#136a5a" d="
  M 202.59 396.99
  C 204.90 398.10 207.54 398.36 209.61 399.33
  Q 216.96 402.78 220.24 409.41
  L 213.41 414.27
  Q 212.92 414.62 212.87 414.02
  Q 211.87 401.27 199.17 399.98
  Q 198.27 399.89 199.02 399.39
  L 202.59 396.99
  Z"
/>
<path fill="#f0a39e" d="
  M 168.22 412.15
  A 0.01 0.01 0.0 0 1 168.20 412.15
  L 168.17 412.12
  A 7.01 3.06 -46.2 0 1 170.81 404.94
  L 171.06 404.68
  A 7.01 3.06 -46.2 0 1 178.12 401.74
  L 178.16 401.77
  A 0.01 0.01 0.0 0 1 178.16 401.79
  L 168.22 412.15
  Z"
/>
<path fill="#f0a39e" d="
  M 189.54 415.92
  Q 189.27 416.28 188.80 416.46
  Q 188.09 416.74 188.44 416.06
  Q 191.26 410.57 195.93 406.64
  A 1.03 1.03 0.0 0 1 197.39 408.09
  Q 193.94 412.23 189.88 415.55
  Q 189.69 415.72 189.54 415.92
  Z"
/>
</svg>
