<?xml version="1.0" encoding="UTF-8" standalone="no"?>
<svg xmlns="http://www.w3.org/2000/svg" version="1.2" baseProfile="tiny" viewBox="0.00 0.00 500.00 500.00">
<path fill="#010101" d="
  M 282.48 95.29
  L 282.49 96.07
  Q 280.34 95.38 278.18 95.62
  Q 277.59 95.68 278.06 95.32
  C 291.65 84.85 307.16 76.80 320.03 65.26
  Q 320.60 64.74 319.84 64.64
  C 304.26 62.56 285.78 65.59 271.09 70.17
  Q 270.05 70.49 270.78 69.68
  Q 271.26 69.15 272.04 68.90
  Q 272.50 68.76 272.76 68.34
  C 281.86 53.47 292.08 39.28 300.07 23.73
  Q 300.41 23.08 299.70 23.29
  L 294.21 24.95
  C 279.14 30.82 266.14 41.02 255.25 52.43
  Q 249.23 58.64 245.14 64.85
  Q 241.68 70.09 244.43 64.45
  Q 247.17 58.83 251.38 54.22
  Q 251.73 53.84 251.82 53.33
  Q 254.72 38.40 255.94 23.20
  L 256.51 2.46
  A 0.55 0.55 0.0 0 0 255.55 2.08
  Q 236.67 23.57 227.43 50.82
  Q 224.71 57.72 223.00 65.25
  Q 222.71 66.53 221.67 68.22
  Q 221.56 68.33 221.13 68.18
  Q 222.37 60.47 225.14 52.95
  Q 225.32 52.46 225.17 51.97
  L 223.31 45.99
  L 218.90 26.65
  A 1.41 1.40 -42.2 0 1 218.94 25.88
  Q 219.16 25.18 218.83 24.69
  A 0.51 0.51 0.0 0 0 217.96 24.73
  Q 208.23 42.69 208.01 63.30
  Q 207.82 73.68 209.54 84.09
  Q 209.66 84.79 209.19 84.25
  Q 208.74 83.72 208.78 83.00
  Q 208.80 82.50 208.60 82.05
  C 206.40 77.32 202.37 73.62 197.71 68.53
  Q 197.10 67.86 196.28 68.00
  Q 196.01 67.24 196.73 66.64
  A 0.68 0.67 -40.6 0 1 197.66 66.71
  L 207.02 77.28
  A 0.29 0.29 0.0 0 0 207.52 77.05
  C 205.07 58.49 208.17 38.92 217.90 22.74
  A 0.74 0.74 0.0 0 1 219.26 22.95
  L 225.44 49.27
  A 0.82 0.82 0.0 0 0 227.05 49.17
  Q 227.20 47.75 227.66 46.43
  Q 236.44 21.28 254.38 1.65
  Q 255.56 0.36 256.55 0.36
  Q 257.70 0.36 257.72 1.51
  Q 258.15 23.81 254.42 45.23
  C 254.20 46.51 254.31 48.73 253.32 50.30
  A 0.75 0.75 0.0 0 0 254.50 51.22
  C 266.46 38.63 283.39 25.63 300.62 21.93
  A 0.88 0.88 0.0 0 1 301.57 23.21
  C 293.39 38.22 283.98 52.55 274.70 67.17
  A 0.44 0.43 -82.3 0 0 275.19 67.82
  Q 297.80 60.95 321.29 63.70
  A 0.84 0.84 0.0 0 1 321.77 65.14
  C 310.49 75.88 295.61 85.31 282.36 93.47
  A 0.80 0.80 0.0 0 0 281.98 94.20
  Q 282.02 94.82 282.48 95.29
  Z"
/>
<path fill="#fbf8d2" d="
  M 255.94 23.20
  Q 255.40 26.05 254.38 26.13
  Q 253.97 26.17 253.89 26.56
  Q 253.13 29.97 250.74 32.28
  Q 250.36 32.64 250.20 33.14
  L 249.04 36.72
  Q 248.90 37.15 249.06 37.57
  C 250.74 42.12 240.22 45.85 237.14 46.43
  Q 236.60 46.53 236.22 46.91
  Q 234.99 48.14 233.28 48.50
  A 1.10 1.06 -78.9 0 0 232.58 48.99
  Q 230.51 52.19 227.43 50.82
  Q 236.67 23.57 255.55 2.08
  A 0.55 0.55 0.0 0 1 256.51 2.46
  L 255.94 23.20
  Z"
/>
<path fill="#ede89e" d="
  M 255.94 23.20
  Q 254.72 38.40 251.82 53.33
  Q 251.73 53.84 251.38 54.22
  Q 247.17 58.83 244.43 64.45
  Q 241.68 70.09 245.14 64.85
  Q 249.23 58.64 255.25 52.43
  Q 258.94 51.43 261.87 51.42
  C 267.83 51.41 273.15 49.28 278.87 48.35
  Q 279.41 48.26 279.77 47.84
  Q 280.86 46.58 282.52 46.74
  Q 283.03 46.79 283.35 46.39
  Q 284.56 44.91 284.19 43.00
  Q 284.10 42.52 284.37 42.12
  C 286.76 38.58 288.50 34.19 291.51 31.26
  Q 294.11 28.74 294.21 24.95
  L 299.70 23.29
  Q 300.41 23.08 300.07 23.73
  C 292.08 39.28 281.86 53.47 272.76 68.34
  Q 272.50 68.76 272.04 68.90
  Q 271.26 69.15 270.78 69.68
  Q 270.05 70.49 271.09 70.17
  C 285.78 65.59 304.26 62.56 319.84 64.64
  Q 320.60 64.74 320.03 65.26
  C 307.16 76.80 291.65 84.85 278.06 95.32
  Q 277.59 95.68 278.18 95.62
  Q 280.34 95.38 282.49 96.07
  Q 283.30 96.39 284.26 96.18
  Q 298.03 98.87 310.56 104.68
  A 0.50 0.49 -36.6 0 1 310.42 105.62
  Q 287.04 108.92 264.52 116.56
  Q 264.30 116.46 264.25 116.28
  Q 264.14 115.96 264.41 115.75
  L 277.54 105.77
  A 0.76 0.76 0.0 0 0 277.21 104.41
  L 265.98 102.46
  Q 264.71 102.24 265.24 101.07
  Q 269.52 91.64 275.42 83.09
  Q 276.50 81.53 274.60 81.65
  Q 263.52 82.37 253.70 87.52
  A 0.25 0.25 0.0 0 1 253.35 87.21
  Q 256.68 77.74 256.95 67.71
  A 0.84 0.84 0.0 0 0 255.67 66.98
  Q 246.23 72.89 239.32 81.58
  A 0.39 0.39 0.0 0 1 238.64 81.46
  L 231.83 61.79
  A 0.49 0.48 60.7 0 0 231.06 61.57
  C 226.56 65.35 222.60 77.86 221.35 83.42
  A 0.59 0.59 0.0 0 1 220.25 83.55
  L 213.74 70.61
  A 0.28 0.28 0.0 0 0 213.23 70.63
  C 210.59 77.56 211.08 86.51 211.86 93.83
  Q 211.94 94.55 211.38 94.08
  L 202.85 86.82
  A 0.55 0.55 0.0 0 0 201.95 87.32
  L 202.60 91.69
  Q 202.10 91.64 201.79 92.29
  Q 197.73 82.02 197.27 71.14
  C 197.23 70.14 196.79 69.61 196.09 69.00
  Q 196.34 69.01 196.28 68.00
  Q 197.10 67.86 197.71 68.53
  C 202.37 73.62 206.40 77.32 208.60 82.05
  Q 208.80 82.50 208.78 83.00
  Q 208.74 83.72 209.19 84.25
  Q 209.66 84.79 209.54 84.09
  Q 207.82 73.68 208.01 63.30
  Q 208.50 65.50 210.03 63.24
  Q 210.55 62.46 211.16 61.97
  Q 214.42 59.36 217.15 56.12
  A 1.50 1.43 7.9 0 1 217.75 55.69
  C 221.50 54.14 221.17 51.93 221.86 48.48
  Q 221.97 47.96 222.47 47.80
  Q 223.51 47.47 223.31 45.99
  L 225.17 51.97
  Q 225.32 52.46 225.14 52.95
  Q 222.37 60.47 221.13 68.18
  L 220.80 71.01
  Q 220.67 72.07 221.29 71.20
  Q 222.08 70.09 221.67 68.22
  Q 222.71 66.53 223.00 65.25
  Q 224.71 57.72 227.43 50.82
  Q 230.51 52.19 232.58 48.99
  A 1.10 1.06 -78.9 0 1 233.28 48.50
  Q 234.99 48.14 236.22 46.91
  Q 236.60 46.53 237.14 46.43
  C 240.22 45.85 250.74 42.12 249.06 37.57
  Q 248.90 37.15 249.04 36.72
  L 250.20 33.14
  Q 250.36 32.64 250.74 32.28
  Q 253.13 29.97 253.89 26.56
  Q 253.97 26.17 254.38 26.13
  Q 255.40 26.05 255.94 23.20
  Z"
/>
<path fill="#fbf8d2" d="
  M 223.31 45.99
  Q 223.51 47.47 222.47 47.80
  Q 221.97 47.96 221.86 48.48
  C 221.17 51.93 221.50 54.14 217.75 55.69
  A 1.50 1.43 7.9 0 0 217.15 56.12
  Q 214.42 59.36 211.16 61.97
  Q 210.55 62.46 210.03 63.24
  Q 208.50 65.50 208.01 63.30
  Q 208.23 42.69 217.96 24.73
  A 0.51 0.51 0.0 0 1 218.83 24.69
  Q 219.16 25.18 218.94 25.88
  A 1.41 1.40 -42.2 0 0 218.90 26.65
  L 223.31 45.99
  Z"
/>
<path fill="#fbf8d2" d="
  M 294.21 24.95
  Q 294.11 28.74 291.51 31.26
  C 288.50 34.19 286.76 38.58 284.37 42.12
  Q 284.10 42.52 284.19 43.00
  Q 284.56 44.91 283.35 46.39
  Q 283.03 46.79 282.52 46.74
  Q 280.86 46.58 279.77 47.84
  Q 279.41 48.26 278.87 48.35
  C 273.15 49.28 267.83 51.41 261.87 51.42
  Q 258.94 51.43 255.25 52.43
  C 266.14 41.02 279.14 30.82 294.21 24.95
  Z"
/>
<path fill="#c7ad3b" d="
  M 264.52 116.56
  Q 263.35 117.28 261.85 117.28
  Q 267.40 111.36 275.11 106.38
  A 0.81 0.81 0.0 0 0 274.77 104.90
  L 264.83 103.77
  Q 263.05 103.57 263.71 101.90
  Q 267.59 92.10 273.73 83.53
  A 0.47 0.47 0.0 0 0 273.27 82.79
  Q 266.05 83.95 259.08 86.72
  Q 255.73 88.05 252.20 89.16
  Q 251.63 89.34 251.80 88.77
  Q 254.56 79.31 255.39 69.49
  A 0.54 0.54 0.0 0 0 254.52 69.03
  Q 246.15 75.75 238.79 83.60
  A 0.49 0.49 0.0 0 1 237.97 83.43
  L 231.25 64.41
  A 0.48 0.47 -39.6 0 0 230.39 64.33
  Q 225.01 73.67 222.43 84.16
  Q 221.86 86.49 220.27 84.69
  Q 216.17 80.07 214.10 74.28
  A 0.49 0.49 0.0 0 0 213.15 74.45
  C 213.26 78.81 212.21 83.03 212.51 87.19
  Q 212.77 90.82 212.98 94.61
  A 0.88 0.88 0.0 0 1 211.58 95.36
  L 204.28 89.91
  A 0.50 0.50 0.0 0 0 203.49 90.43
  Q 203.81 91.69 203.69 92.92
  Q 203.62 93.68 203.15 93.08
  Q 202.69 92.49 202.60 91.69
  L 201.95 87.32
  A 0.55 0.55 0.0 0 1 202.85 86.82
  L 211.38 94.08
  Q 211.94 94.55 211.86 93.83
  C 211.08 86.51 210.59 77.56 213.23 70.63
  A 0.28 0.28 0.0 0 1 213.74 70.61
  L 220.25 83.55
  A 0.59 0.59 0.0 0 0 221.35 83.42
  C 222.60 77.86 226.56 65.35 231.06 61.57
  A 0.49 0.48 60.7 0 1 231.83 61.79
  L 238.64 81.46
  A 0.39 0.39 0.0 0 0 239.32 81.58
  Q 246.23 72.89 255.67 66.98
  A 0.84 0.84 0.0 0 1 256.95 67.71
  Q 256.68 77.74 253.35 87.21
  A 0.25 0.25 0.0 0 0 253.70 87.52
  Q 263.52 82.37 274.60 81.65
  Q 276.50 81.53 275.42 83.09
  Q 269.52 91.64 265.24 101.07
  Q 264.71 102.24 265.98 102.46
  L 277.21 104.41
  A 0.76 0.76 0.0 0 1 277.54 105.77
  L 264.41 115.75
  Q 264.14 115.96 264.25 116.28
  Q 264.30 116.46 264.52 116.56
  Z"
/>
<path fill="#f2d134" d="
  M 261.85 117.28
  C 251.88 120.26 245.41 127.24 242.31 136.98
  C 239.57 145.59 242.48 154.66 236.89 162.40
  C 234.43 165.80 226.33 168.70 223.51 164.55
  Q 224.06 164.52 224.45 164.29
  Q 227.21 165.97 230.04 164.63
  A 0.55 0.55 0.0 0 0 230.27 163.85
  L 227.65 159.47
  A 0.55 0.54 -27.4 0 1 227.90 158.70
  L 233.83 156.07
  Q 234.44 155.80 234.04 155.26
  L 231.15 151.46
  L 235.91 147.27
  Q 236.24 146.98 236.26 146.54
  Q 236.28 146.10 236.13 145.89
  Q 232.53 124.82 247.24 115.44
  C 254.55 118.88 261.01 112.74 257.64 105.89
  C 253.78 98.04 242.31 104.87 246.70 114.37
  C 241.16 118.56 235.30 118.22 228.70 117.47
  A 1.70 1.69 -72.3 0 0 227.02 118.34
  L 223.40 124.90
  Q 223.11 125.42 222.56 125.21
  L 216.43 122.83
  Q 216.01 122.67 215.82 123.07
  L 213.37 128.21
  Q 213.14 128.69 212.61 128.70
  Q 211.83 128.70 211.21 127.82
  L 213.47 121.23
  Q 213.66 120.67 213.14 120.39
  L 212.30 119.95
  Q 211.78 119.67 211.91 119.10
  L 213.21 113.46
  Q 213.31 113.02 213.70 112.78
  C 217.78 110.31 221.57 106.03 223.49 101.57
  A 1.12 1.11 -48.2 0 0 223.44 100.58
  Q 221.99 97.95 221.43 101.55
  Q 220.83 100.80 220.35 102.05
  A 0.79 0.79 0.0 0 1 219.03 102.31
  Q 217.12 100.27 214.54 99.17
  Q 213.97 98.92 214.36 99.40
  L 217.77 103.55
  A 0.62 0.62 0.0 0 1 217.05 104.51
  L 212.88 102.70
  A 0.50 0.50 0.0 0 0 212.39 103.57
  L 215.31 105.59
  A 0.89 0.89 0.0 0 1 215.29 107.07
  L 214.17 107.80
  Q 209.58 102.98 207.74 108.59
  L 200.89 101.74
  L 205.50 102.60
  Q 205.97 103.96 206.98 104.23
  Q 207.59 104.38 207.32 103.82
  L 201.79 92.29
  Q 202.10 91.64 202.60 91.69
  Q 202.69 92.49 203.15 93.08
  Q 203.62 93.68 203.69 92.92
  Q 203.81 91.69 203.49 90.43
  A 0.50 0.50 0.0 0 1 204.28 89.91
  L 211.58 95.36
  A 0.88 0.88 0.0 0 0 212.98 94.61
  Q 212.77 90.82 212.51 87.19
  C 212.21 83.03 213.26 78.81 213.15 74.45
  A 0.49 0.49 0.0 0 1 214.10 74.28
  Q 216.17 80.07 220.27 84.69
  Q 221.86 86.49 222.43 84.16
  Q 225.01 73.67 230.39 64.33
  A 0.48 0.47 -39.6 0 1 231.25 64.41
  L 237.97 83.43
  A 0.49 0.49 0.0 0 0 238.79 83.60
  Q 246.15 75.75 254.52 69.03
  A 0.54 0.54 0.0 0 1 255.39 69.49
  Q 254.56 79.31 251.80 88.77
  Q 251.63 89.34 252.20 89.16
  Q 255.73 88.05 259.08 86.72
  Q 266.05 83.95 273.27 82.79
  A 0.47 0.47 0.0 0 1 273.73 83.53
  Q 267.59 92.10 263.71 101.90
  Q 263.05 103.57 264.83 103.77
  L 274.77 104.90
  A 0.81 0.81 0.0 0 1 275.11 106.38
  Q 267.40 111.36 261.85 117.28
  Z"
/>
<path fill="#f2d134" d="
  M 221.13 68.18
  Q 221.56 68.33 221.67 68.22
  Q 222.08 70.09 221.29 71.20
  Q 220.67 72.07 220.80 71.01
  L 221.13 68.18
  Z"
/>
<path fill="#010101" d="
  M 196.09 69.00
  C 196.79 69.61 197.23 70.14 197.27 71.14
  Q 197.73 82.02 201.79 92.29
  L 207.32 103.82
  Q 207.59 104.38 206.98 104.23
  Q 205.97 103.96 205.50 102.60
  C 202.87 96.90 200.94 96.65 196.03 93.44
  A 0.30 0.30 0.0 0 0 195.62 93.85
  L 200.89 101.74
  L 207.74 108.59
  C 209.52 111.30 212.17 108.89 214.17 107.80
  L 215.29 107.07
  A 0.89 0.89 0.0 0 0 215.31 105.59
  L 212.39 103.57
  A 0.50 0.50 0.0 0 1 212.88 102.70
  L 217.05 104.51
  A 0.62 0.62 0.0 0 0 217.77 103.55
  L 214.36 99.40
  Q 213.97 98.92 214.54 99.17
  Q 217.12 100.27 219.03 102.31
  A 0.79 0.79 0.0 0 0 220.35 102.05
  Q 220.83 100.80 221.43 101.55
  C 215.62 112.71 201.16 115.21 189.39 114.02
  C 187.23 113.80 185.59 114.28 184.22 115.79
  Q 175.05 125.92 185.19 134.25
  Q 185.59 134.58 185.77 134.08
  C 186.98 130.64 186.81 125.35 190.31 123.56
  Q 190.81 123.30 190.58 123.81
  L 190.13 124.78
  Q 189.93 125.22 190.06 125.69
  C 190.93 128.76 190.78 133.01 193.65 135.02
  A 1.28 1.28 0.0 0 0 195.51 134.57
  L 198.34 129.30
  A 0.92 0.91 30.6 0 1 199.66 128.97
  L 203.83 131.70
  A 0.63 0.62 28.9 0 0 204.74 131.44
  L 207.42 125.52
  Q 207.69 124.94 208.18 125.35
  L 211.21 127.82
  Q 211.83 128.70 212.61 128.70
  Q 213.14 128.69 213.37 128.21
  L 215.82 123.07
  Q 216.01 122.67 216.43 122.83
  L 222.56 125.21
  Q 223.11 125.42 223.40 124.90
  L 227.02 118.34
  A 1.70 1.69 -72.3 0 1 228.70 117.47
  C 235.30 118.22 241.16 118.56 246.70 114.37
  L 252.32 108.31
  A 0.25 0.24 -13.1 0 1 252.73 108.56
  Q 251.14 112.56 247.24 115.44
  Q 232.53 124.82 236.13 145.89
  Q 233.39 147.85 230.80 150.06
  Q 230.24 150.54 231.15 151.46
  L 234.04 155.26
  Q 234.44 155.80 233.83 156.07
  L 227.90 158.70
  A 0.55 0.54 -27.4 0 0 227.65 159.47
  L 230.27 163.85
  A 0.55 0.55 0.0 0 1 230.04 164.63
  Q 227.21 165.97 224.45 164.29
  L 228.44 164.50
  A 0.58 0.58 0.0 0 0 228.94 163.59
  L 226.22 159.70
  A 1.13 1.13 0.0 0 1 226.68 158.02
  L 232.01 155.64
  Q 232.55 155.40 232.21 154.92
  L 229.82 151.48
  L 228.85 150.12
  Q 228.48 149.60 229.01 149.24
  L 234.25 145.64
  Q 234.68 145.34 234.62 144.82
  Q 233.80 137.12 234.98 129.82
  L 235.54 127.98
  L 240.61 119.38
  Q 241.03 118.67 240.22 118.82
  Q 234.74 119.82 229.27 118.63
  A 0.88 0.87 -64.8 0 0 228.39 118.95
  Q 226.10 121.96 225.53 124.75
  Q 224.06 125.61 222.95 125.95
  C 221.15 126.51 218.66 124.79 216.84 124.21
  A 0.69 0.68 20.0 0 0 216.00 124.60
  L 214.05 129.16
  A 1.29 1.29 0.0 0 1 212.12 129.72
  L 208.63 127.28
  A 0.76 0.76 0.0 0 0 207.49 127.61
  L 205.48 132.47
  A 0.86 0.86 0.0 0 1 204.47 132.97
  Q 201.85 132.27 200.16 130.26
  A 0.76 0.76 0.0 0 0 198.92 130.37
  L 195.69 136.08
  A 1.24 1.24 0.0 0 1 193.47 135.95
  Q 192.89 134.59 191.52 134.76
  L 191.02 134.75
  Q 189.97 131.48 189.64 128.07
  Q 189.57 127.29 189.24 127.16
  Q 188.70 126.95 188.59 127.51
  C 187.62 132.45 182.00 154.12 188.24 156.18
  C 190.50 156.92 192.41 155.76 193.20 153.51
  C 194.78 148.98 192.98 143.12 191.97 138.50
  Q 192.13 138.02 192.77 137.95
  Q 195.38 145.12 194.69 152.49
  C 194.19 157.92 188.06 159.71 185.15 155.03
  C 182.56 150.89 185.20 141.81 185.29 136.78
  Q 185.30 136.26 184.93 135.90
  Q 182.08 133.09 180.06 129.70
  C 176.46 123.67 180.44 116.63 185.83 113.33
  C 187.98 112.01 191.30 113.52 193.77 113.35
  Q 200.30 112.91 206.44 111.39
  A 0.99 0.99 0.0 0 0 206.87 109.69
  C 202.71 105.99 195.24 98.03 194.16 92.44
  A 0.62 0.61 -84.5 0 1 194.99 91.75
  Q 198.11 93.00 200.50 95.35
  A 0.74 0.74 0.0 0 0 201.75 94.96
  Q 201.87 94.36 201.34 93.93
  Q 200.96 93.61 200.79 93.15
  Q 196.29 81.46 196.09 69.00
  Z"
/>
<path fill="#ede89e" d="
  M 205.50 102.60
  L 200.89 101.74
  L 195.62 93.85
  A 0.30 0.30 0.0 0 1 196.03 93.44
  C 200.94 96.65 202.87 96.90 205.50 102.60
  Z"
/>
<path fill="#1a3c64" d="
  M 282.48 95.29
  Q 283.08 95.33 283.52 95.14
  Q 283.77 95.81 284.26 96.18
  Q 283.30 96.39 282.49 96.07
  L 282.48 95.29
  Z"
/>
<path fill="#010101" d="
  M 283.52 95.14
  C 292.87 96.34 304.09 99.77 312.82 105.02
  A 0.59 0.59 0.0 0 1 312.62 106.11
  Q 302.49 107.94 292.23 109.88
  Q 284.60 111.32 277.27 113.76
  A 1.56 1.55 -22.1 0 0 276.36 115.91
  Q 279.70 122.80 278.86 130.67
  Q 277.85 140.04 270.98 150.91
  Q 271.69 150.53 270.28 152.23
  L 265.49 158.47
  L 259.62 165.35
  A 0.61 0.60 -52.7 0 0 259.74 166.25
  Q 263.43 168.72 265.21 172.77
  Q 265.43 173.26 265.12 173.71
  Q 263.06 176.70 259.43 177.15
  Q 255.71 177.62 251.50 178.82
  Q 245.97 178.62 240.09 177.87
  C 227.59 176.27 245.93 156.90 249.11 154.11
  L 249.28 153.48
  Q 249.39 153.04 248.94 153.02
  Q 248.40 153.00 248.18 152.68
  L 249.72 152.74
  Q 250.23 152.76 250.54 152.35
  C 257.08 143.88 264.45 131.87 261.00 120.41
  A 0.91 0.90 85.1 0 0 260.24 119.77
  Q 257.83 119.47 255.51 121.02
  C 244.33 128.51 240.83 140.27 242.19 153.17
  Q 241.53 152.99 241.81 154.66
  C 240.79 159.01 238.78 163.56 234.91 165.90
  Q 227.70 170.26 219.57 163.50
  A 1.39 1.39 0.0 0 1 220.02 161.11
  L 223.09 160.10
  Q 223.63 159.92 223.42 159.40
  Q 223.04 158.49 222.07 158.31
  L 221.55 157.01
  Q 221.78 156.02 220.42 155.08
  A 1.28 1.28 0.0 0 1 220.55 152.90
  L 224.26 150.96
  Q 224.77 150.69 224.77 150.11
  L 224.70 140.23
  A 0.51 0.51 0.0 0 0 223.70 140.11
  C 222.53 144.83 218.47 145.85 216.77 150.67
  A 1.83 1.73 81.4 0 1 216.20 151.49
  C 209.64 156.80 205.53 147.21 210.97 142.70
  C 215.72 138.76 214.64 132.15 220.83 130.21
  Q 224.35 129.12 225.46 125.51
  Q 225.40 126.48 225.70 127.07
  C 224.52 132.17 217.70 129.94 216.20 136.75
  C 214.99 141.60 211.36 142.48 209.89 146.01
  Q 208.64 149.03 211.11 151.38
  A 1.43 1.42 68.2 0 0 212.01 151.77
  C 216.39 151.98 216.04 147.69 218.70 145.20
  Q 222.01 143.10 223.31 138.59
  A 1.28 1.27 -7.2 0 1 223.90 137.83
  C 227.09 135.92 229.60 134.84 233.24 131.73
  Q 231.23 136.11 226.43 137.74
  Q 225.89 137.93 225.82 138.50
  Q 225.10 144.34 226.29 150.13
  A 0.99 0.99 0.0 0 1 225.84 151.16
  L 221.95 153.56
  A 0.89 0.89 0.0 0 0 221.53 154.43
  Q 221.59 155.01 222.00 155.58
  Q 223.17 157.07 224.15 158.31
  Q 225.27 159.72 224.56 160.46
  Q 223.91 161.13 222.26 161.77
  Q 221.53 162.06 221.53 162.83
  Q 221.53 163.76 223.51 164.55
  C 226.33 168.70 234.43 165.80 236.89 162.40
  C 242.48 154.66 239.57 145.59 242.31 136.98
  C 245.41 127.24 251.88 120.26 261.85 117.28
  Q 263.35 117.28 264.52 116.56
  Q 287.04 108.92 310.42 105.62
  A 0.50 0.49 -36.6 0 0 310.56 104.68
  Q 298.03 98.87 284.26 96.18
  Q 283.77 95.81 283.52 95.14
  Z"
/>
<g stroke-width="2.00" fill="none" stroke-linecap="butt">
<path stroke="#ccb039" vector-effect="non-scaling-stroke" d="
  M 277.55 124.55
  Q 276.30 124.42 276.40 126.67"
/>
<path stroke="#b79e3c" vector-effect="non-scaling-stroke" d="
  M 276.40 126.67
  C 272.74 129.80 265.04 136.53 261.49 135.52"
/>
<path stroke="#ddbf38" vector-effect="non-scaling-stroke" d="
  M 257.94 165.96
  Q 251.19 172.79 240.96 174.79
  Q 240.49 174.88 240.32 175.32
  Q 240.05 176.02 239.54 176.54"
/>
<path stroke="#ddbf38" vector-effect="non-scaling-stroke" d="
  M 259.35 140.50
  C 263.59 140.51 271.55 134.69 274.54 131.56
  Q 276.46 129.55 276.40 126.67"
/>
</g>
<path fill="#010101" d="
  M 239.59 103.08
  Q 242.43 101.21 245.94 101.80
  A 0.43 0.43 0.0 0 1 245.97 102.64
  Q 239.23 104.31 236.54 110.70
  A 0.35 0.35 0.0 0 1 235.87 110.63
  Q 234.03 100.63 243.54 97.55
  Q 243.90 97.43 244.15 97.54
  Q 244.77 97.82 244.17 98.14
  Q 241.14 99.79 239.12 102.59
  A 0.35 0.34 1.3 0 0 239.59 103.08
  Z"
/>
<path fill="#fdef7d" d="
  M 211.21 127.82
  L 208.18 125.35
  Q 207.69 124.94 207.42 125.52
  L 204.74 131.44
  A 0.63 0.62 28.9 0 1 203.83 131.70
  L 199.66 128.97
  A 0.92 0.91 30.6 0 0 198.34 129.30
  L 195.51 134.57
  A 1.28 1.28 0.0 0 1 193.65 135.02
  C 190.78 133.01 190.93 128.76 190.06 125.69
  Q 189.93 125.22 190.13 124.78
  L 190.58 123.81
  Q 190.81 123.30 190.31 123.56
  C 186.81 125.35 186.98 130.64 185.77 134.08
  Q 185.59 134.58 185.19 134.25
  Q 175.05 125.92 184.22 115.79
  C 185.59 114.28 187.23 113.80 189.39 114.02
  C 201.16 115.21 215.62 112.71 221.43 101.55
  Q 221.99 97.95 223.44 100.58
  A 1.12 1.11 -48.2 0 1 223.49 101.57
  C 221.57 106.03 217.78 110.31 213.70 112.78
  Q 213.31 113.02 213.21 113.46
  L 211.91 119.10
  Q 211.78 119.67 212.30 119.95
  L 213.14 120.39
  Q 213.66 120.67 213.47 121.23
  L 211.21 127.82
  Z"
/>
<path fill="#41a8d5" d="
  M 247.24 115.44
  Q 251.14 112.56 252.73 108.56
  A 0.25 0.24 -13.1 0 0 252.32 108.31
  L 246.70 114.37
  C 242.31 104.87 253.78 98.04 257.64 105.89
  C 261.01 112.74 254.55 118.88 247.24 115.44
  Z"
/>
<path fill="#41a8d5" d="
  M 214.17 107.80
  C 212.17 108.89 209.52 111.30 207.74 108.59
  Q 209.58 102.98 214.17 107.80
  Z"
/>
<path fill="#a68f3d" d="
  M 277.55 124.55
  Q 276.30 124.42 276.40 126.67
  C 272.74 129.80 265.04 136.53 261.49 135.52
  Q 264.73 127.26 261.99 119.25
  Q 261.85 118.85 262.25 118.72
  L 273.71 114.91
  A 0.63 0.63 0.0 0 1 274.48 115.22
  Q 276.84 119.68 277.55 124.55
  Z"
/>
<path fill="#3886b1" d="
  M 235.54 127.98
  Q 235.44 127.15 234.86 126.92
  Q 234.44 126.76 234.23 126.35
  C 232.12 122.31 227.10 122.18 225.70 127.07
  Q 225.40 126.48 225.46 125.51
  Q 225.50 125.13 225.53 124.75
  Q 226.10 121.96 228.39 118.95
  A 0.88 0.87 -64.8 0 1 229.27 118.63
  Q 234.74 119.82 240.22 118.82
  Q 241.03 118.67 240.61 119.38
  L 235.54 127.98
  Z"
/>
<path fill="#84c9dd" d="
  M 235.54 127.98
  L 234.98 129.82
  Q 232.61 130.65 233.24 131.73
  C 229.60 134.84 227.09 135.92 223.90 137.83
  A 1.28 1.27 -7.2 0 0 223.31 138.59
  Q 222.01 143.10 218.70 145.20
  L 216.59 139.60
  Q 216.36 139.01 216.81 138.57
  L 217.02 138.35
  Q 217.41 137.97 217.15 137.48
  Q 216.87 136.94 216.20 136.75
  C 217.70 129.94 224.52 132.17 225.70 127.07
  C 227.10 122.18 232.12 122.31 234.23 126.35
  Q 234.44 126.76 234.86 126.92
  Q 235.44 127.15 235.54 127.98
  Z"
/>
<path fill="#a68f3d" d="
  M 183.6591 127.4944
  A 2.03 0.57 49.1 0 1 181.8992 126.3332
  A 2.03 0.57 49.1 0 1 181.0009 124.4256
  A 2.03 0.57 49.1 0 1 182.7608 125.5868
  A 2.03 0.57 49.1 0 1 183.6591 127.4944
  Z"
/>
<path fill="#f2d134" d="
  M 277.55 124.55
  C 278.25 142.33 267.97 152.94 257.94 165.96
  Q 251.19 172.79 240.96 174.79
  Q 240.49 174.88 240.32 175.32
  Q 240.05 176.02 239.54 176.54
  Q 237.73 175.90 236.97 174.93
  Q 236.64 174.50 236.83 173.99
  Q 240.31 164.55 246.88 157.86
  Q 254.84 149.76 259.35 140.50
  C 263.59 140.51 271.55 134.69 274.54 131.56
  Q 276.46 129.55 276.40 126.67
  Q 276.30 124.42 277.55 124.55
  Z"
/>
<path fill="#ffffff" d="
  M 191.02 134.75
  Q 190.75 136.56 191.97 138.50
  C 192.98 143.12 194.78 148.98 193.20 153.51
  C 192.41 155.76 190.50 156.92 188.24 156.18
  C 182.00 154.12 187.62 132.45 188.59 127.51
  Q 188.70 126.95 189.24 127.16
  Q 189.57 127.29 189.64 128.07
  Q 189.97 131.48 191.02 134.75
  Z"
/>
<path fill="#c7ad3b" d="
  M 276.40 126.67
  Q 276.46 129.55 274.54 131.56
  C 271.55 134.69 263.59 140.51 259.35 140.50
  L 261.49 135.52
  C 265.04 136.53 272.74 129.80 276.40 126.67
  Z"
/>
<path fill="#3886b1" d="
  M 234.98 129.82
  Q 233.80 137.12 234.62 144.82
  Q 234.68 145.34 234.25 145.64
  L 229.01 149.24
  Q 228.48 149.60 228.85 150.12
  L 229.82 151.48
  Q 224.93 152.29 222.00 155.58
  Q 221.59 155.01 221.53 154.43
  A 0.89 0.89 0.0 0 1 221.95 153.56
  L 225.84 151.16
  A 0.99 0.99 0.0 0 0 226.29 150.13
  Q 225.10 144.34 225.82 138.50
  Q 225.89 137.93 226.43 137.74
  Q 231.23 136.11 233.24 131.73
  Q 232.61 130.65 234.98 129.82
  Z"
/>
<path fill="#1a3c64" d="
  M 191.02 134.75
  L 191.52 134.76
  L 192.77 137.95
  Q 192.13 138.02 191.97 138.50
  Q 190.75 136.56 191.02 134.75
  Z"
/>
<path fill="#cfdee7" d="
  M 216.20 136.75
  Q 216.87 136.94 217.15 137.48
  Q 217.41 137.97 217.02 138.35
  L 216.81 138.57
  Q 216.36 139.01 216.59 139.60
  L 218.70 145.20
  C 216.04 147.69 216.39 151.98 212.01 151.77
  A 1.43 1.42 68.2 0 1 211.11 151.38
  Q 208.64 149.03 209.89 146.01
  C 211.36 142.48 214.99 141.60 216.20 136.75
  Z"
/>
<path fill="#fdef7d" d="
  M 236.13 145.89
  Q 236.28 146.10 236.26 146.54
  Q 236.24 146.98 235.91 147.27
  L 231.15 151.46
  Q 230.24 150.54 230.80 150.06
  Q 233.39 147.85 236.13 145.89
  Z"
/>
<path fill="#709fbc" d="
  M 270.98 150.91
  C 298.36 149.76 324.69 153.12 349.31 165.24
  C 355.52 168.30 363.06 173.58 368.12 178.54
  C 389.77 199.73 400.21 229.47 403.42 259.02
  C 405.21 275.50 404.90 293.42 402.14 309.77
  C 400.21 321.20 392.41 343.14 381.13 347.61
  Q 380.67 347.79 380.49 348.25
  Q 379.92 349.63 379.72 351.00
  Q 378.31 360.54 373.30 374.31
  C 370.44 382.19 362.60 391.62 353.49 392.44
  Q 352.78 391.86 351.67 392.01
  A 1.14 1.13 61.5 0 1 350.77 391.74
  C 336.85 379.79 329.57 357.03 326.58 339.55
  Q 326.49 339.06 325.99 339.13
  C 305.77 341.96 287.25 331.45 277.75 313.72
  Q 274.38 306.44 272.64 298.91
  A 1.25 1.24 -6.2 0 0 271.44 297.95
  L 260.19 297.90
  L 236.71 296.05
  Q 236.18 296.01 235.80 296.37
  L 234.56 297.57
  Q 228.82 297.01 224.90 292.59
  C 228.64 293.28 232.13 294.22 235.65 294.65
  Q 252.60 296.69 269.67 296.24
  C 270.46 296.21 271.78 296.56 272.65 296.66
  Q 273.15 296.71 273.43 297.14
  Q 280.64 308.07 282.72 310.79
  C 294.00 325.63 313.28 335.18 332.39 331.38
  A 1.68 1.67 -12.3 0 1 334.35 332.63
  C 339.08 352.77 345.56 371.20 360.48 386.11
  A 0.73 0.72 41.2 0 1 360.55 387.06
  L 359.58 388.34
  A 0.38 0.38 0.0 0 0 360.10 388.89
  C 372.33 380.58 376.84 363.24 378.74 348.36
  Q 378.80 347.85 378.39 347.53
  C 366.56 338.41 361.77 314.45 360.02 300.54
  Q 359.95 300.05 359.46 300.01
  Q 351.72 299.49 349.75 299.01
  C 332.98 294.92 320.14 279.61 313.17 264.56
  Q 311.82 261.64 308.12 252.13
  Q 307.92 249.98 309.16 250.50
  A 0.69 0.66 -86.2 0 1 309.56 250.98
  Q 310.41 254.66 311.93 256.10
  Q 312.48 260.18 314.28 263.98
  C 323.46 283.33 338.14 298.27 360.65 298.55
  Q 361.35 298.56 361.42 299.26
  C 362.85 313.54 367.86 336.21 379.18 346.23
  Q 379.56 346.57 380.05 346.46
  Q 382.48 345.92 384.05 344.55
  C 393.67 336.14 398.59 321.83 400.70 309.50
  Q 403.52 296.53 402.98 283.33
  Q 402.96 282.91 403.19 282.56
  Q 403.92 281.43 403.17 280.53
  Q 402.87 280.17 402.90 279.70
  C 403.47 269.84 402.19 260.13 400.95 250.52
  Q 400.12 244.17 398.49 238.25
  Q 396.31 230.35 392.65 219.74
  C 384.96 197.42 370.37 178.40 349.48 166.96
  Q 333.47 158.82 315.83 155.51
  Q 315.49 155.44 312.86 154.49
  C 310.91 153.78 309.09 154.92 307.27 154.14
  Q 306.20 153.68 305.63 153.60
  Q 288.89 151.37 271.98 152.29
  Q 271.15 152.34 270.28 152.23
  Q 271.69 150.53 270.98 150.91
  Z"
/>
<path fill="#84c9dd" d="
  M 229.82 151.48
  L 232.21 154.92
  Q 232.55 155.40 232.01 155.64
  L 226.68 158.02
  A 1.13 1.13 0.0 0 0 226.22 159.70
  L 228.94 163.59
  A 0.58 0.58 0.0 0 1 228.44 164.50
  L 224.45 164.29
  Q 224.06 164.52 223.51 164.55
  Q 221.53 163.76 221.53 162.83
  Q 221.53 162.06 222.26 161.77
  Q 223.91 161.13 224.56 160.46
  Q 225.27 159.72 224.15 158.31
  Q 223.17 157.07 222.00 155.58
  Q 224.93 152.29 229.82 151.48
  Z"
/>
<path fill="#ffffff" d="
  M 349.48 166.96
  C 349.50 169.70 352.67 170.70 354.58 172.00
  A 1.26 1.25 -27.6 0 0 355.29 172.22
  Q 357.32 172.18 357.23 174.11
  Q 357.20 174.61 357.65 174.85
  Q 358.95 175.55 358.90 176.93
  A 0.55 0.54 -68.5 0 0 359.08 177.36
  L 365.69 183.56
  A 0.60 0.54 -16.1 0 0 365.98 183.70
  Q 366.94 183.89 366.98 184.96
  A 0.89 0.89 0.0 0 0 367.35 185.64
  C 370.96 188.27 372.48 191.87 375.42 194.75
  C 381.34 200.56 383.41 206.42 387.22 213.21
  C 389.63 217.50 390.77 220.63 392.37 224.72
  C 394.28 229.60 394.84 235.01 396.43 240.11
  C 397.68 244.14 398.02 248.85 399.76 253.15
  C 400.48 254.90 401.57 255.20 400.77 257.54
  Q 398.82 263.22 401.04 269.16
  Q 401.21 269.62 401.14 270.10
  Q 400.74 273.15 401.49 276.76
  Q 401.57 277.13 401.22 277.41
  A 0.85 0.82 74.0 0 0 400.93 277.95
  Q 399.68 291.01 398.16 304.05
  Q 398.10 304.60 397.46 304.77
  A 0.56 0.56 0.0 0 1 396.82 304.47
  Q 393.36 297.54 391.27 289.95
  C 390.40 286.79 388.70 283.00 387.90 279.24
  Q 386.19 271.19 384.28 263.09
  Q 384.16 262.59 383.65 262.55
  C 356.22 260.43 340.97 228.01 334.56 205.40
  Q 334.41 204.86 333.87 205.03
  C 299.97 215.66 262.84 218.25 227.57 215.33
  C 209.83 213.85 168.22 209.03 165.44 185.81
  Q 165.21 183.87 166.32 178.97
  Q 168.03 177.59 172.31 175.31
  Q 196.24 162.59 222.07 158.31
  Q 223.04 158.49 223.42 159.40
  Q 223.63 159.92 223.09 160.10
  L 220.02 161.11
  A 1.39 1.39 0.0 0 0 219.57 163.50
  Q 227.70 170.26 234.91 165.90
  C 238.78 163.56 240.79 159.01 241.81 154.66
  Q 245.26 154.05 248.77 153.33
  Q 249.02 153.28 249.11 154.11
  C 245.93 156.90 227.59 176.27 240.09 177.87
  Q 245.97 178.62 251.50 178.82
  Q 262.09 180.56 272.75 178.74
  C 274.37 178.47 276.43 179.21 278.19 179.12
  Q 284.36 178.80 290.56 178.76
  C 292.10 178.75 293.63 177.98 295.41 178.39
  Q 295.88 178.49 296.34 178.37
  Q 307.70 175.30 311.06 173.49
  Q 316.62 170.50 315.00 164.59
  C 313.44 158.95 301.15 158.15 296.24 158.03
  Q 292.34 157.94 285.04 155.48
  Q 283.35 154.92 280.16 156.74
  A 0.74 0.73 49.3 0 1 279.32 156.67
  Q 278.24 155.79 276.94 156.22
  Q 276.41 156.40 275.86 156.36
  L 270.49 155.97
  Q 269.95 155.93 269.60 156.34
  Q 267.99 158.20 265.49 158.47
  L 270.28 152.23
  Q 271.15 152.34 271.98 152.29
  Q 288.89 151.37 305.63 153.60
  Q 306.20 153.68 307.27 154.14
  C 309.09 154.92 310.91 153.78 312.86 154.49
  Q 315.49 155.44 315.83 155.51
  Q 333.47 158.82 349.48 166.96
  Z"
/>
<path fill="#3886b1" d="
  M 248.18 152.68
  Q 248.40 153.00 248.94 153.02
  Q 249.39 153.04 249.28 153.48
  L 249.11 154.11
  Q 249.02 153.28 248.77 153.33
  Q 245.26 154.05 241.81 154.66
  Q 241.53 152.99 242.19 153.17
  L 248.18 152.68
  Z"
/>
<path fill="#cfdee7" d="
  M 251.50 178.82
  Q 255.71 177.62 259.43 177.15
  Q 263.06 176.70 265.12 173.71
  Q 265.43 173.26 265.21 172.77
  Q 263.43 168.72 259.74 166.25
  A 0.61 0.60 -52.7 0 1 259.62 165.35
  L 265.49 158.47
  Q 267.99 158.20 269.60 156.34
  Q 269.95 155.93 270.49 155.97
  L 275.86 156.36
  Q 276.41 156.40 276.94 156.22
  Q 278.24 155.79 279.32 156.67
  A 0.74 0.73 49.3 0 0 280.16 156.74
  Q 283.35 154.92 285.04 155.48
  Q 292.34 157.94 296.24 158.03
  C 301.15 158.15 313.44 158.95 315.00 164.59
  Q 316.62 170.50 311.06 173.49
  Q 307.70 175.30 296.34 178.37
  Q 295.88 178.49 295.41 178.39
  C 293.63 177.98 292.10 178.75 290.56 178.76
  Q 284.36 178.80 278.19 179.12
  C 276.43 179.21 274.37 178.47 272.75 178.74
  Q 262.09 180.56 251.50 178.82
  Z"
/>
<path fill="#709fbc" d="
  M 221.55 157.01
  L 222.07 158.31
  Q 196.24 162.59 172.31 175.31
  Q 168.03 177.59 166.32 178.97
  C 154.12 187.38 144.04 197.46 137.35 210.61
  Q 132.88 217.83 131.56 227.01
  Q 130.52 234.25 130.53 241.05
  Q 129.88 241.72 129.77 241.40
  C 126.43 204.48 158.14 177.39 189.50 165.76
  Q 204.02 160.37 221.55 157.01
  Z"
/>
<path fill="#c7ad3b" d="
  M 257.94 165.96
  L 263.11 171.94
  A 1.89 1.88 60.6 0 1 262.27 174.96
  Q 251.02 178.67 239.54 176.54
  Q 240.05 176.02 240.32 175.32
  Q 240.49 174.88 240.96 174.79
  Q 251.19 172.79 257.94 165.96
  Z"
/>
<path fill="#cfdee7" d="
  M 349.48 166.96
  C 370.37 178.40 384.96 197.42 392.65 219.74
  Q 396.31 230.35 398.49 238.25
  Q 400.12 244.17 400.95 250.52
  C 402.19 260.13 403.47 269.84 402.90 279.70
  Q 402.87 280.17 403.17 280.53
  Q 403.92 281.43 403.19 282.56
  Q 402.96 282.91 402.98 283.33
  Q 403.52 296.53 400.70 309.50
  Q 399.54 310.24 399.04 309.28
  A 0.82 0.82 0.0 0 0 397.51 309.48
  L 393.59 326.96
  A 0.61 0.61 0.0 0 1 392.66 327.34
  Q 391.04 326.26 389.40 324.08
  Q 381.85 314.06 377.94 304.38
  C 375.00 297.09 372.56 291.82 372.06 286.80
  A 2.33 2.33 0.0 0 0 369.28 284.74
  Q 365.00 285.60 360.23 284.91
  C 349.45 283.35 338.43 280.45 329.63 274.12
  Q 319.68 266.95 311.93 256.10
  Q 310.41 254.66 309.56 250.98
  A 0.69 0.66 -86.2 0 0 309.16 250.50
  Q 307.92 249.98 308.12 252.13
  Q 305.78 251.36 305.00 251.52
  C 287.22 255.28 272.55 255.69 251.30 256.60
  Q 236.53 257.23 223.53 255.29
  A 0.74 0.74 0.0 0 1 222.90 254.57
  C 222.86 247.85 218.07 244.03 211.96 247.93
  Q 206.41 249.41 202.79 253.31
  Q 200.17 252.82 198.04 252.09
  Q 195.12 251.08 193.35 250.75
  Q 176.99 247.75 162.41 239.70
  C 159.58 238.15 160.06 233.66 157.32 231.03
  C 156.39 230.13 155.23 230.27 154.54 231.33
  L 153.24 231.26
  L 148.65 231.51
  Q 137.52 223.31 137.35 210.61
  C 144.04 197.46 154.12 187.38 166.32 178.97
  Q 165.21 183.87 165.44 185.81
  C 168.22 209.03 209.83 213.85 227.57 215.33
  C 262.84 218.25 299.97 215.66 333.87 205.03
  Q 334.41 204.86 334.56 205.40
  C 340.97 228.01 356.22 260.43 383.65 262.55
  Q 384.16 262.59 384.28 263.09
  Q 386.19 271.19 387.90 279.24
  C 388.70 283.00 390.40 286.79 391.27 289.95
  Q 393.36 297.54 396.82 304.47
  A 0.56 0.56 0.0 0 0 397.46 304.77
  Q 398.10 304.60 398.16 304.05
  Q 399.68 291.01 400.93 277.95
  A 0.85 0.82 74.0 0 1 401.22 277.41
  Q 401.57 277.13 401.49 276.76
  Q 400.74 273.15 401.14 270.10
  Q 401.21 269.62 401.04 269.16
  Q 398.82 263.22 400.77 257.54
  C 401.57 255.20 400.48 254.90 399.76 253.15
  C 398.02 248.85 397.68 244.14 396.43 240.11
  C 394.84 235.01 394.28 229.60 392.37 224.72
  C 390.77 220.63 389.63 217.50 387.22 213.21
  C 383.41 206.42 381.34 200.56 375.42 194.75
  C 372.48 191.87 370.96 188.27 367.35 185.64
  A 0.89 0.89 0.0 0 1 366.98 184.96
  Q 366.94 183.89 365.98 183.70
  A 0.60 0.54 -16.1 0 1 365.69 183.56
  L 359.08 177.36
  A 0.55 0.54 -68.5 0 1 358.90 176.93
  Q 358.95 175.55 357.65 174.85
  Q 357.20 174.61 357.23 174.11
  Q 357.32 172.18 355.29 172.22
  A 1.26 1.25 -27.6 0 1 354.58 172.00
  C 352.67 170.70 349.50 169.70 349.48 166.96
  Z"
/>
<path fill="#9ec0d8" d="
  M 137.35 210.61
  Q 137.52 223.31 148.65 231.51
  Q 138.53 234.94 130.53 241.05
  Q 130.52 234.25 131.56 227.01
  Q 132.88 217.83 137.35 210.61
  Z"
/>
<path fill="#9ec0d8" d="
  M 202.79 253.31
  Q 188.88 267.96 188.24 287.17
  C 174.18 284.33 155.15 278.53 144.17 269.07
  Q 149.04 261.09 152.84 252.62
  C 153.09 252.06 152.99 251.58 153.00 250.99
  Q 153.02 250.49 153.28 250.06
  L 156.97 244.13
  L 157.55 241.73
  Q 159.90 235.49 154.54 231.33
  C 155.23 230.27 156.39 230.13 157.32 231.03
  C 160.06 233.66 159.58 238.15 162.41 239.70
  Q 176.99 247.75 193.35 250.75
  Q 195.12 251.08 198.04 252.09
  Q 200.17 252.82 202.79 253.31
  Z"
/>
<path fill="#010101" d="
  M 153.24 231.26
  Q 153.32 232.53 153.09 232.09
  Q 138.96 235.04 127.90 245.20
  C 121.77 251.25 116.84 260.20 116.73 268.98
  C 116.68 273.12 117.27 277.57 120.37 280.46
  Q 121.13 281.16 120.68 280.22
  L 119.50 277.71
  Q 119.29 277.28 119.25 276.81
  C 118.69 270.50 120.74 254.09 126.95 250.41
  Q 127.60 250.02 127.22 250.68
  Q 121.38 260.78 120.49 271.30
  L 120.51 274.77
  Q 120.78 283.12 129.10 285.51
  A 0.77 0.76 78.8 0 0 129.91 284.30
  Q 128.33 282.30 128.25 279.42
  Q 129.09 279.74 129.52 280.57
  Q 131.96 287.48 138.16 288.70
  C 143.38 289.73 148.33 287.17 149.64 281.86
  Q 149.89 280.84 148.99 281.36
  Q 145.84 283.15 142.65 282.02
  Q 141.49 280.29 140.80 279.98
  C 137.93 270.79 141.13 259.92 145.23 251.67
  Q 149.41 245.44 155.57 242.84
  C 156.12 242.61 156.43 242.25 156.76 241.81
  L 157.55 241.73
  L 156.97 244.13
  C 146.87 246.24 142.98 258.58 141.76 267.58
  Q 141.65 268.11 141.24 268.42
  C 140.65 273.08 140.26 285.45 149.33 279.77
  A 0.88 0.88 0.0 0 0 149.74 278.99
  L 149.57 274.89
  Q 150.68 275.02 150.96 276.07
  L 151.31 279.02
  C 153.14 300.38 157.52 322.67 165.19 342.27
  L 175.01 362.58
  Q 195.13 394.20 229.24 411.63
  L 231.18 412.63
  L 244.03 417.75
  A 0.48 0.48 0.0 0 0 244.69 417.28
  L 244.26 406.97
  L 244.18 402.69
  L 244.29 399.13
  L 244.85 393.44
  C 245.75 382.78 249.96 368.50 260.92 364.83
  Q 267.98 363.58 273.88 367.42
  Q 280.77 371.95 285.94 380.06
  Q 293.68 392.21 298.08 402.28
  L 302.40 413.74
  Q 308.54 433.14 311.68 451.01
  Q 311.63 451.79 311.79 452.35
  Q 311.95 452.88 312.64 453.25
  C 343.63 469.84 374.79 477.18 410.06 471.85
  Q 427.27 469.25 444.21 459.33
  L 449.79 454.96
  Q 450.04 455.04 450.01 454.65
  A 0.85 0.84 0.8 0 0 449.25 453.87
  C 441.08 453.09 433.01 452.26 425.27 449.49
  C 406.07 442.64 386.57 432.51 372.24 418.02
  Q 362.11 407.78 352.65 394.73
  Q 352.64 393.91 353.21 393.37
  L 361.81 404.85
  Q 363.08 406.54 364.26 404.78
  C 375.49 388.14 391.03 369.70 406.81 359.31
  C 421.04 349.93 437.98 342.67 453.89 342.57
  A 2.09 2.09 0.0 0 1 455.70 345.72
  C 449.60 356.16 444.04 366.05 439.36 377.24
  Q 433.13 392.16 429.71 402.69
  Q 425.10 416.86 424.99 428.25
  C 424.88 438.27 425.93 449.05 437.58 451.12
  Q 443.45 452.17 449.28 452.48
  Q 451.39 452.59 450.95 454.66
  Q 450.58 456.42 448.28 458.04
  C 426.42 473.44 400.24 476.78 374.17 474.44
  C 352.69 472.52 331.41 465.35 312.63 454.80
  A 0.58 0.57 -81.1 0 0 311.79 455.42
  C 313.16 462.21 314.04 472.16 310.54 478.45
  C 305.84 486.89 294.58 492.67 285.33 495.15
  C 264.05 500.86 242.61 500.42 223.74 498.17
  Q 208.09 496.30 196.80 489.72
  C 189.77 485.62 198.16 475.27 202.11 471.74
  Q 222.97 453.05 251.17 452.26
  A 0.99 0.98 -9.6 0 0 252.08 450.98
  C 248.92 440.97 247.52 431.30 245.20 421.31
  A 2.48 2.47 2.8 0 0 243.56 419.51
  C 224.44 413.16 208.61 402.11 193.88 388.46
  A 0.95 0.94 46.2 0 0 192.62 388.43
  C 183.65 396.12 174.98 401.78 162.98 403.41
  C 142.59 406.17 119.48 396.70 103.71 384.27
  Q 97.29 379.22 81.86 369.95
  A 1.79 1.73 59.5 0 0 80.96 369.70
  Q 67.28 369.65 53.70 369.54
  C 31.37 369.37 52.35 351.10 57.70 347.95
  C 75.87 337.24 93.53 337.23 112.85 344.22
  C 135.50 352.42 150.34 365.16 173.44 365.26
  A 0.96 0.95 -15.1 0 0 174.27 363.83
  Q 159.40 338.43 154.26 309.24
  Q 152.44 298.93 150.94 288.56
  Q 150.67 286.68 151.07 285.26
  A 0.73 0.73 0.0 0 0 149.79 284.63
  C 144.96 291.05 137.96 291.67 131.69 286.86
  Q 131.30 286.56 130.80 286.53
  C 122.17 286.08 114.67 278.42 115.32 269.56
  C 116.20 257.45 121.45 250.13 129.77 241.40
  Q 129.88 241.72 130.53 241.05
  Q 138.53 234.94 148.65 231.51
  L 153.24 231.26
  Z"
/>
<g stroke-width="2.00" fill="none" stroke-linecap="butt">
<path stroke="#c2e4ee" vector-effect="non-scaling-stroke" d="
  M 109.31 344.46
  C 115.12 355.07 110.06 362.94 99.57 366.17
  Q 98.93 366.36 99.26 366.94
  L 101.44 370.84"
/>
<path stroke="#e7eff3" vector-effect="non-scaling-stroke" d="
  M 101.44 370.84
  Q 100.92 371.22 100.55 371.36
  Q 100.19 371.50 99.64 371.17
  Q 97.78 370.06 95.86 370.05"
/>
<path stroke="#63b9d9" vector-effect="non-scaling-stroke" d="
  M 114.46 346.42
  L 115.42 352.68"
/>
<path stroke="#4c9dbf" vector-effect="non-scaling-stroke" d="
  M 115.42 352.68
  Q 114.18 364.32 104.51 368.22
  Q 103.93 368.45 104.13 369.05
  Q 104.71 370.75 104.52 372.18"
/>
<path stroke="#5ea8c7" vector-effect="non-scaling-stroke" d="
  M 104.52 372.18
  Q 103.84 372.73 103.37 372.75
  Q 102.86 372.77 102.79 372.26
  Q 102.63 371.03 101.48 371.23"
/>
<path stroke="#aad4e2" vector-effect="non-scaling-stroke" d="
  M 101.48 371.23
  Q 101.09 370.77 101.44 370.84"
/>
<path stroke="#84b2cc" vector-effect="non-scaling-stroke" d="
  M 101.48 371.23
  Q 102.39 376.27 101.03 380.74"
/>
<path stroke="#4c9dbf" vector-effect="non-scaling-stroke" d="
  M 141.05 363.57
  Q 144.60 365.00 148.57 364.75"
/>
<path stroke="#267ca9" vector-effect="non-scaling-stroke" d="
  M 148.57 364.75
  Q 152.93 367.08 158.94 365.18"
/>
<path stroke="#175782" vector-effect="non-scaling-stroke" d="
  M 176.01 366.97
  Q 175.41 367.71 173.91 367.94"
/>
<path stroke="#0a6595" vector-effect="non-scaling-stroke" d="
  M 173.91 367.94
  L 163.82 367.27
  A 0.99 0.98 -68.5 0 0 163.00 367.63
  Q 161.64 369.34 159.78 370.50
  C 143.56 380.63 124.01 383.31 106.26 374.25
  Q 105.61 373.91 104.55 374.48"
/>
<path stroke="#267ca9" vector-effect="non-scaling-stroke" d="
  M 104.55 374.48
  L 104.52 372.18"
/>
<path stroke="#63b9d9" vector-effect="non-scaling-stroke" d="
  M 116.89 347.43
  C 116.69 355.44 129.39 363.02 134.82 355.76"
/>
<path stroke="#63b9d9" vector-effect="non-scaling-stroke" d="
  M 137.28 356.91
  Q 137.12 360.27 141.05 363.57"
/>
<path stroke="#2a8dbb" vector-effect="non-scaling-stroke" d="
  M 141.05 363.57
  Q 133.50 362.33 126.83 360.87
  Q 120.18 359.42 115.42 352.68"
/>
<path stroke="#1c709e" vector-effect="non-scaling-stroke" d="
  M 104.53 383.35
  L 104.55 374.48"
/>
<path stroke="#0d4b77" vector-effect="non-scaling-stroke" d="
  M 191.04 385.90
  Q 177.55 399.68 158.71 401.39
  C 155.83 401.65 153.11 401.10 150.14 400.93
  Q 149.34 400.89 149.91 400.33
  Q 151.23 399.03 153.15 399.34
  Q 153.55 399.40 153.92 399.24
  Q 157.85 397.50 161.34 394.97
  C 161.94 394.53 162.38 394.53 163.11 394.46
  Q 163.75 394.39 163.91 393.78
  L 165.06 389.63
  A 0.94 0.92 31.5 0 0 164.84 388.76
  L 162.88 386.68
  Q 162.06 385.80 163.25 385.99
  Q 163.87 386.09 164.44 386.46
  Q 164.89 386.75 165.34 386.47
  Q 167.93 384.89 166.18 381.83
  A 0.67 0.66 24.5 0 0 164.95 382.29
  L 165.29 384.03
  Q 165.40 384.55 164.97 384.87
  L 164.76 385.02
  A 2.08 1.22 -73.1 0 1 163.97 381.72
  L 166.92 378.40
  Q 167.33 377.94 167.93 378.01
  Q 168.86 378.11 169.53 377.26
  Q 169.80 376.93 169.98 376.53
  L 173.91 367.94"
/>
<path stroke="#c2e4ee" vector-effect="non-scaling-stroke" d="
  M 139.84 358.24
  C 140.49 362.10 145.70 363.82 148.77 361.98"
/>
<path stroke="#5ea8c7" vector-effect="non-scaling-stroke" d="
  M 151.10 362.78
  Q 151.01 363.71 148.57 364.75"
/>
<path stroke="#c2e4ee" vector-effect="non-scaling-stroke" d="
  M 119.82 348.83
  Q 123.27 358.39 132.01 354.34"
/>
<path stroke="#0a6595" vector-effect="non-scaling-stroke" d="
  M 423.43 427.95
  Q 423.15 429.28 422.04 428.29
  C 419.99 426.47 417.46 421.27 415.79 418.77
  C 414.41 416.72 412.09 415.01 410.71 412.48
  Q 410.47 412.05 410.55 411.56
  C 411.10 408.08 406.86 401.98 404.95 399.60
  C 401.58 395.42 399.60 392.57 400.91 387.67
  Q 402.50 381.68 402.24 375.76
  A 0.89 0.89 0.0 0 0 400.93 375.01
  C 396.06 377.56 393.88 380.69 390.36 384.58
  C 384.98 390.52 380.15 395.55 375.59 403.06
  C 374.70 404.52 374.20 406.00 372.80 407.78
  Q 371.94 408.89 369.95 413.30"
/>
<path stroke="#267ca9" vector-effect="non-scaling-stroke" d="
  M 366.00 404.74
  Q 372.03 403.86 375.15 397.78
  Q 375.38 397.33 375.86 397.18
  Q 377.31 396.76 377.64 396.12
  Q 379.59 392.42 383.73 388.23
  Q 395.46 376.37 398.57 373.58
  C 399.88 372.40 401.44 371.87 402.65 370.95
  C 416.63 360.21 429.90 351.14 446.36 345.68
  Q 446.96 345.48 447.02 345.12
  Q 447.08 344.75 446.90 344.15"
/>
<path stroke="#267ca9" vector-effect="non-scaling-stroke" d="
  M 288.35 387.18
  L 287.95 387.28
  Q 287.35 387.41 287.61 387.97
  C 291.15 395.77 295.46 403.55 297.99 411.73
  Q 299.35 416.10 302.19 419.59"
/>
<path stroke="#0a6595" vector-effect="non-scaling-stroke" d="
  M 306.07 432.42
  Q 306.13 434.23 304.84 435.34
  Q 304.44 435.68 304.52 436.20
  Q 306.33 447.76 305.82 459.41
  C 305.51 466.41 302.00 471.41 295.52 473.71
  C 290.20 475.59 286.76 477.22 282.27 478.82
  Q 281.64 479.05 281.18 479.82"
/>
<path stroke="#267ca9" vector-effect="non-scaling-stroke" d="
  M 281.18 479.82
  L 280.80 479.40"
/>
<path stroke="#4c9dbf" vector-effect="non-scaling-stroke" d="
  M 280.80 479.40
  C 280.13 472.11 269.85 467.68 263.53 467.15
  Q 260.52 466.90 254.10 467.02
  A 0.51 0.50 3.8 0 1 253.59 466.44
  C 254.97 457.50 244.27 455.14 237.11 455.26"
/>
<path stroke="#4c9dbf" vector-effect="non-scaling-stroke" d="
  M 250.04 453.68
  C 254.13 458.94 267.30 461.96 271.34 455.55"
/>
<path stroke="#4c9dbf" vector-effect="non-scaling-stroke" d="
  M 277.27 457.40
  C 272.04 458.95 272.09 462.87 275.12 466.54
  Q 280.84 473.46 289.74 472.79
  Q 293.93 472.47 294.35 466.02"
/>
<path stroke="#267ca9" vector-effect="non-scaling-stroke" d="
  M 254.52 451.76
  Q 250.29 435.52 248.19 419.51
  Q 245.64 400.13 249.85 380.05"
/>
<path stroke="#c2e4ee" vector-effect="non-scaling-stroke" d="
  M 255.25 453.42
  Q 254.64 453.40 254.27 453.60
  A 0.37 0.36 -44.3 0 0 254.26 454.23
  Q 260.54 458.07 267.08 454.80"
/>
<path stroke="#0a6595" vector-effect="non-scaling-stroke" d="
  M 311.58 465.27
  Q 309.62 469.19 308.96 474.15
  C 308.25 479.48 301.65 485.84 296.76 487.64
  Q 295.04 488.27 296.76 488.87"
/>
<path stroke="#1c709e" vector-effect="non-scaling-stroke" d="
  M 278.80 495.31
  Q 282.47 487.44 281.18 479.82"
/>
<path stroke="#5ea8c7" vector-effect="non-scaling-stroke" d="
  M 280.80 479.40
  L 276.66 481.73"
/>
<path stroke="#aad4e2" vector-effect="non-scaling-stroke" d="
  M 276.66 481.73
  Q 276.32 480.97 276.44 481.37"
/>
<path stroke="#c2e4ee" vector-effect="non-scaling-stroke" d="
  M 276.44 481.37
  C 273.26 469.40 259.46 469.82 249.83 470.44
  A 0.36 0.35 -89.2 0 1 249.46 470.05
  C 251.12 454.43 231.84 457.97 223.75 461.50
  Q 223.00 461.83 222.73 461.50
  Q 222.42 461.13 222.48 460.17"
/>
<path stroke="#c2e4ee" vector-effect="non-scaling-stroke" d="
  M 282.38 459.24
  Q 277.63 458.54 276.52 462.03
  Q 276.37 462.52 276.60 462.97
  Q 279.74 469.17 286.76 469.77
  C 292.09 470.22 290.61 465.52 289.19 462.69"
/>
<path stroke="#84b2cc" vector-effect="non-scaling-stroke" d="
  M 273.91 496.24
  Q 277.87 489.33 276.66 481.73"
/>
<path stroke="#e7eff3" vector-effect="non-scaling-stroke" d="
  M 276.44 481.37
  C 257.91 488.11 235.85 489.82 216.59 488.26
  Q 214.89 488.12 205.98 486.77
  Q 200.90 485.99 195.29 485.70"
/>
</g>
<path fill="#688b9f" d="
  M 153.24 231.26
  L 154.54 231.33
  Q 159.90 235.49 157.55 241.73
  L 156.76 241.81
  Q 157.58 238.15 156.74 235.67
  Q 155.91 233.71 154.06 232.73
  Q 153.37 232.48 153.09 232.09
  Q 153.32 232.53 153.24 231.26
  Z"
/>
<path fill="#ede89e" d="
  M 153.09 232.09
  Q 153.37 232.48 154.06 232.73
  Q 153.99 232.85 153.98 233.04
  Q 153.96 233.33 153.68 233.40
  C 144.54 235.91 136.80 239.17 129.49 245.31
  Q 129.22 245.55 128.92 245.35
  Q 128.63 245.16 127.90 245.20
  Q 138.96 235.04 153.09 232.09
  Z"
/>
<path fill="#f2d134" d="
  M 154.06 232.73
  Q 155.91 233.71 156.74 235.67
  C 153.30 239.00 144.60 247.35 145.23 251.67
  C 141.13 259.92 137.93 270.79 140.80 279.98
  Q 134.33 280.30 128.03 276.28
  Q 128.83 265.28 132.53 254.22
  Q 133.26 253.55 133.47 252.73
  A 0.29 0.29 0.0 0 0 132.96 252.47
  Q 132.55 252.94 132.26 254.00
  C 128.28 259.53 127.39 268.40 127.79 274.97
  L 126.95 275.27
  Q 126.50 275.43 126.18 275.08
  Q 123.72 272.39 120.49 271.30
  Q 121.38 260.78 127.22 250.68
  Q 127.60 250.02 126.95 250.41
  C 120.74 254.09 118.69 270.50 119.25 276.81
  Q 119.29 277.28 119.50 277.71
  L 120.68 280.22
  Q 121.13 281.16 120.37 280.46
  C 117.27 277.57 116.68 273.12 116.73 268.98
  C 116.84 260.20 121.77 251.25 127.90 245.20
  Q 128.63 245.16 128.92 245.35
  Q 129.22 245.55 129.49 245.31
  C 136.80 239.17 144.54 235.91 153.68 233.40
  Q 153.96 233.33 153.98 233.04
  Q 153.99 232.85 154.06 232.73
  Z"
/>
<path fill="#a68f3d" d="
  M 156.74 235.67
  Q 157.58 238.15 156.76 241.81
  C 156.43 242.25 156.12 242.61 155.57 242.84
  Q 149.41 245.44 145.23 251.67
  C 144.60 247.35 153.30 239.00 156.74 235.67
  Z"
/>
<path fill="#709fbc" d="
  M 156.97 244.13
  L 153.28 250.06
  Q 153.02 250.49 153.00 250.99
  C 152.99 251.58 153.09 252.06 152.84 252.62
  Q 149.04 261.09 144.17 269.07
  L 141.76 267.58
  C 142.98 258.58 146.87 246.24 156.97 244.13
  Z"
/>
<path fill="#9ec0d8" d="
  M 308.12 252.13
  Q 311.82 261.64 313.17 264.56
  C 320.14 279.61 332.98 294.92 349.75 299.01
  Q 351.72 299.49 359.46 300.01
  Q 359.95 300.05 360.02 300.54
  C 361.77 314.45 366.56 338.41 378.39 347.53
  Q 378.80 347.85 378.74 348.36
  C 376.84 363.24 372.33 380.58 360.10 388.89
  A 0.38 0.38 0.0 0 1 359.58 388.34
  L 360.55 387.06
  A 0.73 0.72 41.2 0 0 360.48 386.11
  C 345.56 371.20 339.08 352.77 334.35 332.63
  A 1.68 1.67 -12.3 0 0 332.39 331.38
  C 313.28 335.18 294.00 325.63 282.72 310.79
  Q 280.64 308.07 273.43 297.14
  Q 273.15 296.71 272.65 296.66
  C 271.78 296.56 270.46 296.21 269.67 296.24
  Q 252.60 296.69 235.65 294.65
  C 232.13 294.22 228.64 293.28 224.90 292.59
  Q 221.29 286.66 220.56 280.47
  Q 219.78 273.87 219.07 267.24
  Q 218.63 263.08 221.05 257.29
  Q 222.00 255.01 220.38 252.22
  Q 217.73 247.16 212.77 248.05
  L 211.96 247.93
  C 218.07 244.03 222.86 247.85 222.90 254.57
  A 0.74 0.74 0.0 0 0 223.53 255.29
  Q 236.53 257.23 251.30 256.60
  C 272.55 255.69 287.22 255.28 305.00 251.52
  Q 305.78 251.36 308.12 252.13
  Z"
/>
<path fill="#688b9f" d="
  M 220.38 252.22
  Q 219.93 252.20 219.67 252.35
  Q 218.73 250.95 217.74 250.74
  Q 216.03 249.20 213.30 248.99
  Q 213.15 248.77 213.37 248.49
  Q 213.51 248.29 213.27 248.27
  Q 212.88 248.23 212.77 248.05
  Q 217.73 247.16 220.38 252.22
  Z"
/>
<path fill="#010101" d="
  M 211.96 247.93
  L 212.77 248.05
  Q 212.88 248.23 213.27 248.27
  Q 213.51 248.29 213.37 248.49
  Q 213.15 248.77 213.30 248.99
  Q 207.96 249.60 206.86 252.46
  Q 202.88 254.42 200.06 258.31
  Q 191.19 270.57 189.79 285.24
  L 190.22 291.98
  Q 190.29 294.45 190.94 295.47
  Q 192.87 302.76 199.63 305.36
  A 0.45 0.45 0.0 0 0 200.19 304.73
  L 197.21 299.34
  L 197.28 297.29
  Q 197.31 296.50 197.79 297.13
  Q 198.73 298.33 198.88 299.39
  C 202.77 309.38 210.82 311.67 219.15 305.44
  A 1.09 1.08 32.3 0 1 220.02 305.25
  C 224.44 306.16 232.10 304.88 233.74 299.81
  Q 233.93 299.24 233.34 299.11
  Q 228.79 298.13 225.10 295.77
  Q 224.81 295.30 224.39 295.22
  C 218.06 285.77 218.29 275.64 216.94 264.71
  C 218.12 261.14 221.04 256.00 219.67 252.35
  Q 219.93 252.20 220.38 252.22
  Q 222.00 255.01 221.05 257.29
  Q 218.63 263.08 219.07 267.24
  Q 219.78 273.87 220.56 280.47
  Q 221.29 286.66 224.90 292.59
  Q 228.82 297.01 234.56 297.57
  Q 236.02 297.72 235.70 298.99
  Q 235.42 300.09 234.58 302.48
  L 229.46 306.44
  Q 225.20 307.57 220.18 307.06
  Q 219.65 307.01 219.22 307.34
  Q 210.67 314.00 202.13 307.34
  Q 201.72 307.02 201.20 306.94
  Q 193.85 305.90 190.57 299.60
  L 189.06 295.20
  L 188.24 287.17
  Q 188.88 267.96 202.79 253.31
  Q 206.41 249.41 211.96 247.93
  Z"
/>
<path fill="#f2d134" d="
  M 213.30 248.99
  Q 216.03 249.20 217.74 250.74
  Q 215.41 257.50 216.94 264.71
  C 218.29 275.64 218.06 285.77 224.39 295.22
  Q 224.54 295.31 224.54 295.44
  Q 224.55 295.74 224.25 295.81
  L 212.98 298.58
  Q 207.40 286.51 208.24 272.00
  Q 208.26 271.73 208.04 271.89
  Q 207.88 271.99 207.87 272.24
  C 207.65 276.32 206.95 280.87 207.24 284.52
  Q 207.82 291.87 211.37 298.51
  Q 204.40 298.06 198.29 295.48
  Q 197.81 295.27 197.77 294.75
  L 197.02 284.97
  L 197.47 273.61
  Q 197.49 273.10 197.78 272.68
  Q 198.41 271.76 198.38 270.67
  A 0.16 0.16 0.0 0 0 198.08 270.61
  Q 194.87 277.49 195.94 285.22
  Q 195.17 288.79 196.33 293.15
  A 0.91 0.91 0.0 0 1 195.07 294.21
  L 190.22 291.98
  L 189.79 285.24
  Q 190.10 284.61 190.90 284.78
  Q 191.33 284.87 191.37 284.44
  Q 193.17 266.18 206.86 252.46
  Q 207.96 249.60 213.30 248.99
  Z"
/>
<path fill="#a68f3d" d="
  M 217.74 250.74
  Q 218.73 250.95 219.67 252.35
  C 221.04 256.00 218.12 261.14 216.94 264.71
  Q 215.41 257.50 217.74 250.74
  Z"
/>
<path fill="#a68f3d" d="
  M 132.53 254.22
  Q 132.52 254.04 132.26 254.00
  Q 132.55 252.94 132.96 252.47
  A 0.29 0.29 0.0 0 1 133.47 252.73
  Q 133.26 253.55 132.53 254.22
  Z"
/>
<path fill="#fdef7d" d="
  M 206.86 252.46
  Q 193.17 266.18 191.37 284.44
  Q 191.33 284.87 190.90 284.78
  Q 190.10 284.61 189.79 285.24
  Q 191.19 270.57 200.06 258.31
  Q 202.88 254.42 206.86 252.46
  Z"
/>
<path fill="#010101" d="
  M 132.26 254.00
  Q 132.52 254.04 132.53 254.22
  Q 128.83 265.28 128.03 276.28
  Q 127.68 277.17 127.79 274.97
  C 127.39 268.40 128.28 259.53 132.26 254.00
  Z"
/>
<path fill="#9ec0d8" d="
  M 311.93 256.10
  Q 319.68 266.95 329.63 274.12
  C 338.43 280.45 349.45 283.35 360.23 284.91
  Q 365.00 285.60 369.28 284.74
  A 2.33 2.33 0.0 0 1 372.06 286.80
  C 372.56 291.82 375.00 297.09 377.94 304.38
  Q 381.85 314.06 389.40 324.08
  Q 391.04 326.26 392.66 327.34
  A 0.61 0.61 0.0 0 0 393.59 326.96
  L 397.51 309.48
  A 0.82 0.82 0.0 0 1 399.04 309.28
  Q 399.54 310.24 400.70 309.50
  C 398.59 321.83 393.67 336.14 384.05 344.55
  Q 382.48 345.92 380.05 346.46
  Q 379.56 346.57 379.18 346.23
  C 367.86 336.21 362.85 313.54 361.42 299.26
  Q 361.35 298.56 360.65 298.55
  C 338.14 298.27 323.46 283.33 314.28 263.98
  Q 312.48 260.18 311.93 256.10
  Z"
/>
<path fill="#688b9f" d="
  M 141.76 267.58
  L 144.17 269.07
  C 155.15 278.53 174.18 284.33 188.24 287.17
  L 189.06 295.20
  C 184.29 293.10 178.88 292.79 174.70 291.02
  Q 170.84 289.38 166.72 287.90
  A 0.95 0.94 9.2 0 1 166.09 287.04
  L 165.96 283.23
  A 0.52 0.51 -79.1 0 0 165.67 282.80
  L 153.06 277.20
  Q 152.58 276.99 152.39 276.50
  Q 152.06 275.69 150.96 276.07
  Q 150.68 275.02 149.57 274.89
  L 141.24 268.42
  Q 141.65 268.11 141.76 267.58
  Z"
/>
<path fill="#010101" d="
  M 197.02 284.97
  Q 196.03 285.84 195.94 285.22
  Q 194.87 277.49 198.08 270.61
  A 0.16 0.16 0.0 0 1 198.38 270.67
  Q 198.41 271.76 197.78 272.68
  Q 197.49 273.10 197.47 273.61
  L 197.02 284.97
  Z"
/>
<path fill="#c7ad3b" d="
  M 127.79 274.97
  Q 127.68 277.17 128.03 276.28
  Q 134.33 280.30 140.80 279.98
  Q 141.49 280.29 142.65 282.02
  Q 136.03 282.16 129.52 280.57
  Q 129.09 279.74 128.25 279.42
  L 123.14 275.77
  A 0.91 0.91 0.0 0 1 122.98 275.61
  Q 121.92 274.17 120.51 274.77
  L 120.49 271.30
  Q 123.72 272.39 126.18 275.08
  Q 126.50 275.43 126.95 275.27
  L 127.79 274.97
  Z"
/>
<path fill="#010101" d="
  M 212.98 298.58
  Q 214.10 299.25 214.55 300.92
  L 218.25 304.66
  A 0.52 0.52 0.0 0 1 217.63 305.48
  Q 214.74 303.89 212.99 301.18
  L 211.37 298.51
  Q 207.82 291.87 207.24 284.52
  C 206.95 280.87 207.65 276.32 207.87 272.24
  Q 207.88 271.99 208.04 271.89
  Q 208.26 271.73 208.24 272.00
  Q 207.40 286.51 212.98 298.58
  Z"
/>
<path fill="#a68f3d" d="
  M 128.25 279.42
  Q 128.33 282.30 129.91 284.30
  A 0.77 0.76 78.8 0 1 129.10 285.51
  Q 120.78 283.12 120.51 274.77
  Q 121.92 274.17 122.98 275.61
  A 0.91 0.91 0.0 0 0 123.14 275.77
  L 128.25 279.42
  Z"
/>
<path fill="#9ec0d8" d="
  M 150.96 276.07
  Q 152.06 275.69 152.39 276.50
  Q 152.58 276.99 153.06 277.20
  L 165.67 282.80
  A 0.52 0.51 -79.1 0 1 165.96 283.23
  L 166.09 287.04
  A 0.95 0.94 9.2 0 0 166.72 287.90
  Q 170.84 289.38 174.70 291.02
  C 178.88 292.79 184.29 293.10 189.06 295.20
  L 190.57 299.60
  Q 178.11 297.05 170.99 293.49
  Q 168.55 292.27 167.04 292.48
  L 154.42 286.63
  Q 153.96 286.41 153.87 285.91
  Q 153.35 282.84 152.67 279.89
  Q 152.56 279.38 152.30 279.11
  Q 151.77 278.55 151.31 279.02
  L 150.96 276.07
  Z"
/>
<path fill="#c9e5e1" d="
  M 167.04 292.48
  Q 168.73 297.34 172.56 301.06
  Q 172.94 301.44 173.47 301.34
  Q 174.36 301.18 174.54 302.32
  Q 174.62 302.83 175.00 303.18
  L 180.49 308.08
  A 1.01 0.93 -79.4 0 1 180.77 308.53
  C 182.35 314.10 180.20 319.09 183.39 324.70
  C 185.17 327.81 187.64 328.61 187.00 333.25
  Q 186.94 333.72 187.35 333.94
  C 187.81 334.19 188.08 334.70 188.10 335.27
  C 188.37 341.54 190.03 344.24 192.85 348.65
  C 195.15 352.25 198.79 354.91 201.72 358.09
  A 0.88 0.87 -32.6 0 0 202.69 358.30
  L 204.69 357.48
  A 0.64 0.64 0.0 0 1 205.24 357.50
  Q 206.10 357.92 206.36 358.93
  Q 206.48 359.40 206.86 359.71
  Q 209.66 362.05 213.04 363.50
  Q 222.05 367.37 224.24 377.02
  Q 224.46 377.97 223.50 379.74
  Q 223.27 380.16 223.33 380.65
  Q 224.09 386.47 228.03 390.43
  C 229.08 391.48 229.67 392.99 228.79 394.18
  Q 228.45 394.63 227.94 394.41
  Q 224.66 393.02 221.49 393.78
  L 216.58 391.22
  Q 210.59 386.36 205.22 381.85
  Q 204.20 381.00 198.97 377.08
  C 195.18 374.25 193.08 370.79 188.33 369.49
  Q 187.71 369.32 187.76 369.96
  Q 187.91 371.76 187.02 372.96
  L 186.81 373.46
  Q 186.59 373.97 186.20 373.56
  L 180.65 367.63
  Q 182.36 366.83 181.49 365.48
  Q 175.68 356.43 170.76 346.88
  C 169.97 345.35 168.59 344.26 167.67 342.70
  A 0.94 0.93 73.9 0 0 166.85 342.24
  L 165.19 342.27
  C 157.52 322.67 153.14 300.38 151.31 279.02
  Q 151.77 278.55 152.30 279.11
  Q 152.56 279.38 152.67 279.89
  Q 153.35 282.84 153.87 285.91
  Q 153.96 286.41 154.42 286.63
  L 167.04 292.48
  Z"
/>
<path stroke="#e7eff3" stroke-width="2.00" fill="none" stroke-linecap="butt" vector-effect="non-scaling-stroke" d="
  M 194.84 356.55
  Q 195.69 363.48 201.09 369.22
  A 1.18 1.18 0.0 0 1 199.72 371.10
  L 199.15 370.82
  A 0.34 0.34 0.0 0 0 198.78 371.39
  L 199.86 372.34
  A 1.19 1.17 -73.6 0 1 200.25 373.07
  Q 200.36 374.02 199.95 374.77"
/>
<path fill="#a68f3d" d="
  M 129.52 280.57
  Q 136.03 282.16 142.65 282.02
  Q 145.84 283.15 148.99 281.36
  Q 149.89 280.84 149.64 281.86
  C 148.33 287.17 143.38 289.73 138.16 288.70
  Q 131.96 287.48 129.52 280.57
  Z"
/>
<path fill="#c7ad3b" d="
  M 197.02 284.97
  L 197.77 294.75
  Q 197.81 295.27 198.29 295.48
  Q 204.40 298.06 211.37 298.51
  L 212.99 301.18
  Q 206.02 302.19 198.88 299.39
  Q 198.73 298.33 197.79 297.13
  Q 197.31 296.50 197.28 297.29
  L 197.21 299.34
  L 190.94 295.47
  Q 190.29 294.45 190.22 291.98
  L 195.07 294.21
  A 0.91 0.91 0.0 0 0 196.33 293.15
  Q 195.17 288.79 195.94 285.22
  Q 196.03 285.84 197.02 284.97
  Z"
/>
<path fill="#afdbdc" d="
  M 167.04 292.48
  Q 168.55 292.27 170.99 293.49
  Q 178.11 297.05 190.57 299.60
  Q 193.85 305.90 201.20 306.94
  Q 201.72 307.02 202.13 307.34
  Q 210.67 314.00 219.22 307.34
  Q 219.65 307.01 220.18 307.06
  Q 225.20 307.57 229.46 306.44
  Q 245.78 307.97 261.49 307.65
  Q 262.23 307.34 262.24 308.12
  Q 262.24 308.65 262.29 308.85
  Q 268.32 336.83 260.92 364.83
  C 249.96 368.50 245.75 382.78 244.85 393.44
  C 242.28 393.26 241.64 394.66 239.95 395.48
  Q 237.74 396.55 235.41 398.00
  Q 228.52 397.14 221.49 393.78
  Q 224.66 393.02 227.94 394.41
  Q 228.45 394.63 228.79 394.18
  C 229.67 392.99 229.08 391.48 228.03 390.43
  Q 224.09 386.47 223.33 380.65
  Q 223.27 380.16 223.50 379.74
  Q 224.46 377.97 224.24 377.02
  Q 222.05 367.37 213.04 363.50
  Q 209.66 362.05 206.86 359.71
  Q 206.48 359.40 206.36 358.93
  Q 206.10 357.92 205.24 357.50
  A 0.64 0.64 0.0 0 0 204.69 357.48
  L 202.69 358.30
  A 0.88 0.87 -32.6 0 1 201.72 358.09
  C 198.79 354.91 195.15 352.25 192.85 348.65
  C 190.03 344.24 188.37 341.54 188.10 335.27
  C 188.08 334.70 187.81 334.19 187.35 333.94
  Q 186.94 333.72 187.00 333.25
  C 187.64 328.61 185.17 327.81 183.39 324.70
  C 180.20 319.09 182.35 314.10 180.77 308.53
  A 1.01 0.93 -79.4 0 0 180.49 308.08
  L 175.00 303.18
  Q 174.62 302.83 174.54 302.32
  Q 174.36 301.18 173.47 301.34
  Q 172.94 301.44 172.56 301.06
  Q 168.73 297.34 167.04 292.48
  Z"
/>
<path stroke="#cce2e4" stroke-width="2.00" fill="none" stroke-linecap="butt" vector-effect="non-scaling-stroke" d="
  M 196.66 344.18
  Q 199.62 345.23 199.93 342.44
  Q 200.00 341.88 199.72 341.40
  L 194.88 332.91
  A 1.58 1.58 0.0 0 0 192.71 332.33
  C 188.93 334.54 193.20 336.69 192.47 339.46"
/>
<path fill="#c7ad3b" d="
  M 224.39 295.22
  Q 224.81 295.30 225.10 295.77
  Q 220.62 299.52 214.55 300.92
  Q 214.10 299.25 212.98 298.58
  L 224.25 295.81
  Q 224.55 295.74 224.54 295.44
  Q 224.54 295.31 224.39 295.22
  Z"
/>
<path fill="#a68f3d" d="
  M 190.94 295.47
  L 197.21 299.34
  L 200.19 304.73
  A 0.45 0.45 0.0 0 1 199.63 305.36
  Q 192.87 302.76 190.94 295.47
  Z"
/>
<path fill="#a68f3d" d="
  M 225.10 295.77
  Q 228.79 298.13 233.34 299.11
  Q 233.93 299.24 233.74 299.81
  C 232.10 304.88 224.44 306.16 220.02 305.25
  A 1.09 1.08 32.3 0 0 219.15 305.44
  C 210.82 311.67 202.77 309.38 198.88 299.39
  Q 206.02 302.19 212.99 301.18
  Q 214.74 303.89 217.63 305.48
  A 0.52 0.52 0.0 0 0 218.25 304.66
  L 214.55 300.92
  Q 220.62 299.52 225.10 295.77
  Z"
/>
<path fill="#688b9f" d="
  M 260.19 297.90
  L 261.75 303.83
  Q 261.19 304.60 260.76 304.11
  Q 247.42 304.93 234.58 302.48
  Q 235.42 300.09 235.70 298.99
  Q 236.02 297.72 234.56 297.57
  L 235.80 296.37
  Q 236.18 296.01 236.71 296.05
  L 260.19 297.90
  Z"
/>
<path fill="#3886b1" d="
  M 277.75 313.72
  Q 276.71 313.60 276.08 313.97
  Q 275.56 314.27 275.75 314.84
  L 276.66 317.46
  Q 276.51 317.52 276.32 317.50
  L 270.20 306.69
  Q 269.92 305.02 268.57 304.05
  A 1.11 1.10 -26.8 0 0 267.92 303.84
  L 261.75 303.83
  L 260.19 297.90
  L 271.44 297.95
  A 1.25 1.24 -6.2 0 1 272.64 298.91
  Q 274.38 306.44 277.75 313.72
  Z"
/>
<path fill="#9ec0d8" d="
  M 234.58 302.48
  Q 247.42 304.93 260.76 304.11
  Q 262.05 304.74 261.89 307.37
  Q 262.10 306.42 261.49 307.65
  Q 245.78 307.97 229.46 306.44
  L 234.58 302.48
  Z"
/>
<path fill="#709fbc" d="
  M 261.75 303.83
  L 267.92 303.84
  A 1.11 1.10 -26.8 0 1 268.57 304.05
  Q 269.92 305.02 270.20 306.69
  L 261.89 307.37
  Q 262.05 304.74 260.76 304.11
  Q 261.19 304.60 261.75 303.83
  Z"
/>
<path fill="#84c9dd" d="
  M 270.20 306.69
  L 276.32 317.50
  Q 278.83 342.39 273.88 367.42
  Q 267.98 363.58 260.92 364.83
  Q 268.32 336.83 262.29 308.85
  Q 262.24 308.65 262.24 308.12
  Q 262.23 307.34 261.49 307.65
  Q 262.10 306.42 261.89 307.37
  L 270.20 306.69
  Z"
/>
<path fill="#ffffff" d="
  M 194.84 356.55
  Q 195.69 363.48 201.09 369.22
  A 1.18 1.18 0.0 0 1 199.72 371.10
  L 199.15 370.82
  A 0.34 0.34 0.0 0 0 198.78 371.39
  L 199.86 372.34
  A 1.19 1.17 -73.6 0 1 200.25 373.07
  Q 200.36 374.02 199.95 374.77
  C 196.31 371.07 188.98 366.48 185.19 360.69
  Q 183.12 357.52 181.37 355.60
  C 179.42 353.45 177.47 351.64 176.49 348.77
  C 174.51 343.00 170.95 337.64 169.31 332.52
  C 167.16 325.81 165.03 318.11 165.53 311.00
  A 0.68 0.68 0.0 0 1 166.85 310.83
  C 170.41 321.77 177.98 332.06 183.77 341.96
  C 186.87 347.27 191.12 351.66 194.84 356.55
  Z"
/>
<path fill="#1371a0" d="
  M 277.75 313.72
  C 287.25 331.45 305.77 341.96 325.99 339.13
  Q 326.49 339.06 326.58 339.55
  C 329.57 357.03 336.85 379.79 350.77 391.74
  A 1.14 1.13 61.5 0 0 351.67 392.01
  Q 352.78 391.86 353.49 392.44
  Q 352.55 393.53 353.21 393.37
  Q 352.64 393.91 352.65 394.73
  C 335.86 389.67 328.06 356.93 324.93 342.16
  A 0.62 0.62 0.0 0 0 324.23 341.67
  C 304.88 344.62 287.45 333.58 276.66 317.46
  L 275.75 314.84
  Q 275.56 314.27 276.08 313.97
  Q 276.71 313.60 277.75 313.72
  Z"
/>
<path fill="#41a8d5" d="
  M 276.32 317.50
  Q 276.51 317.52 276.66 317.46
  C 287.45 333.58 304.88 344.62 324.23 341.67
  A 0.62 0.62 0.0 0 1 324.93 342.16
  C 328.06 356.93 335.86 389.67 352.65 394.73
  Q 362.11 407.78 372.24 418.02
  C 386.57 432.51 406.07 442.64 425.27 449.49
  C 433.01 452.26 441.08 453.09 449.25 453.87
  A 0.85 0.84 0.8 0 1 450.01 454.65
  Q 450.04 455.04 449.79 454.96
  L 439.33 457.35
  Q 424.43 456.43 409.68 456.33
  C 375.20 456.10 343.14 446.10 317.47 423.28
  Q 308.39 415.21 298.08 402.28
  Q 293.68 392.21 285.94 380.06
  Q 280.77 371.95 273.88 367.42
  Q 278.83 342.39 276.32 317.50
  Z"
/>
<path fill="#c9e5e1" d="
  M 196.66 344.18
  Q 199.62 345.23 199.93 342.44
  Q 200.00 341.88 199.72 341.40
  L 194.88 332.91
  A 1.58 1.58 0.0 0 0 192.71 332.33
  C 188.93 334.54 193.20 336.69 192.47 339.46
  C 190.28 337.02 185.89 331.93 190.26 329.02
  C 194.44 326.22 199.24 334.19 200.94 337.00
  C 202.58 339.71 205.36 342.14 206.14 345.78
  A 0.74 0.74 0.0 0 1 204.76 346.27
  L 203.42 343.58
  A 0.67 0.67 0.0 0 0 202.16 343.97
  Q 202.47 346.24 201.07 348.01
  Q 200.71 348.47 201.12 348.88
  L 203.79 351.55
  A 0.58 0.58 0.0 0 1 203.24 352.53
  Q 202.42 352.34 201.75 351.46
  Q 199.15 348.04 196.66 344.18
  Z"
/>
<path fill="#cfdee7" d="
  M 196.66 344.18
  L 192.47 339.46
  C 193.20 336.69 188.93 334.54 192.71 332.33
  A 1.58 1.58 0.0 0 1 194.88 332.91
  L 199.72 341.40
  Q 200.00 341.88 199.93 342.44
  Q 199.62 345.23 196.66 344.18
  Z"
/>
<path fill="#ffffff" d="
  M 109.31 344.46
  C 115.12 355.07 110.06 362.94 99.57 366.17
  Q 98.93 366.36 99.26 366.94
  L 101.44 370.84
  Q 100.92 371.22 100.55 371.36
  Q 100.19 371.50 99.64 371.17
  Q 97.78 370.06 95.86 370.05
  C 80.05 367.23 64.64 369.54 48.99 367.74
  C 45.19 367.31 43.86 364.76 46.08 361.58
  C 59.94 341.76 87.70 336.53 109.31 344.46
  Z"
/>
<path fill="#cfdee7" d="
  M 165.19 342.27
  L 166.85 342.24
  A 0.94 0.93 73.9 0 1 167.67 342.70
  C 168.59 344.26 169.97 345.35 170.76 346.88
  Q 175.68 356.43 181.49 365.48
  Q 182.36 366.83 180.65 367.63
  L 176.94 363.08
  Q 176.63 362.71 176.19 362.54
  Q 175.68 362.34 175.01 362.58
  L 165.19 342.27
  Z"
/>
<path fill="#1371a0" d="
  M 423.43 427.95
  Q 423.15 429.28 422.04 428.29
  C 419.99 426.47 417.46 421.27 415.79 418.77
  C 414.41 416.72 412.09 415.01 410.71 412.48
  Q 410.47 412.05 410.55 411.56
  C 411.10 408.08 406.86 401.98 404.95 399.60
  C 401.58 395.42 399.60 392.57 400.91 387.67
  Q 402.50 381.68 402.24 375.76
  A 0.89 0.89 0.0 0 0 400.93 375.01
  C 396.06 377.56 393.88 380.69 390.36 384.58
  C 384.98 390.52 380.15 395.55 375.59 403.06
  C 374.70 404.52 374.20 406.00 372.80 407.78
  Q 371.94 408.89 369.95 413.30
  L 364.75 407.94
  Q 364.32 407.48 364.64 406.95
  L 366.00 404.74
  Q 372.03 403.86 375.15 397.78
  Q 375.38 397.33 375.86 397.18
  Q 377.31 396.76 377.64 396.12
  Q 379.59 392.42 383.73 388.23
  Q 395.46 376.37 398.57 373.58
  C 399.88 372.40 401.44 371.87 402.65 370.95
  C 416.63 360.21 429.90 351.14 446.36 345.68
  Q 446.96 345.48 447.02 345.12
  Q 447.08 344.75 446.90 344.15
  L 453.95 343.74
  A 0.90 0.90 0.0 0 1 454.76 345.13
  C 447.34 356.70 441.36 367.98 436.12 381.35
  C 429.71 397.67 424.71 411.06 423.43 427.95
  Z"
/>
<path fill="#3886b1" d="
  M 446.90 344.15
  Q 447.08 344.75 447.02 345.12
  Q 446.96 345.48 446.36 345.68
  C 429.90 351.14 416.63 360.21 402.65 370.95
  C 401.44 371.87 399.88 372.40 398.57 373.58
  Q 395.46 376.37 383.73 388.23
  Q 379.59 392.42 377.64 396.12
  Q 377.31 396.76 375.86 397.18
  Q 375.38 397.33 375.15 397.78
  Q 372.03 403.86 366.00 404.74
  C 385.37 375.42 411.47 350.97 446.90 344.15
  Z"
/>
<path fill="#84c9dd" d="
  M 109.31 344.46
  L 114.46 346.42
  L 115.42 352.68
  Q 114.18 364.32 104.51 368.22
  Q 103.93 368.45 104.13 369.05
  Q 104.71 370.75 104.52 372.18
  Q 103.84 372.73 103.37 372.75
  Q 102.86 372.77 102.79 372.26
  Q 102.63 371.03 101.48 371.23
  Q 101.09 370.77 101.44 370.84
  L 99.26 366.94
  Q 98.93 366.36 99.57 366.17
  C 110.06 362.94 115.12 355.07 109.31 344.46
  Z"
/>
<path fill="#41a8d5" d="
  M 114.46 346.42
  Q 116.07 346.72 116.89 347.43
  C 116.69 355.44 129.39 363.02 134.82 355.76
  Q 136.49 356.23 137.28 356.91
  Q 137.12 360.27 141.05 363.57
  Q 133.50 362.33 126.83 360.87
  Q 120.18 359.42 115.42 352.68
  L 114.46 346.42
  Z"
/>
<path fill="#84c9dd" d="
  M 116.89 347.43
  L 119.82 348.83
  Q 123.27 358.39 132.01 354.34
  L 134.82 355.76
  C 129.39 363.02 116.69 355.44 116.89 347.43
  Z"
/>
<path fill="#ffffff" d="
  M 119.82 348.83
  L 132.01 354.34
  Q 123.27 358.39 119.82 348.83
  Z"
/>
<path fill="#1371a0" d="
  M 115.42 352.68
  Q 120.18 359.42 126.83 360.87
  Q 133.50 362.33 141.05 363.57
  Q 144.60 365.00 148.57 364.75
  Q 152.93 367.08 158.94 365.18
  Q 164.62 366.24 171.32 366.68
  Q 172.15 366.73 173.63 366.46
  Q 175.39 366.14 176.01 366.97
  Q 175.41 367.71 173.91 367.94
  L 163.82 367.27
  A 0.99 0.98 -68.5 0 0 163.00 367.63
  Q 161.64 369.34 159.78 370.50
  C 143.56 380.63 124.01 383.31 106.26 374.25
  Q 105.61 373.91 104.55 374.48
  L 104.52 372.18
  Q 104.71 370.75 104.13 369.05
  Q 103.93 368.45 104.51 368.22
  Q 114.18 364.32 115.42 352.68
  Z"
/>
<path fill="#cfdee7" d="
  M 194.84 356.55
  C 197.92 359.24 203.79 364.96 204.95 368.77
  Q 206.12 372.61 209.07 377.56
  Q 209.31 377.96 209.75 378.07
  Q 212.54 378.76 212.78 381.63
  Q 212.84 382.37 212.18 382.02
  Q 209.00 380.30 206.08 378.38
  C 204.21 377.16 201.75 376.86 199.95 374.77
  Q 200.36 374.02 200.25 373.07
  A 1.19 1.17 -73.6 0 0 199.86 372.34
  L 198.78 371.39
  A 0.34 0.34 0.0 0 1 199.15 370.82
  L 199.72 371.10
  A 1.18 1.18 0.0 0 0 201.09 369.22
  Q 195.69 363.48 194.84 356.55
  Z"
/>
<path fill="#84c9dd" d="
  M 137.28 356.91
  L 139.84 358.24
  C 140.49 362.10 145.70 363.82 148.77 361.98
  L 151.10 362.78
  Q 151.01 363.71 148.57 364.75
  Q 144.60 365.00 141.05 363.57
  Q 137.12 360.27 137.28 356.91
  Z"
/>
<path fill="#ffffff" d="
  M 139.84 358.24
  L 148.77 361.98
  C 145.70 363.82 140.49 362.10 139.84 358.24
  Z"
/>
<path fill="#9ec0d8" d="
  M 175.01 362.58
  Q 175.68 362.34 176.19 362.54
  Q 176.63 362.71 176.94 363.08
  L 180.65 367.63
  L 186.20 373.56
  Q 186.59 373.97 186.81 373.46
  L 187.02 372.96
  L 187.57 373.01
  Q 188.04 373.06 188.42 373.35
  Q 194.86 378.28 201.29 383.21
  Q 206.85 387.48 216.58 391.22
  L 221.49 393.78
  Q 228.52 397.14 235.41 398.00
  Q 240.04 399.30 244.29 399.13
  L 244.18 402.69
  C 241.03 402.23 232.27 399.37 229.80 400.31
  Q 229.74 399.29 229.32 399.15
  Q 215.09 394.48 202.10 387.06
  C 198.43 384.96 195.50 381.74 192.02 379.07
  A 0.76 0.75 89.0 0 0 190.98 380.15
  Q 201.39 392.83 215.01 401.56
  Q 221.08 406.01 228.94 410.06
  Q 229.65 410.43 229.24 411.63
  Q 195.13 394.20 175.01 362.58
  Z"
/>
<path fill="#3886b1" d="
  M 151.10 362.78
  L 158.94 365.18
  Q 152.93 367.08 148.57 364.75
  Q 151.01 363.71 151.10 362.78
  Z"
/>
<path fill="#1371a0" d="
  M 288.35 387.18
  L 287.95 387.28
  Q 287.35 387.41 287.61 387.97
  C 291.15 395.77 295.46 403.55 297.99 411.73
  Q 299.35 416.10 302.19 419.59
  L 306.07 432.42
  Q 306.13 434.23 304.84 435.34
  Q 304.44 435.68 304.52 436.20
  Q 306.33 447.76 305.82 459.41
  C 305.51 466.41 302.00 471.41 295.52 473.71
  C 290.20 475.59 286.76 477.22 282.27 478.82
  Q 281.64 479.05 281.18 479.82
  L 280.80 479.40
  C 280.13 472.11 269.85 467.68 263.53 467.15
  Q 260.52 466.90 254.10 467.02
  A 0.51 0.50 3.8 0 1 253.59 466.44
  C 254.97 457.50 244.27 455.14 237.11 455.26
  Q 244.05 453.57 250.04 453.68
  C 254.13 458.94 267.30 461.96 271.34 455.55
  L 277.27 457.40
  C 272.04 458.95 272.09 462.87 275.12 466.54
  Q 280.84 473.46 289.74 472.79
  Q 293.93 472.47 294.35 466.02
  Q 292.92 463.10 289.70 461.27
  C 277.98 454.58 268.47 452.83 254.52 451.76
  Q 250.29 435.52 248.19 419.51
  Q 245.64 400.13 249.85 380.05
  Q 250.67 375.40 253.99 371.22
  C 259.88 363.81 269.96 365.45 276.24 371.04
  Q 283.36 377.40 288.35 387.18
  Z"
/>
<path stroke="#3d97c3" stroke-width="2.00" fill="none" stroke-linecap="butt" vector-effect="non-scaling-stroke" d="
  M 268.60 421.77
  L 265.12 411.88
  Q 264.95 411.41 265.00 410.91
  Q 265.12 409.62 264.46 408.48
  Q 264.20 408.03 264.23 407.52
  Q 264.54 403.20 262.61 399.33
  A 0.98 0.97 51.6 0 0 260.99 399.14
  Q 259.67 400.75 260.61 402.56
  Q 260.83 402.99 260.80 403.48
  C 260.40 409.39 258.10 415.17 258.23 420.84
  C 258.33 425.47 260.65 444.47 267.32 442.46
  Q 267.84 442.30 267.90 441.76
  L 269.05 431.99"
/>
<path fill="#1a3c64" d="
  M 176.01 366.97
  Q 182.66 377.19 191.04 385.90
  Q 177.55 399.68 158.71 401.39
  C 155.83 401.65 153.11 401.10 150.14 400.93
  Q 149.34 400.89 149.91 400.33
  Q 151.23 399.03 153.15 399.34
  Q 153.55 399.40 153.92 399.24
  Q 157.85 397.50 161.34 394.97
  C 161.94 394.53 162.38 394.53 163.11 394.46
  Q 163.75 394.39 163.91 393.78
  L 165.06 389.63
  A 0.94 0.92 31.5 0 0 164.84 388.76
  L 162.88 386.68
  Q 162.06 385.80 163.25 385.99
  Q 163.87 386.09 164.44 386.46
  Q 164.89 386.75 165.34 386.47
  Q 167.93 384.89 166.18 381.83
  A 0.67 0.66 24.5 0 0 164.95 382.29
  L 165.29 384.03
  Q 165.40 384.55 164.97 384.87
  L 164.76 385.02
  A 2.08 1.22 -73.1 0 1 163.97 381.72
  L 166.92 378.40
  Q 167.33 377.94 167.93 378.01
  Q 168.86 378.11 169.53 377.26
  Q 169.80 376.93 169.98 376.53
  L 173.91 367.94
  Q 175.41 367.71 176.01 366.97
  Z"
/>
<path fill="#00598a" d="
  M 173.91 367.94
  L 169.98 376.53
  Q 169.80 376.93 169.53 377.26
  Q 168.86 378.11 167.93 378.01
  Q 167.33 377.94 166.92 378.40
  L 163.97 381.72
  A 2.08 1.22 -73.1 0 0 164.76 385.02
  L 164.97 384.87
  Q 165.40 384.55 165.29 384.03
  L 164.95 382.29
  A 0.67 0.66 24.5 0 1 166.18 381.83
  Q 167.93 384.89 165.34 386.47
  Q 164.89 386.75 164.44 386.46
  Q 163.87 386.09 163.25 385.99
  Q 162.06 385.80 162.88 386.68
  L 164.84 388.76
  A 0.94 0.92 31.5 0 1 165.06 389.63
  L 163.91 393.78
  Q 163.75 394.39 163.11 394.46
  C 162.38 394.53 161.94 394.53 161.34 394.97
  Q 157.85 397.50 153.92 399.24
  Q 153.55 399.40 153.15 399.34
  Q 151.23 399.03 149.91 400.33
  Q 149.34 400.89 150.14 400.93
  C 153.11 401.10 155.83 401.65 158.71 401.39
  Q 177.55 399.68 191.04 385.90
  Q 191.56 386.03 191.67 386.28
  A 1.01 1.00 -33.9 0 1 191.44 387.41
  C 181.80 396.63 170.89 402.02 157.31 402.41
  C 138.33 402.96 119.69 394.59 104.53 383.35
  L 104.55 374.48
  Q 105.61 373.91 106.26 374.25
  C 124.01 383.31 143.56 380.63 159.78 370.50
  Q 161.64 369.34 163.00 367.63
  A 0.99 0.98 -68.5 0 1 163.82 367.27
  L 173.91 367.94
  Z"
/>
<path fill="#afdbdc" d="
  M 216.58 391.22
  Q 206.85 387.48 201.29 383.21
  Q 194.86 378.28 188.42 373.35
  Q 188.04 373.06 187.57 373.01
  L 187.02 372.96
  Q 187.91 371.76 187.76 369.96
  Q 187.71 369.32 188.33 369.49
  C 193.08 370.79 195.18 374.25 198.97 377.08
  Q 204.20 381.00 205.22 381.85
  Q 210.59 386.36 216.58 391.22
  Z"
/>
<path fill="#cfdee7" d="
  M 95.86 370.05
  Q 97.78 370.06 99.64 371.17
  Q 100.19 371.50 100.55 371.36
  Q 100.92 371.22 101.44 370.84
  Q 101.09 370.77 101.48 371.23
  Q 102.39 376.27 101.03 380.74
  L 85.10 370.37
  A 0.21 0.21 0.0 0 1 85.25 369.99
  Q 90.52 370.91 95.86 370.05
  Z"
/>
<path fill="#3886b1" d="
  M 101.48 371.23
  Q 102.63 371.03 102.79 372.26
  Q 102.86 372.77 103.37 372.75
  Q 103.84 372.73 104.52 372.18
  L 104.55 374.48
  L 104.53 383.35
  L 101.03 380.74
  Q 102.39 376.27 101.48 371.23
  Z"
/>
<path fill="#00598a" d="
  M 423.43 427.95
  C 423.38 436.37 423.77 442.13 428.44 448.33
  Q 428.89 448.94 428.15 448.78
  Q 426.49 448.44 423.98 447.48
  Q 401.04 438.69 382.56 425.20
  Q 379.63 423.07 369.95 413.30
  Q 371.94 408.89 372.80 407.78
  C 374.20 406.00 374.70 404.52 375.59 403.06
  C 380.15 395.55 384.98 390.52 390.36 384.58
  C 393.88 380.69 396.06 377.56 400.93 375.01
  A 0.89 0.89 0.0 0 1 402.24 375.76
  Q 402.50 381.68 400.91 387.67
  C 399.60 392.57 401.58 395.42 404.95 399.60
  C 406.86 401.98 411.10 408.08 410.55 411.56
  Q 410.47 412.05 410.71 412.48
  C 412.09 415.01 414.41 416.72 415.79 418.77
  C 417.46 421.27 419.99 426.47 422.04 428.29
  Q 423.15 429.28 423.43 427.95
  Z"
/>
<path fill="#688b9f" d="
  M 229.80 400.31
  L 215.01 401.56
  Q 201.39 392.83 190.98 380.15
  A 0.76 0.75 89.0 0 1 192.02 379.07
  C 195.50 381.74 198.43 384.96 202.10 387.06
  Q 215.09 394.48 229.32 399.15
  Q 229.74 399.29 229.80 400.31
  Z"
/>
<path fill="#3886b1" d="
  M 249.85 380.05
  Q 245.64 400.13 248.19 419.51
  Q 250.29 435.52 254.52 451.76
  Q 251.20 444.45 249.42 436.41
  C 246.08 421.32 245.13 406.96 246.77 391.01
  Q 247.47 384.29 249.85 380.05
  Z"
/>
<path fill="#3886b1" d="
  M 288.35 387.18
  Q 297.30 401.96 302.19 419.59
  Q 299.35 416.10 297.99 411.73
  C 295.46 403.55 291.15 395.77 287.61 387.97
  Q 287.35 387.41 287.95 387.28
  L 288.35 387.18
  Z"
/>
<path fill="#84c9dd" d="
  M 244.85 393.44
  L 244.29 399.13
  Q 240.04 399.30 235.41 398.00
  Q 237.74 396.55 239.95 395.48
  C 241.64 394.66 242.28 393.26 244.85 393.44
  Z"
/>
<path fill="#3886b1" d="
  M 268.60 421.77
  L 265.12 411.88
  Q 264.95 411.41 265.00 410.91
  Q 265.12 409.62 264.46 408.48
  Q 264.20 408.03 264.23 407.52
  Q 264.54 403.20 262.61 399.33
  A 0.98 0.97 51.6 0 0 260.99 399.14
  Q 259.67 400.75 260.61 402.56
  Q 260.83 402.99 260.80 403.48
  C 260.40 409.39 258.10 415.17 258.23 420.84
  C 258.33 425.47 260.65 444.47 267.32 442.46
  Q 267.84 442.30 267.90 441.76
  L 269.05 431.99
  C 270.16 434.86 270.18 440.76 268.48 443.39
  Q 268.16 443.89 267.58 444.03
  Q 267.09 444.15 267.12 444.87
  A 1.41 1.21 22.4 0 1 264.82 445.63
  C 254.90 436.84 255.86 417.26 258.89 405.82
  C 259.42 403.82 259.16 401.65 259.76 399.52
  Q 259.89 399.06 260.32 398.84
  L 262.62 397.67
  A 0.99 0.98 67.4 0 1 264.00 398.24
  C 265.21 401.95 264.82 405.58 266.25 409.04
  C 267.88 412.95 269.61 417.49 268.60 421.77
  Z"
/>
<path fill="#41a8d5" d="
  M 268.60 421.77
  Q 269.57 427.01 269.05 431.99
  L 267.90 441.76
  Q 267.84 442.30 267.32 442.46
  C 260.65 444.47 258.33 425.47 258.23 420.84
  C 258.10 415.17 260.40 409.39 260.80 403.48
  Q 260.83 402.99 260.61 402.56
  Q 259.67 400.75 260.99 399.14
  A 0.98 0.97 51.6 0 1 262.61 399.33
  Q 264.54 403.20 264.23 407.52
  Q 264.20 408.03 264.46 408.48
  Q 265.12 409.62 265.00 410.91
  Q 264.95 411.41 265.12 411.88
  L 268.60 421.77
  Z"
/>
<path fill="#3886b1" d="
  M 229.80 400.31
  C 232.27 399.37 241.03 402.23 244.18 402.69
  L 244.26 406.97
  Q 237.92 410.49 230.39 410.28
  A 0.23 0.23 0.0 0 0 230.23 410.69
  L 230.91 411.25
  Q 231.31 411.57 231.25 412.08
  L 231.18 412.63
  L 229.24 411.63
  Q 229.65 410.43 228.94 410.06
  Q 221.08 406.01 215.01 401.56
  L 229.80 400.31
  Z"
/>
<path fill="#3886b1" d="
  M 298.08 402.28
  Q 308.39 415.21 317.47 423.28
  C 343.14 446.10 375.20 456.10 409.68 456.33
  Q 424.43 456.43 439.33 457.35
  C 427.96 461.70 415.98 461.03 404.13 460.49
  C 381.27 459.46 355.69 452.23 336.16 440.18
  Q 318.33 429.19 302.40 413.74
  L 298.08 402.28
  Z"
/>
<path fill="#1371a0" d="
  M 244.26 406.97
  L 244.69 417.28
  A 0.48 0.48 0.0 0 1 244.03 417.75
  L 231.18 412.63
  L 231.25 412.08
  Q 231.31 411.57 230.91 411.25
  L 230.23 410.69
  A 0.23 0.23 0.0 0 1 230.39 410.28
  Q 237.92 410.49 244.26 406.97
  Z"
/>
<path fill="#84c9dd" d="
  M 360.08 432.59
  Q 348.16 424.64 338.57 413.97
  C 337.80 413.13 336.49 412.10 336.49 410.80
  A 1.23 1.23 0.0 0 1 338.51 409.86
  L 349.56 419.32
  Q 349.92 419.63 350.19 419.23
  Q 350.31 419.06 350.56 418.82
  A 0.04 0.04 0.0 0 0 350.55 418.75
  Q 349.86 418.53 349.85 418.11
  Q 349.84 417.73 350.12 418.00
  Q 356.16 423.72 362.46 429.14
  C 364.77 431.12 368.12 432.51 370.49 435.21
  A 1.73 1.69 -10.8 0 0 371.29 435.74
  Q 373.70 436.51 375.33 438.33
  Q 375.65 438.70 376.14 438.77
  Q 377.73 439.02 378.05 440.44
  Q 378.21 441.13 377.51 441.04
  C 375.39 440.77 373.58 439.21 372.24 438.61
  Q 366.69 436.13 365.01 435.78
  C 362.02 435.16 361.80 433.73 360.08 432.59
  Z"
/>
<path fill="#1371a0" d="
  M 302.40 413.74
  Q 318.33 429.19 336.16 440.18
  C 355.69 452.23 381.27 459.46 404.13 460.49
  C 415.98 461.03 427.96 461.70 439.33 457.35
  L 449.79 454.96
  L 444.21 459.33
  Q 443.01 458.22 440.34 459.93
  Q 437.86 461.52 437.10 461.88
  C 404.40 477.49 364.98 474.62 331.79 460.09
  Q 321.76 455.70 311.68 451.01
  Q 308.54 433.14 302.40 413.74
  Z"
/>
<path fill="#00598a" d="
  M 306.07 432.42
  Q 310.57 448.85 311.58 465.27
  Q 309.62 469.19 308.96 474.15
  C 308.25 479.48 301.65 485.84 296.76 487.64
  Q 295.04 488.27 296.76 488.87
  Q 288.49 493.31 278.80 495.31
  Q 282.47 487.44 281.18 479.82
  Q 281.64 479.05 282.27 478.82
  C 286.76 477.22 290.20 475.59 295.52 473.71
  C 302.00 471.41 305.51 466.41 305.82 459.41
  Q 306.33 447.76 304.52 436.20
  Q 304.44 435.68 304.84 435.34
  Q 306.13 434.23 306.07 432.42
  Z"
/>
<path fill="#3886b1" d="
  M 311.68 451.01
  Q 321.76 455.70 331.79 460.09
  C 364.98 474.62 404.40 477.49 437.10 461.88
  Q 437.86 461.52 440.34 459.93
  Q 443.01 458.22 444.21 459.33
  Q 427.27 469.25 410.06 471.85
  C 374.79 477.18 343.63 469.84 312.64 453.25
  Q 311.95 452.88 311.79 452.35
  Q 311.63 451.79 311.68 451.01
  Z"
/>
<path fill="#84c9dd" d="
  M 255.25 453.42
  Q 254.64 453.40 254.27 453.60
  A 0.37 0.36 -44.3 0 0 254.26 454.23
  Q 260.54 458.07 267.08 454.80
  L 271.34 455.55
  C 267.30 461.96 254.13 458.94 250.04 453.68
  L 255.25 453.42
  Z"
/>
<path fill="#ffffff" d="
  M 255.25 453.42
  L 267.08 454.80
  Q 260.54 458.07 254.26 454.23
  A 0.37 0.36 -44.3 0 1 254.27 453.60
  Q 254.64 453.40 255.25 453.42
  Z"
/>
<path fill="#84c9dd" d="
  M 237.11 455.26
  C 244.27 455.14 254.97 457.50 253.59 466.44
  A 0.51 0.50 3.8 0 0 254.10 467.02
  Q 260.52 466.90 263.53 467.15
  C 269.85 467.68 280.13 472.11 280.80 479.40
  L 276.66 481.73
  Q 276.32 480.97 276.44 481.37
  C 273.26 469.40 259.46 469.82 249.83 470.44
  A 0.36 0.35 -89.2 0 1 249.46 470.05
  C 251.12 454.43 231.84 457.97 223.75 461.50
  Q 223.00 461.83 222.73 461.50
  Q 222.42 461.13 222.48 460.17
  Q 229.65 456.85 237.11 455.26
  Z"
/>
<path fill="#84c9dd" d="
  M 277.27 457.40
  L 282.38 459.24
  Q 277.63 458.54 276.52 462.03
  Q 276.37 462.52 276.60 462.97
  Q 279.74 469.17 286.76 469.77
  C 292.09 470.22 290.61 465.52 289.19 462.69
  L 294.35 466.02
  Q 293.93 472.47 289.74 472.79
  Q 280.84 473.46 275.12 466.54
  C 272.09 462.87 272.04 458.95 277.27 457.40
  Z"
/>
<path fill="#ffffff" d="
  M 276.44 481.37
  C 257.91 488.11 235.85 489.82 216.59 488.26
  Q 214.89 488.12 205.98 486.77
  Q 200.90 485.99 195.29 485.70
  Q 196.10 480.60 198.81 477.56
  Q 208.57 466.61 222.48 460.17
  Q 222.42 461.13 222.73 461.50
  Q 223.00 461.83 223.75 461.50
  C 231.84 457.97 251.12 454.43 249.46 470.05
  A 0.36 0.35 -89.2 0 0 249.83 470.44
  C 259.46 469.82 273.26 469.40 276.44 481.37
  Z"
/>
<path fill="#ffffff" d="
  M 282.38 459.24
  L 289.19 462.69
  C 290.61 465.52 292.09 470.22 286.76 469.77
  Q 279.74 469.17 276.60 462.97
  Q 276.37 462.52 276.52 462.03
  Q 277.63 458.54 282.38 459.24
  Z"
/>
<path fill="#1371a0" d="
  M 311.58 465.27
  C 312.72 476.27 306.33 484.28 296.76 488.87
  Q 295.04 488.27 296.76 487.64
  C 301.65 485.84 308.25 479.48 308.96 474.15
  Q 309.62 469.19 311.58 465.27
  Z"
/>
<path fill="#3886b1" d="
  M 280.80 479.40
  L 281.18 479.82
  Q 282.47 487.44 278.80 495.31
  L 273.91 496.24
  Q 277.87 489.33 276.66 481.73
  L 280.80 479.40
  Z"
/>
<path fill="#cfdee7" d="
  M 276.44 481.37
  Q 276.32 480.97 276.66 481.73
  Q 277.87 489.33 273.91 496.24
  Q 242.22 501.24 208.50 493.23
  Q 199.55 491.10 195.29 485.70
  Q 200.90 485.99 205.98 486.77
  Q 214.89 488.12 216.59 488.26
  C 235.85 489.82 257.91 488.11 276.44 481.37
  Z"
/>
</svg>
