<?xml version="1.0" encoding="UTF-8" standalone="no"?>
<svg xmlns="http://www.w3.org/2000/svg" version="1.2" baseProfile="tiny" viewBox="0.00 0.00 500.00 500.00">
<path fill="#000000" d="
  M 256.75 0.00
  L 258.08 0.00
  Q 260.96 0.91 261.17 4.71
  C 262.03 20.21 256.59 35.71 250.24 50.03
  A 0.35 0.34 -1.3 0 0 250.71 50.47
  Q 284.20 34.18 320.80 37.78
  C 328.42 38.53 325.70 43.73 322.20 47.20
  C 311.64 57.69 300.35 65.08 288.71 73.51
  A 0.63 0.62 -56.9 0 0 288.94 74.63
  C 291.48 75.18 297.06 78.42 299.20 77.70
  Q 305.80 75.45 312.64 74.32
  C 325.21 72.23 338.04 69.84 349.71 75.31
  C 362.83 81.45 365.34 100.51 360.00 112.53
  C 354.33 125.28 345.91 135.96 337.53 147.02
  C 334.50 151.03 334.91 157.20 339.34 160.40
  Q 358.87 174.54 375.62 193.28
  A 1.84 1.84 0.0 0 1 375.55 195.80
  Q 374.41 196.95 371.72 197.66
  Q 353.94 202.33 335.99 205.34
  A 0.89 0.88 -26.0 0 0 335.48 206.81
  C 337.81 209.37 340.01 211.84 343.67 212.28
  C 361.43 214.42 375.52 216.58 396.31 216.32
  Q 401.51 216.25 407.71 217.46
  A 1.39 1.39 0.0 0 1 408.54 217.97
  Q 410.73 220.80 408.33 222.99
  C 396.64 233.67 387.00 245.50 371.71 251.44
  A 0.80 0.79 59.4 0 0 371.39 252.69
  Q 372.27 253.73 373.05 255.15
  Q 380.08 267.97 386.16 281.33
  A 0.93 0.90 51.4 0 1 386.07 282.26
  C 383.44 285.83 363.17 285.32 358.44 284.95
  A 0.92 0.92 0.0 0 0 357.45 285.98
  C 358.40 293.79 352.64 305.97 345.61 311.04
  Q 345.21 311.33 345.23 311.83
  C 345.82 327.92 336.77 336.94 321.88 339.22
  C 317.45 339.90 311.55 341.17 307.16 340.12
  A 0.60 0.59 -19.8 0 0 306.66 341.17
  C 318.80 350.19 335.17 367.18 337.86 382.30
  C 340.92 399.47 340.01 418.43 337.60 436.10
  A 0.57 0.56 70.6 0 0 338.57 436.57
  Q 339.69 435.36 341.37 435.33
  A 0.53 0.52 85.9 0 1 341.91 435.81
  C 342.34 440.33 340.69 446.40 340.01 450.74
  A 0.45 0.45 0.0 0 0 340.76 451.15
  Q 349.88 442.99 359.99 435.96
  Q 360.28 435.76 360.61 435.68
  Q 361.07 435.58 361.27 435.58
  A 1.24 1.23 -73.8 0 1 362.32 437.50
  Q 353.76 450.42 343.58 462.13
  C 339.90 466.36 329.61 468.43 324.76 469.02
  Q 298.19 472.24 270.73 465.59
  C 259.55 462.88 255.32 458.96 258.75 447.00
  Q 268.61 412.69 273.25 394.75
  C 273.73 392.91 273.75 390.51 272.81 388.57
  C 268.00 378.56 262.47 369.85 253.31 363.48
  A 1.50 1.46 61.2 0 0 252.43 363.21
  C 247.66 363.29 242.10 364.31 238.34 364.46
  Q 231.70 364.71 225.23 363.99
  Q 224.72 363.93 224.54 364.41
  C 220.43 375.47 217.81 385.74 215.79 398.08
  Q 211.07 426.93 209.03 456.09
  C 208.33 466.09 208.58 477.34 208.28 488.00
  C 208.22 490.05 205.68 492.92 203.36 493.66
  Q 184.29 499.70 164.18 500.00
  L 158.68 500.00
  C 152.78 499.54 127.51 496.37 124.62 491.26
  Q 116.93 477.68 109.90 463.76
  C 109.41 462.79 109.24 461.34 109.09 460.33
  A 1.26 1.25 6.3 0 1 110.79 458.97
  Q 119.71 462.51 127.72 467.84
  A 0.70 0.70 0.0 0 0 128.78 467.44
  Q 136.85 437.23 146.23 407.52
  Q 151.51 390.79 152.33 388.49
  Q 160.11 366.80 174.17 348.46
  C 179.81 341.11 184.87 334.98 191.54 329.55
  A 0.53 0.53 0.0 0 0 191.03 328.63
  Q 188.54 329.47 186.00 329.59
  Q 168.43 330.43 151.77 325.66
  C 131.72 319.92 111.05 310.55 116.56 285.08
  A 1.40 1.39 38.0 0 0 116.44 284.14
  C 112.13 275.87 110.29 262.59 122.18 259.41
  Q 124.40 258.82 130.60 259.34
  C 132.13 259.47 133.22 260.38 134.60 260.98
  Q 135.03 261.17 135.50 261.15
  Q 145.76 260.66 151.10 269.30
  Q 151.37 269.74 151.85 269.92
  C 157.50 271.94 161.59 274.35 164.02 279.89
  Q 164.23 280.37 164.71 280.59
  Q 171.30 283.52 177.16 287.75
  Q 178.10 288.44 178.39 287.30
  Q 180.52 278.93 184.24 271.14
  Q 184.47 270.66 184.05 270.33
  C 175.60 263.75 170.85 253.74 168.41 243.59
  A 0.79 0.76 17.0 0 0 168.23 243.27
  L 161.28 236.50
  A 0.79 0.79 0.0 0 0 160.47 236.32
  C 145.85 241.44 132.01 246.25 116.40 248.89
  A 1.17 1.17 0.0 0 1 115.06 247.53
  Q 118.34 228.75 127.06 211.80
  A 1.05 1.04 13.9 0 0 126.14 210.28
  C 113.09 210.09 102.37 210.19 91.20 203.51
  Q 90.79 203.26 90.65 202.81
  Q 90.07 200.96 90.81 199.81
  Q 97.89 188.72 109.32 176.07
  Q 121.18 162.96 126.97 158.17
  Q 131.36 154.52 128.16 149.86
  C 125.26 145.62 121.44 141.83 119.15 137.66
  C 112.28 125.17 102.90 100.57 109.81 86.82
  C 119.09 68.35 150.34 72.97 165.94 76.40
  Q 166.48 76.52 166.99 76.32
  Q 178.67 71.82 191.09 70.33
  A 0.87 0.85 -82.4 0 0 191.79 69.78
  C 203.55 38.28 224.47 11.42 256.75 0.00
  Z
  M 272.70 259.28
  C 275.50 261.07 277.71 262.65 279.39 265.57
  C 285.28 275.83 284.50 287.79 285.70 299.12
  A 1.67 1.67 0.0 0 0 288.00 300.49
  C 296.22 297.07 304.20 294.53 312.82 292.73
  C 317.46 291.77 321.14 290.31 326.16 291.01
  Q 326.66 291.08 326.93 290.65
  C 329.28 286.83 330.83 282.90 335.18 280.90
  A 0.50 0.50 0.0 0 0 335.09 279.96
  C 316.61 275.26 299.48 264.11 283.98 253.37
  A 0.62 0.61 -40.2 0 0 283.37 253.32
  L 272.75 258.48
  A 0.46 0.46 0.0 0 0 272.70 259.28
  Z"
/>
<g stroke-width="2.00" fill="none" stroke-linecap="butt">
<path stroke="#aea8a2" vector-effect="non-scaling-stroke" d="
  M 358.67 108.48
  Q 349.74 120.61 339.65 129.62
  Q 338.03 131.06 333.80 133.67
  Q 328.63 136.87 325.15 141.69"
/>
<path stroke="#5f5b58" vector-effect="non-scaling-stroke" d="
  M 325.15 141.69
  Q 312.35 129.93 296.46 122.70"
/>
<path stroke="#aea8a2" vector-effect="non-scaling-stroke" d="
  M 296.46 122.70
  Q 306.41 120.13 305.57 110.87"
/>
<path stroke="#5f5b58" vector-effect="non-scaling-stroke" d="
  M 305.57 110.87
  C 312.18 107.38 319.58 103.88 325.36 99.01
  A 0.69 0.69 0.0 0 0 325.05 97.81
  C 296.74 92.11 270.16 93.00 241.74 98.23
  A 0.28 0.27 -70.8 0 1 241.51 97.75
  Q 255.10 86.02 266.10 71.87
  Q 266.88 70.87 265.61 70.78
  C 238.48 68.86 201.88 76.62 182.56 97.87
  C 177.57 103.36 175.12 109.33 175.27 116.52
  A 1.43 1.43 0.0 0 1 174.28 117.92
  Q 151.09 125.45 135.59 144.38"
/>
<path stroke="#aea8a2" vector-effect="non-scaling-stroke" d="
  M 135.59 144.38
  Q 131.80 139.98 127.22 136.22
  C 123.28 132.99 120.83 129.31 117.69 125.51
  Q 117.34 125.09 116.83 125.29
  L 115.60 125.77"
/>
<path stroke="#4f4d4a" vector-effect="non-scaling-stroke" d="
  M 305.57 110.87
  L 286.67 120.00
  A 0.36 0.36 0.0 0 0 286.75 120.68
  L 296.46 122.70"
/>
<path stroke="#4f4d4a" vector-effect="non-scaling-stroke" d="
  M 325.15 141.69
  L 327.62 144.97"
/>
<path stroke="#424341" vector-effect="non-scaling-stroke" d="
  M 327.62 144.97
  Q 335.19 154.37 324.49 160.40"
/>
<path stroke="#4f4d4a" vector-effect="non-scaling-stroke" d="
  M 324.49 160.40
  L 320.48 162.83"
/>
<path stroke="#5f5b58" vector-effect="non-scaling-stroke" d="
  M 320.48 162.83
  L 312.00 166.12
  Q 311.36 166.36 312.01 166.57
  L 321.61 169.64"
/>
<path stroke="#4f4d4a" vector-effect="non-scaling-stroke" d="
  M 321.61 169.64
  L 323.78 170.58
  Q 324.35 170.82 323.99 171.31
  Q 323.09 172.58 322.12 172.67"
/>
<path stroke="#5f5b58" vector-effect="non-scaling-stroke" d="
  M 322.12 172.67
  C 308.16 181.86 294.32 185.54 278.69 190.13
  Q 278.18 190.27 278.20 190.80
  C 278.46 197.81 277.39 211.44 271.31 216.16
  Q 266.93 219.58 261.65 216.76
  C 254.95 213.18 253.51 203.18 253.04 195.98
  Q 253.00 195.45 252.47 195.49
  C 239.73 196.46 227.25 195.60 214.51 195.25
  Q 213.98 195.23 213.92 195.76
  C 212.99 203.56 211.29 220.97 199.26 218.65
  C 189.40 216.75 187.58 199.41 187.67 191.86
  Q 187.67 191.30 187.13 191.21
  C 169.81 188.07 156.64 183.93 143.89 174.06
  Q 141.36 172.10 139.74 169.01
  A 0.82 0.82 0.0 0 1 140.46 167.81
  L 149.00 167.74
  Q 150.07 167.74 149.11 167.25
  C 142.15 163.78 135.73 161.28 133.27 153.88"
/>
<path stroke="#4f4d4a" vector-effect="non-scaling-stroke" d="
  M 133.27 153.88
  Q 132.64 148.98 135.59 144.38"
/>
<path stroke="#aea8a2" vector-effect="non-scaling-stroke" d="
  M 133.27 153.88
  L 132.51 153.74
  Q 132.05 153.66 131.95 154.11
  L 131.86 154.57"
/>
<path stroke="#91908b" vector-effect="non-scaling-stroke" d="
  M 345.97 132.56
  Q 342.72 134.03 340.33 136.58
  Q 334.86 142.40 327.62 144.97"
/>
<path stroke="#91908b" vector-effect="non-scaling-stroke" d="
  M 315.39 217.93
  C 316.45 214.02 318.68 210.98 319.43 207.06
  C 320.19 203.12 320.89 199.22 323.00 195.74
  C 327.09 188.99 324.80 179.12 326.22 171.48
  Q 327.04 167.13 324.65 163.21
  Q 324.38 162.77 324.65 162.34
  Q 325.43 161.02 324.49 160.40"
/>
<path stroke="#91908b" vector-effect="non-scaling-stroke" d="
  M 309.82 225.78
  Q 306.42 225.49 304.21 227.61
  C 302.09 229.66 299.39 231.92 296.70 233.07
  C 284.69 238.21 275.51 242.37 260.45 245.51
  Q 260.16 245.57 259.87 245.53
  Q 259.06 245.41 258.13 246.30"
/>
<path stroke="#a0a18b" vector-effect="non-scaling-stroke" d="
  M 258.13 246.30
  Q 258.38 246.19 257.93 245.94
  Q 257.82 245.88 257.86 245.76
  L 257.95 245.48"
/>
<path stroke="#aea8a2" vector-effect="non-scaling-stroke" d="
  M 321.61 169.64
  Q 321.82 165.73 320.48 162.83"
/>
<path stroke="#aea8a2" vector-effect="non-scaling-stroke" d="
  M 322.12 172.67
  Q 323.71 182.80 323.00 185.75
  Q 319.37 200.71 312.81 214.62
  C 309.54 221.57 301.68 229.03 294.85 232.07
  Q 277.65 239.72 259.45 244.62
  Q 258.98 244.75 258.58 245.03
  L 257.95 245.48"
/>
<path stroke="#b0af99" vector-effect="non-scaling-stroke" d="
  M 257.95 245.48
  Q 257.78 245.50 257.71 245.16"
/>
<path stroke="#d6d1ab" vector-effect="non-scaling-stroke" d="
  M 257.71 245.16
  C 258.48 237.68 256.22 231.06 253.00 224.20
  C 247.96 213.48 235.61 203.04 223.67 211.92
  Q 208.61 223.12 207.60 242.36
  C 207.54 243.43 207.94 244.43 208.01 245.57"
/>
<path stroke="#aea8a2" vector-effect="non-scaling-stroke" d="
  M 208.01 245.57
  Q 207.75 245.46 207.55 245.49
  A 0.79 0.00 -7.5 0 1 206.78 245.59
  Q 191.05 242.17 186.05 239.98
  Q 175.21 235.24 163.16 232.29"
/>
<path stroke="#a19e98" vector-effect="non-scaling-stroke" d="
  M 163.16 232.29
  Q 160.66 229.76 158.40 230.57"
/>
<path stroke="#aea8a2" vector-effect="non-scaling-stroke" d="
  M 128.11 213.35
  C 130.74 211.82 135.86 204.09 129.48 203.75
  Q 120.16 203.24 112.40 208.09"
/>
<path stroke="#91908b" vector-effect="non-scaling-stroke" d="
  M 163.16 232.29
  C 173.78 238.61 182.73 242.17 193.69 244.18
  C 197.19 244.83 201.65 246.64 206.41 246.10
  Q 206.93 246.04 207.28 246.42
  L 207.88 247.06"
/>
<path stroke="#939682" vector-effect="non-scaling-stroke" d="
  M 207.88 247.06
  C 212.23 256.97 216.38 260.01 226.55 262.13
  C 238.24 264.56 256.03 260.33 258.13 246.30"
/>
<path stroke="#515441" vector-effect="non-scaling-stroke" d="
  M 228.64 247.87
  Q 227.83 250.07 228.05 251.89
  A 0.58 0.58 0.0 0 0 229.19 251.95
  L 230.28 247.08"
/>
<path stroke="#626452" vector-effect="non-scaling-stroke" d="
  M 236.01 247.56
  L 236.27 252.03
  A 0.76 0.75 -37.6 0 0 237.74 252.22
  Q 238.36 250.34 237.63 247.78"
/>
<path stroke="#a0a18b" vector-effect="non-scaling-stroke" d="
  M 208.01 245.57
  L 207.88 247.06"
/>
<path stroke="#c8c995" vector-effect="non-scaling-stroke" d="
  M 257.71 245.16
  Q 252.12 247.10 245.93 246.36"
/>
<path stroke="#777654" vector-effect="non-scaling-stroke" d="
  M 245.93 246.36
  C 244.84 240.29 240.00 221.09 229.95 226.64
  C 224.33 229.75 221.65 240.95 221.12 246.92"
/>
<path stroke="#c8c995" vector-effect="non-scaling-stroke" d="
  M 221.12 246.92
  L 208.01 245.57"
/>
<path stroke="#515441" vector-effect="non-scaling-stroke" d="
  M 245.93 246.36
  Q 246.22 248.20 246.72 250.19
  Q 246.80 250.52 246.72 250.75
  Q 246.61 251.04 246.41 251.19
  Q 245.99 251.52 245.83 251.01
  L 244.58 247.05"
/>
<path stroke="#777654" vector-effect="non-scaling-stroke" d="
  M 244.58 247.05
  Q 242.74 238.55 238.86 231.68
  C 235.10 225.01 229.05 227.42 226.41 233.17
  Q 223.55 239.37 222.57 247.55"
/>
<path stroke="#515441" vector-effect="non-scaling-stroke" d="
  M 222.57 247.55
  L 222.31 251.97
  Q 222.24 253.03 221.68 252.12
  Q 220.45 250.14 221.12 246.92"
/>
<path stroke="#c8c995" vector-effect="non-scaling-stroke" d="
  M 244.58 247.05
  L 237.63 247.78"
/>
<path stroke="#888665" vector-effect="non-scaling-stroke" d="
  M 237.63 247.78
  Q 237.56 247.05 237.23 246.47
  Q 236.97 246.02 236.55 246.32
  Q 235.93 246.78 236.01 247.56"
/>
<path stroke="#c8c995" vector-effect="non-scaling-stroke" d="
  M 236.01 247.56
  L 230.28 247.08"
/>
<path stroke="#777654" vector-effect="non-scaling-stroke" d="
  M 230.28 247.08
  Q 230.33 246.47 230.08 246.19
  Q 229.81 245.88 229.37 246.12
  Q 228.70 246.47 228.64 247.87"
/>
<path stroke="#c8c995" vector-effect="non-scaling-stroke" d="
  M 228.64 247.87
  Q 225.76 247.03 222.57 247.55"
/>
<path stroke="#bfc7c6" vector-effect="non-scaling-stroke" d="
  M 361.75 216.47
  Q 362.78 219.42 361.76 221.27
  C 358.94 226.39 360.18 228.48 363.14 232.65
  C 365.36 235.79 367.95 236.69 366.48 241.52
  Q 365.11 246.04 363.37 250.46
  Q 363.09 251.18 362.48 251.80
  Q 362.13 252.15 362.15 252.64
  Q 362.42 259.11 359.08 264.44
  C 358.19 265.86 356.76 266.26 355.78 267.78
  Q 353.20 271.81 350.17 275.63
  Q 349.80 276.11 349.20 276.11
  L 345.28 276.16
  Q 344.80 276.17 344.46 276.51
  Q 343.80 277.17 344.05 278.11"
/>
<path stroke="#e5e8e8" vector-effect="non-scaling-stroke" d="
  M 368.02 217.18
  Q 366.93 217.20 366.28 218.19
  A 0.81 0.80 -45.8 0 0 366.29 219.08
  C 367.81 221.33 366.39 222.45 366.62 224.33
  C 366.99 227.30 369.45 230.82 370.73 233.24
  Q 372.39 236.38 372.57 239.10
  Q 372.89 244.31 370.66 250.02"
/>
<path stroke="#e5e8e8" vector-effect="non-scaling-stroke" d="
  M 369.63 253.08
  Q 367.01 254.35 366.40 255.94
  Q 363.18 264.29 356.80 270.04
  C 355.33 271.37 354.70 273.10 353.72 274.34
  Q 352.28 276.17 350.90 278.11"
/>
<path stroke="#bfc7c6" vector-effect="non-scaling-stroke" d="
  M 176.02 249.06
  Q 176.73 252.89 178.81 256.34
  A 1.87 1.80 29.9 0 1 179.07 257.24
  Q 179.15 262.60 183.72 265.26
  Q 184.17 265.52 184.68 265.44
  Q 186.64 265.09 187.17 265.86"
/>
<path stroke="#91908b" vector-effect="non-scaling-stroke" d="
  M 291.44 300.84
  C 293.38 308.76 302.97 301.10 306.62 299.47
  Q 309.56 298.16 312.40 296.60
  C 313.20 296.16 314.23 296.23 314.95 295.43
  Q 315.44 294.88 315.13 294.51
  Q 314.84 294.16 313.94 294.17"
/>
<path stroke="#91908b" vector-effect="non-scaling-stroke" d="
  M 329.66 335.65
  Q 328.32 330.93 321.56 332.67
  C 316.91 333.87 311.79 333.43 307.75 334.51
  Q 305.53 335.11 305.66 338.49"
/>
<path stroke="#91908b" vector-effect="non-scaling-stroke" d="
  M 218.81 285.94
  C 214.48 286.42 215.43 292.50 209.15 294.13
  A 0.80 0.79 85.7 0 0 208.57 294.81
  L 208.33 296.84"
/>
<path stroke="#91908b" vector-effect="non-scaling-stroke" d="
  M 206.98 293.80
  Q 203.47 292.76 199.48 290.26
  Q 195.49 287.75 192.64 284.92
  C 190.23 282.53 188.51 282.31 185.34 282.83
  A 0.79 0.78 -21.9 0 1 184.57 282.51
  Q 183.55 281.06 182.03 281.24"
/>
<path stroke="#aea8a2" vector-effect="non-scaling-stroke" d="
  M 220.12 288.98
  Q 214.85 294.33 211.90 298.15
  Q 210.53 299.94 208.40 299.76"
/>
<path stroke="#aea8a2" vector-effect="non-scaling-stroke" d="
  M 206.54 305.24
  Q 202.99 302.92 200.75 298.97
  C 197.65 293.49 190.89 291.32 186.50 287.25
  Q 186.07 286.85 185.52 287.03
  L 182.88 287.87
  Q 182.45 288.01 182.12 287.69
  Q 181.16 286.76 180.08 287.69"
/>
<path stroke="#aea8a2" vector-effect="non-scaling-stroke" d="
  M 261.10 349.53
  Q 258.69 350.10 256.02 350.80
  C 252.41 351.75 249.68 354.13 246.33 355.37
  Q 239.65 357.84 229.39 360.52
  C 228.24 360.82 227.86 361.49 227.70 362.58"
/>
<path stroke="#aea8a2" vector-effect="non-scaling-stroke" d="
  M 218.45 376.76
  L 216.30 376.79
  Q 215.81 376.79 215.68 377.26
  Q 212.13 390.31 208.13 403.21
  C 203.02 419.71 203.53 434.91 205.91 451.04
  Q 205.96 451.33 206.17 451.54
  L 206.44 451.81
  Q 206.76 452.13 206.76 452.58
  L 206.79 459.76"
/>
<path stroke="#91908b" vector-effect="non-scaling-stroke" d="
  M 331.87 371.98
  Q 331.59 372.58 330.88 373.00
  Q 330.42 373.27 330.63 373.76
  Q 332.13 377.32 329.50 380.25
  A 1.19 1.18 -26.2 0 0 329.20 381.11
  C 329.29 382.85 329.98 385.57 329.31 387.09
  C 327.86 390.35 318.27 392.97 314.46 392.49
  Q 313.94 392.42 313.55 392.77
  C 309.72 396.15 304.06 393.15 300.04 392.78
  Q 299.53 392.74 299.22 392.34
  C 297.78 390.47 296.32 388.74 294.37 387.23
  Q 284.15 379.33 275.78 369.55
  C 270.27 363.11 266.53 358.67 263.22 352.04
  A 1.46 1.24 41.3 0 0 260.67 352.00
  Q 260.47 352.92 258.72 353.10
  C 256.41 353.35 252.96 353.23 251.89 355.69
  Q 251.68 356.17 251.19 356.35
  Q 245.20 358.52 239.90 362.57"
/>
<path stroke="#aea8a2" vector-effect="non-scaling-stroke" d="
  M 274.57 310.38
  Q 270.89 302.12 264.96 293.29
  Q 264.36 292.39 263.60 293.06"
/>
<path stroke="#aea8a2" vector-effect="non-scaling-stroke" d="
  M 327.42 364.72
  C 324.89 367.27 327.22 368.93 327.23 371.49
  C 327.24 376.45 325.13 379.56 320.52 381.66
  C 313.81 384.71 306.61 384.08 299.09 381.53
  Q 298.61 381.38 298.15 381.56
  Q 296.87 382.08 295.81 381.27
  Q 295.38 380.94 294.84 381.00
  C 286.72 381.90 281.87 374.23 278.17 368.10
  C 273.81 360.89 269.36 353.79 265.37 346.28"
/>
<path stroke="#91908b" vector-effect="non-scaling-stroke" d="
  M 259.48 456.01
  Q 261.35 456.23 261.00 453.96
  Q 260.76 452.36 261.83 451.82
  A 1.02 0.99 0.8 0 0 262.21 451.46
  C 263.61 449.11 265.52 447.39 266.10 444.56
  Q 267.32 438.62 270.14 431.14
  C 271.39 427.82 271.92 423.70 273.54 420.09
  C 274.46 418.04 274.43 416.20 274.53 414.07
  A 0.61 0.55 35.5 0 0 274.46 413.76
  L 272.51 409.90
  Q 272.28 409.45 271.79 409.54
  L 271.06 409.68"
/>
<path stroke="#a19e98" vector-effect="non-scaling-stroke" d="
  M 300.82 338.94
  L 273.34 329.74"
/>
<path stroke="#2c2a2b" vector-effect="non-scaling-stroke" d="
  M 126.06 286.46
  Q 122.76 285.87 118.33 282.89"
/>
<path stroke="#2c2a2b" vector-effect="non-scaling-stroke" d="
  M 139.20 293.57
  Q 133.50 292.62 128.47 288.61"
/>
<path stroke="#2c2a2b" vector-effect="non-scaling-stroke" d="
  M 158.86 276.17
  Q 157.56 278.02 158.02 280.44
  Q 158.11 280.92 157.89 281.34
  Q 157.15 282.79 156.81 285.53
  Q 155.87 293.17 148.48 296.11
  A 1.15 1.12 41.0 0 1 147.76 296.15
  L 140.43 294.19"
/>
<path stroke="#bfc7c6" vector-effect="non-scaling-stroke" d="
  M 261.84 283.48
  Q 255.65 280.33 248.49 278.63"
/>
<path stroke="#e5e8e8" vector-effect="non-scaling-stroke" d="
  M 261.84 292.81
  Q 262.18 290.19 260.89 289.51
  C 257.57 287.77 256.48 284.22 253.57 282.64
  Q 250.78 281.13 247.36 280.74"
/>
<path stroke="#e5e8e8" vector-effect="non-scaling-stroke" d="
  M 238.80 281.66
  Q 236.47 282.78 234.00 283.34
  C 229.14 284.43 225.83 286.30 222.09 289.30"
/>
<path stroke="#bfc7c6" vector-effect="non-scaling-stroke" d="
  M 233.73 277.36
  L 220.36 284.85"
/>
<path stroke="#2c2a2b" vector-effect="non-scaling-stroke" d="
  M 347.33 279.92
  Q 343.63 282.77 336.61 285.84
  Q 330.01 288.72 328.29 296.68"
/>
<path stroke="#2c2a2b" vector-effect="non-scaling-stroke" d="
  M 129.46 470.88
  Q 128.60 472.31 126.95 472.56
  Q 126.56 472.62 126.45 473.00
  Q 125.73 475.45 123.70 476.93
  A 1.03 1.03 0.0 0 0 123.28 477.76
  Q 123.32 480.61 121.56 481.90"
/>
</g>
<path fill="#bdb6af" d="
  M 358.67 108.48
  Q 349.74 120.61 339.65 129.62
  Q 338.03 131.06 333.80 133.67
  Q 328.63 136.87 325.15 141.69
  Q 312.35 129.93 296.46 122.70
  Q 306.41 120.13 305.57 110.87
  C 312.18 107.38 319.58 103.88 325.36 99.01
  A 0.69 0.69 0.0 0 0 325.05 97.81
  C 296.74 92.11 270.16 93.00 241.74 98.23
  A 0.28 0.27 -70.8 0 1 241.51 97.75
  Q 255.10 86.02 266.10 71.87
  Q 266.88 70.87 265.61 70.78
  C 238.48 68.86 201.88 76.62 182.56 97.87
  C 177.57 103.36 175.12 109.33 175.27 116.52
  A 1.43 1.43 0.0 0 1 174.28 117.92
  Q 151.09 125.45 135.59 144.38
  Q 131.80 139.98 127.22 136.22
  C 123.28 132.99 120.83 129.31 117.69 125.51
  Q 117.34 125.09 116.83 125.29
  L 115.60 125.77
  C 111.10 115.06 106.37 97.75 111.62 87.30
  C 120.15 70.32 151.58 74.47 165.04 78.46
  A 1.46 1.39 -46.3 0 0 165.94 78.42
  Q 178.18 73.71 191.18 71.92
  A 2.23 2.23 0.0 0 0 192.96 70.50
  C 199.99 52.14 211.21 33.00 226.17 20.03
  Q 239.53 8.46 256.33 1.61
  A 2.05 2.04 -26.9 0 1 258.85 2.43
  Q 259.06 2.78 259.31 3.63
  Q 259.49 4.22 259.50 4.91
  C 259.92 23.46 252.83 41.94 243.98 58.70
  Q 243.78 59.09 244.15 59.31
  L 244.43 59.47
  Q 244.70 59.64 244.85 59.36
  C 246.74 55.76 248.97 52.99 252.86 51.18
  Q 282.03 37.57 314.46 38.70
  C 317.92 38.82 320.55 38.59 323.58 40.45
  A 1.71 1.70 -52.7 0 1 323.93 43.06
  C 311.21 56.81 294.02 66.95 278.84 79.25
  Q 275.25 82.16 279.33 79.84
  Q 282.44 78.07 285.37 75.97
  A 2.11 2.11 0.0 0 1 287.38 75.73
  L 298.47 80.17
  Q 298.96 80.37 299.47 80.21
  C 316.64 74.62 354.57 64.61 359.96 91.77
  Q 361.95 101.81 358.67 108.48
  Z"
/>
<path fill="#000000" d="
  M 305.57 110.87
  L 286.67 120.00
  A 0.36 0.36 0.0 0 0 286.75 120.68
  L 296.46 122.70
  Q 312.35 129.93 325.15 141.69
  L 327.62 144.97
  Q 335.19 154.37 324.49 160.40
  L 320.48 162.83
  L 312.00 166.12
  Q 311.36 166.36 312.01 166.57
  L 321.61 169.64
  L 323.78 170.58
  Q 324.35 170.82 323.99 171.31
  Q 323.09 172.58 322.12 172.67
  C 308.16 181.86 294.32 185.54 278.69 190.13
  Q 278.18 190.27 278.20 190.80
  C 278.46 197.81 277.39 211.44 271.31 216.16
  Q 266.93 219.58 261.65 216.76
  C 254.95 213.18 253.51 203.18 253.04 195.98
  Q 253.00 195.45 252.47 195.49
  C 239.73 196.46 227.25 195.60 214.51 195.25
  Q 213.98 195.23 213.92 195.76
  C 212.99 203.56 211.29 220.97 199.26 218.65
  C 189.40 216.75 187.58 199.41 187.67 191.86
  Q 187.67 191.30 187.13 191.21
  C 169.81 188.07 156.64 183.93 143.89 174.06
  Q 141.36 172.10 139.74 169.01
  A 0.82 0.82 0.0 0 1 140.46 167.81
  L 149.00 167.74
  Q 150.07 167.74 149.11 167.25
  C 142.15 163.78 135.73 161.28 133.27 153.88
  Q 132.64 148.98 135.59 144.38
  Q 151.09 125.45 174.28 117.92
  A 1.43 1.43 0.0 0 0 175.27 116.52
  C 175.12 109.33 177.57 103.36 182.56 97.87
  C 201.88 76.62 238.48 68.86 265.61 70.78
  Q 266.88 70.87 266.10 71.87
  Q 255.10 86.02 241.51 97.75
  A 0.28 0.27 -70.8 0 0 241.74 98.23
  C 270.16 93.00 296.74 92.11 325.05 97.81
  A 0.69 0.69 0.0 0 1 325.36 99.01
  C 319.58 103.88 312.18 107.38 305.57 110.87
  Z"
/>
<g stroke-width="2.00" fill="none" stroke-linecap="butt">
<path stroke="#e5e8e8" vector-effect="non-scaling-stroke" d="
  M 253.96 83.34
  Q 245.24 88.65 237.32 94.02
  C 235.93 94.96 234.16 95.15 232.65 96.13
  C 227.97 99.16 224.09 102.24 218.81 104.90
  C 215.44 106.59 203.13 112.61 203.98 117.82
  Q 204.07 118.38 204.58 118.63
  Q 207.26 119.96 210.25 119.69
  Q 219.70 118.81 228.67 119.30
  A 1.26 1.25 -75.6 0 1 229.73 121.10
  C 228.67 123.29 225.96 127.40 226.07 129.66
  C 226.21 132.42 228.69 132.45 230.53 133.22
  C 238.26 136.45 245.26 135.56 253.41 133.08
  C 256.67 132.10 260.44 131.92 263.91 130.71
  C 265.62 130.11 267.11 130.45 268.75 130.00
  C 277.52 127.58 286.06 127.18 294.29 123.97"
/>
<path stroke="#e5e8e8" vector-effect="non-scaling-stroke" d="
  M 323.86 142.60
  Q 323.58 143.35 322.53 143.52
  Q 321.99 143.61 321.99 144.15
  C 321.99 147.52 321.57 151.77 322.64 154.96
  Q 322.80 155.42 322.58 155.86
  Q 321.70 157.61 322.36 159.76"
/>
<path stroke="#e5e8e8" vector-effect="non-scaling-stroke" d="
  M 274.22 95.69
  Q 270.08 102.77 263.86 108.46
  A 0.90 0.90 0.0 0 0 264.59 110.01
  C 267.48 109.59 270.60 109.63 273.43 109.05
  Q 293.93 104.86 314.49 100.96
  Q 317.91 100.31 319.92 101.23"
/>
<path stroke="#a8aba9" vector-effect="non-scaling-stroke" d="
  M 261.45 129.24
  Q 260.36 129.44 259.60 130.12
  Q 258.70 130.92 259.83 130.51
  L 261.80 129.81"
/>
<path stroke="#2c2a2b" vector-effect="non-scaling-stroke" d="
  M 276.66 193.55
  L 270.03 195.62"
/>
<path stroke="#5d5c5b" vector-effect="non-scaling-stroke" d="
  M 201.68 216.72
  C 202.80 215.72 204.36 215.01 204.80 213.61
  Q 205.35 211.85 203.54 211.30
  Q 200.27 210.30 197.73 212.67
  A 0.93 0.91 -27.7 0 0 197.45 213.54
  L 198.07 216.45"
/>
<path stroke="#e5e8e8" vector-effect="non-scaling-stroke" d="
  M 268.31 197.21
  Q 268.04 194.37 265.31 197.21
  Q 264.97 197.56 264.55 197.33
  Q 263.38 196.68 262.24 197.24"
/>
<path stroke="#e5e8e8" vector-effect="non-scaling-stroke" d="
  M 204.42 197.90
  L 198.47 196.48"
/>
</g>
<path fill="#ffffff" d="
  M 253.96 83.34
  Q 245.24 88.65 237.32 94.02
  C 235.93 94.96 234.16 95.15 232.65 96.13
  C 227.97 99.16 224.09 102.24 218.81 104.90
  C 215.44 106.59 203.13 112.61 203.98 117.82
  Q 204.07 118.38 204.58 118.63
  Q 207.26 119.96 210.25 119.69
  Q 219.70 118.81 228.67 119.30
  A 1.26 1.25 -75.6 0 1 229.73 121.10
  C 228.67 123.29 225.96 127.40 226.07 129.66
  C 226.21 132.42 228.69 132.45 230.53 133.22
  C 238.26 136.45 245.26 135.56 253.41 133.08
  C 256.67 132.10 260.44 131.92 263.91 130.71
  C 265.62 130.11 267.11 130.45 268.75 130.00
  C 277.52 127.58 286.06 127.18 294.29 123.97
  C 304.64 127.22 316.25 135.73 323.86 142.60
  Q 323.58 143.35 322.53 143.52
  Q 321.99 143.61 321.99 144.15
  C 321.99 147.52 321.57 151.77 322.64 154.96
  Q 322.80 155.42 322.58 155.86
  Q 321.70 157.61 322.36 159.76
  Q 316.02 163.38 309.24 165.39
  Q 308.72 165.54 308.23 165.31
  L 300.49 161.72
  A 0.37 0.37 0.0 0 0 300.09 162.33
  C 305.50 166.95 314.28 169.37 321.10 171.16
  A 0.30 0.29 39.0 0 1 321.16 171.71
  C 313.46 175.44 305.94 179.93 298.05 182.48
  Q 281.89 187.70 263.55 191.51
  Q 257.60 192.75 252.50 192.47
  Q 251.76 192.42 252.37 192.00
  Q 266.51 182.20 281.41 173.78
  C 289.52 169.20 285.05 164.61 280.36 160.12
  C 275.21 155.18 270.88 159.12 266.63 163.05
  Q 252.50 176.11 244.11 193.49
  Q 243.86 193.99 243.31 193.99
  L 221.96 193.86
  Q 221.48 193.86 221.24 193.45
  Q 210.20 175.48 197.54 161.97
  C 195.18 159.46 191.63 158.43 188.43 160.41
  C 185.09 162.47 176.92 169.44 182.46 173.33
  Q 190.31 178.82 198.88 183.06
  C 204.26 185.73 209.14 189.23 214.48 192.16
  A 0.45 0.45 0.0 0 1 214.27 193.01
  C 204.80 193.18 193.75 190.75 184.49 188.78
  C 168.67 185.43 157.07 182.01 144.69 173.33
  Q 142.57 171.84 141.44 169.91
  Q 141.14 169.41 141.72 169.43
  Q 153.46 169.84 164.56 166.09
  Q 165.32 165.83 164.54 165.62
  C 161.71 164.88 156.10 166.71 153.03 167.20
  Q 152.54 167.28 152.09 167.05
  C 147.35 164.63 137.70 159.84 135.42 155.10
  C 128.84 141.40 165.11 122.63 174.46 119.32
  A 0.49 0.49 0.0 0 1 175.10 119.67
  L 175.72 122.14
  A 0.39 0.39 0.0 0 0 176.49 122.11
  C 177.24 117.66 177.12 112.59 178.34 108.76
  C 181.33 99.33 190.63 92.04 199.02 87.36
  C 219.89 75.74 240.15 72.81 263.76 71.65
  Q 264.60 71.61 264.03 72.24
  L 253.96 83.34
  Z"
/>
<path fill="#cbd1d0" d="
  M 253.96 83.34
  L 227.88 109.69
  Q 227.68 109.89 227.95 109.99
  Q 228.11 110.04 228.21 109.96
  C 232.87 106.10 237.82 100.37 243.96 99.31
  Q 259.03 96.73 274.22 95.69
  Q 270.08 102.77 263.86 108.46
  A 0.90 0.90 0.0 0 0 264.59 110.01
  C 267.48 109.59 270.60 109.63 273.43 109.05
  Q 293.93 104.86 314.49 100.96
  Q 317.91 100.31 319.92 101.23
  Q 293.28 116.03 265.22 127.50
  Q 263.31 128.28 261.45 129.24
  Q 260.36 129.44 259.60 130.12
  Q 258.70 130.92 259.83 130.51
  L 261.80 129.81
  Q 271.88 126.65 281.81 122.81
  Q 287.24 120.72 294.29 123.97
  C 286.06 127.18 277.52 127.58 268.75 130.00
  C 267.11 130.45 265.62 130.11 263.91 130.71
  C 260.44 131.92 256.67 132.10 253.41 133.08
  C 245.26 135.56 238.26 136.45 230.53 133.22
  C 228.69 132.45 226.21 132.42 226.07 129.66
  C 225.96 127.40 228.67 123.29 229.73 121.10
  A 1.26 1.25 -75.6 0 0 228.67 119.30
  Q 219.70 118.81 210.25 119.69
  Q 207.26 119.96 204.58 118.63
  Q 204.07 118.38 203.98 117.82
  C 203.13 112.61 215.44 106.59 218.81 104.90
  C 224.09 102.24 227.97 99.16 232.65 96.13
  C 234.16 95.15 235.93 94.96 237.32 94.02
  Q 245.24 88.65 253.96 83.34
  Z"
/>
<path fill="#ffffff" d="
  M 319.92 101.23
  Q 317.91 100.31 314.49 100.96
  Q 293.93 104.86 273.43 109.05
  C 270.60 109.63 267.48 109.59 264.59 110.01
  A 0.90 0.90 0.0 0 1 263.86 108.46
  Q 270.08 102.77 274.22 95.69
  C 290.71 94.57 306.73 96.23 322.75 98.47
  A 0.39 0.38 31.7 0 1 322.92 99.17
  L 319.92 101.23
  Z"
/>
<path fill="#9e9a94" d="
  M 358.67 108.48
  Q 354.35 122.13 345.97 132.56
  Q 342.72 134.03 340.33 136.58
  Q 334.86 142.40 327.62 144.97
  L 325.15 141.69
  Q 328.63 136.87 333.80 133.67
  Q 338.03 131.06 339.65 129.62
  Q 349.74 120.61 358.67 108.48
  Z"
/>
<path fill="#9e9a94" d="
  M 305.57 110.87
  Q 306.41 120.13 296.46 122.70
  L 286.75 120.68
  A 0.36 0.36 0.0 0 1 286.67 120.00
  L 305.57 110.87
  Z"
/>
<path fill="#9e9a94" d="
  M 135.59 144.38
  Q 132.64 148.98 133.27 153.88
  L 132.51 153.74
  Q 132.05 153.66 131.95 154.11
  L 131.86 154.57
  Q 131.10 148.98 129.06 146.94
  Q 119.99 137.80 115.60 125.77
  L 116.83 125.29
  Q 117.34 125.09 117.69 125.51
  C 120.83 129.31 123.28 132.99 127.22 136.22
  Q 131.80 139.98 135.59 144.38
  Z"
/>
<path fill="#848581" d="
  M 261.45 129.24
  L 261.80 129.81
  L 259.83 130.51
  Q 258.70 130.92 259.60 130.12
  Q 260.36 129.44 261.45 129.24
  Z"
/>
<path fill="#848581" d="
  M 345.97 132.56
  C 340.92 139.76 333.10 146.57 333.95 155.85
  C 334.39 160.62 338.39 161.38 341.53 163.87
  Q 356.94 176.17 370.78 190.22
  Q 372.73 192.21 374.11 194.35
  A 0.67 0.67 0.0 0 1 373.74 195.36
  Q 352.45 201.58 330.36 203.65
  Q 329.68 203.71 330.19 204.18
  Q 346.06 218.41 358.03 236.02
  A 0.46 0.45 67.1 0 1 357.75 236.72
  Q 329.73 242.86 301.16 240.10
  A 0.40 0.39 -64.9 0 1 300.92 239.43
  Q 309.86 230.47 315.44 218.93
  Q 315.64 218.52 315.39 217.93
  C 316.45 214.02 318.68 210.98 319.43 207.06
  C 320.19 203.12 320.89 199.22 323.00 195.74
  C 327.09 188.99 324.80 179.12 326.22 171.48
  Q 327.04 167.13 324.65 163.21
  Q 324.38 162.77 324.65 162.34
  Q 325.43 161.02 324.49 160.40
  Q 335.19 154.37 327.62 144.97
  Q 334.86 142.40 340.33 136.58
  Q 342.72 134.03 345.97 132.56
  Z"
/>
<path fill="#cbd1d0" d="
  M 323.86 142.60
  C 326.42 145.66 331.99 151.70 327.76 155.84
  Q 325.33 158.22 322.36 159.76
  Q 321.70 157.61 322.58 155.86
  Q 322.80 155.42 322.64 154.96
  C 321.57 151.77 321.99 147.52 321.99 144.15
  Q 321.99 143.61 322.53 143.52
  Q 323.58 143.35 323.86 142.60
  Z"
/>
<path fill="#bdb6af" d="
  M 133.27 153.88
  C 135.73 161.28 142.15 163.78 149.11 167.25
  Q 150.07 167.74 149.00 167.74
  L 140.46 167.81
  A 0.82 0.82 0.0 0 0 139.74 169.01
  Q 141.36 172.10 143.89 174.06
  C 156.64 183.93 169.81 188.07 187.13 191.21
  Q 187.67 191.30 187.67 191.86
  C 187.58 199.41 189.40 216.75 199.26 218.65
  C 211.29 220.97 212.99 203.56 213.92 195.76
  Q 213.98 195.23 214.51 195.25
  C 227.25 195.60 239.73 196.46 252.47 195.49
  Q 253.00 195.45 253.04 195.98
  C 253.51 203.18 254.95 213.18 261.65 216.76
  Q 266.93 219.58 271.31 216.16
  C 277.39 211.44 278.46 197.81 278.20 190.80
  Q 278.18 190.27 278.69 190.13
  C 294.32 185.54 308.16 181.86 322.12 172.67
  Q 323.71 182.80 323.00 185.75
  Q 319.37 200.71 312.81 214.62
  C 309.54 221.57 301.68 229.03 294.85 232.07
  Q 277.65 239.72 259.45 244.62
  Q 258.98 244.75 258.58 245.03
  L 257.95 245.48
  Q 257.78 245.50 257.71 245.16
  C 258.48 237.68 256.22 231.06 253.00 224.20
  C 247.96 213.48 235.61 203.04 223.67 211.92
  Q 208.61 223.12 207.60 242.36
  C 207.54 243.43 207.94 244.43 208.01 245.57
  Q 207.75 245.46 207.55 245.49
  A 0.79 0.00 -7.5 0 1 206.78 245.59
  Q 191.05 242.17 186.05 239.98
  Q 175.21 235.24 163.16 232.29
  Q 160.66 229.76 158.40 230.57
  C 150.89 221.28 146.49 212.45 142.25 201.09
  A 0.24 0.24 0.0 0 0 141.83 201.04
  Q 141.70 201.22 141.77 201.51
  C 144.78 214.10 151.44 224.95 159.71 234.79
  Q 160.01 235.15 159.56 235.30
  C 141.90 241.35 131.61 244.58 117.45 247.05
  Q 116.69 247.19 116.85 246.44
  Q 120.75 228.34 128.11 213.35
  C 130.74 211.82 135.86 204.09 129.48 203.75
  Q 120.16 203.24 112.40 208.09
  Q 101.91 207.32 92.39 202.44
  Q 91.91 202.19 92.06 201.67
  Q 92.48 200.21 93.49 198.74
  C 103.86 183.51 116.19 170.35 129.49 157.99
  Q 130.25 157.29 131.86 154.57
  L 131.95 154.11
  Q 132.05 153.66 132.51 153.74
  L 133.27 153.88
  Z"
/>
<path fill="#363334" d="
  M 281.90 164.08
  C 283.74 166.11 285.74 169.30 282.37 171.25
  C 279.19 173.10 275.71 174.66 272.78 176.61
  Q 262.05 183.73 251.34 190.88
  C 250.31 191.57 249.41 193.18 247.83 193.20
  A 1.18 1.18 0.0 0 1 246.78 191.45
  Q 255.66 175.21 268.58 163.16
  C 273.84 158.25 277.28 158.99 281.90 164.08
  Z"
/>
<path fill="#9e9a94" d="
  M 324.49 160.40
  Q 325.43 161.02 324.65 162.34
  Q 324.38 162.77 324.65 163.21
  Q 327.04 167.13 326.22 171.48
  C 324.80 179.12 327.09 188.99 323.00 195.74
  C 320.89 199.22 320.19 203.12 319.43 207.06
  C 318.68 210.98 316.45 214.02 315.39 217.93
  C 313.47 219.06 311.70 222.66 309.82 225.78
  Q 306.42 225.49 304.21 227.61
  C 302.09 229.66 299.39 231.92 296.70 233.07
  C 284.69 238.21 275.51 242.37 260.45 245.51
  Q 260.16 245.57 259.87 245.53
  Q 259.06 245.41 258.13 246.30
  Q 258.38 246.19 257.93 245.94
  Q 257.82 245.88 257.86 245.76
  L 257.95 245.48
  L 258.58 245.03
  Q 258.98 244.75 259.45 244.62
  Q 277.65 239.72 294.85 232.07
  C 301.68 229.03 309.54 221.57 312.81 214.62
  Q 319.37 200.71 323.00 185.75
  Q 323.71 182.80 322.12 172.67
  Q 323.09 172.58 323.99 171.31
  Q 324.35 170.82 323.78 170.58
  L 321.61 169.64
  Q 321.82 165.73 320.48 162.83
  L 324.49 160.40
  Z"
/>
<path fill="#363334" d="
  M 217.42 191.97
  C 210.62 188.20 204.32 183.77 197.38 180.17
  Q 191.72 177.23 184.31 172.68
  Q 180.95 170.62 183.26 167.52
  C 190.37 157.97 194.31 160.14 200.82 168.18
  Q 208.84 178.10 216.27 188.47
  Q 217.29 189.89 217.93 191.53
  Q 218.29 192.46 217.42 191.97
  Z"
/>
<path fill="#bdb6af" d="
  M 320.48 162.83
  Q 321.82 165.73 321.61 169.64
  L 312.01 166.57
  Q 311.36 166.36 312.00 166.12
  L 320.48 162.83
  Z"
/>
<path fill="#000000" d="
  M 140.7372 189.0356
  A 0.27 0.27 0.0 0 1 140.4730 189.3112
  L 139.7731 189.3258
  A 0.27 0.27 0.0 0 1 139.4975 189.0615
  L 139.2228 175.9444
  A 0.27 0.27 0.0 0 1 139.4870 175.6688
  L 140.1869 175.6542
  A 0.27 0.27 0.0 0 1 140.4625 175.9185
  L 140.7372 189.0356
  Z"
/>
<path fill="#222122" d="
  M 276.66 193.55
  L 270.03 195.62
  L 269.78 192.89
  Q 269.72 192.20 270.40 192.05
  L 276.18 190.79
  A 0.56 0.56 0.0 0 1 276.82 191.14
  Q 277.23 192.21 276.66 193.55
  Z"
/>
<path fill="#363334" d="
  M 201.68 216.72
  C 202.80 215.72 204.36 215.01 204.80 213.61
  Q 205.35 211.85 203.54 211.30
  Q 200.27 210.30 197.73 212.67
  A 0.93 0.91 -27.7 0 0 197.45 213.54
  L 198.07 216.45
  C 190.68 212.76 189.15 199.92 189.18 192.74
  A 0.68 0.67 -85.9 0 1 189.95 192.07
  L 195.86 192.94
  A 1.57 1.57 0.0 0 1 197.18 194.77
  C 196.70 197.48 197.23 209.08 202.76 207.02
  C 205.31 206.07 206.05 198.84 206.31 195.63
  Q 206.35 195.13 206.85 195.16
  L 211.05 195.48
  A 0.85 0.85 0.0 0 1 211.83 196.32
  C 211.86 201.54 209.69 217.63 201.68 216.72
  Z"
/>
<path fill="#cbd1d0" d="
  M 268.31 197.21
  Q 268.04 194.37 265.31 197.21
  Q 264.97 197.56 264.55 197.33
  Q 263.38 196.68 262.24 197.24
  L 262.01 194.32
  A 0.72 0.71 81.8 0 1 262.57 193.56
  L 267.54 192.49
  Q 268.12 192.37 268.25 192.94
  Q 268.78 195.16 268.31 197.21
  Z"
/>
<path fill="#cbd1d0" d="
  M 204.42 197.90
  L 198.47 196.48
  Q 197.97 195.26 198.41 193.86
  A 0.56 0.55 12.5 0 1 199.01 193.48
  L 204.01 194.17
  Q 204.48 194.24 204.47 194.71
  L 204.42 197.90
  Z"
/>
<path fill="#363334" d="
  M 276.66 193.55
  C 276.67 200.23 274.99 218.67 264.41 216.13
  C 256.84 214.32 255.28 201.94 255.08 196.08
  Q 255.06 195.48 255.66 195.39
  L 259.01 194.86
  A 1.10 1.10 0.0 0 1 260.28 195.89
  C 260.47 199.90 261.19 205.13 265.37 206.93
  Q 265.84 207.13 266.30 206.91
  C 270.04 205.07 269.83 199.91 270.03 195.62
  L 276.66 193.55
  Z"
/>
<path fill="#ffffff" d="
  M 268.31 197.21
  Q 268.41 201.87 267.27 203.76
  Q 265.63 206.47 263.76 203.46
  A 1.72 1.69 -67.6 0 1 263.57 202.99
  L 262.24 197.24
  Q 263.38 196.68 264.55 197.33
  Q 264.97 197.56 265.31 197.21
  Q 268.04 194.37 268.31 197.21
  Z"
/>
<path fill="#ffffff" d="
  M 198.47 196.48
  L 204.42 197.90
  Q 204.03 202.12 202.41 205.05
  A 1.00 0.99 45.2 0 1 200.67 205.04
  Q 198.53 201.15 198.47 196.48
  Z"
/>
<path fill="#9e9a94" d="
  M 128.11 213.35
  L 129.87 209.09
  Q 130.12 208.49 129.47 208.47
  L 112.40 208.09
  Q 120.16 203.24 129.48 203.75
  C 135.86 204.09 130.74 211.82 128.11 213.35
  Z"
/>
<path fill="#eeeba7" d="
  M 257.71 245.16
  Q 252.12 247.10 245.93 246.36
  C 244.84 240.29 240.00 221.09 229.95 226.64
  C 224.33 229.75 221.65 240.95 221.12 246.92
  L 208.01 245.57
  C 207.94 244.43 207.54 243.43 207.60 242.36
  Q 208.61 223.12 223.67 211.92
  C 235.61 203.04 247.96 213.48 253.00 224.20
  C 256.22 231.06 258.48 237.68 257.71 245.16
  Z"
/>
<path fill="#848581" d="
  M 269.87 212.77
  C 268.23 215.54 264.00 216.44 262.81 212.53
  Q 262.65 212.01 263.02 211.61
  Q 265.38 209.12 268.74 210.01
  A 1.88 1.87 -67.4 0 1 269.87 212.77
  Z"
/>
<path fill="#848581" d="
  M 201.68 216.72
  L 198.07 216.45
  L 197.45 213.54
  A 0.93 0.91 -27.7 0 1 197.73 212.67
  Q 200.27 210.30 203.54 211.30
  Q 205.35 211.85 204.80 213.61
  C 204.36 215.01 202.80 215.72 201.68 216.72
  Z"
/>
<path fill="#000000" d="
  M 241.5881 218.4055
  A 8.86 6.16 1.2 0 1 232.6010 224.3786
  A 8.86 6.16 1.2 0 1 223.8719 218.0345
  A 8.86 6.16 1.2 0 1 232.8590 212.0614
  A 8.86 6.16 1.2 0 1 241.5881 218.4055
  Z"
/>
<path fill="#363334" d="
  M 237.56 214.94
  C 243.57 218.33 236.82 223.10 233.02 222.72
  Q 230.08 222.42 227.14 220.54
  C 225.52 219.50 224.32 217.58 226.36 216.24
  C 230.33 213.62 232.82 212.25 237.56 214.94
  Z"
/>
<path fill="#b2bdbc" d="
  M 361.75 216.47
  Q 362.78 219.42 361.76 221.27
  C 358.94 226.39 360.18 228.48 363.14 232.65
  C 365.36 235.79 367.95 236.69 366.48 241.52
  Q 365.11 246.04 363.37 250.46
  Q 363.09 251.18 362.48 251.80
  Q 362.13 252.15 362.15 252.64
  Q 362.42 259.11 359.08 264.44
  C 358.19 265.86 356.76 266.26 355.78 267.78
  Q 353.20 271.81 350.17 275.63
  Q 349.80 276.11 349.20 276.11
  L 345.28 276.16
  Q 344.80 276.17 344.46 276.51
  Q 343.80 277.17 344.05 278.11
  L 339.27 279.14
  Q 338.79 279.24 338.32 279.10
  C 319.06 273.68 301.52 264.29 285.50 252.40
  Q 285.02 252.04 285.53 251.72
  Q 292.47 247.34 298.48 241.77
  A 1.01 0.97 -65.1 0 1 299.18 241.50
  Q 302.59 241.59 305.95 241.89
  Q 333.06 244.32 359.88 237.91
  A 0.83 0.83 0.0 0 0 360.39 236.65
  Q 352.89 224.84 343.34 214.63
  A 0.42 0.42 0.0 0 1 343.70 213.93
  L 361.75 216.47
  Z"
/>
<path fill="#cbd1d0" d="
  M 361.75 216.47
  L 368.02 217.18
  Q 366.93 217.20 366.28 218.19
  A 0.81 0.80 -45.8 0 0 366.29 219.08
  C 367.81 221.33 366.39 222.45 366.62 224.33
  C 366.99 227.30 369.45 230.82 370.73 233.24
  Q 372.39 236.38 372.57 239.10
  Q 372.89 244.31 370.66 250.02
  L 368.45 250.79
  Q 367.77 251.02 368.25 251.55
  L 369.63 253.08
  Q 367.01 254.35 366.40 255.94
  Q 363.18 264.29 356.80 270.04
  C 355.33 271.37 354.70 273.10 353.72 274.34
  Q 352.28 276.17 350.90 278.11
  Q 348.12 277.13 344.05 278.11
  Q 343.80 277.17 344.46 276.51
  Q 344.80 276.17 345.28 276.16
  L 349.20 276.11
  Q 349.80 276.11 350.17 275.63
  Q 353.20 271.81 355.78 267.78
  C 356.76 266.26 358.19 265.86 359.08 264.44
  Q 362.42 259.11 362.15 252.64
  Q 362.13 252.15 362.48 251.80
  Q 363.09 251.18 363.37 250.46
  Q 365.11 246.04 366.48 241.52
  C 367.95 236.69 365.36 235.79 363.14 232.65
  C 360.18 228.48 358.94 226.39 361.76 221.27
  Q 362.78 219.42 361.75 216.47
  Z"
/>
<path fill="#ffffff" d="
  M 368.02 217.18
  L 405.62 218.60
  A 1.54 1.49 61.2 0 1 406.40 218.84
  Q 409.34 220.67 407.14 222.33
  Q 406.21 223.03 405.96 223.28
  C 396.23 232.79 384.46 244.58 370.66 250.02
  Q 372.89 244.31 372.57 239.10
  Q 372.39 236.38 370.73 233.24
  C 369.45 230.82 366.99 227.30 366.62 224.33
  C 366.39 222.45 367.81 221.33 366.29 219.08
  A 0.81 0.80 -45.8 0 1 366.28 218.19
  Q 366.93 217.20 368.02 217.18
  Z"
/>
<path fill="#000000" d="
  M 245.93 246.36
  Q 246.22 248.20 246.72 250.19
  Q 246.80 250.52 246.72 250.75
  Q 246.61 251.04 246.41 251.19
  Q 245.99 251.52 245.83 251.01
  L 244.58 247.05
  Q 242.74 238.55 238.86 231.68
  C 235.10 225.01 229.05 227.42 226.41 233.17
  Q 223.55 239.37 222.57 247.55
  L 222.31 251.97
  Q 222.24 253.03 221.68 252.12
  Q 220.45 250.14 221.12 246.92
  C 221.65 240.95 224.33 229.75 229.95 226.64
  C 240.00 221.09 244.84 240.29 245.93 246.36
  Z"
/>
<path fill="#848581" d="
  M 309.82 225.78
  C 298.74 243.23 275.61 257.81 255.50 261.76
  C 249.17 263.00 242.71 264.33 236.35 264.25
  C 205.68 263.88 178.44 253.83 158.40 230.57
  Q 160.66 229.76 163.16 232.29
  C 173.78 238.61 182.73 242.17 193.69 244.18
  C 197.19 244.83 201.65 246.64 206.41 246.10
  Q 206.93 246.04 207.28 246.42
  L 207.88 247.06
  C 212.23 256.97 216.38 260.01 226.55 262.13
  C 238.24 264.56 256.03 260.33 258.13 246.30
  Q 259.06 245.41 259.87 245.53
  Q 260.16 245.57 260.45 245.51
  C 275.51 242.37 284.69 238.21 296.70 233.07
  C 299.39 231.92 302.09 229.66 304.21 227.61
  Q 306.42 225.49 309.82 225.78
  Z"
/>
<path fill="#eeeba7" d="
  M 244.58 247.05
  L 237.63 247.78
  Q 237.56 247.05 237.23 246.47
  Q 236.97 246.02 236.55 246.32
  Q 235.93 246.78 236.01 247.56
  L 230.28 247.08
  Q 230.33 246.47 230.08 246.19
  Q 229.81 245.88 229.37 246.12
  Q 228.70 246.47 228.64 247.87
  Q 225.76 247.03 222.57 247.55
  Q 223.55 239.37 226.41 233.17
  C 229.05 227.42 235.10 225.01 238.86 231.68
  Q 242.74 238.55 244.58 247.05
  Z"
/>
<path fill="#9e9a94" d="
  M 163.16 232.29
  Q 175.21 235.24 186.05 239.98
  Q 191.05 242.17 206.78 245.59
  A 0.79 0.00 -7.5 0 0 207.55 245.49
  Q 207.75 245.46 208.01 245.57
  L 207.88 247.06
  L 207.28 246.42
  Q 206.93 246.04 206.41 246.10
  C 201.65 246.64 197.19 244.83 193.69 244.18
  C 182.73 242.17 173.78 238.61 163.16 232.29
  Z"
/>
<path fill="#cbd1d0" d="
  M 176.02 249.06
  Q 176.73 252.89 178.81 256.34
  A 1.87 1.80 29.9 0 1 179.07 257.24
  Q 179.15 262.60 183.72 265.26
  Q 184.17 265.52 184.68 265.44
  Q 186.64 265.09 187.17 265.86
  L 185.65 268.46
  Q 185.38 268.93 184.91 268.64
  C 177.56 264.07 172.48 253.49 170.26 245.45
  Q 170.04 244.68 170.69 245.15
  L 176.02 249.06
  Z"
/>
<path fill="#a2a782" d="
  M 257.71 245.16
  Q 257.78 245.50 257.95 245.48
  L 257.86 245.76
  Q 257.82 245.88 257.93 245.94
  Q 258.38 246.19 258.13 246.30
  C 256.03 260.33 238.24 264.56 226.55 262.13
  C 216.38 260.01 212.23 256.97 207.88 247.06
  L 208.01 245.57
  L 221.12 246.92
  Q 220.45 250.14 221.68 252.12
  Q 222.24 253.03 222.31 251.97
  L 222.57 247.55
  Q 225.76 247.03 228.64 247.87
  Q 227.83 250.07 228.05 251.89
  A 0.58 0.58 0.0 0 0 229.19 251.95
  L 230.28 247.08
  L 236.01 247.56
  L 236.27 252.03
  A 0.76 0.75 -37.6 0 0 237.74 252.22
  Q 238.36 250.34 237.63 247.78
  L 244.58 247.05
  L 245.83 251.01
  Q 245.99 251.52 246.41 251.19
  Q 246.61 251.04 246.72 250.75
  Q 246.80 250.52 246.72 250.19
  Q 246.22 248.20 245.93 246.36
  Q 252.12 247.10 257.71 245.16
  Z"
/>
<path fill="#000000" d="
  M 230.28 247.08
  L 229.19 251.95
  A 0.58 0.58 0.0 0 1 228.05 251.89
  Q 227.83 250.07 228.64 247.87
  Q 228.70 246.47 229.37 246.12
  Q 229.81 245.88 230.08 246.19
  Q 230.33 246.47 230.28 247.08
  Z"
/>
<path fill="#222122" d="
  M 237.63 247.78
  Q 238.36 250.34 237.74 252.22
  A 0.76 0.75 -37.6 0 1 236.27 252.03
  L 236.01 247.56
  Q 235.93 246.78 236.55 246.32
  Q 236.97 246.02 237.23 246.47
  Q 237.56 247.05 237.63 247.78
  Z"
/>
<path fill="#b2bdbc" d="
  M 176.02 249.06
  Q 185.00 254.62 194.81 258.68
  A 0.36 0.36 0.0 0 1 194.83 259.34
  Q 190.04 261.70 187.17 265.86
  Q 186.64 265.09 184.68 265.44
  Q 184.17 265.52 183.72 265.26
  Q 179.15 262.60 179.07 257.24
  A 1.87 1.80 29.9 0 0 178.81 256.34
  Q 176.73 252.89 176.02 249.06
  Z"
/>
<path fill="#ffffff" d="
  M 369.63 253.08
  C 375.57 260.40 379.87 271.78 383.92 280.69
  A 1.09 1.09 0.0 0 1 383.08 282.22
  C 375.38 283.32 365.28 284.52 357.55 282.76
  Q 357.06 282.65 356.92 282.17
  Q 355.93 278.85 350.90 278.11
  Q 352.28 276.17 353.72 274.34
  C 354.70 273.10 355.33 271.37 356.80 270.04
  Q 363.18 264.29 366.40 255.94
  Q 367.01 254.35 369.63 253.08
  Z"
/>
<path fill="#848581" d="
  M 291.44 300.84
  C 293.38 308.76 302.97 301.10 306.62 299.47
  Q 309.56 298.16 312.40 296.60
  C 313.20 296.16 314.23 296.23 314.95 295.43
  Q 315.44 294.88 315.13 294.51
  Q 314.84 294.16 313.94 294.17
  Q 319.80 292.40 325.65 292.24
  A 0.63 0.62 4.2 0 1 326.28 292.96
  Q 325.70 296.57 327.61 299.68
  Q 327.87 300.10 327.90 300.60
  Q 328.27 307.74 333.11 312.38
  C 336.10 315.25 340.11 315.46 342.96 312.42
  A 0.52 0.51 66.4 0 1 343.85 312.77
  Q 343.96 328.83 329.66 335.65
  Q 328.32 330.93 321.56 332.67
  C 316.91 333.87 311.79 333.43 307.75 334.51
  Q 305.53 335.11 305.66 338.49
  L 303.21 338.24
  A 1.39 1.33 66.8 0 1 302.46 337.92
  Q 290.34 327.82 275.48 322.59
  Q 275.04 322.44 275.12 321.98
  C 278.81 301.22 269.68 281.26 259.73 264.09
  Q 259.46 263.64 259.95 263.45
  L 269.13 259.91
  Q 269.49 259.77 269.85 259.89
  C 284.61 264.71 282.50 289.31 284.37 301.15
  A 1.36 1.36 0.0 0 0 286.06 302.25
  L 291.44 300.84
  Z"
/>
<path fill="#848581" d="
  M 218.81 285.94
  C 214.48 286.42 215.43 292.50 209.15 294.13
  A 0.80 0.79 85.7 0 0 208.57 294.81
  L 208.33 296.84
  Q 208.61 293.54 207.39 291.50
  Q 206.90 290.68 206.57 291.58
  Q 206.26 292.44 206.98 293.80
  Q 203.47 292.76 199.48 290.26
  Q 195.49 287.75 192.64 284.92
  C 190.23 282.53 188.51 282.31 185.34 282.83
  A 0.79 0.78 -21.9 0 1 184.57 282.51
  Q 183.55 281.06 182.03 281.24
  C 184.96 272.72 188.22 263.44 197.15 260.19
  Q 197.62 260.02 198.08 260.18
  Q 204.10 262.25 210.26 263.66
  C 212.32 264.13 213.01 265.15 213.47 267.23
  Q 215.57 276.75 218.81 285.94
  Z"
/>
<path fill="#363334" d="
  M 126.06 286.46
  Q 122.76 285.87 118.33 282.89
  Q 114.47 276.80 115.13 269.56
  C 115.84 261.83 124.93 259.47 131.62 261.89
  Q 132.16 262.09 131.77 262.51
  C 125.27 269.60 124.83 276.69 126.06 286.46
  Z"
/>
<path fill="#363334" d="
  M 139.20 293.57
  Q 133.50 292.62 128.47 288.61
  Q 125.65 279.01 128.76 269.48
  C 131.98 259.60 143.23 262.51 148.47 268.54
  A 0.77 0.76 66.6 0 1 147.97 269.81
  C 147.11 269.89 146.30 270.45 145.75 271.19
  C 140.90 277.60 137.73 285.39 139.20 293.57
  Z"
/>
<path fill="#848581" d="
  M 220.98 265.55
  C 226.04 265.77 231.34 266.39 236.02 266.14
  Q 246.02 265.60 255.78 264.18
  A 0.47 0.47 0.0 0 1 256.21 264.95
  Q 248.65 273.68 244.07 284.30
  Q 243.78 284.98 243.36 284.37
  C 238.20 276.92 228.59 270.53 220.85 265.99
  Q 220.02 265.50 220.98 265.55
  Z"
/>
<path fill="#b2bdbc" d="
  M 261.84 283.48
  Q 255.65 280.33 248.49 278.63
  Q 252.27 271.55 257.33 265.50
  A 0.74 0.74 0.0 0 1 258.61 265.76
  Q 261.14 274.34 261.84 283.48
  Z"
/>
<path fill="#b2bdbc" d="
  M 233.73 277.36
  L 220.36 284.85
  Q 216.75 275.71 215.37 266.04
  Q 215.24 265.11 216.08 265.53
  Q 225.69 270.31 233.73 277.36
  Z"
/>
<path fill="#9e9a94" d="
  M 274.57 310.38
  Q 270.89 302.12 264.96 293.29
  Q 264.36 292.39 263.60 293.06
  Q 264.28 282.87 261.30 270.12
  A 0.09 0.09 0.0 0 1 261.47 270.06
  C 267.72 282.62 273.94 295.93 274.57 310.38
  Z"
/>
<path fill="#363334" d="
  M 158.86 276.17
  Q 157.56 278.02 158.02 280.44
  Q 158.11 280.92 157.89 281.34
  Q 157.15 282.79 156.81 285.53
  Q 155.87 293.17 148.48 296.11
  A 1.15 1.12 41.0 0 1 147.76 296.15
  L 140.43 294.19
  Q 138.95 281.92 146.92 272.27
  A 2.34 2.32 -65.8 0 1 149.05 271.45
  Q 154.60 272.25 158.86 276.17
  Z"
/>
<path fill="#222122" d="
  M 158.86 276.17
  C 161.57 278.67 164.00 282.74 160.66 285.77
  Q 160.17 286.21 160.09 285.56
  L 159.79 283.28
  A 0.60 0.59 -44.4 0 0 158.61 283.27
  L 157.43 291.06
  Q 157.36 291.47 157.75 291.61
  L 158.12 291.75
  A 0.60 0.60 0.0 0 0 158.91 291.34
  Q 159.36 289.70 160.71 288.75
  Q 161.33 288.33 161.56 289.03
  C 163.16 293.81 159.93 297.62 156.38 300.22
  C 150.30 304.69 145.20 300.92 140.96 296.44
  A 0.53 0.52 45.4 0 0 140.20 296.43
  L 139.95 296.68
  Q 139.77 296.86 139.90 297.07
  L 140.55 298.11
  Q 140.79 298.48 140.37 298.62
  C 135.26 300.32 128.55 293.58 128.47 288.61
  Q 133.50 292.62 139.20 293.57
  Q 139.15 294.46 139.68 294.94
  Q 140.14 295.34 140.39 294.79
  Q 140.53 294.52 140.43 294.19
  L 147.76 296.15
  A 1.15 1.12 41.0 0 0 148.48 296.11
  Q 155.87 293.17 156.81 285.53
  Q 157.15 282.79 157.89 281.34
  Q 158.11 280.92 158.02 280.44
  Q 157.56 278.02 158.86 276.17
  Z"
/>
<path fill="#cbd1d0" d="
  M 233.73 277.36
  L 238.80 281.66
  Q 236.47 282.78 234.00 283.34
  C 229.14 284.43 225.83 286.30 222.09 289.30
  L 220.36 284.85
  L 233.73 277.36
  Z"
/>
<path fill="#cbd1d0" d="
  M 248.49 278.63
  Q 255.65 280.33 261.84 283.48
  Q 262.55 288.17 261.84 292.81
  Q 262.18 290.19 260.89 289.51
  C 257.57 287.77 256.48 284.22 253.57 282.64
  Q 250.78 281.13 247.36 280.74
  L 248.49 278.63
  Z"
/>
<path fill="#363334" d="
  M 347.33 279.92
  Q 343.63 282.77 336.61 285.84
  Q 330.01 288.72 328.29 296.68
  Q 327.30 294.57 328.21 291.94
  Q 332.64 279.06 347.33 279.92
  Z"
/>
<path fill="#222122" d="
  M 347.33 279.92
  Q 348.43 280.31 349.62 281.63
  Q 350.51 282.61 350.97 284.08
  Q 356.38 301.50 341.36 311.82
  C 334.71 316.39 329.85 307.36 329.10 302.10
  A 1.24 1.24 0.0 0 1 329.95 300.74
  Q 334.18 299.38 337.41 296.38
  Q 337.86 295.96 337.28 295.76
  Q 336.94 295.65 336.60 295.88
  Q 334.19 297.59 331.51 298.83
  Q 330.25 299.42 329.38 299.06
  Q 328.03 298.52 328.29 296.68
  Q 330.01 288.72 336.61 285.84
  Q 343.63 282.77 347.33 279.92
  Z"
/>
<path fill="#222122" d="
  M 351.64 280.04
  C 357.89 279.50 355.98 292.29 354.39 295.60
  Q 353.92 296.58 353.96 295.50
  Q 354.23 287.74 351.29 280.61
  Q 351.07 280.09 351.64 280.04
  Z"
/>
<path fill="#ffffff" d="
  M 247.36 280.74
  Q 250.78 281.13 253.57 282.64
  C 256.48 284.22 257.57 287.77 260.89 289.51
  Q 262.18 290.19 261.84 292.81
  Q 259.70 301.62 250.89 304.42
  Q 250.37 304.58 250.03 304.16
  Q 246.67 300.07 245.11 294.99
  Q 244.89 294.29 244.67 294.99
  C 243.51 298.70 243.52 301.81 241.20 305.19
  A 0.73 0.73 0.0 0 1 240.38 305.48
  Q 227.50 301.50 222.09 289.30
  C 225.83 286.30 229.14 284.43 234.00 283.34
  Q 236.47 282.78 238.80 281.66
  L 243.63 287.17
  Q 244.01 287.61 244.27 287.08
  L 247.36 280.74
  Z"
/>
<path fill="#9e9a94" d="
  M 182.03 281.24
  Q 183.55 281.06 184.57 282.51
  A 0.79 0.78 -21.9 0 0 185.34 282.83
  C 188.51 282.31 190.23 282.53 192.64 284.92
  Q 195.49 287.75 199.48 290.26
  Q 203.47 292.76 206.98 293.80
  L 206.54 305.24
  Q 202.99 302.92 200.75 298.97
  C 197.65 293.49 190.89 291.32 186.50 287.25
  Q 186.07 286.85 185.52 287.03
  L 182.88 287.87
  Q 182.45 288.01 182.12 287.69
  Q 181.16 286.76 180.08 287.69
  L 182.03 281.24
  Z"
/>
<path fill="#bdb6af" d="
  M 180.08 287.69
  Q 181.16 286.76 182.12 287.69
  Q 182.45 288.01 182.88 287.87
  L 185.52 287.03
  Q 186.07 286.85 186.50 287.25
  C 190.89 291.32 197.65 293.49 200.75 298.97
  Q 202.99 302.92 206.54 305.24
  C 205.27 317.69 203.40 325.91 188.80 327.29
  Q 172.80 328.80 161.76 326.21
  C 141.77 321.54 113.75 314.43 117.55 287.25
  A 0.31 0.31 0.0 0 1 118.12 287.12
  Q 122.54 293.77 130.24 295.72
  A 1.51 1.50 -12.6 0 1 131.02 296.21
  Q 135.26 301.33 141.98 300.33
  Q 142.77 300.22 143.25 300.69
  C 152.09 309.37 167.92 297.46 162.72 287.07
  Q 162.50 286.61 162.81 286.22
  Q 164.12 284.58 163.73 282.40
  Q 163.55 281.43 164.43 281.87
  Q 173.36 286.39 181.19 292.59
  A 0.54 0.53 -2.8 0 0 181.91 291.80
  Q 179.60 289.43 180.08 287.69
  Z"
/>
<path fill="#222122" d="
  M 118.33 282.89
  Q 122.76 285.87 126.06 286.46
  L 127.66 292.50
  A 0.33 0.33 0.0 0 1 127.21 292.89
  Q 120.73 290.18 118.33 282.89
  Z"
/>
<path fill="#9e9a94" d="
  M 218.81 285.94
  L 220.12 288.98
  Q 214.85 294.33 211.90 298.15
  Q 210.53 299.94 208.40 299.76
  Q 208.70 298.10 208.33 296.84
  L 208.57 294.81
  A 0.80 0.79 85.7 0 1 209.15 294.13
  C 215.43 292.50 214.48 286.42 218.81 285.94
  Z"
/>
<path fill="#bdb6af" d="
  M 220.12 288.98
  C 223.34 296.94 232.33 307.05 241.76 307.26
  A 0.95 0.92 16.8 0 0 242.56 306.85
  Q 244.41 304.12 244.71 300.82
  A 0.44 0.44 0.0 0 1 245.51 300.60
  L 249.35 305.99
  Q 249.72 306.50 250.32 306.34
  Q 261.09 303.52 263.60 293.06
  Q 264.36 292.39 264.96 293.29
  Q 270.89 302.12 274.57 310.38
  Q 274.75 323.41 269.14 336.92
  Q 266.41 343.49 261.10 349.53
  Q 258.69 350.10 256.02 350.80
  C 252.41 351.75 249.68 354.13 246.33 355.37
  Q 239.65 357.84 229.39 360.52
  C 228.24 360.82 227.86 361.49 227.70 362.58
  L 224.26 362.12
  Q 223.72 362.05 223.54 362.56
  L 218.45 376.76
  L 216.30 376.79
  Q 215.81 376.79 215.68 377.26
  Q 212.13 390.31 208.13 403.21
  C 203.02 419.71 203.53 434.91 205.91 451.04
  Q 205.96 451.33 206.17 451.54
  L 206.44 451.81
  Q 206.76 452.13 206.76 452.58
  L 206.79 459.76
  C 206.79 466.43 208.42 486.18 204.67 490.97
  Q 204.39 491.34 203.95 491.48
  L 199.81 492.85
  Q 199.26 493.03 198.93 492.55
  C 191.59 481.90 180.27 472.45 170.45 464.06
  Q 168.36 462.27 166.49 461.07
  A 1.39 1.37 39.3 0 0 164.79 461.23
  Q 155.99 469.72 149.60 480.12
  Q 149.22 480.75 148.58 480.37
  L 130.71 469.83
  A 1.02 1.01 -68.1 0 1 130.24 468.71
  C 134.70 450.62 140.54 432.51 145.77 415.09
  Q 152.85 391.47 156.77 382.29
  Q 166.66 359.18 184.14 339.12
  C 188.38 334.26 191.43 331.34 197.04 328.31
  C 201.70 325.80 204.39 322.64 205.71 317.23
  Q 207.83 308.60 208.40 299.76
  Q 210.53 299.94 211.90 298.15
  Q 214.85 294.33 220.12 288.98
  Z"
/>
<path fill="#9e9a94" d="
  M 313.94 294.17
  Q 314.84 294.16 315.13 294.51
  Q 315.44 294.88 314.95 295.43
  C 314.23 296.23 313.20 296.16 312.40 296.60
  Q 309.56 298.16 306.62 299.47
  C 302.97 301.10 293.38 308.76 291.44 300.84
  Q 302.52 296.23 313.94 294.17
  Z"
/>
<path fill="#000000" d="
  M 278.0499 311.6334
  A 0.55 0.55 0.0 0 1 277.2942 311.8176
  L 277.2600 311.7968
  A 0.55 0.55 0.0 0 1 277.0758 311.0411
  L 281.4501 303.8466
  A 0.55 0.55 0.0 0 1 282.2058 303.6624
  L 282.2400 303.6832
  A 0.55 0.55 0.0 0 1 282.4242 304.4389
  L 278.0499 311.6334
  Z"
/>
<path fill="#848581" d="
  M 300.82 338.94
  L 273.34 329.74
  L 274.65 324.63
  A 0.56 0.55 17.1 0 1 275.38 324.25
  Q 289.37 329.37 300.82 338.94
  Z"
/>
<path fill="#222122" d="
  M 206.75 328.69
  C 210.48 332.79 215.92 342.75 214.67 348.48
  A 0.15 0.15 0.0 0 1 214.37 348.48
  Q 212.35 337.71 205.70 329.10
  Q 205.34 328.64 206.10 328.48
  A 0.69 0.68 -26.4 0 1 206.75 328.69
  Z"
/>
<path fill="#bdb6af" d="
  M 273.34 329.74
  L 300.82 338.94
  Q 316.03 349.75 327.42 364.72
  C 324.89 367.27 327.22 368.93 327.23 371.49
  C 327.24 376.45 325.13 379.56 320.52 381.66
  C 313.81 384.71 306.61 384.08 299.09 381.53
  Q 298.61 381.38 298.15 381.56
  Q 296.87 382.08 295.81 381.27
  Q 295.38 380.94 294.84 381.00
  C 286.72 381.90 281.87 374.23 278.17 368.10
  C 273.81 360.89 269.36 353.79 265.37 346.28
  Q 271.29 339.14 273.34 329.74
  Z"
/>
<path fill="#9e9a94" d="
  M 329.66 335.65
  Q 318.36 339.27 305.66 338.49
  Q 305.53 335.11 307.75 334.51
  C 311.79 333.43 316.91 333.87 321.56 332.67
  Q 328.32 330.93 329.66 335.65
  Z"
/>
<path fill="#9e9a94" d="
  M 265.37 346.28
  C 269.36 353.79 273.81 360.89 278.17 368.10
  C 281.87 374.23 286.72 381.90 294.84 381.00
  Q 295.38 380.94 295.81 381.27
  Q 296.87 382.08 298.15 381.56
  Q 298.61 381.38 299.09 381.53
  C 306.61 384.08 313.81 384.71 320.52 381.66
  C 325.13 379.56 327.24 376.45 327.23 371.49
  C 327.22 368.93 324.89 367.27 327.42 364.72
  L 331.87 371.98
  Q 331.59 372.58 330.88 373.00
  Q 330.42 373.27 330.63 373.76
  Q 332.13 377.32 329.50 380.25
  A 1.19 1.18 -26.2 0 0 329.20 381.11
  C 329.29 382.85 329.98 385.57 329.31 387.09
  C 327.86 390.35 318.27 392.97 314.46 392.49
  Q 313.94 392.42 313.55 392.77
  C 309.72 396.15 304.06 393.15 300.04 392.78
  Q 299.53 392.74 299.22 392.34
  C 297.78 390.47 296.32 388.74 294.37 387.23
  Q 284.15 379.33 275.78 369.55
  C 270.27 363.11 266.53 358.67 263.22 352.04
  A 1.46 1.24 41.3 0 0 260.67 352.00
  Q 260.47 352.92 258.72 353.10
  C 256.41 353.35 252.96 353.23 251.89 355.69
  Q 251.68 356.17 251.19 356.35
  Q 245.20 358.52 239.90 362.57
  L 227.70 362.58
  C 227.86 361.49 228.24 360.82 229.39 360.52
  Q 239.65 357.84 246.33 355.37
  C 249.68 354.13 252.41 351.75 256.02 350.80
  Q 258.69 350.10 261.10 349.53
  L 265.37 346.28
  Z"
/>
<path fill="#848581" d="
  M 331.87 371.98
  C 336.69 378.82 337.43 387.28 337.71 395.57
  Q 338.42 416.79 335.78 437.84
  Q 335.71 438.36 335.29 438.67
  Q 317.24 452.08 300.91 467.54
  Q 300.56 467.87 300.08 467.86
  Q 279.76 467.36 264.04 461.76
  Q 260.50 460.50 259.48 456.01
  Q 261.35 456.23 261.00 453.96
  Q 260.76 452.36 261.83 451.82
  A 1.02 0.99 0.8 0 0 262.21 451.46
  C 263.61 449.11 265.52 447.39 266.10 444.56
  Q 267.32 438.62 270.14 431.14
  C 271.39 427.82 271.92 423.70 273.54 420.09
  C 274.46 418.04 274.43 416.20 274.53 414.07
  A 0.61 0.55 35.5 0 0 274.46 413.76
  L 272.51 409.90
  Q 272.28 409.45 271.79 409.54
  L 271.06 409.68
  Q 274.00 399.46 275.52 393.01
  Q 275.71 392.17 275.38 391.19
  Q 269.47 373.40 254.80 361.93
  Q 254.39 361.61 253.88 361.64
  L 239.90 362.57
  Q 245.20 358.52 251.19 356.35
  Q 251.68 356.17 251.89 355.69
  C 252.96 353.23 256.41 353.35 258.72 353.10
  Q 260.47 352.92 260.67 352.00
  A 1.46 1.24 41.3 0 1 263.22 352.04
  C 266.53 358.67 270.27 363.11 275.78 369.55
  Q 284.15 379.33 294.37 387.23
  C 296.32 388.74 297.78 390.47 299.22 392.34
  Q 299.53 392.74 300.04 392.78
  C 304.06 393.15 309.72 396.15 313.55 392.77
  Q 313.94 392.42 314.46 392.49
  C 318.27 392.97 327.86 390.35 329.31 387.09
  C 329.98 385.57 329.29 382.85 329.20 381.11
  A 1.19 1.18 -26.2 0 1 329.50 380.25
  Q 332.13 377.32 330.63 373.76
  Q 330.42 373.27 330.88 373.00
  Q 331.59 372.58 331.87 371.98
  Z"
/>
<path fill="#9e9a94" d="
  M 218.45 376.76
  Q 216.11 385.16 215.25 390.00
  Q 209.13 424.64 206.79 459.76
  L 206.76 452.58
  Q 206.76 452.13 206.44 451.81
  L 206.17 451.54
  Q 205.96 451.33 205.91 451.04
  C 203.53 434.91 203.02 419.71 208.13 403.21
  Q 212.13 390.31 215.68 377.26
  Q 215.81 376.79 216.30 376.79
  L 218.45 376.76
  Z"
/>
<path fill="#cbd1d0" d="
  M 161.8300 396.8008
  A 6.05 1.10 119.4 0 1 163.8417 390.9900
  A 6.05 1.10 119.4 0 1 167.7700 386.2592
  A 6.05 1.10 119.4 0 1 165.7583 392.0700
  A 6.05 1.10 119.4 0 1 161.8300 396.8008
  Z"
/>
<path fill="#cbd1d0" d="
  M 174.18 397.09
  A 0.11 0.11 0.0 0 1 174.04 397.16
  L 173.95 397.14
  A 2.96 1.50 -72.4 0 1 173.42 393.86
  L 173.94 392.20
  A 2.96 1.50 -72.4 0 1 176.27 389.84
  L 176.35 389.86
  A 0.11 0.11 0.0 0 1 176.43 390.00
  L 174.18 397.09
  Z"
/>
<path fill="#9e9a94" d="
  M 259.48 456.01
  Q 258.90 451.42 260.50 446.50
  Q 266.10 429.30 271.06 409.68
  L 271.79 409.54
  Q 272.28 409.45 272.51 409.90
  L 274.46 413.76
  A 0.61 0.55 35.5 0 1 274.53 414.07
  C 274.43 416.20 274.46 418.04 273.54 420.09
  C 271.92 423.70 271.39 427.82 270.14 431.14
  Q 267.32 438.62 266.10 444.56
  C 265.52 447.39 263.61 449.11 262.21 451.46
  A 1.02 0.99 0.8 0 1 261.83 451.82
  Q 260.76 452.36 261.00 453.96
  Q 261.35 456.23 259.48 456.01
  Z"
/>
<path fill="#222122" d="
  M 336.69 457.26
  L 337.83 455.62
  Q 338.07 455.28 338.39 455.01
  L 359.53 437.75
  A 0.41 0.41 0.0 0 1 360.15 438.26
  C 359.23 440.04 357.46 441.16 356.45 442.72
  C 352.77 448.40 343.21 462.38 336.80 464.38
  Q 320.40 469.52 303.21 468.05
  A 0.28 0.27 26.0 0 1 303.04 467.57
  Q 318.56 453.58 335.24 440.76
  Q 337.29 439.18 337.92 438.85
  Q 340.72 437.34 340.02 440.31
  L 336.08 456.98
  A 0.34 0.34 0.0 0 0 336.69 457.26
  Z"
/>
<path fill="#363334" d="
  M 129.46 470.88
  Q 128.60 472.31 126.95 472.56
  Q 126.56 472.62 126.45 473.00
  Q 125.73 475.45 123.70 476.93
  A 1.03 1.03 0.0 0 0 123.28 477.76
  Q 123.32 480.61 121.56 481.90
  L 110.71 461.66
  A 0.43 0.43 0.0 0 1 111.03 461.03
  Q 111.20 461.01 111.50 460.98
  Q 111.73 460.97 111.95 461.08
  Q 120.93 465.52 129.46 470.88
  Z"
/>
<path fill="#222122" d="
  M 121.56 481.90
  Q 123.32 480.61 123.28 477.76
  A 1.03 1.03 0.0 0 1 123.70 476.93
  Q 125.73 475.45 126.45 473.00
  Q 126.56 472.62 126.95 472.56
  Q 128.60 472.31 129.46 470.88
  Q 132.51 472.92 135.49 475.11
  C 139.54 478.08 144.10 479.70 148.40 482.28
  A 1.67 1.67 0.0 0 0 150.70 481.72
  Q 156.29 472.51 163.70 464.68
  C 165.74 462.53 167.73 463.59 169.64 465.36
  C 179.26 474.26 188.71 482.73 197.16 492.59
  A 0.67 0.67 0.0 0 1 196.81 493.68
  C 175.00 499.15 152.61 499.63 130.75 493.26
  C 125.86 491.84 123.75 485.89 121.56 481.90
  Z"
/>
</svg>
