<?xml version="1.0" encoding="UTF-8" standalone="no"?>
<svg xmlns="http://www.w3.org/2000/svg" version="1.2" baseProfile="tiny" viewBox="0.00 0.00 500.00 500.00">
<path fill="#020101" fill-opacity="0.996" d="
  M 197.77 463.01
  L 197.75 461.04
  L 198.84 461.01
  L 198.45 478.76
  Q 198.44 479.47 198.98 479.02
  Q 200.69 477.60 202.33 476.08
  C 209.51 469.38 221.33 464.94 230.31 470.71
  A 0.38 0.38 0.0 0 0 230.88 470.26
  Q 226.20 456.92 223.38 443.03
  Q 220.61 428.05 223.38 412.57
  Q 223.58 412.43 223.76 411.34
  C 231.15 405.52 234.62 394.29 229.49 385.49
  Q 229.07 383.35 227.40 382.30
  Q 226.76 374.05 229.52 364.71
  L 230.77 364.24
  Q 230.61 364.77 231.19 364.81
  Q 242.30 365.58 252.85 363.17
  A 0.56 0.56 0.0 0 0 253.18 362.30
  L 249.06 356.62
  L 250.18 356.21
  C 255.55 364.83 263.45 372.70 272.83 375.46
  C 282.98 378.45 290.28 371.88 290.72 361.44
  L 290.87 355.59
  Q 290.89 354.92 290.30 355.24
  L 286.25 357.46
  L 285.97 356.37
  L 286.34 355.70
  Q 286.48 355.44 286.34 355.19
  Q 286.21 354.96 286.24 354.76
  C 287.54 346.55 292.32 339.39 297.37 332.60
  Q 303.84 323.90 308.26 313.72
  Q 316.76 299.23 319.09 282.48
  C 322.31 259.41 321.52 237.96 310.72 216.76
  C 305.21 205.94 298.60 196.05 289.63 188.14
  A 1.81 1.76 12.4 0 1 289.12 187.37
  Q 288.90 186.69 288.38 186.32
  Q 287.87 185.94 287.71 186.56
  Q 286.24 192.58 290.03 196.95
  A 0.33 0.32 -87.2 0 1 289.55 197.39
  L 286.55 194.17
  A 0.59 0.58 19.4 0 0 285.54 194.65
  C 285.96 197.50 286.07 200.22 286.84 203.04
  C 288.30 208.34 290.00 215.77 288.23 220.80
  Q 287.52 220.83 286.93 220.45
  Q 288.31 217.07 287.44 212.65
  Q 286.39 204.24 284.61 195.02
  Q 284.28 193.35 285.99 192.50
  Q 286.40 192.29 286.42 191.84
  L 286.72 185.84
  A 0.96 0.96 0.0 0 1 288.19 185.08
  L 289.05 185.62
  Q 289.66 186.00 289.68 185.29
  L 289.93 176.87
  A 0.29 0.28 45.9 0 1 290.50 176.88
  L 290.50 177.99
  A 1.21 1.21 0.0 0 0 290.76 178.74
  Q 304.98 196.65 328.02 190.23
  Q 333.49 188.44 335.06 183.86
  A 0.79 0.79 0.0 0 0 334.38 182.82
  L 324.77 182.07
  Q 318.92 181.32 313.28 179.72
  C 306.70 177.85 300.27 174.06 294.04 170.66
  A 1.20 1.19 22.2 0 0 292.32 171.38
  Q 291.96 172.65 291.36 173.83
  A 0.29 0.29 0.0 0 1 290.83 173.58
  Q 291.90 171.09 291.99 168.56
  A 1.42 1.26 66.0 0 0 289.64 167.50
  C 287.12 171.21 279.94 163.78 278.66 161.77
  A 1.23 1.20 32.5 0 1 278.47 160.97
  L 278.61 159.53
  Q 278.67 158.92 278.06 158.81
  Q 274.69 158.18 272.75 160.99
  A 0.31 0.31 0.0 0 1 272.21 160.69
  L 272.68 159.60
  A 0.42 0.41 -73.7 0 0 272.37 159.03
  Q 264.59 157.55 256.82 159.07
  A 1.29 1.29 0.0 0 1 255.92 158.91
  L 253.60 157.54
  Q 253.06 157.21 252.48 157.48
  C 248.09 159.49 238.05 165.36 240.06 170.53
  Q 239.52 171.16 238.42 171.66
  C 231.96 179.05 216.49 182.85 207.18 184.03
  A 0.79 0.78 -30.4 0 0 206.81 185.44
  Q 220.87 195.83 234.70 185.14
  A 0.51 0.51 0.0 0 0 234.89 184.67
  C 233.87 178.36 236.82 177.16 239.28 172.25
  Q 240.06 171.63 240.52 170.60
  Q 241.37 169.19 242.31 169.30
  Q 240.20 172.39 238.65 175.72
  C 238.13 176.85 238.44 177.90 238.18 179.12
  A 0.61 0.60 -17.2 0 0 239.21 179.66
  C 242.68 176.09 245.61 180.16 246.82 183.30
  C 247.22 188.22 247.74 193.83 244.55 198.02
  Q 243.97 197.91 243.95 197.12
  Q 245.46 195.76 245.67 193.54
  A 0.61 0.60 -32.4 0 0 244.50 193.28
  Q 243.70 195.47 241.46 195.23
  Q 240.89 195.17 240.62 194.67
  Q 239.66 192.88 239.69 190.88
  C 239.70 190.11 239.30 189.43 238.67 189.10
  Q 238.15 188.82 238.03 189.41
  Q 237.49 192.17 238.15 195.08
  Q 236.57 195.23 236.75 195.51
  C 221.25 213.76 210.93 241.54 212.36 265.46
  Q 211.18 265.68 210.49 266.20
  Q 200.83 268.69 191.12 269.29
  L 166.51 266.92
  Q 165.87 266.42 166.01 265.66
  C 173.66 266.64 182.07 268.11 189.12 268.09
  C 193.96 268.08 207.12 267.58 210.75 264.31
  Q 211.14 263.96 211.12 263.44
  C 210.41 240.34 220.79 212.44 236.36 194.19
  Q 236.64 193.85 236.67 193.41
  L 236.96 188.21
  A 1.73 1.73 0.0 0 0 234.25 186.70
  Q 219.11 197.14 205.17 185.41
  A 1.10 1.09 58.9 0 1 205.64 183.50
  C 214.81 181.53 233.31 178.74 238.35 170.13
  Q 238.61 169.69 238.52 169.19
  Q 238.17 167.24 239.54 165.80
  A 0.78 0.77 -48.8 0 0 239.47 164.65
  L 238.04 163.50
  A 0.90 0.90 0.0 0 0 237.00 163.44
  Q 233.06 165.99 229.26 165.23
  C 216.58 162.73 203.77 161.14 191.18 158.34
  C 185.58 157.09 185.16 150.31 184.03 145.24
  Q 179.69 125.92 175.62 106.54
  A 1.31 1.29 12.5 0 0 175.10 105.74
  Q 167.25 100.21 159.31 94.96
  Q 157.52 93.78 156.17 90.68
  Q 155.97 90.22 156.02 89.73
  Q 156.20 87.91 154.67 86.57
  Q 142.53 75.93 130.44 67.73
  C 126.99 65.39 124.29 62.17 127.42 58.35
  C 130.57 54.53 134.10 56.90 137.14 59.03
  Q 144.85 64.46 165.58 80.17
  Q 168.22 82.17 168.85 84.52
  Q 168.97 84.98 169.34 85.29
  C 177.60 92.27 184.47 99.00 194.33 104.91
  C 197.44 106.78 201.78 110.05 199.10 114.34
  C 197.00 117.69 192.75 117.25 189.97 114.96
  A 0.60 0.60 0.0 0 0 189.01 115.57
  Q 191.97 126.48 194.91 137.71
  C 195.85 141.31 198.85 142.27 202.24 142.56
  Q 210.49 143.28 218.60 144.43
  A 0.30 0.30 0.0 0 0 218.83 143.89
  C 211.40 137.95 211.39 124.66 222.46 122.30
  Q 230.54 120.58 235.27 126.83
  A 0.48 0.48 0.0 0 0 236.13 126.63
  Q 237.87 117.31 239.28 107.76
  Q 239.42 106.82 238.67 103.92
  A 0.94 0.92 9.5 0 0 238.26 103.36
  L 226.46 95.89
  Q 225.93 95.56 225.38 95.86
  Q 221.26 98.09 218.25 95.50
  Q 207.56 86.26 192.56 69.67
  C 189.66 66.45 189.13 63.51 192.52 60.49
  Q 193.41 59.69 193.02 58.53
  Q 190.84 51.98 185.77 40.27
  Q 184.52 37.39 182.32 34.85
  Q 177.09 28.82 172.37 22.37
  C 167.38 15.56 175.62 9.55 180.86 15.91
  Q 189.88 26.86 198.99 37.77
  C 201.87 41.22 203.83 43.65 203.44 47.72
  A 1.30 1.27 -21.0 0 1 203.08 48.50
  C 202.21 49.40 202.01 49.99 202.53 51.23
  Q 207.02 61.85 211.17 71.69
  A 6.16 6.11 3.3 0 0 213.84 74.66
  C 223.91 80.27 233.39 86.00 244.17 91.84
  C 249.68 94.83 258.29 98.73 257.34 105.26
  Q 254.23 126.59 251.73 148.00
  C 251.48 150.14 247.13 154.83 250.66 156.66
  Q 251.09 156.87 251.53 156.70
  Q 254.19 155.69 256.16 157.81
  A 0.81 0.80 62.5 0 0 256.91 158.05
  Q 265.01 156.46 273.06 158.28
  Q 273.60 158.40 274.11 158.16
  Q 276.44 157.02 278.91 158.20
  A 0.65 0.64 -65.2 0 0 279.78 157.88
  L 281.43 154.20
  A 0.80 0.78 -60.2 0 0 281.18 153.25
  Q 277.77 150.70 277.31 147.45
  Q 275.31 133.38 273.16 110.57
  C 272.75 106.24 271.76 98.89 275.55 96.53
  C 280.68 93.34 285.70 89.89 290.85 86.94
  Q 305.35 78.62 319.39 69.76
  A 3.61 3.60 -10.8 0 0 321.02 67.37
  C 321.95 62.52 322.88 52.68 328.60 51.14
  Q 329.07 51.02 329.28 50.58
  Q 336.28 35.99 342.60 21.11
  C 345.11 15.18 346.27 7.65 348.67 2.18
  Q 349.35 0.64 352.03 0.44
  C 358.63 -0.05 358.94 4.65 357.35 9.60
  Q 352.71 24.09 348.51 38.76
  Q 347.81 41.20 345.23 42.70
  Q 344.79 42.95 344.60 43.42
  Q 338.84 57.17 332.52 70.65
  C 329.98 76.05 329.01 81.76 327.25 87.49
  C 324.79 95.53 316.37 92.84 316.85 85.41
  Q 316.88 84.82 316.36 85.10
  Q 304.84 91.30 294.24 98.86
  C 292.64 100.00 291.38 102.20 291.49 103.99
  Q 291.98 111.55 294.48 123.46
  Q 294.64 124.19 295.17 123.66
  C 307.11 111.82 322.73 125.86 313.72 139.56
  A 0.68 0.67 9.6 0 1 313.29 139.86
  Q 312.29 140.09 311.97 140.95
  Q 311.72 141.61 312.42 141.51
  Q 324.35 139.69 336.24 137.79
  C 339.78 137.23 340.60 133.85 341.59 130.22
  Q 344.18 120.75 346.72 111.28
  A 0.90 0.89 30.4 0 0 346.49 110.41
  C 343.74 107.69 344.57 105.29 346.47 102.19
  Q 354.02 89.89 361.75 77.73
  Q 364.48 73.45 368.75 76.38
  A 0.92 0.90 -48.6 0 0 369.88 76.30
  C 378.27 68.67 389.84 60.26 395.70 52.45
  Q 399.87 46.91 404.18 41.50
  Q 405.87 39.38 407.66 39.17
  C 410.22 38.86 413.70 40.72 414.19 43.49
  C 414.62 45.84 412.29 48.44 410.83 50.33
  Q 405.06 57.74 393.65 72.91
  Q 391.46 75.82 387.22 75.96
  Q 386.72 75.97 386.34 76.30
  Q 375.60 85.58 365.21 95.21
  C 363.79 96.53 362.60 97.87 362.14 99.88
  Q 355.85 127.58 350.49 148.52
  C 348.91 154.68 344.78 154.94 338.41 156.22
  Q 320.20 159.86 301.99 163.46
  Q 297.62 164.32 294.88 162.31
  A 1.69 1.68 36.6 0 0 292.53 162.65
  Q 290.41 165.46 292.27 166.70
  A 0.86 0.85 -82.0 0 1 292.62 167.17
  L 293.10 168.71
  Q 293.29 169.30 293.84 169.58
  C 300.28 172.80 306.84 177.22 313.69 178.94
  C 319.95 180.51 327.82 182.10 334.28 181.75
  C 336.07 181.65 336.72 183.05 336.10 184.62
  Q 333.98 189.94 328.23 191.43
  C 314.71 194.93 300.84 192.41 291.83 181.17
  A 0.75 0.74 -67.8 0 0 290.51 181.73
  L 291.18 187.57
  A 1.64 1.62 -72.4 0 0 291.70 188.59
  Q 298.73 194.96 303.86 202.91
  C 312.10 215.71 319.02 228.39 320.74 244.86
  C 321.46 251.73 322.41 258.60 322.08 265.41
  C 321.44 278.57 319.94 290.14 315.51 301.29
  C 312.49 308.87 308.10 316.42 304.13 323.80
  C 298.72 333.86 289.08 342.94 287.62 354.54
  Q 287.54 355.20 288.17 354.99
  Q 289.26 354.63 289.76 353.56
  A 1.27 1.26 -35.2 0 1 292.16 353.97
  C 293.06 363.13 290.67 374.21 280.52 377.24
  A 1.17 1.17 0.0 0 0 279.91 379.05
  C 286.23 387.60 283.96 397.02 278.60 405.64
  Q 276.14 409.60 275.94 415.19
  Q 275.13 437.74 283.01 457.19
  Q 285.58 463.55 286.25 465.36
  C 288.74 472.07 297.00 487.63 283.72 489.91
  C 273.54 491.65 261.03 489.19 253.85 481.38
  C 248.53 475.59 250.46 468.54 250.78 461.56
  Q 250.81 461.03 250.41 460.66
  Q 242.05 453.00 240.19 441.81
  A 0.43 0.42 18.5 0 1 240.92 441.45
  C 242.36 442.96 247.26 446.99 249.61 446.49
  A 0.58 0.58 0.0 0 0 249.86 445.48
  C 243.06 439.78 238.93 433.28 238.65 423.96
  A 1.00 1.00 0.0 0 1 240.42 423.30
  Q 244.55 428.34 250.98 429.51
  A 0.96 0.96 0.0 0 0 252.11 428.60
  Q 252.37 420.38 252.54 411.75
  C 252.60 408.72 252.98 407.62 251.04 405.03
  Q 241.21 391.91 250.30 377.69
  Q 250.58 377.25 250.55 376.73
  L 249.98 365.92
  Q 249.95 365.41 249.43 365.43
  L 230.70 366.38
  Q 230.23 366.40 230.14 366.86
  C 229.56 369.70 227.18 379.41 228.76 381.64
  C 236.35 392.38 233.30 403.87 224.73 412.43
  Q 224.37 412.79 224.30 413.28
  C 220.98 434.57 225.74 454.78 234.13 475.32
  C 236.08 480.08 238.74 487.00 237.03 491.99
  C 232.36 505.62 211.14 498.84 203.44 492.22
  C 194.76 484.76 197.35 473.00 197.77 463.01
  Z
  M 404.14 43.17
  L 392.53 57.69
  L 384.28 65.01
  L 370.67 76.98
  Q 370.27 77.33 370.44 77.82
  L 371.12 79.82
  Q 371.40 80.75 371.17 81.18
  Q 367.71 87.79 364.17 94.20
  A 0.14 0.14 0.0 0 0 364.39 94.38
  L 395.53 67.07
  Q 395.52 67.18 395.66 67.29
  Q 395.77 67.39 395.66 67.49
  L 388.39 74.44
  A 0.35 0.35 0.0 0 0 388.72 75.04
  C 391.77 74.27 394.48 70.55 396.82 67.07
  L 400.14 63.05
  L 410.95 48.52
  C 417.01 42.62 407.67 36.50 404.14 43.17
  Z
  M 324.61 56.87
  C 323.82 60.12 322.68 68.92 319.76 70.68
  C 305.31 80.00 290.28 88.23 275.85 97.62
  C 273.37 99.24 274.05 105.92 274.23 108.48
  Q 275.10 121.29 276.74 134.05
  Q 277.37 140.41 278.46 146.70
  C 278.99 149.77 280.61 151.40 282.97 153.12
  Q 282.04 157.28 279.40 160.35
  Q 279.06 160.75 279.31 161.22
  Q 281.83 165.82 286.88 167.16
  Q 288.46 167.58 289.25 166.14
  L 291.85 161.40
  Q 292.10 160.94 291.88 160.47
  Q 291.47 159.60 291.58 159.05
  Q 296.97 163.42 301.51 162.55
  Q 320.19 158.95 338.85 155.05
  C 348.52 153.02 348.28 151.92 351.00 141.96
  C 353.07 134.37 354.59 126.43 356.52 119.06
  Q 359.19 108.88 361.22 98.41
  L 369.05 83.80
  C 373.30 77.88 364.42 72.51 361.44 79.48
  L 352.45 94.43
  C 350.63 97.17 344.40 105.63 346.36 108.69
  A 0.64 0.64 0.0 0 0 347.51 108.53
  L 349.56 101.80
  Q 349.89 100.70 349.92 101.85
  Q 349.95 103.01 349.61 104.11
  Q 345.58 119.17 341.94 133.94
  Q 341.41 136.07 338.83 137.52
  Q 335.91 138.81 334.75 139.00
  Q 323.46 140.88 312.24 142.93
  L 309.02 143.08
  Q 300.87 144.31 295.42 139.33
  Q 291.28 133.30 293.50 126.34
  Q 293.65 125.87 293.55 125.38
  Q 291.56 115.38 290.39 105.26
  C 289.65 98.84 295.97 96.24 300.41 93.48
  Q 313.30 85.48 326.63 77.89
  L 318.74 83.46
  Q 318.32 83.76 318.20 84.25
  Q 316.78 90.15 321.70 90.97
  C 323.56 91.28 325.20 90.59 325.79 88.76
  Q 327.95 82.09 330.66 71.22
  Q 330.75 70.85 330.62 70.44
  Q 330.47 69.99 330.57 69.52
  L 332.82 58.70
  C 334.67 51.35 325.84 49.75 324.61 56.87
  Z"
/>
<g stroke-width="2.00" fill="none" stroke-linecap="butt">
<path stroke="#eac88b" vector-effect="non-scaling-stroke" d="
  M 357.10 7.12
  Q 353.09 8.78 348.37 5.45"
/>
<path stroke="#e8c37e" vector-effect="non-scaling-stroke" d="
  M 350.37 28.75
  Q 350.43 28.00 348.69 27.56"
/>
<path stroke="#b18663" vector-effect="non-scaling-stroke" d="
  M 348.69 27.56
  Q 349.07 27.57 349.22 27.34
  A 0.27 0.27 0.0 0 0 349.03 26.93
  L 345.48 26.44
  A 1.22 1.20 78.2 0 1 344.61 25.86
  Q 343.72 24.32 343.09 24.75"
/>
<path stroke="#eac88b" vector-effect="non-scaling-stroke" d="
  M 343.09 24.75
  Q 343.57 25.13 342.30 24.98"
/>
<path stroke="#bf926a" vector-effect="non-scaling-stroke" d="
  M 348.69 27.56
  L 345.82 27.40"
/>
<path stroke="#c19878" vector-effect="non-scaling-stroke" d="
  M 345.82 27.40
  Q 343.78 26.54 343.09 24.75"
/>
<path stroke="#f8d593" vector-effect="non-scaling-stroke" d="
  M 345.82 27.40
  Q 345.15 29.55 343.91 31.70
  C 340.06 38.34 337.40 46.39 334.42 53.51
  Q 334.31 53.78 333.74 54.04"
/>
<path stroke="#caa86d" vector-effect="non-scaling-stroke" d="
  M 349.13 32.98
  Q 347.88 32.57 347.29 34.92"
/>
<path stroke="#e1caa2" vector-effect="non-scaling-stroke" d="
  M 332.74 68.00
  Q 332.02 68.10 331.99 67.74"
/>
<path stroke="#eac88b" vector-effect="non-scaling-stroke" d="
  M 179.85 16.43
  Q 178.19 21.36 173.33 22.01"
/>
<path stroke="#e8c37e" vector-effect="non-scaling-stroke" d="
  M 193.54 33.19
  L 192.98 33.25
  Q 192.46 33.32 192.46 33.85
  Q 192.45 34.21 192.68 34.46"
/>
<path stroke="#b18663" vector-effect="non-scaling-stroke" d="
  M 192.68 34.46
  Q 190.02 37.50 186.56 37.10
  Q 185.44 36.97 186.46 37.46
  L 186.99 37.72"
/>
<path stroke="#e8c37e" vector-effect="non-scaling-stroke" d="
  M 186.99 37.72
  Q 185.87 37.62 185.91 38.26"
/>
<path stroke="#e8c37e" vector-effect="non-scaling-stroke" d="
  M 196.04 36.25
  L 196.00 37.03"
/>
<path stroke="#e8c37e" vector-effect="non-scaling-stroke" d="
  M 209.50 70.52
  Q 209.09 70.41 208.66 70.59"
/>
<path stroke="#bf926a" vector-effect="non-scaling-stroke" d="
  M 186.99 37.72
  Q 191.53 37.91 192.68 34.46"
/>
<path stroke="#eac88b" vector-effect="non-scaling-stroke" d="
  M 213.57 75.45
  Q 212.22 75.67 212.41 76.43"
/>
<path stroke="#b18663" vector-effect="non-scaling-stroke" d="
  M 212.41 76.43
  Q 210.62 80.09 206.99 80.90"
/>
<path stroke="#eac88b" vector-effect="non-scaling-stroke" d="
  M 206.99 80.90
  Q 206.03 81.07 205.72 81.98"
/>
<path stroke="#f8d593" vector-effect="non-scaling-stroke" d="
  M 252.76 129.90
  Q 247.35 126.89 248.58 119.35
  Q 248.65 118.87 248.48 118.42
  Q 246.80 114.14 242.24 114.79
  Q 241.78 114.86 241.67 115.31
  Q 240.68 119.48 239.75 123.75
  Q 239.29 125.87 237.44 125.47"
/>
<path stroke="#eac88b" vector-effect="non-scaling-stroke" d="
  M 212.32 87.15
  Q 212.63 86.22 210.70 86.85"
/>
<path stroke="#c19878" vector-effect="non-scaling-stroke" d="
  M 206.99 80.90
  Q 211.36 81.13 212.41 76.43"
/>
<path stroke="#eac88b" vector-effect="non-scaling-stroke" d="
  M 199.10 62.10
  Q 198.15 67.23 193.16 68.88"
/>
<path stroke="#e8c37e" vector-effect="non-scaling-stroke" d="
  M 249.84 150.10
  Q 238.67 153.32 233.14 163.77"
/>
<path stroke="#caa86d" vector-effect="non-scaling-stroke" d="
  M 227.27 145.58
  Q 237.03 143.05 236.18 132.32"
/>
<path stroke="#bc9c66" vector-effect="non-scaling-stroke" d="
  M 247.78 153.07
  Q 244.82 153.11 245.01 154.91"
/>
<path stroke="#8c7a5c" vector-effect="non-scaling-stroke" d="
  M 245.01 154.91
  Q 241.25 155.38 239.23 158.82"
/>
<path stroke="#bc9c66" vector-effect="non-scaling-stroke" d="
  M 239.23 158.82
  Q 235.23 158.56 235.77 162.72"
/>
<path stroke="#f8d593" vector-effect="non-scaling-stroke" d="
  M 206.89 144.20
  Q 210.54 152.42 207.83 160.41"
/>
<path stroke="#6e604c" vector-effect="non-scaling-stroke" d="
  M 239.23 158.82
  Q 238.80 159.39 238.74 160.14
  A 0.39 0.39 0.0 0 0 239.49 160.32
  Q 240.81 157.17 245.01 154.91"
/>
<path stroke="#9b8c71" vector-effect="non-scaling-stroke" d="
  M 181.95 103.52
  Q 180.82 105.93 177.25 105.46"
/>
<path stroke="#eac88b" vector-effect="non-scaling-stroke" d="
  M 185.79 104.24
  Q 183.44 102.99 181.95 103.52"
/>
<path stroke="#8c7a5c" vector-effect="non-scaling-stroke" d="
  M 181.95 103.52
  L 182.24 102.63
  Q 182.37 102.23 181.98 102.41
  Q 181.75 102.52 181.77 102.78
  Q 181.80 103.21 181.52 103.53
  Q 179.86 105.37 177.30 104.95
  Q 177.03 104.91 177.10 105.17
  Q 177.16 105.39 177.25 105.46"
/>
<path stroke="#eac88b" vector-effect="non-scaling-stroke" d="
  M 177.25 105.46
  Q 176.68 105.71 176.47 105.31"
/>
<path stroke="#eac88b" vector-effect="non-scaling-stroke" d="
  M 165.04 86.96
  Q 165.23 91.42 160.20 94.42"
/>
<path stroke="#6e5c3c" vector-effect="non-scaling-stroke" d="
  M 404.14 43.17
  L 392.53 57.69"
/>
<path stroke="#7c6843" vector-effect="non-scaling-stroke" d="
  M 392.53 57.69
  L 384.28 65.01"
/>
<path stroke="#7e6e51" vector-effect="non-scaling-stroke" d="
  M 384.28 65.01
  L 370.67 76.98
  Q 370.27 77.33 370.44 77.82
  L 371.12 79.82"
/>
<path stroke="#7c6843" vector-effect="non-scaling-stroke" d="
  M 371.12 79.82
  Q 371.40 80.75 371.17 81.18
  Q 367.71 87.79 364.17 94.20
  A 0.14 0.14 0.0 0 0 364.39 94.38
  L 395.53 67.07"
/>
<path stroke="#6e5c3c" vector-effect="non-scaling-stroke" d="
  M 395.53 67.07
  Q 395.52 67.18 395.66 67.29
  Q 395.77 67.39 395.66 67.49
  L 388.39 74.44
  A 0.35 0.35 0.0 0 0 388.72 75.04
  C 391.77 74.27 394.48 70.55 396.82 67.07"
/>
<path stroke="#7c6843" vector-effect="non-scaling-stroke" d="
  M 396.82 67.07
  L 400.14 63.05"
/>
<path stroke="#6e5c3c" vector-effect="non-scaling-stroke" d="
  M 400.14 63.05
  L 410.95 48.52"
/>
<path stroke="#7e6e51" vector-effect="non-scaling-stroke" d="
  M 410.95 48.52
  C 417.01 42.62 407.67 36.50 404.14 43.17"
/>
<path stroke="#eac88b" vector-effect="non-scaling-stroke" d="
  M 410.95 48.52
  C 408.27 46.95 405.28 46.68 404.14 43.17"
/>
<path stroke="#e8c37e" vector-effect="non-scaling-stroke" d="
  M 400.14 63.05
  L 398.63 62.30"
/>
<path stroke="#6e5c3c" vector-effect="non-scaling-stroke" d="
  M 398.63 62.30
  Q 398.11 61.71 397.10 61.66
  C 394.97 61.54 394.27 60.13 393.57 58.08"
/>
<path stroke="#e8c37e" vector-effect="non-scaling-stroke" d="
  M 393.57 58.08
  Q 393.12 57.74 392.53 57.69"
/>
<path stroke="#7c6843" vector-effect="non-scaling-stroke" d="
  M 393.57 58.08
  Q 393.96 62.87 398.63 62.30"
/>
<path stroke="#e8c37e" vector-effect="non-scaling-stroke" d="
  M 396.82 67.07
  Q 396.05 66.90 395.53 67.07"
/>
<path stroke="#f8d593" vector-effect="non-scaling-stroke" d="
  M 371.12 79.82
  C 375.55 79.55 385.26 70.21 388.83 67.11
  Q 389.38 66.63 388.65 66.73
  Q 387.74 66.87 387.74 66.03
  A 0.72 0.72 0.0 0 0 387.10 65.30
  L 384.28 65.01"
/>
<path stroke="#6e5c3c" vector-effect="non-scaling-stroke" d="
  M 324.61 56.87
  C 323.82 60.12 322.68 68.92 319.76 70.68"
/>
<path stroke="#7e6e51" vector-effect="non-scaling-stroke" d="
  M 319.76 70.68
  C 305.31 80.00 290.28 88.23 275.85 97.62
  C 273.37 99.24 274.05 105.92 274.23 108.48
  Q 275.10 121.29 276.74 134.05"
/>
<path stroke="#7c6843" vector-effect="non-scaling-stroke" d="
  M 276.74 134.05
  Q 277.37 140.41 278.46 146.70
  C 278.99 149.77 280.61 151.40 282.97 153.12"
/>
<path stroke="#50412b" vector-effect="non-scaling-stroke" d="
  M 282.97 153.12
  Q 282.04 157.28 279.40 160.35
  Q 279.06 160.75 279.31 161.22
  Q 281.83 165.82 286.88 167.16
  Q 288.46 167.58 289.25 166.14
  L 291.85 161.40
  Q 292.10 160.94 291.88 160.47
  Q 291.47 159.60 291.58 159.05"
/>
<path stroke="#7c6843" vector-effect="non-scaling-stroke" d="
  M 291.58 159.05
  Q 296.97 163.42 301.51 162.55
  Q 320.19 158.95 338.85 155.05
  C 348.52 153.02 348.28 151.92 351.00 141.96
  C 353.07 134.37 354.59 126.43 356.52 119.06
  Q 359.19 108.88 361.22 98.41"
/>
<path stroke="#6e5c3c" vector-effect="non-scaling-stroke" d="
  M 361.22 98.41
  L 369.05 83.80"
/>
<path stroke="#7e6e51" vector-effect="non-scaling-stroke" d="
  M 369.05 83.80
  C 373.30 77.88 364.42 72.51 361.44 79.48"
/>
<path stroke="#6e5c3c" vector-effect="non-scaling-stroke" d="
  M 361.44 79.48
  L 352.45 94.43"
/>
<path stroke="#7c6843" vector-effect="non-scaling-stroke" d="
  M 352.45 94.43
  C 350.63 97.17 344.40 105.63 346.36 108.69
  A 0.64 0.64 0.0 0 0 347.51 108.53
  L 349.56 101.80
  Q 349.89 100.70 349.92 101.85
  Q 349.95 103.01 349.61 104.11"
/>
<path stroke="#7e6e51" vector-effect="non-scaling-stroke" d="
  M 349.61 104.11
  Q 345.58 119.17 341.94 133.94
  Q 341.41 136.07 338.83 137.52"
/>
<path stroke="#7c6843" vector-effect="non-scaling-stroke" d="
  M 338.83 137.52
  Q 335.91 138.81 334.75 139.00
  Q 323.46 140.88 312.24 142.93"
/>
<path stroke="#452b28" vector-effect="non-scaling-stroke" d="
  M 312.24 142.93
  L 309.02 143.08"
/>
<path stroke="#50412b" vector-effect="non-scaling-stroke" d="
  M 309.02 143.08
  Q 300.87 144.31 295.42 139.33"
/>
<path stroke="#7c6843" vector-effect="non-scaling-stroke" d="
  M 295.42 139.33
  Q 291.28 133.30 293.50 126.34
  Q 293.65 125.87 293.55 125.38
  Q 291.56 115.38 290.39 105.26
  C 289.65 98.84 295.97 96.24 300.41 93.48
  Q 313.30 85.48 326.63 77.89"
/>
<path stroke="#6e5c3c" vector-effect="non-scaling-stroke" d="
  M 326.63 77.89
  L 318.74 83.46
  Q 318.32 83.76 318.20 84.25
  Q 316.78 90.15 321.70 90.97
  C 323.56 91.28 325.20 90.59 325.79 88.76
  Q 327.95 82.09 330.66 71.22
  Q 330.75 70.85 330.62 70.44
  Q 330.47 69.99 330.57 69.52
  L 332.82 58.70"
/>
<path stroke="#7e6e51" vector-effect="non-scaling-stroke" d="
  M 332.82 58.70
  C 334.67 51.35 325.84 49.75 324.61 56.87"
/>
<path stroke="#eac88b" vector-effect="non-scaling-stroke" d="
  M 332.82 58.70
  Q 327.95 59.58 324.61 56.87"
/>
<path stroke="#e8c37e" vector-effect="non-scaling-stroke" d="
  M 326.63 77.89
  L 327.51 75.93"
/>
<path stroke="#6e5c3c" vector-effect="non-scaling-stroke" d="
  M 327.51 75.93
  Q 321.72 76.13 320.76 72.25"
/>
<path stroke="#eac88b" vector-effect="non-scaling-stroke" d="
  M 320.76 72.25
  Q 320.29 70.70 319.76 70.68"
/>
<path stroke="#caa86d" vector-effect="non-scaling-stroke" d="
  M 295.42 139.33
  C 296.96 145.34 305.68 144.43 310.77 143.64"
/>
<path stroke="#bf926a" vector-effect="non-scaling-stroke" d="
  M 310.77 143.64
  Q 311.77 143.42 312.24 142.93"
/>
<path stroke="#f8d593" vector-effect="non-scaling-stroke" d="
  M 338.83 137.52
  Q 340.51 141.03 344.21 142.41
  Q 344.65 142.58 344.93 142.19
  Q 349.90 135.36 350.74 131.04
  Q 352.88 119.97 355.10 108.28
  A 1.76 1.75 89.7 0 0 353.03 106.23
  Q 351.10 106.62 349.61 104.11"
/>
<path stroke="#e8c37e" vector-effect="non-scaling-stroke" d="
  M 352.45 94.43
  Q 353.84 94.77 353.42 95.36"
/>
<path stroke="#9a8764" vector-effect="non-scaling-stroke" d="
  M 353.42 95.36
  Q 355.74 100.28 360.23 98.50"
/>
<path stroke="#e8c37e" vector-effect="non-scaling-stroke" d="
  M 360.23 98.50
  Q 360.76 98.57 361.22 98.41"
/>
<path stroke="#caa86d" vector-effect="non-scaling-stroke" d="
  M 291.58 159.05
  L 282.97 153.12"
/>
<path stroke="#7e6e51" vector-effect="non-scaling-stroke" d="
  M 320.76 72.25
  Q 320.28 72.28 320.59 73.00"
/>
<path stroke="#f8d593" vector-effect="non-scaling-stroke" d="
  M 320.59 73.00
  Q 318.63 77.55 314.02 78.38
  Q 313.55 78.47 313.16 78.76
  C 306.10 84.05 300.01 88.52 290.10 93.68
  C 288.77 94.37 285.79 96.05 284.90 96.78
  C 280.81 100.12 283.60 102.85 283.34 106.85
  C 282.56 119.01 286.84 129.78 285.83 139.48
  A 1.10 1.10 0.0 0 1 284.76 140.47
  Q 281.89 140.53 280.75 138.03
  Q 280.58 137.64 280.25 137.38
  Q 278.89 136.30 278.25 134.23
  Q 277.92 133.18 276.74 134.05"
/>
<path stroke="#7c6843" vector-effect="non-scaling-stroke" d="
  M 327.51 75.93
  Q 322.40 77.80 320.59 73.00"
/>
<path stroke="#936b52" vector-effect="non-scaling-stroke" d="
  M 309.02 143.08
  L 310.77 143.64"
/>
<path stroke="#8c7a5c" vector-effect="non-scaling-stroke" d="
  M 360.23 98.50
  Q 360.45 98.11 360.98 97.83
  A 0.15 0.15 0.0 0 0 360.97 97.56
  Q 360.76 97.47 360.50 97.64
  Q 356.72 100.09 353.42 95.36"
/>
<path stroke="#eac88b" vector-effect="non-scaling-stroke" d="
  M 369.05 83.80
  Q 364.44 83.86 361.44 79.48"
/>
<path stroke="#eac88b" vector-effect="non-scaling-stroke" d="
  M 134.82 58.73
  Q 134.70 63.51 129.90 66.15"
/>
<path stroke="#e8c37e" vector-effect="non-scaling-stroke" d="
  M 153.02 72.17
  L 152.31 73.14"
/>
<path stroke="#8c7a5c" vector-effect="non-scaling-stroke" d="
  M 152.31 73.14
  Q 151.32 76.19 148.41 77.93"
/>
<path stroke="#e8c37e" vector-effect="non-scaling-stroke" d="
  M 148.41 77.93
  Q 147.92 78.06 147.41 78.79"
/>
<path stroke="#bf926a" vector-effect="non-scaling-stroke" d="
  M 161.83 79.71
  L 166.36 84.20"
/>
<path stroke="#9a8764" vector-effect="non-scaling-stroke" d="
  M 148.41 77.93
  Q 152.12 77.09 152.31 73.14"
/>
<path stroke="#6c696b" vector-effect="non-scaling-stroke" d="
  M 306.35 121.05
  C 307.14 126.74 304.15 131.28 297.96 129.24
  Q 297.44 129.07 297.28 128.55
  L 296.07 124.43"
/>
<path stroke="#4b4b50" vector-effect="non-scaling-stroke" d="
  M 315.13 131.12
  C 309.06 137.96 303.55 138.19 294.90 135.68"
/>
<path stroke="#6c696b" vector-effect="non-scaling-stroke" d="
  M 228.23 123.49
  Q 226.83 126.52 226.99 129.66
  Q 227.02 130.15 226.72 130.53
  C 223.53 134.56 217.80 133.18 215.57 129.07"
/>
<path stroke="#4b4b50" vector-effect="non-scaling-stroke" d="
  M 233.90 135.70
  Q 231.07 136.35 228.93 138.73
  Q 228.60 139.09 228.12 139.07
  L 216.15 138.60"
/>
<path stroke="#76716e" vector-effect="non-scaling-stroke" d="
  M 278.92 379.61
  C 274.82 384.02 267.03 394.04 260.09 392.35
  A 1.02 0.99 79.0 0 1 259.50 391.94
  Q 258.15 389.95 255.75 389.67
  Q 255.26 389.62 254.97 389.22
  L 253.12 386.77
  Q 252.81 386.37 252.33 386.19
  L 247.98 384.64"
/>
<path stroke="#a6a09c" vector-effect="non-scaling-stroke" d="
  M 275.31 408.11
  Q 276.04 408.54 274.52 408.31"
/>
<path stroke="#6c696b" vector-effect="non-scaling-stroke" d="
  M 223.38 475.60
  Q 220.59 474.41 219.32 469.42"
/>
<path stroke="#6c696b" vector-effect="non-scaling-stroke" d="
  M 224.35 480.20
  L 223.66 487.06
  Q 223.60 487.65 223.16 488.05
  L 219.43 491.44
  Q 218.98 491.85 218.46 491.56
  Q 208.04 485.76 207.48 473.55"
/>
</g>
<path fill="#f9daa0" d="
  M 357.10 7.12
  Q 353.09 8.78 348.37 5.45
  C 349.59 -1.15 358.69 0.41 357.10 7.12
  Z"
/>
<path fill="#dab676" d="
  M 348.37 5.45
  Q 353.09 8.78 357.10 7.12
  L 350.37 28.75
  Q 350.43 28.00 348.69 27.56
  Q 349.07 27.57 349.22 27.34
  A 0.27 0.27 0.0 0 0 349.03 26.93
  L 345.48 26.44
  A 1.22 1.20 78.2 0 1 344.61 25.86
  Q 343.72 24.32 343.09 24.75
  Q 343.57 25.13 342.30 24.98
  L 348.37 5.45
  Z"
/>
<path fill="#f9daa0" d="
  M 179.85 16.43
  Q 178.19 21.36 173.33 22.01
  C 168.59 16.79 174.81 11.31 179.85 16.43
  Z"
/>
<path fill="#dab676" d="
  M 179.85 16.43
  L 193.54 33.19
  L 192.98 33.25
  Q 192.46 33.32 192.46 33.85
  Q 192.45 34.21 192.68 34.46
  Q 190.02 37.50 186.56 37.10
  Q 185.44 36.97 186.46 37.46
  L 186.99 37.72
  Q 185.87 37.62 185.91 38.26
  Q 184.96 36.17 184.19 35.31
  Q 178.52 29.03 173.33 22.01
  Q 178.19 21.36 179.85 16.43
  Z"
/>
<path fill="#88554f" d="
  M 348.69 27.56
  L 345.82 27.40
  Q 343.78 26.54 343.09 24.75
  Q 343.72 24.32 344.61 25.86
  A 1.22 1.20 78.2 0 0 345.48 26.44
  L 349.03 26.93
  A 0.27 0.27 0.0 0 1 349.22 27.34
  Q 349.07 27.57 348.69 27.56
  Z"
/>
<path fill="#f9daa0" d="
  M 342.30 24.98
  Q 343.57 25.13 343.09 24.75
  Q 343.78 26.54 345.82 27.40
  Q 345.15 29.55 343.91 31.70
  C 340.06 38.34 337.40 46.39 334.42 53.51
  Q 334.31 53.78 333.74 54.04
  Q 332.68 52.33 330.87 51.36
  Q 330.40 51.11 330.62 50.61
  L 342.30 24.98
  Z"
/>
<path fill="#f6cf85" d="
  M 345.82 27.40
  L 348.69 27.56
  Q 350.43 28.00 350.37 28.75
  L 349.13 32.98
  Q 347.88 32.57 347.29 34.92
  L 332.74 68.00
  Q 332.02 68.10 331.99 67.74
  C 332.93 64.38 334.89 57.31 333.74 54.04
  Q 334.31 53.78 334.42 53.51
  C 337.40 46.39 340.06 38.34 343.91 31.70
  Q 345.15 29.55 345.82 27.40
  Z"
/>
<path fill="#9e8155" d="
  M 349.13 32.98
  L 346.52 40.60
  A 0.27 0.26 -58.4 0 1 346.08 40.71
  L 345.82 40.44
  A 0.36 0.35 39.5 0 1 345.77 39.99
  Q 347.36 37.57 347.29 34.92
  Q 347.88 32.57 349.13 32.98
  Z"
/>
<path fill="#f6cf85" d="
  M 193.54 33.19
  L 196.04 36.25
  L 196.00 37.03
  Q 195.58 37.53 195.82 37.92
  Q 195.98 38.18 196.00 38.22
  Q 202.56 54.40 209.50 70.52
  Q 209.09 70.41 208.66 70.59
  Q 203.73 64.67 197.75 59.73
  A 0.71 0.69 -23.0 0 0 197.33 59.57
  L 195.13 59.43
  Q 194.55 59.40 194.33 58.86
  L 185.91 38.26
  Q 185.87 37.62 186.99 37.72
  Q 191.53 37.91 192.68 34.46
  Q 192.45 34.21 192.46 33.85
  Q 192.46 33.32 192.98 33.25
  L 193.54 33.19
  Z"
/>
<path fill="#88554f" d="
  M 192.68 34.46
  Q 191.53 37.91 186.99 37.72
  L 186.46 37.46
  Q 185.44 36.97 186.56 37.10
  Q 190.02 37.50 192.68 34.46
  Z"
/>
<path fill="#dab676" d="
  M 196.04 36.25
  C 199.55 39.94 202.71 43.09 202.18 47.62
  A 0.58 0.58 0.0 0 1 201.07 47.80
  L 196.00 37.03
  L 196.04 36.25
  Z"
/>
<path fill="#f9daa0" d="
  M 410.95 48.52
  C 408.27 46.95 405.28 46.68 404.14 43.17
  C 407.67 36.50 417.01 42.62 410.95 48.52
  Z"
/>
<path fill="#dab676" d="
  M 404.14 43.17
  C 405.28 46.68 408.27 46.95 410.95 48.52
  L 400.14 63.05
  L 398.63 62.30
  Q 398.11 61.71 397.10 61.66
  C 394.97 61.54 394.27 60.13 393.57 58.08
  Q 393.12 57.74 392.53 57.69
  L 404.14 43.17
  Z"
/>
<path fill="#f9daa0" d="
  M 332.82 58.70
  Q 327.95 59.58 324.61 56.87
  C 325.84 49.75 334.67 51.35 332.82 58.70
  Z"
/>
<path fill="#dab676" d="
  M 324.61 56.87
  Q 327.95 59.58 332.82 58.70
  L 330.57 69.52
  Q 330.47 69.99 330.62 70.44
  Q 330.75 70.85 330.66 71.22
  Q 327.95 82.09 325.79 88.76
  C 325.20 90.59 323.56 91.28 321.70 90.97
  Q 316.78 90.15 318.20 84.25
  Q 318.32 83.76 318.74 83.46
  L 326.63 77.89
  L 327.51 75.93
  Q 321.72 76.13 320.76 72.25
  Q 320.29 70.70 319.76 70.68
  C 322.68 68.92 323.82 60.12 324.61 56.87
  Z"
/>
<path fill="#f9daa0" d="
  M 134.82 58.73
  Q 134.70 63.51 129.90 66.15
  C 124.26 62.41 128.20 54.57 134.82 58.73
  Z"
/>
<path fill="#f6cf85" d="
  M 392.53 57.69
  Q 393.12 57.74 393.57 58.08
  Q 393.96 62.87 398.63 62.30
  L 400.14 63.05
  L 396.82 67.07
  Q 396.05 66.90 395.53 67.07
  L 364.39 94.38
  A 0.14 0.14 0.0 0 1 364.17 94.20
  Q 367.71 87.79 371.17 81.18
  Q 371.40 80.75 371.12 79.82
  C 375.55 79.55 385.26 70.21 388.83 67.11
  Q 389.38 66.63 388.65 66.73
  Q 387.74 66.87 387.74 66.03
  A 0.72 0.72 0.0 0 0 387.10 65.30
  L 384.28 65.01
  L 392.53 57.69
  Z"
/>
<path fill="#020101" fill-opacity="0.996" d="
  M 393.57 58.08
  C 394.27 60.13 394.97 61.54 397.10 61.66
  Q 398.11 61.71 398.63 62.30
  Q 393.96 62.87 393.57 58.08
  Z"
/>
<path fill="#dab676" d="
  M 134.82 58.73
  L 153.02 72.17
  L 152.31 73.14
  Q 151.32 76.19 148.41 77.93
  Q 147.92 78.06 147.41 78.79
  L 129.90 66.15
  Q 134.70 63.51 134.82 58.73
  Z"
/>
<path fill="#f9daa0" d="
  M 199.10 62.10
  Q 198.15 67.23 193.16 68.88
  C 188.49 64.95 192.93 57.46 199.10 62.10
  Z"
/>
<path fill="#dab676" d="
  M 199.10 62.10
  L 208.50 71.17
  A 0.28 0.28 0.0 0 0 208.97 71.04
  Q 209.08 70.66 208.66 70.59
  Q 209.09 70.41 209.50 70.52
  Q 209.63 73.31 213.57 75.45
  Q 212.22 75.67 212.41 76.43
  Q 210.62 80.09 206.99 80.90
  Q 206.03 81.07 205.72 81.98
  L 193.16 68.88
  Q 198.15 67.23 199.10 62.10
  Z"
/>
<path fill="#f9daa0" d="
  M 384.28 65.01
  L 387.10 65.30
  A 0.72 0.72 0.0 0 1 387.74 66.03
  Q 387.74 66.87 388.65 66.73
  Q 389.38 66.63 388.83 67.11
  C 385.26 70.21 375.55 79.55 371.12 79.82
  L 370.44 77.82
  Q 370.27 77.33 370.67 76.98
  L 384.28 65.01
  Z"
/>
<path fill="#dab676" d="
  M 395.53 67.07
  Q 396.05 66.90 396.82 67.07
  C 394.48 70.55 391.77 74.27 388.72 75.04
  A 0.35 0.35 0.0 0 1 388.39 74.44
  L 395.66 67.49
  Q 395.77 67.39 395.66 67.29
  Q 395.52 67.18 395.53 67.07
  Z"
/>
<path fill="#ccc4bf" d="
  M 331.99 67.74
  Q 332.02 68.10 332.74 68.00
  L 331.86 70.10
  Q 331.54 70.86 331.31 70.06
  Q 330.96 68.85 331.99 67.74
  Z"
/>
<path fill="#f9daa0" d="
  M 319.76 70.68
  Q 320.29 70.70 320.76 72.25
  Q 320.28 72.28 320.59 73.00
  Q 318.63 77.55 314.02 78.38
  Q 313.55 78.47 313.16 78.76
  C 306.10 84.05 300.01 88.52 290.10 93.68
  C 288.77 94.37 285.79 96.05 284.90 96.78
  C 280.81 100.12 283.60 102.85 283.34 106.85
  C 282.56 119.01 286.84 129.78 285.83 139.48
  A 1.10 1.10 0.0 0 1 284.76 140.47
  Q 281.89 140.53 280.75 138.03
  Q 280.58 137.64 280.25 137.38
  Q 278.89 136.30 278.25 134.23
  Q 277.92 133.18 276.74 134.05
  Q 275.10 121.29 274.23 108.48
  C 274.05 105.92 273.37 99.24 275.85 97.62
  C 290.28 88.23 305.31 80.00 319.76 70.68
  Z"
/>
<path fill="#f6cf85" d="
  M 153.02 72.17
  Q 158.39 75.22 161.83 79.71
  L 166.36 84.20
  Q 170.25 87.47 174.68 91.07
  Q 174.93 91.26 174.70 91.64
  A 0.44 0.44 0.0 0 1 174.06 91.76
  C 168.81 87.87 162.29 81.43 157.54 86.78
  A 0.58 0.58 0.0 0 1 156.73 86.83
  L 147.41 78.79
  Q 147.92 78.06 148.41 77.93
  Q 152.12 77.09 152.31 73.14
  L 153.02 72.17
  Z"
/>
<path fill="#020101" fill-opacity="0.996" d="
  M 320.76 72.25
  Q 321.72 76.13 327.51 75.93
  Q 322.40 77.80 320.59 73.00
  Q 320.28 72.28 320.76 72.25
  Z"
/>
<path fill="#f6cf85" d="
  M 320.59 73.00
  Q 322.40 77.80 327.51 75.93
  L 326.63 77.89
  Q 313.30 85.48 300.41 93.48
  C 295.97 96.24 289.65 98.84 290.39 105.26
  Q 291.56 115.38 293.55 125.38
  Q 293.65 125.87 293.50 126.34
  Q 291.28 133.30 295.42 139.33
  C 296.96 145.34 305.68 144.43 310.77 143.64
  Q 311.77 143.42 312.24 142.93
  Q 323.46 140.88 334.75 139.00
  Q 335.91 138.81 338.83 137.52
  Q 340.51 141.03 344.21 142.41
  Q 344.65 142.58 344.93 142.19
  Q 349.90 135.36 350.74 131.04
  Q 352.88 119.97 355.10 108.28
  A 1.76 1.75 89.7 0 0 353.03 106.23
  Q 351.10 106.62 349.61 104.11
  Q 349.95 103.01 349.92 101.85
  Q 349.89 100.70 349.56 101.80
  L 347.51 108.53
  A 0.64 0.64 0.0 0 1 346.36 108.69
  C 344.40 105.63 350.63 97.17 352.45 94.43
  Q 353.84 94.77 353.42 95.36
  Q 355.74 100.28 360.23 98.50
  Q 360.76 98.57 361.22 98.41
  Q 359.19 108.88 356.52 119.06
  C 354.59 126.43 353.07 134.37 351.00 141.96
  C 348.28 151.92 348.52 153.02 338.85 155.05
  Q 320.19 158.95 301.51 162.55
  Q 296.97 163.42 291.58 159.05
  L 282.97 153.12
  C 280.61 151.40 278.99 149.77 278.46 146.70
  Q 277.37 140.41 276.74 134.05
  Q 277.92 133.18 278.25 134.23
  Q 278.89 136.30 280.25 137.38
  Q 280.58 137.64 280.75 138.03
  Q 281.89 140.53 284.76 140.47
  A 1.10 1.10 0.0 0 0 285.83 139.48
  C 286.84 129.78 282.56 119.01 283.34 106.85
  C 283.60 102.85 280.81 100.12 284.90 96.78
  C 285.79 96.05 288.77 94.37 290.10 93.68
  C 300.01 88.52 306.10 84.05 313.16 78.76
  Q 313.55 78.47 314.02 78.38
  Q 318.63 77.55 320.59 73.00
  Z"
/>
<path fill="#3d3e42" d="
  M 152.31 73.14
  Q 152.12 77.09 148.41 77.93
  Q 151.32 76.19 152.31 73.14
  Z"
/>
<path fill="#f9daa0" d="
  M 213.57 75.45
  C 226.72 83.31 240.07 90.23 253.32 98.94
  Q 256.05 100.73 255.80 103.75
  Q 254.69 116.69 252.76 129.90
  Q 247.35 126.89 248.58 119.35
  Q 248.65 118.87 248.48 118.42
  Q 246.80 114.14 242.24 114.79
  Q 241.78 114.86 241.67 115.31
  Q 240.68 119.48 239.75 123.75
  Q 239.29 125.87 237.44 125.47
  Q 238.88 117.67 240.07 109.82
  C 240.76 105.26 240.12 103.30 236.06 100.80
  Q 224.48 93.66 212.32 87.15
  Q 212.63 86.22 210.70 86.85
  L 205.72 81.98
  Q 206.03 81.07 206.99 80.90
  Q 211.36 81.13 212.41 76.43
  Q 212.22 75.67 213.57 75.45
  Z"
/>
<path fill="#f9daa0" d="
  M 369.05 83.80
  Q 364.44 83.86 361.44 79.48
  C 364.42 72.51 373.30 77.88 369.05 83.80
  Z"
/>
<path fill="#88554f" d="
  M 212.41 76.43
  Q 211.36 81.13 206.99 80.90
  Q 210.62 80.09 212.41 76.43
  Z"
/>
<path fill="#88554f" d="
  M 166.36 84.20
  L 161.83 79.71
  L 162.10 79.52
  Q 162.49 79.25 162.92 79.46
  Q 167.49 81.71 166.36 84.20
  Z"
/>
<path fill="#dab676" d="
  M 361.44 79.48
  Q 364.44 83.86 369.05 83.80
  L 361.22 98.41
  Q 360.76 98.57 360.23 98.50
  Q 360.45 98.11 360.98 97.83
  A 0.15 0.15 0.0 0 0 360.97 97.56
  Q 360.76 97.47 360.50 97.64
  Q 356.72 100.09 353.42 95.36
  Q 353.84 94.77 352.45 94.43
  L 361.44 79.48
  Z"
/>
<path fill="#f9daa0" d="
  M 165.04 86.96
  Q 165.23 91.42 160.20 94.42
  Q 159.48 93.65 158.60 92.74
  C 154.65 88.70 160.89 83.12 165.04 86.96
  Z"
/>
<path fill="#dab676" d="
  M 212.32 87.15
  L 223.77 94.33
  A 0.72 0.72 0.0 0 1 223.53 95.65
  C 219.37 96.49 213.28 89.66 210.70 86.85
  Q 212.63 86.22 212.32 87.15
  Z"
/>
<path fill="#dab676" d="
  M 165.04 86.96
  Q 169.81 89.80 174.54 92.64
  C 181.77 96.97 188.70 102.42 195.84 107.21
  C 199.53 109.69 199.80 115.58 194.68 115.88
  C 192.68 116.00 190.89 114.26 188.98 113.34
  Q 188.51 113.11 188.46 112.59
  Q 187.94 107.98 185.79 104.24
  Q 183.44 102.99 181.95 103.52
  L 182.24 102.63
  Q 182.37 102.23 181.98 102.41
  Q 181.75 102.52 181.77 102.78
  Q 181.80 103.21 181.52 103.53
  Q 179.86 105.37 177.30 104.95
  Q 177.03 104.91 177.10 105.17
  Q 177.16 105.39 177.25 105.46
  Q 176.68 105.71 176.47 105.31
  L 160.20 94.42
  Q 165.23 91.42 165.04 86.96
  Z"
/>
<path fill="#3d3e42" d="
  M 353.42 95.36
  Q 356.72 100.09 360.50 97.64
  Q 360.76 97.47 360.97 97.56
  A 0.15 0.15 0.0 0 1 360.98 97.83
  Q 360.45 98.11 360.23 98.50
  Q 355.74 100.28 353.42 95.36
  Z"
/>
<path fill="#3d3e42" d="
  M 181.95 103.52
  Q 180.82 105.93 177.25 105.46
  Q 177.16 105.39 177.10 105.17
  Q 177.03 104.91 177.30 104.95
  Q 179.86 105.37 181.52 103.53
  Q 181.80 103.21 181.77 102.78
  Q 181.75 102.52 181.98 102.41
  Q 182.37 102.23 182.24 102.63
  L 181.95 103.52
  Z"
/>
<path fill="#f9daa0" d="
  M 185.79 104.24
  Q 189.33 121.21 193.75 137.99
  C 194.57 141.09 195.04 142.26 198.49 142.88
  Q 202.80 143.65 206.89 144.20
  Q 210.54 152.42 207.83 160.41
  Q 198.50 159.33 189.56 156.47
  Q 189.05 156.31 188.82 155.83
  Q 186.33 150.57 184.92 144.32
  Q 179.61 120.89 176.47 105.31
  Q 176.68 105.71 177.25 105.46
  Q 180.82 105.93 181.95 103.52
  Q 183.44 102.99 185.79 104.24
  Z"
/>
<path fill="#f9daa0" d="
  M 349.61 104.11
  Q 351.10 106.62 353.03 106.23
  A 1.76 1.75 89.7 0 1 355.10 108.28
  Q 352.88 119.97 350.74 131.04
  Q 349.90 135.36 344.93 142.19
  Q 344.65 142.58 344.21 142.41
  Q 340.51 141.03 338.83 137.52
  Q 341.41 136.07 341.94 133.94
  Q 345.58 119.17 349.61 104.11
  Z"
/>
<path fill="#f6cf85" d="
  M 252.76 129.90
  Q 251.92 140.77 249.84 150.10
  Q 238.67 153.32 233.14 163.77
  C 225.32 164.35 215.62 161.61 207.83 160.41
  Q 210.54 152.42 206.89 144.20
  C 214.56 145.10 221.29 147.06 227.27 145.58
  Q 237.03 143.05 236.18 132.32
  L 237.44 125.47
  Q 239.29 125.87 239.75 123.75
  Q 240.68 119.48 241.67 115.31
  Q 241.78 114.86 242.24 114.79
  Q 246.80 114.14 248.48 118.42
  Q 248.65 118.87 248.58 119.35
  Q 247.35 126.89 252.76 129.90
  Z"
/>
<path fill="#807b78" d="
  M 306.35 121.05
  C 307.14 126.74 304.15 131.28 297.96 129.24
  Q 297.44 129.07 297.28 128.55
  L 296.07 124.43
  Q 300.08 119.81 306.35 121.05
  Z"
/>
<path fill="#58575e" d="
  M 306.35 121.05
  C 312.37 120.50 314.83 125.91 315.13 131.12
  C 309.06 137.96 303.55 138.19 294.90 135.68
  Q 292.32 129.90 296.07 124.43
  L 297.28 128.55
  Q 297.44 129.07 297.96 129.24
  C 304.15 131.28 307.14 126.74 306.35 121.05
  Z"
/>
<path fill="#807b78" d="
  M 228.23 123.49
  Q 226.83 126.52 226.99 129.66
  Q 227.02 130.15 226.72 130.53
  C 223.53 134.56 217.80 133.18 215.57 129.07
  Q 219.16 121.53 228.23 123.49
  Z"
/>
<path fill="#58575e" d="
  M 228.23 123.49
  Q 232.64 123.94 234.53 127.85
  C 235.79 130.44 234.75 133.10 233.90 135.70
  Q 231.07 136.35 228.93 138.73
  Q 228.60 139.09 228.12 139.07
  L 216.15 138.60
  Q 213.53 134.08 215.57 129.07
  C 217.80 133.18 223.53 134.56 226.72 130.53
  Q 227.02 130.15 226.99 129.66
  Q 226.83 126.52 228.23 123.49
  Z"
/>
<path fill="#3d3e42" d="
  M 315.13 131.12
  C 315.33 137.02 311.83 141.85 305.71 142.07
  C 301.22 142.23 296.49 140.36 294.90 135.68
  C 303.55 138.19 309.06 137.96 315.13 131.12
  Z"
/>
<path fill="#9e8155" d="
  M 236.18 132.32
  Q 237.03 143.05 227.27 145.58
  Q 234.63 141.58 236.18 132.32
  Z"
/>
<path fill="#3d3e42" d="
  M 233.90 135.70
  C 231.49 144.63 221.08 149.09 216.15 138.60
  L 228.12 139.07
  Q 228.60 139.09 228.93 138.73
  Q 231.07 136.35 233.90 135.70
  Z"
/>
<path fill="#9e8155" d="
  M 295.42 139.33
  Q 300.87 144.31 309.02 143.08
  L 310.77 143.64
  C 305.68 144.43 296.96 145.34 295.42 139.33
  Z"
/>
<path fill="#88554f" d="
  M 312.24 142.93
  Q 311.77 143.42 310.77 143.64
  L 309.02 143.08
  L 312.24 142.93
  Z"
/>
<path fill="#dab676" d="
  M 249.84 150.10
  L 247.78 153.07
  Q 244.82 153.11 245.01 154.91
  Q 241.25 155.38 239.23 158.82
  Q 235.23 158.56 235.77 162.72
  Q 234.60 163.61 233.14 163.77
  Q 238.67 153.32 249.84 150.10
  Z"
/>
<path fill="#9e8155" d="
  M 247.78 153.07
  Q 247.51 155.36 249.45 157.12
  A 0.41 0.40 -42.1 0 1 249.41 157.75
  L 240.82 163.92
  A 0.79 0.79 0.0 0 1 239.61 163.54
  Q 238.82 161.26 235.77 162.72
  Q 235.23 158.56 239.23 158.82
  Q 238.80 159.39 238.74 160.14
  A 0.39 0.39 0.0 0 0 239.49 160.32
  Q 240.81 157.17 245.01 154.91
  Q 244.82 153.11 247.78 153.07
  Z"
/>
<path fill="#9e8155" d="
  M 282.97 153.12
  L 291.58 159.05
  Q 291.47 159.60 291.88 160.47
  Q 292.10 160.94 291.85 161.40
  L 289.25 166.14
  Q 288.46 167.58 286.88 167.16
  Q 281.83 165.82 279.31 161.22
  Q 279.06 160.75 279.40 160.35
  Q 282.04 157.28 282.97 153.12
  Z"
/>
<path fill="#3d3e42" d="
  M 245.01 154.91
  Q 240.81 157.17 239.49 160.32
  A 0.39 0.39 0.0 0 1 238.74 160.14
  Q 238.80 159.39 239.23 158.82
  Q 241.25 155.38 245.01 154.91
  Z"
/>
<path fill="#cccccb" d="
  M 324.77 182.07
  Q 324.28 182.46 324.06 182.89
  A 0.47 0.46 26.6 0 0 324.28 183.52
  Q 325.27 183.99 325.51 184.98
  Q 326.16 187.75 328.02 190.23
  Q 304.98 196.65 290.76 178.74
  A 1.21 1.21 0.0 0 1 290.50 177.99
  L 290.50 176.88
  A 0.29 0.28 45.9 0 0 289.93 176.87
  L 289.68 185.29
  Q 289.66 186.00 289.05 185.62
  L 288.19 185.08
  A 0.96 0.96 0.0 0 0 286.72 185.84
  L 286.42 191.84
  Q 286.40 192.29 285.99 192.50
  Q 284.28 193.35 284.61 195.02
  Q 286.39 204.24 287.44 212.65
  C 283.96 221.83 277.57 224.84 267.96 223.11
  Q 264.77 215.21 261.63 206.86
  C 259.34 200.76 257.33 199.81 250.56 200.98
  A 1.22 1.22 0.0 0 0 249.75 201.51
  C 245.02 208.65 239.03 214.34 238.62 223.21
  Q 234.97 223.19 230.95 219.34
  Q 229.64 213.61 232.68 207.17
  Q 234.79 202.71 237.28 198.40
  Q 237.52 197.99 237.85 198.34
  L 239.80 200.41
  A 0.25 0.14 2.7 0 0 239.88 200.46
  Q 242.82 201.30 244.55 198.02
  C 247.74 193.83 247.22 188.22 246.82 183.30
  Q 248.61 183.16 248.25 180.70
  Q 248.17 180.20 247.45 179.07
  Q 247.15 178.59 247.48 178.13
  Q 248.04 177.34 248.96 177.50
  A 0.83 0.83 0.0 0 0 249.81 177.13
  Q 250.93 175.40 253.01 175.78
  A 1.01 1.01 0.0 0 0 253.97 175.44
  Q 255.40 173.70 257.46 172.72
  Q 257.90 172.52 258.04 172.05
  Q 259.25 168.08 262.73 165.80
  A 0.88 0.87 66.2 0 0 263.09 164.86
  L 262.49 162.59
  Q 262.35 162.05 261.81 161.91
  C 258.72 161.13 255.99 160.73 252.96 162.20
  Q 247.11 165.02 242.31 169.30
  Q 241.37 169.19 240.52 170.60
  Q 240.33 170.42 240.06 170.53
  C 238.05 165.36 248.09 159.49 252.48 157.48
  Q 253.06 157.21 253.60 157.54
  L 255.92 158.91
  A 1.29 1.29 0.0 0 0 256.82 159.07
  Q 264.59 157.55 272.37 159.03
  A 0.42 0.41 -73.7 0 1 272.68 159.60
  L 272.21 160.69
  A 0.31 0.31 0.0 0 0 272.75 160.99
  Q 274.69 158.18 278.06 158.81
  Q 278.67 158.92 278.61 159.53
  L 278.47 160.97
  A 1.23 1.20 32.5 0 0 278.66 161.77
  C 279.94 163.78 287.12 171.21 289.64 167.50
  A 1.42 1.26 66.0 0 1 291.99 168.56
  Q 291.90 171.09 290.83 173.58
  A 0.29 0.29 0.0 0 0 291.36 173.83
  Q 291.96 172.65 292.32 171.38
  A 1.20 1.19 22.2 0 1 294.04 170.66
  C 300.27 174.06 306.70 177.85 313.28 179.72
  Q 318.92 181.32 324.77 182.07
  Z
  M 279.45 178.68
  C 277.44 178.10 275.20 177.31 273.18 177.73
  C 264.96 179.44 266.81 192.43 270.05 197.41
  C 273.90 203.34 280.79 200.63 282.35 194.57
  Q 283.20 191.25 281.84 186.23
  Q 281.72 185.75 282.05 185.39
  C 284.86 182.31 287.36 176.04 281.54 174.13
  Q 280.40 173.75 280.93 174.84
  Q 281.94 176.92 280.45 178.42
  Q 280.03 178.85 279.45 178.68
  Z"
/>
<path stroke="#676766" stroke-width="2.00" fill="none" stroke-linecap="butt" vector-effect="non-scaling-stroke" d="
  M 279.45 178.68
  C 277.44 178.10 275.20 177.31 273.18 177.73
  C 264.96 179.44 266.81 192.43 270.05 197.41
  C 273.90 203.34 280.79 200.63 282.35 194.57
  Q 283.20 191.25 281.84 186.23
  Q 281.72 185.75 282.05 185.39
  C 284.86 182.31 287.36 176.04 281.54 174.13
  Q 280.40 173.75 280.93 174.84
  Q 281.94 176.92 280.45 178.42
  Q 280.03 178.85 279.45 178.68"
/>
<path fill="#dcd5d1" d="
  M 246.82 183.30
  C 245.61 180.16 242.68 176.09 239.21 179.66
  A 0.61 0.60 -17.2 0 1 238.18 179.12
  C 238.44 177.90 238.13 176.85 238.65 175.72
  Q 240.20 172.39 242.31 169.30
  Q 247.11 165.02 252.96 162.20
  C 255.99 160.73 258.72 161.13 261.81 161.91
  Q 262.35 162.05 262.49 162.59
  L 263.09 164.86
  A 0.88 0.87 66.2 0 1 262.73 165.80
  Q 259.25 168.08 258.04 172.05
  Q 257.90 172.52 257.46 172.72
  Q 255.40 173.70 253.97 175.44
  A 1.01 1.01 0.0 0 1 253.01 175.78
  Q 250.93 175.40 249.81 177.13
  A 0.83 0.83 0.0 0 1 248.96 177.50
  Q 248.04 177.34 247.48 178.13
  Q 247.15 178.59 247.45 179.07
  Q 248.17 180.20 248.25 180.70
  Q 248.61 183.16 246.82 183.30
  Z"
/>
<path fill="#58575e" d="
  M 240.06 170.53
  Q 240.33 170.42 240.52 170.60
  Q 240.06 171.63 239.28 172.25
  Q 239.43 171.71 238.42 171.66
  Q 239.52 171.16 240.06 170.53
  Z"
/>
<path fill="#cccccb" d="
  M 238.42 171.66
  Q 239.43 171.71 239.28 172.25
  C 236.82 177.16 233.87 178.36 234.89 184.67
  A 0.51 0.51 0.0 0 1 234.70 185.14
  Q 220.87 195.83 206.81 185.44
  A 0.79 0.78 -30.4 0 1 207.18 184.03
  C 216.49 182.85 231.96 179.05 238.42 171.66
  Z"
/>
<path fill="#020101" fill-opacity="0.996" d="
  M 280.45 178.42
  Q 281.94 176.92 280.93 174.84
  Q 280.40 173.75 281.54 174.13
  C 287.36 176.04 284.86 182.31 282.05 185.39
  Q 281.72 185.75 281.84 186.23
  Q 283.20 191.25 282.35 194.57
  C 280.79 200.63 273.90 203.34 270.05 197.41
  C 266.81 192.43 264.96 179.44 273.18 177.73
  C 275.20 177.31 277.44 178.10 279.45 178.68
  Q 280.03 178.85 280.45 178.42
  Z"
/>
<g stroke-width="2.00" fill="none" stroke-linecap="butt">
<path stroke="#e6e2df" vector-effect="non-scaling-stroke" d="
  M 269.33 193.14
  Q 271.00 193.69 272.28 193.44"
/>
<path stroke="#eeeae8" vector-effect="non-scaling-stroke" d="
  M 277.98 190.79
  Q 278.01 190.31 278.47 189.78"
/>
<path stroke="#e6e2df" vector-effect="non-scaling-stroke" d="
  M 278.47 189.78
  Q 280.24 189.04 279.68 187.27"
/>
<path stroke="#d4cdc8" vector-effect="non-scaling-stroke" d="
  M 278.47 189.78
  Q 278.21 189.46 278.67 188.99
  Q 278.96 188.69 278.57 188.53
  Q 278.31 188.44 277.91 188.47"
/>
</g>
<path fill="#ffffff" d="
  M 281.44 179.19
  Q 282.77 177.98 281.77 175.97
  A 0.42 0.42 0.0 0 1 282.31 175.40
  C 285.63 176.85 283.88 181.80 281.98 183.66
  Q 276.52 189.04 269.29 191.74
  A 0.47 0.47 0.0 0 1 268.66 191.37
  C 267.92 186.34 268.44 177.02 276.35 178.74
  C 277.81 179.06 279.79 180.68 281.44 179.19
  Z"
/>
<path fill="#ffffff" d="
  M 238.22 181.61
  C 245.41 174.80 246.67 186.49 246.12 190.78
  A 0.68 0.68 0.0 0 1 245.16 191.31
  C 239.10 188.55 233.07 185.50 236.65 177.27
  Q 236.84 176.85 237.27 177.00
  Q 237.39 177.05 237.51 177.09
  Q 237.67 177.13 237.61 177.29
  Q 236.87 179.39 237.62 181.47
  Q 237.81 182.00 238.22 181.61
  Z"
/>
<path fill="#dcd5d1" d="
  M 324.77 182.07
  L 334.38 182.82
  A 0.79 0.79 0.0 0 1 335.06 183.86
  Q 333.49 188.44 328.02 190.23
  Q 326.16 187.75 325.51 184.98
  Q 325.27 183.99 324.28 183.52
  A 0.47 0.46 26.6 0 1 324.06 182.89
  Q 324.28 182.46 324.77 182.07
  Z"
/>
<path fill="#ffffff" d="
  M 269.33 193.14
  Q 271.00 193.69 272.28 193.44
  C 274.94 196.34 278.02 194.39 277.98 190.79
  Q 278.01 190.31 278.47 189.78
  Q 280.24 189.04 279.68 187.27
  Q 280.03 186.70 280.45 186.46
  Q 280.89 186.22 280.99 186.72
  C 281.86 191.06 282.50 198.73 276.35 199.43
  Q 271.06 200.03 269.33 193.14
  Z"
/>
<path fill="#ffffff" d="
  M 308.26 313.72
  L 299.39 314.14
  A 1.57 1.52 57.7 0 1 298.56 313.94
  Q 296.93 313.02 295.70 314.43
  C 283.07 328.97 261.45 327.96 248.01 314.88
  Q 247.67 314.55 247.21 314.47
  L 232.46 311.97
  A 0.79 0.74 -14.0 0 1 232.03 311.73
  Q 230.00 309.43 227.47 309.00
  C 219.00 295.97 212.99 281.18 212.36 265.46
  C 210.93 241.54 221.25 213.76 236.75 195.51
  Q 235.31 199.64 233.27 203.51
  C 228.86 211.88 226.02 225.52 238.90 228.40
  Q 239.37 228.50 239.55 228.95
  Q 242.18 235.66 249.26 237.27
  C 257.29 239.10 262.96 234.92 267.79 229.04
  Q 268.12 228.64 268.61 228.81
  Q 282.53 233.78 288.23 220.80
  C 290.00 215.77 288.30 208.34 286.84 203.04
  C 286.07 200.22 285.96 197.50 285.54 194.65
  A 0.59 0.58 19.4 0 1 286.55 194.17
  L 289.55 197.39
  A 0.33 0.32 -87.2 0 0 290.03 196.95
  Q 286.24 192.58 287.71 186.56
  Q 287.87 185.94 288.38 186.32
  Q 288.90 186.69 289.12 187.37
  A 1.81 1.76 12.4 0 0 289.63 188.14
  C 298.60 196.05 305.21 205.94 310.72 216.76
  C 321.52 237.96 322.31 259.41 319.09 282.48
  Q 316.76 299.23 308.26 313.72
  Z"
/>
<path fill="#ccc4bf" d="
  M 279.68 187.27
  Q 280.24 189.04 278.47 189.78
  Q 278.21 189.46 278.67 188.99
  Q 278.96 188.69 278.57 188.53
  Q 278.31 188.44 277.91 188.47
  L 279.68 187.27
  Z"
/>
<path fill="#dcd5d1" d="
  M 277.91 188.47
  Q 278.31 188.44 278.57 188.53
  Q 278.96 188.69 278.67 188.99
  Q 278.21 189.46 278.47 189.78
  Q 278.01 190.31 277.98 190.79
  Q 276.82 188.74 277.91 188.47
  Z"
/>
<path fill="#ffffff" d="
  M 243.95 197.12
  C 241.06 201.23 238.74 198.36 238.15 195.08
  Q 237.49 192.17 238.03 189.41
  Q 238.15 188.82 238.67 189.10
  C 239.30 189.43 239.70 190.11 239.69 190.88
  Q 239.66 192.88 240.62 194.67
  Q 240.89 195.17 241.46 195.23
  Q 243.70 195.47 244.50 193.28
  A 0.61 0.60 -32.4 0 1 245.67 193.54
  Q 245.46 195.76 243.95 197.12
  Z"
/>
<path fill="#ffffff" d="
  M 274.90 190.49
  A 0.46 0.46 0.0 0 1 275.50 190.93
  L 275.50 192.04
  Q 275.50 192.65 274.91 192.75
  Q 273.83 192.94 273.38 191.79
  Q 273.10 191.09 273.83 190.85
  L 274.90 190.49
  Z"
/>
<path fill="#ffffff" d="
  M 242.18 191.18
  Q 243.46 191.62 243.56 191.81
  A 1.04 0.92 -80.0 0 1 242.03 193.03
  Q 241.50 192.33 241.54 191.61
  A 0.49 0.48 10.6 0 1 242.18 191.18
  Z"
/>
<path fill="#ccc4bf" d="
  M 272.28 193.44
  Q 271.00 193.69 269.33 193.14
  L 271.06 192.40
  Q 271.51 192.22 271.84 192.57
  Q 272.17 192.92 272.28 193.44
  Z"
/>
<path fill="#3d3e42" d="
  M 238.15 195.08
  C 238.74 198.36 241.06 201.23 243.95 197.12
  Q 243.97 197.91 244.55 198.02
  Q 242.82 201.30 239.88 200.46
  A 0.25 0.14 2.7 0 1 239.80 200.41
  L 237.85 198.34
  Q 237.52 197.99 237.28 198.40
  Q 234.79 202.71 232.68 207.17
  Q 229.64 213.61 230.95 219.34
  Q 232.66 225.59 238.31 226.87
  Q 238.91 227.00 238.86 226.39
  L 238.62 223.21
  C 239.03 214.34 245.02 208.65 249.75 201.51
  A 1.22 1.22 0.0 0 1 250.56 200.98
  C 257.33 199.81 259.34 200.76 261.63 206.86
  Q 264.77 215.21 267.96 223.11
  L 268.34 226.84
  Q 268.39 227.38 268.89 227.56
  Q 281.53 232.20 286.93 220.45
  Q 287.52 220.83 288.23 220.80
  Q 282.53 233.78 268.61 228.81
  Q 268.12 228.64 267.79 229.04
  C 262.96 234.92 257.29 239.10 249.26 237.27
  Q 242.18 235.66 239.55 228.95
  Q 239.37 228.50 238.90 228.40
  C 226.02 225.52 228.86 211.88 233.27 203.51
  Q 235.31 199.64 236.75 195.51
  Q 236.57 195.23 238.15 195.08
  Z
  M 254.56 201.94
  C 251.93 201.63 250.98 201.13 249.39 203.65
  C 244.43 211.57 238.01 216.38 240.31 227.00
  C 243.04 239.69 258.70 238.06 265.34 229.90
  C 269.20 225.16 262.67 214.24 260.21 206.09
  Q 259.12 202.46 254.56 201.94
  Z"
/>
<path stroke="#634a49" stroke-width="2.00" fill="none" stroke-linecap="butt" vector-effect="non-scaling-stroke" d="
  M 254.56 201.94
  C 251.93 201.63 250.98 201.13 249.39 203.65
  C 244.43 211.57 238.01 216.38 240.31 227.00
  C 243.04 239.69 258.70 238.06 265.34 229.90
  C 269.20 225.16 262.67 214.24 260.21 206.09
  Q 259.12 202.46 254.56 201.94"
/>
<path fill="#88554f" d="
  M 254.56 201.94
  Q 259.12 202.46 260.21 206.09
  C 262.67 214.24 269.20 225.16 265.34 229.90
  C 258.70 238.06 243.04 239.69 240.31 227.00
  C 238.01 216.38 244.43 211.57 249.39 203.65
  C 250.98 201.13 251.93 201.63 254.56 201.94
  Z
  M 244.24 225.76
  L 246.20 229.32
  A 0.30 0.30 0.0 0 0 246.76 229.13
  Q 246.39 226.93 244.95 225.27
  A 0.43 0.43 0.0 0 0 244.24 225.76
  Z"
/>
<path stroke="#452b28" stroke-width="2.00" fill="none" stroke-linecap="butt" vector-effect="non-scaling-stroke" d="
  M 244.24 225.76
  L 246.20 229.32
  A 0.30 0.30 0.0 0 0 246.76 229.13
  Q 246.39 226.93 244.95 225.27
  A 0.43 0.43 0.0 0 0 244.24 225.76"
/>
<path fill="#807b78" d="
  M 251.51 223.73
  C 247.23 226.40 244.12 220.80 243.80 217.50
  C 243.47 214.18 248.10 207.59 251.19 207.33
  Q 251.64 207.29 251.97 207.59
  C 256.41 211.63 254.94 217.66 251.91 222.07
  Q 251.62 222.50 251.74 223.00
  Q 251.87 223.51 251.51 223.73
  Z"
/>
<path fill="#807b78" d="
  M 287.44 212.65
  Q 288.31 217.07 286.93 220.45
  Q 281.53 232.20 268.89 227.56
  Q 268.39 227.38 268.34 226.84
  L 267.96 223.11
  C 277.57 224.84 283.96 221.83 287.44 212.65
  Z"
/>
<path fill="#ccc4bf" d="
  M 248.03 213.94
  A 0.83 0.82 59.2 0 1 249.37 214.28
  Q 250.05 216.29 249.09 218.06
  A 0.81 0.80 39.2 0 1 247.77 218.19
  Q 245.87 215.93 248.03 213.94
  Z"
/>
<path fill="#807b78" d="
  M 230.95 219.34
  Q 234.97 223.19 238.62 223.21
  L 238.86 226.39
  Q 238.91 227.00 238.31 226.87
  Q 232.66 225.59 230.95 219.34
  Z"
/>
<path fill="#020101" fill-opacity="0.996" d="
  M 244.24 225.76
  A 0.43 0.43 0.0 0 1 244.95 225.27
  Q 246.39 226.93 246.76 229.13
  A 0.30 0.30 0.0 0 1 246.20 229.32
  L 244.24 225.76
  Z"
/>
<path fill="#3d3e42" d="
  M 254.02 230.70
  A 0.10 0.10 0.0 0 1 253.88 230.72
  L 253.87 230.71
  A 1.84 1.15 -50.8 0 1 254.14 228.56
  L 255.68 226.67
  A 1.84 1.15 -50.8 0 1 257.74 225.97
  L 257.74 225.97
  A 0.10 0.10 0.0 0 1 257.76 226.11
  L 254.02 230.70
  Z"
/>
<path fill="#020101" fill-opacity="0.996" d="
  M 164.51 265.57
  Q 163.86 265.97 163.31 265.49
  Q 162.91 265.14 162.99 264.61
  Q 163.27 262.86 162.09 262.48
  C 153.98 233.27 121.88 229.22 100.68 246.65
  A 0.31 0.30 -2.3 0 1 100.23 246.24
  L 101.01 245.17
  Q 101.31 244.75 100.92 244.40
  Q 98.67 242.39 100.24 239.55
  A 0.43 0.43 0.0 0 0 99.61 239.00
  Q 92.39 244.44 93.27 253.53
  Q 93.36 254.42 93.84 253.67
  L 95.92 250.49
  A 0.42 0.41 34.6 0 1 96.52 250.38
  Q 96.68 250.51 96.73 250.69
  Q 96.78 250.91 96.57 251.24
  C 85.27 268.71 83.01 296.00 92.74 314.60
  Q 97.89 323.83 106.89 327.91
  Q 107.45 328.16 107.66 327.58
  Q 107.99 326.71 107.82 325.50
  L 108.19 324.90
  Q 108.38 324.59 108.74 324.66
  L 109.25 324.75
  C 109.29 334.05 111.34 344.52 111.68 352.11
  Q 112.10 361.53 111.43 367.45
  C 110.86 372.59 107.58 378.38 107.44 383.97
  Q 107.32 388.82 108.55 393.06
  L 108.25 394.59
  L 109.81 410.49
  L 108.76 411.00
  Q 108.33 399.30 106.30 387.74
  C 104.92 379.83 110.33 371.56 110.71 363.93
  Q 111.46 349.15 107.65 330.20
  Q 107.56 329.74 107.13 329.55
  C 79.78 317.68 82.80 277.65 92.50 256.01
  Q 92.71 255.54 92.59 255.03
  C 91.19 249.12 93.70 238.76 100.94 237.25
  Q 101.47 237.14 101.39 237.68
  L 100.71 241.91
  A 1.61 1.61 0.0 0 0 103.23 243.47
  C 125.49 227.50 157.98 234.77 163.50 264.25
  C 163.63 264.93 164.01 265.19 164.51 265.57
  Z"
/>
<path fill="#ffffff" d="
  M 162.09 262.48
  L 162.24 264.88
  Q 162.28 265.42 161.74 265.45
  C 132.00 267.08 110.72 287.35 107.75 317.08
  Q 100.44 317.62 92.74 314.60
  C 83.01 296.00 85.27 268.71 96.57 251.24
  Q 96.78 250.91 96.73 250.69
  Q 96.68 250.51 96.52 250.38
  A 0.42 0.41 34.6 0 0 95.92 250.49
  L 93.84 253.67
  Q 93.36 254.42 93.27 253.53
  Q 92.39 244.44 99.61 239.00
  A 0.43 0.43 0.0 0 1 100.24 239.55
  Q 98.67 242.39 100.92 244.40
  Q 101.31 244.75 101.01 245.17
  L 100.23 246.24
  A 0.31 0.30 -2.3 0 0 100.68 246.65
  C 121.88 229.22 153.98 233.27 162.09 262.48
  Z"
/>
<path fill="#3d3e42" d="
  M 162.09 262.48
  Q 163.27 262.86 162.99 264.61
  Q 162.91 265.14 163.31 265.49
  Q 163.86 265.97 164.51 265.57
  Q 165.23 265.38 166.01 265.66
  Q 165.87 266.42 166.51 266.92
  C 157.95 266.67 150.13 267.56 142.03 271.10
  Q 134.65 274.33 131.45 276.68
  C 118.23 286.41 110.07 301.97 109.15 318.42
  L 109.25 324.75
  L 108.74 324.66
  Q 108.38 324.59 108.19 324.90
  L 107.82 325.50
  L 107.75 317.08
  C 110.72 287.35 132.00 267.08 161.74 265.45
  Q 162.28 265.42 162.24 264.88
  L 162.09 262.48
  Z"
/>
<path fill="#3d3e42" d="
  M 212.36 265.46
  C 212.99 281.18 219.00 295.97 227.47 309.00
  C 236.65 325.40 242.36 341.46 250.18 356.21
  L 249.06 356.62
  L 241.12 340.11
  A 0.39 0.39 0.0 0 0 240.40 340.15
  Q 238.33 346.03 233.89 350.35
  Q 233.51 350.72 233.40 351.24
  L 230.77 364.24
  L 229.52 364.71
  L 233.13 344.02
  Q 233.24 343.94 233.35 343.86
  L 234.12 348.05
  Q 234.24 348.72 234.70 348.21
  Q 238.58 343.89 240.01 338.17
  Q 240.09 337.89 239.96 337.62
  L 232.21 321.88
  Q 231.19 317.14 227.40 312.67
  Q 226.59 309.97 224.94 307.37
  C 217.48 295.57 211.22 280.64 211.21 266.85
  Q 211.21 266.43 210.82 266.27
  Q 210.67 266.21 210.49 266.20
  Q 211.18 265.68 212.36 265.46
  Z"
/>
<path fill="#cccccb" d="
  M 210.49 266.20
  Q 210.67 266.21 210.82 266.27
  Q 211.21 266.43 211.21 266.85
  C 211.22 280.64 217.48 295.57 224.94 307.37
  Q 226.59 309.97 227.40 312.67
  Q 231.50 326.35 233.05 339.99
  Q 233.27 341.99 233.13 344.02
  L 229.52 364.71
  Q 226.76 374.05 227.40 382.30
  C 228.88 394.69 223.84 406.55 210.18 408.02
  C 205.90 408.49 200.89 406.26 196.36 405.50
  Q 193.62 402.56 193.86 396.46
  Q 197.54 400.52 200.92 401.56
  C 205.34 402.92 208.71 400.76 210.85 396.88
  Q 214.38 390.46 209.53 384.53
  Q 209.22 384.15 208.77 383.96
  Q 206.94 383.15 205.63 381.63
  Q 205.39 381.36 205.03 381.35
  C 200.02 381.26 200.44 386.30 195.17 386.29
  C 196.39 383.35 198.52 380.91 198.53 377.71
  Q 198.56 364.63 193.73 352.60
  C 192.40 349.27 191.66 346.04 190.84 342.75
  Q 188.22 329.91 190.70 317.24
  C 191.20 314.71 192.57 312.10 193.53 309.60
  A 0.34 0.34 0.0 0 0 192.93 309.30
  C 187.70 317.48 187.36 327.90 188.64 337.54
  Q 167.64 339.06 148.82 329.99
  A 2.02 2.02 0.0 0 1 148.18 329.50
  Q 147.29 328.44 145.95 329.08
  C 142.44 322.90 140.91 316.53 140.20 309.51
  A 0.27 0.27 0.0 0 0 139.73 309.36
  Q 139.37 309.80 139.42 310.51
  Q 140.14 321.10 144.74 329.82
  L 146.03 332.70
  Q 145.35 336.63 144.91 340.55
  C 144.02 348.51 140.93 356.12 137.72 363.39
  C 134.27 371.21 128.79 377.40 123.17 383.77
  C 118.94 388.58 117.58 392.23 117.06 398.27
  L 108.55 393.06
  Q 107.32 388.82 107.44 383.97
  C 107.58 378.38 110.86 372.59 111.43 367.45
  Q 112.10 361.53 111.68 352.11
  C 111.34 344.52 109.29 334.05 109.25 324.75
  L 109.15 318.42
  Q 109.81 319.11 109.79 317.86
  A 0.08 0.08 0.0 0 1 109.95 317.84
  L 110.01 318.25
  Q 110.09 318.80 110.31 318.29
  Q 111.73 315.06 115.05 314.27
  Q 115.50 314.17 115.86 313.87
  C 118.91 311.32 121.23 307.87 125.64 308.65
  A 1.17 1.14 31.2 0 0 126.54 308.44
  Q 129.96 305.94 133.69 303.93
  Q 135.69 302.85 135.54 302.02
  A 3.12 2.45 -88.0 0 1 138.69 298.29
  L 141.80 299.50
  Q 142.16 299.64 142.39 299.33
  C 144.00 297.18 145.89 295.78 147.41 293.43
  Q 151.41 287.23 158.49 288.68
  Q 150.02 295.11 153.06 305.93
  A 2.03 2.03 0.0 0 0 155.88 307.21
  Q 156.80 306.78 157.37 305.16
  C 158.75 301.28 161.06 295.65 160.29 291.54
  Q 161.85 292.02 164.05 290.44
  Q 162.42 296.55 162.74 299.75
  Q 163.13 303.63 166.46 302.45
  A 2.81 2.76 -88.1 0 0 168.10 300.89
  Q 171.47 292.72 175.39 284.60
  Q 176.46 282.37 176.89 280.04
  Q 177.49 282.83 178.73 280.21
  Q 178.93 279.78 179.35 279.56
  L 184.99 276.59
  Q 185.40 276.37 185.69 276.01
  L 191.12 269.29
  Q 200.83 268.69 210.49 266.20
  Z"
/>
<path fill="#dcd5d1" d="
  M 166.51 266.92
  L 191.12 269.29
  L 185.69 276.01
  Q 185.40 276.37 184.99 276.59
  L 179.35 279.56
  Q 178.93 279.78 178.73 280.21
  Q 177.49 282.83 176.89 280.04
  C 176.97 277.72 175.55 276.65 173.43 277.76
  C 169.14 279.98 165.90 285.81 164.05 290.44
  Q 161.85 292.02 160.29 291.54
  Q 160.36 289.83 158.49 288.68
  Q 151.41 287.23 147.41 293.43
  C 145.89 295.78 144.00 297.18 142.39 299.33
  Q 142.16 299.64 141.80 299.50
  L 138.69 298.29
  A 3.12 2.45 -88.0 0 0 135.54 302.02
  Q 135.69 302.85 133.69 303.93
  Q 129.96 305.94 126.54 308.44
  A 1.17 1.14 31.2 0 1 125.64 308.65
  C 121.23 307.87 118.91 311.32 115.86 313.87
  Q 115.50 314.17 115.05 314.27
  Q 111.73 315.06 110.31 318.29
  Q 110.09 318.80 110.01 318.25
  L 109.95 317.84
  A 0.08 0.08 0.0 0 0 109.79 317.86
  Q 109.81 319.11 109.15 318.42
  C 110.07 301.97 118.23 286.41 131.45 276.68
  Q 134.65 274.33 142.03 271.10
  C 150.13 267.56 157.95 266.67 166.51 266.92
  Z"
/>
<path fill="#807b78" d="
  M 176.89 280.04
  Q 176.46 282.37 175.39 284.60
  Q 171.47 292.72 168.10 300.89
  A 2.81 2.76 -88.1 0 1 166.46 302.45
  Q 163.13 303.63 162.74 299.75
  Q 162.42 296.55 164.05 290.44
  C 165.90 285.81 169.14 279.98 173.43 277.76
  C 175.55 276.65 176.97 277.72 176.89 280.04
  Z"
/>
<path fill="#ffffff" d="
  M 165.41 301.60
  A 0.87 0.87 0.0 0 1 164.20 300.84
  Q 163.60 287.29 173.84 278.59
  A 1.15 1.15 0.0 0 1 175.73 279.54
  Q 175.69 280.22 175.27 281.11
  Q 170.95 290.27 167.12 299.65
  Q 166.53 301.11 165.41 301.60
  Z"
/>
<path fill="#807b78" d="
  M 158.49 288.68
  Q 160.36 289.83 160.29 291.54
  C 161.06 295.65 158.75 301.28 157.37 305.16
  Q 156.80 306.78 155.88 307.21
  A 2.03 2.03 0.0 0 1 153.06 305.93
  Q 150.02 295.11 158.49 288.68
  Z"
/>
<path fill="#ffffff" d="
  M 155.98 292.06
  Q 156.90 290.57 157.30 290.50
  Q 159.60 290.08 159.29 292.52
  Q 158.44 299.25 155.81 305.56
  A 0.83 0.83 0.0 0 1 154.25 305.48
  Q 152.12 298.33 155.98 292.06
  Z"
/>
<path fill="#dcd5d1" d="
  M 227.47 309.00
  Q 230.00 309.43 232.03 311.73
  A 0.79 0.74 -14.0 0 0 232.46 311.97
  L 247.21 314.47
  Q 247.67 314.55 248.01 314.88
  C 261.45 327.96 283.07 328.97 295.70 314.43
  Q 296.93 313.02 298.56 313.94
  A 1.57 1.52 57.7 0 0 299.39 314.14
  L 308.26 313.72
  Q 303.84 323.90 297.37 332.60
  C 292.32 339.39 287.54 346.55 286.24 354.76
  Q 286.21 354.96 286.34 355.19
  Q 286.48 355.44 286.34 355.70
  L 285.97 356.37
  L 281.24 357.37
  Q 280.23 357.58 281.23 357.84
  Q 282.93 358.29 285.01 357.95
  Q 284.17 358.48 283.00 358.24
  Q 281.55 357.95 281.22 359.18
  Q 281.12 359.57 281.46 359.77
  Q 285.78 362.33 290.72 361.44
  C 290.28 371.88 282.98 378.45 272.83 375.46
  C 263.45 372.70 255.55 364.83 250.18 356.21
  C 242.36 341.46 236.65 325.40 227.47 309.00
  Z"
/>
<path fill="#3d3e42" d="
  M 145.95 329.08
  L 146.20 329.76
  L 144.74 329.82
  Q 140.14 321.10 139.42 310.51
  Q 139.37 309.80 139.73 309.36
  A 0.27 0.27 0.0 0 1 140.20 309.51
  C 140.91 316.53 142.44 322.90 145.95 329.08
  Z"
/>
<path fill="#3d3e42" d="
  M 190.84 342.75
  L 189.68 342.80
  L 189.05 340.45
  L 188.64 337.54
  C 187.36 327.90 187.70 317.48 192.93 309.30
  A 0.34 0.34 0.0 0 1 193.53 309.60
  C 192.57 312.10 191.20 314.71 190.70 317.24
  Q 188.22 329.91 190.84 342.75
  Z"
/>
<path fill="#ccc4bf" d="
  M 227.40 312.67
  Q 231.19 317.14 232.21 321.88
  Q 234.33 332.41 234.25 342.58
  Q 234.25 343.06 234.02 343.35
  Q 233.73 343.72 233.35 343.86
  Q 233.24 343.94 233.13 344.02
  Q 233.27 341.99 233.05 339.99
  Q 231.50 326.35 227.40 312.67
  Z"
/>
<path fill="#dcd5d1" d="
  M 92.74 314.60
  Q 100.44 317.62 107.75 317.08
  L 107.82 325.50
  Q 107.99 326.71 107.66 327.58
  Q 107.45 328.16 106.89 327.91
  Q 97.89 323.83 92.74 314.60
  Z"
/>
<path fill="#807b78" d="
  M 232.21 321.88
  L 239.96 337.62
  Q 240.09 337.89 240.01 338.17
  Q 238.58 343.89 234.70 348.21
  Q 234.24 348.72 234.12 348.05
  L 233.35 343.86
  Q 233.73 343.72 234.02 343.35
  Q 234.25 343.06 234.25 342.58
  Q 234.33 332.41 232.21 321.88
  Z"
/>
<path fill="#ccc4bf" d="
  M 188.64 337.54
  L 189.05 340.45
  Q 180.17 340.44 171.36 339.65
  C 164.06 339.00 157.24 335.82 150.49 333.09
  C 149.44 332.67 148.79 331.46 147.46 331.81
  L 146.20 329.76
  L 145.95 329.08
  Q 147.29 328.44 148.18 329.50
  A 2.02 2.02 0.0 0 0 148.82 329.99
  Q 167.64 339.06 188.64 337.54
  Z"
/>
<path fill="#020101" fill-opacity="0.996" d="
  M 144.74 329.82
  L 146.20 329.76
  L 147.46 331.81
  L 150.47 336.81
  Q 150.66 337.92 151.44 338.75
  C 152.99 341.21 154.42 343.95 157.20 345.22
  Q 172.23 352.06 188.98 356.83
  Q 191.43 357.53 193.57 357.77
  Q 194.27 357.85 194.03 357.19
  L 192.09 352.01
  Q 192.07 351.16 191.79 350.75
  L 189.68 342.80
  L 190.84 342.75
  C 191.66 346.04 192.40 349.27 193.73 352.60
  Q 198.56 364.63 198.53 377.71
  C 198.52 380.91 196.39 383.35 195.17 386.29
  Q 193.21 391.73 193.86 396.46
  Q 193.62 402.56 196.36 405.50
  L 198.78 408.72
  L 199.42 410.95
  L 200.06 422.37
  L 200.13 433.92
  Q 200.13 435.00 199.64 434.04
  Q 199.31 433.40 199.17 432.70
  Q 199.05 432.12 198.46 432.09
  Q 193.77 431.80 190.84 428.12
  A 0.42 0.42 0.0 0 0 190.12 428.23
  Q 189.61 429.53 190.42 431.01
  L 190.15 431.07
  Q 189.81 431.16 189.76 431.51
  L 189.69 432.03
  L 188.72 425.55
  A 0.55 0.55 0.0 0 1 189.73 425.18
  Q 192.57 429.88 197.88 431.03
  A 1.05 1.05 0.0 0 0 199.15 430.04
  Q 199.49 420.61 198.24 411.26
  A 1.81 1.78 23.6 0 0 197.91 410.44
  Q 188.01 397.03 195.68 382.50
  C 198.64 376.91 196.64 365.86 194.98 360.01
  A 1.00 0.99 88.9 0 0 194.28 359.33
  L 187.07 357.42
  Q 186.46 357.26 186.51 357.89
  C 187.25 367.85 184.97 374.47 179.92 383.27
  C 174.12 393.38 170.77 404.84 173.34 416.53
  C 175.54 426.59 178.88 435.17 183.85 444.14
  Q 189.02 453.46 188.43 464.50
  A 1.27 1.27 0.0 0 1 188.06 465.32
  C 182.40 470.90 167.47 464.46 161.95 460.54
  C 159.02 458.45 157.70 456.91 157.90 453.01
  Q 158.23 446.71 157.64 440.43
  Q 157.59 439.94 157.16 439.68
  C 152.74 437.05 146.25 429.86 147.62 424.18
  Q 147.76 423.56 148.18 424.04
  Q 150.51 426.79 153.80 428.25
  A 0.64 0.55 -15.9 0 0 154.46 427.26
  L 153.42 426.78
  Q 153.00 426.59 152.66 426.28
  C 148.99 423.02 143.44 414.23 145.25 408.53
  A 0.47 0.47 0.0 0 1 146.08 408.41
  Q 148.30 411.72 152.02 413.17
  A 0.55 0.55 0.0 0 0 152.75 412.53
  Q 150.25 402.10 148.59 391.49
  Q 147.47 384.34 150.24 377.96
  C 152.53 372.70 152.82 369.56 151.39 364.30
  A 0.42 0.42 0.0 0 0 150.62 364.21
  Q 145.78 373.05 139.94 381.47
  C 133.73 390.42 130.58 400.75 131.56 411.48
  C 133.16 429.09 140.12 445.67 144.48 463.25
  C 149.97 485.32 109.77 480.65 109.90 457.49
  Q 109.94 449.96 110.05 442.22
  A 2.32 2.30 -62.8 0 0 109.61 440.83
  Q 105.02 434.57 105.63 426.73
  Q 105.70 425.94 106.21 426.54
  Q 107.23 427.76 108.22 428.86
  Q 108.59 429.28 108.96 429.29
  Q 109.24 429.30 109.44 429.16
  Q 109.90 428.85 109.55 428.42
  C 108.53 427.14 107.08 426.22 106.45 424.69
  C 104.22 419.26 103.05 414.78 105.22 409.68
  A 0.36 0.35 53.2 0 1 105.90 409.78
  Q 106.12 411.72 107.60 413.17
  Q 108.21 413.77 108.70 412.73
  L 108.75 413.68
  Q 108.77 414.13 108.34 414.03
  Q 107.79 413.90 107.09 414.11
  L 105.70 412.46
  Q 105.09 411.72 105.09 412.68
  Q 105.14 419.73 108.52 425.93
  A 0.55 0.54 27.5 0 0 109.54 425.61
  L 109.26 423.00
  L 110.46 423.00
  L 110.91 458.50
  A 0.35 0.35 0.0 0 0 111.50 458.76
  C 118.70 452.06 130.03 447.03 139.63 451.85
  A 0.54 0.53 -87.1 0 0 140.37 451.18
  Q 132.92 431.94 130.50 412.25
  L 131.10 398.29
  Q 131.66 398.32 131.52 396.71
  Q 134.24 387.02 140.00 378.85
  C 147.69 367.97 153.34 359.25 153.78 345.39
  Q 153.80 344.90 153.53 344.48
  L 147.29 334.74
  Q 146.96 333.63 146.03 332.70
  L 144.74 329.82
  Z"
/>
<g stroke-width="2.00" fill="none" stroke-linecap="butt">
<path stroke="#76716e" vector-effect="non-scaling-stroke" d="
  M 183.81 372.56
  L 183.72 371.93
  Q 183.68 371.69 183.51 371.87
  Q 183.38 371.99 183.23 372.14
  Q 183.01 372.35 182.72 372.23
  Q 180.67 371.39 179.62 373.00
  C 178.39 374.90 176.35 377.31 175.97 378.64
  Q 174.65 383.35 170.30 383.64
  C 167.08 383.85 166.10 384.29 163.56 385.64
  Q 163.12 385.87 162.63 385.79
  Q 154.23 384.35 152.51 376.31"
/>
<path stroke="#a6a09c" vector-effect="non-scaling-stroke" d="
  M 172.55 397.98
  Q 172.59 397.16 172.10 397.25"
/>
<path stroke="#5f5d5d" vector-effect="non-scaling-stroke" d="
  M 172.10 397.25
  Q 171.88 396.04 170.40 396.91
  C 164.53 400.36 154.23 394.03 150.04 389.59"
/>
<path stroke="#858181" vector-effect="non-scaling-stroke" d="
  M 172.10 397.25
  C 164.22 399.77 154.95 396.13 149.75 389.96"
/>
<path stroke="#6c696b" vector-effect="non-scaling-stroke" d="
  M 132.19 456.29
  L 129.58 450.77"
/>
<path stroke="#6c696b" vector-effect="non-scaling-stroke" d="
  M 133.63 462.60
  Q 131.88 467.22 128.31 467.99
  A 1.29 1.25 -35.1 0 1 127.38 467.84
  Q 120.16 463.62 117.83 455.48"
/>
</g>
<path fill="#807b78" d="
  M 147.46 331.81
  C 148.79 331.46 149.44 332.67 150.49 333.09
  C 157.24 335.82 164.06 339.00 171.36 339.65
  Q 180.17 340.44 189.05 340.45
  L 189.68 342.80
  L 191.79 350.75
  Q 191.62 351.10 191.25 351.01
  Q 170.52 346.31 151.49 336.87
  Q 151.22 336.73 150.99 336.74
  Q 150.74 336.75 150.47 336.81
  L 147.46 331.81
  Z"
/>
<path fill="#ccc4bf" d="
  M 146.03 332.70
  Q 146.96 333.63 147.29 334.74
  C 146.85 337.43 147.15 340.27 146.64 342.74
  Q 144.04 355.23 138.22 366.51
  C 134.50 373.74 129.15 379.68 123.53 386.55
  Q 119.21 391.83 120.55 399.26
  L 117.06 398.27
  C 117.58 392.23 118.94 388.58 123.17 383.77
  C 128.79 377.40 134.27 371.21 137.72 363.39
  C 140.93 356.12 144.02 348.51 144.91 340.55
  Q 145.35 336.63 146.03 332.70
  Z"
/>
<path fill="#807b78" d="
  M 147.29 334.74
  L 153.53 344.48
  Q 153.80 344.90 153.78 345.39
  C 153.34 359.25 147.69 367.97 140.00 378.85
  Q 134.24 387.02 131.52 396.71
  C 129.52 396.76 128.91 398.32 127.36 398.90
  Q 124.15 400.10 120.55 399.26
  Q 119.21 391.83 123.53 386.55
  C 129.15 379.68 134.50 373.74 138.22 366.51
  Q 144.04 355.23 146.64 342.74
  C 147.15 340.27 146.85 337.43 147.29 334.74
  Z"
/>
<path fill="#58575e" d="
  M 150.47 336.81
  Q 150.74 336.75 150.99 336.74
  Q 151.22 336.73 151.49 336.87
  Q 170.52 346.31 191.25 351.01
  Q 191.62 351.10 191.79 350.75
  Q 192.07 351.16 192.09 352.01
  Q 187.09 351.39 182.52 349.94
  Q 166.84 344.98 151.44 338.75
  Q 150.66 337.92 150.47 336.81
  Z"
/>
<path fill="#ccc4bf" d="
  M 151.44 338.75
  Q 166.84 344.98 182.52 349.94
  Q 187.09 351.39 192.09 352.01
  L 194.03 357.19
  Q 194.27 357.85 193.57 357.77
  Q 191.43 357.53 188.98 356.83
  Q 172.23 352.06 157.20 345.22
  C 154.42 343.95 152.99 341.21 151.44 338.75
  Z"
/>
<path fill="#ccc4bf" d="
  M 249.06 356.62
  L 253.18 362.30
  A 0.56 0.56 0.0 0 1 252.85 363.17
  Q 242.30 365.58 231.19 364.81
  Q 230.61 364.77 230.77 364.24
  L 233.40 351.24
  Q 233.51 350.72 233.89 350.35
  Q 238.33 346.03 240.40 340.15
  A 0.39 0.39 0.0 0 1 241.12 340.11
  L 249.06 356.62
  Z"
/>
<path fill="#6c6663" d="
  M 183.81 372.56
  L 183.72 371.93
  Q 183.68 371.69 183.51 371.87
  Q 183.38 371.99 183.23 372.14
  Q 183.01 372.35 182.72 372.23
  Q 180.67 371.39 179.62 373.00
  C 178.39 374.90 176.35 377.31 175.97 378.64
  Q 174.65 383.35 170.30 383.64
  C 167.08 383.85 166.10 384.29 163.56 385.64
  Q 163.12 385.87 162.63 385.79
  Q 154.23 384.35 152.51 376.31
  Q 154.36 369.45 151.82 362.03
  Q 151.67 361.60 151.86 361.19
  Q 155.06 354.33 155.07 346.77
  A 0.44 0.44 0.0 0 1 155.66 346.36
  L 184.68 357.17
  Q 185.09 357.32 185.17 357.75
  Q 186.54 365.17 183.81 372.56
  Z"
/>
<path fill="#ffffff" d="
  M 290.72 361.44
  Q 285.78 362.33 281.46 359.77
  Q 281.12 359.57 281.22 359.18
  Q 281.55 357.95 283.00 358.24
  Q 284.17 358.48 285.01 357.95
  L 286.25 357.46
  L 290.30 355.24
  Q 290.89 354.92 290.87 355.59
  L 290.72 361.44
  Z"
/>
<path fill="#807b78" d="
  M 285.97 356.37
  L 286.25 357.46
  L 285.01 357.95
  Q 282.93 358.29 281.23 357.84
  Q 280.23 357.58 281.24 357.37
  L 285.97 356.37
  Z"
/>
<path fill="#6c6663" d="
  M 278.92 379.61
  C 274.82 384.02 267.03 394.04 260.09 392.35
  A 1.02 0.99 79.0 0 1 259.50 391.94
  Q 258.15 389.95 255.75 389.67
  Q 255.26 389.62 254.97 389.22
  L 253.12 386.77
  Q 252.81 386.37 252.33 386.19
  L 247.98 384.64
  Q 253.17 376.59 251.18 365.85
  A 0.79 0.79 0.0 0 1 251.67 364.96
  L 254.25 363.97
  A 0.62 0.61 -29.7 0 1 254.95 364.16
  Q 263.85 375.20 277.89 377.48
  Q 278.34 377.55 278.46 377.98
  L 278.92 379.61
  Z"
/>
<path fill="#807b78" d="
  M 183.81 372.56
  Q 182.28 377.31 178.31 384.06
  Q 175.21 389.35 172.55 397.98
  Q 172.59 397.16 172.10 397.25
  Q 171.88 396.04 170.40 396.91
  C 164.53 400.36 154.23 394.03 150.04 389.59
  Q 148.13 383.07 152.51 376.31
  Q 154.23 384.35 162.63 385.79
  Q 163.12 385.87 163.56 385.64
  C 166.10 384.29 167.08 383.85 170.30 383.64
  Q 174.65 383.35 175.97 378.64
  C 176.35 377.31 178.39 374.90 179.62 373.00
  Q 180.67 371.39 182.72 372.23
  Q 183.01 372.35 183.23 372.14
  Q 183.38 371.99 183.51 371.87
  Q 183.68 371.69 183.72 371.93
  L 183.81 372.56
  Z"
/>
<path fill="#807b78" d="
  M 278.92 379.61
  Q 283.58 386.44 282.71 393.00
  Q 281.68 400.71 275.31 408.11
  Q 276.04 408.54 274.52 408.31
  L 274.94 407.65
  Q 275.21 407.23 274.73 407.38
  Q 265.77 410.22 256.95 407.63
  Q 254.16 406.81 252.31 404.70
  Q 244.86 396.22 247.98 384.64
  L 252.33 386.19
  Q 252.81 386.37 253.12 386.77
  L 254.97 389.22
  Q 255.26 389.62 255.75 389.67
  Q 258.15 389.95 259.50 391.94
  A 1.02 0.99 79.0 0 0 260.09 392.35
  C 267.03 394.04 274.82 384.02 278.92 379.61
  Z"
/>
<path fill="#dcd5d1" d="
  M 193.86 396.46
  Q 193.21 391.73 195.17 386.29
  C 200.44 386.30 200.02 381.26 205.03 381.35
  Q 205.39 381.36 205.63 381.63
  Q 206.94 383.15 208.77 383.96
  Q 209.22 384.15 209.53 384.53
  Q 214.38 390.46 210.85 396.88
  C 208.71 400.76 205.34 402.92 200.92 401.56
  Q 197.54 400.52 193.86 396.46
  Z"
/>
<path fill="#ccc4bf" d="
  M 227.40 382.30
  Q 229.07 383.35 229.49 385.49
  Q 228.95 387.91 228.44 392.25
  C 227.17 402.98 219.77 410.24 208.98 410.19
  Q 205.42 410.17 201.54 409.94
  Q 200.40 408.70 198.78 408.72
  L 196.36 405.50
  C 200.89 406.26 205.90 408.49 210.18 408.02
  C 223.84 406.55 228.88 394.69 227.40 382.30
  Z"
/>
<path fill="#807b78" d="
  M 229.49 385.49
  C 234.62 394.29 231.15 405.52 223.76 411.34
  Q 212.10 415.01 201.54 409.94
  Q 205.42 410.17 208.98 410.19
  C 219.77 410.24 227.17 402.98 228.44 392.25
  Q 228.95 387.91 229.49 385.49
  Z"
/>
<path fill="#3d3e42" d="
  M 150.04 389.59
  C 154.23 394.03 164.53 400.36 170.40 396.91
  Q 171.88 396.04 172.10 397.25
  C 164.22 399.77 154.95 396.13 149.75 389.96
  Q 149.78 390.69 150.04 389.59
  Z"
/>
<path fill="#ccc4bf" d="
  M 149.75 389.96
  C 154.95 396.13 164.22 399.77 172.10 397.25
  Q 172.59 397.16 172.55 397.98
  C 168.98 412.90 175.07 430.35 181.98 443.56
  A 0.34 0.34 0.0 0 1 181.54 444.03
  C 174.64 440.86 165.16 445.79 159.88 450.11
  Q 159.34 450.56 159.30 449.85
  C 158.36 431.01 153.64 413.77 149.99 394.50
  Q 149.53 392.05 149.75 389.96
  Z"
/>
<path fill="#58575e" d="
  M 108.55 393.06
  L 117.06 398.27
  L 120.55 399.26
  Q 124.15 400.10 127.36 398.90
  C 128.91 398.32 129.52 396.76 131.52 396.71
  Q 131.66 398.32 131.10 398.29
  Q 131.38 398.34 131.28 398.03
  Q 131.17 397.70 130.90 397.91
  Q 126.76 401.12 120.64 400.15
  Q 114.39 399.25 108.25 394.59
  L 108.55 393.06
  Z"
/>
<path fill="#ffffff" d="
  M 108.25 394.59
  Q 114.39 399.25 120.64 400.15
  Q 124.30 407.66 130.50 412.25
  Q 132.92 431.94 140.37 451.18
  A 0.54 0.53 -87.1 0 1 139.63 451.85
  C 130.03 447.03 118.70 452.06 111.50 458.76
  A 0.35 0.35 0.0 0 1 110.91 458.50
  L 110.46 423.00
  L 109.81 410.49
  L 108.25 394.59
  Z"
/>
<path fill="#dcd5d1" d="
  M 131.10 398.29
  L 130.50 412.25
  Q 124.30 407.66 120.64 400.15
  Q 126.76 401.12 130.90 397.91
  Q 131.17 397.70 131.28 398.03
  Q 131.38 398.34 131.10 398.29
  Z"
/>
<path fill="#ccc4bf" d="
  M 274.52 408.31
  Q 276.04 408.54 275.31 408.11
  C 272.87 427.99 276.47 443.61 283.70 461.93
  Q 283.95 462.57 283.30 462.35
  C 273.35 459.13 259.87 466.59 252.10 472.49
  A 0.26 0.25 71.7 0 1 251.69 472.28
  L 252.41 437.14
  Q 252.41 436.86 252.15 436.95
  Q 251.99 437.00 251.84 437.05
  Q 251.73 437.09 251.72 437.22
  L 251.21 444.03
  Q 251.16 444.73 250.60 444.31
  Q 240.59 436.84 239.47 424.32
  A 0.40 0.40 0.0 0 1 240.19 424.05
  Q 244.44 429.94 251.77 430.73
  A 0.54 0.53 3.0 0 1 252.25 431.26
  L 252.25 432.03
  Q 252.25 433.11 252.46 432.05
  C 254.01 424.18 253.42 415.98 253.78 407.97
  A 0.44 0.44 0.0 0 1 254.37 407.57
  Q 264.26 411.20 274.52 408.31
  Z"
/>
<path fill="#58575e" d="
  M 198.78 408.72
  Q 200.40 408.70 201.54 409.94
  Q 212.10 415.01 223.76 411.34
  Q 223.58 412.43 223.38 412.57
  C 213.83 414.23 208.43 414.09 199.42 410.95
  L 198.78 408.72
  Z"
/>
<path fill="#3d3e42" d="
  M 109.81 410.49
  L 110.46 423.00
  L 109.26 423.00
  L 108.73 415.61
  Q 108.69 415.13 108.33 414.80
  Q 107.85 414.37 107.09 414.11
  Q 107.79 413.90 108.34 414.03
  Q 108.77 414.13 108.75 413.68
  L 108.70 412.73
  L 108.76 411.00
  L 109.81 410.49
  Z"
/>
<path fill="#ccc4bf" d="
  M 153.02 414.56
  A 0.39 0.39 0.0 0 1 153.35 414.88
  L 155.24 425.80
  A 0.45 0.45 0.0 0 1 154.51 426.23
  Q 147.24 420.35 145.98 410.99
  A 0.32 0.32 0.0 0 1 146.56 410.75
  Q 148.94 413.98 153.02 414.56
  Z"
/>
<path fill="#dcd5d1" d="
  M 223.38 412.57
  Q 220.61 428.05 223.38 443.03
  Q 222.15 444.28 221.75 442.79
  Q 221.53 441.96 221.30 441.58
  Q 213.81 428.80 200.06 422.37
  L 199.42 410.95
  C 208.43 414.09 213.83 414.23 223.38 412.57
  Z"
/>
<path fill="#ffffff" d="
  M 107.09 414.11
  Q 107.85 414.37 108.33 414.80
  Q 108.69 415.13 108.73 415.61
  L 109.26 423.00
  L 109.54 425.61
  A 0.55 0.54 27.5 0 1 108.52 425.93
  Q 105.14 419.73 105.09 412.68
  Q 105.09 411.72 105.70 412.46
  L 107.09 414.11
  Z"
/>
<path fill="#ffffff" d="
  M 200.06 422.37
  Q 213.81 428.80 221.30 441.58
  Q 221.53 441.96 221.75 442.79
  Q 222.15 444.28 223.38 443.03
  Q 226.20 456.92 230.88 470.26
  A 0.38 0.38 0.0 0 1 230.31 470.71
  C 221.33 464.94 209.51 469.38 202.33 476.08
  Q 200.69 477.60 198.98 479.02
  Q 198.44 479.47 198.45 478.76
  L 198.84 461.01
  L 199.57 449.75
  L 199.58 446.25
  Q 199.95 442.69 199.59 439.07
  Q 199.56 438.72 199.22 438.69
  Q 198.80 438.64 198.77 439.06
  L 198.30 445.42
  Q 191.77 439.39 190.42 431.01
  Q 189.61 429.53 190.12 428.23
  A 0.42 0.42 0.0 0 1 190.84 428.12
  Q 193.77 431.80 198.46 432.09
  Q 199.05 432.12 199.17 432.70
  Q 199.31 433.40 199.64 434.04
  Q 200.13 435.00 200.13 433.92
  L 200.06 422.37
  Z"
/>
<path fill="#ccc4bf" d="
  M 156.27 437.74
  Q 150.37 433.33 148.29 426.22
  A 0.33 0.33 0.0 0 1 148.86 425.93
  Q 150.69 428.30 153.57 429.14
  Q 154.53 429.42 154.58 429.42
  Q 155.80 429.46 156.04 430.99
  Q 156.59 434.47 157.17 437.16
  Q 157.49 438.65 156.27 437.74
  Z"
/>
<path fill="#ffffff" d="
  M 106.94 429.30
  C 110.26 430.02 110.05 435.82 109.84 438.26
  A 0.48 0.47 39.4 0 1 108.91 438.35
  L 106.41 429.87
  Q 106.20 429.14 106.94 429.30
  Z"
/>
<path fill="#3d3e42" d="
  M 190.42 431.01
  Q 191.77 439.39 198.30 445.42
  Q 198.23 445.78 199.58 446.25
  L 199.57 449.75
  L 198.18 449.93
  L 193.97 447.94
  Q 193.52 447.73 193.28 447.29
  Q 192.70 446.23 191.72 445.77
  Q 191.09 445.48 191.20 446.17
  Q 192.49 454.17 197.16 460.57
  L 197.75 461.04
  L 197.77 463.01
  C 193.81 458.72 189.21 449.95 190.35 443.44
  Q 190.51 442.51 191.05 443.28
  Q 193.48 446.75 197.42 448.26
  A 0.54 0.54 0.0 0 0 198.00 447.37
  C 194.71 444.06 189.54 436.89 189.69 432.03
  L 189.76 431.51
  Q 189.81 431.16 190.15 431.07
  L 190.42 431.01
  Z"
/>
<path fill="#6c6663" d="
  M 199.58 446.25
  Q 198.23 445.78 198.30 445.42
  L 198.77 439.06
  Q 198.80 438.64 199.22 438.69
  Q 199.56 438.72 199.59 439.07
  Q 199.95 442.69 199.58 446.25
  Z"
/>
<path fill="#3d3e42" d="
  M 181.51 449.40
  Q 184.14 457.24 183.79 465.40
  Q 183.76 466.19 182.97 466.20
  Q 169.34 466.45 159.61 457.13
  A 1.25 1.25 0.0 0 1 159.21 456.19
  L 159.23 453.04
  A 1.09 1.06 67.6 0 1 159.53 452.29
  C 164.56 446.90 175.17 441.22 182.09 445.41
  C 186.32 447.97 187.03 457.77 187.19 462.49
  Q 187.27 465.05 185.42 465.63
  A 0.49 0.49 0.0 0 1 184.79 465.14
  C 184.96 460.84 184.37 452.54 181.55 449.38
  Q 181.48 449.31 181.51 449.40
  Z"
/>
<path fill="#ccc4bf" d="
  M 251.32 448.81
  L 251.04 458.45
  Q 251.02 459.33 250.37 458.74
  Q 244.00 452.88 241.73 444.48
  A 0.46 0.46 0.0 0 1 242.49 444.03
  Q 245.88 447.26 250.53 447.87
  Q 251.35 447.98 251.32 448.81
  Z"
/>
<path fill="#ffffff" d="
  M 198.18 449.93
  L 197.69 460.17
  Q 197.68 460.45 197.40 460.52
  Q 197.29 460.54 197.16 460.57
  Q 192.49 454.17 191.20 446.17
  Q 191.09 445.48 191.72 445.77
  Q 192.70 446.23 193.28 447.29
  Q 193.52 447.73 193.97 447.94
  L 198.18 449.93
  Z"
/>
<path fill="#6c6663" d="
  M 199.57 449.75
  L 198.84 461.01
  L 197.75 461.04
  L 197.16 460.57
  Q 197.29 460.54 197.40 460.52
  Q 197.68 460.45 197.69 460.17
  L 198.18 449.93
  L 199.57 449.75
  Z"
/>
<path fill="#58575e" d="
  M 132.19 456.29
  L 129.58 450.77
  Q 135.17 450.21 140.00 453.35
  A 1.75 1.74 -85.6 0 1 140.64 454.10
  Q 143.18 459.88 143.68 466.08
  C 144.15 471.76 141.62 473.88 136.79 475.81
  A 1.12 1.12 0.0 0 1 135.26 474.71
  Q 135.84 465.38 132.19 456.29
  Z"
/>
<path fill="#807b78" d="
  M 129.58 450.77
  L 132.19 456.29
  L 133.63 462.60
  Q 131.88 467.22 128.31 467.99
  A 1.29 1.25 -35.1 0 1 127.38 467.84
  Q 120.16 463.62 117.83 455.48
  Q 122.96 451.94 129.58 450.77
  Z"
/>
<path fill="#ccc4bf" d="
  M 126.09 453.81
  A 1.15 1.15 0.0 0 1 127.47 454.68
  L 128.37 458.65
  A 5.04 2.42 77.2 0 1 127.12 464.10
  L 126.93 464.14
  A 5.04 2.42 77.2 0 1 123.45 459.77
  L 122.55 455.80
  A 1.15 1.15 0.0 0 1 123.42 454.42
  L 126.09 453.81
  Z"
/>
<path fill="#58575e" d="
  M 117.83 455.48
  Q 120.16 463.62 127.38 467.84
  A 1.29 1.25 -35.1 0 0 128.31 467.99
  Q 131.88 467.22 133.63 462.60
  Q 135.33 469.17 134.77 475.69
  A 0.92 0.91 1.0 0 1 133.89 476.53
  Q 118.18 477.17 111.90 463.35
  C 110.40 460.07 115.45 456.65 117.83 455.48
  Z"
/>
<path fill="#3d3e42" d="
  M 280.67 467.86
  C 282.76 472.26 286.28 481.69 285.73 487.86
  A 0.96 0.95 -2.8 0 1 284.94 488.72
  C 273.97 490.59 256.19 488.14 251.71 475.33
  A 1.17 1.16 -29.3 0 1 252.08 474.04
  C 258.37 468.86 274.00 459.39 282.16 463.37
  Q 284.62 464.58 286.29 467.91
  C 288.94 473.15 292.81 483.66 286.82 487.22
  Q 286.49 487.42 286.47 487.03
  Q 285.96 477.50 281.53 469.12
  Q 281.50 469.05 281.25 468.24
  Q 281.14 467.88 280.83 467.72
  Q 280.53 467.56 280.67 467.86
  Z"
/>
<path fill="#58575e" d="
  M 223.38 475.60
  Q 220.59 474.41 219.32 469.42
  C 224.39 468.88 230.40 470.22 232.76 475.24
  C 236.10 482.34 240.42 495.61 228.22 497.77
  A 0.70 0.70 0.0 0 1 227.40 497.09
  Q 227.25 485.64 223.38 475.60
  Z"
/>
<path fill="#807b78" d="
  M 219.32 469.42
  Q 220.59 474.41 223.38 475.60
  L 224.35 480.20
  L 223.66 487.06
  Q 223.60 487.65 223.16 488.05
  L 219.43 491.44
  Q 218.98 491.85 218.46 491.56
  Q 208.04 485.76 207.48 473.55
  Q 212.91 470.02 219.32 469.42
  Z"
/>
<path fill="#58575e" d="
  M 207.48 473.55
  Q 208.04 485.76 218.46 491.56
  Q 218.98 491.85 219.43 491.44
  L 223.16 488.05
  Q 223.60 487.65 223.66 487.06
  L 224.35 480.20
  Q 226.54 488.75 226.68 497.62
  Q 226.68 498.15 226.16 498.20
  C 216.47 499.17 198.90 493.75 199.06 481.44
  Q 199.06 480.97 199.35 480.59
  Q 202.73 476.20 207.48 473.55
  Z"
/>
<path fill="#ccc4bf" d="
  M 218.19 483.27
  A 1.84 1.84 0.0 0 1 214.66 483.92
  Q 213.18 480.38 212.95 476.68
  Q 212.91 476.08 213.45 475.83
  L 215.80 474.70
  A 0.84 0.84 0.0 0 1 216.96 475.18
  Q 218.32 479.08 218.19 483.27
  Z"
/>
</svg>
