<?xml version="1.0" encoding="UTF-8"?>
<svg
  id="Collection_Cards"
  xmlns="http://www.w3.org/2000/svg"
  version="1.1"
  viewBox="0 0 56.02 56.02"
>
  <defs>
    <style>
      .st0 {
        fill: #fff;
      }

      .st1 {
        fill: #171717;
      }
    </style>
  </defs>
  <rect
    id="background"
    class="st0"
    width="56.02"
    height="56.02"
    rx="5.01"
    ry="5.01"
  />
  <path
    id="C"
    class="st1"
    d="M25.13,43.89c0,.77-.26,1.41-.75,1.89-.5.49-1.14.73-1.92.73h-9.53c-.77,0-1.41-.24-1.89-.73-.49-.49-.73-1.12-.73-1.89V12.13c0-.77.24-1.4.73-1.89s1.12-.73,1.89-.73h9.53c.77,0,1.41.24,1.92.73s.75,1.12.75,1.89v8.61h-3.31v-8.33h-8.23v31.2h8.23v-9.11h3.31v9.39h0Z"
  />
  <path
    id="C1"
    class="st1"
    d="M45.71,43.89c0,.77-.26,1.41-.75,1.89-.5.49-1.14.73-1.92.73h-9.53c-.77,0-1.41-.24-1.89-.73-.49-.49-.73-1.12-.73-1.89V12.13c0-.77.24-1.41.73-1.89.49-.48,1.12-.73,1.89-.73h9.53c.77,0,1.41.24,1.92.73s.75,1.12.75,1.89v8.61h-3.31v-8.33h-8.23v31.2h8.23v-9.11h3.31v9.39h0Z"
  />
</svg>
