<?xml version="1.0" encoding="UTF-8" standalone="no"?>
<svg xmlns="http://www.w3.org/2000/svg" version="1.2" baseProfile="tiny" viewBox="0.00 0.00 500.00 500.00">
<path fill="#010001" d="
  M 299.04 187.35
  Q 298.54 184.02 294.70 184.47
  Q 294.75 183.95 295.57 183.86
  Q 308.79 182.32 322.00 180.75
  Q 322.70 180.67 322.88 179.96
  Q 323.01 179.46 322.50 179.47
  C 313.22 179.61 303.98 178.70 294.82 180.33
  Q 294.50 180.39 294.50 180.05
  Q 294.50 179.90 294.50 179.76
  A 0.40 0.40 0.0 0 1 294.83 179.37
  L 297.33 178.90
  A 0.69 0.69 0.0 0 0 297.84 177.95
  L 296.83 175.63
  A 0.76 0.76 0.0 0 0 295.87 175.22
  L 294.29 175.82
  A 0.41 0.41 0.0 0 1 293.93 175.09
  C 299.71 171.54 307.94 167.42 312.40 162.74
  A 0.38 0.38 0.0 0 0 311.97 162.14
  Q 302.23 166.61 292.74 171.11
  C 292.10 171.42 291.37 172.17 290.65 172.45
  Q 290.18 172.64 290.23 172.14
  Q 290.26 171.80 290.59 171.53
  Q 292.08 170.32 290.47 169.27
  Q 285.70 166.17 280.87 165.79
  C 268.77 163.70 258.76 168.34 248.71 174.22
  C 245.99 175.81 244.32 176.96 242.98 180.13
  Q 241.53 183.58 237.88 184.89
  Q 237.33 185.08 237.35 185.66
  L 237.61 192.64
  Q 237.63 193.32 238.30 193.20
  L 252.42 190.68
  Q 269.92 187.47 285.42 179.27
  A 0.34 0.34 0.0 0 1 285.84 179.78
  C 282.28 184.16 266.97 188.75 261.51 189.99
  A 0.95 0.95 0.0 0 0 260.77 190.89
  L 260.52 198.69
  Q 259.53 201.08 256.24 201.78
  Q 240.25 205.17 222.10 204.62
  Q 221.61 204.60 221.26 204.26
  L 219.95 202.96
  L 218.84 195.98
  Q 218.76 195.48 218.25 195.44
  Q 208.21 194.75 198.35 192.75
  Q 197.50 192.58 197.11 191.99
  A 0.35 0.35 0.0 0 1 197.48 191.46
  Q 216.59 195.60 236.06 193.22
  Q 236.58 193.16 236.55 192.63
  L 236.14 185.23
  A 0.63 0.62 -87.1 0 0 235.62 184.65
  C 231.36 183.90 230.00 181.18 226.62 179.86
  C 216.92 176.06 206.16 173.72 196.22 178.20
  C 193.10 179.61 191.04 180.45 189.65 183.17
  Q 189.50 183.47 189.18 183.38
  L 166.42 176.48
  A 0.58 0.58 0.0 0 0 165.67 177.12
  Q 165.77 177.93 166.85 178.38
  Q 176.46 182.40 186.21 186.14
  Q 186.82 186.38 186.60 187.00
  Q 186.38 187.63 185.82 188.06
  A 1.50 1.41 -7.6 0 0 185.38 188.60
  Q 184.61 190.18 186.08 190.93
  A 0.43 0.42 -33.8 0 1 185.92 191.73
  Q 174.32 192.76 162.69 193.91
  Q 162.01 193.98 161.90 194.09
  A 0.81 0.80 -68.7 0 0 162.50 195.47
  C 167.73 195.26 171.87 195.48 177.78 195.09
  Q 182.26 194.80 186.54 195.79
  Q 183.86 197.14 182.76 196.62
  Q 173.51 196.41 164.01 196.44
  Q 161.40 196.45 159.36 195.14
  A 0.78 0.78 0.0 0 1 159.55 193.74
  C 166.43 191.56 175.50 191.40 182.38 190.75
  A 2.43 2.43 0.0 0 0 182.94 186.04
  C 178.01 184.35 167.50 180.94 163.62 177.02
  A 0.56 0.55 -34.5 0 1 163.79 176.12
  C 167.69 174.36 183.97 180.58 187.53 181.98
  A 0.89 0.89 0.0 0 0 188.27 181.94
  Q 190.74 180.66 190.70 178.96
  Q 190.25 155.16 206.56 138.68
  A 1.09 1.09 0.0 0 0 206.13 136.88
  Q 186.95 130.56 172.53 116.46
  A 1.06 1.06 0.0 0 0 170.75 116.99
  C 163.85 148.01 141.49 176.72 117.91 198.25
  A 1.47 1.46 -49.6 0 0 118.09 200.56
  C 119.93 201.76 120.66 203.50 121.00 205.76
  Q 123.17 220.32 118.03 235.02
  C 112.04 252.13 103.76 267.55 84.71 271.56
  C 82.25 272.08 80.15 271.60 77.87 273.61
  C 67.99 282.32 51.48 282.68 39.71 278.60
  Q 37.57 277.86 35.14 277.85
  C 22.76 277.78 15.15 271.22 9.31 260.35
  C -5.02 233.65 -0.33 195.30 10.88 168.39
  C 20.32 145.72 37.68 122.55 60.26 104.07
  C 73.14 93.54 84.92 85.03 98.92 77.57
  C 115.08 68.96 137.58 61.14 156.07 62.02
  A 2.69 2.66 20.1 0 0 158.32 60.99
  C 162.30 55.90 168.05 51.24 174.68 50.17
  C 180.73 49.19 177.45 62.72 176.41 65.15
  A 1.07 1.07 0.0 0 0 176.87 66.50
  Q 184.54 70.80 191.36 76.33
  C 206.67 88.74 217.39 108.94 222.58 127.66
  A 1.69 1.69 0.0 0 0 224.76 128.81
  Q 235.10 125.20 245.88 127.24
  A 0.59 0.58 5.2 0 0 246.58 126.66
  C 246.12 101.87 254.03 82.78 273.84 67.58
  A 2.31 2.30 65.5 0 0 274.70 65.27
  C 273.48 59.29 273.12 50.74 277.93 45.87
  Q 278.29 45.51 278.79 45.48
  C 281.00 45.34 282.68 47.20 284.04 47.91
  Q 290.05 51.03 294.06 56.20
  A 1.23 1.22 66.3 0 0 295.23 56.66
  C 310.15 54.19 326.14 54.00 340.86 57.92
  C 347.54 59.69 354.62 61.07 360.81 63.28
  C 377.42 69.22 389.05 75.87 404.69 86.37
  Q 419.11 96.05 428.02 105.49
  C 434.69 112.57 441.81 119.41 447.52 127.07
  Q 451.71 132.70 455.75 138.44
  C 467.52 155.15 476.23 174.04 479.76 194.25
  C 480.35 197.69 485.39 201.77 487.82 204.40
  C 501.77 219.45 502.39 237.77 495.05 256.30
  Q 488.81 272.08 473.43 278.42
  Q 471.20 279.34 469.55 280.90
  C 464.61 285.57 459.17 289.91 452.67 292.01
  C 443.10 295.11 433.53 295.38 424.55 290.15
  Q 424.11 289.89 423.62 290.04
  C 415.53 292.38 405.23 292.93 397.59 291.25
  C 393.62 290.38 383.94 286.51 383.99 281.34
  A 1.23 1.22 -22.2 0 1 384.35 280.50
  Q 388.19 276.81 394.45 270.19
  C 401.31 262.93 404.19 255.62 406.12 246.07
  C 407.42 239.62 406.22 228.73 399.50 225.28
  C 391.97 221.40 383.53 217.58 376.89 213.74
  C 354.42 200.75 332.53 182.91 317.06 161.94
  C 310.60 153.20 306.33 144.72 301.53 135.76
  C 297.33 127.94 294.22 120.72 291.20 112.83
  A 0.48 0.48 0.0 0 0 290.42 112.65
  Q 278.78 123.54 264.87 130.93
  Q 264.33 131.22 264.26 131.34
  A 1.03 1.02 -57.9 0 0 264.59 132.80
  C 275.94 139.46 285.68 150.56 287.42 164.01
  C 287.78 166.77 290.45 167.98 292.51 169.50
  Q 292.93 169.81 293.39 169.58
  C 299.48 166.55 307.05 162.17 313.70 160.95
  A 0.83 0.83 0.0 0 1 314.50 162.29
  C 310.95 166.67 303.45 170.73 298.49 173.42
  A 1.15 1.14 81.2 0 0 297.91 174.22
  C 297.37 177.37 299.70 178.74 302.61 178.48
  Q 312.97 177.52 323.97 178.44
  A 1.10 1.10 0.0 0 1 324.92 179.89
  C 324.63 180.76 323.46 181.55 322.49 181.71
  Q 312.17 183.44 301.74 184.26
  Q 299.55 184.44 299.04 187.35
  Z"
/>
<g stroke-width="2.00" fill="none" stroke-linecap="butt">
<path stroke="#bcbcbc" vector-effect="non-scaling-stroke" d="
  M 313.70 56.49
  Q 314.07 59.10 313.10 61.39
  A 1.07 1.05 -80.9 0 1 312.23 62.03
  Q 306.26 62.57 300.89 64.87
  A 1.45 1.44 -48.1 0 0 301.03 67.58
  C 302.50 68.02 302.64 69.90 302.92 71.21
  Q 303.96 76.02 304.16 80.92
  C 304.29 84.06 302.66 86.59 302.58 89.99
  Q 302.56 90.46 302.28 90.83
  Q 301.16 92.26 301.96 93.74
  Q 302.12 94.01 302.06 94.33
  Q 301.60 96.68 303.41 98.02
  A 1.54 1.52 -27.4 0 0 304.38 98.32
  Q 307.68 98.18 307.81 101.24
  Q 307.84 101.91 308.39 102.30
  L 310.50 103.80
  Q 310.93 104.11 311.08 104.62
  Q 311.72 106.83 313.38 108.29
  C 316.12 110.70 317.01 112.69 318.41 115.78
  A 1.29 1.28 86.2 0 0 319.21 116.49
  Q 321.62 117.23 322.02 119.70
  Q 322.11 120.26 322.58 120.57
  C 326.73 123.29 329.25 127.18 333.33 129.63
  C 338.04 132.46 341.47 137.17 344.88 140.14
  Q 356.08 149.91 367.01 160.00
  C 368.50 161.37 373.42 162.19 375.80 163.38
  Q 378.87 164.91 382.20 166.29"
/>
<path stroke="#5a5a5c" vector-effect="non-scaling-stroke" d="
  M 382.20 166.29
  Q 381.77 169.23 383.19 172.06
  Q 385.97 177.64 391.88 174.30"
/>
<path stroke="#bcbcbc" vector-effect="non-scaling-stroke" d="
  M 391.88 174.30
  Q 391.85 174.86 392.44 175.32
  Q 392.82 175.61 393.29 175.48
  Q 398.70 173.96 404.21 175.01
  C 406.92 175.52 408.91 177.70 411.36 179.05"
/>
<path stroke="#9f9d9c" vector-effect="non-scaling-stroke" d="
  M 286.75 94.64
  Q 286.48 95.82 285.92 96.35
  A 0.38 0.37 -55.2 0 1 285.54 96.42
  L 282.79 95.39
  A 0.74 0.74 0.0 0 0 281.82 95.87
  Q 281.04 98.42 279.40 97.55"
/>
<path stroke="#5a5a5c" vector-effect="non-scaling-stroke" d="
  M 279.40 97.55
  L 279.43 93.66
  Q 279.43 92.93 278.78 93.25
  L 274.17 95.46"
/>
<path stroke="#8f8c96" vector-effect="non-scaling-stroke" d="
  M 274.17 95.46
  Q 268.49 92.31 261.49 90.83
  C 259.53 90.42 256.73 91.63 255.82 89.32"
/>
<path stroke="#36323c" vector-effect="non-scaling-stroke" d="
  M 274.17 95.46
  Q 257.42 109.32 254.61 129.95
  Q 254.54 130.46 254.96 130.16
  Q 271.26 118.56 278.24 101.56"
/>
<path stroke="#7a747c" vector-effect="non-scaling-stroke" d="
  M 278.24 101.56
  Q 283.02 101.86 287.93 100.57"
/>
<path stroke="#8f8c96" vector-effect="non-scaling-stroke" d="
  M 253.39 135.84
  Q 252.38 135.18 250.82 135.60
  A 1.18 1.16 -37.3 0 1 249.95 135.49
  Q 247.90 134.35 247.91 131.82"
/>
<path stroke="#464342" vector-effect="non-scaling-stroke" d="
  M 279.40 97.55
  L 278.24 101.56"
/>
<path stroke="#636262" vector-effect="non-scaling-stroke" d="
  M 391.88 174.30
  C 401.37 165.85 385.97 149.20 382.20 166.29"
/>
<path stroke="#8f8c96" vector-effect="non-scaling-stroke" d="
  M 222.73 132.69
  Q 220.46 138.60 214.37 136.87
  Q 213.88 136.73 213.41 136.93
  L 212.46 137.33"
/>
<path stroke="#36323c" vector-effect="non-scaling-stroke" d="
  M 184.99 108.41
  C 189.82 116.40 201.52 130.58 211.66 131.48
  A 0.27 0.27 0.0 0 0 211.92 131.08
  Q 203.45 114.92 188.99 105.13"
/>
<path stroke="#7a747c" vector-effect="non-scaling-stroke" d="
  M 206.72 96.03
  Q 200.47 99.01 194.36 102.37
  C 192.71 103.27 190.69 103.15 188.99 105.13"
/>
<path stroke="#464342" vector-effect="non-scaling-stroke" d="
  M 188.99 105.13
  Q 187.69 104.71 186.99 104.06"
/>
<path stroke="#9f9d9c" vector-effect="non-scaling-stroke" d="
  M 205.23 93.83
  L 189.24 102.02
  A 1.17 1.16 -6.4 0 0 188.64 102.77
  Q 188.31 104.01 186.99 104.06"
/>
<path stroke="#5a5a5c" vector-effect="non-scaling-stroke" d="
  M 186.99 104.06
  Q 185.66 103.33 184.16 103.52
  Q 183.63 103.59 183.56 104.11
  Q 183.31 106.02 184.99 108.41"
/>
<path stroke="#8f8c96" vector-effect="non-scaling-stroke" d="
  M 184.99 108.41
  Q 183.76 109.07 181.69 108.86
  Q 181.20 108.81 180.72 108.92
  L 171.89 110.94"
/>
<path stroke="#bcbcbc" vector-effect="non-scaling-stroke" d="
  M 47.49 191.01
  Q 49.36 186.62 50.23 185.73
  C 54.73 181.11 59.15 177.52 62.67 171.70
  Q 62.93 171.26 63.37 171.02
  Q 66.73 169.18 69.39 166.46
  C 73.76 161.99 79.47 160.32 85.07 158.14
  Q 85.53 157.97 85.82 157.58
  Q 87.77 155.02 90.77 155.91
  A 1.01 0.98 34.6 0 0 91.66 155.76
  Q 95.72 152.77 99.31 149.25
  C 100.23 148.35 101.63 147.93 102.54 146.82
  C 105.00 143.81 107.99 141.66 110.99 139.24
  C 113.49 137.23 112.69 134.05 115.65 132.89
  Q 120.66 130.91 124.70 127.31
  C 126.42 125.77 127.00 122.56 128.62 120.44
  Q 135.75 111.09 141.19 99.69
  Q 144.69 92.36 151.94 88.29
  A 1.49 1.46 -1.1 0 0 152.51 87.71
  Q 153.17 86.46 154.31 85.78
  Q 154.80 85.49 154.87 84.94
  Q 155.40 81.16 157.30 77.91
  Q 157.51 77.54 157.41 77.13
  L 155.45 68.76
  Q 155.34 68.28 155.55 67.84
  Q 156.78 65.37 159.18 63.45"
/>
<path stroke="#77593c" vector-effect="non-scaling-stroke" d="
  M 498.46 234.52
  L 495.41 234.73
  Q 494.92 234.77 494.61 235.14
  Q 490.34 240.18 484.76 243.74
  Q 483.82 244.34 483.26 246.19
  Q 483.11 246.68 482.60 246.75
  Q 482.00 246.82 481.19 246.44"
/>
<path stroke="#77593c" vector-effect="non-scaling-stroke" d="
  M 479.59 248.91
  Q 469.96 252.81 460.18 253.86
  Q 453.00 254.64 446.11 257.25"
/>
<path stroke="#77593c" vector-effect="non-scaling-stroke" d="
  M 444.33 257.86
  Q 432.25 258.95 420.67 257.76
  Q 412.93 256.97 404.87 255.98"
/>
<path stroke="#77593c" vector-effect="non-scaling-stroke" d="
  M 407.47 290.77
  L 407.45 288.47
  Q 407.44 287.92 406.89 287.85
  Q 402.43 287.26 398.41 285.24
  C 396.88 284.47 395.50 284.86 393.90 284.00
  Q 390.17 281.99 386.58 279.63"
/>
<path stroke="#77593c" vector-effect="non-scaling-stroke" d="
  M 460.67 286.56
  Q 460.48 285.72 459.53 285.37
  Q 459.05 285.19 458.55 285.35
  Q 456.81 285.88 456.23 285.75
  Q 450.21 284.44 444.50 286.75
  Q 438.19 289.31 431.18 291.83"
/>
<path stroke="#77593c" vector-effect="non-scaling-stroke" d="
  M 119.18 225.07
  Q 93.31 237.60 66.68 245.09
  C 63.11 246.09 59.72 247.40 56.22 248.64
  Q 55.74 248.81 55.26 248.65
  Q 51.87 247.54 49.00 249.62
  Q 48.57 249.93 48.05 250.01
  C 43.03 250.74 38.26 250.82 32.94 251.35
  Q 27.04 251.93 20.86 251.41"
/>
<path stroke="#77593c" vector-effect="non-scaling-stroke" d="
  M 19.50 252.74
  Q 12.93 252.00 7.67 252.94"
/>
</g>
<path fill="#b3b4b6" d="
  M 313.70 56.49
  Q 314.07 59.10 313.10 61.39
  A 1.07 1.05 -80.9 0 1 312.23 62.03
  Q 306.26 62.57 300.89 64.87
  A 1.45 1.44 -48.1 0 0 301.03 67.58
  C 302.50 68.02 302.64 69.90 302.92 71.21
  Q 303.96 76.02 304.16 80.92
  C 304.29 84.06 302.66 86.59 302.58 89.99
  Q 302.56 90.46 302.28 90.83
  Q 301.16 92.26 301.96 93.74
  Q 302.12 94.01 302.06 94.33
  Q 301.60 96.68 303.41 98.02
  A 1.54 1.52 -27.4 0 0 304.38 98.32
  Q 307.68 98.18 307.81 101.24
  Q 307.84 101.91 308.39 102.30
  L 310.50 103.80
  Q 310.93 104.11 311.08 104.62
  Q 311.72 106.83 313.38 108.29
  C 316.12 110.70 317.01 112.69 318.41 115.78
  A 1.29 1.28 86.2 0 0 319.21 116.49
  Q 321.62 117.23 322.02 119.70
  Q 322.11 120.26 322.58 120.57
  C 326.73 123.29 329.25 127.18 333.33 129.63
  C 338.04 132.46 341.47 137.17 344.88 140.14
  Q 356.08 149.91 367.01 160.00
  C 368.50 161.37 373.42 162.19 375.80 163.38
  Q 378.87 164.91 382.20 166.29
  Q 381.77 169.23 383.19 172.06
  Q 385.97 177.64 391.88 174.30
  Q 391.85 174.86 392.44 175.32
  Q 392.82 175.61 393.29 175.48
  Q 398.70 173.96 404.21 175.01
  C 406.92 175.52 408.91 177.70 411.36 179.05
  Q 409.10 184.58 408.68 190.95
  Q 408.65 191.45 408.16 191.57
  C 396.51 194.64 383.70 205.78 391.26 219.04
  A 0.35 0.35 0.0 0 1 390.82 219.53
  C 378.29 213.78 366.74 206.11 355.55 197.98
  C 335.12 183.13 317.52 163.81 305.75 141.39
  C 296.08 122.97 286.78 102.90 286.97 81.56
  A 0.54 0.54 0.0 0 0 286.06 81.16
  Q 285.66 81.53 285.70 82.25
  Q 286.07 88.59 286.75 94.64
  Q 286.48 95.82 285.92 96.35
  A 0.38 0.37 -55.2 0 1 285.54 96.42
  L 282.79 95.39
  A 0.74 0.74 0.0 0 0 281.82 95.87
  Q 281.04 98.42 279.40 97.55
  L 279.43 93.66
  Q 279.43 92.93 278.78 93.25
  L 274.17 95.46
  Q 268.49 92.31 261.49 90.83
  C 259.53 90.42 256.73 91.63 255.82 89.32
  C 262.47 78.96 270.65 70.88 281.16 64.25
  Q 282.45 63.43 280.95 63.71
  Q 278.31 64.21 276.34 66.03
  A 0.39 0.39 0.0 0 1 275.69 65.79
  C 275.07 61.34 274.10 50.65 278.44 47.65
  Q 278.85 47.37 279.34 47.49
  Q 287.70 49.60 292.69 56.75
  Q 293.13 57.39 292.42 57.68
  L 290.21 58.57
  Q 289.91 58.70 290.01 59.01
  Q 290.04 59.13 290.08 59.25
  Q 290.14 59.46 290.35 59.41
  Q 301.89 56.28 313.70 56.49
  Z"
/>
<path fill="#b3b4b6" d="
  M 205.23 93.83
  L 189.24 102.02
  A 1.17 1.16 -6.4 0 0 188.64 102.77
  Q 188.31 104.01 186.99 104.06
  Q 185.66 103.33 184.16 103.52
  Q 183.63 103.59 183.56 104.11
  Q 183.31 106.02 184.99 108.41
  Q 183.76 109.07 181.69 108.86
  Q 181.20 108.81 180.72 108.92
  L 171.89 110.94
  L 172.24 108.28
  A 0.59 0.59 0.0 0 0 171.08 108.11
  C 166.77 133.40 156.22 153.00 139.24 173.99
  Q 123.49 193.46 99.86 212.37
  Q 99.49 212.66 99.20 212.29
  Q 85.33 195.20 65.42 206.09
  Q 64.99 206.33 64.68 205.94
  Q 57.18 196.55 47.49 191.01
  Q 49.36 186.62 50.23 185.73
  C 54.73 181.11 59.15 177.52 62.67 171.70
  Q 62.93 171.26 63.37 171.02
  Q 66.73 169.18 69.39 166.46
  C 73.76 161.99 79.47 160.32 85.07 158.14
  Q 85.53 157.97 85.82 157.58
  Q 87.77 155.02 90.77 155.91
  A 1.01 0.98 34.6 0 0 91.66 155.76
  Q 95.72 152.77 99.31 149.25
  C 100.23 148.35 101.63 147.93 102.54 146.82
  C 105.00 143.81 107.99 141.66 110.99 139.24
  C 113.49 137.23 112.69 134.05 115.65 132.89
  Q 120.66 130.91 124.70 127.31
  C 126.42 125.77 127.00 122.56 128.62 120.44
  Q 135.75 111.09 141.19 99.69
  Q 144.69 92.36 151.94 88.29
  A 1.49 1.46 -1.1 0 0 152.51 87.71
  Q 153.17 86.46 154.31 85.78
  Q 154.80 85.49 154.87 84.94
  Q 155.40 81.16 157.30 77.91
  Q 157.51 77.54 157.41 77.13
  L 155.45 68.76
  Q 155.34 68.28 155.55 67.84
  Q 156.78 65.37 159.18 63.45
  L 165.92 64.82
  A 0.33 0.33 0.0 0 0 166.08 64.18
  L 159.62 62.13
  A 0.47 0.46 -61.0 0 1 159.41 61.38
  C 163.24 56.89 169.14 52.12 175.24 51.21
  A 1.11 1.10 -26.5 0 1 176.18 51.52
  C 178.51 53.90 176.13 62.60 175.17 65.20
  Q 174.98 65.71 174.44 65.68
  Q 172.87 65.60 171.42 65.10
  Q 171.13 65.00 170.96 65.15
  Q 170.61 65.46 171.04 65.63
  C 184.11 71.16 198.01 81.32 205.23 93.83
  Z"
/>
<path fill="#c5c4c2" d="
  M 313.70 56.49
  C 334.06 56.31 351.77 61.16 370.45 68.68
  C 402.29 81.49 426.81 104.42 448.33 129.67
  Q 449.45 131.00 450.36 132.48
  Q 450.61 132.90 450.26 133.24
  L 448.43 135.02
  Q 448.08 135.35 448.12 135.83
  Q 448.73 143.04 454.68 147.10
  Q 457.05 148.72 459.62 148.03
  A 1.27 1.26 68.8 0 1 461.08 148.68
  L 463.92 154.35
  A 0.85 0.84 -20.0 0 1 463.35 155.55
  C 459.58 156.43 458.68 158.85 456.42 161.45
  Q 456.09 161.82 455.66 161.57
  Q 450.17 158.31 442.49 158.51
  Q 420.01 159.10 411.36 179.05
  C 408.91 177.70 406.92 175.52 404.21 175.01
  Q 398.70 173.96 393.29 175.48
  Q 392.82 175.61 392.44 175.32
  Q 391.85 174.86 391.88 174.30
  C 401.37 165.85 385.97 149.20 382.20 166.29
  Q 378.87 164.91 375.80 163.38
  C 373.42 162.19 368.50 161.37 367.01 160.00
  Q 356.08 149.91 344.88 140.14
  C 341.47 137.17 338.04 132.46 333.33 129.63
  C 329.25 127.18 326.73 123.29 322.58 120.57
  Q 322.11 120.26 322.02 119.70
  Q 321.62 117.23 319.21 116.49
  A 1.29 1.28 86.2 0 1 318.41 115.78
  C 317.01 112.69 316.12 110.70 313.38 108.29
  Q 311.72 106.83 311.08 104.62
  Q 310.93 104.11 310.50 103.80
  L 308.39 102.30
  Q 307.84 101.91 307.81 101.24
  Q 307.68 98.18 304.38 98.32
  A 1.54 1.52 -27.4 0 1 303.41 98.02
  Q 301.60 96.68 302.06 94.33
  Q 302.12 94.01 301.96 93.74
  Q 301.16 92.26 302.28 90.83
  Q 302.56 90.46 302.58 89.99
  C 302.66 86.59 304.29 84.06 304.16 80.92
  Q 303.96 76.02 302.92 71.21
  C 302.64 69.90 302.50 68.02 301.03 67.58
  A 1.45 1.44 -48.1 0 1 300.89 64.87
  Q 306.26 62.57 312.23 62.03
  A 1.07 1.05 -80.9 0 0 313.10 61.39
  Q 314.07 59.10 313.70 56.49
  Z"
/>
<path fill="#c5c4c2" d="
  M 159.18 63.45
  Q 156.78 65.37 155.55 67.84
  Q 155.34 68.28 155.45 68.76
  L 157.41 77.13
  Q 157.51 77.54 157.30 77.91
  Q 155.40 81.16 154.87 84.94
  Q 154.80 85.49 154.31 85.78
  Q 153.17 86.46 152.51 87.71
  A 1.49 1.46 -1.1 0 1 151.94 88.29
  Q 144.69 92.36 141.19 99.69
  Q 135.75 111.09 128.62 120.44
  C 127.00 122.56 126.42 125.77 124.70 127.31
  Q 120.66 130.91 115.65 132.89
  C 112.69 134.05 113.49 137.23 110.99 139.24
  C 107.99 141.66 105.00 143.81 102.54 146.82
  C 101.63 147.93 100.23 148.35 99.31 149.25
  Q 95.72 152.77 91.66 155.76
  A 1.01 0.98 34.6 0 1 90.77 155.91
  Q 87.77 155.02 85.82 157.58
  Q 85.53 157.97 85.07 158.14
  C 79.47 160.32 73.76 161.99 69.39 166.46
  Q 66.73 169.18 63.37 171.02
  Q 62.93 171.26 62.67 171.70
  C 59.15 177.52 54.73 181.11 50.23 185.73
  Q 49.36 186.62 47.49 191.01
  C 37.62 186.43 23.79 185.28 17.23 195.20
  Q 16.93 195.67 16.43 195.42
  C 12.13 193.25 8.94 193.22 4.73 195.76
  A 0.46 0.46 0.0 0 1 4.04 195.25
  L 7.06 183.85
  Q 7.19 183.38 7.65 183.23
  C 14.49 181.02 16.32 173.00 16.32 166.84
  A 1.19 1.18 -68.8 0 0 15.94 165.97
  Q 14.34 164.50 14.98 163.01
  C 22.23 146.02 34.47 131.41 47.06 118.22
  C 61.73 102.85 80.69 89.17 98.76 79.25
  Q 119.52 67.85 143.99 63.98
  Q 152.08 62.70 159.18 63.45
  Z"
/>
<path fill="#6a6376" d="
  M 255.82 89.32
  C 256.73 91.63 259.53 90.42 261.49 90.83
  Q 268.49 92.31 274.17 95.46
  Q 257.42 109.32 254.61 129.95
  Q 254.54 130.46 254.96 130.16
  Q 271.26 118.56 278.24 101.56
  Q 283.02 101.86 287.93 100.57
  L 290.25 109.79
  A 1.90 1.90 0.0 0 1 289.71 111.65
  Q 279.63 121.19 267.42 128.25
  C 263.91 130.28 257.94 132.94 253.39 135.84
  Q 252.38 135.18 250.82 135.60
  A 1.18 1.16 -37.3 0 1 249.95 135.49
  Q 247.90 134.35 247.91 131.82
  C 246.93 117.45 248.84 102.10 255.82 89.32
  Z"
/>
<path fill="#010001" d="
  M 279.40 97.55
  L 278.24 101.56
  Q 271.26 118.56 254.96 130.16
  Q 254.54 130.46 254.61 129.95
  Q 257.42 109.32 274.17 95.46
  L 278.78 93.25
  Q 279.43 92.93 279.43 93.66
  L 279.40 97.55
  Z"
/>
<path fill="#8a8582" d="
  M 205.23 93.83
  L 206.72 96.03
  Q 200.47 99.01 194.36 102.37
  C 192.71 103.27 190.69 103.15 188.99 105.13
  Q 187.69 104.71 186.99 104.06
  Q 188.31 104.01 188.64 102.77
  A 1.17 1.16 -6.4 0 1 189.24 102.02
  L 205.23 93.83
  Z"
/>
<path fill="#8a8582" d="
  M 286.75 94.64
  L 287.93 100.57
  Q 283.02 101.86 278.24 101.56
  L 279.40 97.55
  Q 281.04 98.42 281.82 95.87
  A 0.74 0.74 0.0 0 1 282.79 95.39
  L 285.54 96.42
  A 0.38 0.37 -55.2 0 0 285.92 96.35
  Q 286.48 95.82 286.75 94.64
  Z"
/>
<path fill="#6a6376" d="
  M 256.72 124.86
  C 259.67 114.31 267.29 100.17 277.55 95.14
  A 0.57 0.57 0.0 0 1 278.35 95.79
  C 274.87 109.37 267.46 118.19 257.26 127.21
  A 0.46 0.45 -23.9 0 1 256.50 126.92
  Q 256.41 125.97 256.72 124.86
  Z"
/>
<path fill="#6a6376" d="
  M 206.72 96.03
  C 215.21 109.34 219.26 119.05 222.73 132.69
  Q 220.46 138.60 214.37 136.87
  Q 213.88 136.73 213.41 136.93
  L 212.46 137.33
  Q 188.63 131.56 172.25 114.50
  Q 171.11 113.31 171.89 110.94
  L 180.72 108.92
  Q 181.20 108.81 181.69 108.86
  Q 183.76 109.07 184.99 108.41
  C 189.82 116.40 201.52 130.58 211.66 131.48
  A 0.27 0.27 0.0 0 0 211.92 131.08
  Q 203.45 114.92 188.99 105.13
  C 190.69 103.15 192.71 103.27 194.36 102.37
  Q 200.47 99.01 206.72 96.03
  Z"
/>
<path fill="#010001" d="
  M 186.99 104.06
  Q 187.69 104.71 188.99 105.13
  Q 203.45 114.92 211.92 131.08
  A 0.27 0.27 0.0 0 1 211.66 131.48
  C 201.52 130.58 189.82 116.40 184.99 108.41
  Q 183.31 106.02 183.56 104.11
  Q 183.63 103.59 184.16 103.52
  Q 185.66 103.33 186.99 104.06
  Z"
/>
<path fill="#6a6376" d="
  M 186.11 105.20
  C 195.98 110.73 203.63 118.84 209.30 128.80
  A 0.49 0.49 0.0 0 1 208.74 129.51
  C 199.85 126.94 189.35 113.77 185.25 106.04
  A 0.63 0.63 0.0 0 1 186.11 105.20
  Z"
/>
<path fill="#010001" d="
  M 406.94 126.94
  Q 410.17 122.82 415.08 123.40
  C 422.85 124.32 429.49 132.80 431.36 139.91
  C 432.56 144.47 431.22 151.96 425.64 153.08
  C 416.37 154.94 409.00 150.56 405.73 142.02
  C 403.66 136.61 403.15 131.76 406.94 126.94
  Z"
/>
<path fill="#a38869" d="
  M 408.26 127.13
  C 417.38 119.28 432.17 135.32 430.52 144.58
  C 429.97 147.67 429.05 151.56 425.26 152.00
  Q 417.75 152.87 412.21 148.81
  C 406.52 144.64 401.87 132.64 408.26 127.13
  Z"
/>
<path fill="#b3b4b6" d="
  M 247.91 131.82
  Q 247.90 134.35 249.95 135.49
  A 1.18 1.16 -37.3 0 0 250.82 135.60
  Q 252.38 135.18 253.39 135.84
  L 261.63 132.71
  A 1.20 1.20 0.0 0 1 262.63 132.79
  C 275.32 140.02 282.85 149.81 286.59 163.90
  Q 287.07 165.71 285.27 165.18
  Q 279.50 163.49 273.52 163.79
  A 0.73 0.72 -7.4 0 1 272.77 163.22
  Q 270.41 152.62 263.25 144.53
  Q 262.93 144.17 263.22 143.79
  L 265.07 141.36
  A 0.30 0.30 0.0 0 0 264.64 140.95
  C 256.49 147.75 249.39 151.84 239.30 155.81
  A 0.43 0.43 0.0 0 0 239.57 156.62
  L 245.27 154.98
  Q 245.75 154.84 245.71 155.34
  C 245.21 162.42 244.73 166.76 246.79 173.41
  Q 246.92 173.85 246.56 174.11
  L 242.96 176.69
  A 1.22 1.21 -58.5 0 1 242.05 176.91
  Q 235.41 175.84 229.84 179.31
  A 1.53 1.53 0.0 0 1 227.57 177.53
  Q 230.82 167.65 226.98 158.01
  Q 226.80 157.54 227.29 157.43
  Q 228.94 157.09 230.58 156.97
  Q 231.01 156.94 231.21 156.76
  Q 231.39 156.60 231.41 156.40
  Q 231.43 155.97 231.00 155.99
  Q 216.82 156.41 203.73 151.04
  Q 203.39 150.90 203.17 151.05
  Q 202.77 151.32 203.20 151.54
  L 206.99 153.52
  Q 207.40 153.74 207.15 154.13
  Q 201.47 163.36 202.45 174.28
  Q 202.50 174.83 201.95 174.95
  Q 196.76 176.06 192.11 178.57
  Q 191.60 178.85 191.61 178.27
  Q 191.94 154.95 208.24 138.59
  Q 208.61 138.22 209.12 138.10
  L 212.46 137.33
  L 213.41 136.93
  Q 213.88 136.73 214.37 136.87
  Q 220.46 138.60 222.73 132.69
  L 224.25 130.38
  Q 224.51 129.98 224.96 129.84
  Q 235.16 126.56 245.79 128.32
  Q 246.91 128.51 246.83 129.65
  Q 246.74 130.82 247.91 131.82
  Z"
/>
<path fill="#a38869" d="
  M 459.80 146.59
  A 0.11 0.11 0.0 0 1 459.77 146.75
  L 459.76 146.76
  A 7.60 4.03 55.2 0 1 452.11 142.82
  L 451.91 142.54
  A 7.60 4.03 55.2 0 1 450.89 134.00
  L 450.90 133.99
  A 0.11 0.11 0.0 0 1 451.06 134.01
  L 459.80 146.59
  Z"
/>
<path fill="#f7f9fb" d="
  M 247.19 154.85
  A 0.46 0.45 80.1 0 1 247.38 154.57
  L 261.89 145.27
  A 0.48 0.48 0.0 0 1 262.53 145.38
  Q 268.85 153.37 271.55 163.25
  A 0.79 0.79 0.0 0 1 270.74 164.25
  C 264.31 163.92 253.92 169.42 248.47 172.73
  A 0.36 0.35 65.5 0 1 247.95 172.53
  Q 245.12 163.78 247.19 154.85
  Z"
/>
<path fill="#010001" d="
  M 46.67 181.65
  C 42.14 182.73 37.82 180.61 35.99 176.29
  C 25.12 150.54 68.74 134.00 63.33 163.76
  C 61.68 172.86 55.79 179.45 46.67 181.65
  Z"
/>
<path fill="#a38869" d="
  M 35.92 170.56
  C 35.21 159.16 43.07 149.52 54.52 148.99
  Q 60.31 148.73 61.48 154.49
  C 63.59 164.91 59.10 175.57 49.13 179.65
  C 41.59 182.75 36.42 178.54 35.92 170.56
  Z"
/>
<path fill="#f7f9fb" d="
  M 224.29 157.29
  Q 225.31 157.36 225.71 158.30
  Q 229.74 167.86 226.19 177.67
  A 0.48 0.48 0.0 0 1 225.56 177.95
  Q 215.33 173.83 204.26 174.39
  A 0.93 0.92 0.3 0 1 203.29 173.42
  C 203.65 166.90 204.51 160.17 208.24 154.54
  Q 208.54 154.09 209.05 154.26
  Q 216.47 156.72 224.29 157.29
  Z"
/>
<path fill="#866645" d="
  M 498.46 234.52
  L 495.41 234.73
  Q 494.92 234.77 494.61 235.14
  Q 490.34 240.18 484.76 243.74
  Q 483.82 244.34 483.26 246.19
  Q 483.11 246.68 482.60 246.75
  Q 482.00 246.82 481.19 246.44
  C 479.22 237.52 477.20 230.83 471.68 225.06
  Q 471.36 224.72 471.22 225.05
  Q 471.11 225.33 471.29 225.58
  Q 479.02 236.42 479.59 248.91
  Q 469.96 252.81 460.18 253.86
  Q 453.00 254.64 446.11 257.25
  Q 447.25 247.54 445.46 238.11
  A 0.46 0.45 -9.3 0 0 444.95 237.75
  L 444.61 237.79
  Q 444.25 237.84 444.29 238.21
  Q 445.51 248.30 444.33 257.86
  Q 432.25 258.95 420.67 257.76
  Q 412.93 256.97 404.87 255.98
  C 407.69 248.10 409.56 235.96 404.91 228.27
  C 402.00 223.46 394.77 223.79 392.42 218.67
  C 389.41 212.12 390.24 205.64 395.25 200.24
  C 399.50 195.66 404.04 194.31 409.62 192.27
  A 0.95 0.92 84.4 0 0 410.22 191.52
  C 410.75 187.50 411.24 183.01 412.76 179.39
  C 419.66 163.01 439.92 153.48 456.34 163.08
  Q 456.82 163.36 457.18 162.94
  C 459.13 160.71 461.16 157.18 464.36 156.66
  Q 464.82 156.58 465.06 156.99
  Q 475.64 175.60 478.98 196.76
  A 1.42 1.42 0.0 0 0 479.41 197.59
  C 491.11 208.87 498.55 218.16 498.46 234.52
  Z"
/>
<path fill="#010001" d="
  M 391.88 174.30
  Q 385.97 177.64 383.19 172.06
  Q 381.77 169.23 382.20 166.29
  C 385.97 149.20 401.37 165.85 391.88 174.30
  Z"
/>
<path fill="#866645" d="
  M 389.5917 174.1370
  A 7.06 5.04 80.2 0 1 383.4235 168.0379
  A 7.06 5.04 80.2 0 1 387.1883 160.2230
  A 7.06 5.04 80.2 0 1 393.3565 166.3221
  A 7.06 5.04 80.2 0 1 389.5917 174.1370
  Z"
/>
<path fill="#010001" d="
  M 266.6023 160.8630
  A 0.27 0.27 0.0 0 1 266.3794 161.1731
  L 250.0371 163.8493
  A 0.27 0.27 0.0 0 1 249.7270 163.6265
  L 249.5977 162.8370
  A 0.27 0.27 0.0 0 1 249.8206 162.5269
  L 266.1629 159.8507
  A 0.27 0.27 0.0 0 1 266.4730 160.0735
  L 266.6023 160.8630
  Z"
/>
<path fill="#866645" d="
  M 294.70 184.47
  Q 294.26 183.91 293.50 184.27
  C 286.22 187.70 279.02 191.27 271.25 193.46
  Q 265.84 194.99 260.52 198.69
  L 260.77 190.89
  A 0.95 0.95 0.0 0 1 261.51 189.99
  C 266.97 188.75 282.28 184.16 285.84 179.78
  A 0.34 0.34 0.0 0 0 285.42 179.27
  Q 269.92 187.47 252.42 190.68
  C 254.05 186.42 257.07 184.59 259.27 181.68
  Q 259.57 181.28 260.05 181.14
  Q 265.37 179.59 269.55 176.13
  C 272.77 173.46 275.63 172.48 279.17 170.80
  A 1.10 1.10 0.0 0 0 279.77 170.08
  L 280.87 165.79
  Q 285.70 166.17 290.47 169.27
  Q 292.08 170.32 290.59 171.53
  Q 290.26 171.80 290.23 172.14
  Q 290.18 172.64 290.65 172.45
  C 291.37 172.17 292.10 171.42 292.74 171.11
  Q 302.23 166.61 311.97 162.14
  A 0.38 0.38 0.0 0 1 312.40 162.74
  C 307.94 167.42 299.71 171.54 293.93 175.09
  A 0.41 0.41 0.0 0 0 294.29 175.82
  L 295.87 175.22
  A 0.76 0.76 0.0 0 1 296.83 175.63
  L 297.84 177.95
  A 0.69 0.69 0.0 0 1 297.33 178.90
  L 294.83 179.37
  A 0.40 0.40 0.0 0 0 294.50 179.76
  Q 294.50 179.90 294.50 180.05
  Q 294.50 180.39 294.82 180.33
  C 303.98 178.70 313.22 179.61 322.50 179.47
  Q 323.01 179.46 322.88 179.96
  Q 322.70 180.67 322.00 180.75
  Q 308.79 182.32 295.57 183.86
  Q 294.75 183.95 294.70 184.47
  Z"
/>
<path fill="#a38869" d="
  M 280.87 165.79
  L 279.77 170.08
  A 1.10 1.10 0.0 0 1 279.17 170.80
  C 275.63 172.48 272.77 173.46 269.55 176.13
  Q 265.37 179.59 260.05 181.14
  Q 259.57 181.28 259.27 181.68
  C 257.07 184.59 254.05 186.42 252.42 190.68
  L 238.30 193.20
  Q 237.63 193.32 237.61 192.64
  L 237.35 185.66
  Q 237.33 185.08 237.88 184.89
  Q 241.53 183.58 242.98 180.13
  C 244.32 176.96 245.99 175.81 248.71 174.22
  C 258.76 168.34 268.77 163.70 280.87 165.79
  Z"
/>
<path fill="#a38869" d="
  M 7.80 181.44
  C 9.66 176.07 10.89 171.22 13.67 166.15
  A 0.51 0.50 55.0 0 1 14.61 166.32
  C 15.47 171.87 12.88 178.51 8.39 181.87
  A 0.38 0.38 0.0 0 1 7.80 181.44
  Z"
/>
<path fill="#010001" d="
  M 225.3403 166.6663
  A 0.27 0.27 0.0 0 1 225.1329 166.9869
  L 207.7870 170.7055
  A 0.27 0.27 0.0 0 1 207.4664 170.4981
  L 207.3197 169.8137
  A 0.27 0.27 0.0 0 1 207.5271 169.4931
  L 224.8730 165.7745
  A 0.27 0.27 0.0 0 1 225.1936 165.9819
  L 225.3403 166.6663
  Z"
/>
<path fill="#a38869" d="
  M 219.95 202.96
  Q 220.14 203.48 219.76 203.44
  Q 202.55 201.91 186.54 195.79
  Q 182.26 194.80 177.78 195.09
  C 171.87 195.48 167.73 195.26 162.50 195.47
  A 0.81 0.80 -68.7 0 1 161.90 194.09
  Q 162.01 193.98 162.69 193.91
  Q 174.32 192.76 185.92 191.73
  A 0.43 0.42 -33.8 0 0 186.08 190.93
  Q 184.61 190.18 185.38 188.60
  A 1.50 1.41 -7.6 0 1 185.82 188.06
  Q 186.38 187.63 186.60 187.00
  Q 186.82 186.38 186.21 186.14
  Q 176.46 182.40 166.85 178.38
  Q 165.77 177.93 165.67 177.12
  A 0.58 0.58 0.0 0 1 166.42 176.48
  L 189.18 183.38
  Q 189.50 183.47 189.65 183.17
  C 191.04 180.45 193.10 179.61 196.22 178.20
  C 206.16 173.72 216.92 176.06 226.62 179.86
  C 230.00 181.18 231.36 183.90 235.62 184.65
  A 0.63 0.62 -87.1 0 1 236.14 185.23
  L 236.55 192.63
  Q 236.58 193.16 236.06 193.22
  Q 216.59 195.60 197.48 191.46
  A 0.35 0.35 0.0 0 0 197.11 191.99
  Q 197.50 192.58 198.35 192.75
  Q 208.21 194.75 218.25 195.44
  Q 218.76 195.48 218.84 195.98
  L 219.95 202.96
  Z"
/>
<path fill="#010001" d="
  M 78.0464 192.0965
  A 8.00 7.11 109.6 0 1 74.0320 182.1749
  A 8.00 7.11 109.6 0 1 83.4136 177.0235
  A 8.00 7.11 109.6 0 1 87.4280 186.9451
  A 8.00 7.11 109.6 0 1 78.0464 192.0965
  Z"
/>
<path fill="#866645" d="
  M 78.4306 190.8843
  A 6.88 5.57 110.5 0 1 75.6227 182.4893
  A 6.88 5.57 110.5 0 1 83.2494 177.9957
  A 6.88 5.57 110.5 0 1 86.0573 186.3907
  A 6.88 5.57 110.5 0 1 78.4306 190.8843
  Z"
/>
<path fill="#c5c4c2" d="
  M 241.25 177.97
  A 0.87 0.87 0.0 0 1 241.76 178.18
  Q 242.44 178.76 241.79 179.78
  Q 238.19 185.45 231.46 182.26
  A 1.21 1.20 43.8 0 1 231.41 180.10
  Q 236.06 177.67 241.25 177.97
  Z"
/>
<path fill="#674b33" d="
  M 294.70 184.47
  Q 298.54 184.02 299.04 187.35
  Q 298.92 187.59 299.06 187.95
  Q 297.71 188.66 297.01 189.71
  Q 296.72 190.15 297.21 190.32
  Q 307.27 193.97 317.41 197.37
  Q 318.90 197.88 319.82 198.63
  A 0.68 0.68 0.0 0 1 319.27 199.83
  Q 306.95 197.69 295.16 193.59
  Q 294.41 193.32 294.66 194.08
  Q 294.89 194.73 295.50 194.99
  A 0.59 0.58 -68.2 0 1 295.81 195.72
  Q 295.09 197.77 293.44 199.68
  Q 282.31 212.58 266.67 218.37
  Q 265.85 218.68 265.51 219.15
  A 0.28 0.28 0.0 0 0 265.81 219.59
  Q 273.03 217.56 279.38 213.59
  A 0.44 0.44 0.0 0 1 280.04 214.05
  L 278.95 219.12
  Q 273.64 224.53 269.28 231.79
  Q 268.47 233.13 268.46 235.47
  Q 259.90 237.11 252.14 241.84
  C 244.57 246.45 228.56 242.87 221.32 239.35
  Q 208.51 233.13 203.98 219.18
  A 0.76 0.76 0.0 0 1 204.94 218.22
  Q 209.76 219.83 212.42 219.83
  Q 217.85 219.82 212.50 218.93
  C 202.96 217.34 193.25 213.71 187.11 206.09
  Q 186.74 205.64 187.22 205.31
  L 189.34 203.80
  Q 189.50 203.68 189.50 203.49
  Q 189.50 203.36 189.50 203.22
  A 0.24 0.24 0.0 0 0 189.18 202.99
  Q 181.62 205.61 174.42 209.09
  Q 173.87 209.36 172.50 209.63
  Q 170.92 209.95 171.00 211.27
  L 167.77 212.01
  Q 167.51 211.65 167.49 211.25
  Q 167.44 210.65 167.97 210.37
  L 186.15 200.61
  A 0.32 0.32 0.0 0 0 186.00 200.00
  L 183.58 200.00
  Q 183.10 200.00 183.04 199.53
  L 182.77 197.43
  Q 182.76 197.03 182.76 196.62
  Q 183.86 197.14 186.54 195.79
  Q 202.55 201.91 219.76 203.44
  Q 220.14 203.48 219.95 202.96
  L 221.26 204.26
  Q 221.61 204.60 222.10 204.62
  Q 240.25 205.17 256.24 201.78
  Q 259.53 201.08 260.52 198.69
  Q 265.84 194.99 271.25 193.46
  C 279.02 191.27 286.22 187.70 293.50 184.27
  Q 294.26 183.91 294.70 184.47
  Z"
/>
<path fill="#010001" d="
  M 299.06 187.95
  Q 299.09 189.78 300.30 190.18
  C 307.55 192.59 314.75 194.78 321.59 198.17
  A 1.23 1.22 49.6 0 1 321.41 200.44
  C 316.13 202.06 303.31 197.45 297.88 195.66
  A 0.71 0.69 21.5 0 0 297.03 196.02
  Q 294.45 201.46 289.78 205.24
  A 1.07 1.07 0.0 0 0 290.02 207.05
  C 298.57 210.78 306.95 214.96 314.33 220.64
  C 325.06 228.90 337.77 241.78 335.47 256.07
  Q 335.39 256.61 335.09 257.07
  L 333.15 260.12
  Q 332.72 260.79 333.46 261.10
  C 344.26 265.57 347.24 278.57 343.08 288.57
  Q 342.89 289.05 343.27 289.39
  C 347.86 293.43 351.25 296.47 353.21 301.75
  C 356.68 311.08 353.74 321.94 347.05 329.06
  A 1.33 1.33 0.0 0 0 346.78 330.45
  Q 353.15 347.25 337.38 354.13
  A 2.14 2.11 -6.6 0 0 336.14 355.67
  C 332.20 375.62 319.24 389.43 303.05 400.80
  Q 295.16 406.34 291.83 409.09
  Q 288.82 411.57 291.83 414.19
  Q 301.93 423.02 315.51 423.24
  C 323.93 423.38 338.38 424.24 340.38 435.18
  C 343.29 451.08 315.75 454.13 306.08 452.79
  Q 300.65 452.04 293.93 450.26
  Q 283.38 447.46 275.03 439.97
  C 265.46 431.39 255.49 415.47 260.25 401.78
  Q 260.61 400.74 260.48 399.24
  A 0.73 0.68 27.7 0 0 260.35 398.87
  L 253.72 389.39
  A 3.03 3.03 0.0 0 0 251.61 388.11
  L 237.73 386.25
  A 1.55 1.54 -64.3 0 0 236.42 386.71
  C 226.53 396.97 239.85 400.16 237.06 409.24
  C 233.29 421.55 224.79 430.71 214.14 437.57
  C 200.43 446.40 183.17 446.67 168.44 440.21
  C 162.89 437.77 154.44 431.49 158.62 424.35
  C 163.43 416.12 171.10 416.88 179.31 418.17
  C 185.35 419.13 199.53 412.84 202.19 407.10
  A 2.50 2.49 31.2 0 0 201.44 404.07
  C 190.02 395.30 173.21 386.94 164.04 374.44
  Q 156.74 364.46 152.71 349.34
  A 1.63 1.61 13.0 0 0 152.19 348.52
  C 150.22 346.88 147.64 345.54 146.25 343.74
  C 142.75 339.19 143.76 334.44 145.77 329.41
  A 0.88 0.86 -56.6 0 0 145.59 328.48
  C 136.66 319.19 143.92 309.24 149.06 300.95
  Q 149.33 300.50 149.24 299.99
  C 146.92 287.71 151.49 279.74 159.12 270.81
  A 1.16 1.15 -52.9 0 0 158.89 269.10
  Q 147.49 261.35 154.22 248.70
  C 162.41 233.32 175.99 221.96 191.94 215.07
  A 1.54 1.54 0.0 0 0 191.99 212.27
  C 189.43 211.05 187.54 208.10 185.48 206.19
  A 0.84 0.82 55.2 0 0 184.63 206.03
  L 171.00 211.27
  Q 170.92 209.95 172.50 209.63
  Q 173.87 209.36 174.42 209.09
  Q 181.62 205.61 189.18 202.99
  A 0.24 0.24 0.0 0 1 189.50 203.22
  Q 189.50 203.36 189.50 203.49
  Q 189.50 203.68 189.34 203.80
  L 187.22 205.31
  Q 186.74 205.64 187.11 206.09
  C 193.25 213.71 202.96 217.34 212.50 218.93
  Q 217.85 219.82 212.42 219.83
  Q 209.76 219.83 204.94 218.22
  A 0.76 0.76 0.0 0 0 203.98 219.18
  Q 208.51 233.13 221.32 239.35
  C 228.56 242.87 244.57 246.45 252.14 241.84
  Q 259.90 237.11 268.46 235.47
  Q 277.61 228.31 278.95 219.12
  L 280.04 214.05
  A 0.44 0.44 0.0 0 0 279.38 213.59
  Q 273.03 217.56 265.81 219.59
  A 0.28 0.28 0.0 0 1 265.51 219.15
  Q 265.85 218.68 266.67 218.37
  Q 282.31 212.58 293.44 199.68
  Q 295.09 197.77 295.81 195.72
  A 0.59 0.58 -68.2 0 0 295.50 194.99
  Q 294.89 194.73 294.66 194.08
  Q 294.41 193.32 295.16 193.59
  Q 306.95 197.69 319.27 199.83
  A 0.68 0.68 0.0 0 0 319.82 198.63
  Q 318.90 197.88 317.41 197.37
  Q 307.27 193.97 297.21 190.32
  Q 296.72 190.15 297.01 189.71
  Q 297.71 188.66 299.06 187.95
  Z"
/>
<g stroke-width="2.00" fill="none" stroke-linecap="butt">
<path stroke="#9f9d9c" vector-effect="non-scaling-stroke" d="
  M 206.81 228.96
  Q 203.25 229.45 200.33 225.09
  C 199.27 223.50 199.09 221.31 197.32 219.57
  C 196.28 218.55 194.31 218.64 194.53 216.47
  Q 194.58 216.00 194.15 215.81
  L 193.63 215.57"
/>
<path stroke="#dedfdf" vector-effect="non-scaling-stroke" d="
  M 264.21 256.47
  Q 263.59 256.72 263.04 257.33
  Q 262.70 257.71 262.32 257.36
  Q 259.34 254.62 254.11 257.66"
/>
<path stroke="#dedfdf" vector-effect="non-scaling-stroke" d="
  M 252.99 256.33
  Q 248.96 255.07 244.31 255.52"
/>
<path stroke="#dedfdf" vector-effect="non-scaling-stroke" d="
  M 233.44 253.52
  L 229.05 253.69
  Q 228.53 253.71 228.14 254.05
  Q 226.77 255.24 225.33 255.31"
/>
<path stroke="#dedfdf" vector-effect="non-scaling-stroke" d="
  M 223.97 256.08
  Q 218.85 256.12 215.15 257.91"
/>
<path stroke="#dedfdf" vector-effect="non-scaling-stroke" d="
  M 213.23 257.97
  Q 208.30 257.25 204.12 258.39"
/>
<path stroke="#9f9d9c" vector-effect="non-scaling-stroke" d="
  M 242.53 254.99
  Q 240.96 255.61 239.83 254.84
  A 1.70 1.63 63.1 0 0 239.00 254.55
  L 235.41 254.26"
/>
<path stroke="#f9df67" vector-effect="non-scaling-stroke" d="
  M 296.70 282.16
  C 292.40 281.97 288.88 286.64 286.88 289.84
  C 282.22 297.29 274.85 298.25 267.49 301.56
  Q 263.42 303.39 258.97 304.14
  C 256.26 304.59 252.53 307.80 250.36 303.95
  A 0.75 0.74 71.3 0 0 249.61 303.57
  L 243.12 304.46
  Q 242.62 304.53 242.15 304.32
  C 236.92 301.92 233.34 297.39 227.70 295.97
  C 220.37 294.13 215.00 293.57 209.60 291.11
  C 206.14 289.53 202.31 289.96 198.59 288.66
  C 196.16 287.80 193.51 288.04 191.06 286.84"
/>
<path stroke="#d9bc46" vector-effect="non-scaling-stroke" d="
  M 292.60 332.87
  L 286.87 331.91
  Q 286.34 331.82 285.84 331.62
  Q 283.41 330.66 281.22 332.22
  A 1.47 1.43 -62.2 0 1 280.38 332.49
  C 277.40 332.50 274.51 333.52 271.74 333.92
  C 268.48 334.39 265.77 335.94 262.66 336.08
  Q 258.75 336.25 254.82 336.09
  Q 254.31 336.07 253.92 336.41
  Q 251.48 338.47 248.49 337.25
  A 0.63 0.62 -64.5 0 0 247.70 337.54
  C 246.57 339.68 245.44 340.54 242.86 340.27
  Q 237.59 339.71 232.84 337.88
  A 1.63 1.62 37.8 0 1 232.48 335.04
  L 234.44 333.65
  A 0.34 0.34 0.0 0 0 234.33 333.04
  Q 231.20 332.23 228.11 331.26
  C 226.03 330.61 223.62 329.09 221.06 328.65
  Q 220.31 328.52 215.99 328.87
  C 210.59 329.31 206.19 327.16 200.34 328.66
  Q 196.21 329.71 193.52 330.14
  Q 189.70 330.74 185.95 331.95"
/>
<path stroke="#77593c" vector-effect="non-scaling-stroke" d="
  M 349.61 323.41
  C 345.37 323.31 343.19 324.60 339.75 327.67
  Q 337.02 330.09 332.56 332.79
  Q 331.87 333.22 330.75 335.23
  A 0.92 0.90 12.3 0 1 330.00 335.70
  Q 323.26 336.05 316.90 334.22
  C 308.25 331.73 304.03 330.60 296.08 332.67
  A 1.25 1.25 0.0 0 1 294.52 331.54
  L 294.44 330.28"
/>
<path stroke="#957757" vector-effect="non-scaling-stroke" d="
  M 189.81 286.24
  Q 188.57 286.80 187.22 285.86
  Q 186.77 285.54 186.36 285.90
  C 182.28 289.51 174.77 297.23 169.49 290.71
  C 162.71 282.34 171.95 279.14 171.66 271.74"
/>
<path stroke="#77593c" vector-effect="non-scaling-stroke" d="
  M 183.82 332.06
  Q 176.90 332.09 171.77 329.06
  C 167.13 326.32 163.84 324.79 159.52 322.24
  Q 156.01 320.17 151.08 318.84
  C 148.42 318.12 145.57 318.79 142.73 318.65"
/>
<path stroke="#77593c" vector-effect="non-scaling-stroke" d="
  M 219.70 432.25
  Q 207.70 425.35 194.90 421.81"
/>
<path stroke="#856a4e" vector-effect="non-scaling-stroke" d="
  M 190.40 422.92
  L 183.88 419.78"
/>
<path stroke="#957757" vector-effect="non-scaling-stroke" d="
  M 183.14 436.46
  L 200.80 433.83
  A 1.67 1.67 0.0 0 0 201.08 430.60
  Q 195.23 428.66 191.86 423.57"
/>
<path stroke="#77593c" vector-effect="non-scaling-stroke" d="
  M 304.05 422.75
  Q 299.12 425.89 293.11 427.40
  Q 292.60 427.52 292.25 427.92
  C 288.81 431.91 285.09 432.88 281.12 435.91
  Q 278.46 437.95 275.14 438.78"
/>
<path stroke="#957757" vector-effect="non-scaling-stroke" d="
  M 303.35 430.30
  Q 296.38 431.77 292.21 435.31
  Q 291.79 435.65 291.75 436.19
  Q 291.55 438.65 293.96 439.53
  Q 302.88 442.80 313.42 440.96"
/>
</g>
<path fill="#866645" d="
  M 119.18 225.07
  Q 93.31 237.60 66.68 245.09
  C 63.11 246.09 59.72 247.40 56.22 248.64
  Q 55.74 248.81 55.26 248.65
  Q 51.87 247.54 49.00 249.62
  Q 48.57 249.93 48.05 250.01
  C 43.03 250.74 38.26 250.82 32.94 251.35
  Q 27.04 251.93 20.86 251.41
  L 20.08 244.77
  A 0.27 0.26 52.3 0 0 19.57 244.70
  Q 18.33 247.94 19.50 252.74
  Q 12.93 252.00 7.67 252.94
  C 0.29 235.90 0.58 216.99 3.52 198.73
  A 1.51 1.50 -15.5 0 1 4.04 197.82
  Q 9.74 193.02 16.30 196.67
  A 0.72 0.72 0.0 0 0 17.10 196.61
  C 18.95 195.17 20.40 193.13 22.23 192.05
  C 29.28 187.89 38.79 188.64 46.00 191.78
  C 52.80 194.75 59.07 200.91 63.86 206.93
  A 1.66 1.66 0.0 0 0 65.83 207.41
  C 78.37 201.80 89.40 201.06 98.20 213.39
  Q 98.45 213.73 98.11 213.98
  L 83.38 225.09
  A 0.09 0.09 0.0 0 0 83.48 225.25
  C 95.50 219.16 105.47 209.25 115.67 200.66
  A 0.86 0.86 0.0 0 1 116.88 200.77
  Q 118.80 203.04 119.37 206.27
  Q 121.21 216.62 119.18 225.07
  Z"
/>
<path fill="#f7f9fb" d="
  M 238.68 198.02
  L 239.00 202.45
  Q 239.04 202.98 238.51 202.98
  C 232.45 202.99 226.04 204.22 222.01 202.75
  Q 221.50 202.57 221.40 202.03
  L 220.33 195.99
  Q 220.25 195.54 220.71 195.52
  C 236.03 194.98 244.88 194.20 258.67 190.82
  Q 259.32 190.66 259.31 191.33
  L 259.12 198.48
  A 0.78 0.77 -7.6 0 1 258.56 199.21
  Q 249.94 201.76 240.99 202.57
  Q 240.43 202.62 240.26 202.09
  Q 239.64 200.21 239.74 198.36
  Q 239.77 197.90 239.60 197.70
  Q 239.43 197.51 239.18 197.49
  Q 238.64 197.47 238.68 198.02
  Z"
/>
<path fill="#010001" d="
  M 182.77 197.43
  L 183.04 199.53
  Q 183.10 200.00 183.58 200.00
  L 186.00 200.00
  A 0.32 0.32 0.0 0 1 186.15 200.61
  L 167.97 210.37
  Q 167.44 210.65 167.49 211.25
  Q 167.51 211.65 167.77 212.01
  Q 165.70 213.22 166.23 210.76
  A 1.21 1.20 -9.6 0 1 166.79 209.98
  Q 174.07 205.58 180.77 202.10
  C 182.97 200.96 183.07 199.72 182.77 197.43
  Z"
/>
<path fill="#b3b4b6" d="
  M 313.52 250.13
  Q 319.89 252.25 314.03 248.96
  C 300.80 241.53 287.11 236.51 270.45 236.21
  Q 269.71 236.19 270.22 235.65
  C 276.87 228.74 281.65 223.46 281.76 213.17
  Q 281.77 212.61 282.19 212.26
  L 287.55 207.84
  Q 287.98 207.48 288.50 207.69
  Q 309.93 216.03 325.54 232.92
  C 330.90 238.72 336.70 247.86 334.23 255.42
  C 332.39 261.05 326.41 265.36 320.85 266.79
  C 313.02 268.80 302.00 265.75 293.19 263.59
  Q 289.81 262.76 288.09 262.03
  Q 287.63 261.84 287.88 261.41
  Q 294.48 249.88 286.59 239.40
  Q 286.16 238.83 286.85 239.01
  Q 299.01 242.16 310.03 248.27
  Q 313.22 250.03 313.52 250.13
  Z"
/>
<path fill="#8a8582" d="
  M 206.81 228.96
  Q 203.25 229.45 200.33 225.09
  C 199.27 223.50 199.09 221.31 197.32 219.57
  C 196.28 218.55 194.31 218.64 194.53 216.47
  Q 194.58 216.00 194.15 215.81
  L 193.63 215.57
  L 195.30 214.71
  A 0.72 0.69 41.8 0 1 195.88 214.69
  L 201.31 217.04
  A 0.98 0.94 0.5 0 1 201.80 217.52
  L 206.81 228.96
  Z"
/>
<path fill="#b3b4b6" d="
  M 193.63 215.57
  L 194.15 215.81
  Q 194.58 216.00 194.53 216.47
  C 194.31 218.64 196.28 218.55 197.32 219.57
  C 199.09 221.31 199.27 223.50 200.33 225.09
  Q 203.25 229.45 206.81 228.96
  Q 210.70 234.32 216.83 238.51
  A 0.28 0.27 -19.1 0 1 216.59 239.00
  C 201.35 234.22 183.40 239.56 170.29 247.75
  Q 169.26 248.39 168.70 249.75
  Q 168.49 250.27 168.98 249.99
  C 178.36 244.57 189.74 239.64 200.78 238.61
  Q 201.70 238.53 200.96 239.07
  C 195.05 243.43 186.18 257.06 195.09 262.94
  A 0.42 0.42 0.0 0 1 195.08 263.64
  C 184.49 270.08 156.53 276.43 152.88 258.84
  C 152.09 255.02 153.75 252.52 156.00 248.27
  C 164.32 232.53 177.70 222.88 193.63 215.57
  Z"
/>
<path fill="#866645" d="
  M 278.95 219.12
  Q 277.61 228.31 268.46 235.47
  Q 268.47 233.13 269.28 231.79
  Q 273.64 224.53 278.95 219.12
  Z"
/>
<path fill="#674b33" d="
  M 119.18 225.07
  C 116.69 239.34 109.75 256.51 97.53 264.68
  C 88.71 270.58 77.86 272.28 67.63 268.99
  C 60.40 266.66 55.75 258.38 54.11 251.43
  Q 53.90 250.56 53.57 251.39
  Q 53.07 252.65 53.51 254.50
  C 56.10 265.25 65.98 271.28 76.49 271.73
  A 0.62 0.61 24.4 0 1 76.89 272.79
  C 71.40 277.96 59.69 280.05 52.45 279.98
  C 35.86 279.82 23.99 266.97 20.86 251.41
  Q 27.04 251.93 32.94 251.35
  C 38.26 250.82 43.03 250.74 48.05 250.01
  Q 48.57 249.93 49.00 249.62
  Q 51.87 247.54 55.26 248.65
  Q 55.74 248.81 56.22 248.64
  C 59.72 247.40 63.11 246.09 66.68 245.09
  Q 93.31 237.60 119.18 225.07
  Z"
/>
<path fill="#674b33" d="
  M 498.46 234.52
  C 497.82 251.73 490.49 269.45 473.96 277.20
  A 0.59 0.59 0.0 0 1 473.24 276.30
  Q 483.17 263.55 481.19 246.44
  Q 482.00 246.82 482.60 246.75
  Q 483.11 246.68 483.26 246.19
  Q 483.82 244.34 484.76 243.74
  Q 490.34 240.18 494.61 235.14
  Q 494.92 234.77 495.41 234.73
  L 498.46 234.52
  Z"
/>
<path fill="#f7f9fb" d="
  M 264.21 256.47
  Q 263.59 256.72 263.04 257.33
  Q 262.70 257.71 262.32 257.36
  Q 259.34 254.62 254.11 257.66
  Q 255.07 252.92 257.56 249.88
  Q 257.74 249.66 257.57 249.43
  Q 257.48 249.32 257.37 249.28
  Q 257.14 249.19 256.98 249.37
  Q 254.28 252.36 252.99 256.33
  Q 248.96 255.07 244.31 255.52
  C 249.06 240.39 264.67 235.37 279.10 237.90
  Q 282.92 238.57 284.97 240.34
  C 290.67 245.26 290.01 254.84 286.75 260.86
  A 1.07 1.07 0.0 0 1 285.40 261.34
  L 278.53 258.48
  A 0.85 0.84 -69.6 0 1 278.05 257.43
  L 279.63 252.64
  A 0.36 0.36 0.0 0 0 279.01 252.29
  Q 276.69 254.98 276.45 258.55
  Q 276.41 259.00 275.97 259.06
  Q 270.43 259.85 265.26 261.98
  Q 264.37 262.34 264.63 261.41
  L 267.28 251.90
  A 0.22 0.22 0.0 0 0 266.92 251.69
  Q 264.97 253.57 264.21 256.47
  Z"
/>
<path fill="#f7f9fb" d="
  M 233.44 253.52
  L 229.05 253.69
  Q 228.53 253.71 228.14 254.05
  Q 226.77 255.24 225.33 255.31
  L 223.32 251.21
  A 0.48 0.48 0.0 0 0 222.43 251.58
  L 223.97 256.08
  Q 218.85 256.12 215.15 257.91
  Q 214.59 256.04 213.30 254.67
  A 0.41 0.41 0.0 0 0 212.59 254.88
  Q 212.43 255.82 213.23 257.97
  Q 208.30 257.25 204.12 258.39
  Q 203.35 256.56 202.24 255.67
  A 0.33 0.33 0.0 0 0 201.71 256.01
  L 202.33 258.47
  Q 202.49 259.09 201.96 259.43
  L 197.60 262.27
  Q 197.09 262.60 196.57 262.28
  C 188.13 256.98 196.50 241.81 203.22 239.08
  C 206.89 237.59 210.83 238.76 215.19 239.80
  Q 227.94 242.85 233.44 253.52
  Z"
/>
<path fill="#b3b4b6" d="
  M 242.53 254.99
  Q 240.96 255.61 239.83 254.84
  A 1.70 1.63 63.1 0 0 239.00 254.55
  L 235.41 254.26
  Q 232.04 247.56 226.26 242.98
  A 0.33 0.33 0.0 0 1 226.58 242.41
  Q 236.70 246.36 247.56 245.19
  A 0.43 0.42 -73.1 0 1 247.93 245.89
  Q 244.51 249.99 242.53 254.99
  Z"
/>
<path fill="#674b33" d="
  M 479.59 248.91
  C 480.95 264.74 473.15 277.80 460.67 286.56
  Q 460.48 285.72 459.53 285.37
  Q 459.05 285.19 458.55 285.35
  Q 456.81 285.88 456.23 285.75
  Q 450.21 284.44 444.50 286.75
  Q 438.19 289.31 431.18 291.83
  Q 428.59 291.70 426.54 289.98
  Q 426.03 289.55 426.59 289.20
  Q 444.06 278.01 446.11 257.25
  Q 453.00 254.64 460.18 253.86
  Q 469.96 252.81 479.59 248.91
  Z"
/>
<path fill="#674b33" d="
  M 19.50 252.74
  Q 22.55 266.79 34.75 275.82
  A 0.41 0.41 0.0 0 1 34.79 276.45
  Q 34.42 276.80 33.76 276.71
  C 19.87 274.71 12.34 265.36 7.67 252.94
  Q 12.93 252.00 19.50 252.74
  Z"
/>
<path fill="#c5c4c2" d="
  M 233.44 253.52
  L 235.00 258.14
  A 0.51 0.51 0.0 0 1 234.58 258.81
  L 226.96 259.67
  Q 226.49 259.72 226.37 259.27
  L 225.33 255.31
  Q 226.77 255.24 228.14 254.05
  Q 228.53 253.71 229.05 253.69
  L 233.44 253.52
  Z"
/>
<path fill="#8a8582" d="
  M 235.41 254.26
  L 239.00 254.55
  A 1.70 1.63 63.1 0 1 239.83 254.84
  Q 240.96 255.61 242.53 254.99
  L 241.67 259.01
  Q 241.54 259.65 240.89 259.55
  L 237.37 259.01
  A 0.75 0.74 3.8 0 1 236.74 258.30
  Q 236.64 256.06 235.41 254.26
  Z"
/>
<path fill="#c5c4c2" d="
  M 244.31 255.52
  Q 248.96 255.07 252.99 256.33
  L 251.59 261.32
  Q 251.47 261.75 251.03 261.65
  L 243.98 259.95
  A 0.85 0.85 0.0 0 1 243.33 259.10
  Q 243.39 256.78 244.31 255.52
  Z"
/>
<path fill="#c5c4c2" d="
  M 223.97 256.08
  Q 224.63 257.27 224.72 259.19
  Q 224.74 259.62 224.34 259.77
  L 216.32 262.85
  Q 215.91 263.01 215.84 262.57
  L 215.15 257.91
  Q 218.85 256.12 223.97 256.08
  Z"
/>
<path fill="#c5c4c2" d="
  M 264.21 256.47
  L 263.15 263.29
  A 2.40 2.40 0.0 0 1 259.72 265.08
  L 253.71 262.16
  Q 253.26 261.94 253.26 261.43
  Q 253.26 258.91 254.11 257.66
  Q 259.34 254.62 262.32 257.36
  Q 262.70 257.71 263.04 257.33
  Q 263.59 256.72 264.21 256.47
  Z"
/>
<path fill="#674b33" d="
  M 404.87 255.98
  Q 412.93 256.97 420.67 257.76
  Q 432.25 258.95 444.33 257.86
  C 442.87 271.29 434.59 286.23 420.79 289.38
  Q 414.28 290.87 407.47 290.77
  L 407.45 288.47
  Q 407.44 287.92 406.89 287.85
  Q 402.43 287.26 398.41 285.24
  C 396.88 284.47 395.50 284.86 393.90 284.00
  Q 390.17 281.99 386.58 279.63
  C 390.23 275.37 395.21 271.26 398.15 267.50
  Q 402.36 262.14 404.87 255.98
  Z"
/>
<path fill="#c5c4c2" d="
  M 213.23 257.97
  L 214.52 263.35
  A 0.55 0.55 0.0 0 1 213.77 263.99
  Q 209.55 262.17 204.96 261.90
  Q 204.39 261.87 204.35 261.30
  L 204.12 258.39
  Q 208.30 257.25 213.23 257.97
  Z"
/>
<path fill="#fbe47f" d="
  M 296.70 282.16
  C 292.40 281.97 288.88 286.64 286.88 289.84
  C 282.22 297.29 274.85 298.25 267.49 301.56
  Q 263.42 303.39 258.97 304.14
  C 256.26 304.59 252.53 307.80 250.36 303.95
  A 0.75 0.74 71.3 0 0 249.61 303.57
  L 243.12 304.46
  Q 242.62 304.53 242.15 304.32
  C 236.92 301.92 233.34 297.39 227.70 295.97
  C 220.37 294.13 215.00 293.57 209.60 291.11
  C 206.14 289.53 202.31 289.96 198.59 288.66
  C 196.16 287.80 193.51 288.04 191.06 286.84
  Q 193.92 273.37 204.82 265.32
  C 208.24 262.80 211.24 264.41 214.76 265.71
  A 1.01 1.01 0.0 0 0 215.65 265.61
  C 228.76 257.19 247.47 260.03 260.39 266.95
  A 0.94 0.93 -50.2 0 0 261.43 266.85
  Q 267.73 261.71 275.60 260.63
  C 280.34 259.97 284.27 261.83 288.55 263.76
  C 292.73 265.63 296.14 278.05 296.70 282.16
  Z"
/>
<path fill="#866645" d="
  M 349.61 323.41
  C 345.37 323.31 343.19 324.60 339.75 327.67
  Q 337.02 330.09 332.56 332.79
  Q 331.87 333.22 330.75 335.23
  A 0.92 0.90 12.3 0 1 330.00 335.70
  Q 323.26 336.05 316.90 334.22
  C 308.25 331.73 304.03 330.60 296.08 332.67
  A 1.25 1.25 0.0 0 1 294.52 331.54
  L 294.44 330.28
  C 294.71 322.30 291.81 317.76 288.87 311.30
  Q 288.65 310.82 289.03 310.47
  C 301.57 298.94 300.58 278.70 292.30 265.29
  Q 291.91 264.66 292.62 264.87
  C 304.21 268.29 321.95 272.88 332.01 261.92
  Q 332.34 261.55 332.77 261.80
  C 342.43 267.35 346.89 278.37 341.52 288.98
  A 0.66 0.66 0.0 0 0 341.72 289.81
  C 351.73 297.23 356.36 307.44 351.77 319.75
  Q 351.11 321.54 349.61 323.41
  Z"
/>
<path fill="#a38869" d="
  M 189.81 286.24
  Q 188.57 286.80 187.22 285.86
  Q 186.77 285.54 186.36 285.90
  C 182.28 289.51 174.77 297.23 169.49 290.71
  C 162.71 282.34 171.95 279.14 171.66 271.74
  Q 184.37 271.48 195.25 265.64
  C 198.33 263.99 200.78 263.60 204.03 263.29
  A 0.48 0.48 0.0 0 1 204.38 264.14
  Q 193.46 272.75 189.81 286.24
  Z"
/>
<path fill="#866645" d="
  M 171.66 271.74
  C 171.95 279.14 162.71 282.34 169.49 290.71
  C 174.77 297.23 182.28 289.51 186.36 285.90
  Q 186.77 285.54 187.22 285.86
  Q 188.57 286.80 189.81 286.24
  Q 187.58 294.59 190.81 302.25
  Q 191.01 302.73 190.67 303.12
  Q 179.52 316.34 183.82 332.06
  Q 176.90 332.09 171.77 329.06
  C 167.13 326.32 163.84 324.79 159.52 322.24
  Q 156.01 320.17 151.08 318.84
  C 148.42 318.12 145.57 318.79 142.73 318.65
  C 142.61 311.75 146.35 305.68 150.60 300.60
  A 1.08 1.07 59.5 0 0 150.83 299.68
  C 148.27 288.31 152.32 278.41 160.69 270.76
  Q 161.07 270.42 161.58 270.48
  L 171.66 271.74
  Z"
/>
<path fill="#866645" d="
  M 386.58 279.63
  Q 390.17 281.99 393.90 284.00
  C 395.50 284.86 396.88 284.47 398.41 285.24
  Q 402.43 287.26 406.89 287.85
  Q 407.44 287.92 407.45 288.47
  L 407.47 290.77
  C 400.12 290.51 391.81 290.16 386.47 284.27
  Q 384.26 281.83 386.58 279.63
  Z"
/>
<path fill="#f7da4e" d="
  M 296.70 282.16
  Q 298.85 299.30 287.13 310.85
  Q 286.75 311.22 287.05 311.67
  Q 293.47 321.09 292.60 332.87
  L 286.87 331.91
  Q 286.34 331.82 285.84 331.62
  Q 283.41 330.66 281.22 332.22
  A 1.47 1.43 -62.2 0 1 280.38 332.49
  C 277.40 332.50 274.51 333.52 271.74 333.92
  C 268.48 334.39 265.77 335.94 262.66 336.08
  Q 258.75 336.25 254.82 336.09
  Q 254.31 336.07 253.92 336.41
  Q 251.48 338.47 248.49 337.25
  A 0.63 0.62 -64.5 0 0 247.70 337.54
  C 246.57 339.68 245.44 340.54 242.86 340.27
  Q 237.59 339.71 232.84 337.88
  A 1.63 1.62 37.8 0 1 232.48 335.04
  L 234.44 333.65
  A 0.34 0.34 0.0 0 0 234.33 333.04
  Q 231.20 332.23 228.11 331.26
  C 226.03 330.61 223.62 329.09 221.06 328.65
  Q 220.31 328.52 215.99 328.87
  C 210.59 329.31 206.19 327.16 200.34 328.66
  Q 196.21 329.71 193.52 330.14
  Q 189.70 330.74 185.95 331.95
  Q 183.08 326.27 184.24 319.74
  Q 185.76 311.12 192.02 303.65
  Q 192.69 302.85 192.65 302.22
  Q 192.61 301.60 192.13 301.09
  Q 191.80 300.73 191.65 300.27
  Q 189.56 293.52 191.06 286.84
  C 193.51 288.04 196.16 287.80 198.59 288.66
  C 202.31 289.96 206.14 289.53 209.60 291.11
  C 215.00 293.57 220.37 294.13 227.70 295.97
  C 233.34 297.39 236.92 301.92 242.15 304.32
  Q 242.62 304.53 243.12 304.46
  L 249.61 303.57
  A 0.75 0.74 71.3 0 1 250.36 303.95
  C 252.53 307.80 256.26 304.59 258.97 304.14
  Q 263.42 303.39 267.49 301.56
  C 274.85 298.25 282.22 297.29 286.88 289.84
  C 288.88 286.64 292.40 281.97 296.70 282.16
  Z"
/>
<path fill="#866645" d="
  M 460.67 286.56
  C 452.73 292.03 440.48 294.46 431.18 291.83
  Q 438.19 289.31 444.50 286.75
  Q 450.21 284.44 456.23 285.75
  Q 456.81 285.88 458.55 285.35
  Q 459.05 285.19 459.53 285.37
  Q 460.48 285.72 460.67 286.56
  Z"
/>
<path fill="#674b33" d="
  M 142.73 318.65
  C 145.57 318.79 148.42 318.12 151.08 318.84
  Q 156.01 320.17 159.52 322.24
  C 163.84 324.79 167.13 326.32 171.77 329.06
  Q 176.90 332.09 183.82 332.06
  Q 187.04 336.76 190.69 339.25
  A 0.86 0.85 -56.9 0 1 190.93 340.41
  Q 185.89 348.25 190.99 356.03
  A 0.38 0.38 0.0 0 1 190.48 356.56
  L 182.61 351.91
  Q 182.21 351.68 181.75 351.75
  C 179.39 352.12 176.94 352.66 174.84 352.78
  C 164.87 353.34 142.71 348.36 145.21 333.98
  C 145.48 332.40 146.40 330.79 147.02 329.10
  A 0.83 0.82 -57.2 0 0 146.84 328.24
  Q 142.73 324.07 142.73 318.65
  Z"
/>
<path fill="#674b33" d="
  M 349.61 323.41
  Q 348.15 326.75 345.01 328.73
  A 0.54 0.54 0.0 0 0 344.84 329.48
  C 345.45 330.46 346.21 331.18 346.50 332.26
  C 351.90 351.94 332.82 357.50 318.19 352.46
  A 1.40 1.39 -60.3 0 0 316.67 352.88
  C 310.97 359.66 302.83 362.53 294.44 358.97
  Q 292.42 358.11 291.69 358.56
  Q 289.58 359.86 290.67 357.64
  C 293.39 352.12 290.92 349.02 287.45 345.00
  A 0.60 0.59 48.2 0 1 287.49 344.17
  Q 293.65 338.49 294.44 330.28
  L 294.52 331.54
  A 1.25 1.25 0.0 0 0 296.08 332.67
  C 304.03 330.60 308.25 331.73 316.90 334.22
  Q 323.26 336.05 330.00 335.70
  A 0.92 0.90 12.3 0 0 330.75 335.23
  Q 331.87 333.22 332.56 332.79
  Q 337.02 330.09 339.75 327.67
  C 343.19 324.60 345.37 323.31 349.61 323.41
  Z"
/>
<path fill="#ba9d3d" d="
  M 292.60 332.87
  Q 291.69 338.32 288.10 341.86
  Q 286.46 343.48 285.62 344.20
  A 0.59 0.59 0.0 0 0 285.63 345.10
  C 291.90 350.19 292.53 360.15 283.26 362.26
  C 267.57 365.83 254.68 366.44 240.56 358.29
  Q 240.13 358.04 239.68 358.26
  C 227.79 364.01 202.58 367.53 192.59 356.01
  Q 186.80 349.33 192.74 339.52
  Q 193.02 339.07 192.59 338.76
  Q 189.09 336.24 185.95 331.95
  Q 189.70 330.74 193.52 330.14
  Q 196.21 329.71 200.34 328.66
  C 206.19 327.16 210.59 329.31 215.99 328.87
  Q 220.31 328.52 221.06 328.65
  C 223.62 329.09 226.03 330.61 228.11 331.26
  Q 231.20 332.23 234.33 333.04
  A 0.34 0.34 0.0 0 1 234.44 333.65
  L 232.48 335.04
  A 1.63 1.62 37.8 0 0 232.84 337.88
  Q 237.59 339.71 242.86 340.27
  C 245.44 340.54 246.57 339.68 247.70 337.54
  A 0.63 0.62 -64.5 0 1 248.49 337.25
  Q 251.48 338.47 253.92 336.41
  Q 254.31 336.07 254.82 336.09
  Q 258.75 336.25 262.66 336.08
  C 265.77 335.94 268.48 334.39 271.74 333.92
  C 274.51 333.52 277.40 332.50 280.38 332.49
  A 1.47 1.43 -62.2 0 0 281.22 332.22
  Q 283.41 330.66 285.84 331.62
  Q 286.34 331.82 286.87 331.91
  L 292.60 332.87
  Z"
/>
<path fill="#8a8582" d="
  M 266.64 407.87
  Q 263.12 405.03 262.78 402.48
  C 262.03 396.88 256.84 391.94 253.69 387.51
  A 2.14 2.13 74.9 0 0 252.14 386.61
  L 235.94 385.05
  Q 235.43 385.01 235.19 385.45
  C 233.35 388.89 230.96 392.96 231.79 396.95
  Q 231.90 397.47 231.62 397.93
  C 226.60 406.19 212.87 410.01 204.13 406.62
  A 1.02 1.01 2.4 0 1 203.51 405.95
  Q 202.57 402.71 200.72 401.51
  C 184.23 390.79 170.24 383.47 161.18 367.80
  C 158.39 362.98 156.42 356.55 154.15 350.83
  A 0.79 0.79 0.0 0 1 155.26 349.84
  Q 167.85 356.49 181.76 353.01
  Q 182.32 352.87 182.81 353.15
  C 185.10 354.42 187.62 356.34 189.41 357.34
  Q 213.69 370.98 239.69 359.73
  Q 240.17 359.52 240.63 359.76
  Q 266.66 373.03 292.91 359.86
  A 1.97 1.97 0.0 0 1 294.67 359.86
  C 302.65 363.85 312.44 360.14 317.71 353.77
  Q 318.06 353.34 318.58 353.53
  Q 326.18 356.18 334.21 354.82
  A 0.90 0.89 -88.4 0 1 335.23 355.90
  C 329.41 381.43 309.86 394.82 289.81 409.26
  C 284.28 413.25 271.80 412.01 266.64 407.87
  Z"
/>
<path fill="#674b33" d="
  M 219.70 432.25
  Q 207.70 425.35 194.90 421.81
  Q 194.05 421.37 193.75 421.50
  Q 191.54 422.47 190.40 422.92
  L 183.88 419.78
  C 191.56 417.15 198.10 414.05 203.53 407.89
  Q 203.86 407.51 204.34 407.66
  C 211.65 409.98 220.21 407.91 227.20 404.45
  Q 228.55 403.78 232.10 399.61
  Q 232.42 399.24 232.78 399.56
  Q 237.55 403.89 235.81 409.50
  Q 231.46 423.46 219.70 432.25
  Z"
/>
<path fill="#674b33" d="
  M 304.05 422.75
  Q 299.12 425.89 293.11 427.40
  Q 292.60 427.52 292.25 427.92
  C 288.81 431.91 285.09 432.88 281.12 435.91
  Q 278.46 437.95 275.14 438.78
  C 267.41 430.70 256.00 414.77 261.02 402.83
  A 0.36 0.36 0.0 0 1 261.69 402.85
  C 265.59 413.15 278.72 414.10 288.05 411.90
  Q 288.54 411.79 288.86 412.17
  Q 294.88 419.25 304.05 422.75
  Z"
/>
<path fill="#a38869" d="
  M 183.88 419.78
  L 190.40 422.92
  C 183.70 427.33 177.20 436.72 185.71 443.19
  A 0.26 0.26 0.0 0 1 185.52 443.66
  C 178.12 442.88 165.37 440.93 166.03 430.47
  Q 166.34 425.61 170.60 422.86
  C 172.24 421.81 174.50 421.53 176.55 420.74
  Q 177.59 420.34 176.47 420.31
  C 170.20 420.09 164.98 424.84 164.52 431.07
  C 164.34 433.49 165.68 435.39 166.83 437.48
  Q 167.25 438.23 166.51 437.80
  C 163.14 435.86 158.89 432.44 159.18 428.14
  C 159.79 419.11 170.52 417.92 177.45 419.07
  Q 180.81 419.62 183.88 419.78
  Z"
/>
<path fill="#866645" d="
  M 194.90 421.81
  Q 207.70 425.35 219.70 432.25
  Q 207.76 441.81 193.51 443.32
  Q 189.42 443.75 187.09 442.37
  Q 183.96 440.51 183.14 436.46
  L 200.80 433.83
  A 1.67 1.67 0.0 0 0 201.08 430.60
  Q 195.23 428.66 191.86 423.57
  L 194.90 421.81
  Z"
/>
<path fill="#866645" d="
  M 304.05 422.75
  Q 313.74 424.83 323.86 425.31
  C 337.01 425.92 347.12 438.75 332.28 447.68
  A 0.33 0.33 0.0 0 1 331.82 447.25
  C 336.13 438.41 333.83 432.07 324.57 428.69
  Q 323.03 428.13 321.97 428.25
  A 0.21 0.21 0.0 0 0 321.93 428.66
  C 330.19 431.33 335.32 437.01 331.12 446.09
  C 328.77 451.17 313.95 451.40 309.12 451.39
  A 0.31 0.31 0.0 0 1 308.98 450.80
  C 315.56 447.48 316.54 440.22 312.20 434.65
  Q 308.74 430.20 302.60 428.97
  Q 302.11 428.87 302.22 429.36
  Q 302.36 429.93 303.35 430.30
  Q 296.38 431.77 292.21 435.31
  Q 291.79 435.65 291.75 436.19
  Q 291.55 438.65 293.96 439.53
  Q 302.88 442.80 313.42 440.96
  C 314.17 446.45 310.13 451.18 304.64 450.84
  Q 287.84 449.78 275.14 438.78
  Q 278.46 437.95 281.12 435.91
  C 285.09 432.88 288.81 431.91 292.25 427.92
  Q 292.60 427.52 293.11 427.40
  Q 299.12 425.89 304.05 422.75
  Z"
/>
<path fill="#a38869" d="
  M 191.86 423.57
  Q 195.23 428.66 201.08 430.60
  A 1.67 1.67 0.0 0 1 200.80 433.83
  L 183.14 436.46
  Q 183.30 427.84 191.86 423.57
  Z"
/>
<path fill="#a38869" d="
  M 303.35 430.30
  Q 311.89 432.61 313.42 440.96
  Q 302.88 442.80 293.96 439.53
  Q 291.55 438.65 291.75 436.19
  Q 291.79 435.65 292.21 435.31
  Q 296.38 431.77 303.35 430.30
  Z"
/>
</svg>
