<?xml version="1.0" encoding="UTF-8" standalone="no"?>
<svg xmlns="http://www.w3.org/2000/svg" version="1.2" baseProfile="tiny" viewBox="0.00 0.00 500.00 500.00">
<path fill="#030303" fill-opacity="0.996" d="
  M 444.21 500.00
  L 442.95 500.00
  C 420.49 491.25 400.87 480.85 384.45 463.68
  Q 357.91 435.93 350.08 396.96
  Q 348.93 391.20 348.82 388.49
  Q 347.79 361.60 353.62 335.40
  C 354.83 329.97 355.65 323.81 357.01 318.76
  Q 363.72 293.95 366.92 268.46
  C 367.04 267.53 367.60 266.48 367.65 265.68
  C 369.38 240.72 365.46 215.98 345.50 198.01
  C 343.71 196.40 341.83 196.38 339.66 197.53
  C 325.06 205.29 328.29 217.18 334.69 229.37
  C 339.45 238.45 344.37 246.98 346.91 257.45
  C 352.41 280.15 340.39 307.27 333.29 326.34
  C 329.37 336.87 324.61 346.94 320.12 357.22
  A 0.97 0.96 42.1 0 0 320.17 358.10
  C 328.02 371.31 337.20 381.58 347.46 391.51
  A 2.25 2.25 0.0 0 1 347.43 394.77
  C 336.09 405.36 328.29 418.23 321.53 431.98
  C 316.54 442.14 309.57 460.32 317.10 470.63
  A 2.35 2.35 0.0 0 0 319.90 471.41
  C 327.77 468.10 335.89 466.34 344.54 467.11
  Q 365.71 468.98 383.82 482.50
  Q 385.13 483.48 383.76 484.36
  Q 383.02 484.83 381.41 483.95
  Q 380.34 483.36 379.58 483.17
  C 365.11 479.44 350.82 482.94 336.97 487.56
  C 325.99 491.23 309.04 494.95 299.89 485.41
  C 297.43 482.85 295.30 478.59 293.12 475.12
  A 0.69 0.68 62.5 0 0 292.28 474.85
  C 279.11 480.21 269.65 481.29 253.81 482.64
  C 245.01 483.38 234.06 482.05 223.16 481.10
  Q 217.87 480.64 213.09 478.57
  A 1.78 1.75 6.3 0 1 212.06 477.30
  Q 211.85 476.26 212.65 475.90
  Q 213.03 475.72 213.85 475.78
  Q 234.99 477.27 254.79 469.83
  Q 260.44 467.71 262.47 462.06
  A 0.86 0.85 -57.0 0 0 262.29 461.18
  C 261.06 459.87 259.91 458.44 258.50 457.30
  C 235.21 438.48 214.12 416.26 200.05 389.45
  Q 199.02 387.48 199.97 385.87
  Q 205.71 376.06 207.27 364.75
  Q 207.60 362.35 205.71 357.77
  Q 200.94 346.19 199.48 333.66
  A 0.40 0.40 0.0 0 0 198.83 333.40
  Q 184.86 345.32 167.98 353.16
  C 160.47 356.65 153.20 360.26 145.37 363.02
  Q 132.10 367.70 118.82 372.39
  Q 118.33 372.56 118.07 373.00
  C 112.70 381.91 110.76 391.19 111.68 401.69
  C 112.31 408.80 113.63 415.08 116.62 420.54
  A 1.66 1.66 0.0 0 1 115.49 422.97
  C 100.46 426.00 75.99 437.25 64.23 448.73
  Q 62.17 450.73 56.83 457.85
  C 50.85 465.82 46.69 473.34 43.70 482.45
  A 1.17 1.16 29.3 0 1 41.84 482.97
  C 38.27 479.94 38.36 466.29 38.87 461.99
  C 43.79 420.78 70.06 384.52 105.33 363.76
  Q 121.07 354.49 135.23 348.77
  C 150.00 342.81 166.55 333.55 178.00 322.25
  C 186.56 313.80 188.28 299.19 183.41 287.91
  C 179.18 278.12 173.69 271.57 168.06 263.66
  C 163.33 257.01 156.44 249.61 152.52 241.75
  C 147.20 231.07 144.04 214.26 147.92 201.99
  C 153.73 183.60 166.91 172.96 185.64 169.11
  C 199.25 166.31 215.03 171.65 226.38 179.16
  Q 226.87 179.48 227.06 178.93
  C 228.05 176.11 227.15 174.52 224.60 173.11
  C 216.76 168.75 210.26 166.85 202.53 164.64
  C 186.46 160.03 176.09 150.62 177.35 132.83
  C 177.90 125.09 181.65 116.20 184.57 108.38
  C 187.39 100.81 186.83 95.08 182.41 88.37
  A 1.59 1.59 0.0 0 1 184.07 85.95
  C 199.48 89.26 199.27 104.16 203.52 116.24
  Q 206.28 124.08 213.73 129.05
  A 0.87 0.86 -82.9 0 0 215.02 128.04
  C 212.36 120.54 211.57 112.89 214.30 105.11
  C 218.80 92.24 227.35 81.51 238.21 72.20
  A 0.77 0.77 0.0 0 0 238.45 71.41
  C 235.28 60.29 227.74 54.80 218.68 49.32
  C 215.23 47.23 209.97 42.74 209.99 38.36
  A 1.19 1.18 21.2 0 1 211.97 37.49
  C 214.99 40.22 217.73 41.59 221.92 42.74
  C 224.03 43.32 225.92 44.17 228.10 44.41
  C 237.49 45.43 249.86 46.87 255.78 54.95
  Q 256.99 56.60 258.42 55.13
  C 265.90 47.40 272.48 41.92 270.83 31.24
  Q 269.18 20.51 259.41 15.85
  Q 256.67 14.54 259.45 13.31
  C 267.85 9.60 277.92 16.16 284.91 21.85
  C 290.97 26.79 295.90 33.24 297.70 40.94
  C 298.36 43.75 299.29 46.57 299.25 49.43
  C 299.11 58.62 297.53 67.44 292.52 75.30
  Q 292.14 75.89 292.81 75.67
  Q 305.50 71.38 318.49 68.24
  C 322.22 67.33 325.77 59.39 326.69 55.99
  Q 328.35 49.85 328.50 40.86
  C 328.75 26.00 339.90 13.18 352.71 6.41
  A 1.16 1.15 1.2 0 1 354.25 8.01
  Q 345.94 22.25 349.42 39.33
  C 350.06 42.51 352.62 52.86 351.39 55.44
  A 0.45 0.44 -2.6 0 0 352.02 56.01
  C 359.51 51.64 364.72 44.25 366.74 35.66
  C 370.78 18.44 381.91 4.83 399.38 0.33
  A 1.21 1.21 0.0 0 1 400.62 2.28
  C 393.40 10.96 387.38 21.11 387.02 32.82
  C 386.69 43.61 386.18 55.62 383.07 65.48
  Q 380.62 73.22 376.73 80.40
  C 375.17 83.27 372.65 86.14 370.60 89.15
  A 0.44 0.44 0.0 0 0 370.94 89.83
  Q 381.45 90.39 391.70 92.22
  C 405.75 94.72 417.25 89.32 421.45 75.14
  A 1.35 1.35 0.0 0 1 424.06 75.23
  C 426.04 84.12 424.08 91.92 420.11 100.14
  C 416.69 107.24 408.78 116.33 401.37 118.44
  A 0.64 0.64 0.0 0 0 401.39 119.68
  C 408.37 121.32 416.15 123.26 423.63 122.58
  C 434.52 121.59 444.99 115.91 447.93 104.72
  C 448.99 100.71 448.39 96.88 447.39 92.87
  A 1.65 1.65 0.0 0 1 449.98 91.15
  C 454.96 94.90 457.07 100.33 459.18 106.64
  C 463.45 119.46 460.19 132.73 452.43 143.39
  C 443.84 155.19 428.37 162.75 413.94 164.26
  C 411.90 164.48 409.84 165.20 407.90 165.21
  Q 397.14 165.28 386.65 165.24
  A 0.72 0.72 0.0 0 0 386.51 166.66
  C 388.19 167.01 390.09 167.31 391.66 168.14
  Q 397.17 171.04 402.65 174.00
  Q 414.93 180.66 422.47 191.95
  C 434.51 209.99 428.39 228.40 420.11 246.23
  Q 411.23 265.38 400.99 283.85
  C 393.09 298.11 385.13 315.71 380.51 327.21
  Q 372.25 347.75 367.76 369.41
  C 367.11 372.50 367.22 375.40 367.26 378.52
  A 1.91 1.88 -62.3 0 0 367.56 379.51
  Q 379.35 397.86 401.83 403.41
  Q 403.58 403.84 403.44 406.24
  C 402.62 420.12 404.73 434.04 410.40 447.20
  C 418.66 466.39 427.85 482.65 443.53 496.67
  Q 444.36 497.41 444.67 498.06
  Q 445.38 499.55 444.21 500.00
  Z
  M 227.08 211.91
  Q 217.06 204.97 205.48 200.82
  Q 205.04 200.66 204.63 200.89
  C 188.57 209.80 198.40 237.40 205.39 248.89
  Q 208.53 254.06 211.14 259.29
  A 0.42 0.42 0.0 0 0 211.90 259.29
  C 216.84 249.32 221.62 239.30 226.70 229.44
  C 229.23 224.54 233.03 216.03 227.08 211.91
  Z"
/>
<g stroke-width="2.00" fill="none" stroke-linecap="butt">
<path stroke="#8789b0" vector-effect="non-scaling-stroke" d="
  M 372.67 74.18
  Q 368.25 73.05 367.06 73.52
  C 362.09 75.51 360.72 72.69 357.16 70.56
  C 354.26 68.82 352.35 66.90 351.91 63.32
  Q 351.47 59.86 352.25 57.11"
/>
<path stroke="#8789b0" vector-effect="non-scaling-stroke" d="
  M 305.08 115.84
  Q 301.84 112.92 297.86 111.71
  Q 297.30 111.54 296.93 111.08
  L 295.10 108.72
  Q 294.80 108.33 294.34 108.18
  Q 288.08 106.08 282.00 103.50
  C 278.04 101.81 274.81 110.84 270.03 105.89
  C 266.12 101.85 262.10 104.90 259.62 108.43
  A 0.63 0.62 -59.1 0 1 258.83 108.63
  Q 257.79 108.12 256.93 108.42"
/>
<path stroke="#8789b0" vector-effect="non-scaling-stroke" d="
  M 288.54 133.31
  Q 287.54 133.56 286.68 132.96
  Q 286.26 132.67 285.90 133.03
  C 283.17 135.69 280.32 133.68 277.99 134.22
  C 270.61 135.93 267.54 133.97 261.01 133.25
  Q 259.14 133.04 252.85 134.59"
/>
<path stroke="#6c6d91" vector-effect="non-scaling-stroke" d="
  M 295.56 187.84
  C 293.36 187.44 291.93 187.82 290.37 189.24
  Q 289.54 189.99 288.10 188.99"
/>
<path stroke="#6c6d91" vector-effect="non-scaling-stroke" d="
  M 265.63 195.18
  Q 265.54 195.86 264.71 195.82"
/>
<path stroke="#8789b0" vector-effect="non-scaling-stroke" d="
  M 205.16 163.90
  Q 205.64 162.42 206.31 161.56
  Q 206.86 160.86 208.47 160.51
  Q 212.04 159.76 214.81 157.49
  C 217.88 154.98 216.59 150.90 218.85 148.03
  C 220.25 146.24 222.72 145.84 223.54 144.10"
/>
<path stroke="#8789b0" vector-effect="non-scaling-stroke" d="
  M 225.07 143.83
  Q 231.20 141.54 233.20 141.16
  Q 238.25 140.21 240.60 136.68
  Q 240.87 136.27 241.35 136.16
  C 243.93 135.53 246.23 134.15 248.95 134.57
  Q 249.42 134.65 249.77 134.94
  Q 250.42 135.49 251.53 134.70"
/>
<path stroke="#8789b0" vector-effect="non-scaling-stroke" d="
  M 285.70 140.72
  L 285.75 141.84
  Q 285.78 142.28 286.20 142.40
  L 293.90 144.68
  Q 294.40 144.83 294.74 145.22
  C 297.28 148.17 299.92 145.06 302.50 147.02
  Q 303.76 147.98 304.49 148.58
  Q 304.87 148.89 305.36 148.83
  Q 308.06 148.48 309.96 150.13
  Q 310.32 150.43 310.77 150.57
  L 313.93 151.52
  Q 314.48 151.69 315.05 151.60
  C 321.48 150.68 333.90 154.20 332.95 142.76
  C 332.33 135.42 326.72 140.07 324.57 135.06
  Q 324.36 134.56 323.92 134.25
  Q 320.69 131.94 316.70 132.04
  Q 316.18 132.06 315.83 131.68
  Q 313.72 129.38 314.30 126.24
  A 1.59 1.58 34.7 0 0 314.09 125.10
  Q 313.34 123.86 314.03 122.54
  A 0.67 0.67 0.0 0 0 313.88 121.72
  L 307.09 115.82"
/>
<path stroke="#8789b0" vector-effect="non-scaling-stroke" d="
  M 403.37 164.12
  Q 403.27 158.96 409.08 156.69
  A 1.99 1.97 8.4 0 0 409.87 156.11
  C 413.73 151.39 417.60 152.47 417.43 144.50
  C 417.35 140.81 413.97 140.19 413.70 135.98
  Q 413.67 135.50 413.34 135.14
  Q 412.00 133.72 413.17 132.09"
/>
<path stroke="#8789b0" vector-effect="non-scaling-stroke" d="
  M 255.25 108.98
  Q 249.82 107.88 247.43 108.46
  C 243.37 109.44 235.18 109.89 231.52 106.92
  Q 231.16 106.62 230.70 106.52
  Q 227.55 105.85 224.92 107.58
  Q 224.45 107.89 223.89 107.97
  Q 221.88 108.26 220.37 109.59
  A 0.74 0.73 37.8 0 1 219.56 109.69
  Q 217.02 108.44 214.70 110.33"
/>
<path stroke="#8789b0" vector-effect="non-scaling-stroke" d="
  M 217.60 138.39
  Q 215.33 140.20 213.80 141.97
  C 211.04 145.16 205.07 145.79 200.58 146.69
  C 197.45 147.32 195.62 149.54 193.27 151.46
  Q 192.87 151.78 192.82 152.28
  L 192.13 159.20"
/>
<path stroke="#8789b0" vector-effect="non-scaling-stroke" d="
  M 290.09 63.01
  Q 286.89 63.87 284.47 62.69
  C 280.99 60.99 279.56 60.44 276.00 60.27
  C 271.13 60.04 266.29 54.93 263.59 51.15"
/>
<path stroke="#8789b0" vector-effect="non-scaling-stroke" d="
  M 197.12 120.90
  Q 193.66 122.13 190.70 124.00
  C 188.38 125.47 185.93 125.73 184.16 123.59
  A 1.23 1.22 -12.3 0 0 183.53 123.19
  L 181.11 122.52"
/>
<path stroke="#4e9bae" vector-effect="non-scaling-stroke" d="
  M 343.26 21.36
  Q 341.31 21.21 339.49 21.86
  Q 339.04 22.02 338.63 21.77
  Q 337.75 21.23 337.42 20.50"
/>
<path stroke="#3b7491" vector-effect="non-scaling-stroke" d="
  M 342.39 55.72
  Q 337.84 52.50 331.94 53.31
  Q 331.45 53.38 331.09 53.05
  Q 330.28 52.29 329.35 52.41
  Q 329.04 52.45 329.01 52.14
  L 328.90 50.99"
/>
<path stroke="#93a8b7" vector-effect="non-scaling-stroke" d="
  M 386.97 23.29
  Q 387.21 22.72 386.42 22.69"
/>
<path stroke="#74bbd0" vector-effect="non-scaling-stroke" d="
  M 377.03 77.06
  Q 375.35 77.56 373.49 75.21"
/>
<path stroke="#74bbd0" vector-effect="non-scaling-stroke" d="
  M 295.04 67.50
  Q 293.90 66.01 290.28 65.43"
/>
<path stroke="#4e9bae" vector-effect="non-scaling-stroke" d="
  M 418.51 96.77
  Q 416.45 96.89 415.73 95.04
  Q 415.55 94.58 415.08 94.43
  Q 412.70 93.66 411.17 90.77"
/>
<path stroke="#3b7491" vector-effect="non-scaling-stroke" d="
  M 379.52 91.64
  Q 379.19 94.42 381.27 95.30
  Q 386.67 97.59 387.78 102.50
  Q 388.76 106.84 386.07 110.00
  Q 385.76 110.36 385.63 110.81
  Q 385.14 112.50 385.59 113.24"
/>
<path stroke="#74bbd0" vector-effect="non-scaling-stroke" d="
  M 411.42 129.88
  Q 409.42 125.09 402.57 123.86
  Q 402.07 123.77 401.90 123.29
  Q 401.23 121.33 402.04 120.88"
/>
<path stroke="#74bbd0" vector-effect="non-scaling-stroke" d="
  M 202.25 117.44
  Q 202.37 118.44 201.29 118.50
  Q 200.81 118.52 200.63 118.96
  Q 200.16 120.12 198.39 120.18"
/>
<path stroke="#d16096" vector-effect="non-scaling-stroke" d="
  M 404.15 244.27
  Q 407.09 239.85 407.21 234.17
  Q 407.21 234.11 407.27 234.08
  Q 407.38 234.03 407.55 234.01
  Q 407.87 233.98 407.92 233.67
  C 409.44 225.13 410.09 213.96 406.56 205.83
  C 404.72 201.60 403.59 194.73 400.80 191.35
  Q 395.22 184.57 392.99 183.27
  Q 389.04 180.97 385.06 178.73
  A 1.72 1.72 0.0 0 0 384.18 178.51
  C 382.05 178.55 380.71 176.88 379.37 176.26
  C 376.83 175.09 374.81 173.58 372.03 173.14
  Q 361.03 171.38 349.96 173.26
  Q 349.36 173.36 349.73 173.85
  C 350.95 175.41 352.53 174.42 353.73 175.72
  Q 354.04 176.06 354.50 176.15
  Q 363.49 177.81 371.30 182.60
  C 373.68 184.06 376.44 184.69 378.90 186.30
  A 1.11 1.10 54.2 0 0 379.78 186.45
  C 388.13 184.33 391.50 189.02 396.27 195.49
  Q 402.13 203.44 402.94 213.64
  C 403.08 215.49 402.55 217.22 402.38 219.13
  Q 402.33 219.70 401.88 220.04
  L 399.06 222.17
  Q 398.64 222.49 398.68 223.02
  Q 398.84 225.24 397.34 226.12"
/>
<path stroke="#d16096" vector-effect="non-scaling-stroke" d="
  M 147.87 214.43
  Q 148.39 215.31 149.32 214.43
  C 150.47 213.34 150.90 209.37 151.68 207.73
  Q 154.03 202.77 156.14 197.69
  A 1.76 1.69 -8.2 0 1 156.71 196.96
  C 158.85 195.36 159.99 193.15 162.06 191.77
  C 164.19 190.34 166.64 189.23 168.31 187.27
  C 169.40 185.98 172.54 182.83 170.96 181.08
  A 1.81 1.81 0.0 0 0 168.35 180.99
  Q 167.07 182.23 165.36 183.10
  Q 164.28 183.65 163.65 183.13
  Q 163.06 182.64 162.45 181.51"
/>
<path stroke="#d16096" vector-effect="non-scaling-stroke" d="
  M 250.84 181.13
  Q 246.68 179.10 242.85 179.27"
/>
<path stroke="#d16096" vector-effect="non-scaling-stroke" d="
  M 254.71 187.03
  Q 253.49 190.37 252.48 191.22
  C 250.29 193.10 247.19 196.60 244.43 197.13
  Q 243.94 197.22 243.51 196.98
  Q 242.60 196.48 241.15 196.73"
/>
<path stroke="#ada6bc" vector-effect="non-scaling-stroke" d="
  M 286.76 190.41
  C 282.79 190.66 277.92 192.05 275.16 192.60
  Q 270.92 193.46 266.79 194.69"
/>
<path stroke="#ccc9e0" vector-effect="non-scaling-stroke" d="
  M 398.59 232.96
  C 393.48 238.00 393.91 243.20 392.64 249.44
  Q 392.56 249.86 392.16 250.01
  Q 391.76 250.18 391.75 250.74
  C 391.72 253.22 390.62 255.77 390.47 257.70
  Q 390.31 259.78 390.56 262.22
  A 0.75 0.74 -23.1 0 0 391.79 262.71
  L 399.20 256.34
  Q 399.61 255.99 399.73 255.46
  Q 400.14 253.66 401.21 252.16
  A 1.02 1.02 0.0 0 1 402.08 251.73
  Q 403.38 251.79 403.68 250.77"
/>
<path stroke="#ccc9e0" vector-effect="non-scaling-stroke" d="
  M 368.48 359.50
  C 364.24 355.44 361.12 357.50 356.54 358.78
  Q 354.39 359.38 352.33 360.40
  Q 351.89 360.62 351.96 360.14
  L 352.01 359.75
  Q 352.14 358.76 351.58 359.58
  Q 351.30 359.99 350.77 359.97"
/>
<path stroke="#796b7e" vector-effect="non-scaling-stroke" d="
  M 333.27 191.07
  Q 322.85 198.44 319.67 211.58
  C 318.79 215.25 319.46 219.43 319.78 223.25"
/>
<path stroke="#695671" vector-effect="non-scaling-stroke" d="
  M 319.78 223.25
  C 316.36 224.63 313.65 226.75 310.27 227.88
  C 306.02 229.32 301.78 231.37 297.31 231.95
  C 293.74 232.41 289.56 233.85 286.81 234.25
  Q 274.05 236.11 260.83 235.18"
/>
<path stroke="#907d97" vector-effect="non-scaling-stroke" d="
  M 321.31 227.74
  Q 320.86 228.27 319.97 228.29"
/>
<path stroke="#b6a99d" vector-effect="non-scaling-stroke" d="
  M 319.97 228.29
  L 319.72 226.68
  Q 319.61 226.00 319.05 226.41
  Q 299.89 240.55 277.28 248.12
  C 271.67 250.00 268.92 257.40 267.98 262.75
  Q 267.86 263.46 268.58 263.48
  C 287.88 264.14 304.41 258.49 321.28 249.83"
/>
<path stroke="#86768f" vector-effect="non-scaling-stroke" d="
  M 321.28 249.83
  Q 323.03 255.15 324.89 260.26
  C 326.65 265.11 327.54 269.79 328.62 274.73
  Q 328.73 275.22 329.09 275.56
  C 332.47 278.87 329.10 293.33 327.91 297.90
  C 327.17 300.76 326.84 304.49 325.15 307.35
  Q 323.88 309.48 323.46 311.32
  Q 322.04 317.60 319.97 323.70
  Q 319.62 324.74 319.78 325.86
  A 1.98 1.90 52.0 0 1 319.69 326.75
  L 313.18 345.02"
/>
<path stroke="#695671" vector-effect="non-scaling-stroke" d="
  M 288.51 363.21
  Q 284.89 363.09 282.34 360.52
  C 280.44 358.60 278.96 358.10 276.52 357.91"
/>
<path stroke="#b6a99d" vector-effect="non-scaling-stroke" d="
  M 276.52 357.91
  Q 278.18 349.40 274.90 341.63
  C 272.78 336.59 268.57 337.15 266.49 341.79
  Q 264.78 345.60 264.63 349.71"
/>
<path stroke="#695671" vector-effect="non-scaling-stroke" d="
  M 264.63 349.71
  Q 262.88 348.34 263.06 353.71
  Q 263.08 354.32 262.48 354.41
  Q 259.15 354.89 258.01 358.08
  Q 257.83 358.57 257.37 358.83
  Q 253.17 361.18 248.40 361.47
  C 245.78 361.63 244.11 362.50 242.55 364.35
  A 1.64 1.63 -41.1 0 0 242.41 366.28
  C 243.93 368.69 244.51 371.77 246.58 373.83
  Q 246.93 374.17 247.41 374.29
  C 250.05 374.94 250.72 381.12 250.62 382.88
  Q 250.59 383.38 250.89 383.77
  C 252.28 385.58 252.04 387.73 252.51 390.40
  C 253.21 394.33 255.55 398.74 256.92 402.56
  C 257.86 405.21 260.18 408.71 261.59 411.54
  Q 266.43 421.28 272.55 430.54"
/>
<path stroke="#86768f" vector-effect="non-scaling-stroke" d="
  M 272.55 430.54
  C 266.01 426.63 263.00 418.08 259.44 411.72
  Q 253.12 400.44 250.56 387.71
  C 249.51 382.49 245.45 381.43 243.70 377.06
  C 242.17 373.27 240.67 369.95 240.16 365.81
  Q 239.13 357.65 238.59 349.45
  Q 238.58 349.36 238.50 349.33
  Q 238.29 349.26 238.07 349.20
  A 0.28 0.28 0.0 0 1 237.88 348.95
  L 237.04 332.36
  A 1.50 1.49 -79.0 0 1 239.16 330.93
  L 240.00 331.32
  Q 240.33 331.47 240.63 331.26
  Q 241.62 330.55 241.10 329.46
  A 0.77 0.76 48.8 0 1 241.15 328.69
  L 241.56 328.07
  Q 241.79 327.71 241.77 327.28
  Q 240.99 309.65 243.19 292.18
  C 243.88 286.62 245.48 280.56 246.59 274.69
  C 247.28 271.04 249.01 267.37 249.76 263.52
  Q 250.32 260.58 251.39 257.05
  Q 252.52 253.31 252.64 249.34
  A 0.05 0.05 0.0 0 0 252.54 249.33
  Q 252.10 251.10 250.79 252.07"
/>
<path stroke="#907d97" vector-effect="non-scaling-stroke" d="
  M 250.79 252.07
  Q 253.02 244.68 256.89 238.63"
/>
<path stroke="#ada6bc" vector-effect="non-scaling-stroke" d="
  M 328.72 219.73
  Q 326.96 219.91 326.36 221.24
  Q 326.16 221.69 325.76 221.97
  L 320.76 225.46"
/>
<path stroke="#86768f" vector-effect="non-scaling-stroke" d="
  M 320.76 225.46
  Q 320.06 224.97 319.78 223.25"
/>
<path stroke="#a092a4" vector-effect="non-scaling-stroke" d="
  M 250.79 252.07
  Q 244.23 272.66 241.25 294.26
  C 240.97 296.32 240.97 299.36 240.56 302.26
  Q 239.48 309.82 240.31 319.75
  Q 240.45 321.35 239.68 324.47
  Q 239.51 325.15 238.84 324.98
  L 237.87 324.72
  A 0.59 0.59 0.0 0 0 237.17 325.11
  Q 235.51 330.25 235.20 332.49
  Q 234.82 335.21 235.20 341.79"
/>
<path stroke="#d1c7bf" vector-effect="non-scaling-stroke" d="
  M 235.20 341.79
  C 233.40 340.01 231.53 337.44 228.84 338.21
  Q 228.34 338.36 228.10 338.83
  C 224.56 346.00 225.56 354.68 229.93 361.25"
/>
<path stroke="#a092a4" vector-effect="non-scaling-stroke" d="
  M 229.93 361.25
  Q 228.37 360.09 225.64 360.88"
/>
<path stroke="#a092a4" vector-effect="non-scaling-stroke" d="
  M 223.44 352.27
  C 222.37 343.60 220.21 334.55 220.27 325.89
  Q 220.30 320.96 220.41 316.04
  Q 220.42 315.55 220.87 315.75
  L 221.33 315.96
  Q 221.66 316.10 221.89 315.82
  Q 222.28 315.32 222.26 314.47"
/>
<path stroke="#d1c7bf" vector-effect="non-scaling-stroke" d="
  M 222.26 314.47
  C 229.93 329.21 235.85 310.06 236.65 304.98
  C 237.70 298.30 239.04 282.40 231.69 278.60
  Q 231.26 278.38 230.84 278.65
  L 227.06 281.15"
/>
<path stroke="#d0c5b2" vector-effect="non-scaling-stroke" d="
  M 233.38 259.64
  L 240.42 261.75
  Q 240.98 261.92 241.02 261.34
  Q 241.49 254.05 238.88 247.36"
/>
<path stroke="#a99e8c" vector-effect="non-scaling-stroke" d="
  M 276.52 357.91
  Q 275.78 362.49 273.21 366.25
  A 1.81 1.80 32.4 0 1 270.80 366.78
  C 265.42 363.58 263.97 355.61 264.63 349.71"
/>
<path stroke="#ada6bc" vector-effect="non-scaling-stroke" d="
  M 316.15 350.77
  L 317.71 346.90"
/>
<path stroke="#b7adc5" vector-effect="non-scaling-stroke" d="
  M 317.71 346.90
  Q 323.86 333.63 327.80 318.92"
/>
<path stroke="#ccc9e0" vector-effect="non-scaling-stroke" d="
  M 327.80 318.92
  L 328.15 319.77
  A 0.61 0.61 0.0 0 0 329.27 319.77
  Q 331.32 314.83 333.22 309.84
  C 335.97 302.64 338.18 293.64 340.59 287.07
  C 343.88 278.10 342.79 271.28 342.97 262.26
  Q 343.02 259.86 341.90 257.65
  C 340.69 255.27 340.03 251.85 339.27 248.98
  C 338.35 245.53 335.32 243.86 333.69 241.87
  Q 331.23 238.86 329.52 235.36
  C 328.23 232.70 328.16 229.59 325.07 227.17
  A 1.90 1.90 0.0 0 0 322.08 228.14
  L 321.89 228.81"
/>
<path stroke="#b7adc5" vector-effect="non-scaling-stroke" d="
  M 321.89 228.81
  L 321.31 227.74"
/>
<path stroke="#9d91b0" vector-effect="non-scaling-stroke" d="
  M 321.31 227.74
  L 320.76 225.46"
/>
<path stroke="#d0c5b2" vector-effect="non-scaling-stroke" d="
  M 319.97 228.29
  Q 320.33 228.78 320.40 229.51"
/>
<path stroke="#f7f3c5" vector-effect="non-scaling-stroke" d="
  M 320.40 229.51
  Q 319.40 230.58 317.86 230.76
  Q 317.30 230.82 317.04 231.32
  L 315.56 234.12
  Q 315.22 234.76 315.58 235.38
  L 321.52 245.67
  A 1.23 1.23 0.0 0 0 323.17 246.14
  L 327.55 243.77"
/>
<path stroke="#d0c5b2" vector-effect="non-scaling-stroke" d="
  M 327.55 243.77
  Q 328.05 244.53 327.42 245.16
  Q 324.89 247.68 321.62 249.62"
/>
<path stroke="#c6bea9" vector-effect="non-scaling-stroke" d="
  M 321.62 249.62
  Q 321.48 249.81 321.28 249.83"
/>
<path stroke="#a092a4" vector-effect="non-scaling-stroke" d="
  M 317.71 346.90
  L 315.64 345.10
  A 0.79 0.79 0.0 0 1 315.43 344.21
  Q 318.60 336.30 321.19 326.48
  Q 323.12 319.15 330.35 293.76
  C 331.22 290.70 331.12 287.59 331.24 284.44
  C 331.38 281.12 332.57 275.54 331.99 270.79
  Q 331.93 270.29 331.62 269.90
  C 329.87 267.71 328.83 266.36 328.47 263.35
  C 328.07 260.00 326.38 257.43 326.40 254.58
  Q 326.40 254.07 326.03 253.72
  L 321.62 249.62"
/>
<path stroke="#d1c7bf" vector-effect="non-scaling-stroke" d="
  M 327.55 243.77
  L 320.40 229.51"
/>
<path stroke="#796b7e" vector-effect="non-scaling-stroke" d="
  M 272.55 430.54
  Q 272.91 430.67 273.26 431.19"
/>
<path stroke="#b5aebf" vector-effect="non-scaling-stroke" d="
  M 271.78 430.64
  C 265.24 425.54 259.04 420.72 253.37 414.45
  Q 249.32 409.96 245.00 405.13"
/>
<path stroke="#c6c0b7" vector-effect="non-scaling-stroke" d="
  M 229.93 361.25
  C 231.11 362.81 236.98 368.47 237.94 363.68
  Q 240.25 352.13 235.20 341.79"
/>
<path stroke="#907d97" vector-effect="non-scaling-stroke" d="
  M 245.70 227.31
  C 243.56 230.23 244.08 233.08 242.64 236.06
  Q 239.90 241.71 238.88 247.36"
/>
<path stroke="#b6a99d" vector-effect="non-scaling-stroke" d="
  M 238.88 247.36
  L 232.68 243.00
  Q 232.21 242.67 231.93 243.18
  L 225.28 255.58
  Q 225.08 255.95 225.47 256.12
  L 233.38 259.64"
/>
<path stroke="#907d97" vector-effect="non-scaling-stroke" d="
  M 233.38 259.64
  C 231.53 262.65 230.78 266.26 229.71 269.09
  Q 228.52 272.23 228.16 275.66
  Q 228.11 276.17 227.75 276.53
  Q 225.72 278.62 227.06 281.15"
/>
<path stroke="#b7abaa" vector-effect="non-scaling-stroke" d="
  M 227.06 281.15
  Q 218.65 292.62 220.10 306.15"
/>
<path stroke="#86768f" vector-effect="non-scaling-stroke" d="
  M 220.10 306.15
  C 219.87 309.15 218.56 313.14 218.76 315.84
  C 219.19 321.88 218.56 328.00 218.89 334.10
  C 219.15 339.07 220.68 344.55 221.33 349.89
  Q 221.39 350.40 221.77 350.75
  L 223.44 352.27"
/>
<path stroke="#907d97" vector-effect="non-scaling-stroke" d="
  M 223.44 352.27
  L 225.64 360.88"
/>
<path stroke="#86768f" vector-effect="non-scaling-stroke" d="
  M 225.64 360.88
  Q 231.07 377.08 237.61 390.46
  Q 238.49 392.24 239.12 393.27
  A 0.62 0.62 0.0 0 1 238.70 394.20
  Q 237.81 394.35 237.00 394.07"
/>
<path stroke="#c6c0b7" vector-effect="non-scaling-stroke" d="
  M 222.26 314.47
  L 220.10 306.15"
/>
<path stroke="#9d91b0" vector-effect="non-scaling-stroke" d="
  M 237.03 219.80
  C 237.23 233.26 229.73 245.36 223.52 256.74
  C 213.93 274.32 207.30 295.51 207.42 315.69
  C 207.46 321.57 208.63 327.72 209.61 333.76
  C 213.04 354.89 224.51 376.80 237.00 394.07"
/>
<path stroke="#ada6bc" vector-effect="non-scaling-stroke" d="
  M 237.00 394.07
  L 245.00 405.13"
/>
<path stroke="#ccc9e0" vector-effect="non-scaling-stroke" d="
  M 245.00 405.13
  Q 249.77 414.56 256.94 422.05
  Q 257.16 422.29 257.49 422.25
  Q 257.68 422.22 257.86 422.24
  Q 258.13 422.27 258.43 422.55
  C 262.15 425.98 265.16 430.38 268.43 433.56
  Q 273.85 438.83 279.63 444.56
  A 0.61 0.61 0.0 0 0 280.67 444.18
  C 280.76 443.14 280.41 442.42 279.74 441.56
  C 277.69 438.93 275.57 436.71 273.95 433.64
  Q 273.14 432.11 271.78 430.64"
/>
<path stroke="#ada6bc" vector-effect="non-scaling-stroke" d="
  M 271.78 430.64
  Q 272.77 431.41 273.26 431.19"
/>
<path stroke="#90869f" vector-effect="non-scaling-stroke" d="
  M 273.26 431.19
  Q 277.53 434.78 283.11 436.74"
/>
<path stroke="#bfb5c8" vector-effect="non-scaling-stroke" d="
  M 327.80 318.92
  Q 332.77 305.11 336.30 290.82
  C 339.37 278.33 338.41 265.64 333.47 253.97
  Q 329.10 243.66 321.89 228.81"
/>
<path stroke="#ada6bc" vector-effect="non-scaling-stroke" d="
  M 239.76 196.31
  L 232.59 193.94"
/>
<path stroke="#ada6bc" vector-effect="non-scaling-stroke" d="
  M 198.63 199.36
  Q 195.86 201.05 192.09 201.29"
/>
<path stroke="#acabc9" vector-effect="non-scaling-stroke" d="
  M 192.09 201.29
  Q 186.61 201.31 181.76 203.76
  Q 166.20 211.61 162.88 228.80
  C 162.76 229.46 163.03 229.96 162.67 230.72
  C 161.12 234.00 162.61 236.37 162.77 239.36
  C 163.04 244.43 164.58 248.79 166.09 253.73
  Q 167.15 257.21 169.47 260.49"
/>
<path stroke="#ada6bc" vector-effect="non-scaling-stroke" d="
  M 169.47 260.49
  Q 172.89 264.74 174.29 269.46"
/>
<path stroke="#9590a8" vector-effect="non-scaling-stroke" d="
  M 198.63 328.25
  Q 195.40 332.63 192.10 335.49
  Q 191.71 335.83 191.57 336.14
  Q 191.20 336.96 191.99 337.05"
/>
<path stroke="#ada6bc" vector-effect="non-scaling-stroke" d="
  M 144.96 361.79
  L 148.14 344.34"
/>
<path stroke="#9590a8" vector-effect="non-scaling-stroke" d="
  M 169.47 260.49
  L 169.72 260.18
  Q 170.00 259.82 169.81 259.40
  C 166.24 251.67 162.46 240.77 163.82 232.19
  C 166.21 217.07 173.31 207.80 187.91 203.10
  Q 190.09 202.40 192.09 201.29"
/>
<path stroke="#ccc9e0" vector-effect="non-scaling-stroke" d="
  M 104.55 378.07
  Q 103.39 375.59 104.86 373.17
  Q 105.10 372.77 104.93 372.33
  Q 104.09 370.11 102.15 368.82
  Q 101.74 368.55 102.08 368.20
  Q 102.78 367.49 102.72 366.67"
/>
<path stroke="#d8d6d4" vector-effect="non-scaling-stroke" d="
  M 312.59 455.96
  Q 307.37 456.96 301.55 456.99
  C 296.79 457.02 292.07 455.48 287.35 454.37"
/>
<path stroke="#d8d6d4" vector-effect="non-scaling-stroke" d="
  M 307.16 482.04
  Q 306.58 484.82 303.94 487.66"
/>
<path stroke="#c7c4cd" vector-effect="non-scaling-stroke" d="
  M 380.53 481.38
  Q 380.55 482.38 380.26 482.22"
/>
<path stroke="#e7e7f1" vector-effect="non-scaling-stroke" d="
  M 217.82 383.84
  L 204.96 395.86"
/>
<path stroke="#c6c0c7" vector-effect="non-scaling-stroke" d="
  M 218.83 385.38
  Q 213.42 392.35 206.70 398.58"
/>
<path stroke="#c6c0c7" vector-effect="non-scaling-stroke" d="
  M 228.60 480.40
  Q 230.32 480.53 230.47 476.72"
/>
<path stroke="#c6c0c7" vector-effect="non-scaling-stroke" d="
  M 110.94 388.03
  C 102.69 386.64 85.06 399.35 78.95 404.71
  Q 67.85 414.45 65.41 417.90
  C 58.43 427.77 55.23 433.03 51.58 443.74"
/>
<path stroke="#d8d6d4" vector-effect="non-scaling-stroke" d="
  M 51.58 443.74
  Q 51.56 445.27 50.38 446.62
  A 1.47 1.46 -23.4 0 0 50.04 447.47
  C 49.87 450.21 48.34 452.21 47.84 454.58
  C 47.17 457.74 45.75 460.86 45.90 464.17
  Q 46.15 470.12 43.25 474.45"
/>
<path stroke="#e7e7f1" vector-effect="non-scaling-stroke" d="
  M 110.45 389.27
  Q 110.54 389.01 110.51 388.80
  Q 110.44 388.25 109.92 388.45
  Q 95.42 394.09 86.94 400.17
  Q 75.20 408.58 63.62 423.60
  C 60.80 427.26 58.82 431.57 55.87 435.01
  Q 55.56 435.37 55.53 435.85
  Q 55.44 437.51 54.32 438.77
  Q 53.98 439.14 53.88 439.64
  Q 53.43 441.86 51.58 443.74"
/>
</g>
<path fill="#9494b5" d="
  M 372.67 74.18
  Q 368.25 73.05 367.06 73.52
  C 362.09 75.51 360.72 72.69 357.16 70.56
  C 354.26 68.82 352.35 66.90 351.91 63.32
  Q 351.47 59.86 352.25 57.11
  C 363.90 50.58 366.14 40.92 370.22 29.40
  Q 377.28 9.44 397.20 1.81
  Q 400.19 0.66 398.31 3.26
  C 393.27 10.18 386.97 17.51 383.81 25.83
  Q 382.14 30.21 380.72 39.88
  C 378.74 53.32 377.08 63.14 372.67 74.18
  Z"
/>
<path fill="#58b2cc" d="
  M 343.26 21.36
  Q 341.31 21.21 339.49 21.86
  Q 339.04 22.02 338.63 21.77
  Q 337.75 21.23 337.42 20.50
  Q 343.15 12.92 351.54 8.12
  A 0.39 0.39 0.0 0 1 352.03 8.71
  Q 347.15 14.42 343.26 21.36
  Z"
/>
<path fill="#5d5c78" d="
  M 341.76 33.70
  C 342.03 25.78 344.89 19.49 349.70 12.80
  A 0.35 0.35 0.0 0 1 350.31 13.14
  C 344.43 27.59 348.11 38.74 350.16 52.81
  Q 350.45 54.84 350.14 56.86
  Q 350.06 57.41 349.57 57.67
  L 342.92 61.20
  A 0.56 0.56 0.0 0 1 342.14 60.47
  C 346.55 50.61 341.44 43.46 341.76 33.70
  Z"
/>
<path fill="#9494b5" d="
  M 290.09 63.01
  Q 286.89 63.87 284.47 62.69
  C 280.99 60.99 279.56 60.44 276.00 60.27
  C 271.13 60.04 266.29 54.93 263.59 51.15
  C 267.51 47.34 271.23 42.98 272.00 37.41
  Q 274.06 22.42 260.48 14.80
  A 0.44 0.43 55.1 0 1 260.62 13.99
  C 272.82 12.13 285.80 21.77 289.67 32.65
  Q 295.03 47.77 290.09 63.01
  Z"
/>
<path fill="#43838f" d="
  M 337.42 20.50
  Q 337.75 21.23 338.63 21.77
  Q 339.04 22.02 339.49 21.86
  Q 341.31 21.21 343.26 21.36
  C 339.32 30.89 340.33 37.99 342.97 48.25
  Q 343.68 51.01 342.39 55.72
  Q 337.84 52.50 331.94 53.31
  Q 331.45 53.38 331.09 53.05
  Q 330.28 52.29 329.35 52.41
  Q 329.04 52.45 329.01 52.14
  L 328.90 50.99
  C 329.50 45.43 329.33 38.93 330.65 34.10
  Q 332.65 26.71 337.42 20.50
  Z"
/>
<path fill="#958b9b" d="
  M 386.97 23.29
  Q 387.21 22.72 386.42 22.69
  L 387.23 21.13
  Q 387.61 20.39 387.73 21.22
  Q 387.85 22.10 386.97 23.29
  Z"
/>
<path fill="#90c4d3" d="
  M 386.42 22.69
  Q 387.21 22.72 386.97 23.29
  C 386.36 26.15 385.80 28.91 385.70 31.93
  C 385.16 47.81 384.23 63.03 377.03 77.06
  Q 375.35 77.56 373.49 75.21
  C 379.66 62.35 380.72 47.73 382.51 33.76
  Q 383.05 29.58 386.42 22.69
  Z"
/>
<path fill="#90c4d3" d="
  M 295.04 67.50
  Q 293.90 66.01 290.28 65.43
  Q 297.80 46.03 289.03 28.65
  A 0.33 0.33 0.0 0 1 289.58 28.29
  C 293.07 32.63 295.53 36.52 296.74 42.01
  Q 299.58 54.89 295.04 67.50
  Z"
/>
<path fill="#43838f" d="
  M 236.99 46.98
  C 244.23 47.76 251.24 50.71 255.73 56.48
  Q 256.05 56.89 255.65 57.23
  L 240.14 70.43
  Q 239.80 70.72 239.64 70.30
  Q 234.40 56.93 222.40 49.85
  C 217.11 46.73 214.11 44.19 211.06 39.67
  A 0.53 0.53 0.0 0 1 211.82 38.95
  C 219.19 44.50 227.98 46.01 236.99 46.98
  Z"
/>
<path fill="#326592" d="
  M 328.90 50.99
  L 329.01 52.14
  Q 329.04 52.45 329.35 52.41
  Q 330.28 52.29 331.09 53.05
  Q 331.45 53.38 331.94 53.31
  Q 337.84 52.50 342.39 55.72
  Q 342.39 59.13 340.33 61.96
  Q 339.98 62.43 339.42 62.60
  L 322.56 67.57
  A 0.48 0.48 0.0 0 1 322.07 66.79
  Q 328.08 60.16 328.90 50.99
  Z"
/>
<path fill="#7a7daa" d="
  M 263.59 51.15
  C 266.29 54.93 271.13 60.04 276.00 60.27
  C 279.56 60.44 280.99 60.99 284.47 62.69
  Q 286.89 63.87 290.09 63.01
  Q 286.85 73.04 280.06 80.80
  Q 278.23 82.88 273.37 86.54
  Q 261.50 95.44 255.25 108.98
  Q 249.82 107.88 247.43 108.46
  C 243.37 109.44 235.18 109.89 231.52 106.92
  Q 231.16 106.62 230.70 106.52
  Q 227.55 105.85 224.92 107.58
  Q 224.45 107.89 223.89 107.97
  Q 221.88 108.26 220.37 109.59
  A 0.74 0.73 37.8 0 1 219.56 109.69
  Q 217.02 108.44 214.70 110.33
  C 218.81 88.52 240.39 70.28 257.17 57.42
  Q 260.03 55.23 263.59 51.15
  Z"
/>
<path fill="#7a7daa" d="
  M 352.25 57.11
  Q 351.47 59.86 351.91 63.32
  C 352.35 66.90 354.26 68.82 357.16 70.56
  C 360.72 72.69 362.09 75.51 367.06 73.52
  Q 368.25 73.05 372.67 74.18
  C 366.70 85.84 351.15 103.73 337.22 104.96
  C 329.09 105.67 322.33 108.34 314.66 110.76
  C 310.99 111.91 308.25 113.85 305.08 115.84
  Q 301.84 112.92 297.86 111.71
  Q 297.30 111.54 296.93 111.08
  L 295.10 108.72
  Q 294.80 108.33 294.34 108.18
  Q 288.08 106.08 282.00 103.50
  C 278.04 101.81 274.81 110.84 270.03 105.89
  C 266.12 101.85 262.10 104.90 259.62 108.43
  A 0.63 0.62 -59.1 0 1 258.83 108.63
  Q 257.79 108.12 256.93 108.42
  C 261.26 98.38 270.43 89.32 279.70 83.74
  C 295.71 74.11 313.62 70.61 331.49 65.95
  Q 342.88 62.98 352.25 57.11
  Z"
/>
<path fill="#58b2cc" d="
  M 290.28 65.43
  Q 293.90 66.01 295.04 67.50
  Q 293.54 71.41 291.36 74.92
  C 289.50 77.93 284.37 79.63 281.27 81.24
  A 0.15 0.15 0.0 0 1 281.09 81.01
  Q 287.21 73.85 290.28 65.43
  Z"
/>
<path fill="#58b2cc" d="
  M 373.49 75.21
  Q 375.35 77.56 377.03 77.06
  Q 367.95 94.75 350.44 104.01
  C 348.40 105.09 346.20 104.75 344.00 104.75
  A 0.27 0.27 0.0 0 1 343.88 104.24
  Q 363.27 94.21 373.49 75.21
  Z"
/>
<path fill="#58b2cc" d="
  M 418.51 96.77
  Q 416.45 96.89 415.73 95.04
  Q 415.55 94.58 415.08 94.43
  Q 412.70 93.66 411.17 90.77
  Q 419.52 86.08 422.20 76.48
  A 0.43 0.43 0.0 0 1 423.04 76.51
  Q 425.28 87.77 418.51 96.77
  Z"
/>
<path fill="#9494b5" d="
  M 197.12 120.90
  Q 193.66 122.13 190.70 124.00
  C 188.38 125.47 185.93 125.73 184.16 123.59
  A 1.23 1.22 -12.3 0 0 183.53 123.19
  L 181.11 122.52
  C 184.76 111.10 191.86 99.69 184.09 88.07
  A 0.27 0.27 0.0 0 1 184.36 87.66
  C 190.44 88.75 194.33 92.57 194.78 98.82
  C 195.30 106.24 194.70 113.78 197.12 120.90
  Z"
/>
<path fill="#326592" d="
  M 379.52 91.64
  Q 379.19 94.42 381.27 95.30
  Q 386.67 97.59 387.78 102.50
  Q 388.76 106.84 386.07 110.00
  Q 385.76 110.36 385.63 110.81
  Q 385.14 112.50 385.59 113.24
  C 384.95 113.22 384.16 113.36 383.48 113.08
  Q 368.68 107.10 353.11 105.06
  A 0.65 0.65 0.0 0 1 352.85 103.86
  Q 361.14 98.71 368.04 91.77
  Q 368.42 91.39 368.95 91.31
  Q 374.19 90.53 379.52 91.64
  Z"
/>
<path fill="#43838f" d="
  M 411.17 90.77
  Q 412.70 93.66 415.08 94.43
  Q 415.55 94.58 415.73 95.04
  Q 416.45 96.89 418.51 96.77
  C 416.80 98.78 415.41 100.58 413.21 102.08
  Q 400.87 110.53 385.59 113.24
  Q 385.14 112.50 385.63 110.81
  Q 385.76 110.36 386.07 110.00
  Q 388.76 106.84 387.78 102.50
  Q 386.67 97.59 381.27 95.30
  Q 379.19 94.42 379.52 91.64
  C 389.91 93.01 401.16 96.70 411.17 90.77
  Z"
/>
<path fill="#90c4d3" d="
  M 411.42 129.88
  Q 409.42 125.09 402.57 123.86
  Q 402.07 123.77 401.90 123.29
  Q 401.23 121.33 402.04 120.88
  C 406.57 121.91 411.60 123.57 415.72 123.96
  C 434.98 125.78 453.26 114.50 448.89 92.67
  A 0.50 0.50 0.0 0 1 449.85 92.38
  C 451.49 96.35 453.72 100.51 453.82 104.76
  C 454.05 115.48 447.85 130.05 435.75 132.19
  Q 422.51 134.52 411.42 129.88
  Z"
/>
<path fill="#9494b5" d="
  M 403.37 164.12
  Q 403.27 158.96 409.08 156.69
  A 1.99 1.97 8.4 0 0 409.87 156.11
  C 413.73 151.39 417.60 152.47 417.43 144.50
  C 417.35 140.81 413.97 140.19 413.70 135.98
  Q 413.67 135.50 413.34 135.14
  Q 412.00 133.72 413.17 132.09
  C 424.33 135.37 437.39 136.09 446.11 127.39
  C 452.99 120.53 456.56 110.87 454.35 101.16
  C 454.04 99.79 452.89 98.03 452.35 96.47
  A 0.33 0.33 0.0 0 1 452.92 96.16
  Q 454.52 98.09 455.51 100.30
  Q 465.11 121.66 452.35 141.07
  C 441.89 156.98 421.89 164.00 403.37 164.12
  Z"
/>
<path fill="#90c4d3" d="
  M 202.25 117.44
  Q 202.37 118.44 201.29 118.50
  Q 200.81 118.52 200.63 118.96
  Q 200.16 120.12 198.39 120.18
  C 195.96 112.31 197.34 104.72 195.38 96.94
  A 0.35 0.35 0.0 0 1 195.72 96.50
  Q 195.87 96.50 196.02 96.49
  Q 196.40 96.46 196.50 96.82
  L 202.25 117.44
  Z"
/>
<path fill="#5d5c78" d="
  M 418.45 98.37
  Q 419.79 96.62 419.06 98.70
  C 416.33 106.42 408.98 114.37 400.74 117.64
  C 397.21 119.05 390.88 116.05 387.61 114.53
  Q 386.96 114.22 387.66 114.07
  C 397.43 111.93 412.13 106.58 418.45 98.37
  Z"
/>
<path fill="#9494b5" d="
  M 305.08 115.84
  Q 294.94 122.76 288.54 133.31
  Q 287.54 133.56 286.68 132.96
  Q 286.26 132.67 285.90 133.03
  C 283.17 135.69 280.32 133.68 277.99 134.22
  C 270.61 135.93 267.54 133.97 261.01 133.25
  Q 259.14 133.04 252.85 134.59
  C 252.72 125.86 253.19 116.64 256.93 108.42
  Q 257.79 108.12 258.83 108.63
  A 0.63 0.62 -59.1 0 0 259.62 108.43
  C 262.10 104.90 266.12 101.85 270.03 105.89
  C 274.81 110.84 278.04 101.81 282.00 103.50
  Q 288.08 106.08 294.34 108.18
  Q 294.80 108.33 295.10 108.72
  L 296.93 111.08
  Q 297.30 111.54 297.86 111.71
  Q 301.84 112.92 305.08 115.84
  Z"
/>
<path fill="#7a7daa" d="
  M 413.17 132.09
  Q 412.00 133.72 413.34 135.14
  Q 413.67 135.50 413.70 135.98
  C 413.97 140.19 417.35 140.81 417.43 144.50
  C 417.60 152.47 413.73 151.39 409.87 156.11
  A 1.99 1.97 8.4 0 1 409.08 156.69
  Q 403.27 158.96 403.37 164.12
  Q 393.92 163.33 383.83 164.55
  Q 380.76 164.93 377.71 164.44
  C 356.84 161.12 335.12 163.88 316.22 173.73
  Q 308.59 177.71 295.56 187.84
  C 293.36 187.44 291.93 187.82 290.37 189.24
  Q 289.54 189.99 288.10 188.99
  C 290.10 179.90 287.43 167.34 277.98 163.35
  Q 275.06 162.12 272.39 163.21
  C 262.86 167.14 260.95 187.11 265.63 195.18
  Q 265.54 195.86 264.71 195.82
  C 255.65 187.85 251.87 179.87 247.38 169.93
  A 0.92 0.92 0.0 0 0 245.78 169.80
  Q 242.74 174.39 241.23 179.67
  A 0.46 0.46 0.0 0 1 240.34 179.65
  Q 238.59 172.18 235.34 165.31
  A 2.09 2.09 0.0 0 0 232.00 164.69
  Q 228.56 167.99 227.78 172.58
  A 0.47 0.47 0.0 0 1 227.09 172.91
  Q 216.36 167.07 205.16 163.90
  Q 205.64 162.42 206.31 161.56
  Q 206.86 160.86 208.47 160.51
  Q 212.04 159.76 214.81 157.49
  C 217.88 154.98 216.59 150.90 218.85 148.03
  C 220.25 146.24 222.72 145.84 223.54 144.10
  Q 228.58 151.04 234.91 154.85
  Q 238.29 156.89 235.21 154.42
  C 231.74 151.64 227.92 148.29 225.07 143.83
  Q 231.20 141.54 233.20 141.16
  Q 238.25 140.21 240.60 136.68
  Q 240.87 136.27 241.35 136.16
  C 243.93 135.53 246.23 134.15 248.95 134.57
  Q 249.42 134.65 249.77 134.94
  Q 250.42 135.49 251.53 134.70
  Q 252.25 143.17 255.79 150.77
  Q 255.98 151.17 256.17 150.77
  Q 256.47 150.14 256.32 149.74
  Q 253.47 142.02 252.85 134.59
  Q 259.14 133.04 261.01 133.25
  C 267.54 133.97 270.61 135.93 277.99 134.22
  C 280.32 133.68 283.17 135.69 285.90 133.03
  Q 286.26 132.67 286.68 132.96
  Q 287.54 133.56 288.54 133.31
  C 287.06 135.72 281.43 144.60 282.64 147.72
  Q 282.81 148.15 282.98 147.72
  L 285.70 140.72
  L 285.75 141.84
  Q 285.78 142.28 286.20 142.40
  L 293.90 144.68
  Q 294.40 144.83 294.74 145.22
  C 297.28 148.17 299.92 145.06 302.50 147.02
  Q 303.76 147.98 304.49 148.58
  Q 304.87 148.89 305.36 148.83
  Q 308.06 148.48 309.96 150.13
  Q 310.32 150.43 310.77 150.57
  L 313.93 151.52
  Q 314.48 151.69 315.05 151.60
  C 321.48 150.68 333.90 154.20 332.95 142.76
  C 332.33 135.42 326.72 140.07 324.57 135.06
  Q 324.36 134.56 323.92 134.25
  Q 320.69 131.94 316.70 132.04
  Q 316.18 132.06 315.83 131.68
  Q 313.72 129.38 314.30 126.24
  A 1.59 1.58 34.7 0 0 314.09 125.10
  Q 313.34 123.86 314.03 122.54
  A 0.67 0.67 0.0 0 0 313.88 121.72
  L 307.09 115.82
  C 324.74 105.48 348.68 102.87 369.20 109.61
  Q 374.43 111.32 382.18 116.01
  C 392.32 122.16 400.96 127.90 413.17 132.09
  Z"
/>
<path fill="#9494b5" d="
  M 255.25 108.98
  Q 250.37 121.51 251.53 134.70
  Q 250.42 135.49 249.77 134.94
  Q 249.42 134.65 248.95 134.57
  C 246.23 134.15 243.93 135.53 241.35 136.16
  Q 240.87 136.27 240.60 136.68
  Q 238.25 140.21 233.20 141.16
  Q 231.20 141.54 225.07 143.83
  C 217.67 134.29 212.65 122.33 214.70 110.33
  Q 217.02 108.44 219.56 109.69
  A 0.74 0.73 37.8 0 0 220.37 109.59
  Q 221.88 108.26 223.89 107.97
  Q 224.45 107.89 224.92 107.58
  Q 227.55 105.85 230.70 106.52
  Q 231.16 106.62 231.52 106.92
  C 235.18 109.89 243.37 109.44 247.43 108.46
  Q 249.82 107.88 255.25 108.98
  Z"
/>
<path fill="#58b2cc" d="
  M 402.04 120.88
  Q 401.23 121.33 401.90 123.29
  Q 402.07 123.77 402.57 123.86
  Q 409.42 125.09 411.42 129.88
  C 398.98 125.88 388.85 118.97 377.85 112.63
  Q 377.39 112.36 377.90 112.19
  Q 378.17 112.09 378.51 112.23
  Q 393.25 117.98 402.04 120.88
  Z"
/>
<path fill="#9494b5" d="
  M 307.09 115.82
  L 313.88 121.72
  A 0.67 0.67 0.0 0 1 314.03 122.54
  Q 313.34 123.86 314.09 125.10
  A 1.59 1.58 34.7 0 1 314.30 126.24
  Q 313.72 129.38 315.83 131.68
  Q 316.18 132.06 316.70 132.04
  Q 320.69 131.94 323.92 134.25
  Q 324.36 134.56 324.57 135.06
  C 326.72 140.07 332.33 135.42 332.95 142.76
  C 333.90 154.20 321.48 150.68 315.05 151.60
  Q 314.48 151.69 313.93 151.52
  L 310.77 150.57
  Q 310.32 150.43 309.96 150.13
  Q 308.06 148.48 305.36 148.83
  Q 304.87 148.89 304.49 148.58
  Q 303.76 147.98 302.50 147.02
  C 299.92 145.06 297.28 148.17 294.74 145.22
  Q 294.40 144.83 293.90 144.68
  L 286.20 142.40
  Q 285.78 142.28 285.75 141.84
  L 285.70 140.72
  Q 293.26 125.91 307.09 115.82
  Z"
/>
<path fill="#58b2cc" d="
  M 202.25 117.44
  Q 206.20 127.01 215.25 131.08
  Q 215.76 131.31 216.01 131.81
  L 218.43 136.56
  A 0.39 0.39 0.0 0 1 217.99 137.12
  C 207.76 134.77 201.83 130.31 198.39 120.18
  Q 200.16 120.12 200.63 118.96
  Q 200.81 118.52 201.29 118.50
  Q 202.37 118.44 202.25 117.44
  Z"
/>
<path fill="#7a7daa" d="
  M 197.12 120.90
  Q 202.05 135.39 217.60 138.39
  Q 215.33 140.20 213.80 141.97
  C 211.04 145.16 205.07 145.79 200.58 146.69
  C 197.45 147.32 195.62 149.54 193.27 151.46
  Q 192.87 151.78 192.82 152.28
  L 192.13 159.20
  C 177.21 150.50 176.41 137.47 181.11 122.52
  L 183.53 123.19
  A 1.23 1.22 -12.3 0 1 184.16 123.59
  C 185.93 125.73 188.38 125.47 190.70 124.00
  Q 193.66 122.13 197.12 120.90
  Z"
/>
<path fill="#9494b5" d="
  M 217.60 138.39
  Q 220.92 138.94 223.54 144.10
  C 222.72 145.84 220.25 146.24 218.85 148.03
  C 216.59 150.90 217.88 154.98 214.81 157.49
  Q 212.04 159.76 208.47 160.51
  Q 206.86 160.86 206.31 161.56
  Q 205.64 162.42 205.16 163.90
  Q 197.68 162.45 192.13 159.20
  L 192.82 152.28
  Q 192.87 151.78 193.27 151.46
  C 195.62 149.54 197.45 147.32 200.58 146.69
  C 205.07 145.79 211.04 145.16 213.80 141.97
  Q 215.33 140.20 217.60 138.39
  Z"
/>
<path fill="#c4c1dd" d="
  M 271.86 164.39
  C 275.99 161.66 281.92 166.24 283.76 169.74
  Q 284.85 171.82 283.14 173.43
  Q 275.06 181.08 264.85 185.65
  A 0.39 0.38 -13.1 0 1 264.31 185.32
  C 264.08 179.17 266.29 168.08 271.86 164.39
  Z"
/>
<path fill="#cc468a" d="
  M 404.15 244.27
  Q 407.09 239.85 407.21 234.17
  Q 407.21 234.11 407.27 234.08
  Q 407.38 234.03 407.55 234.01
  Q 407.87 233.98 407.92 233.67
  C 409.44 225.13 410.09 213.96 406.56 205.83
  C 404.72 201.60 403.59 194.73 400.80 191.35
  Q 395.22 184.57 392.99 183.27
  Q 389.04 180.97 385.06 178.73
  A 1.72 1.72 0.0 0 0 384.18 178.51
  C 382.05 178.55 380.71 176.88 379.37 176.26
  C 376.83 175.09 374.81 173.58 372.03 173.14
  Q 361.03 171.38 349.96 173.26
  Q 349.36 173.36 349.73 173.85
  C 350.95 175.41 352.53 174.42 353.73 175.72
  Q 354.04 176.06 354.50 176.15
  Q 363.49 177.81 371.30 182.60
  C 373.68 184.06 376.44 184.69 378.90 186.30
  A 1.11 1.10 54.2 0 0 379.78 186.45
  C 388.13 184.33 391.50 189.02 396.27 195.49
  Q 402.13 203.44 402.94 213.64
  C 403.08 215.49 402.55 217.22 402.38 219.13
  Q 402.33 219.70 401.88 220.04
  L 399.06 222.17
  Q 398.64 222.49 398.68 223.02
  Q 398.84 225.24 397.34 226.12
  C 395.25 221.21 391.91 217.63 389.09 214.01
  C 364.12 181.89 314.77 177.32 283.41 202.23
  A 0.26 0.26 0.0 0 1 283.05 201.86
  C 304.83 176.38 337.13 161.41 371.00 164.83
  C 394.57 167.22 422.24 181.63 427.15 206.95
  C 430.83 225.98 419.63 244.80 407.29 258.25
  Q 406.26 259.37 406.05 257.87
  L 404.15 244.27
  Z"
/>
<path fill="#c4c1dd" d="
  M 239.01 183.27
  C 235.73 181.44 227.63 177.52 228.91 172.93
  Q 229.96 169.17 232.24 166.26
  A 1.34 1.34 0.0 0 1 234.51 166.53
  Q 237.99 174.25 239.97 182.53
  A 0.66 0.66 0.0 0 1 239.01 183.27
  Z"
/>
<path fill="#cc468a" d="
  M 147.87 214.43
  Q 148.39 215.31 149.32 214.43
  C 150.47 213.34 150.90 209.37 151.68 207.73
  Q 154.03 202.77 156.14 197.69
  A 1.76 1.69 -8.2 0 1 156.71 196.96
  C 158.85 195.36 159.99 193.15 162.06 191.77
  C 164.19 190.34 166.64 189.23 168.31 187.27
  C 169.40 185.98 172.54 182.83 170.96 181.08
  A 1.81 1.81 0.0 0 0 168.35 180.99
  Q 167.07 182.23 165.36 183.10
  Q 164.28 183.65 163.65 183.13
  Q 163.06 182.64 162.45 181.51
  C 169.22 172.81 187.24 169.19 197.21 169.92
  C 207.16 170.64 216.75 175.00 225.69 180.03
  Q 226.71 180.61 226.88 181.32
  C 228.64 188.67 229.69 194.38 236.13 199.88
  Q 236.52 200.21 236.62 200.71
  C 238.82 211.52 246.33 221.91 252.25 231.05
  A 0.29 0.29 0.0 0 1 251.81 231.42
  C 235.59 215.53 211.27 193.97 186.01 197.74
  C 159.62 201.67 152.38 229.42 161.17 251.36
  Q 161.33 251.77 160.91 251.86
  Q 160.39 251.96 160.10 251.44
  Q 159.75 250.81 159.67 250.70
  C 151.90 240.49 146.99 227.42 147.87 214.43
  Z"
/>
<path fill="#cc468a" d="
  M 250.84 181.13
  Q 246.68 179.10 242.85 179.27
  L 246.04 171.27
  A 0.52 0.52 0.0 0 1 247.01 171.28
  L 250.84 181.13
  Z"
/>
<path fill="#d67aa1" d="
  M 404.15 244.27
  Q 401.22 234.31 397.34 226.12
  Q 398.84 225.24 398.68 223.02
  Q 398.64 222.49 399.06 222.17
  L 401.88 220.04
  Q 402.33 219.70 402.38 219.13
  C 402.55 217.22 403.08 215.49 402.94 213.64
  Q 402.13 203.44 396.27 195.49
  C 391.50 189.02 388.13 184.33 379.78 186.45
  A 1.11 1.10 54.2 0 1 378.90 186.30
  C 376.44 184.69 373.68 184.06 371.30 182.60
  Q 363.49 177.81 354.50 176.15
  Q 354.04 176.06 353.73 175.72
  C 352.53 174.42 350.95 175.41 349.73 173.85
  Q 349.36 173.36 349.96 173.26
  Q 361.03 171.38 372.03 173.14
  C 374.81 173.58 376.83 175.09 379.37 176.26
  C 380.71 176.88 382.05 178.55 384.18 178.51
  A 1.72 1.72 0.0 0 1 385.06 178.73
  Q 389.04 180.97 392.99 183.27
  Q 395.22 184.57 400.80 191.35
  C 403.59 194.73 404.72 201.60 406.56 205.83
  C 410.09 213.96 409.44 225.13 407.92 233.67
  Q 407.87 233.98 407.55 234.01
  Q 407.38 234.03 407.27 234.08
  Q 407.21 234.11 407.21 234.17
  Q 407.09 239.85 404.15 244.27
  Z"
/>
<path fill="#535554" d="
  M 281.68 185.10
  C 282.00 182.08 282.68 180.26 281.79 176.77
  Q 281.65 176.22 282.05 175.82
  L 284.88 172.99
  Q 285.55 172.33 285.75 173.25
  L 287.58 181.68
  Q 287.74 182.44 287.07 182.82
  L 282.36 185.53
  A 0.46 0.45 -12.2 0 1 281.68 185.10
  Z"
/>
<path fill="#f6f1b7" d="
  M 274.81 183.54
  Q 276.92 183.29 276.45 181.00
  Q 276.35 180.52 276.72 180.20
  L 280.01 177.32
  Q 280.60 176.80 280.77 177.56
  C 281.58 181.02 281.66 185.35 278.44 187.64
  C 275.09 190.03 270.42 190.16 268.68 185.74
  Q 268.51 185.34 268.90 185.13
  L 272.47 183.21
  Q 272.93 182.97 273.39 183.19
  L 273.75 183.36
  Q 274.26 183.60 274.81 183.54
  Z"
/>
<path fill="#535554" d="
  M 234.06 188.94
  Q 234.42 188.94 234.56 189.55
  A 0.42 0.42 0.0 0 1 233.96 190.01
  L 229.85 187.87
  A 0.97 0.96 10.0 0 1 229.35 187.16
  L 228.00 178.20
  A 0.44 0.44 0.0 0 1 228.64 177.74
  C 233.44 180.24 231.13 184.46 234.06 188.94
  Z"
/>
<path fill="#d67aa1" d="
  M 242.85 179.27
  Q 246.68 179.10 250.84 181.13
  L 254.71 187.03
  Q 253.49 190.37 252.48 191.22
  C 250.29 193.10 247.19 196.60 244.43 197.13
  Q 243.94 197.22 243.51 196.98
  Q 242.60 196.48 241.15 196.73
  Q 239.31 187.97 242.85 179.27
  Z"
/>
<path fill="#d67aa1" d="
  M 147.87 214.43
  Q 147.58 195.20 162.45 181.51
  Q 163.06 182.64 163.65 183.13
  Q 164.28 183.65 165.36 183.10
  Q 167.07 182.23 168.35 180.99
  A 1.81 1.81 0.0 0 1 170.96 181.08
  C 172.54 182.83 169.40 185.98 168.31 187.27
  C 166.64 189.23 164.19 190.34 162.06 191.77
  C 159.99 193.15 158.85 195.36 156.71 196.96
  A 1.76 1.69 -8.2 0 0 156.14 197.69
  Q 154.03 202.77 151.68 207.73
  C 150.90 209.37 150.47 213.34 149.32 214.43
  Q 148.39 215.31 147.87 214.43
  Z"
/>
<path fill="#f6f1b7" d="
  M 238.24 186.55
  Q 239.07 185.98 239.00 185.02
  A 0.47 0.47 0.0 0 1 239.62 184.54
  Q 239.85 184.61 239.95 184.82
  Q 240.02 184.96 239.98 185.19
  Q 239.50 188.13 239.21 190.69
  A 0.75 0.74 18.8 0 1 238.08 191.24
  Q 232.97 188.17 233.13 182.08
  Q 233.14 181.51 233.68 181.70
  Q 236.42 182.67 236.63 185.77
  A 1.03 1.03 0.0 0 0 238.24 186.55
  Z"
/>
<path fill="#c4c1dd" d="
  M 286.76 190.41
  C 282.79 190.66 277.92 192.05 275.16 192.60
  Q 270.92 193.46 266.79 194.69
  Q 266.06 193.77 266.02 193.13
  Q 265.99 192.59 266.52 192.50
  Q 277.92 190.54 287.23 183.73
  A 0.28 0.28 0.0 0 1 287.68 183.99
  L 286.76 190.41
  Z"
/>
<path fill="#535554" d="
  M 271.02 189.73
  A 0.41 0.40 52.7 0 1 270.92 190.48
  L 266.06 191.59
  A 0.69 0.69 0.0 0 1 265.23 191.04
  L 264.69 187.95
  A 1.52 1.51 19.9 0 1 267.34 186.71
  Q 268.95 188.61 271.02 189.73
  Z"
/>
<path fill="#cc468a" d="
  M 254.71 187.03
  L 260.28 193.43
  A 0.65 0.64 -44.7 0 1 260.27 194.29
  Q 258.11 196.63 257.29 199.71
  A 1.50 1.50 0.0 0 1 254.84 200.44
  L 250.69 196.72
  A 0.55 0.54 -56.7 0 0 249.83 196.90
  L 245.78 205.81
  Q 245.51 206.42 245.09 205.90
  Q 242.01 202.05 241.15 196.73
  Q 242.60 196.48 243.51 196.98
  Q 243.94 197.22 244.43 197.13
  C 247.19 196.60 250.29 193.10 252.48 191.22
  Q 253.49 190.37 254.71 187.03
  Z"
/>
<path fill="#c4c1dd" d="
  M 398.59 232.96
  C 393.48 238.00 393.91 243.20 392.64 249.44
  Q 392.56 249.86 392.16 250.01
  Q 391.76 250.18 391.75 250.74
  C 391.72 253.22 390.62 255.77 390.47 257.70
  Q 390.31 259.78 390.56 262.22
  A 0.75 0.74 -23.1 0 0 391.79 262.71
  L 399.20 256.34
  Q 399.61 255.99 399.73 255.46
  Q 400.14 253.66 401.21 252.16
  A 1.02 1.02 0.0 0 1 402.08 251.73
  Q 403.38 251.79 403.68 250.77
  L 404.91 260.86
  Q 405.00 261.60 405.58 261.12
  Q 413.47 254.48 418.45 245.47
  A 0.48 0.47 -66.5 0 1 419.00 245.25
  Q 419.13 245.29 419.26 245.33
  A 0.12 0.12 0.0 0 1 419.32 245.50
  C 417.78 248.41 416.20 251.13 414.84 254.16
  C 408.98 267.19 400.67 281.20 395.32 291.99
  C 383.56 315.66 375.42 334.35 368.48 359.50
  C 364.24 355.44 361.12 357.50 356.54 358.78
  Q 354.39 359.38 352.33 360.40
  Q 351.89 360.62 351.96 360.14
  L 352.01 359.75
  Q 352.14 358.76 351.58 359.58
  Q 351.30 359.99 350.77 359.97
  Q 353.87 335.87 358.24 319.49
  Q 363.32 300.48 367.47 274.00
  Q 369.08 263.75 369.58 256.29
  C 370.02 249.58 368.72 242.99 367.56 236.28
  Q 364.02 215.70 350.65 201.11
  Q 340.55 190.09 324.87 187.84
  Q 324.74 187.82 324.79 187.69
  Q 324.80 187.65 324.81 187.62
  Q 324.82 187.56 324.88 187.55
  C 331.14 187.40 337.19 187.01 343.28 188.46
  C 365.11 193.63 380.24 202.53 392.73 221.22
  C 395.15 224.83 396.81 228.91 398.59 232.96
  Z"
/>
<path fill="#5d5c78" d="
  M 295.56 187.84
  C 294.40 188.83 284.52 198.53 284.44 198.49
  Q 284.16 198.33 284.35 198.07
  Q 287.40 194.03 288.10 188.99
  Q 289.54 189.99 290.37 189.24
  C 291.93 187.82 293.36 187.44 295.56 187.84
  Z"
/>
<path fill="#5c4a60" d="
  M 333.27 191.07
  Q 322.85 198.44 319.67 211.58
  C 318.79 215.25 319.46 219.43 319.78 223.25
  C 316.36 224.63 313.65 226.75 310.27 227.88
  C 306.02 229.32 301.78 231.37 297.31 231.95
  C 293.74 232.41 289.56 233.85 286.81 234.25
  Q 274.05 236.11 260.83 235.18
  C 265.46 225.74 270.41 216.26 277.71 208.78
  C 287.41 198.83 306.06 188.13 320.10 188.75
  Q 327.07 189.06 333.27 191.07
  Z"
/>
<path fill="#c4c1dd" d="
  M 239.76 196.31
  L 232.59 193.94
  L 230.64 190.48
  A 0.38 0.38 0.0 0 1 231.09 189.93
  L 238.63 192.41
  Q 239.12 192.57 239.21 193.08
  L 239.76 196.31
  Z"
/>
<path fill="#958b9b" d="
  M 286.76 190.41
  C 284.70 196.79 280.98 204.68 273.09 200.94
  Q 268.98 198.99 266.79 194.69
  Q 270.92 193.46 275.16 192.60
  C 277.92 192.05 282.79 190.66 286.76 190.41
  Z"
/>
<path fill="#958b9b" d="
  M 333.27 191.07
  L 341.42 194.78
  A 0.50 0.50 0.0 0 1 341.39 195.70
  Q 324.82 202.04 328.72 219.73
  Q 326.96 219.91 326.36 221.24
  Q 326.16 221.69 325.76 221.97
  L 320.76 225.46
  Q 320.06 224.97 319.78 223.25
  C 319.46 219.43 318.79 215.25 319.67 211.58
  Q 322.85 198.44 333.27 191.07
  Z"
/>
<path fill="#958b9b" d="
  M 239.76 196.31
  Q 240.37 196.74 239.68 198.39
  A 1.81 1.81 0.0 0 1 237.03 199.23
  Q 234.43 197.56 232.59 193.94
  L 239.76 196.31
  Z"
/>
<path fill="#cc468a" d="
  M 255.39 202.36
  A 1.31 1.31 0.0 0 0 257.46 201.95
  L 260.75 195.04
  A 0.75 0.74 -53.3 0 1 261.97 194.86
  L 263.74 196.77
  A 0.83 0.82 41.4 0 1 263.81 197.82
  C 260.10 202.95 256.69 207.59 256.11 214.10
  A 0.78 0.78 0.0 0 1 255.03 214.75
  Q 250.22 212.75 246.85 208.79
  Q 246.45 208.33 246.66 207.75
  L 249.47 199.92
  A 1.59 1.59 0.0 0 1 252.04 199.28
  L 255.39 202.36
  Z"
/>
<path fill="#5d5c78" d="
  M 265.63 195.18
  C 268.43 200.77 274.89 205.73 280.80 201.99
  A 0.25 0.25 0.0 0 1 281.12 202.38
  Q 267.15 217.20 259.21 236.01
  Q 258.29 238.20 256.94 236.25
  Q 249.61 225.61 243.41 215.07
  C 242.12 212.89 235.45 201.24 240.15 200.15
  Q 240.70 200.02 240.91 200.55
  Q 244.97 210.72 254.57 215.95
  A 1.71 1.71 0.0 0 0 257.07 214.76
  C 258.37 207.58 261.48 203.61 265.07 197.62
  A 0.95 0.94 48.6 0 0 265.12 196.75
  L 264.71 195.82
  Q 265.54 195.86 265.63 195.18
  Z"
/>
<path fill="#c4c1dd" d="
  M 198.63 199.36
  Q 195.86 201.05 192.09 201.29
  Q 186.61 201.31 181.76 203.76
  Q 166.20 211.61 162.88 228.80
  C 162.76 229.46 163.03 229.96 162.67 230.72
  C 161.12 234.00 162.61 236.37 162.77 239.36
  C 163.04 244.43 164.58 248.79 166.09 253.73
  Q 167.15 257.21 169.47 260.49
  Q 172.89 264.74 174.29 269.46
  C 161.77 254.98 155.70 239.71 160.71 220.24
  Q 161.59 216.81 165.08 211.74
  C 172.95 200.28 185.21 197.83 198.63 199.36
  Z"
/>
<path fill="#958b9b" d="
  M 198.63 199.36
  L 202.55 200.03
  Q 203.45 200.18 202.66 200.64
  C 195.92 204.60 194.11 214.07 194.96 221.47
  Q 197.10 240.03 207.57 255.45
  Q 209.08 257.68 210.60 261.21
  Q 210.80 261.67 210.57 262.12
  Q 194.61 293.76 198.63 328.25
  Q 195.40 332.63 192.10 335.49
  Q 191.71 335.83 191.57 336.14
  Q 191.20 336.96 191.99 337.05
  Q 191.67 337.51 191.15 337.89
  Q 169.86 353.12 144.96 361.79
  L 148.14 344.34
  Q 162.15 336.14 165.93 333.68
  C 184.86 321.36 193.15 305.69 183.03 283.98
  Q 179.40 276.19 174.29 269.46
  Q 172.89 264.74 169.47 260.49
  L 169.72 260.18
  Q 170.00 259.82 169.81 259.40
  C 166.24 251.67 162.46 240.77 163.82 232.19
  C 166.21 217.07 173.31 207.80 187.91 203.10
  Q 190.09 202.40 192.09 201.29
  Q 195.86 201.05 198.63 199.36
  Z"
/>
<path fill="#9494b5" d="
  M 192.09 201.29
  Q 190.09 202.40 187.91 203.10
  C 173.31 207.80 166.21 217.07 163.82 232.19
  C 162.46 240.77 166.24 251.67 169.81 259.40
  Q 170.00 259.82 169.72 260.18
  L 169.47 260.49
  Q 167.15 257.21 166.09 253.73
  C 164.58 248.79 163.04 244.43 162.77 239.36
  C 162.61 236.37 161.12 234.00 162.67 230.72
  C 163.03 229.96 162.76 229.46 162.88 228.80
  Q 166.20 211.61 181.76 203.76
  Q 186.61 201.31 192.09 201.29
  Z"
/>
<path fill="#c4c1dd" d="
  M 237.03 219.80
  C 237.23 233.26 229.73 245.36 223.52 256.74
  C 213.93 274.32 207.30 295.51 207.42 315.69
  C 207.46 321.57 208.63 327.72 209.61 333.76
  C 213.04 354.89 224.51 376.80 237.00 394.07
  L 245.00 405.13
  Q 249.77 414.56 256.94 422.05
  Q 257.16 422.29 257.49 422.25
  Q 257.68 422.22 257.86 422.24
  Q 258.13 422.27 258.43 422.55
  C 262.15 425.98 265.16 430.38 268.43 433.56
  Q 273.85 438.83 279.63 444.56
  A 0.61 0.61 0.0 0 0 280.67 444.18
  C 280.76 443.14 280.41 442.42 279.74 441.56
  C 277.69 438.93 275.57 436.71 273.95 433.64
  Q 273.14 432.11 271.78 430.64
  Q 272.77 431.41 273.26 431.19
  Q 277.53 434.78 283.11 436.74
  L 285.52 453.87
  Q 285.67 454.97 284.61 454.65
  C 283.81 454.42 282.64 454.08 281.89 453.58
  C 255.99 436.06 237.02 412.98 221.51 387.26
  C 211.32 370.37 203.39 351.83 200.50 331.98
  Q 195.96 300.69 207.42 272.14
  C 212.61 259.20 222.36 239.99 228.50 228.54
  Q 231.87 222.25 231.23 215.66
  Q 231.15 214.90 231.74 215.39
  L 237.03 219.80
  Z"
/>
<path fill="#c4c1dd" d="
  M 328.72 219.73
  C 333.33 231.57 339.30 239.60 343.25 250.26
  C 350.50 269.85 345.43 286.53 339.12 305.75
  Q 330.74 331.30 319.44 355.54
  A 0.41 0.41 0.0 0 1 318.70 355.56
  L 316.15 350.77
  L 317.71 346.90
  Q 323.86 333.63 327.80 318.92
  L 328.15 319.77
  A 0.61 0.61 0.0 0 0 329.27 319.77
  Q 331.32 314.83 333.22 309.84
  C 335.97 302.64 338.18 293.64 340.59 287.07
  C 343.88 278.10 342.79 271.28 342.97 262.26
  Q 343.02 259.86 341.90 257.65
  C 340.69 255.27 340.03 251.85 339.27 248.98
  C 338.35 245.53 335.32 243.86 333.69 241.87
  Q 331.23 238.86 329.52 235.36
  C 328.23 232.70 328.16 229.59 325.07 227.17
  A 1.90 1.90 0.0 0 0 322.08 228.14
  L 321.89 228.81
  L 321.31 227.74
  L 320.76 225.46
  L 325.76 221.97
  Q 326.16 221.69 326.36 221.24
  Q 326.96 219.91 328.72 219.73
  Z"
/>
<path fill="#766182" d="
  M 237.03 219.80
  L 245.70 227.31
  C 243.56 230.23 244.08 233.08 242.64 236.06
  Q 239.90 241.71 238.88 247.36
  L 232.68 243.00
  Q 232.21 242.67 231.93 243.18
  L 225.28 255.58
  Q 225.08 255.95 225.47 256.12
  L 233.38 259.64
  C 231.53 262.65 230.78 266.26 229.71 269.09
  Q 228.52 272.23 228.16 275.66
  Q 228.11 276.17 227.75 276.53
  Q 225.72 278.62 227.06 281.15
  Q 218.65 292.62 220.10 306.15
  C 219.87 309.15 218.56 313.14 218.76 315.84
  C 219.19 321.88 218.56 328.00 218.89 334.10
  C 219.15 339.07 220.68 344.55 221.33 349.89
  Q 221.39 350.40 221.77 350.75
  L 223.44 352.27
  L 225.64 360.88
  Q 231.07 377.08 237.61 390.46
  Q 238.49 392.24 239.12 393.27
  A 0.62 0.62 0.0 0 1 238.70 394.20
  Q 237.81 394.35 237.00 394.07
  C 224.51 376.80 213.04 354.89 209.61 333.76
  C 208.63 327.72 207.46 321.57 207.42 315.69
  C 207.30 295.51 213.93 274.32 223.52 256.74
  C 229.73 245.36 237.23 233.26 237.03 219.80
  Z"
/>
<path fill="#766182" d="
  M 319.78 223.25
  Q 320.06 224.97 320.76 225.46
  L 321.31 227.74
  Q 320.86 228.27 319.97 228.29
  L 319.72 226.68
  Q 319.61 226.00 319.05 226.41
  Q 299.89 240.55 277.28 248.12
  C 271.67 250.00 268.92 257.40 267.98 262.75
  Q 267.86 263.46 268.58 263.48
  C 287.88 264.14 304.41 258.49 321.28 249.83
  Q 323.03 255.15 324.89 260.26
  C 326.65 265.11 327.54 269.79 328.62 274.73
  Q 328.73 275.22 329.09 275.56
  C 332.47 278.87 329.10 293.33 327.91 297.90
  C 327.17 300.76 326.84 304.49 325.15 307.35
  Q 323.88 309.48 323.46 311.32
  Q 322.04 317.60 319.97 323.70
  Q 319.62 324.74 319.78 325.86
  A 1.98 1.90 52.0 0 1 319.69 326.75
  L 313.18 345.02
  L 307.65 330.10
  A 1.09 1.08 -33.3 0 0 305.84 329.73
  C 296.97 339.14 292.57 351.00 288.51 363.21
  Q 284.89 363.09 282.34 360.52
  C 280.44 358.60 278.96 358.10 276.52 357.91
  Q 278.18 349.40 274.90 341.63
  C 272.78 336.59 268.57 337.15 266.49 341.79
  Q 264.78 345.60 264.63 349.71
  Q 262.88 348.34 263.06 353.71
  Q 263.08 354.32 262.48 354.41
  Q 259.15 354.89 258.01 358.08
  Q 257.83 358.57 257.37 358.83
  Q 253.17 361.18 248.40 361.47
  C 245.78 361.63 244.11 362.50 242.55 364.35
  A 1.64 1.63 -41.1 0 0 242.41 366.28
  C 243.93 368.69 244.51 371.77 246.58 373.83
  Q 246.93 374.17 247.41 374.29
  C 250.05 374.94 250.72 381.12 250.62 382.88
  Q 250.59 383.38 250.89 383.77
  C 252.28 385.58 252.04 387.73 252.51 390.40
  C 253.21 394.33 255.55 398.74 256.92 402.56
  C 257.86 405.21 260.18 408.71 261.59 411.54
  Q 266.43 421.28 272.55 430.54
  C 266.01 426.63 263.00 418.08 259.44 411.72
  Q 253.12 400.44 250.56 387.71
  C 249.51 382.49 245.45 381.43 243.70 377.06
  C 242.17 373.27 240.67 369.95 240.16 365.81
  Q 239.13 357.65 238.59 349.45
  Q 238.58 349.36 238.50 349.33
  Q 238.29 349.26 238.07 349.20
  A 0.28 0.28 0.0 0 1 237.88 348.95
  L 237.04 332.36
  A 1.50 1.49 -79.0 0 1 239.16 330.93
  L 240.00 331.32
  Q 240.33 331.47 240.63 331.26
  Q 241.62 330.55 241.10 329.46
  A 0.77 0.76 48.8 0 1 241.15 328.69
  L 241.56 328.07
  Q 241.79 327.71 241.77 327.28
  Q 240.99 309.65 243.19 292.18
  C 243.88 286.62 245.48 280.56 246.59 274.69
  C 247.28 271.04 249.01 267.37 249.76 263.52
  Q 250.32 260.58 251.39 257.05
  Q 252.52 253.31 252.64 249.34
  A 0.05 0.05 0.0 0 0 252.54 249.33
  Q 252.10 251.10 250.79 252.07
  Q 253.02 244.68 256.89 238.63
  Q 257.57 239.22 257.89 239.99
  Q 258.06 240.40 257.99 240.84
  Q 257.89 241.57 258.23 242.23
  A 0.36 0.36 0.0 0 0 258.90 242.16
  L 260.83 235.18
  Q 274.05 236.11 286.81 234.25
  C 289.56 233.85 293.74 232.41 297.31 231.95
  C 301.78 231.37 306.02 229.32 310.27 227.88
  C 313.65 226.75 316.36 224.63 319.78 223.25
  Z"
/>
<path fill="#f6f1b7" d="
  M 319.97 228.29
  Q 320.33 228.78 320.40 229.51
  Q 319.40 230.58 317.86 230.76
  Q 317.30 230.82 317.04 231.32
  L 315.56 234.12
  Q 315.22 234.76 315.58 235.38
  L 321.52 245.67
  A 1.23 1.23 0.0 0 0 323.17 246.14
  L 327.55 243.77
  Q 328.05 244.53 327.42 245.16
  Q 324.89 247.68 321.62 249.62
  Q 321.48 249.81 321.28 249.83
  C 304.41 258.49 287.88 264.14 268.58 263.48
  Q 267.86 263.46 267.98 262.75
  C 268.92 257.40 271.67 250.00 277.28 248.12
  Q 299.89 240.55 319.05 226.41
  Q 319.61 226.00 319.72 226.68
  L 319.97 228.29
  Z"
/>
<path fill="#d4d1e3" d="
  M 327.80 318.92
  Q 332.77 305.11 336.30 290.82
  C 339.37 278.33 338.41 265.64 333.47 253.97
  Q 329.10 243.66 321.89 228.81
  L 322.08 228.14
  A 1.90 1.90 0.0 0 1 325.07 227.17
  C 328.16 229.59 328.23 232.70 329.52 235.36
  Q 331.23 238.86 333.69 241.87
  C 335.32 243.86 338.35 245.53 339.27 248.98
  C 340.03 251.85 340.69 255.27 341.90 257.65
  Q 343.02 259.86 342.97 262.26
  C 342.79 271.28 343.88 278.10 340.59 287.07
  C 338.18 293.64 335.97 302.64 333.22 309.84
  Q 331.32 314.83 329.27 319.77
  A 0.61 0.61 0.0 0 1 328.15 319.77
  L 327.80 318.92
  Z"
/>
<path fill="#aa99ac" d="
  M 245.70 227.31
  Q 252.01 232.64 256.89 238.63
  Q 253.02 244.68 250.79 252.07
  Q 244.23 272.66 241.25 294.26
  C 240.97 296.32 240.97 299.36 240.56 302.26
  Q 239.48 309.82 240.31 319.75
  Q 240.45 321.35 239.68 324.47
  Q 239.51 325.15 238.84 324.98
  L 237.87 324.72
  A 0.59 0.59 0.0 0 0 237.17 325.11
  Q 235.51 330.25 235.20 332.49
  Q 234.82 335.21 235.20 341.79
  C 233.40 340.01 231.53 337.44 228.84 338.21
  Q 228.34 338.36 228.10 338.83
  C 224.56 346.00 225.56 354.68 229.93 361.25
  Q 228.37 360.09 225.64 360.88
  L 223.44 352.27
  C 222.37 343.60 220.21 334.55 220.27 325.89
  Q 220.30 320.96 220.41 316.04
  Q 220.42 315.55 220.87 315.75
  L 221.33 315.96
  Q 221.66 316.10 221.89 315.82
  Q 222.28 315.32 222.26 314.47
  C 229.93 329.21 235.85 310.06 236.65 304.98
  C 237.70 298.30 239.04 282.40 231.69 278.60
  Q 231.26 278.38 230.84 278.65
  L 227.06 281.15
  Q 225.72 278.62 227.75 276.53
  Q 228.11 276.17 228.16 275.66
  Q 228.52 272.23 229.71 269.09
  C 230.78 266.26 231.53 262.65 233.38 259.64
  L 240.42 261.75
  Q 240.98 261.92 241.02 261.34
  Q 241.49 254.05 238.88 247.36
  Q 239.90 241.71 242.64 236.06
  C 244.08 233.08 243.56 230.23 245.70 227.31
  Z"
/>
<path fill="#aa99ac" d="
  M 321.31 227.74
  L 321.89 228.81
  Q 329.10 243.66 333.47 253.97
  C 338.41 265.64 339.37 278.33 336.30 290.82
  Q 332.77 305.11 327.80 318.92
  Q 323.86 333.63 317.71 346.90
  L 315.64 345.10
  A 0.79 0.79 0.0 0 1 315.43 344.21
  Q 318.60 336.30 321.19 326.48
  Q 323.12 319.15 330.35 293.76
  C 331.22 290.70 331.12 287.59 331.24 284.44
  C 331.38 281.12 332.57 275.54 331.99 270.79
  Q 331.93 270.29 331.62 269.90
  C 329.87 267.71 328.83 266.36 328.47 263.35
  C 328.07 260.00 326.38 257.43 326.40 254.58
  Q 326.40 254.07 326.03 253.72
  L 321.62 249.62
  Q 324.89 247.68 327.42 245.16
  Q 328.05 244.53 327.55 243.77
  L 320.40 229.51
  Q 320.33 228.78 319.97 228.29
  Q 320.86 228.27 321.31 227.74
  Z"
/>
<path fill="#f7f4d2" d="
  M 320.40 229.51
  L 327.55 243.77
  L 323.17 246.14
  A 1.23 1.23 0.0 0 1 321.52 245.67
  L 315.58 235.38
  Q 315.22 234.76 315.56 234.12
  L 317.04 231.32
  Q 317.30 230.82 317.86 230.76
  Q 319.40 230.58 320.40 229.51
  Z"
/>
<path fill="#d4d1e3" d="
  M 398.59 232.96
  Q 402.20 241.46 403.68 250.77
  Q 403.38 251.79 402.08 251.73
  A 1.02 1.02 0.0 0 0 401.21 252.16
  Q 400.14 253.66 399.73 255.46
  Q 399.61 255.99 399.20 256.34
  L 391.79 262.71
  A 0.75 0.74 -23.1 0 1 390.56 262.22
  Q 390.31 259.78 390.47 257.70
  C 390.62 255.77 391.72 253.22 391.75 250.74
  Q 391.76 250.18 392.16 250.01
  Q 392.56 249.86 392.64 249.44
  C 393.91 243.20 393.48 238.00 398.59 232.96
  Z"
/>
<path fill="#f6f1b7" d="
  M 238.88 247.36
  Q 241.49 254.05 241.02 261.34
  Q 240.98 261.92 240.42 261.75
  L 233.38 259.64
  L 225.47 256.12
  Q 225.08 255.95 225.28 255.58
  L 231.93 243.18
  Q 232.21 242.67 232.68 243.00
  L 238.88 247.36
  Z"
/>
<path fill="#958b9b" d="
  M 272.55 430.54
  Q 272.91 430.67 273.26 431.19
  Q 272.77 431.41 271.78 430.64
  C 265.24 425.54 259.04 420.72 253.37 414.45
  Q 249.32 409.96 245.00 405.13
  L 237.00 394.07
  Q 237.81 394.35 238.70 394.20
  A 0.62 0.62 0.0 0 0 239.12 393.27
  Q 238.49 392.24 237.61 390.46
  Q 231.07 377.08 225.64 360.88
  Q 228.37 360.09 229.93 361.25
  C 231.11 362.81 236.98 368.47 237.94 363.68
  Q 240.25 352.13 235.20 341.79
  Q 234.82 335.21 235.20 332.49
  Q 235.51 330.25 237.17 325.11
  A 0.59 0.59 0.0 0 1 237.87 324.72
  L 238.84 324.98
  Q 239.51 325.15 239.68 324.47
  Q 240.45 321.35 240.31 319.75
  Q 239.48 309.82 240.56 302.26
  C 240.97 299.36 240.97 296.32 241.25 294.26
  Q 244.23 272.66 250.79 252.07
  Q 252.10 251.10 252.54 249.33
  A 0.05 0.05 0.0 0 1 252.64 249.34
  Q 252.52 253.31 251.39 257.05
  Q 250.32 260.58 249.76 263.52
  C 249.01 267.37 247.28 271.04 246.59 274.69
  C 245.48 280.56 243.88 286.62 243.19 292.18
  Q 240.99 309.65 241.77 327.28
  Q 241.79 327.71 241.56 328.07
  L 241.15 328.69
  A 0.77 0.76 48.8 0 0 241.10 329.46
  Q 241.62 330.55 240.63 331.26
  Q 240.33 331.47 240.00 331.32
  L 239.16 330.93
  A 1.50 1.49 -79.0 0 0 237.04 332.36
  L 237.88 348.95
  A 0.28 0.28 0.0 0 0 238.07 349.20
  Q 238.29 349.26 238.50 349.33
  Q 238.58 349.36 238.59 349.45
  Q 239.13 357.65 240.16 365.81
  C 240.67 369.95 242.17 373.27 243.70 377.06
  C 245.45 381.43 249.51 382.49 250.56 387.71
  Q 253.12 400.44 259.44 411.72
  C 263.00 418.08 266.01 426.63 272.55 430.54
  Z"
/>
<path fill="#958b9b" d="
  M 321.62 249.62
  L 326.03 253.72
  Q 326.40 254.07 326.40 254.58
  C 326.38 257.43 328.07 260.00 328.47 263.35
  C 328.83 266.36 329.87 267.71 331.62 269.90
  Q 331.93 270.29 331.99 270.79
  C 332.57 275.54 331.38 281.12 331.24 284.44
  C 331.12 287.59 331.22 290.70 330.35 293.76
  Q 323.12 319.15 321.19 326.48
  Q 318.60 336.30 315.43 344.21
  A 0.79 0.79 0.0 0 0 315.64 345.10
  L 317.71 346.90
  L 316.15 350.77
  L 313.18 345.02
  L 319.69 326.75
  A 1.98 1.90 52.0 0 0 319.78 325.86
  Q 319.62 324.74 319.97 323.70
  Q 322.04 317.60 323.46 311.32
  Q 323.88 309.48 325.15 307.35
  C 326.84 304.49 327.17 300.76 327.91 297.90
  C 329.10 293.33 332.47 278.87 329.09 275.56
  Q 328.73 275.22 328.62 274.73
  C 327.54 269.79 326.65 265.11 324.89 260.26
  Q 323.03 255.15 321.28 249.83
  Q 321.48 249.81 321.62 249.62
  Z"
/>
<path fill="#f7f4d2" d="
  M 222.26 314.47
  L 220.10 306.15
  Q 218.65 292.62 227.06 281.15
  L 230.84 278.65
  Q 231.26 278.38 231.69 278.60
  C 239.04 282.40 237.70 298.30 236.65 304.98
  C 235.85 310.06 229.93 329.21 222.26 314.47
  Z"
/>
<path fill="#f6f1b7" d="
  M 270.69 321.81
  C 259.55 312.81 262.60 290.69 271.66 281.41
  Q 274.56 278.45 278.56 279.38
  Q 279.03 279.49 279.32 279.87
  C 284.45 286.65 284.18 294.74 283.58 303.32
  C 283.35 306.49 277.87 327.62 270.69 321.81
  Z"
/>
<path fill="#958b9b" d="
  M 220.10 306.15
  L 222.26 314.47
  Q 222.28 315.32 221.89 315.82
  Q 221.66 316.10 221.33 315.96
  L 220.87 315.75
  Q 220.42 315.55 220.41 316.04
  Q 220.30 320.96 220.27 325.89
  C 220.21 334.55 222.37 343.60 223.44 352.27
  L 221.77 350.75
  Q 221.39 350.40 221.33 349.89
  C 220.68 344.55 219.15 339.07 218.89 334.10
  C 218.56 328.00 219.19 321.88 218.76 315.84
  C 218.56 313.14 219.87 309.15 220.10 306.15
  Z"
/>
<path fill="#9494b5" d="
  M 198.63 328.25
  L 199.00 330.74
  Q 199.08 331.27 198.67 331.61
  L 191.99 337.05
  Q 191.20 336.96 191.57 336.14
  Q 191.71 335.83 192.10 335.49
  Q 195.40 332.63 198.63 328.25
  Z"
/>
<path fill="#f9fcfe" d="
  M 312.59 455.96
  Q 307.37 456.96 301.55 456.99
  C 296.79 457.02 292.07 455.48 287.35 454.37
  C 285.69 448.04 285.21 440.83 284.34 435.25
  C 283.10 427.32 282.95 420.00 282.79 411.23
  Q 282.16 376.49 297.39 345.02
  Q 301.02 337.53 306.03 331.22
  A 0.53 0.53 0.0 0 1 306.96 331.43
  Q 308.40 337.43 310.79 342.77
  Q 323.70 371.60 346.49 392.34
  Q 347.44 393.21 346.51 394.09
  C 329.84 409.98 316.86 433.08 312.59 455.96
  Z"
/>
<path fill="#f7f4d2" d="
  M 235.20 341.79
  Q 240.25 352.13 237.94 363.68
  C 236.98 368.47 231.11 362.81 229.93 361.25
  C 225.56 354.68 224.56 346.00 228.10 338.83
  Q 228.34 338.36 228.84 338.21
  C 231.53 337.44 233.40 340.01 235.20 341.79
  Z"
/>
<path fill="#f6f1b7" d="
  M 276.52 357.91
  Q 275.78 362.49 273.21 366.25
  A 1.81 1.80 32.4 0 1 270.80 366.78
  C 265.42 363.58 263.97 355.61 264.63 349.71
  Q 264.78 345.60 266.49 341.79
  C 268.57 337.15 272.78 336.59 274.90 341.63
  Q 278.18 349.40 276.52 357.91
  Z"
/>
<path fill="#c4c1dd" d="
  M 148.14 344.34
  L 144.96 361.79
  Q 133.35 365.81 121.74 370.15
  C 115.96 372.31 110.30 375.39 104.55 378.07
  Q 103.39 375.59 104.86 373.17
  Q 105.10 372.77 104.93 372.33
  Q 104.09 370.11 102.15 368.82
  Q 101.74 368.55 102.08 368.20
  Q 102.78 367.49 102.72 366.67
  Q 120.62 356.06 133.50 350.75
  Q 143.13 346.78 148.14 344.34
  Z"
/>
<path fill="#5c4a60" d="
  M 264.63 349.71
  C 263.97 355.61 265.42 363.58 270.80 366.78
  A 1.81 1.80 32.4 0 0 273.21 366.25
  Q 275.78 362.49 276.52 357.91
  C 278.96 358.10 280.44 358.60 282.34 360.52
  Q 284.89 363.09 288.51 363.21
  C 281.03 387.35 279.87 411.56 283.11 436.74
  Q 277.53 434.78 273.26 431.19
  Q 272.91 430.67 272.55 430.54
  Q 266.43 421.28 261.59 411.54
  C 260.18 408.71 257.86 405.21 256.92 402.56
  C 255.55 398.74 253.21 394.33 252.51 390.40
  C 252.04 387.73 252.28 385.58 250.89 383.77
  Q 250.59 383.38 250.62 382.88
  C 250.72 381.12 250.05 374.94 247.41 374.29
  Q 246.93 374.17 246.58 373.83
  C 244.51 371.77 243.93 368.69 242.41 366.28
  A 1.64 1.63 -41.1 0 1 242.55 364.35
  C 244.11 362.50 245.78 361.63 248.40 361.47
  Q 253.17 361.18 257.37 358.83
  Q 257.83 358.57 258.01 358.08
  Q 259.15 354.89 262.48 354.41
  Q 263.08 354.32 263.06 353.71
  Q 262.88 348.34 264.63 349.71
  Z"
/>
<path fill="#d4d1e3" d="
  M 368.48 359.50
  L 365.89 374.86
  A 0.38 0.38 0.0 0 1 365.18 374.96
  Q 364.91 374.37 364.28 374.23
  Q 363.71 374.10 363.60 374.67
  C 354.75 421.38 381.95 458.26 415.82 485.42
  Q 416.03 485.59 415.99 485.82
  A 0.32 0.31 19.2 0 1 415.52 486.04
  C 400.38 477.10 386.63 466.21 376.00 452.05
  C 365.45 437.98 357.20 422.24 353.22 405.01
  C 352.73 402.89 351.90 400.88 351.52 398.86
  Q 347.93 379.58 350.77 359.97
  Q 351.30 359.99 351.58 359.58
  Q 352.14 358.76 352.01 359.75
  L 351.96 360.14
  Q 351.89 360.62 352.33 360.40
  Q 354.39 359.38 356.54 358.78
  C 361.12 357.50 364.24 355.44 368.48 359.50
  Z"
/>
<path fill="#5c4a60" d="
  M 226.75 376.09
  C 224.94 372.28 221.87 369.93 221.96 364.84
  A 1.65 1.65 0.0 0 1 225.17 364.32
  Q 227.89 372.00 231.44 380.15
  C 232.33 382.17 234.25 385.30 235.10 388.20
  Q 235.23 388.67 234.78 388.49
  C 231.75 387.30 228.50 379.76 226.75 376.09
  Z"
/>
<path fill="#f9fcfe" d="
  M 217.82 383.84
  L 204.96 395.86
  L 200.97 388.53
  A 2.52 2.50 -43.2 0 1 201.06 385.99
  Q 206.74 377.00 208.43 366.48
  A 0.30 0.30 0.0 0 1 209.00 366.39
  L 217.82 383.84
  Z"
/>
<path fill="#d4d1e3" d="
  M 102.72 366.67
  Q 102.78 367.49 102.08 368.20
  Q 101.74 368.55 102.15 368.82
  Q 104.09 370.11 104.93 372.33
  Q 105.10 372.77 104.86 373.17
  Q 103.39 375.59 104.55 378.07
  Q 89.83 387.04 79.00 396.49
  C 55.78 416.75 42.64 447.93 40.79 478.21
  Q 40.77 478.47 40.51 478.50
  Q 40.26 478.52 40.25 478.30
  C 38.10 443.74 54.01 408.87 79.35 385.44
  C 88.18 377.28 93.62 372.21 102.72 366.67
  Z"
/>
<path fill="#b7afaa" d="
  M 110.94 388.03
  C 102.69 386.64 85.06 399.35 78.95 404.71
  Q 67.85 414.45 65.41 417.90
  C 58.43 427.77 55.23 433.03 51.58 443.74
  Q 51.56 445.27 50.38 446.62
  A 1.47 1.46 -23.4 0 0 50.04 447.47
  C 49.87 450.21 48.34 452.21 47.84 454.58
  C 47.17 457.74 45.75 460.86 45.90 464.17
  Q 46.15 470.12 43.25 474.45
  Q 42.53 473.07 42.86 470.52
  Q 47.90 431.23 73.51 403.42
  C 84.70 391.27 100.41 381.59 115.19 373.94
  A 0.36 0.36 0.0 0 1 115.68 374.42
  Q 112.34 381.09 110.94 388.03
  Z"
/>
<path fill="#f9fcfe" d="
  M 414.39 482.86
  C 397.73 468.31 382.95 453.07 372.92 433.06
  Q 359.50 406.28 364.20 376.45
  A 0.23 0.23 0.0 0 1 364.63 376.39
  Q 376.31 399.04 401.34 404.71
  A 1.34 1.34 0.0 0 1 402.38 406.10
  C 401.62 418.75 403.01 429.89 407.32 442.20
  C 414.88 463.76 426.07 482.63 443.19 498.16
  A 0.39 0.38 76.2 0 1 442.80 498.81
  Q 441.84 498.45 441.04 497.80
  Q 440.69 497.52 440.28 497.36
  Q 433.29 494.56 426.32 491.67
  Q 422.79 490.20 414.39 482.86
  Z"
/>
<path fill="#f6f1b7" d="
  M 273.7133 398.9023
  A 9.35 2.90 83.1 0 1 269.7110 389.9684
  A 9.35 2.90 83.1 0 1 271.4667 380.3377
  A 9.35 2.90 83.1 0 1 275.4690 389.2716
  A 9.35 2.90 83.1 0 1 273.7133 398.9023
  Z"
/>
<path fill="#f7f4d2" d="
  M 246.81 396.56
  Q 246.75 396.63 246.69 396.69
  Q 246.67 396.70 246.63 396.66
  Q 240.28 390.43 240.76 382.23
  A 1.17 1.17 0.0 0 1 242.85 381.57
  Q 248.41 388.55 249.50 397.52
  A 0.63 0.63 0.0 0 1 248.44 398.06
  L 247.02 396.73
  A 0.27 0.01 42.0 0 0 246.81 396.56
  Z"
/>
<path fill="#d4d1e3" d="
  M 217.82 383.84
  L 218.83 385.38
  Q 213.42 392.35 206.70 398.58
  L 204.96 395.86
  L 217.82 383.84
  Z"
/>
<path fill="#b7afaa" d="
  M 218.83 385.38
  C 234.18 411.67 254.19 434.80 278.52 453.24
  Q 280.88 455.02 285.70 456.78
  Q 286.12 456.93 286.28 457.35
  L 291.85 472.52
  A 1.07 1.07 0.0 0 1 291.49 473.75
  Q 290.41 474.56 288.83 475.10
  C 270.10 481.58 248.92 482.06 228.60 480.40
  Q 230.32 480.53 230.47 476.72
  C 239.28 476.01 258.98 472.97 263.72 463.15
  Q 263.97 462.64 264.38 463.04
  Q 265.92 464.52 267.58 466.94
  Q 267.84 467.32 268.22 467.03
  Q 268.54 466.79 268.32 466.45
  Q 264.29 460.49 257.08 454.67
  Q 248.22 447.52 231.01 429.99
  Q 217.00 415.71 206.70 398.58
  Q 213.42 392.35 218.83 385.38
  Z"
/>
<path fill="#d4d1e3" d="
  M 110.94 388.03
  Q 110.68 389.39 110.45 389.27
  Q 110.54 389.01 110.51 388.80
  Q 110.44 388.25 109.92 388.45
  Q 95.42 394.09 86.94 400.17
  Q 75.20 408.58 63.62 423.60
  C 60.80 427.26 58.82 431.57 55.87 435.01
  Q 55.56 435.37 55.53 435.85
  Q 55.44 437.51 54.32 438.77
  Q 53.98 439.14 53.88 439.64
  Q 53.43 441.86 51.58 443.74
  C 55.23 433.03 58.43 427.77 65.41 417.90
  Q 67.85 414.45 78.95 404.71
  C 85.06 399.35 102.69 386.64 110.94 388.03
  Z"
/>
<path fill="#f9fcfe" d="
  M 110.45 389.27
  Q 108.64 405.89 115.35 421.17
  Q 115.56 421.65 115.05 421.78
  C 96.49 426.52 73.76 436.19 60.83 450.70
  Q 49.38 463.54 43.15 479.87
  A 0.20 0.20 0.0 0 1 42.82 479.94
  L 42.58 479.70
  Q 42.46 479.58 42.48 479.41
  L 43.25 474.45
  Q 46.15 470.12 45.90 464.17
  C 45.75 460.86 47.17 457.74 47.84 454.58
  C 48.34 452.21 49.87 450.21 50.04 447.47
  A 1.47 1.46 -23.4 0 1 50.38 446.62
  Q 51.56 445.27 51.58 443.74
  Q 53.43 441.86 53.88 439.64
  Q 53.98 439.14 54.32 438.77
  Q 55.44 437.51 55.53 435.85
  Q 55.56 435.37 55.87 435.01
  C 58.82 431.57 60.80 427.26 63.62 423.60
  Q 75.20 408.58 86.94 400.17
  Q 95.42 394.09 109.92 388.45
  Q 110.44 388.25 110.51 388.80
  Q 110.54 389.01 110.45 389.27
  Z"
/>
<path fill="#d4d1e3" d="
  M 245.00 405.13
  Q 249.32 409.96 253.37 414.45
  C 259.04 420.72 265.24 425.54 271.78 430.64
  Q 273.14 432.11 273.95 433.64
  C 275.57 436.71 277.69 438.93 279.74 441.56
  C 280.41 442.42 280.76 443.14 280.67 444.18
  A 0.61 0.61 0.0 0 1 279.63 444.56
  Q 273.85 438.83 268.43 433.56
  C 265.16 430.38 262.15 425.98 258.43 422.55
  Q 258.13 422.27 257.86 422.24
  Q 257.68 422.22 257.49 422.25
  Q 257.16 422.29 256.94 422.05
  Q 249.77 414.56 245.00 405.13
  Z"
/>
<path fill="#b7afaa" d="
  M 287.35 454.37
  C 292.07 455.48 296.79 457.02 301.55 456.99
  Q 307.37 456.96 312.59 455.96
  Q 312.10 459.79 312.57 463.73
  Q 313.18 468.78 317.11 472.44
  Q 317.49 472.79 317.04 473.04
  Q 311.08 476.34 307.16 482.04
  Q 306.58 484.82 303.94 487.66
  Q 291.04 473.99 287.35 454.37
  Z"
/>
<path fill="#f9fcfe" d="
  M 380.53 481.38
  Q 380.55 482.38 380.26 482.22
  C 365.31 477.68 346.87 482.02 332.17 487.35
  C 323.88 490.36 312.77 491.24 303.94 487.66
  Q 306.58 484.82 307.16 482.04
  C 327.94 461.43 358.50 466.59 380.53 481.38
  Z"
/>
<path fill="#d4d1e3" d="
  M 230.47 476.72
  Q 230.32 480.53 228.60 480.40
  Q 220.68 479.84 213.84 477.77
  A 0.38 0.38 0.0 0 1 213.94 477.02
  L 230.47 476.72
  Z"
/>
<path fill="#958b9b" d="
  M 380.53 481.38
  Q 380.89 481.93 381.50 482.04
  Q 381.88 482.10 381.80 482.48
  Q 381.71 482.92 381.24 483.01
  Q 380.61 483.13 380.26 482.22
  Q 380.55 482.38 380.53 481.38
  Z"
/>
</svg>
