<?xml version="1.0" encoding="UTF-8" standalone="no"?>
<svg xmlns="http://www.w3.org/2000/svg" version="1.2" baseProfile="tiny" viewBox="0.00 0.00 500.00 500.00">
<path fill="#000000" d="
  M 321.07 85.53
  A 0.82 0.82 0.0 0 0 322.57 85.30
  C 331.11 48.34 349.65 15.82 387.45 3.12
  C 392.57 1.40 420.38 -5.12 415.74 8.30
  Q 409.73 25.66 408.67 31.43
  C 406.21 44.92 402.99 59.36 401.42 71.94
  Q 400.22 81.62 399.59 91.46
  Q 399.56 91.94 400.04 92.00
  Q 400.77 92.10 401.17 91.42
  Q 414.03 69.78 434.53 59.29
  C 446.51 53.16 462.97 52.18 475.23 59.15
  A 0.94 0.94 0.0 0 1 475.31 60.73
  C 469.26 65.00 464.75 69.11 460.03 75.21
  Q 446.67 92.49 435.10 111.05
  Q 431.17 117.36 426.45 123.40
  A 0.90 0.90 0.0 0 0 427.04 124.84
  L 428.74 125.08
  A 0.81 0.80 -88.7 0 1 429.42 125.80
  Q 429.87 130.45 428.70 134.93
  A 0.86 0.86 0.0 0 0 429.89 135.92
  L 434.88 133.59
  A 1.31 1.30 77.0 0 1 436.73 134.75
  C 436.87 143.15 434.50 152.27 432.09 160.31
  C 422.71 191.68 410.67 223.28 384.67 244.92
  Q 381.85 247.26 373.15 251.38
  C 371.24 252.28 369.77 252.20 367.69 252.46
  A 0.93 0.92 5.4 0 0 366.92 253.09
  C 365.86 256.23 364.39 259.23 363.58 262.37
  C 361.55 270.23 359.30 278.09 357.92 285.97
  Q 356.15 296.06 353.50 312.25
  Q 352.78 316.63 352.63 319.44
  C 351.43 342.15 351.88 356.22 354.09 373.93
  C 354.31 375.68 354.62 377.14 356.15 378.37
  Q 367.65 387.63 378.07 398.07
  C 382.92 402.93 386.88 409.19 391.44 414.75
  A 1.56 1.53 23.5 0 1 391.78 415.59
  C 392.87 426.94 383.81 433.79 378.39 442.46
  Q 368.69 457.97 357.43 472.43
  C 352.87 478.27 348.94 484.47 343.92 489.94
  C 341.23 492.87 331.74 494.59 329.51 494.76
  Q 314.42 495.90 299.59 498.81
  C 292.85 500.13 284.30 500.44 277.62 499.13
  C 268.22 497.29 258.66 496.99 249.40 495.40
  Q 231.13 492.26 212.54 492.61
  C 209.99 492.66 207.01 491.56 204.65 492.24
  C 201.18 493.23 197.92 493.86 194.46 495.19
  Q 186.29 498.32 177.55 499.25
  C 172.34 499.81 164.01 496.52 158.70 494.83
  Q 152.48 492.85 146.50 493.09
  C 141.54 493.29 138.31 493.15 134.27 489.90
  Q 118.84 477.47 105.43 462.93
  Q 102.32 459.55 100.04 455.39
  Q 92.46 441.56 85.77 427.31
  C 83.38 422.22 81.08 414.64 77.82 409.17
  C 75.34 405.00 77.40 401.99 80.45 398.17
  C 88.75 387.76 94.80 381.60 99.98 375.36
  C 106.80 367.15 114.31 359.53 121.84 351.97
  Q 122.17 351.64 122.21 351.18
  Q 123.71 335.26 115.91 321.43
  A 1.49 1.46 -3.9 0 0 115.15 320.78
  C 104.08 316.58 97.81 309.79 90.01 299.69
  C 72.27 276.70 60.54 249.15 55.05 220.00
  Q 54.60 217.65 56.14 216.63
  A 0.56 0.53 32.3 0 1 56.54 216.55
  L 59.93 217.20
  A 0.77 0.77 0.0 0 0 60.81 216.68
  L 62.60 210.93
  A 1.48 1.48 0.0 0 1 64.88 210.17
  L 66.35 211.22
  Q 67.04 211.71 67.37 210.94
  C 69.22 206.58 69.02 203.52 67.03 199.04
  Q 53.52 168.66 32.01 143.23
  Q 28.02 138.51 23.71 134.54
  A 0.90 0.90 0.0 0 1 23.76 133.17
  C 30.06 128.22 42.25 131.09 49.26 133.44
  Q 75.53 142.26 91.05 165.24
  A 0.69 0.69 0.0 0 0 92.29 164.72
  C 91.34 160.09 90.99 155.17 89.95 150.80
  C 84.07 126.00 78.80 101.18 69.75 77.51
  Q 68.90 75.28 70.09 73.46
  A 1.30 1.27 -79.8 0 1 70.86 72.91
  C 75.46 71.74 79.63 73.00 84.01 73.69
  Q 87.71 74.28 90.83 75.47
  C 102.18 79.81 117.21 85.97 126.20 93.30
  C 133.15 98.96 137.52 101.38 143.51 108.95
  C 153.68 121.81 160.83 133.28 166.25 148.62
  A 0.63 0.63 0.0 0 0 167.42 148.65
  Q 167.68 148.01 167.55 146.99
  C 165.51 131.20 164.29 115.89 159.74 100.52
  C 157.12 91.65 167.34 96.18 170.39 98.31
  C 184.84 108.37 193.41 122.32 198.28 138.98
  C 198.98 141.38 198.89 143.84 199.45 146.27
  Q 203.56 163.98 199.62 181.73
  Q 199.52 182.17 199.71 182.59
  L 202.24 187.94
  A 1.69 1.69 0.0 0 0 203.06 188.76
  Q 206.39 190.29 208.71 193.13
  A 0.94 0.94 0.0 0 0 210.26 192.98
  L 212.70 188.51
  A 1.70 1.70 0.0 0 1 215.35 188.08
  Q 216.79 189.42 216.96 192.18
  C 218.30 214.91 218.37 233.27 215.16 252.90
  C 211.65 274.37 202.43 293.30 188.16 309.73
  C 183.58 315.01 183.14 322.90 184.78 329.37
  A 2.49 2.49 0.0 0 0 188.04 331.10
  C 192.10 329.65 197.19 329.12 200.97 328.22
  Q 208.61 326.41 216.42 325.51
  C 222.43 324.82 228.43 323.48 234.57 322.58
  C 239.04 321.92 243.02 323.05 247.13 323.45
  C 253.94 324.11 262.87 327.00 269.21 329.65
  Q 277.04 332.92 285.08 335.65
  A 1.99 1.99 0.0 0 0 287.62 334.37
  C 294.29 313.40 299.72 292.64 302.65 270.26
  C 303.72 262.04 303.45 253.19 303.96 244.57
  A 1.10 1.06 23.4 0 0 303.59 243.68
  C 302.33 242.58 300.74 241.92 299.66 240.80
  C 289.99 230.77 281.89 214.64 278.06 202.72
  Q 266.14 165.58 267.98 126.51
  Q 268.37 118.28 270.29 110.81
  A 1.73 1.73 0.0 0 1 273.41 110.30
  L 276.99 115.79
  A 0.87 0.86 -48.3 0 0 278.49 115.70
  Q 281.19 110.34 287.19 110.35
  Q 287.64 110.35 287.84 109.94
  L 290.16 105.10
  A 2.80 2.79 -45.4 0 0 290.15 102.69
  C 275.95 73.52 278.33 41.03 303.68 18.96
  C 305.59 17.30 310.24 14.42 312.80 15.70
  Q 314.45 16.53 314.35 18.25
  C 313.81 28.50 314.07 37.99 314.52 48.24
  C 315.04 60.01 317.82 72.16 320.22 83.68
  C 320.37 84.41 320.73 84.95 321.07 85.53
  Z"
/>
<g stroke-width="2.00" fill="none" stroke-linecap="butt">
<path stroke="#e9edc1" vector-effect="non-scaling-stroke" d="
  M 370.29 66.50
  L 368.79 66.27
  A 0.53 0.52 13.0 0 1 368.36 65.59
  L 369.93 60.70
  Q 370.08 60.25 369.82 59.85
  L 366.42 54.73
  A 1.34 1.33 -18.3 0 0 365.24 54.14
  Q 357.56 54.58 350.51 57.51
  A 0.86 0.85 54.7 0 1 349.59 57.35
  Q 344.74 52.89 346.50 47.46
  C 347.62 44.01 348.54 41.05 344.22 40.05
  Q 343.80 39.95 343.76 39.52
  L 343.66 38.48"
/>
<path stroke="#e9edc1" vector-effect="non-scaling-stroke" d="
  M 400.71 64.00
  Q 398.31 64.09 397.43 61.92
  Q 397.24 61.47 396.75 61.51
  Q 393.66 61.77 391.30 63.70
  Q 390.90 64.03 390.39 64.14
  C 387.52 64.78 385.13 66.28 382.16 66.27
  Q 377.08 66.26 372.00 67.27"
/>
<path stroke="#e9edc1" vector-effect="non-scaling-stroke" d="
  M 438.25 102.79
  Q 437.30 103.06 436.34 102.64
  A 0.44 0.44 0.0 0 1 436.18 101.94
  Q 437.88 100.02 436.75 98.17
  C 435.08 95.40 433.98 92.42 432.94 89.37
  A 1.45 1.37 -80.9 0 0 432.51 88.74
  Q 430.18 86.82 427.31 85.83
  Q 426.77 85.64 426.33 85.28
  Q 425.21 84.37 423.84 83.90
  Q 423.36 83.73 423.08 83.30
  L 420.84 79.90
  A 2.55 2.55 0.0 0 0 417.53 79.05
  Q 415.22 80.25 413.04 78.47"
/>
<path stroke="#e9edc1" vector-effect="non-scaling-stroke" d="
  M 153.55 125.90
  Q 150.96 126.85 148.62 126.16
  C 143.28 124.59 141.55 127.02 139.95 131.61
  Q 139.29 133.51 139.87 135.38
  A 2.41 2.41 0.0 0 1 138.31 138.38
  L 129.82 141.13
  Q 129.42 141.26 129.10 141.52
  C 127.79 142.59 126.24 142.17 125.14 142.54
  Q 122.23 143.55 119.84 146.26"
/>
<path stroke="#9b7f59" vector-effect="non-scaling-stroke" d="
  M 368.45 127.11
  L 347.85 150.84
  Q 347.53 151.22 347.06 151.39
  Q 345.30 152.04 344.54 153.76
  Q 344.33 154.23 343.82 154.33
  Q 343.05 154.47 342.54 155.09
  Q 342.22 155.49 341.73 155.63
  C 336.70 157.07 332.04 158.92 326.70 159.10
  Q 319.99 159.33 313.06 160.13"
/>
<path stroke="#554936" vector-effect="non-scaling-stroke" d="
  M 313.06 160.13
  L 309.35 156.24"
/>
<path stroke="#9b7f59" vector-effect="non-scaling-stroke" d="
  M 309.35 156.24
  Q 307.11 157.20 304.75 158.08
  C 303.40 158.59 301.73 158.48 300.29 158.99
  C 296.48 160.36 293.57 160.62 289.59 159.84
  C 285.74 159.09 281.37 156.21 277.19 154.60
  A 1.59 1.58 83.5 0 1 276.44 154.00
  Q 274.11 150.59 269.82 152.56"
/>
<path stroke="#362a1d" vector-effect="non-scaling-stroke" d="
  M 346.94 174.69
  L 346.15 179.85
  Q 345.92 181.34 347.39 181.71
  Q 354.59 183.53 362.03 183.76
  A 0.71 0.70 15.6 0 0 362.68 183.40
  L 366.46 176.75"
/>
<path stroke="#362a1d" vector-effect="non-scaling-stroke" d="
  M 368.11 177.76
  L 365.22 182.75
  A 0.48 0.48 0.0 0 0 365.65 183.47
  Q 380.27 182.82 391.75 173.79"
/>
<path stroke="#362a1d" vector-effect="non-scaling-stroke" d="
  M 363.44 217.94
  L 361.71 226.67
  A 0.44 0.44 0.0 0 1 360.84 226.64
  Q 360.39 222.78 361.44 218.73
  C 363.19 212.01 342.44 214.11 339.44 215.81
  Q 339.01 216.05 338.94 216.54
  C 338.59 219.14 338.55 222.92 336.69 224.93
  Q 336.17 225.50 336.22 224.73
  L 336.61 219.47"
/>
<path stroke="#362a1d" vector-effect="non-scaling-stroke" d="
  M 318.00 165.79
  Q 328.60 175.70 343.13 180.63
  A 0.94 0.94 0.0 0 0 344.36 179.88
  L 345.27 173.83"
/>
<path stroke="#463723" vector-effect="non-scaling-stroke" d="
  M 309.35 156.24
  Q 313.59 165.07 321.80 171.72
  A 0.55 0.55 0.0 0 1 321.83 172.54
  Q 317.82 176.40 317.85 181.94
  A 0.50 0.50 0.0 0 1 317.17 182.41
  L 310.73 179.84
  Q 310.41 179.71 310.17 179.95
  L 309.81 180.32
  A 0.33 0.32 -57.8 0 0 309.93 180.86
  C 325.90 186.42 338.25 201.91 336.61 219.47"
/>
<path stroke="#7c6040" vector-effect="non-scaling-stroke" d="
  M 336.61 219.47
  Q 333.29 218.84 329.50 219.75
  Q 328.33 220.03 326.99 219.21"
/>
<path stroke="#463723" vector-effect="non-scaling-stroke" d="
  M 326.99 219.21
  Q 329.86 206.47 321.97 196.53
  C 317.06 190.35 306.78 186.80 302.78 195.97
  Q 297.53 208.02 305.29 218.25"
/>
<path stroke="#7c6040" vector-effect="non-scaling-stroke" d="
  M 305.29 218.25
  C 300.34 219.51 297.09 217.25 292.77 216.21
  Q 292.29 216.10 291.93 215.76
  Q 288.36 212.47 283.54 211.71"
/>
<path stroke="#7c6040" vector-effect="non-scaling-stroke" d="
  M 399.72 226.92
  Q 396.26 223.95 393.83 226.95
  Q 393.52 227.33 393.04 227.24
  Q 392.36 227.10 392.21 226.25"
/>
<path stroke="#463723" vector-effect="non-scaling-stroke" d="
  M 392.21 226.25
  C 395.55 221.03 403.09 200.29 389.32 201.80
  C 378.89 202.94 372.08 212.49 370.17 222.23"
/>
<path stroke="#7c6040" vector-effect="non-scaling-stroke" d="
  M 370.17 222.23
  Q 367.14 219.06 363.44 217.94"
/>
<path stroke="#463723" vector-effect="non-scaling-stroke" d="
  M 363.44 217.94
  C 367.13 204.00 380.06 194.45 393.82 191.64
  C 394.92 191.42 396.44 191.73 397.64 191.41
  A 0.42 0.42 0.0 0 0 397.62 190.60
  Q 393.83 189.77 390.19 191.19
  A 0.35 0.35 0.0 0 1 389.73 190.76
  Q 391.55 184.84 388.47 179.47
  Q 388.15 178.91 388.69 178.57
  Q 396.96 173.38 402.67 165.48
  Q 402.75 165.38 402.66 165.28
  L 402.40 165.03
  Q 402.14 164.77 401.89 165.04
  Q 397.31 169.99 391.75 173.79"
/>
<path stroke="#7c6040" vector-effect="non-scaling-stroke" d="
  M 391.75 173.79
  Q 390.67 173.79 390.36 172.64
  Q 390.20 172.05 389.62 172.27
  Q 382.65 174.98 372.99 176.16
  Q 371.93 176.29 368.11 177.76"
/>
<path stroke="#463723" vector-effect="non-scaling-stroke" d="
  M 368.11 177.76
  Q 372.19 168.92 372.82 159.92
  Q 372.85 159.48 372.45 159.67
  Q 372.24 159.77 372.20 159.98
  Q 370.37 168.74 366.46 176.75"
/>
<path stroke="#7c6040" vector-effect="non-scaling-stroke" d="
  M 366.46 176.75
  L 346.94 174.69"
/>
<path stroke="#463723" vector-effect="non-scaling-stroke" d="
  M 346.94 174.69
  Q 348.03 165.73 347.45 156.64
  Q 347.42 156.16 347.22 155.90
  Q 346.94 155.52 346.54 155.48
  Q 346.02 155.43 345.99 155.96
  L 345.27 173.83"
/>
<path stroke="#7c6040" vector-effect="non-scaling-stroke" d="
  M 345.27 173.83
  Q 332.01 171.63 320.49 165.24
  Q 320.07 165.00 319.61 165.18
  L 318.00 165.79"
/>
<path stroke="#463723" vector-effect="non-scaling-stroke" d="
  M 318.00 165.79
  L 313.06 160.13"
/>
<path stroke="#362a1d" vector-effect="non-scaling-stroke" d="
  M 326.99 219.21
  C 322.49 231.85 310.94 225.14 305.29 218.25"
/>
<path stroke="#362a1d" vector-effect="non-scaling-stroke" d="
  M 392.21 226.25
  Q 388.05 232.40 384.55 234.52
  C 377.14 239.02 370.61 235.98 370.32 227.60
  Q 370.23 224.76 370.17 222.23"
/>
<path stroke="#d57a4d" vector-effect="non-scaling-stroke" d="
  M 198.36 183.99
  Q 198.26 184.76 197.22 184.99
  A 0.82 0.80 -89.9 0 0 196.60 185.62
  L 196.10 187.99
  Q 196.01 188.41 196.19 188.80
  Q 196.72 189.97 196.44 190.67"
/>
<path stroke="#7c6040" vector-effect="non-scaling-stroke" d="
  M 201.96 286.50
  Q 198.98 285.83 196.34 287.16
  Q 195.86 287.40 195.34 287.29
  Q 189.69 286.04 185.74 289.70
  Q 185.35 290.07 184.87 289.82
  Q 184.30 289.54 184.12 288.96"
/>
<path stroke="#463723" vector-effect="non-scaling-stroke" d="
  M 184.12 288.96
  Q 188.54 282.55 188.11 275.18
  C 187.45 263.70 176.07 261.30 167.98 267.69
  Q 159.89 274.07 159.41 285.65"
/>
<path stroke="#7c6040" vector-effect="non-scaling-stroke" d="
  M 159.41 285.65
  Q 155.86 283.26 152.28 282.66"
/>
<path stroke="#463723" vector-effect="non-scaling-stroke" d="
  M 152.28 282.66
  C 151.16 266.01 166.39 253.78 181.43 251.76
  A 0.06 0.06 0.0 0 0 181.47 251.67
  L 181.19 251.28
  Q 181.11 251.17 180.97 251.18
  L 173.95 251.72
  Q 173.44 251.76 173.24 251.28
  Q 170.89 245.58 165.89 241.90
  Q 165.42 241.56 165.89 241.21
  Q 171.77 236.76 175.56 230.38
  A 0.32 0.32 0.0 0 0 175.05 230.01
  C 167.46 238.36 158.68 245.59 148.29 249.96
  A 1.42 1.41 -28.6 0 1 146.58 249.46
  C 142.11 243.05 142.01 234.72 141.74 227.13
  A 0.49 0.49 0.0 0 0 140.77 227.08
  C 139.77 234.68 141.29 240.43 143.58 247.97"
/>
<path stroke="#7c6040" vector-effect="non-scaling-stroke" d="
  M 143.58 247.97
  Q 134.24 250.20 124.12 250.51"
/>
<path stroke="#463723" vector-effect="non-scaling-stroke" d="
  M 124.12 250.51
  C 121.39 246.36 117.41 240.22 116.76 234.64"
/>
<path stroke="#9b7f59" vector-effect="non-scaling-stroke" d="
  M 116.76 234.64
  Q 119.63 233.76 119.20 230.51
  A 1.20 1.17 -30.3 0 1 119.44 229.64
  Q 121.69 226.78 125.09 225.35
  Q 125.58 225.15 125.80 224.67
  Q 126.15 223.90 126.96 223.75
  Q 127.48 223.66 127.84 223.26
  Q 133.61 217.03 131.09 209.07
  Q 130.94 208.59 131.14 208.13
  Q 131.76 206.73 131.77 205.27"
/>
<path stroke="#362a1d" vector-effect="non-scaling-stroke" d="
  M 184.12 288.96
  C 177.24 299.03 161.46 300.94 159.41 285.65"
/>
<path stroke="#362a1d" vector-effect="non-scaling-stroke" d="
  M 152.28 282.66
  Q 151.35 288.30 152.95 293.37
  A 0.49 0.49 0.0 0 1 152.19 293.90
  C 150.04 292.26 150.39 284.47 150.54 282.12
  A 1.10 1.09 4.9 0 0 149.56 280.96
  Q 139.62 279.90 130.15 282.96
  Q 129.55 283.16 129.71 283.77
  C 130.34 286.06 132.27 292.60 130.65 294.45
  Q 130.19 294.97 130.09 294.28
  L 128.94 286.51"
/>
<path stroke="#463723" vector-effect="non-scaling-stroke" d="
  M 128.94 286.51
  C 123.95 272.00 111.45 263.06 96.50 262.34
  A 0.81 0.81 0.0 0 1 95.83 261.93
  Q 95.05 260.58 96.50 260.82
  Q 98.79 261.21 101.26 261.14
  Q 101.84 261.13 101.84 260.54
  Q 101.79 255.07 103.84 250.03
  Q 104.07 249.47 103.54 249.17
  L 100.06 247.17"
/>
<path stroke="#362a1d" vector-effect="non-scaling-stroke" d="
  M 124.12 250.51
  L 125.98 253.29
  Q 126.26 253.72 126.77 253.73
  Q 135.71 253.94 144.28 251.52
  A 0.74 0.74 0.0 0 0 144.75 250.50
  L 143.58 247.97"
/>
<path stroke="#554936" vector-effect="non-scaling-stroke" d="
  M 116.76 234.64
  Q 116.18 232.87 116.01 231.26
  Q 115.93 230.45 115.26 230.28
  Q 114.75 230.15 114.79 230.67
  C 115.44 239.78 118.94 245.81 123.45 252.77
  A 0.36 0.36 0.0 0 1 123.11 253.33
  C 112.67 252.26 101.66 247.07 93.28 241.16
  A 0.43 0.43 0.0 0 0 92.71 241.80
  Q 95.87 245.37 100.06 247.17"
/>
<path stroke="#9b7f59" vector-effect="non-scaling-stroke" d="
  M 100.06 247.17
  Q 96.90 253.28 90.50 255.08
  A 0.67 0.67 0.0 0 1 89.94 255.00
  L 84.61 251.56
  A 0.71 0.64 -26.3 0 0 84.25 251.46
  C 80.98 251.54 78.14 253.10 75.07 252.93
  Q 72.01 252.76 68.96 252.27
  Q 68.45 252.19 68.08 252.55
  Q 67.30 253.30 66.29 253.27"
/>
<path stroke="#7c6040" vector-effect="non-scaling-stroke" d="
  M 128.94 286.51
  C 124.13 286.56 125.73 291.03 122.79 291.00"
/>
<path stroke="#463723" vector-effect="non-scaling-stroke" d="
  M 122.79 291.00
  C 120.46 282.11 111.51 270.49 101.13 272.40
  C 88.70 274.70 94.31 290.94 99.89 297.39"
/>
<path stroke="#7c6040" vector-effect="non-scaling-stroke" d="
  M 99.89 297.39
  Q 97.95 299.28 95.25 297.23
  A 0.93 0.92 49.4 0 0 94.24 297.15
  L 91.31 298.77"
/>
<path stroke="#362a1d" vector-effect="non-scaling-stroke" d="
  M 122.79 291.00
  C 126.40 310.25 107.62 305.44 99.89 297.39"
/>
<path stroke="#d57a4d" vector-effect="non-scaling-stroke" d="
  M 363.85 256.26
  Q 362.68 255.42 360.82 256.10
  C 354.40 258.46 342.37 256.93 335.89 255.22
  Q 326.45 252.72 318.73 251.52
  C 314.52 250.86 308.12 251.05 307.75 245.82"
/>
<path stroke="#d57a4d" vector-effect="non-scaling-stroke" d="
  M 182.84 316.67
  Q 180.86 316.82 179.00 318.10
  A 1.35 1.31 -58.0 0 1 178.06 318.33
  C 175.66 317.98 173.57 317.73 171.15 318.50
  C 161.03 321.72 149.46 322.72 136.18 324.17
  Q 130.19 324.83 125.20 323.98
  Q 124.73 323.90 124.36 324.21
  L 123.63 324.80
  Q 123.18 325.17 122.67 324.89
  Q 121.24 324.10 120.01 325.24"
/>
<path stroke="#f4a878" vector-effect="non-scaling-stroke" d="
  M 136.73 331.77
  L 136.30 330.00
  Q 136.18 329.51 135.75 329.26
  Q 134.37 328.47 133.76 327.08
  A 0.89 0.88 37.5 0 0 132.07 327.30
  L 131.44 331.57"
/>
<path stroke="#f4a878" vector-effect="non-scaling-stroke" d="
  M 302.00 319.96
  L 297.33 334.70
  Q 297.18 335.17 297.24 335.67
  Q 297.40 336.99 297.00 338.25
  Q 294.40 346.46 291.67 354.68
  Q 291.49 355.20 290.95 355.21
  Q 290.10 355.22 289.46 355.75"
/>
<path stroke="#f4a878" vector-effect="non-scaling-stroke" d="
  M 308.57 321.37
  Q 305.92 329.13 304.23 337.52
  C 303.85 339.37 304.65 340.81 304.16 342.80
  Q 302.80 348.31 301.32 353.82
  Q 301.19 354.29 300.82 354.62
  C 299.10 356.12 299.99 358.00 299.36 359.60
  Q 298.67 361.34 297.50 362.79"
/>
<path stroke="#f4a878" vector-effect="non-scaling-stroke" d="
  M 349.04 335.50
  Q 348.15 336.01 348.00 336.74
  Q 347.45 339.39 346.65 341.57
  Q 345.65 344.27 345.66 346.22
  Q 345.66 349.60 346.07 353.02
  A 1.76 1.72 -36.2 0 1 345.91 353.98
  Q 342.18 361.87 334.53 365.33
  Q 329.91 367.42 328.77 368.30
  Q 324.38 371.72 321.87 377.02"
/>
<path stroke="#b6b8c2" vector-effect="non-scaling-stroke" d="
  M 286.50 355.46
  Q 285.52 355.66 285.63 356.79
  Q 285.68 357.28 286.02 357.62
  Q 286.68 358.28 285.44 359.26
  Q 285.18 359.47 284.91 359.27
  L 284.46 358.94
  Q 284.04 358.63 283.53 358.71
  C 276.71 359.78 273.93 360.00 268.39 356.79
  Q 267.83 356.47 267.44 356.56
  Q 266.83 356.71 266.75 357.46"
/>
<path stroke="#b6b8c2" vector-effect="non-scaling-stroke" d="
  M 341.75 383.79
  C 342.25 387.33 338.18 386.23 337.76 389.50
  Q 337.04 395.04 334.98 400.25
  Q 334.62 401.17 335.39 403.01
  Q 335.58 403.48 335.96 403.82
  L 338.22 405.88
  Q 338.34 405.98 338.22 406.08
  L 337.92 406.34
  Q 337.68 406.55 337.83 406.83
  Q 338.29 407.68 337.70 408.70"
/>
<path stroke="#d4d6dd" vector-effect="non-scaling-stroke" d="
  M 227.71 359.51
  Q 226.25 358.87 226.15 356.91
  Q 226.12 356.25 225.53 356.53
  C 220.27 359.01 213.45 362.47 208.97 360.89
  C 207.31 360.31 206.02 358.65 204.32 357.68
  Q 203.90 357.44 203.81 356.96
  C 202.67 351.26 196.38 345.63 190.92 350.68
  Q 190.54 351.03 190.13 350.72
  L 189.25 350.06"
/>
<path stroke="#d4d6dd" vector-effect="non-scaling-stroke" d="
  M 160.89 388.40
  Q 160.09 381.79 163.12 376.77
  A 0.57 0.49 62.9 0 0 163.20 376.45
  L 162.90 370.61
  A 0.94 0.74 38.0 0 0 162.83 370.33
  L 160.90 365.87"
/>
<path stroke="#f4a878" vector-effect="non-scaling-stroke" d="
  M 139.15 369.49
  Q 137.85 360.27 138.75 350.79"
/>
<path stroke="#f4a878" vector-effect="non-scaling-stroke" d="
  M 133.68 350.31
  L 132.41 370.32"
/>
<path stroke="#d4d6dd" vector-effect="non-scaling-stroke" d="
  M 260.73 409.08
  Q 254.16 408.96 247.93 405.71
  C 245.14 404.26 242.36 403.87 239.53 402.49
  A 1.25 1.22 48.7 0 0 238.61 402.42
  Q 233.22 404.09 228.59 407.18
  C 227.27 408.06 225.86 408.34 224.48 409.42
  A 0.74 0.74 0.0 0 1 223.45 409.31
  Q 221.84 407.33 222.29 404.76
  A 0.98 0.98 0.0 0 0 222.09 403.97
  Q 221.31 403.01 220.29 403.50"
/>
<path stroke="#616d8e" vector-effect="non-scaling-stroke" d="
  M 128.92 447.60
  C 121.96 451.14 115.35 447.32 108.80 445.12
  C 105.97 444.17 103.18 444.32 100.26 444.49
  A 0.94 0.93 71.8 0 1 99.40 444.05
  Q 98.01 441.82 95.29 442.75"
/>
<path stroke="#616d8e" vector-effect="non-scaling-stroke" d="
  M 334.84 409.21
  Q 327.57 427.49 315.88 443.00
  C 311.07 449.38 311.10 455.76 312.65 463.01
  A 1.18 1.16 -28.8 0 1 312.32 464.10
  L 307.22 469.05
  Q 306.82 469.44 306.28 469.53
  C 300.91 470.45 295.43 473.74 289.96 470.39
  Q 289.50 470.11 288.97 470.18
  L 281.61 471.23
  A 0.95 0.94 63.7 0 1 280.82 470.96
  C 275.35 465.48 270.31 468.55 263.49 468.66
  Q 261.27 468.70 259.25 469.61
  Q 258.77 469.82 258.26 469.69
  L 248.57 467.19"
/>
<path stroke="#293142" vector-effect="non-scaling-stroke" d="
  M 248.57 467.19
  L 249.79 456.74
  Q 249.91 455.71 249.59 456.70
  Q 247.88 461.92 246.96 468.00"
/>
<path stroke="#616d8e" vector-effect="non-scaling-stroke" d="
  M 246.96 468.00
  L 244.97 467.32
  Q 244.55 467.18 244.30 467.55
  Q 243.37 468.88 240.99 468.66
  Q 239.01 468.48 232.98 469.93
  Q 232.50 470.04 232.02 469.91
  Q 228.65 468.96 219.96 467.57
  Q 211.78 466.25 208.95 458.02
  C 207.68 454.31 203.50 453.07 200.86 451.11
  Q 197.34 448.49 193.36 446.60
  C 191.46 445.70 190.13 444.41 188.39 443.23
  Q 187.86 442.87 187.49 443.39
  Q 186.24 445.14 184.08 444.17
  Q 183.64 443.97 183.53 443.49
  Q 182.82 440.12 179.17 441.14
  Q 178.89 441.22 178.61 441.17
  L 172.28 440.04
  Q 171.73 439.94 171.73 440.50
  C 171.73 443.03 166.41 442.80 164.50 443.69
  Q 164.02 443.91 163.49 443.90
  Q 159.26 443.79 155.34 445.38
  Q 154.84 445.59 154.30 445.50
  C 147.77 444.44 150.49 453.85 141.59 452.10
  Q 136.80 451.16 133.46 454.22"
/>
<path stroke="#616d8e" vector-effect="non-scaling-stroke" d="
  M 353.75 412.96
  Q 354.49 412.78 354.82 413.10
  Q 355.07 413.35 354.90 413.94
  Q 353.08 420.43 350.38 426.65
  Q 350.18 427.11 350.33 427.59
  C 351.14 430.11 355.91 434.41 353.39 436.80
  A 1.60 1.60 0.0 0 0 353.90 439.44
  Q 356.22 440.37 357.27 442.49
  Q 357.48 442.91 357.87 443.19
  C 360.28 444.88 360.60 448.59 364.45 447.67
  A 1.22 1.22 0.0 0 1 365.38 447.84
  C 368.29 449.74 370.13 447.71 372.34 449.02"
/>
<path stroke="#383d4c" vector-effect="non-scaling-stroke" d="
  M 246.96 468.00
  L 247.05 476.68
  Q 247.06 477.24 247.53 476.95
  Q 248.04 476.64 248.05 476.25
  Q 248.19 471.78 248.57 467.19"
/>
</g>
<path fill="#eff0cd" d="
  M 370.29 66.50
  L 368.79 66.27
  A 0.53 0.52 13.0 0 1 368.36 65.59
  L 369.93 60.70
  Q 370.08 60.25 369.82 59.85
  L 366.42 54.73
  A 1.34 1.33 -18.3 0 0 365.24 54.14
  Q 357.56 54.58 350.51 57.51
  A 0.86 0.85 54.7 0 1 349.59 57.35
  Q 344.74 52.89 346.50 47.46
  C 347.62 44.01 348.54 41.05 344.22 40.05
  Q 343.80 39.95 343.76 39.52
  L 343.66 38.48
  Q 361.12 13.05 390.11 4.08
  C 395.90 2.28 406.18 0.65 411.98 2.31
  A 0.80 0.80 0.0 0 1 412.20 3.75
  C 398.55 12.72 388.97 23.62 381.54 38.54
  Q 374.81 52.03 370.29 66.50
  Z"
/>
<path fill="#eff0cd" d="
  M 400.71 64.00
  Q 398.31 64.09 397.43 61.92
  Q 397.24 61.47 396.75 61.51
  Q 393.66 61.77 391.30 63.70
  Q 390.90 64.03 390.39 64.14
  C 387.52 64.78 385.13 66.28 382.16 66.27
  Q 377.08 66.26 372.00 67.27
  C 379.14 42.19 390.40 19.95 412.44 5.36
  A 0.82 0.82 0.0 0 0 412.70 5.10
  L 413.44 3.96
  A 0.94 0.94 0.0 0 1 415.12 4.79
  C 408.11 24.36 404.82 43.75 400.71 64.00
  Z"
/>
<path fill="#e3e9b4" d="
  M 312.07 35.30
  Q 312.46 68.13 323.53 99.13
  Q 325.28 104.02 325.84 109.18
  C 327.19 121.39 294.85 108.34 292.03 102.46
  C 284.14 86.02 280.06 64.68 286.16 47.11
  C 289.58 37.26 299.58 20.14 310.48 16.91
  A 1.53 1.53 0.0 0 1 312.45 18.31
  C 312.72 23.98 312.01 30.49 312.07 35.30
  Z"
/>
<path fill="#e3e9b4" d="
  M 343.66 38.48
  L 343.76 39.52
  Q 343.80 39.95 344.22 40.05
  C 348.54 41.05 347.62 44.01 346.50 47.46
  Q 344.74 52.89 349.59 57.35
  A 0.86 0.85 54.7 0 0 350.51 57.51
  Q 357.56 54.58 365.24 54.14
  A 1.34 1.33 -18.3 0 1 366.42 54.73
  L 369.82 59.85
  Q 370.08 60.25 369.93 60.70
  L 368.36 65.59
  A 0.53 0.52 13.0 0 0 368.79 66.27
  L 370.29 66.50
  C 367.18 78.46 364.27 89.81 362.42 102.13
  C 361.59 107.59 361.74 113.25 360.80 118.83
  A 0.55 0.55 0.0 0 1 360.10 119.27
  Q 347.40 115.51 335.25 108.26
  Q 324.51 101.86 324.08 91.07
  C 323.72 81.93 328.37 69.57 332.50 59.72
  Q 338.07 46.44 343.66 38.48
  Z"
/>
<path fill="#eff0cd" d="
  M 438.25 102.79
  Q 437.30 103.06 436.34 102.64
  A 0.44 0.44 0.0 0 1 436.18 101.94
  Q 437.88 100.02 436.75 98.17
  C 435.08 95.40 433.98 92.42 432.94 89.37
  A 1.45 1.37 -80.9 0 0 432.51 88.74
  Q 430.18 86.82 427.31 85.83
  Q 426.77 85.64 426.33 85.28
  Q 425.21 84.37 423.84 83.90
  Q 423.36 83.73 423.08 83.30
  L 420.84 79.90
  A 2.55 2.55 0.0 0 0 417.53 79.05
  Q 415.22 80.25 413.04 78.47
  C 427.40 61.99 451.50 48.87 473.18 59.57
  Q 473.76 59.85 473.24 60.23
  C 459.19 70.23 449.18 85.92 438.25 102.79
  Z"
/>
<path fill="#e3e9b4" d="
  M 400.71 64.00
  Q 398.41 82.10 396.55 100.25
  C 396.19 103.72 393.74 111.53 389.71 114.24
  Q 377.95 122.15 363.86 120.11
  A 1.46 1.46 0.0 0 1 362.62 118.54
  C 363.15 112.75 363.28 106.96 364.17 101.51
  Q 366.98 84.12 372.00 67.27
  Q 377.08 66.26 382.16 66.27
  C 385.13 66.28 387.52 64.78 390.39 64.14
  Q 390.90 64.03 391.30 63.70
  Q 393.66 61.77 396.75 61.51
  Q 397.24 61.47 397.43 61.92
  Q 398.31 64.09 400.71 64.00
  Z"
/>
<path fill="#eff0cd" d="
  M 153.55 125.90
  Q 150.96 126.85 148.62 126.16
  C 143.28 124.59 141.55 127.02 139.95 131.61
  Q 139.29 133.51 139.87 135.38
  A 2.41 2.41 0.0 0 1 138.31 138.38
  L 129.82 141.13
  Q 129.42 141.26 129.10 141.52
  C 127.79 142.59 126.24 142.17 125.14 142.54
  Q 122.23 143.55 119.84 146.26
  C 112.88 129.90 105.17 112.58 94.57 98.46
  Q 84.97 85.69 73.80 74.53
  A 0.73 0.72 71.8 0 1 74.42 73.30
  C 105.91 78.14 137.42 97.62 153.55 125.90
  Z"
/>
<path fill="#e3e9b4" d="
  M 73.43 76.32
  Q 96.64 98.70 109.66 127.08
  Q 112.02 132.21 118.65 147.60
  C 123.88 159.74 127.15 173.77 128.88 186.81
  C 129.33 190.21 131.33 197.26 130.60 200.33
  A 1.71 1.71 0.0 0 1 128.27 201.51
  C 125.30 200.24 121.45 197.61 118.62 200.30
  Q 118.24 200.67 117.77 200.43
  Q 115.13 199.06 112.30 198.32
  C 109.50 197.59 108.27 196.29 105.90 194.96
  C 100.20 191.74 95.77 184.96 95.04 178.46
  C 94.03 169.44 93.44 160.24 91.72 151.60
  Q 84.09 113.16 70.95 75.20
  A 0.37 0.37 0.0 0 1 71.49 74.77
  Q 72.47 75.40 73.43 76.32
  Z"
/>
<path fill="#e3e9b4" d="
  M 413.04 78.47
  Q 415.22 80.25 417.53 79.05
  A 2.55 2.55 0.0 0 1 420.84 79.90
  L 423.08 83.30
  Q 423.36 83.73 423.84 83.90
  Q 425.21 84.37 426.33 85.28
  Q 426.77 85.64 427.31 85.83
  Q 430.18 86.82 432.51 88.74
  A 1.45 1.37 -80.9 0 1 432.94 89.37
  C 433.98 92.42 435.08 95.40 436.75 98.17
  Q 437.88 100.02 436.18 101.94
  A 0.44 0.44 0.0 0 0 436.34 102.64
  Q 437.30 103.06 438.25 102.79
  Q 433.44 110.11 428.76 117.50
  C 424.15 124.77 418.77 133.24 409.26 130.46
  A 1.44 1.44 0.0 0 1 408.53 129.94
  C 407.10 128.01 406.11 126.87 404.01 125.35
  C 386.49 112.70 402.43 89.16 413.04 78.47
  Z"
/>
<path fill="#e3e9b4" d="
  M 191.81 180.83
  C 188.62 184.85 185.75 189.40 181.17 191.99
  C 172.24 197.04 169.30 183.37 169.39 178.00
  C 169.63 164.46 169.73 150.51 168.25 137.31
  Q 166.88 125.16 164.70 113.12
  C 163.85 108.41 161.99 102.98 161.05 97.82
  A 1.05 1.05 0.0 0 1 162.47 96.65
  C 194.19 109.22 202.57 150.63 198.87 179.71
  A 0.76 0.76 0.0 0 1 197.54 180.11
  C 195.51 177.78 193.51 178.68 191.81 180.83
  Z"
/>
<path fill="#f7c399" d="
  M 326.86 113.12
  Q 328.04 108.69 326.97 104.22
  A 0.39 0.39 0.0 0 1 327.63 103.87
  C 336.09 113.08 350.17 118.13 361.89 121.61
  A 0.19 0.19 0.0 0 1 361.92 121.96
  Q 352.45 127.17 344.34 134.33
  A 0.74 0.74 0.0 0 1 343.24 134.19
  Q 337.50 125.59 329.37 119.14
  C 328.00 118.06 326.72 117.94 325.30 118.83
  C 322.50 120.58 319.53 121.80 317.20 123.48
  Q 312.29 127.02 307.44 130.66
  Q 306.96 131.01 306.53 130.62
  Q 304.80 129.07 302.78 126.23
  Q 297.86 119.32 289.66 111.06
  Q 289.31 110.70 289.52 110.24
  L 291.57 105.82
  Q 291.81 105.29 292.29 105.61
  C 300.21 110.94 316.58 119.15 326.16 114.00
  Q 326.70 113.71 326.86 113.12
  Z"
/>
<path fill="#aa916b" d="
  M 368.45 127.11
  L 347.85 150.84
  Q 347.53 151.22 347.06 151.39
  Q 345.30 152.04 344.54 153.76
  Q 344.33 154.23 343.82 154.33
  Q 343.05 154.47 342.54 155.09
  Q 342.22 155.49 341.73 155.63
  C 336.70 157.07 332.04 158.92 326.70 159.10
  Q 319.99 159.33 313.06 160.13
  L 309.35 156.24
  Q 307.11 157.20 304.75 158.08
  C 303.40 158.59 301.73 158.48 300.29 158.99
  C 296.48 160.36 293.57 160.62 289.59 159.84
  C 285.74 159.09 281.37 156.21 277.19 154.60
  A 1.59 1.58 83.5 0 1 276.44 154.00
  Q 274.11 150.59 269.82 152.56
  C 269.18 139.35 268.56 124.51 271.55 111.60
  A 0.52 0.51 39.5 0 1 272.52 111.51
  C 274.00 114.75 279.80 125.21 279.26 128.29
  Q 279.14 128.96 279.78 128.72
  Q 280.47 128.47 280.61 127.67
  Q 282.21 119.07 286.88 112.10
  A 0.90 0.90 0.0 0 1 288.26 111.96
  C 293.93 117.56 300.45 124.58 304.62 131.52
  C 305.92 133.68 307.61 132.83 309.14 131.45
  Q 317.05 124.36 326.74 120.09
  A 0.85 0.85 0.0 0 1 327.57 120.18
  Q 336.49 126.64 342.28 135.97
  A 1.30 1.30 0.0 0 0 344.21 136.30
  C 349.39 132.14 356.93 125.33 363.26 123.07
  Q 363.74 122.90 364.17 123.17
  Q 367.13 125.02 368.45 127.11
  Z"
/>
<path fill="#f18c57" d="
  M 393.82 111.88
  A 0.38 0.38 0.0 0 1 394.50 112.03
  Q 395.96 119.20 400.78 124.68
  Q 401.20 125.17 400.62 125.46
  Q 386.47 132.46 382.59 135.03
  C 379.89 136.82 378.44 136.53 376.51 133.92
  Q 372.06 127.94 366.80 122.94
  A 0.47 0.46 -20.8 0 1 367.16 122.14
  C 376.64 122.98 387.83 119.84 393.82 111.88
  Z"
/>
<path fill="#6c5339" d="
  M 283.69 112.02
  A 0.59 0.59 0.0 0 1 284.62 112.75
  Q 281.70 117.27 280.39 122.45
  A 0.44 0.44 0.0 0 1 279.56 122.52
  L 277.98 118.76
  Q 277.74 118.19 278.17 117.75
  L 283.69 112.02
  Z"
/>
<path fill="#e3e9b4" d="
  M 153.55 125.90
  C 161.94 140.17 174.19 162.03 164.21 178.47
  C 155.76 192.40 149.88 198.59 133.04 200.90
  Q 132.56 200.96 132.51 200.48
  Q 130.41 178.82 123.65 156.28
  Q 121.74 149.92 119.84 146.26
  Q 122.23 143.55 125.14 142.54
  C 126.24 142.17 127.79 142.59 129.10 141.52
  Q 129.42 141.26 129.82 141.13
  L 138.31 138.38
  A 2.41 2.41 0.0 0 0 139.87 135.38
  Q 139.29 133.51 139.95 131.61
  C 141.55 127.02 143.28 124.59 148.62 126.16
  Q 150.96 126.85 153.55 125.90
  Z"
/>
<path fill="#6c5339" d="
  M 422.27 128.93
  C 423.42 127.20 424.76 125.48 427.16 126.57
  A 0.79 0.78 14.9 0 1 427.62 127.35
  L 426.76 137.05
  A 0.52 0.52 0.0 0 1 425.77 137.23
  L 422.21 129.89
  Q 421.97 129.39 422.27 128.93
  Z"
/>
<path fill="#8b6d46" d="
  M 399.72 226.92
  Q 396.26 223.95 393.83 226.95
  Q 393.52 227.33 393.04 227.24
  Q 392.36 227.10 392.21 226.25
  C 395.55 221.03 403.09 200.29 389.32 201.80
  C 378.89 202.94 372.08 212.49 370.17 222.23
  Q 367.14 219.06 363.44 217.94
  C 367.13 204.00 380.06 194.45 393.82 191.64
  C 394.92 191.42 396.44 191.73 397.64 191.41
  A 0.42 0.42 0.0 0 0 397.62 190.60
  Q 393.83 189.77 390.19 191.19
  A 0.35 0.35 0.0 0 1 389.73 190.76
  Q 391.55 184.84 388.47 179.47
  Q 388.15 178.91 388.69 178.57
  Q 396.96 173.38 402.67 165.48
  Q 402.75 165.38 402.66 165.28
  L 402.40 165.03
  Q 402.14 164.77 401.89 165.04
  Q 397.31 169.99 391.75 173.79
  Q 390.67 173.79 390.36 172.64
  Q 390.20 172.05 389.62 172.27
  Q 382.65 174.98 372.99 176.16
  Q 371.93 176.29 368.11 177.76
  Q 372.19 168.92 372.82 159.92
  Q 372.85 159.48 372.45 159.67
  Q 372.24 159.77 372.20 159.98
  Q 370.37 168.74 366.46 176.75
  L 346.94 174.69
  Q 348.03 165.73 347.45 156.64
  Q 347.42 156.16 347.22 155.90
  Q 346.94 155.52 346.54 155.48
  Q 346.02 155.43 345.99 155.96
  L 345.27 173.83
  Q 332.01 171.63 320.49 165.24
  Q 320.07 165.00 319.61 165.18
  L 318.00 165.79
  L 313.06 160.13
  Q 319.99 159.33 326.70 159.10
  C 332.04 158.92 336.70 157.07 341.73 155.63
  Q 342.22 155.49 342.54 155.09
  Q 343.05 154.47 343.82 154.33
  Q 344.33 154.23 344.54 153.76
  Q 345.30 152.04 347.06 151.39
  Q 347.53 151.22 347.85 150.84
  L 368.45 127.11
  L 378.63 138.65
  A 0.96 0.95 53.0 0 0 379.85 138.83
  Q 390.50 132.04 401.49 126.71
  C 405.70 124.67 411.53 140.41 412.80 143.15
  A 2.14 2.13 -22.3 0 0 415.46 144.26
  Q 422.09 141.85 428.80 138.05
  Q 432.11 136.18 434.40 135.44
  A 0.48 0.48 0.0 0 1 435.02 135.94
  Q 433.92 148.22 430.47 159.94
  C 423.56 183.41 415.04 207.84 399.72 226.92
  Z"
/>
<path fill="#b96742" d="
  M 424.00 138.50
  L 415.33 142.83
  A 0.64 0.63 -26.4 0 1 414.48 142.55
  L 409.71 133.00
  A 0.37 0.37 0.0 0 1 410.10 132.47
  Q 415.55 133.30 420.36 130.57
  A 0.62 0.61 -27.3 0 1 421.22 130.84
  L 424.37 137.44
  Q 424.70 138.15 424.00 138.50
  Z"
/>
<path fill="#e3e9b4" d="
  M 28.83 132.63
  C 51.59 129.91 78.93 147.73 90.20 166.83
  Q 92.70 171.07 93.36 176.57
  C 94.66 187.39 86.21 201.17 79.04 208.58
  C 74.41 213.37 70.28 203.63 68.90 199.88
  C 63.18 184.29 53.45 168.89 43.96 155.28
  Q 36.25 144.24 26.54 134.99
  A 1.06 1.06 0.0 0 1 26.75 133.30
  Q 27.67 132.77 28.83 132.63
  Z"
/>
<path fill="#8b6d46" d="
  M 309.35 156.24
  Q 313.59 165.07 321.80 171.72
  A 0.55 0.55 0.0 0 1 321.83 172.54
  Q 317.82 176.40 317.85 181.94
  A 0.50 0.50 0.0 0 1 317.17 182.41
  L 310.73 179.84
  Q 310.41 179.71 310.17 179.95
  L 309.81 180.32
  A 0.33 0.32 -57.8 0 0 309.93 180.86
  C 325.90 186.42 338.25 201.91 336.61 219.47
  Q 333.29 218.84 329.50 219.75
  Q 328.33 220.03 326.99 219.21
  Q 329.86 206.47 321.97 196.53
  C 317.06 190.35 306.78 186.80 302.78 195.97
  Q 297.53 208.02 305.29 218.25
  C 300.34 219.51 297.09 217.25 292.77 216.21
  Q 292.29 216.10 291.93 215.76
  Q 288.36 212.47 283.54 211.71
  Q 271.64 183.51 269.82 152.56
  Q 274.11 150.59 276.44 154.00
  A 1.59 1.58 83.5 0 0 277.19 154.60
  C 281.37 156.21 285.74 159.09 289.59 159.84
  C 293.57 160.62 296.48 160.36 300.29 158.99
  C 301.73 158.48 303.40 158.59 304.75 158.08
  Q 307.11 157.20 309.35 156.24
  Z"
/>
<path fill="#000000" d="
  M 346.94 174.69
  L 346.15 179.85
  Q 345.92 181.34 347.39 181.71
  Q 354.59 183.53 362.03 183.76
  A 0.71 0.70 15.6 0 0 362.68 183.40
  L 366.46 176.75
  Q 370.37 168.74 372.20 159.98
  Q 372.24 159.77 372.45 159.67
  Q 372.85 159.48 372.82 159.92
  Q 372.19 168.92 368.11 177.76
  L 365.22 182.75
  A 0.48 0.48 0.0 0 0 365.65 183.47
  Q 380.27 182.82 391.75 173.79
  Q 397.31 169.99 401.89 165.04
  Q 402.14 164.77 402.40 165.03
  L 402.66 165.28
  Q 402.75 165.38 402.67 165.48
  Q 396.96 173.38 388.69 178.57
  Q 388.15 178.91 388.47 179.47
  Q 391.55 184.84 389.73 190.76
  A 0.35 0.35 0.0 0 0 390.19 191.19
  Q 393.83 189.77 397.62 190.60
  A 0.42 0.42 0.0 0 1 397.64 191.41
  C 396.44 191.73 394.92 191.42 393.82 191.64
  C 380.06 194.45 367.13 204.00 363.44 217.94
  L 361.71 226.67
  A 0.44 0.44 0.0 0 1 360.84 226.64
  Q 360.39 222.78 361.44 218.73
  C 363.19 212.01 342.44 214.11 339.44 215.81
  Q 339.01 216.05 338.94 216.54
  C 338.59 219.14 338.55 222.92 336.69 224.93
  Q 336.17 225.50 336.22 224.73
  L 336.61 219.47
  C 338.25 201.91 325.90 186.42 309.93 180.86
  A 0.33 0.32 -57.8 0 1 309.81 180.32
  L 310.17 179.95
  Q 310.41 179.71 310.73 179.84
  L 317.17 182.41
  A 0.50 0.50 0.0 0 0 317.85 181.94
  Q 317.82 176.40 321.83 172.54
  A 0.55 0.55 0.0 0 0 321.80 171.72
  Q 313.59 165.07 309.35 156.24
  L 313.06 160.13
  L 318.00 165.79
  Q 328.60 175.70 343.13 180.63
  A 0.94 0.94 0.0 0 0 344.36 179.88
  L 345.27 173.83
  L 345.99 155.96
  Q 346.02 155.43 346.54 155.48
  Q 346.94 155.52 347.22 155.90
  Q 347.42 156.16 347.45 156.64
  Q 348.03 165.73 346.94 174.69
  Z"
/>
<g stroke-width="2.00" fill="none" stroke-linecap="butt">
<path stroke="#d2d2d6" vector-effect="non-scaling-stroke" d="
  M 347.71 188.75
  Q 345.24 189.76 341.98 188.31
  Q 336.80 186.00 331.54 183.32"
/>
<path stroke="#d2d2d6" vector-effect="non-scaling-stroke" d="
  M 327.25 181.21
  L 321.13 175.98"
/>
<path stroke="#d2d2d6" vector-effect="non-scaling-stroke" d="
  M 387.94 181.96
  Q 380.39 188.16 370.91 190.26"
/>
<path stroke="#545357" vector-effect="non-scaling-stroke" d="
  M 370.91 190.26
  C 368.92 187.22 365.90 187.55 363.87 190.48"
/>
<path stroke="#d2d2d6" vector-effect="non-scaling-stroke" d="
  M 363.87 190.48
  Q 362.99 190.07 362.06 190.27"
/>
<path stroke="#7f7f80" vector-effect="non-scaling-stroke" d="
  M 363.87 190.48
  C 360.35 198.61 374.03 198.35 370.91 190.26"
/>
<path stroke="#d57a4d" vector-effect="non-scaling-stroke" d="
  M 360.24 190.58
  Q 354.69 191.66 349.50 189.70"
/>
</g>
<path fill="#6c5339" d="
  M 345.27 173.83
  L 344.36 179.88
  A 0.94 0.94 0.0 0 1 343.13 180.63
  Q 328.60 175.70 318.00 165.79
  L 319.61 165.18
  Q 320.07 165.00 320.49 165.24
  Q 332.01 171.63 345.27 173.83
  Z"
/>
<path fill="#6c5339" d="
  M 391.75 173.79
  Q 380.27 182.82 365.65 183.47
  A 0.48 0.48 0.0 0 1 365.22 182.75
  L 368.11 177.76
  Q 371.93 176.29 372.99 176.16
  Q 382.65 174.98 389.62 172.27
  Q 390.20 172.05 390.36 172.64
  Q 390.67 173.79 391.75 173.79
  Z"
/>
<path fill="#a7a6ad" d="
  M 347.71 188.75
  Q 345.24 189.76 341.98 188.31
  Q 336.80 186.00 331.54 183.32
  L 327.25 181.21
  L 321.13 175.98
  L 323.42 173.26
  Q 323.82 172.78 324.33 173.15
  Q 334.77 180.78 347.38 183.75
  Q 347.90 183.88 347.88 184.41
  L 347.71 188.75
  Z"
/>
<path fill="#6c5339" d="
  M 346.94 174.69
  L 366.46 176.75
  L 362.68 183.40
  A 0.71 0.70 15.6 0 1 362.03 183.76
  Q 354.59 183.53 347.39 181.71
  Q 345.92 181.34 346.15 179.85
  L 346.94 174.69
  Z"
/>
<path fill="#fdfeff" d="
  M 321.13 175.98
  L 327.25 181.21
  Q 324.07 181.55 322.68 184.43
  A 0.61 0.61 0.0 0 1 321.92 184.74
  C 317.70 183.22 319.65 178.65 321.13 175.98
  Z"
/>
<path fill="#f18c57" d="
  M 198.36 183.99
  Q 198.26 184.76 197.22 184.99
  A 0.82 0.80 -89.9 0 0 196.60 185.62
  L 196.10 187.99
  Q 196.01 188.41 196.19 188.80
  Q 196.72 189.97 196.44 190.67
  C 191.17 194.84 186.17 204.94 182.94 210.94
  Q 182.67 211.44 182.23 211.09
  Q 174.64 204.95 166.65 199.15
  C 164.21 197.37 163.37 196.02 160.37 198.62
  Q 151.81 206.04 146.86 212.21
  Q 146.59 212.54 146.23 212.31
  L 131.90 203.02
  A 0.30 0.30 0.0 0 1 132.06 202.47
  C 149.95 202.00 158.82 191.10 166.96 176.93
  A 0.37 0.37 0.0 0 1 167.65 177.09
  C 167.88 181.92 168.67 189.90 172.52 192.88
  C 180.04 198.69 189.62 187.44 192.70 181.50
  A 2.14 2.14 0.0 0 1 195.66 180.63
  Q 197.28 181.55 198.36 183.99
  Z"
/>
<path fill="#a7a6ad" d="
  M 387.94 181.96
  Q 380.39 188.16 370.91 190.26
  C 368.92 187.22 365.90 187.55 363.87 190.48
  Q 362.99 190.07 362.06 190.27
  L 362.67 186.26
  Q 362.76 185.66 363.37 185.63
  Q 375.08 185.05 385.64 180.05
  Q 386.10 179.83 386.49 180.15
  Q 387.49 180.98 387.94 181.96
  Z"
/>
<path fill="#fdfeff" d="
  M 387.94 181.96
  Q 390.06 186.93 387.69 191.33
  Q 387.42 191.82 386.88 192.00
  Q 376.65 195.45 369.38 203.40
  A 0.89 0.89 0.0 0 1 368.19 203.52
  C 365.35 201.44 359.97 194.03 362.06 190.27
  Q 362.99 190.07 363.87 190.48
  C 360.35 198.61 374.03 198.35 370.91 190.26
  Q 380.39 188.16 387.94 181.96
  Z"
/>
<path fill="#fdfeff" d="
  M 347.71 188.75
  C 346.33 195.87 341.78 198.15 335.47 200.27
  Q 334.97 200.44 334.68 199.99
  L 328.78 190.93
  Q 328.48 190.46 328.99 190.23
  Q 332.94 188.50 331.54 183.32
  Q 336.80 186.00 341.98 188.31
  Q 345.24 189.76 347.71 188.75
  Z"
/>
<path fill="#b96742" d="
  M 198.36 183.99
  L 203.47 196.62
  A 0.39 0.39 0.0 0 1 202.77 196.95
  Q 200.48 192.55 196.44 190.67
  Q 196.72 189.97 196.19 188.80
  Q 196.01 188.41 196.10 187.99
  L 196.60 185.62
  A 0.82 0.80 -89.9 0 1 197.22 184.99
  Q 198.26 184.76 198.36 183.99
  Z"
/>
<path fill="#b96742" d="
  M 360.24 190.58
  Q 354.69 191.66 349.50 189.70
  L 349.83 184.73
  A 0.68 0.67 5.6 0 1 350.59 184.11
  L 359.94 185.35
  Q 360.59 185.43 360.55 186.10
  L 360.24 190.58
  Z"
/>
<path fill="#f7c399" d="
  M 77.58 211.39
  C 85.35 206.61 91.45 194.33 94.36 185.91
  Q 94.58 185.29 94.93 185.84
  Q 102.63 198.09 116.70 201.57
  A 0.52 0.51 -62.7 0 1 116.96 202.40
  Q 111.32 209.04 106.99 216.59
  A 0.39 0.38 28.3 0 1 106.48 216.74
  Q 97.79 212.12 88.26 209.50
  A 1.36 1.34 -56.8 0 0 87.03 209.77
  Q 79.93 215.67 75.28 223.70
  A 1.81 1.80 -59.2 0 1 72.77 224.34
  L 69.32 222.22
  Q 68.82 221.91 68.75 221.33
  Q 67.82 214.09 69.56 207.03
  A 0.49 0.49 0.0 0 1 70.50 206.97
  Q 72.12 211.25 76.59 211.62
  Q 77.12 211.67 77.58 211.39
  Z"
/>
<path fill="#000000" d="
  M 370.91 190.26
  C 374.03 198.35 360.35 198.61 363.87 190.48
  C 365.90 187.55 368.92 187.22 370.91 190.26
  Z"
/>
<path fill="#8b6d46" d="
  M 201.96 286.50
  Q 198.98 285.83 196.34 287.16
  Q 195.86 287.40 195.34 287.29
  Q 189.69 286.04 185.74 289.70
  Q 185.35 290.07 184.87 289.82
  Q 184.30 289.54 184.12 288.96
  Q 188.54 282.55 188.11 275.18
  C 187.45 263.70 176.07 261.30 167.98 267.69
  Q 159.89 274.07 159.41 285.65
  Q 155.86 283.26 152.28 282.66
  C 151.16 266.01 166.39 253.78 181.43 251.76
  A 0.06 0.06 0.0 0 0 181.47 251.67
  L 181.19 251.28
  Q 181.11 251.17 180.97 251.18
  L 173.95 251.72
  Q 173.44 251.76 173.24 251.28
  Q 170.89 245.58 165.89 241.90
  Q 165.42 241.56 165.89 241.21
  Q 171.77 236.76 175.56 230.38
  A 0.32 0.32 0.0 0 0 175.05 230.01
  C 167.46 238.36 158.68 245.59 148.29 249.96
  A 1.42 1.41 -28.6 0 1 146.58 249.46
  C 142.11 243.05 142.01 234.72 141.74 227.13
  A 0.49 0.49 0.0 0 0 140.77 227.08
  C 139.77 234.68 141.29 240.43 143.58 247.97
  Q 134.24 250.20 124.12 250.51
  C 121.39 246.36 117.41 240.22 116.76 234.64
  Q 119.63 233.76 119.20 230.51
  A 1.20 1.17 -30.3 0 1 119.44 229.64
  Q 121.69 226.78 125.09 225.35
  Q 125.58 225.15 125.80 224.67
  Q 126.15 223.90 126.96 223.75
  Q 127.48 223.66 127.84 223.26
  Q 133.61 217.03 131.09 209.07
  Q 130.94 208.59 131.14 208.13
  Q 131.76 206.73 131.77 205.27
  Q 139.14 209.04 145.10 213.71
  A 2.33 2.33 0.0 0 0 148.41 213.26
  Q 154.53 205.02 162.80 198.84
  A 0.93 0.92 45.3 0 1 163.92 198.85
  L 182.53 213.28
  A 0.68 0.68 0.0 0 0 183.55 213.05
  C 186.99 206.33 191.18 198.68 196.04 192.86
  Q 196.41 192.42 196.85 192.78
  C 201.85 196.73 205.71 203.89 209.33 209.41
  A 0.65 0.65 0.0 0 0 210.46 208.78
  L 208.75 205.18
  A 1.30 1.28 38.8 0 1 208.65 204.33
  C 209.45 200.71 210.70 193.05 213.28 190.46
  Q 214.57 189.17 214.77 190.98
  C 215.82 200.21 216.66 209.46 216.33 218.70
  C 215.48 241.80 214.26 265.74 201.96 286.50
  Z"
/>
<path fill="#f18c57" d="
  M 349.50 189.70
  Q 354.69 191.66 360.24 190.58
  Q 360.84 199.53 367.02 205.06
  Q 367.37 205.37 367.15 205.79
  L 362.48 214.66
  Q 362.24 215.12 361.78 214.87
  C 355.16 211.19 346.44 212.19 339.39 213.96
  Q 338.94 214.07 338.83 213.62
  L 336.27 202.68
  Q 336.16 202.22 336.60 202.03
  C 343.15 199.26 347.64 197.34 349.50 189.70
  Z"
/>
<path fill="#000000" d="
  M 326.99 219.21
  C 322.49 231.85 310.94 225.14 305.29 218.25
  Q 297.53 208.02 302.78 195.97
  C 306.78 186.80 317.06 190.35 321.97 196.53
  Q 329.86 206.47 326.99 219.21
  Z"
/>
<path fill="#6c5339" d="
  M 204.15 191.33
  L 208.87 195.84
  A 0.48 0.48 0.0 0 1 209.01 196.31
  L 207.39 202.63
  A 0.48 0.48 0.0 0 1 206.47 202.65
  L 203.36 191.81
  A 0.48 0.48 0.0 0 1 204.15 191.33
  Z"
/>
<path fill="#f18c57" d="
  M 303.71 197.23
  C 304.93 193.00 310.60 190.79 314.50 192.84
  Q 326.07 198.95 325.83 212.28
  C 325.69 219.85 322.79 228.68 313.08 222.46
  Q 299.02 213.45 303.71 197.23
  Z"
/>
<path fill="#aa916b" d="
  M 131.77 205.27
  Q 131.76 206.73 131.14 208.13
  Q 130.94 208.59 131.09 209.07
  Q 133.61 217.03 127.84 223.26
  Q 127.48 223.66 126.96 223.75
  Q 126.15 223.90 125.80 224.67
  Q 125.58 225.15 125.09 225.35
  Q 121.69 226.78 119.44 229.64
  A 1.20 1.17 -30.3 0 0 119.20 230.51
  Q 119.63 233.76 116.76 234.64
  Q 116.18 232.87 116.01 231.26
  Q 115.93 230.45 115.26 230.28
  Q 114.75 230.15 114.79 230.67
  C 115.44 239.78 118.94 245.81 123.45 252.77
  A 0.36 0.36 0.0 0 1 123.11 253.33
  C 112.67 252.26 101.66 247.07 93.28 241.16
  A 0.43 0.43 0.0 0 0 92.71 241.80
  Q 95.87 245.37 100.06 247.17
  Q 96.90 253.28 90.50 255.08
  A 0.67 0.67 0.0 0 1 89.94 255.00
  L 84.61 251.56
  A 0.71 0.64 -26.3 0 0 84.25 251.46
  C 80.98 251.54 78.14 253.10 75.07 252.93
  Q 72.01 252.76 68.96 252.27
  Q 68.45 252.19 68.08 252.55
  Q 67.30 253.30 66.29 253.27
  Q 59.50 236.53 56.48 219.21
  A 0.92 0.92 0.0 0 1 57.74 218.21
  Q 66.41 221.92 74.22 227.22
  Q 74.72 227.56 75.01 227.02
  Q 79.81 218.19 87.30 211.52
  A 1.02 1.00 32.6 0 1 88.29 211.31
  C 93.17 212.89 102.76 214.88 106.75 219.78
  Q 107.05 220.14 107.25 219.71
  Q 112.23 209.30 120.18 200.91
  Q 120.53 200.54 121.02 200.67
  Q 126.80 202.25 131.77 205.27
  Z"
/>
<path fill="#000000" d="
  M 392.21 226.25
  Q 388.05 232.40 384.55 234.52
  C 377.14 239.02 370.61 235.98 370.32 227.60
  Q 370.23 224.76 370.17 222.23
  C 372.08 212.49 378.89 202.94 389.32 201.80
  C 403.09 200.29 395.55 221.03 392.21 226.25
  Z"
/>
<path stroke="#d57a4d" stroke-width="2.00" fill="none" stroke-linecap="butt" vector-effect="non-scaling-stroke" d="
  M 390.01 226.52
  C 386.99 225.99 384.23 226.87 381.60 226.40
  Q 376.59 225.50 371.92 222.66"
/>
<path fill="#f18c57" d="
  M 390.01 226.52
  C 386.99 225.99 384.23 226.87 381.60 226.40
  Q 376.59 225.50 371.92 222.66
  Q 374.35 209.82 385.54 204.15
  C 389.61 202.09 393.77 201.87 395.29 207.00
  C 396.99 212.77 393.16 221.61 390.01 226.52
  Z"
/>
<path fill="#6c5339" d="
  M 283.54 211.71
  Q 288.36 212.47 291.93 215.76
  Q 292.29 216.10 292.77 216.21
  C 297.09 217.25 300.34 219.51 305.29 218.25
  C 310.94 225.14 322.49 231.85 326.99 219.21
  Q 328.33 220.03 329.50 219.75
  Q 333.29 218.84 336.61 219.47
  L 336.22 224.73
  Q 336.17 225.50 336.69 224.93
  C 338.55 222.92 338.59 219.14 338.94 216.54
  Q 339.01 216.05 339.44 215.81
  C 342.44 214.11 363.19 212.01 361.44 218.73
  Q 360.39 222.78 360.84 226.64
  A 0.44 0.44 0.0 0 0 361.71 226.67
  L 363.44 217.94
  Q 367.14 219.06 370.17 222.23
  Q 370.23 224.76 370.32 227.60
  C 370.61 235.98 377.14 239.02 384.55 234.52
  Q 388.05 232.40 392.21 226.25
  Q 392.36 227.10 393.04 227.24
  Q 393.52 227.33 393.83 226.95
  Q 396.26 223.95 399.72 226.92
  C 392.51 236.55 385.04 243.86 374.19 249.45
  C 367.09 253.11 361.65 247.82 358.91 241.81
  A 0.70 0.70 0.0 0 0 357.97 241.47
  Q 344.05 248.19 333.19 237.77
  Q 332.76 237.36 332.31 237.74
  C 320.74 247.63 305.74 248.43 296.47 235.04
  Q 289.46 224.91 283.54 211.71
  Z"
/>
<path fill="#6c5339" d="
  M 66.26 213.00
  Q 66.39 213.00 66.53 213.00
  Q 66.77 213.00 66.76 213.24
  L 66.72 219.83
  A 0.51 0.51 0.0 0 1 65.97 220.27
  L 61.60 217.93
  Q 61.10 217.66 61.32 217.13
  Q 62.14 215.17 62.97 213.28
  Q 63.40 212.32 64.05 212.14
  Q 65.06 211.87 66.03 212.91
  Q 66.12 213.00 66.26 213.00
  Z"
/>
<path fill="#b96742" d="
  M 371.92 222.66
  Q 376.59 225.50 381.60 226.40
  C 384.23 226.87 386.99 225.99 390.01 226.52
  C 386.88 231.45 378.18 240.55 373.13 232.10
  Q 370.64 227.92 371.92 222.66
  Z"
/>
<path fill="#000000" d="
  M 152.28 282.66
  Q 151.35 288.30 152.95 293.37
  A 0.49 0.49 0.0 0 1 152.19 293.90
  C 150.04 292.26 150.39 284.47 150.54 282.12
  A 1.10 1.09 4.9 0 0 149.56 280.96
  Q 139.62 279.90 130.15 282.96
  Q 129.55 283.16 129.71 283.77
  C 130.34 286.06 132.27 292.60 130.65 294.45
  Q 130.19 294.97 130.09 294.28
  L 128.94 286.51
  C 123.95 272.00 111.45 263.06 96.50 262.34
  A 0.81 0.81 0.0 0 1 95.83 261.93
  Q 95.05 260.58 96.50 260.82
  Q 98.79 261.21 101.26 261.14
  Q 101.84 261.13 101.84 260.54
  Q 101.79 255.07 103.84 250.03
  Q 104.07 249.47 103.54 249.17
  L 100.06 247.17
  Q 95.87 245.37 92.71 241.80
  A 0.43 0.43 0.0 0 1 93.28 241.16
  C 101.66 247.07 112.67 252.26 123.11 253.33
  A 0.36 0.36 0.0 0 0 123.45 252.77
  C 118.94 245.81 115.44 239.78 114.79 230.67
  Q 114.75 230.15 115.26 230.28
  Q 115.93 230.45 116.01 231.26
  Q 116.18 232.87 116.76 234.64
  C 117.41 240.22 121.39 246.36 124.12 250.51
  L 125.98 253.29
  Q 126.26 253.72 126.77 253.73
  Q 135.71 253.94 144.28 251.52
  A 0.74 0.74 0.0 0 0 144.75 250.50
  L 143.58 247.97
  C 141.29 240.43 139.77 234.68 140.77 227.08
  A 0.49 0.49 0.0 0 1 141.74 227.13
  C 142.01 234.72 142.11 243.05 146.58 249.46
  A 1.42 1.41 -28.6 0 0 148.29 249.96
  C 158.68 245.59 167.46 238.36 175.05 230.01
  A 0.32 0.32 0.0 0 1 175.56 230.38
  Q 171.77 236.76 165.89 241.21
  Q 165.42 241.56 165.89 241.90
  Q 170.89 245.58 173.24 251.28
  Q 173.44 251.76 173.95 251.72
  L 180.97 251.18
  Q 181.11 251.17 181.19 251.28
  L 181.47 251.67
  A 0.06 0.06 0.0 0 1 181.43 251.76
  C 166.39 253.78 151.16 266.01 152.28 282.66
  Z"
/>
<g stroke-width="2.00" fill="none" stroke-linecap="butt">
<path stroke="#d2d2d6" vector-effect="non-scaling-stroke" d="
  M 167.74 245.68
  Q 167.18 245.70 167.21 246.25"
/>
<path stroke="#545357" vector-effect="non-scaling-stroke" d="
  M 167.21 246.25
  C 163.89 242.62 158.54 247.48 161.00 251.82"
/>
<path stroke="#d2d2d6" vector-effect="non-scaling-stroke" d="
  M 161.00 251.82
  Q 156.51 255.42 152.01 259.25
  Q 149.40 261.46 144.90 260.25"
/>
<path stroke="#7f7f80" vector-effect="non-scaling-stroke" d="
  M 167.21 246.25
  C 171.31 250.68 165.86 256.50 161.00 251.82"
/>
<path stroke="#d2d2d6" vector-effect="non-scaling-stroke" d="
  M 122.57 262.46
  L 112.94 260.97
  Q 112.46 260.90 112.15 260.52
  Q 111.59 259.82 110.72 259.98
  Q 110.23 260.07 109.85 259.77
  C 108.53 258.75 105.35 257.00 105.77 255.04
  A 0.64 0.63 17.1 0 0 105.38 254.31
  Q 104.91 254.12 104.20 254.25"
/>
<path stroke="#b7bccc" vector-effect="non-scaling-stroke" d="
  M 129.89 259.99
  L 130.51 260.01"
/>
<path stroke="#d57a4d" vector-effect="non-scaling-stroke" d="
  M 143.52 262.13
  C 141.09 263.27 136.23 265.12 134.51 263.14
  Q 134.17 262.74 133.65 262.73
  Q 133.01 262.71 132.54 263.00"
/>
</g>
<path fill="#b96742" d="
  M 363.85 256.26
  Q 362.68 255.42 360.82 256.10
  C 354.40 258.46 342.37 256.93 335.89 255.22
  Q 326.45 252.72 318.73 251.52
  C 314.52 250.86 308.12 251.05 307.75 245.82
  Q 321.93 249.36 332.54 240.01
  Q 332.92 239.68 333.29 240.01
  Q 344.22 249.83 357.80 243.56
  Q 358.27 243.34 358.51 243.80
  Q 360.98 248.52 365.41 251.47
  Q 365.89 251.79 365.65 252.32
  L 363.85 256.26
  Z"
/>
<path fill="#a7a6ad" d="
  M 167.74 245.68
  Q 167.18 245.70 167.21 246.25
  C 163.89 242.62 158.54 247.48 161.00 251.82
  Q 156.51 255.42 152.01 259.25
  Q 149.40 261.46 144.90 260.25
  Q 143.81 257.44 144.38 253.89
  Q 144.45 253.41 144.90 253.25
  Q 154.96 249.62 163.47 243.20
  A 1.09 1.09 0.0 0 1 164.83 243.23
  L 167.74 245.68
  Z"
/>
<path fill="#000000" d="
  M 167.21 246.25
  C 171.31 250.68 165.86 256.50 161.00 251.82
  C 158.54 247.48 163.89 242.62 167.21 246.25
  Z"
/>
<path fill="#f18c57" d="
  M 307.75 245.82
  C 308.12 251.05 314.52 250.86 318.73 251.52
  Q 326.45 252.72 335.89 255.22
  C 342.37 256.93 354.40 258.46 360.82 256.10
  Q 362.68 255.42 363.85 256.26
  L 356.24 284.64
  Q 356.09 285.17 355.57 284.98
  Q 351.08 283.31 346.92 281.63
  Q 326.19 273.22 303.99 276.27
  Q 303.53 276.33 303.57 275.87
  L 305.80 245.67
  Q 305.83 245.25 306.25 245.27
  Q 307.03 245.30 307.75 245.82
  Z"
/>
<path fill="#fdfeff" d="
  M 167.74 245.68
  Q 170.91 248.14 171.67 252.18
  Q 171.76 252.66 171.30 252.84
  Q 159.54 257.46 153.92 268.78
  Q 153.68 269.27 153.14 269.14
  Q 146.60 267.48 144.90 260.25
  Q 149.40 261.46 152.01 259.25
  Q 156.51 255.42 161.00 251.82
  C 165.86 256.50 171.31 250.68 167.21 246.25
  Q 167.18 245.70 167.74 245.68
  Z"
/>
<path fill="#8b6d46" d="
  M 100.06 247.17
  L 103.54 249.17
  Q 104.07 249.47 103.84 250.03
  Q 101.79 255.07 101.84 260.54
  Q 101.84 261.13 101.26 261.14
  Q 98.79 261.21 96.50 260.82
  Q 95.05 260.58 95.83 261.93
  A 0.81 0.81 0.0 0 0 96.50 262.34
  C 111.45 263.06 123.95 272.00 128.94 286.51
  C 124.13 286.56 125.73 291.03 122.79 291.00
  C 120.46 282.11 111.51 270.49 101.13 272.40
  C 88.70 274.70 94.31 290.94 99.89 297.39
  Q 97.95 299.28 95.25 297.23
  A 0.93 0.92 49.4 0 0 94.24 297.15
  L 91.31 298.77
  C 80.19 285.97 72.11 269.06 66.29 253.27
  Q 67.30 253.30 68.08 252.55
  Q 68.45 252.19 68.96 252.27
  Q 72.01 252.76 75.07 252.93
  C 78.14 253.10 80.98 251.54 84.25 251.46
  A 0.71 0.64 -26.3 0 1 84.61 251.56
  L 89.94 255.00
  A 0.67 0.67 0.0 0 0 90.50 255.08
  Q 96.90 253.28 100.06 247.17
  Z"
/>
<path fill="#6c5339" d="
  M 143.58 247.97
  L 144.75 250.50
  A 0.74 0.74 0.0 0 1 144.28 251.52
  Q 135.71 253.94 126.77 253.73
  Q 126.26 253.72 125.98 253.29
  L 124.12 250.51
  Q 134.24 250.20 143.58 247.97
  Z"
/>
<path fill="#a7a6ad" d="
  M 122.57 262.46
  L 112.94 260.97
  Q 112.46 260.90 112.15 260.52
  Q 111.59 259.82 110.72 259.98
  Q 110.23 260.07 109.85 259.77
  C 108.53 258.75 105.35 257.00 105.77 255.04
  A 0.64 0.63 17.1 0 0 105.38 254.31
  Q 104.91 254.12 104.20 254.25
  L 106.01 250.69
  Q 106.25 250.20 106.75 250.42
  Q 115.04 254.10 124.03 255.40
  Q 124.73 255.51 124.18 255.95
  C 121.65 258.03 120.45 259.22 122.57 262.46
  Z"
/>
<path fill="#b96742" d="
  M 143.52 262.13
  C 141.09 263.27 136.23 265.12 134.51 263.14
  Q 134.17 262.74 133.65 262.73
  Q 133.01 262.71 132.54 263.00
  Q 132.63 259.23 130.76 256.11
  A 0.31 0.31 0.0 0 1 130.97 255.64
  L 142.12 253.59
  A 0.69 0.69 0.0 0 1 142.92 254.41
  Q 142.09 258.32 143.52 262.13
  Z"
/>
<path fill="#fdfeff" d="
  M 104.20 254.25
  Q 104.91 254.12 105.38 254.31
  A 0.64 0.63 17.1 0 1 105.77 255.04
  C 105.35 257.00 108.53 258.75 109.85 259.77
  Q 110.23 260.07 110.72 259.98
  Q 111.59 259.82 112.15 260.52
  Q 112.46 260.90 112.94 260.97
  L 122.57 262.46
  C 125.36 264.91 128.94 263.53 129.89 259.99
  L 130.51 260.01
  Q 131.16 269.03 123.05 272.37
  Q 122.53 272.58 122.14 272.17
  Q 114.49 264.03 103.51 261.49
  Q 102.97 261.37 103.06 260.83
  L 104.20 254.25
  Z"
/>
<path fill="#707998" d="
  M 130.51 260.01
  L 129.89 259.99
  L 127.71 256.30
  Q 127.46 255.88 127.92 255.74
  Q 128.17 255.67 128.43 255.71
  Q 128.68 255.76 128.88 256.01
  Q 130.28 257.74 130.51 260.01
  Z"
/>
<path fill="#f18c57" d="
  M 143.52 262.13
  Q 146.10 267.99 151.79 270.54
  A 0.76 0.75 19.0 0 1 152.22 271.41
  L 150.46 279.00
  Q 150.37 279.42 149.94 279.39
  Q 139.50 278.76 129.44 281.52
  Q 128.87 281.68 128.56 281.19
  L 124.04 274.24
  A 0.59 0.59 0.0 0 1 124.27 273.38
  Q 130.78 270.14 132.54 263.00
  Q 133.01 262.71 133.65 262.73
  Q 134.17 262.74 134.51 263.14
  C 136.23 265.12 141.09 263.27 143.52 262.13
  Z"
/>
<path fill="#000000" d="
  M 184.12 288.96
  C 177.24 299.03 161.46 300.94 159.41 285.65
  Q 159.89 274.07 167.98 267.69
  C 176.07 261.30 187.45 263.70 188.11 275.18
  Q 188.54 282.55 184.12 288.96
  Z"
/>
<path fill="#f18c57" d="
  M 166.6654 294.7312
  A 15.97 11.53 117.3 0 1 163.7442 275.2518
  A 15.97 11.53 117.3 0 1 181.3146 266.3488
  A 15.97 11.53 117.3 0 1 184.2358 285.8282
  A 15.97 11.53 117.3 0 1 166.6654 294.7312
  Z"
/>
<path fill="#000000" d="
  M 122.79 291.00
  C 126.40 310.25 107.62 305.44 99.89 297.39
  C 94.31 290.94 88.70 274.70 101.13 272.40
  C 111.51 270.49 120.46 282.11 122.79 291.00
  Z"
/>
<path stroke="#d57a4d" stroke-width="2.00" fill="none" stroke-linecap="butt" vector-effect="non-scaling-stroke" d="
  M 121.29 292.36
  L 103.36 298.45"
/>
<path fill="#f18c57" d="
  M 121.29 292.36
  L 103.36 298.45
  Q 96.31 292.65 95.54 283.29
  C 95.01 276.84 98.23 271.76 105.43 274.03
  Q 118.75 278.22 121.29 292.36
  Z"
/>
<path fill="#fdfeff" d="
  M 294.82 316.69
  Q 294.46 316.61 294.56 316.25
  Q 299.69 297.96 303.09 279.27
  A 1.81 1.80 -87.9 0 1 304.68 277.79
  Q 327.08 275.52 347.93 283.94
  Q 351.75 285.48 354.72 286.44
  Q 356.26 286.93 355.90 288.51
  Q 350.88 310.55 350.60 333.18
  A 0.72 0.72 0.0 0 1 349.55 333.81
  Q 331.32 324.43 311.19 320.29
  Q 303.17 318.64 294.82 316.69
  Z"
/>
<path fill="#6c5339" d="
  M 152.28 282.66
  Q 155.86 283.26 159.41 285.65
  C 161.46 300.94 177.24 299.03 184.12 288.96
  Q 184.30 289.54 184.87 289.82
  Q 185.35 290.07 185.74 289.70
  Q 189.69 286.04 195.34 287.29
  Q 195.86 287.40 196.34 287.16
  Q 198.98 285.83 201.96 286.50
  C 199.04 292.52 189.74 309.06 183.24 310.91
  C 175.26 313.19 162.70 312.57 157.14 305.48
  Q 156.82 305.07 156.42 305.41
  Q 155.23 306.43 154.20 307.42
  Q 145.15 316.16 133.89 310.06
  A 0.88 0.88 0.0 0 0 132.80 310.27
  C 126.55 317.61 120.46 323.13 110.50 317.23
  Q 98.84 310.33 91.31 298.77
  L 94.24 297.15
  A 0.93 0.92 49.4 0 1 95.25 297.23
  Q 97.95 299.28 99.89 297.39
  C 107.62 305.44 126.40 310.25 122.79 291.00
  C 125.73 291.03 124.13 286.56 128.94 286.51
  L 130.09 294.28
  Q 130.19 294.97 130.65 294.45
  C 132.27 292.60 130.34 286.06 129.71 283.77
  Q 129.55 283.16 130.15 282.96
  Q 139.62 279.90 149.56 280.96
  A 1.10 1.09 4.9 0 1 150.54 282.12
  C 150.39 284.47 150.04 292.26 152.19 293.90
  A 0.49 0.49 0.0 0 0 152.95 293.37
  Q 151.35 288.30 152.28 282.66
  Z"
/>
<path fill="#b96742" d="
  M 121.29 292.36
  C 124.22 306.81 109.85 303.78 103.36 298.45
  L 121.29 292.36
  Z"
/>
<path fill="#b96742" d="
  M 182.84 316.67
  Q 180.86 316.82 179.00 318.10
  A 1.35 1.31 -58.0 0 1 178.06 318.33
  C 175.66 317.98 173.57 317.73 171.15 318.50
  C 161.03 321.72 149.46 322.72 136.18 324.17
  Q 130.19 324.83 125.20 323.98
  Q 124.73 323.90 124.36 324.21
  L 123.63 324.80
  Q 123.18 325.17 122.67 324.89
  Q 121.24 324.10 120.01 325.24
  L 117.88 321.82
  Q 117.49 321.20 118.23 321.16
  Q 128.11 320.70 132.93 312.14
  A 0.79 0.78 -67.9 0 1 133.81 311.76
  C 135.45 312.17 137.23 313.25 138.57 313.57
  Q 149.10 316.13 156.31 308.05
  Q 156.65 307.67 157.06 307.96
  Q 169.18 316.61 183.78 312.62
  Q 184.32 312.47 184.13 313.00
  L 182.84 316.67
  Z"
/>
<path fill="#f18c57" d="
  M 182.84 316.67
  L 182.26 323.81
  A 1.08 1.05 -15.4 0 1 181.80 324.60
  C 176.94 327.89 168.93 329.49 163.18 330.39
  Q 155.64 331.57 136.73 331.77
  L 136.30 330.00
  Q 136.18 329.51 135.75 329.26
  Q 134.37 328.47 133.76 327.08
  A 0.89 0.88 37.5 0 0 132.07 327.30
  L 131.44 331.57
  L 122.80 330.57
  Q 122.29 330.51 122.00 330.08
  Q 120.53 327.90 120.01 325.24
  Q 121.24 324.10 122.67 324.89
  Q 123.18 325.17 123.63 324.80
  L 124.36 324.21
  Q 124.73 323.90 125.20 323.98
  Q 130.19 324.83 136.18 324.17
  C 149.46 322.72 161.03 321.72 171.15 318.50
  C 173.57 317.73 175.66 317.98 178.06 318.33
  A 1.35 1.31 -58.0 0 0 179.00 318.10
  Q 180.86 316.82 182.84 316.67
  Z"
/>
<path fill="#f18c57" d="
  M 302.00 319.96
  L 297.33 334.70
  Q 297.18 335.17 297.24 335.67
  Q 297.40 336.99 297.00 338.25
  Q 294.40 346.46 291.67 354.68
  Q 291.49 355.20 290.95 355.21
  Q 290.10 355.22 289.46 355.75
  C 283.04 350.85 284.33 345.96 287.06 338.79
  Q 290.75 329.11 293.55 319.00
  A 1.07 1.07 0.0 0 1 294.83 318.24
  L 302.00 319.96
  Z"
/>
<path fill="#f7c399" d="
  M 302.00 319.96
  L 308.57 321.37
  Q 305.92 329.13 304.23 337.52
  C 303.85 339.37 304.65 340.81 304.16 342.80
  Q 302.80 348.31 301.32 353.82
  Q 301.19 354.29 300.82 354.62
  C 299.10 356.12 299.99 358.00 299.36 359.60
  Q 298.67 361.34 297.50 362.79
  L 289.46 355.75
  Q 290.10 355.22 290.95 355.21
  Q 291.49 355.20 291.67 354.68
  Q 294.40 346.46 297.00 338.25
  Q 297.40 336.99 297.24 335.67
  Q 297.18 335.17 297.33 334.70
  L 302.00 319.96
  Z"
/>
<path fill="#f18c57" d="
  M 308.57 321.37
  Q 329.99 325.83 349.04 335.50
  Q 348.15 336.01 348.00 336.74
  Q 347.45 339.39 346.65 341.57
  Q 345.65 344.27 345.66 346.22
  Q 345.66 349.60 346.07 353.02
  A 1.76 1.72 -36.2 0 1 345.91 353.98
  Q 342.18 361.87 334.53 365.33
  Q 329.91 367.42 328.77 368.30
  Q 324.38 371.72 321.87 377.02
  Q 308.78 371.71 297.50 362.79
  Q 298.67 361.34 299.36 359.60
  C 299.99 358.00 299.10 356.12 300.82 354.62
  Q 301.19 354.29 301.32 353.82
  Q 302.80 348.31 304.16 342.80
  C 304.65 340.81 303.85 339.37 304.23 337.52
  Q 305.92 329.13 308.57 321.37
  Z"
/>
<path fill="#a7a6ad" d="
  M 286.50 355.46
  Q 285.52 355.66 285.63 356.79
  Q 285.68 357.28 286.02 357.62
  Q 286.68 358.28 285.44 359.26
  Q 285.18 359.47 284.91 359.27
  L 284.46 358.94
  Q 284.04 358.63 283.53 358.71
  C 276.71 359.78 273.93 360.00 268.39 356.79
  Q 267.83 356.47 267.44 356.56
  Q 266.83 356.71 266.75 357.46
  C 259.91 352.78 254.58 347.79 246.46 344.96
  A 1.92 1.89 -89.5 0 1 245.27 343.73
  C 244.25 340.41 243.83 337.15 242.44 333.90
  Q 240.51 329.38 239.34 324.77
  Q 239.04 323.61 240.23 323.81
  C 248.80 325.22 256.93 326.67 265.21 329.86
  Q 275.25 333.73 285.16 337.70
  Q 286.24 338.13 285.73 339.17
  C 284.29 342.13 280.91 349.69 283.59 352.42
  Q 285.06 353.91 286.50 355.46
  Z"
/>
<path fill="#e3e3e3" d="
  M 227.71 359.51
  Q 226.25 358.87 226.15 356.91
  Q 226.12 356.25 225.53 356.53
  C 220.27 359.01 213.45 362.47 208.97 360.89
  C 207.31 360.31 206.02 358.65 204.32 357.68
  Q 203.90 357.44 203.81 356.96
  C 202.67 351.26 196.38 345.63 190.92 350.68
  Q 190.54 351.03 190.13 350.72
  L 189.25 350.06
  Q 192.01 347.26 190.98 344.82
  Q 188.63 339.21 186.23 333.63
  A 0.59 0.59 0.0 0 1 186.63 332.83
  C 192.53 331.34 198.56 330.78 204.46 329.32
  C 214.76 326.77 225.46 326.05 235.90 324.00
  A 1.47 1.46 -23.8 0 1 237.36 324.56
  C 241.59 330.24 242.51 336.12 243.64 344.24
  Q 243.71 344.72 243.35 345.05
  L 227.71 359.51
  Z"
/>
<path fill="#fdfeff" d="
  M 124.99 347.09
  Q 124.70 346.99 124.66 346.69
  L 122.83 332.09
  Q 122.78 331.69 123.17 331.76
  C 141.01 334.99 165.18 334.29 181.71 326.68
  Q 182.17 326.47 182.31 326.96
  L 185.91 338.79
  Q 186.05 339.25 185.62 339.46
  Q 159.57 351.88 130.76 348.46
  Q 127.88 348.12 124.99 347.09
  Z"
/>
<path fill="#f7c399" d="
  M 136.73 331.77
  L 131.44 331.57
  L 132.07 327.30
  A 0.89 0.88 37.5 0 1 133.76 327.08
  Q 134.37 328.47 135.75 329.26
  Q 136.18 329.51 136.30 330.00
  L 136.73 331.77
  Z"
/>
<path fill="#000000" d="
  M 272.42 345.72
  C 267.88 346.03 247.29 339.34 253.98 332.05
  Q 254.28 331.73 254.71 331.73
  C 262.23 331.71 268.02 335.00 274.12 339.27
  C 277.05 341.31 276.31 345.45 272.42 345.72
  Z"
/>
<path fill="#707998" d="
  M 257.44 340.31
  C 255.67 339.44 252.69 334.96 255.28 332.73
  Q 255.65 332.41 256.12 332.52
  Q 265.04 334.73 272.68 339.77
  Q 275.77 341.80 272.35 343.71
  A 1.63 1.54 30.2 0 1 271.50 343.91
  Q 264.11 343.60 257.44 340.31
  Z"
/>
<path fill="#f7c399" d="
  M 349.04 335.50
  L 349.62 335.54
  Q 350.20 335.58 350.18 336.17
  C 349.59 350.51 351.52 364.88 352.92 379.13
  C 353.13 381.31 352.44 382.30 350.18 382.27
  Q 335.74 382.05 321.87 377.02
  Q 324.38 371.72 328.77 368.30
  Q 329.91 367.42 334.53 365.33
  Q 342.18 361.87 345.91 353.98
  A 1.76 1.72 -36.2 0 0 346.07 353.02
  Q 345.66 349.60 345.66 346.22
  Q 345.65 344.27 346.65 341.57
  Q 347.45 339.39 348.00 336.74
  Q 348.15 336.01 349.04 335.50
  Z"
/>
<path fill="#f18c57" d="
  M 139.15 369.49
  Q 137.85 360.27 138.75 350.79
  Q 163.84 351.90 186.33 340.88
  Q 186.71 340.70 186.99 341.02
  Q 191.51 346.27 186.46 350.19
  Q 166.66 365.57 139.15 369.49
  Z"
/>
<path fill="#c4c9d7" d="
  M 260.73 409.08
  Q 254.16 408.96 247.93 405.71
  C 245.14 404.26 242.36 403.87 239.53 402.49
  A 1.25 1.22 48.7 0 0 238.61 402.42
  Q 233.22 404.09 228.59 407.18
  C 227.27 408.06 225.86 408.34 224.48 409.42
  A 0.74 0.74 0.0 0 1 223.45 409.31
  Q 221.84 407.33 222.29 404.76
  A 0.98 0.98 0.0 0 0 222.09 403.97
  Q 221.31 403.01 220.29 403.50
  C 221.54 397.83 218.24 397.44 213.54 395.92
  Q 206.79 393.74 200.06 392.27
  A 0.71 0.71 0.0 0 1 199.70 391.08
  Q 205.15 385.40 210.30 379.55
  C 215.05 374.15 221.20 368.97 225.53 364.44
  C 231.63 358.04 237.41 351.89 244.35 346.38
  Q 244.72 346.10 245.15 346.25
  Q 254.08 349.44 259.39 353.63
  Q 265.28 358.29 267.83 359.60
  C 272.48 361.98 276.00 364.47 280.31 368.33
  Q 290.85 377.78 303.97 385.26
  Q 307.16 387.09 310.16 390.20
  Q 310.49 390.54 310.61 391.00
  L 312.43 398.02
  A 0.96 0.95 -14.1 0 1 311.73 399.18
  L 286.66 405.29
  Q 286.23 405.40 285.81 405.28
  Q 280.55 403.84 276.30 400.47
  A 1.24 1.23 59.0 0 0 275.31 400.22
  Q 267.95 401.63 261.72 405.59
  C 260.21 406.55 260.52 407.50 260.73 409.08
  Z"
/>
<path fill="#c4c9d7" d="
  M 227.71 359.51
  Q 206.00 382.39 197.64 390.88
  Q 190.83 397.80 181.81 402.15
  C 179.13 403.44 177.31 403.03 175.11 401.37
  Q 174.69 401.05 174.64 400.52
  L 174.14 394.59
  A 0.98 0.97 9.2 0 0 173.55 393.78
  L 160.89 388.40
  Q 160.09 381.79 163.12 376.77
  A 0.57 0.49 62.9 0 0 163.20 376.45
  L 162.90 370.61
  A 0.94 0.74 38.0 0 0 162.83 370.33
  L 160.90 365.87
  Q 176.54 360.26 189.25 350.06
  L 190.13 350.72
  Q 190.54 351.03 190.92 350.68
  C 196.38 345.63 202.67 351.26 203.81 356.96
  Q 203.90 357.44 204.32 357.68
  C 206.02 358.65 207.31 360.31 208.97 360.89
  C 213.45 362.47 220.27 359.01 225.53 356.53
  Q 226.12 356.25 226.15 356.91
  Q 226.25 358.87 227.71 359.51
  Z"
/>
<path fill="#f18c57" d="
  M 133.68 350.31
  L 132.41 370.32
  C 129.06 370.94 122.56 370.39 123.09 365.51
  Q 123.97 357.38 124.31 349.22
  Q 124.33 348.69 124.85 348.78
  L 133.68 350.31
  Z"
/>
<path fill="#f7c399" d="
  M 133.68 350.31
  L 138.75 350.79
  Q 137.85 360.27 139.15 369.49
  L 132.41 370.32
  L 133.68 350.31
  Z"
/>
<path fill="#e3e3e3" d="
  M 160.90 365.87
  L 162.83 370.33
  A 0.94 0.74 38.0 0 1 162.90 370.61
  L 163.20 376.45
  A 0.57 0.49 62.9 0 1 163.12 376.77
  Q 160.09 381.79 160.89 388.40
  Q 157.12 387.09 154.19 389.18
  Q 148.83 393.00 143.22 396.49
  C 139.74 398.65 137.32 402.92 133.17 403.84
  Q 126.72 405.27 120.26 406.57
  C 113.72 407.88 108.90 403.13 103.09 402.06
  A 1.16 1.16 0.0 0 1 102.41 400.17
  Q 105.96 395.96 108.00 390.87
  Q 108.19 390.41 107.83 390.06
  C 102.51 384.96 99.28 386.81 92.69 386.84
  Q 91.99 386.85 92.40 386.28
  C 95.36 382.28 99.54 378.44 102.22 375.27
  C 107.96 368.47 114.82 360.00 121.74 354.49
  Q 122.29 354.05 122.23 354.75
  Q 121.78 360.60 121.07 366.32
  C 119.58 378.39 155.75 367.65 160.90 365.87
  Z"
/>
<path fill="#c4c9d7" d="
  M 286.50 355.46
  C 301.48 370.64 320.40 381.34 341.75 383.79
  C 342.25 387.33 338.18 386.23 337.76 389.50
  Q 337.04 395.04 334.98 400.25
  Q 334.62 401.17 335.39 403.01
  Q 335.58 403.48 335.96 403.82
  L 338.22 405.88
  Q 338.34 405.98 338.22 406.08
  L 337.92 406.34
  Q 337.68 406.55 337.83 406.83
  Q 338.29 407.68 337.70 408.70
  L 314.83 399.15
  A 1.15 1.11 -89.1 0 1 314.20 398.48
  C 311.80 391.82 311.41 387.93 304.99 383.97
  Q 289.38 374.36 279.90 365.85
  Q 277.14 363.36 271.04 360.79
  C 269.40 360.11 268.12 358.57 266.75 357.46
  Q 266.83 356.71 267.44 356.56
  Q 267.83 356.47 268.39 356.79
  C 273.93 360.00 276.71 359.78 283.53 358.71
  Q 284.04 358.63 284.46 358.94
  L 284.91 359.27
  Q 285.18 359.47 285.44 359.26
  Q 286.68 358.28 286.02 357.62
  Q 285.68 357.28 285.63 356.79
  Q 285.52 355.66 286.50 355.46
  Z"
/>
<path fill="#000000" d="
  M 173.67 379.21
  A 1.42 1.41 21.9 0 1 172.86 377.32
  C 174.11 374.45 175.70 372.03 178.23 370.08
  C 181.45 367.60 190.53 362.14 194.72 364.79
  A 0.67 0.66 -61.7 0 1 194.97 365.64
  Q 193.06 369.74 191.14 373.76
  C 187.99 380.35 180.10 381.61 173.67 379.21
  Z"
/>
<path fill="#707998" d="
  M 175.94 378.58
  A 1.02 1.02 0.0 0 1 175.21 377.26
  C 177.24 371.40 184.90 365.12 191.37 365.52
  A 1.29 1.29 0.0 0 1 192.50 367.27
  C 189.66 374.77 185.07 380.81 175.94 378.58
  Z"
/>
<path fill="#a7a6ad" d="
  M 234.4000 377.0696
  A 1.96 1.28 8.2 0 1 232.2774 378.0569
  A 1.96 1.28 8.2 0 1 230.5200 376.5104
  A 1.96 1.28 8.2 0 1 232.6426 375.5231
  A 1.96 1.28 8.2 0 1 234.4000 377.0696
  Z"
/>
<path fill="#a7a6ad" d="
  M 337.70 408.70
  Q 338.29 407.68 337.83 406.83
  Q 337.68 406.55 337.92 406.34
  L 338.22 406.08
  Q 338.34 405.98 338.22 405.88
  L 335.96 403.82
  Q 335.58 403.48 335.39 403.01
  Q 334.62 401.17 334.98 400.25
  Q 337.04 395.04 337.76 389.50
  C 338.18 386.23 342.25 387.33 341.75 383.79
  C 346.70 383.82 353.61 385.87 354.89 380.15
  Q 355.02 379.60 355.45 379.96
  Q 366.30 388.74 376.18 398.53
  C 380.72 403.03 384.57 408.61 388.93 413.77
  A 0.44 0.44 0.0 0 1 388.71 414.48
  C 382.21 416.29 376.25 415.48 370.30 412.34
  Q 368.04 411.14 365.00 411.21
  Q 356.15 411.41 347.30 411.75
  C 344.02 411.87 340.83 409.68 337.70 408.70
  Z"
/>
<path fill="#526184" d="
  M 128.92 447.60
  C 121.96 451.14 115.35 447.32 108.80 445.12
  C 105.97 444.17 103.18 444.32 100.26 444.49
  A 0.94 0.93 71.8 0 1 99.40 444.05
  Q 98.01 441.82 95.29 442.75
  Q 92.16 436.94 89.15 431.05
  C 85.50 423.92 82.51 414.67 78.21 406.75
  Q 77.97 406.31 78.14 405.84
  C 80.26 399.91 85.30 394.72 89.17 389.94
  A 3.04 3.03 15.6 0 1 91.13 388.84
  C 95.69 388.24 102.71 386.83 106.03 391.09
  A 0.88 0.88 0.0 0 1 106.07 392.12
  L 100.18 400.87
  A 1.07 1.07 0.0 0 0 100.10 401.94
  Q 103.31 408.55 105.90 415.13
  C 108.77 422.44 113.63 426.91 119.36 433.14
  Q 124.00 438.19 128.92 447.60
  Z"
/>
<path fill="#526184" d="
  M 334.84 409.21
  Q 327.57 427.49 315.88 443.00
  C 311.07 449.38 311.10 455.76 312.65 463.01
  A 1.18 1.16 -28.8 0 1 312.32 464.10
  L 307.22 469.05
  Q 306.82 469.44 306.28 469.53
  C 300.91 470.45 295.43 473.74 289.96 470.39
  Q 289.50 470.11 288.97 470.18
  L 281.61 471.23
  A 0.95 0.94 63.7 0 1 280.82 470.96
  C 275.35 465.48 270.31 468.55 263.49 468.66
  Q 261.27 468.70 259.25 469.61
  Q 258.77 469.82 258.26 469.69
  L 248.57 467.19
  L 249.79 456.74
  Q 249.91 455.71 249.59 456.70
  Q 247.88 461.92 246.96 468.00
  L 244.97 467.32
  Q 244.55 467.18 244.30 467.55
  Q 243.37 468.88 240.99 468.66
  Q 239.01 468.48 232.98 469.93
  Q 232.50 470.04 232.02 469.91
  Q 228.65 468.96 219.96 467.57
  Q 211.78 466.25 208.95 458.02
  C 207.68 454.31 203.50 453.07 200.86 451.11
  Q 197.34 448.49 193.36 446.60
  C 191.46 445.70 190.13 444.41 188.39 443.23
  Q 187.86 442.87 187.49 443.39
  Q 186.24 445.14 184.08 444.17
  Q 183.64 443.97 183.53 443.49
  Q 182.82 440.12 179.17 441.14
  Q 178.89 441.22 178.61 441.17
  L 172.28 440.04
  Q 171.73 439.94 171.73 440.50
  C 171.73 443.03 166.41 442.80 164.50 443.69
  Q 164.02 443.91 163.49 443.90
  Q 159.26 443.79 155.34 445.38
  Q 154.84 445.59 154.30 445.50
  C 147.77 444.44 150.49 453.85 141.59 452.10
  Q 136.80 451.16 133.46 454.22
  Q 128.51 443.51 121.69 433.66
  C 118.97 429.73 114.85 426.16 111.64 422.10
  C 107.64 417.04 105.50 410.89 103.23 404.77
  A 0.46 0.46 0.0 0 1 103.72 404.15
  C 106.82 404.60 109.33 406.58 111.93 407.30
  C 119.99 409.55 126.25 407.49 134.98 404.94
  C 138.59 403.89 141.74 399.61 145.18 397.42
  C 149.61 394.60 156.03 388.35 161.66 390.63
  Q 166.92 392.76 172.21 394.83
  A 0.82 0.81 8.9 0 1 172.72 395.52
  L 173.10 401.38
  Q 173.13 401.78 173.43 402.03
  Q 178.63 406.44 184.17 403.23
  Q 189.89 399.91 197.51 393.61
  A 1.12 1.10 33.5 0 1 198.55 393.41
  L 216.56 398.86
  Q 218.93 399.58 218.48 402.01
  C 217.65 406.53 215.10 414.49 216.27 418.72
  Q 218.53 426.84 221.45 434.57
  A 0.16 0.16 0.0 0 0 221.76 434.50
  Q 220.84 426.68 218.29 419.24
  A 0.37 0.36 -6.0 0 1 218.68 418.76
  Q 229.26 420.08 238.40 424.93
  C 239.15 425.32 240.52 425.37 241.17 425.14
  Q 251.33 421.49 261.51 417.92
  Q 262.01 417.75 262.10 418.27
  Q 263.06 424.29 263.25 430.32
  C 263.39 434.84 259.62 439.59 256.91 442.90
  C 255.00 445.23 253.75 447.59 252.32 450.06
  Q 252.23 450.21 252.27 450.34
  Q 252.34 450.55 252.46 450.36
  C 253.25 449.16 253.78 447.79 254.74 446.75
  C 258.01 443.20 265.22 436.12 264.60 430.53
  Q 263.35 419.35 262.20 407.97
  A 1.55 1.55 0.0 0 1 263.15 406.38
  Q 268.85 404.03 274.06 402.03
  C 275.63 401.42 276.91 403.00 277.98 403.72
  C 281.36 405.99 285.06 407.78 289.27 406.59
  Q 301.28 403.19 313.48 400.70
  A 1.63 1.58 49.7 0 1 314.42 400.79
  L 334.84 409.21
  Z"
/>
<path fill="#e3e3e3" d="
  M 260.73 409.08
  Q 261.70 411.13 261.46 414.80
  Q 261.43 415.30 261.03 415.61
  C 260.15 416.28 259.35 416.98 258.28 417.38
  Q 249.23 420.72 240.04 423.72
  A 1.29 1.28 -41.9 0 1 239.10 423.67
  Q 229.79 419.48 221.26 417.79
  Q 219.60 417.46 218.48 416.87
  Q 218.02 416.62 218.04 416.10
  Q 218.32 409.60 220.29 403.50
  Q 221.31 403.01 222.09 403.97
  A 0.98 0.98 0.0 0 1 222.29 404.76
  Q 221.84 407.33 223.45 409.31
  A 0.74 0.74 0.0 0 0 224.48 409.42
  C 225.86 408.34 227.27 408.06 228.59 407.18
  Q 233.22 404.09 238.61 402.42
  A 1.25 1.22 48.7 0 1 239.53 402.49
  C 242.36 403.87 245.14 404.26 247.93 405.71
  Q 254.16 408.96 260.73 409.08
  Z"
/>
<path fill="#707998" d="
  M 334.84 409.21
  L 344.67 413.60
  Q 345.14 413.80 345.65 413.75
  L 353.75 412.96
  Q 354.49 412.78 354.82 413.10
  Q 355.07 413.35 354.90 413.94
  Q 353.08 420.43 350.38 426.65
  Q 350.18 427.11 350.33 427.59
  C 351.14 430.11 355.91 434.41 353.39 436.80
  A 1.60 1.60 0.0 0 0 353.90 439.44
  Q 356.22 440.37 357.27 442.49
  Q 357.48 442.91 357.87 443.19
  C 360.28 444.88 360.60 448.59 364.45 447.67
  A 1.22 1.22 0.0 0 1 365.38 447.84
  C 368.29 449.74 370.13 447.71 372.34 449.02
  Q 358.77 468.31 344.46 487.07
  C 342.04 490.23 338.60 491.57 335.00 492.02
  Q 315.22 494.46 295.63 498.13
  C 292.34 498.75 287.76 498.76 284.39 498.31
  C 259.13 494.96 234.97 491.35 208.41 490.46
  C 199.70 490.17 191.89 495.95 184.51 496.75
  C 178.54 497.41 174.14 498.18 168.66 496.39
  Q 159.37 493.36 149.80 491.36
  Q 149.32 491.26 148.97 490.91
  Q 146.11 488.04 144.18 484.53
  C 142.29 481.10 143.33 473.09 143.19 469.02
  Q 143.18 468.52 142.89 468.10
  L 133.46 454.22
  Q 136.80 451.16 141.59 452.10
  C 150.49 453.85 147.77 444.44 154.30 445.50
  Q 154.84 445.59 155.34 445.38
  Q 159.26 443.79 163.49 443.90
  Q 164.02 443.91 164.50 443.69
  C 166.41 442.80 171.73 443.03 171.73 440.50
  Q 171.73 439.94 172.28 440.04
  L 178.61 441.17
  Q 178.89 441.22 179.17 441.14
  Q 182.82 440.12 183.53 443.49
  Q 183.64 443.97 184.08 444.17
  Q 186.24 445.14 187.49 443.39
  Q 187.86 442.87 188.39 443.23
  C 190.13 444.41 191.46 445.70 193.36 446.60
  Q 197.34 448.49 200.86 451.11
  C 203.50 453.07 207.68 454.31 208.95 458.02
  Q 211.78 466.25 219.96 467.57
  Q 228.65 468.96 232.02 469.91
  Q 232.50 470.04 232.98 469.93
  Q 239.01 468.48 240.99 468.66
  Q 243.37 468.88 244.30 467.55
  Q 244.55 467.18 244.97 467.32
  L 246.96 468.00
  L 247.05 476.68
  Q 247.06 477.24 247.53 476.95
  Q 248.04 476.64 248.05 476.25
  Q 248.19 471.78 248.57 467.19
  L 258.26 469.69
  Q 258.77 469.82 259.25 469.61
  Q 261.27 468.70 263.49 468.66
  C 270.31 468.55 275.35 465.48 280.82 470.96
  A 0.95 0.94 63.7 0 0 281.61 471.23
  L 288.97 470.18
  Q 289.50 470.11 289.96 470.39
  C 295.43 473.74 300.91 470.45 306.28 469.53
  Q 306.82 469.44 307.22 469.05
  L 312.32 464.10
  A 1.18 1.16 -28.8 0 0 312.65 463.01
  C 311.10 455.76 311.07 449.38 315.88 443.00
  Q 327.57 427.49 334.84 409.21
  Z"
/>
<path fill="#526184" d="
  M 372.34 449.02
  C 370.13 447.71 368.29 449.74 365.38 447.84
  A 1.22 1.22 0.0 0 0 364.45 447.67
  C 360.60 448.59 360.28 444.88 357.87 443.19
  Q 357.48 442.91 357.27 442.49
  Q 356.22 440.37 353.90 439.44
  A 1.60 1.60 0.0 0 1 353.39 436.80
  C 355.91 434.41 351.14 430.11 350.33 427.59
  Q 350.18 427.11 350.38 426.65
  Q 353.08 420.43 354.90 413.94
  Q 355.07 413.35 354.82 413.10
  Q 354.49 412.78 353.75 412.96
  C 358.14 412.64 365.61 411.81 369.54 413.97
  Q 378.57 418.94 388.92 415.62
  Q 389.42 415.46 389.59 415.95
  C 391.80 422.08 384.95 431.18 381.27 435.97
  C 377.96 440.30 375.43 444.71 372.34 449.02
  Z"
/>
<path fill="#707998" d="
  M 128.92 447.60
  Q 135.19 457.43 140.85 468.19
  C 142.71 471.74 141.59 479.47 141.73 483.70
  A 0.69 0.68 27.4 0 0 141.86 484.10
  L 146.74 490.81
  Q 147.01 491.18 146.56 491.27
  Q 140.20 492.41 136.07 488.94
  C 116.37 472.43 103.90 463.25 95.29 442.75
  Q 98.01 441.82 99.40 444.05
  A 0.94 0.93 71.8 0 0 100.26 444.49
  C 103.18 444.32 105.97 444.17 108.80 445.12
  C 115.35 447.32 121.96 451.14 128.92 447.60
  Z"
/>
<path fill="#000000" d="
  M 248.57 467.19
  Q 248.19 471.78 248.05 476.25
  Q 248.04 476.64 247.53 476.95
  Q 247.06 477.24 247.05 476.68
  L 246.96 468.00
  Q 247.88 461.92 249.59 456.70
  Q 249.91 455.71 249.79 456.74
  L 248.57 467.19
  Z"
/>
</svg>
