<?xml version="1.0" encoding="UTF-8" standalone="no"?>
<svg xmlns="http://www.w3.org/2000/svg" version="1.2" baseProfile="tiny" viewBox="0.00 0.00 500.00 500.00">
<path fill="#010101" d="
  M 147.91 147.78
  L 147.17 146.23
  Q 146.58 144.98 145.59 145.94
  C 135.59 155.63 124.29 161.24 110.11 166.47
  A 1.33 1.32 2.1 0 0 109.35 167.17
  C 108.45 169.08 108.65 171.80 108.14 173.50
  Q 106.81 177.87 105.59 181.67
  C 98.67 194.44 89.03 204.56 83.72 216.63
  Q 79.59 224.65 82.42 232.80
  Q 95.77 257.10 123.75 255.51
  Q 141.62 254.49 157.02 244.07
  C 165.80 238.14 174.64 224.62 167.34 214.43
  C 161.23 205.91 154.25 199.02 150.94 187.27
  Q 149.77 183.11 148.19 173.51
  Q 148.00 168.51 147.81 163.53
  C 147.64 159.19 146.15 154.08 147.96 148.68
  C 147.56 164.02 148.63 184.93 156.82 198.35
  A 1.60 1.57 -15.4 0 0 158.18 199.11
  L 177.86 199.09
  A 0.96 0.95 19.7 0 1 178.60 200.65
  L 170.39 210.65
  A 1.11 1.11 0.0 0 0 171.05 212.45
  Q 186.58 215.33 201.71 220.00
  A 1.31 1.27 -2.2 0 1 202.53 220.74
  Q 203.16 222.25 201.33 223.11
  Q 194.33 226.41 187.36 228.96
  A 1.04 1.04 0.0 0 0 187.37 230.92
  C 198.61 234.91 212.22 239.19 224.18 239.49
  Q 226.59 239.55 229.10 238.47
  Q 242.83 232.55 257.53 228.65
  Q 258.62 228.36 258.83 229.47
  Q 258.86 229.64 258.18 230.15
  Q 251.74 234.99 244.25 238.80
  A 0.66 0.66 0.0 0 0 244.59 240.04
  Q 251.44 239.60 258.95 240.85
  Q 253.48 241.56 248.06 241.35
  C 244.70 241.23 242.46 239.69 238.87 242.15
  Q 238.29 242.54 238.30 241.84
  Q 238.31 241.19 239.04 240.76
  Q 247.29 235.84 252.43 232.74
  Q 259.19 228.66 251.73 231.25
  Q 240.71 235.07 228.50 239.76
  C 224.99 241.11 219.27 238.14 218.77 244.25
  C 218.35 249.48 220.75 251.86 225.92 252.46
  Q 237.10 253.75 248.06 253.03
  A 0.44 0.44 0.0 0 0 248.13 252.17
  C 243.48 251.10 239.16 248.99 234.50 249.27
  A 0.43 0.43 0.0 0 1 234.36 248.43
  Q 247.58 244.91 260.05 242.99
  Q 250.32 246.34 240.66 247.54
  A 0.80 0.80 0.0 0 0 240.55 249.10
  L 251.33 252.02
  A 0.89 0.89 0.0 0 1 251.29 253.75
  C 240.29 256.13 229.32 253.09 218.37 252.85
  Q 215.30 252.79 211.26 252.41
  Q 190.90 250.50 170.88 246.77
  A 0.89 0.89 0.0 0 0 169.86 247.91
  L 175.11 264.94
  Q 175.27 265.46 175.70 265.79
  L 181.87 270.63
  Q 182.23 270.91 182.67 270.77
  Q 187.39 269.26 191.68 268.65
  C 198.96 267.61 208.86 266.08 217.16 266.28
  Q 241.46 266.86 264.86 273.57
  C 267.89 274.44 269.99 276.23 269.49 279.48
  Q 268.75 284.21 266.20 291.48
  Q 260.07 308.97 251.03 325.14
  Q 250.36 326.34 250.62 326.99
  Q 250.98 327.90 252.50 328.27
  Q 257.62 329.53 261.25 329.78
  C 263.16 329.92 264.48 328.66 265.83 327.98
  C 270.37 325.69 277.68 321.51 282.61 320.87
  A 1.10 1.10 0.0 0 1 283.52 322.75
  Q 279.43 326.74 274.51 329.73
  A 0.84 0.84 0.0 0 0 274.94 331.29
  C 287.06 331.33 300.20 330.94 311.74 327.40
  Q 330.78 321.56 347.34 310.55
  Q 352.06 307.42 360.73 299.86
  Q 381.85 281.42 406.07 267.26
  C 419.07 259.66 434.60 252.95 449.49 250.43
  C 461.35 248.43 476.49 246.40 490.09 248.29
  C 493.54 248.77 496.24 251.31 498.70 253.49
  Q 500.76 255.32 498.48 256.86
  C 496.02 258.52 493.72 260.38 490.58 260.48
  C 481.34 260.77 471.26 260.78 462.87 262.24
  Q 446.85 265.04 432.45 272.96
  C 417.16 281.38 400.20 290.41 387.44 302.41
  C 368.45 320.28 348.37 337.40 326.04 351.01
  C 309.30 361.21 288.74 368.22 269.46 370.71
  C 262.85 371.57 256.30 372.69 249.72 372.78
  Q 228.90 373.08 216.24 371.56
  Q 190.77 368.49 162.67 356.80
  C 157.08 354.48 156.08 351.81 149.30 352.97
  Q 148.80 353.05 148.71 353.56
  C 148.39 355.47 148.43 357.31 147.87 359.09
  Q 145.01 368.12 141.70 376.39
  A 1.49 1.49 0.0 0 0 143.48 378.38
  Q 155.04 375.18 166.04 371.61
  C 171.96 369.70 175.12 373.54 174.88 379.49
  C 174.22 395.87 168.74 407.03 158.70 420.13
  Q 150.87 430.34 140.69 438.39
  Q 154.53 424.76 164.99 409.45
  A 0.97 0.96 32.8 0 0 164.69 408.08
  Q 157.62 403.87 149.55 402.33
  A 0.73 0.73 0.0 0 0 148.83 402.62
  L 141.92 412.45
  A 1.51 1.47 3.1 0 1 141.38 412.92
  C 140.36 413.43 140.05 413.76 139.53 414.91
  Q 139.06 415.95 137.95 415.68
  C 142.89 410.10 150.97 400.08 152.52 392.80
  A 0.67 0.67 0.0 0 0 151.67 392.02
  C 137.93 396.07 123.54 396.48 108.26 395.85
  Q 102.13 395.60 98.43 394.71
  C 93.75 393.59 88.02 380.53 87.02 377.00
  C 79.78 351.27 86.00 325.27 96.46 301.46
  Q 96.66 300.99 96.56 300.50
  C 93.46 285.78 91.61 273.09 91.78 258.90
  A 1.12 1.12 0.0 0 0 90.12 257.90
  Q 77.86 264.67 64.79 269.70
  Q 64.25 269.90 64.03 269.37
  L 63.29 267.61
  A 1.14 1.13 58.7 0 0 61.51 267.17
  C 60.18 268.27 58.80 269.57 57.28 270.43
  C 42.50 278.84 28.44 289.43 19.08 303.86
  A 0.98 0.98 0.0 0 1 17.28 303.42
  C 16.84 298.84 19.27 293.63 20.91 289.48
  A 1.42 1.42 0.0 0 0 19.77 287.55
  L 1.50 285.22
  A 1.10 1.09 -87.5 0 1 0.55 284.18
  Q 0.47 282.41 2.25 282.79
  Q 2.11 283.75 2.84 283.91
  Q 10.25 285.52 22.17 286.93
  Q 22.69 286.99 22.53 287.49
  L 17.94 301.40
  A 0.63 0.63 0.0 0 0 19.06 301.96
  Q 26.81 290.76 38.07 282.22
  C 42.96 278.52 39.34 272.35 34.83 270.86
  A 2.37 2.36 -51.1 0 0 32.90 271.07
  C 23.76 276.50 14.09 275.35 4.06 273.59
  A 0.66 0.66 0.0 0 0 3.71 274.86
  Q 9.35 277.01 15.52 278.98
  C 18.27 279.85 20.15 279.16 22.70 278.27
  Q 23.17 278.10 23.16 278.60
  Q 23.15 278.81 22.99 279.02
  Q 22.80 279.27 22.34 279.40
  Q 14.38 281.68 6.27 283.41
  Q 5.79 283.51 5.31 283.36
  L 3.26 282.70
  L 13.90 281.14
  A 0.88 0.88 0.0 0 0 13.95 279.41
  Q 7.87 278.15 2.38 275.30
  A 1.30 1.29 88.2 0 1 1.86 274.81
  Q 0.97 273.32 2.44 272.80
  Q 2.90 272.64 3.60 272.74
  Q 13.38 274.10 23.22 273.73
  C 27.85 273.56 33.80 269.70 36.81 267.07
  Q 54.24 251.78 72.34 237.28
  C 74.00 235.94 76.23 234.80 78.04 233.26
  A 0.71 0.71 0.0 0 0 77.91 232.09
  Q 68.39 227.16 59.69 220.84
  A 1.64 1.63 51.5 0 1 60.01 218.01
  Q 72.07 212.93 84.76 209.70
  A 1.11 1.10 -12.6 0 0 85.57 208.43
  L 83.83 199.22
  A 1.51 1.50 -1.4 0 1 85.52 197.46
  L 92.76 198.48
  Q 93.55 198.59 94.01 197.94
  C 101.00 188.21 106.56 180.22 108.56 168.03
  A 1.10 1.10 0.0 0 0 107.21 166.79
  C 100.03 168.59 80.24 170.32 77.50 160.26
  C 75.14 151.62 79.21 141.20 84.44 134.48
  A 1.07 1.06 -48.3 0 0 84.36 133.09
  C 75.22 123.71 65.45 111.68 61.72 99.02
  C 61.03 96.71 61.75 95.01 63.40 93.20
  C 71.99 83.74 83.50 79.13 95.97 77.15
  C 96.95 76.99 98.13 76.32 98.59 75.61
  Q 103.32 68.36 110.55 63.76
  Q 106.76 67.70 102.72 71.34
  C 101.58 72.37 101.06 73.93 100.29 75.11
  Q 99.14 76.85 101.21 76.57
  Q 109.10 75.50 116.98 76.81
  A 1.51 1.50 6.4 0 0 118.73 75.42
  C 119.00 70.68 120.42 65.96 118.86 61.42
  A 1.90 1.90 0.0 0 0 116.08 60.41
  L 110.55 63.76
  L 117.34 58.48
  A 1.15 1.15 0.0 0 1 119.12 58.98
  C 121.09 64.08 120.34 70.75 119.55 75.92
  A 1.44 1.44 0.0 0 0 120.73 77.56
  Q 129.41 79.07 136.95 83.61
  A 1.42 1.42 0.0 0 0 138.55 83.52
  Q 148.06 76.16 159.64 72.65
  A 1.90 1.90 0.0 0 1 162.09 74.50
  Q 161.90 89.31 159.05 104.06
  Q 158.52 106.80 158.77 110.01
  Q 160.17 128.25 148.75 142.71
  A 1.43 1.39 -23.0 0 0 148.47 143.38
  L 147.91 147.78
  Z"
/>
<g stroke-width="2.00" fill="none" stroke-linecap="butt">
<path stroke="#736f6c" vector-effect="non-scaling-stroke" d="
  M 159.99 90.28
  Q 155.15 89.82 150.34 89.45
  C 146.28 89.14 142.40 86.43 138.91 84.42"
/>
<path stroke="#736f6c" vector-effect="non-scaling-stroke" d="
  M 128.48 92.85
  C 127.52 91.14 126.40 90.42 124.54 91.63
  Q 121.12 93.85 117.15 95.05
  A 1.18 1.18 0.0 0 1 116.51 95.05
  Q 115.13 94.66 114.15 95.46
  Q 113.74 95.80 113.21 95.88
  C 109.16 96.52 104.71 95.07 101.89 94.79
  Q 95.08 94.12 88.22 93.56
  Q 84.81 93.28 76.25 89.19
  A 1.29 1.27 -40.9 0 0 75.30 89.13
  Q 72.82 89.98 72.11 87.37"
/>
<path stroke="#c09d6b" vector-effect="non-scaling-stroke" d="
  M 82.33 163.07
  Q 81.35 163.13 80.91 164.20"
/>
<path stroke="#c08286" vector-effect="non-scaling-stroke" d="
  M 109.89 151.60
  Q 108.33 150.75 105.66 151.89
  Q 105.18 152.10 104.68 151.96
  Q 100.84 150.87 96.96 149.97
  C 92.98 149.05 88.09 149.37 83.48 147.60"
/>
<path stroke="#f6ae72" vector-effect="non-scaling-stroke" d="
  M 70.67 226.72
  Q 74.37 221.04 73.84 214.13"
/>
<path stroke="#f6ae72" vector-effect="non-scaling-stroke" d="
  M 187.61 217.15
  Q 186.91 220.70 188.70 222.79
  Q 189.02 223.16 188.99 223.64
  Q 188.89 225.37 189.56 227.07"
/>
<path stroke="#e2c85d" vector-effect="non-scaling-stroke" d="
  M 176.14 246.59
  L 181.11 234.30
  Q 181.29 233.86 181.15 233.41
  L 180.70 231.97"
/>
<path stroke="#f6ae72" vector-effect="non-scaling-stroke" d="
  M 171.85 258.27
  Q 162.58 258.66 154.69 262.82"
/>
<path stroke="#736f6c" vector-effect="non-scaling-stroke" d="
  M 495.32 252.17
  Q 494.61 255.01 495.86 257.14"
/>
<path stroke="#f6ae72" vector-effect="non-scaling-stroke" d="
  M 120.47 272.31
  C 113.37 271.59 111.78 264.54 103.09 269.23"
/>
<path stroke="#e2c85d" vector-effect="non-scaling-stroke" d="
  M 102.61 273.86
  L 93.63 276.81"
/>
<path stroke="#ffeb87" vector-effect="non-scaling-stroke" d="
  M 178.02 273.24
  C 170.29 284.63 159.71 293.69 170.41 308.02
  Q 172.52 310.83 175.42 311.79
  Q 182.42 314.10 189.89 309.60"
/>
<path stroke="#e2c85d" vector-effect="non-scaling-stroke" d="
  M 181.08 342.83
  Q 173.20 347.85 162.76 349.41"
/>
<path stroke="#ffeb87" vector-effect="non-scaling-stroke" d="
  M 97.96 349.32
  Q 98.64 347.88 98.50 346.34
  Q 98.45 345.85 98.71 345.42
  C 99.99 343.23 99.64 341.07 99.92 339.12
  Q 101.54 327.75 103.63 316.91
  A 1.32 1.31 -86.0 0 0 102.27 315.34
  L 99.13 315.51
  Q 98.60 315.54 98.39 316.02
  Q 93.03 328.37 91.12 341.70
  Q 90.94 342.95 88.98 343.25"
/>
<path stroke="#e2c85d" vector-effect="non-scaling-stroke" d="
  M 146.57 261.36
  C 140.44 264.72 134.57 264.57 128.53 267.18
  Q 127.90 267.45 127.99 266.77
  L 128.04 266.40
  Q 128.09 266.03 127.71 266.01
  L 126.98 265.95"
/>
<path stroke="#e2c85d" vector-effect="non-scaling-stroke" d="
  M 355.64 328.69
  Q 354.99 328.05 355.67 325.97
  Q 355.84 325.46 355.60 324.99
  C 354.48 322.72 352.85 322.62 350.64 323.64
  Q 346.23 325.67 341.26 325.13
  A 0.57 0.53 65.5 0 1 341.02 325.03
  L 338.37 323.01
  Q 338.07 322.77 337.98 322.40
  L 336.92 318.19"
/>
<path stroke="#ffeb87" vector-effect="non-scaling-stroke" d="
  M 257.10 272.70
  L 256.56 276.48
  A 0.88 0.86 28.2 0 0 256.79 277.20
  Q 258.34 278.80 258.78 280.97
  Q 258.90 281.56 258.30 281.69
  C 247.27 284.02 240.76 291.30 229.77 295.42
  C 227.38 296.32 224.88 295.98 222.93 298.73
  Q 222.63 299.16 222.11 299.19
  L 220.68 299.27"
/>
<path stroke="#f6ae72" vector-effect="non-scaling-stroke" d="
  M 210.84 301.92
  L 210.49 302.93
  Q 210.32 303.44 209.78 303.34
  C 205.10 302.43 202.24 304.26 197.92 305.27
  C 195.24 305.90 193.92 307.72 190.80 307.75"
/>
<path stroke="#f6ae72" vector-effect="non-scaling-stroke" d="
  M 97.64 350.73
  Q 96.52 353.15 96.76 355.66
  A 1.78 1.77 58.0 0 1 96.52 356.72
  Q 95.37 358.73 96.38 360.85
  Q 96.59 361.30 96.46 361.78
  Q 95.69 364.59 98.58 365.48"
/>
<path stroke="#f6ae72" vector-effect="non-scaling-stroke" d="
  M 97.50 376.25
  Q 97.11 372.45 99.44 368.69
  Q 99.92 367.91 98.91 367.39"
/>
<path stroke="#e2c85d" vector-effect="non-scaling-stroke" d="
  M 140.35 378.85
  C 138.65 382.34 130.29 385.30 126.75 385.98
  Q 123.39 386.63 120.23 388.08
  C 118.16 389.04 115.81 388.86 113.71 389.94
  Q 111.36 391.15 110.08 391.37
  C 107.73 391.77 104.62 391.39 103.74 394.29"
/>
<path stroke="#ac924e" vector-effect="non-scaling-stroke" d="
  M 135.78 393.79
  L 135.73 391.40
  A 0.86 0.85 -14.8 0 1 136.19 390.61
  Q 140.96 387.98 142.43 382.78
  Q 142.57 382.28 142.94 381.93
  Q 144.38 380.55 142.84 379.39"
/>
<path stroke="#ac924e" vector-effect="non-scaling-stroke" d="
  M 173.48 383.33
  L 167.71 377.34
  A 1.52 1.47 75.1 0 0 167.05 376.94
  C 165.59 376.53 162.15 375.97 162.48 373.93"
/>
</g>
<path fill="#605f5f" d="
  M 110.55 63.76
  L 116.08 60.41
  A 1.90 1.90 0.0 0 1 118.86 61.42
  C 120.42 65.96 119.00 70.68 118.73 75.42
  A 1.51 1.50 6.4 0 1 116.98 76.81
  Q 109.10 75.50 101.21 76.57
  Q 99.14 76.85 100.29 75.11
  C 101.06 73.93 101.58 72.37 102.72 71.34
  Q 106.76 67.70 110.55 63.76
  Z"
/>
<path fill="#857f79" d="
  M 159.99 90.28
  Q 155.15 89.82 150.34 89.45
  C 146.28 89.14 142.40 86.43 138.91 84.42
  Q 148.25 77.07 159.48 73.59
  A 1.16 1.15 79.9 0 1 160.97 74.64
  Q 161.35 82.22 159.99 90.28
  Z"
/>
<path fill="#857f79" d="
  M 128.48 92.85
  C 127.52 91.14 126.40 90.42 124.54 91.63
  Q 121.12 93.85 117.15 95.05
  A 1.18 1.18 0.0 0 1 116.51 95.05
  Q 115.13 94.66 114.15 95.46
  Q 113.74 95.80 113.21 95.88
  C 109.16 96.52 104.71 95.07 101.89 94.79
  Q 95.08 94.12 88.22 93.56
  Q 84.81 93.28 76.25 89.19
  A 1.29 1.27 -40.9 0 0 75.30 89.13
  Q 72.82 89.98 72.11 87.37
  C 79.39 82.12 87.62 79.70 96.68 78.06
  Q 116.30 74.52 135.52 83.65
  Q 137.27 84.48 135.87 85.82
  L 128.48 92.85
  Z"
/>
<path fill="#d7949b" d="
  M 99.8408 81.3589
  A 2.80 0.93 -14.5 0 1 97.3629 82.9604
  A 2.80 0.93 -14.5 0 1 94.4192 82.7611
  A 2.80 0.93 -14.5 0 1 96.8971 81.1596
  A 2.80 0.93 -14.5 0 1 99.8408 81.3589
  Z"
/>
<path fill="#605f5f" d="
  M 138.91 84.42
  C 142.40 86.43 146.28 89.14 150.34 89.45
  Q 155.15 89.82 159.99 90.28
  Q 159.29 101.40 156.31 111.87
  A 0.65 0.64 18.3 0 1 155.46 112.29
  Q 139.45 106.28 122.29 106.74
  A 1.19 1.18 -76.4 0 1 121.22 104.98
  Q 127.93 92.80 138.91 84.42
  Z"
/>
<path fill="#605f5f" d="
  M 72.11 87.37
  Q 72.82 89.98 75.30 89.13
  A 1.29 1.27 -40.9 0 1 76.25 89.19
  Q 84.81 93.28 88.22 93.56
  Q 95.08 94.12 101.89 94.79
  C 104.71 95.07 109.16 96.52 113.21 95.88
  Q 113.74 95.80 114.15 95.46
  Q 115.13 94.66 116.51 95.05
  A 1.18 1.18 0.0 0 0 117.15 95.05
  Q 121.12 93.85 124.54 91.63
  C 126.40 90.42 127.52 91.14 128.48 92.85
  C 120.23 102.35 113.69 113.56 118.53 126.61
  Q 118.75 127.20 118.19 126.92
  Q 116.62 126.12 115.24 125.02
  C 101.29 113.99 85.26 101.58 67.26 97.12
  C 65.53 96.69 64.07 97.37 63.67 99.09
  Q 63.54 99.67 63.22 99.16
  C 60.72 95.19 68.70 89.37 72.11 87.37
  Z"
/>
<path fill="#010101" d="
  M 79.4378 93.7409
  A 0.98 0.64 -35.5 0 1 79.0116 94.8310
  A 0.98 0.64 -35.5 0 1 77.8422 94.8791
  A 0.98 0.64 -35.5 0 1 78.2684 93.7890
  A 0.98 0.64 -35.5 0 1 79.4378 93.7409
  Z"
/>
<path fill="#80546a" d="
  M 82.33 163.07
  Q 81.35 163.13 80.91 164.20
  C 74.35 155.98 80.12 141.60 85.60 134.53
  A 1.41 1.41 0.0 0 0 85.49 132.68
  C 76.52 123.55 68.59 113.86 64.79 101.03
  C 64.19 98.99 64.95 97.70 67.25 98.27
  C 84.20 102.50 100.53 114.46 113.87 125.52
  A 0.46 0.46 0.0 0 1 113.59 126.34
  C 95.20 127.02 75.31 142.68 82.33 163.07
  Z"
/>
<path fill="#f5f7f9" d="
  M 155.33 113.39
  Q 155.77 113.56 155.66 114.02
  C 154.66 118.28 152.77 123.32 151.32 126.55
  C 141.81 147.82 115.69 135.71 118.21 114.83
  C 118.58 111.74 118.67 109.78 120.45 107.84
  A 1.02 1.02 0.0 0 1 122.12 108.96
  C 120.29 112.90 117.85 124.95 126.14 124.32
  C 133.38 123.78 137.44 115.85 139.29 109.62
  Q 139.44 109.10 139.97 109.20
  Q 147.86 110.57 155.33 113.39
  Z"
/>
<path fill="#78a3d5" d="
  M 125.90 115.83
  C 129.64 119.27 132.83 112.03 133.71 109.02
  Q 133.88 108.41 134.51 108.46
  L 137.30 108.69
  A 0.58 0.58 0.0 0 1 137.83 109.37
  Q 136.48 117.16 130.49 121.63
  C 118.41 130.63 119.82 105.40 127.21 107.92
  Q 127.64 108.07 127.40 108.46
  Q 125.58 111.45 125.52 114.95
  Q 125.51 115.48 125.90 115.83
  Z"
/>
<path fill="#f5f7f9" d="
  M 132.18 108.56
  A 0.85 0.85 0.0 0 1 132.59 109.69
  L 131.49 112.03
  A 5.08 1.92 -64.8 0 1 127.59 115.81
  L 127.39 115.72
  A 5.08 1.92 -64.8 0 1 127.81 110.30
  L 128.92 107.96
  A 0.85 0.85 0.0 0 1 130.05 107.55
  L 132.18 108.56
  Z"
/>
<path fill="#605f5f" d="
  M 137.52 138.90
  C 150.02 135.84 154.86 125.55 157.04 113.92
  Q 157.07 113.74 157.25 113.75
  Q 157.40 113.75 157.54 113.75
  Q 157.73 113.75 157.73 113.94
  C 157.41 132.82 146.60 147.62 130.08 156.40
  A 0.39 0.39 0.0 0 1 129.61 155.80
  Q 135.84 148.87 136.95 139.54
  Q 137.02 139.02 137.52 138.90
  Z"
/>
<path fill="#a86f71" d="
  M 109.89 151.60
  Q 108.33 150.75 105.66 151.89
  Q 105.18 152.10 104.68 151.96
  Q 100.84 150.87 96.96 149.97
  C 92.98 149.05 88.09 149.37 83.48 147.60
  Q 91.45 128.71 112.80 127.34
  C 118.49 126.97 121.04 130.77 124.18 134.72
  Q 124.49 135.12 124.27 135.58
  Q 119.40 145.89 109.89 151.60
  Z"
/>
<path fill="#ffe66b" d="
  M 80.91 164.20
  Q 81.35 163.13 82.33 163.07
  Q 85.91 164.33 90.02 163.01
  C 104.27 158.44 118.46 149.83 125.11 136.05
  A 0.61 0.61 0.0 0 1 125.97 135.79
  Q 130.38 138.37 135.49 138.97
  Q 136.11 139.04 136.01 139.66
  C 132.18 162.69 105.65 169.19 85.75 166.23
  Q 83.62 165.91 80.91 164.20
  Z"
/>
<path fill="#403e47" d="
  M 147.91 147.78
  Q 148.09 148.23 147.96 148.68
  C 146.15 154.08 147.64 159.19 147.81 163.53
  Q 148.00 168.51 148.19 173.51
  Q 147.89 172.14 147.02 172.77
  C 141.17 176.99 129.62 189.73 121.03 188.98
  C 118.46 188.76 111.29 187.16 109.67 184.60
  Q 109.40 184.17 108.90 184.11
  Q 106.87 183.89 105.59 181.67
  Q 106.81 177.87 108.14 173.50
  C 108.65 171.80 108.45 169.08 109.35 167.17
  A 1.33 1.32 2.1 0 1 110.11 166.47
  C 124.29 161.24 135.59 155.63 145.59 145.94
  Q 146.58 144.98 147.17 146.23
  L 147.91 147.78
  Z"
/>
<path fill="#d7949b" d="
  M 83.48 147.60
  C 88.09 149.37 92.98 149.05 96.96 149.97
  Q 100.84 150.87 104.68 151.96
  Q 105.18 152.10 105.66 151.89
  Q 108.33 150.75 109.89 151.60
  C 105.51 155.04 90.49 164.13 84.47 162.30
  A 1.17 1.16 -2.6 0 1 83.71 161.61
  Q 80.98 154.95 83.48 147.60
  Z"
/>
<path fill="#605f5f" d="
  M 148.19 173.51
  Q 149.77 183.11 150.94 187.27
  C 154.25 199.02 161.23 205.91 167.34 214.43
  C 174.64 224.62 165.80 238.14 157.02 244.07
  Q 141.62 254.49 123.75 255.51
  Q 95.77 257.10 82.42 232.80
  Q 85.12 231.77 86.43 233.29
  A 1.38 1.38 0.0 0 0 88.62 233.15
  C 92.10 227.91 91.53 224.82 91.49 218.88
  A 1.83 1.83 0.0 0 0 88.89 217.22
  Q 86.16 218.46 83.72 216.63
  C 89.03 204.56 98.67 194.44 105.59 181.67
  Q 106.87 183.89 108.90 184.11
  Q 109.40 184.17 109.67 184.60
  C 111.29 187.16 118.46 188.76 121.03 188.98
  C 129.62 189.73 141.17 176.99 147.02 172.77
  Q 147.89 172.14 148.19 173.51
  Z"
/>
<path fill="#f8c390" d="
  M 92.30 200.34
  L 87.08 207.39
  A 0.33 0.33 0.0 0 1 86.49 207.25
  L 84.92 198.62
  A 0.33 0.33 0.0 0 1 85.32 198.24
  L 92.11 199.82
  A 0.33 0.33 0.0 0 1 92.30 200.34
  Z"
/>
<path fill="#f39854" d="
  M 176.66 201.48
  L 168.42 211.73
  A 0.92 0.92 0.0 0 1 166.99 211.74
  L 158.78 201.62
  A 0.92 0.92 0.0 0 1 159.48 200.12
  L 175.94 199.99
  A 0.92 0.92 0.0 0 1 176.66 201.48
  Z"
/>
<path fill="#f39854" d="
  M 70.67 226.72
  Q 74.37 221.04 73.84 214.13
  L 84.45 210.79
  A 0.51 0.51 0.0 0 1 85.05 211.53
  C 81.56 217.60 78.63 224.31 81.07 231.32
  A 0.53 0.53 0.0 0 1 80.32 231.96
  L 70.67 226.72
  Z"
/>
<path fill="#f39854" d="
  M 187.61 217.15
  Q 186.91 220.70 188.70 222.79
  Q 189.02 223.16 188.99 223.64
  Q 188.89 225.37 189.56 227.07
  L 168.34 235.15
  Q 167.17 235.59 167.75 234.48
  C 171.52 227.32 172.53 220.43 167.94 213.27
  Q 167.53 212.64 168.26 212.81
  L 187.61 217.15
  Z"
/>
<path fill="#f8c390" d="
  M 73.84 214.13
  Q 74.37 221.04 70.67 226.72
  L 61.07 220.41
  Q 59.21 219.19 61.32 218.46
  L 73.84 214.13
  Z"
/>
<path fill="#857f79" d="
  M 83.72 216.63
  Q 86.16 218.46 88.89 217.22
  A 1.83 1.83 0.0 0 1 91.49 218.88
  C 91.53 224.82 92.10 227.91 88.62 233.15
  A 1.38 1.38 0.0 0 1 86.43 233.29
  Q 85.12 231.77 82.42 232.80
  Q 79.59 224.65 83.72 216.63
  Z"
/>
<path fill="#f8c390" d="
  M 187.61 217.15
  L 201.07 220.72
  A 0.60 0.60 0.0 0 1 201.17 221.84
  L 189.56 227.07
  Q 188.89 225.37 188.99 223.64
  Q 189.02 223.16 188.70 222.79
  Q 186.91 220.70 187.61 217.15
  Z"
/>
<path fill="#ffe66b" d="
  M 176.14 246.59
  L 181.11 234.30
  Q 181.29 233.86 181.15 233.41
  L 180.70 231.97
  L 184.06 230.72
  Q 184.58 230.52 185.09 230.74
  Q 201.18 237.69 218.56 240.10
  Q 219.23 240.20 218.92 240.79
  Q 216.09 246.20 219.52 251.20
  Q 219.83 251.65 219.28 251.70
  Q 216.81 251.91 214.32 251.61
  C 201.55 250.12 189.72 249.10 176.14 246.59
  Z"
/>
<path fill="#605f5f" d="
  M 258.95 240.85
  Q 260.79 240.43 262.69 241.54
  Q 263.18 241.82 262.90 242.32
  Q 262.12 243.72 260.05 242.99
  Q 247.58 244.91 234.36 248.43
  A 0.43 0.43 0.0 0 0 234.50 249.27
  C 239.16 248.99 243.48 251.10 248.13 252.17
  A 0.44 0.44 0.0 0 1 248.06 253.03
  Q 237.10 253.75 225.92 252.46
  C 220.75 251.86 218.35 249.48 218.77 244.25
  C 219.27 238.14 224.99 241.11 228.50 239.76
  Q 240.71 235.07 251.73 231.25
  Q 259.19 228.66 252.43 232.74
  Q 247.29 235.84 239.04 240.76
  Q 238.31 241.19 238.30 241.84
  Q 238.29 242.54 238.87 242.15
  C 242.46 239.69 244.70 241.23 248.06 241.35
  Q 253.48 241.56 258.95 240.85
  Z"
/>
<path fill="#c4aa4e" d="
  M 180.70 231.97
  L 181.15 233.41
  Q 181.29 233.86 181.11 234.30
  L 176.14 246.59
  L 169.70 245.29
  Q 169.05 245.15 168.81 244.53
  L 166.34 238.01
  Q 166.08 237.33 166.77 237.07
  L 180.70 231.97
  Z"
/>
<path fill="#f39854" d="
  M 97.93 251.02
  A 0.82 0.82 0.0 0 1 97.90 252.43
  Q 81.97 261.49 65.06 268.55
  A 0.46 0.46 0.0 0 1 64.44 267.98
  C 66.52 261.76 68.42 255.01 71.20 249.45
  Q 75.26 241.31 80.81 234.32
  A 0.75 0.74 -40.3 0 1 82.04 234.42
  Q 87.86 244.77 97.93 251.02
  Z"
/>
<path fill="#ffe66b" d="
  M 35.61 270.15
  Q 34.73 269.87 35.44 269.29
  L 77.85 234.31
  A 0.65 0.64 -3.1 0 1 78.80 235.16
  C 77.71 236.81 76.21 238.07 75.20 239.70
  Q 68.02 251.33 64.03 264.42
  Q 63.89 264.89 63.47 265.16
  L 42.36 278.63
  A 0.53 0.53 0.0 0 1 41.55 278.20
  Q 41.41 271.99 35.61 270.15
  Z"
/>
<path fill="#f39854" d="
  M 171.85 258.27
  Q 162.58 258.66 154.69 262.82
  L 135.26 255.77
  A 0.51 0.51 0.0 0 1 135.33 254.80
  Q 152.49 251.31 164.72 238.90
  Q 165.18 238.43 165.39 239.06
  L 171.85 258.27
  Z"
/>
<path fill="#605f5f" d="
  M 495.32 252.17
  Q 494.61 255.01 495.86 257.14
  Q 493.05 260.01 489.25 259.84
  Q 473.35 259.12 458.51 262.02
  C 449.42 263.79 441.63 267.36 432.05 271.93
  Q 431.45 272.21 431.48 271.55
  C 431.67 266.36 431.27 262.00 426.28 259.44
  A 0.53 0.53 0.0 0 1 426.36 258.46
  C 433.03 256.36 439.79 253.74 446.36 252.40
  C 455.65 250.51 488.83 244.13 495.32 252.17
  Z"
/>
<path fill="#857f79" d="
  M 495.32 252.17
  Q 497.47 253.06 498.38 254.44
  Q 498.70 254.92 498.36 255.39
  Q 497.65 256.37 495.86 257.14
  Q 494.61 255.01 495.32 252.17
  Z"
/>
<path fill="#f39854" d="
  M 120.47 272.31
  C 113.37 271.59 111.78 264.54 103.09 269.23
  L 100.62 253.69
  Q 100.51 252.95 101.21 253.22
  Q 115.84 258.91 131.28 255.57
  Q 132.04 255.40 131.66 256.08
  Q 126.85 264.68 120.47 272.31
  Z"
/>
<path fill="#c4aa4e" d="
  M 102.61 273.86
  L 93.63 276.81
  Q 92.24 266.64 93.05 257.27
  Q 93.10 256.72 93.58 256.43
  L 98.09 253.72
  A 0.82 0.82 0.0 0 1 99.33 254.29
  L 102.61 273.86
  Z"
/>
<path fill="#c4aa4e" d="
  M 146.57 261.36
  C 140.44 264.72 134.57 264.57 128.53 267.18
  Q 127.90 267.45 127.99 266.77
  L 128.04 266.40
  Q 128.09 266.03 127.71 266.01
  L 126.98 265.95
  L 132.54 257.54
  A 1.80 1.80 0.0 0 1 134.68 256.85
  L 146.57 261.36
  Z"
/>
<path fill="#f8c390" d="
  M 171.85 258.27
  L 174.37 269.82
  A 0.36 0.36 0.0 0 1 173.89 270.24
  L 154.69 262.82
  Q 162.58 258.66 171.85 258.27
  Z"
/>
<path fill="#f39854" d="
  M 381.23 285.76
  A 0.41 0.41 0.0 0 1 381.00 285.49
  Q 380.92 285.15 381.20 284.95
  C 393.95 275.86 407.42 266.51 421.73 260.45
  C 429.17 257.30 434.40 270.86 427.30 274.70
  Q 408.64 284.80 391.12 297.38
  A 0.36 0.36 0.0 0 1 390.56 297.16
  Q 388.85 289.05 381.23 285.76
  Z"
/>
<path fill="#ffe66b" d="
  M 146.57 261.36
  Q 165.56 268.83 173.01 271.32
  Q 174.91 271.95 175.53 270.35
  Q 175.66 270.01 175.63 269.64
  L 175.46 267.84
  Q 175.36 266.81 176.18 267.45
  L 179.63 270.12
  A 0.91 0.91 0.0 0 1 179.31 271.72
  Q 175.72 272.70 178.02 273.24
  C 170.29 284.63 159.71 293.69 170.41 308.02
  Q 172.52 310.83 175.42 311.79
  Q 182.42 314.10 189.89 309.60
  Q 192.13 321.49 199.40 330.60
  Q 199.75 331.05 199.27 331.35
  L 181.08 342.83
  Q 173.20 347.85 162.76 349.41
  Q 155.90 351.41 148.91 351.87
  Q 148.39 351.90 148.19 352.38
  C 146.36 356.60 132.15 357.01 128.25 356.72
  C 118.26 355.99 106.88 354.12 97.96 349.32
  Q 98.64 347.88 98.50 346.34
  Q 98.45 345.85 98.71 345.42
  C 99.99 343.23 99.64 341.07 99.92 339.12
  Q 101.54 327.75 103.63 316.91
  A 1.32 1.31 -86.0 0 0 102.27 315.34
  L 99.13 315.51
  Q 98.60 315.54 98.39 316.02
  Q 93.03 328.37 91.12 341.70
  Q 90.94 342.95 88.98 343.25
  Q 85.67 341.44 86.36 337.58
  Q 89.92 317.80 97.63 301.45
  Q 97.84 301.00 97.76 300.50
  L 93.63 276.81
  L 102.61 273.86
  L 107.90 289.11
  A 0.96 0.95 -36.3 0 0 109.57 289.36
  L 126.98 265.95
  L 127.71 266.01
  Q 128.09 266.03 128.04 266.40
  L 127.99 266.77
  Q 127.90 267.45 128.53 267.18
  C 134.57 264.57 140.44 264.72 146.57 261.36
  Z"
/>
<path fill="#f8c390" d="
  M 213.93 267.08
  L 230.00 268.29
  A 0.37 0.37 0.0 0 1 230.29 268.86
  L 225.66 276.43
  A 0.37 0.37 0.0 0 1 225.12 276.53
  L 213.68 267.75
  A 0.37 0.37 0.0 0 1 213.93 267.08
  Z"
/>
<path fill="#f8c390" d="
  M 223.37 276.51
  Q 225.02 277.72 223.07 278.35
  Q 207.71 283.32 192.89 289.71
  Q 191.79 290.19 192.00 289.01
  Q 193.99 278.04 200.31 268.89
  A 1.03 1.03 0.0 0 1 201.06 268.44
  L 210.27 267.35
  A 1.55 1.53 59.6 0 1 211.36 267.64
  L 223.37 276.51
  Z"
/>
<path fill="#f8c390" d="
  M 120.47 272.31
  L 109.46 287.62
  A 0.44 0.43 52.1 0 1 108.70 287.52
  Q 105.19 278.76 103.09 269.23
  C 111.78 264.54 113.37 271.59 120.47 272.31
  Z"
/>
<path fill="#ffefa3" d="
  M 257.10 272.70
  L 256.56 276.48
  A 0.88 0.86 28.2 0 0 256.79 277.20
  Q 258.34 278.80 258.78 280.97
  Q 258.90 281.56 258.30 281.69
  C 247.27 284.02 240.76 291.30 229.77 295.42
  C 227.38 296.32 224.88 295.98 222.93 298.73
  Q 222.63 299.16 222.11 299.19
  L 220.68 299.27
  C 221.82 289.17 225.00 276.96 231.49 268.91
  Q 231.92 268.37 232.59 268.49
  L 257.10 272.70
  Z"
/>
<path fill="#ffefa3" d="
  M 189.89 309.60
  Q 182.42 314.10 175.42 311.79
  Q 172.52 310.83 170.41 308.02
  C 159.71 293.69 170.29 284.63 178.02 273.24
  Q 188.03 270.26 198.48 268.97
  A 0.28 0.28 0.0 0 1 198.74 269.40
  C 191.29 280.50 187.34 296.44 189.89 309.60
  Z"
/>
<path fill="#605f5f" d="
  M 2.25 282.79
  L 3.26 282.70
  L 5.31 283.36
  Q 5.79 283.51 6.27 283.41
  Q 14.38 281.68 22.34 279.40
  Q 22.80 279.27 22.99 279.02
  Q 23.15 278.81 23.16 278.60
  Q 23.17 278.10 22.70 278.27
  C 20.15 279.16 18.27 279.85 15.52 278.98
  Q 9.35 277.01 3.71 274.86
  A 0.66 0.66 0.0 0 1 4.06 273.59
  C 14.09 275.35 23.76 276.50 32.90 271.07
  A 2.37 2.36 -51.1 0 1 34.83 270.86
  C 39.34 272.35 42.96 278.52 38.07 282.22
  Q 26.81 290.76 19.06 301.96
  A 0.63 0.63 0.0 0 1 17.94 301.40
  L 22.53 287.49
  Q 22.69 286.99 22.17 286.93
  Q 10.25 285.52 2.84 283.91
  Q 2.11 283.75 2.25 282.79
  Z"
/>
<path fill="#ffe66b" d="
  M 257.10 272.70
  L 266.06 275.08
  A 3.38 3.37 12.2 0 1 268.52 278.89
  Q 267.72 283.82 266.08 288.82
  C 259.87 307.80 250.38 324.12 240.44 341.26
  C 238.24 345.06 231.98 348.38 228.46 351.23
  A 0.10 0.10 0.0 0 0 228.49 351.41
  Q 228.62 351.46 228.74 351.50
  Q 228.85 351.53 228.95 351.47
  L 238.35 345.63
  Q 238.84 345.32 239.02 345.87
  Q 240.97 351.78 246.28 355.01
  A 0.37 0.37 0.0 0 1 246.18 355.69
  L 224.43 361.15
  A 2.32 2.32 0.0 0 1 221.64 358.23
  C 226.61 341.66 231.93 325.07 236.52 308.26
  Q 236.69 307.63 236.31 307.18
  A 0.35 0.35 0.0 0 0 235.71 307.31
  L 233.22 316.10
  A 1.71 1.71 0.0 0 1 232.04 317.28
  L 224.69 319.31
  A 1.74 1.73 74.1 0 1 222.56 318.11
  Q 219.73 308.23 220.68 299.27
  L 222.11 299.19
  Q 222.63 299.16 222.93 298.73
  C 224.88 295.98 227.38 296.32 229.77 295.42
  C 240.76 291.30 247.27 284.02 258.30 281.69
  Q 258.90 281.56 258.78 280.97
  Q 258.34 278.80 256.79 277.20
  A 0.88 0.86 28.2 0 1 256.56 276.48
  L 257.10 272.70
  Z"
/>
<path fill="#f8c390" d="
  M 194.67 291.65
  A 0.78 0.77 -43.1 0 1 194.72 290.26
  Q 208.85 283.96 223.65 279.53
  A 0.32 0.32 0.0 0 1 224.04 279.95
  Q 219.53 291.58 218.89 304.07
  Q 218.86 304.74 218.26 304.42
  L 194.67 291.65
  Z"
/>
<path fill="#ffe66b" d="
  M 355.64 328.69
  Q 354.99 328.05 355.67 325.97
  Q 355.84 325.46 355.60 324.99
  C 354.48 322.72 352.85 322.62 350.64 323.64
  Q 346.23 325.67 341.26 325.13
  A 0.57 0.53 65.5 0 1 341.02 325.03
  L 338.37 323.01
  Q 338.07 322.77 337.98 322.40
  L 336.92 318.19
  C 352.84 309.22 362.69 299.52 377.01 288.02
  C 378.50 286.82 379.67 286.15 381.58 287.03
  C 385.40 288.80 392.52 295.83 387.83 300.33
  Q 372.50 315.03 355.64 328.69
  Z"
/>
<path fill="#f8c390" d="
  M 210.84 301.92
  L 210.49 302.93
  Q 210.32 303.44 209.78 303.34
  C 205.10 302.43 202.24 304.26 197.92 305.27
  C 195.24 305.90 193.92 307.72 190.80 307.75
  Q 189.59 299.96 191.34 291.95
  A 0.59 0.58 20.8 0 1 192.20 291.57
  L 210.84 301.92
  Z"
/>
<path fill="#f39854" d="
  M 210.84 301.92
  L 217.74 305.29
  A 0.44 0.44 0.0 0 1 217.79 306.04
  L 195.67 321.19
  Q 195.20 321.51 194.94 321.01
  Q 191.77 314.76 190.80 307.75
  C 193.92 307.72 195.24 305.90 197.92 305.27
  C 202.24 304.26 205.10 302.43 209.78 303.34
  Q 210.32 303.44 210.49 302.93
  L 210.84 301.92
  Z"
/>
<path fill="#f39854" d="
  M 197.30 322.64
  Q 196.86 322.63 197.03 322.22
  Q 197.50 321.05 198.72 320.20
  Q 208.51 313.39 218.57 306.98
  Q 219.13 306.62 219.16 307.28
  Q 219.42 313.69 222.00 319.55
  Q 222.23 320.08 221.71 320.32
  C 218.00 322.00 214.17 323.93 209.94 323.49
  Q 203.76 322.86 197.30 322.64
  Z"
/>
<path fill="#ffefa3" d="
  M 97.96 349.32
  Q 92.93 347.02 88.98 343.25
  Q 90.94 342.95 91.12 341.70
  Q 93.03 328.37 98.39 316.02
  Q 98.60 315.54 99.13 315.51
  L 102.27 315.34
  A 1.32 1.31 -86.0 0 1 103.63 316.91
  Q 101.54 327.75 99.92 339.12
  C 99.64 341.07 99.99 343.23 98.71 345.42
  Q 98.45 345.85 98.50 346.34
  Q 98.64 347.88 97.96 349.32
  Z"
/>
<path fill="#c4aa4e" d="
  M 336.92 318.19
  L 337.98 322.40
  Q 338.07 322.77 338.37 323.01
  L 341.02 325.03
  A 0.57 0.53 65.5 0 0 341.26 325.13
  Q 346.23 325.67 350.64 323.64
  C 352.85 322.62 354.48 322.72 355.60 324.99
  Q 355.84 325.46 355.67 325.97
  Q 354.99 328.05 355.64 328.69
  C 350.66 332.84 345.84 336.87 340.27 340.48
  C 332.02 345.82 323.65 351.76 315.10 355.73
  C 264.95 379.02 207.20 376.12 157.77 353.12
  A 0.75 0.75 0.0 0 1 158.04 351.69
  Q 160.83 351.51 162.76 349.41
  Q 173.20 347.85 181.08 342.83
  Q 184.35 341.88 186.53 340.54
  C 199.73 332.36 212.02 324.49 226.99 319.70
  Q 229.35 318.95 231.19 319.32
  Q 232.22 319.53 231.91 320.54
  L 220.10 359.09
  Q 219.97 359.48 220.16 359.85
  Q 221.77 362.98 224.94 362.20
  Q 243.28 357.69 251.28 356.49
  Q 273.57 353.13 296.10 352.61
  Q 296.57 352.60 296.88 352.25
  Q 297.00 352.12 297.12 352.00
  A 0.76 0.75 -56.7 0 0 296.87 350.77
  C 290.20 348.13 282.80 347.57 276.08 346.72
  Q 272.04 346.20 275.82 344.68
  Q 284.74 341.08 293.79 338.05
  C 294.52 337.81 295.70 336.88 296.20 336.39
  A 1.03 1.03 0.0 0 0 295.43 334.64
  Q 284.93 335.00 275.19 337.08
  C 272.41 337.67 267.29 338.11 263.41 339.76
  A 0.60 0.60 0.0 0 1 262.82 338.73
  L 271.73 332.08
  Q 272.12 331.79 272.60 331.83
  C 296.83 333.60 315.50 329.29 336.92 318.19
  Z"
/>
<path fill="#605f5f" d="
  M 266.06 349.10
  C 268.36 348.21 270.16 347.37 272.72 347.58
  Q 284.28 348.56 295.35 350.73
  A 0.46 0.46 0.0 0 1 295.26 351.65
  Q 272.54 351.74 250.10 355.33
  Q 249.25 355.47 248.50 355.04
  Q 242.63 351.66 239.83 345.58
  Q 239.56 344.99 240.10 344.63
  Q 259.70 331.81 280.97 322.10
  A 0.62 0.61 13.6 0 1 281.61 323.14
  C 274.64 328.59 264.89 334.09 259.26 340.92
  Q 259.00 341.23 259.40 341.16
  L 293.72 335.32
  Q 295.35 335.04 294.29 336.35
  Q 294.18 336.48 293.76 336.84
  Q 293.49 337.06 293.14 337.17
  Q 279.23 341.40 266.32 348.09
  Q 265.88 348.31 265.71 348.72
  Q 265.44 349.33 266.06 349.10
  Z"
/>
<path fill="#f39854" d="
  M 210.34 325.09
  L 201.03 330.30
  A 0.30 0.30 0.0 0 1 200.64 330.22
  L 196.16 324.19
  A 0.30 0.30 0.0 0 1 196.42 323.71
  L 210.21 324.53
  A 0.30 0.30 0.0 0 1 210.34 325.09
  Z"
/>
<path fill="#c4aa4e" d="
  M 259.83 331.27
  L 242.22 341.86
  A 0.31 0.31 0.0 0 1 241.79 341.44
  L 248.83 329.16
  A 0.31 0.31 0.0 0 1 249.15 329.00
  L 259.72 330.70
  A 0.31 0.31 0.0 0 1 259.83 331.27
  Z"
/>
<path fill="#f8c390" d="
  M 97.64 350.73
  Q 96.52 353.15 96.76 355.66
  A 1.78 1.77 58.0 0 1 96.52 356.72
  Q 95.37 358.73 96.38 360.85
  Q 96.59 361.30 96.46 361.78
  Q 95.69 364.59 98.58 365.48
  L 92.89 372.56
  A 0.66 0.66 0.0 0 1 91.75 372.33
  Q 87.44 357.91 85.47 342.97
  A 0.62 0.61 19.0 0 1 86.52 342.46
  Q 91.22 347.28 97.64 350.73
  Z"
/>
<path fill="#f39854" d="
  M 89.75 372.27
  C 87.56 370.85 86.69 369.93 86.20 367.20
  Q 84.78 359.17 84.72 351.76
  Q 84.71 351.24 85.13 351.03
  Q 85.60 350.80 85.67 351.32
  Q 87.10 361.75 90.48 371.71
  Q 90.93 373.05 89.75 372.27
  Z"
/>
<path fill="#f39854" d="
  M 97.64 350.73
  L 106.83 354.20
  Q 107.46 354.43 107.04 354.95
  L 98.58 365.48
  Q 95.69 364.59 96.46 361.78
  Q 96.59 361.30 96.38 360.85
  Q 95.37 358.73 96.52 356.72
  A 1.78 1.77 58.0 0 0 96.76 355.66
  Q 96.52 353.15 97.64 350.73
  Z"
/>
<path fill="#f39854" d="
  M 121.37 379.33
  A 2.10 1.17 -0.8 0 1 119.81 378.49
  L 109.60 355.59
  Q 109.21 354.72 110.14 354.96
  Q 122.73 358.30 135.74 357.72
  A 0.48 0.48 0.0 0 1 136.18 358.44
  Q 129.99 369.02 122.27 378.77
  Q 121.78 379.38 121.37 379.33
  Z"
/>
<path fill="#f39854" d="
  M 142.61 371.34
  Q 142.49 371.62 142.49 371.67
  A 0.40 0.39 -47.0 0 1 141.71 371.71
  L 139.15 358.15
  Q 139.07 357.72 139.49 357.59
  L 147.04 355.34
  A 0.38 0.37 -2.0 0 1 147.52 355.78
  Q 145.78 363.74 142.61 371.34
  Z"
/>
<path fill="#f39854" d="
  M 97.50 376.25
  Q 97.11 372.45 99.44 368.69
  Q 99.92 367.91 98.91 367.39
  L 107.60 356.29
  A 0.65 0.65 0.0 0 1 108.70 356.42
  L 118.75 379.21
  Q 118.95 379.68 118.44 379.69
  Q 107.62 379.90 97.50 376.25
  Z"
/>
<path fill="#f39854" d="
  M 136.68 359.49
  A 0.79 0.79 0.0 0 1 138.13 359.67
  Q 140.01 366.90 140.84 373.18
  C 141.08 375.06 140.93 375.61 139.09 376.33
  Q 132.50 378.91 124.87 379.58
  Q 123.34 379.72 124.26 378.49
  Q 131.11 369.42 136.68 359.49
  Z"
/>
<path fill="#f8c390" d="
  M 98.91 367.39
  Q 99.92 367.91 99.44 368.69
  Q 97.11 372.45 97.50 376.25
  Q 95.15 375.88 93.80 374.52
  Q 93.41 374.12 93.76 373.69
  L 98.91 367.39
  Z"
/>
<path fill="#ffe66b" d="
  M 140.35 378.85
  C 138.65 382.34 130.29 385.30 126.75 385.98
  Q 123.39 386.63 120.23 388.08
  C 118.16 389.04 115.81 388.86 113.71 389.94
  Q 111.36 391.15 110.08 391.37
  C 107.73 391.77 104.62 391.39 103.74 394.29
  Q 98.78 394.54 96.69 392.08
  Q 90.21 384.43 87.19 372.67
  Q 87.04 372.06 87.61 372.32
  C 88.81 372.85 89.97 374.01 90.89 374.51
  C 105.22 382.33 124.67 382.92 139.69 377.52
  Q 140.19 377.34 140.24 377.87
  L 140.35 378.85
  Z"
/>
<path fill="#c4aa4e" d="
  M 173.48 383.33
  L 167.71 377.34
  A 1.52 1.47 75.1 0 0 167.05 376.94
  C 165.59 376.53 162.15 375.97 162.48 373.93
  C 164.56 373.39 167.37 372.28 169.25 372.43
  C 174.58 372.84 173.96 379.35 173.48 383.33
  Z"
/>
<path fill="#937a4e" d="
  M 162.48 373.93
  C 162.15 375.97 165.59 376.53 167.05 376.94
  A 1.52 1.47 75.1 0 1 167.71 377.34
  L 173.48 383.33
  Q 172.61 395.72 166.28 407.11
  A 0.86 0.85 31.5 0 1 165.05 407.40
  Q 158.45 402.86 150.50 401.60
  A 0.68 0.67 -68.5 0 1 150.05 400.55
  Q 151.31 398.70 152.22 396.67
  C 152.96 395.02 152.87 392.70 154.53 390.76
  Q 155.14 390.05 154.24 390.33
  Q 145.15 393.20 135.78 393.79
  L 135.73 391.40
  A 0.86 0.85 -14.8 0 1 136.19 390.61
  Q 140.96 387.98 142.43 382.78
  Q 142.57 382.28 142.94 381.93
  Q 144.38 380.55 142.84 379.39
  L 162.48 373.93
  Z"
/>
<path fill="#c4aa4e" d="
  M 140.35 378.85
  L 142.84 379.39
  Q 144.38 380.55 142.94 381.93
  Q 142.57 382.28 142.43 382.78
  Q 140.96 387.98 136.19 390.61
  A 0.86 0.85 -14.8 0 0 135.73 391.40
  L 135.78 393.79
  Q 119.77 395.10 103.74 394.29
  C 104.62 391.39 107.73 391.77 110.08 391.37
  Q 111.36 391.15 113.71 389.94
  C 115.81 388.86 118.16 389.04 120.23 388.08
  Q 123.39 386.63 126.75 385.98
  C 130.29 385.30 138.65 382.34 140.35 378.85
  Z"
/>
<path fill="#403e47" d="
  M 140.69 438.39
  Q 139.26 439.53 138.54 438.98
  Q 138.08 438.64 138.38 438.15
  L 141.82 432.53
  Q 146.56 426.31 149.42 419.01
  Q 149.57 418.64 149.16 418.63
  Q 148.66 418.62 148.48 419.04
  Q 145.41 426.18 140.75 431.20
  L 137.55 434.24
  L 137.22 433.98
  Q 136.81 433.67 136.37 433.95
  Q 133.67 435.71 132.59 438.08
  C 131.27 439.15 127.75 443.03 125.88 441.63
  A 1.21 1.20 -49.2 0 1 125.75 439.81
  L 129.10 436.50
  Q 133.57 433.71 136.46 428.95
  Q 137.01 428.04 136.25 427.80
  Q 136.38 427.11 136.59 427.65
  Q 141.27 422.56 144.60 416.62
  Q 144.66 416.52 144.54 416.50
  Q 144.45 416.49 144.29 416.49
  Q 144.23 416.49 144.20 416.54
  L 136.29 425.71
  Q 130.76 430.64 123.73 433.32
  A 0.87 0.87 0.0 0 1 122.56 432.63
  Q 122.51 432.23 122.75 431.65
  Q 122.91 431.26 123.30 430.87
  Q 130.77 423.39 137.95 415.68
  Q 139.06 415.95 139.53 414.91
  C 140.05 413.76 140.36 413.43 141.38 412.92
  A 1.51 1.47 3.1 0 0 141.92 412.45
  L 148.83 402.62
  A 0.73 0.73 0.0 0 1 149.55 402.33
  Q 157.62 403.87 164.69 408.08
  A 0.97 0.96 32.8 0 1 164.99 409.45
  Q 154.53 424.76 140.69 438.39
  Z"
/>
<path fill="#010101" d="
  M 136.59 427.65
  Q 137.17 425.44 136.29 425.71
  L 144.20 416.54
  Q 144.23 416.49 144.29 416.49
  Q 144.45 416.49 144.54 416.50
  Q 144.66 416.52 144.60 416.62
  Q 141.27 422.56 136.59 427.65
  Z"
/>
<path fill="#010101" d="
  M 141.82 432.53
  L 141.73 431.77
  Q 141.67 431.30 141.21 431.25
  L 140.75 431.20
  Q 145.41 426.18 148.48 419.04
  Q 148.66 418.62 149.16 418.63
  Q 149.57 418.64 149.42 419.01
  Q 146.56 426.31 141.82 432.53
  Z"
/>
<path fill="#010101" d="
  M 136.25 427.80
  Q 137.01 428.04 136.46 428.95
  Q 133.57 433.71 129.10 436.50
  L 136.25 427.80
  Z"
/>
<path fill="#010101" d="
  M 137.55 434.24
  Q 135.67 436.66 132.59 438.08
  Q 133.67 435.71 136.37 433.95
  Q 136.81 433.67 137.22 433.98
  L 137.55 434.24
  Z"
/>
</svg>
