<?xml version="1.0" encoding="UTF-8" standalone="no"?>
<svg xmlns="http://www.w3.org/2000/svg" version="1.2" baseProfile="tiny" viewBox="0.00 0.00 750.00 750.00">
<path fill="#000000" d="
  M 317.89 235.25
  Q 318.09 236.71 318.72 237.47
  L 320.28 242.44
  L 324.60 254.54
  L 334.55 280.74
  A 3.67 3.64 50.9 0 1 334.23 283.97
  L 330.75 289.55
  Q 330.04 290.98 329.28 291.56
  L 320.82 304.38
  L 319.46 306.59
  L 315.44 312.28
  Q 313.62 313.85 313.71 315.44
  Q 314.40 316.78 315.06 316.79
  Q 315.43 316.80 315.61 316.33
  Q 315.77 315.93 315.75 315.53
  L 317.77 315.73
  Q 313.62 323.17 310.93 331.11
  A 0.53 0.53 0.0 0 0 311.60 331.78
  L 334.80 323.90
  L 353.28 318.23
  L 372.64 313.26
  Q 373.17 313.12 373.62 313.42
  L 376.58 315.37
  L 377.69 316.04
  L 379.64 317.36
  L 387.13 322.01
  L 391.79 325.46
  Q 393.94 327.69 395.46 327.96
  L 405.06 335.02
  L 429.51 351.94
  Q 430.04 352.31 429.87 351.68
  L 425.67 335.56
  L 425.47 333.63
  L 423.12 323.50
  L 422.85 322.52
  L 417.50 300.64
  L 416.13 293.16
  L 419.84 288.87
  L 435.52 273.68
  L 453.09 257.83
  L 457.58 253.73
  Q 459.21 253.14 459.62 252.10
  C 490.92 226.07 522.51 200.42 555.23 176.40
  A 0.73 0.73 0.0 0 1 556.37 177.16
  Q 549.74 204.54 539.55 230.29
  C 532.64 247.73 525.41 264.29 516.14 280.51
  L 513.99 284.26
  C 511.75 287.02 510.10 290.72 508.51 293.11
  Q 495.88 312.13 479.60 329.77
  Q 480.48 328.94 478.79 330.60
  L 469.14 340.90
  L 466.13 343.90
  L 460.98 348.82
  Q 460.62 349.16 460.66 349.66
  Q 462.43 368.13 470.37 386.03
  Q 470.37 386.34 470.89 386.75
  Q 471.32 387.09 471.57 386.60
  Q 473.87 382.09 479.21 382.03
  Q 479.79 382.03 480.23 382.38
  L 481.98 383.79
  Q 482.76 384.42 482.49 383.46
  L 478.22 368.25
  Q 475.04 356.23 469.29 345.23
  Q 469.22 345.10 469.55 344.89
  Q 470.95 345.40 471.11 345.27
  Q 480.62 365.54 484.44 386.55
  Q 485.22 390.80 485.41 396.50
  C 485.58 401.81 486.55 407.20 485.38 412.45
  A 0.83 0.83 0.0 0 1 483.93 412.80
  C 477.31 404.97 474.08 396.50 470.05 388.29
  Q 461.37 370.63 459.49 351.01
  A 0.45 0.45 0.0 0 0 458.74 350.72
  Q 451.34 357.18 443.82 362.52
  C 441.55 364.14 441.05 365.73 440.31 368.22
  Q 440.16 368.73 440.51 369.12
  C 449.05 378.74 451.29 391.63 452.21 404.58
  Q 452.24 405.09 452.72 405.31
  C 466.20 411.38 479.74 417.31 492.70 424.39
  A 0.45 0.44 -33.7 0 1 492.53 425.22
  L 454.08 429.72
  A 0.78 0.78 0.0 0 0 453.39 430.48
  Q 453.21 438.95 454.97 447.18
  C 456.68 455.17 457.51 459.90 457.63 466.50
  Q 457.66 468.09 456.36 467.17
  Q 451.98 464.05 448.81 459.72
  A 0.62 0.62 0.0 0 0 447.75 459.81
  Q 444.14 467.02 440.13 474.07
  Q 439.31 475.52 438.30 474.50
  A 1.21 1.19 -70.1 0 1 437.97 473.78
  Q 436.59 457.73 439.13 443.08
  C 439.73 439.66 437.95 436.09 437.23 432.84
  A 1.49 1.49 0.0 0 0 435.54 431.70
  L 422.87 433.74
  Q 422.39 433.82 422.11 434.22
  Q 389.93 480.84 360.97 529.51
  Q 342.64 560.30 322.25 589.77
  Q 314.26 601.31 306.64 613.00
  Q 306.11 613.81 305.29 613.30
  C 299.73 609.87 290.82 604.57 286.71 599.54
  Q 286.31 599.05 286.90 598.81
  C 290.82 597.22 294.62 596.72 298.17 593.87
  A 0.86 0.82 81.7 0 0 298.42 593.52
  L 313.95 550.55
  A 1.65 1.65 0.0 0 0 313.74 549.02
  L 307.32 540.06
  A 1.08 1.07 -28.7 0 1 307.80 538.43
  L 319.30 533.90
  Q 319.71 533.74 319.85 533.34
  Q 324.18 521.38 328.45 509.44
  C 329.49 506.53 328.47 505.79 327.15 503.56
  Q 325.07 500.03 323.06 496.66
  A 0.47 0.46 -24.3 0 1 323.32 495.98
  L 334.41 492.61
  Q 334.87 492.47 335.04 492.02
  L 344.11 469.06
  Q 344.34 468.49 344.04 467.95
  L 339.15 459.02
  A 1.68 1.68 0.0 0 1 339.96 456.67
  L 350.47 452.21
  A 1.35 1.35 0.0 0 0 351.21 451.43
  L 356.47 437.01
  Q 356.65 436.51 356.12 436.54
  C 342.68 437.24 332.97 436.83 323.43 426.36
  A 0.36 0.36 0.0 0 0 322.81 426.51
  L 318.08 444.26
  Q 317.96 444.68 318.18 445.06
  L 323.94 455.05
  A 0.99 0.98 -27.3 0 1 323.49 456.44
  Q 320.16 457.93 316.53 459.00
  C 311.92 460.36 312.42 462.54 311.11 466.27
  Q 307.83 475.64 304.64 485.04
  A 1.18 1.18 0.0 0 0 304.73 486.00
  L 309.96 495.38
  A 0.99 0.99 0.0 0 1 309.44 496.78
  L 299.86 500.37
  A 1.37 1.34 -1.6 0 0 299.04 501.22
  L 290.94 525.80
  A 3.67 3.65 -52.9 0 0 291.37 528.98
  L 296.81 537.14
  A 1.61 1.61 0.0 0 1 296.08 539.52
  L 286.35 543.50
  A 1.04 1.04 0.0 0 0 285.75 544.17
  L 273.87 585.08
  Q 273.70 585.68 274.08 586.16
  L 282.16 596.36
  A 0.62 0.61 -22.2 0 1 281.74 597.35
  L 258.54 599.84
  A 0.80 0.80 0.0 0 1 257.66 599.01
  Q 259.15 564.19 262.12 529.22
  C 263.43 513.70 265.54 496.62 266.94 480.27
  C 268.85 457.89 270.24 435.52 271.89 413.14
  A 0.29 0.29 0.0 0 0 271.42 412.89
  L 265.94 417.26
  A 0.59 0.57 -12.2 0 0 265.76 417.53
  Q 261.02 430.84 252.92 442.38
  C 252.40 443.12 251.67 444.58 250.66 445.03
  A 0.94 0.93 76.2 0 1 249.35 444.23
  Q 248.77 434.92 250.98 425.89
  A 0.98 0.98 0.0 0 0 249.88 424.69
  L 238.35 426.53
  A 0.88 0.88 0.0 0 1 237.54 425.09
  C 242.83 418.80 248.65 413.18 255.17 408.37
  Q 259.35 405.28 261.50 400.64
  A 0.54 0.54 0.0 0 0 261.28 399.94
  L 221.69 376.46
  A 0.70 0.70 0.0 0 1 221.94 375.16
  L 254.07 370.46
  A 1.11 1.09 8.3 0 0 254.89 369.86
  C 256.44 366.67 257.00 363.13 257.81 360.34
  Q 263.05 342.42 274.55 328.01
  A 1.22 1.21 49.6 0 0 274.65 326.65
  L 266.71 312.80
  L 264.79 308.47
  Q 260.29 300.04 258.19 290.77
  L 257.63 288.50
  L 255.40 269.55
  L 254.97 266.45
  L 255.01 253.24
  L 254.93 249.17
  Q 255.25 247.68 254.70 245.36
  Q 255.24 245.15 254.84 243.67
  C 255.59 205.94 262.80 171.97 281.67 138.99
  A 0.68 0.68 0.0 0 1 282.88 139.04
  Q 284.21 141.98 285.43 145.28
  Q 302.18 190.15 317.89 235.25
  Z
  M 308.93 329.88
  L 305.50 327.29
  A 0.90 0.90 0.0 0 0 304.25 327.45
  L 297.13 336.41
  A 0.36 0.36 0.0 0 0 297.55 336.97
  L 308.55 332.67
  A 1.61 1.61 0.0 0 0 308.93 329.88
  Z
  M 286.34 341.64
  Q 278.77 356.73 266.52 368.22
  A 0.27 0.27 0.0 0 0 266.75 368.69
  L 286.69 365.54
  Q 287.26 365.45 287.30 364.87
  L 288.89 341.94
  A 1.01 1.01 0.0 0 0 288.30 340.95
  Q 286.98 340.36 286.34 341.64
  Z
  M 431.46 395.94
  L 432.60 396.22
  A 0.20 0.20 0.0 0 0 432.84 396.08
  L 432.88 395.94
  A 5.66 0.76 -76.1 0 0 433.50 390.27
  L 433.44 390.25
  A 5.66 0.76 -76.1 0 0 431.34 395.56
  L 431.31 395.70
  A 0.20 0.20 0.0 0 0 431.46 395.94
  Z"
/>
<g stroke-width="2.00" fill="none" stroke-linecap="butt">
<path stroke="#2a465b" vector-effect="non-scaling-stroke" d="
  M 333.12 281.56
  Q 306.06 276.28 278.52 272.78
  C 276.70 272.55 274.51 272.88 272.52 272.88
  Q 271.93 272.89 271.87 272.30
  L 266.94 228.07"
/>
<path stroke="#4a758f" vector-effect="non-scaling-stroke" d="
  M 266.94 228.07
  Q 266.17 219.38 266.97 210.12"
/>
<path stroke="#2a465b" vector-effect="non-scaling-stroke" d="
  M 266.97 210.12
  Q 269.14 193.69 271.29 177.51
  Q 272.15 171.02 277.78 150.07"
/>
<path stroke="#45687d" vector-effect="non-scaling-stroke" d="
  M 266.97 210.12
  Q 266.61 187.12 271.53 167.75
  Q 273.31 160.72 273.52 158.58"
/>
<path stroke="#45687d" vector-effect="non-scaling-stroke" d="
  M 266.94 228.07
  Q 266.06 230.53 266.35 234.44
  Q 268.04 256.81 270.18 271.63
  C 270.66 274.94 268.98 277.89 268.55 281.00
  C 267.22 290.50 267.44 300.38 269.52 309.92
  Q 270.37 313.82 271.18 317.94"
/>
<path stroke="#304d62" vector-effect="non-scaling-stroke" d="
  M 553.21 181.44
  Q 547.43 194.66 541.26 207.72
  C 536.88 217.01 531.68 225.88 526.52 234.85"
/>
<path stroke="#355974" vector-effect="non-scaling-stroke" d="
  M 526.52 234.85
  Q 524.76 235.63 522.32 235.34
  A 1.24 1.23 -62.4 0 0 521.37 235.64
  C 519.73 237.09 517.53 239.69 515.10 239.30
  C 512.16 238.83 509.60 239.79 507.02 241.14
  Q 506.54 241.39 506.01 241.31
  Q 501.98 240.72 498.16 242.10
  A 0.63 0.63 0.0 0 1 497.78 242.10
  L 490.45 239.63
  A 2.33 2.31 0.9 0 1 488.98 238.13
  L 487.89 234.72
  Q 487.70 234.13 487.11 234.30
  Q 485.66 234.70 484.51 233.96"
/>
<path stroke="#2a465b" vector-effect="non-scaling-stroke" d="
  M 419.04 292.11
  Q 453.23 292.45 485.97 297.02
  A 1.95 1.94 21.5 0 0 487.82 296.22
  Q 508.86 266.66 526.52 234.85"
/>
<path stroke="#2a465b" vector-effect="non-scaling-stroke" d="
  M 440.44 362.71
  Q 433.15 364.69 426.53 368.28
  C 424.81 369.21 422.28 369.93 420.46 371.41
  Q 420.08 371.71 419.59 371.79
  C 415.81 372.43 413.62 374.70 409.66 375.64
  Q 406.97 376.27 397.88 381.17"
/>
<path stroke="#355974" vector-effect="non-scaling-stroke" d="
  M 357.98 355.57
  Q 357.22 353.02 352.59 352.73
  A 0.90 0.90 0.0 0 1 351.79 352.11
  Q 351.43 350.99 352.17 350.29
  Q 352.56 349.92 352.69 349.40
  C 355.06 339.99 360.59 331.15 366.11 323.21"
/>
<path stroke="#4a758f" vector-effect="non-scaling-stroke" d="
  M 366.11 323.21
  L 370.48 317.54
  Q 370.56 317.44 370.52 317.32
  Q 370.48 317.20 370.44 317.06
  Q 370.36 316.84 370.17 316.98
  C 361.89 322.90 354.06 329.50 345.59 335.13
  Q 342.76 337.01 345.30 334.75
  Q 356.02 325.26 369.08 315.72"
/>
<path stroke="#4f7c95" vector-effect="non-scaling-stroke" d="
  M 366.11 323.21
  Q 365.37 322.88 364.40 324.14
  Q 356.70 334.02 352.77 342.76
  Q 352.10 344.27 351.58 344.79
  Q 351.27 345.10 351.26 345.54
  Q 351.25 346.59 350.35 347.23
  Q 349.93 347.53 349.73 348.01
  L 347.27 354.06"
/>
<path stroke="#4a758f" vector-effect="non-scaling-stroke" d="
  M 317.32 357.81
  Q 317.28 357.67 317.25 357.56
  A 0.55 0.55 0.0 0 1 317.46 357.04
  Q 328.94 348.41 340.10 339.36
  Q 340.24 339.25 340.23 339.06
  Q 340.20 338.59 339.81 338.86
  Q 326.80 347.86 314.64 358.01
  Q 314.59 358.05 314.56 358.11
  L 314.44 358.35"
/>
<path stroke="#4a758f" vector-effect="non-scaling-stroke" d="
  M 305.51 362.69
  L 291.49 340.88"
/>
<path stroke="#4f7c95" vector-effect="non-scaling-stroke" d="
  M 347.31 355.36
  Q 347.29 356.49 346.27 357.51
  Q 345.92 357.86 345.80 358.35
  C 345.35 360.29 345.36 363.91 344.12 365.27
  Q 343.78 365.64 343.72 366.15
  Q 342.73 374.49 340.93 382.68
  C 339.75 388.06 339.47 393.66 338.43 399.17
  C 337.89 402.04 337.75 404.73 337.47 407.55
  Q 337.44 407.90 337.10 407.99
  Q 336.90 408.04 336.71 408.13"
/>
<path stroke="#355974" vector-effect="non-scaling-stroke" d="
  M 349.80 355.66
  C 348.64 361.35 346.23 367.07 345.13 372.28
  C 343.04 382.20 340.41 392.66 339.64 402.76
  Q 339.41 405.72 338.77 408.75"
/>
<path stroke="#4a758f" vector-effect="non-scaling-stroke" d="
  M 311.65 405.59
  Q 309.92 404.66 308.81 403.00
  C 306.67 399.81 304.28 397.88 303.52 393.88
  C 303.34 392.96 302.86 392.46 301.93 392.47"
/>
<path stroke="#4c6370" vector-effect="non-scaling-stroke" d="
  M 299.98 388.58
  Q 280.15 384.75 260.26 381.14
  C 251.36 379.52 241.17 377.90 231.89 377.30
  Q 229.53 377.15 227.60 375.86"
/>
<path stroke="#968f67" vector-effect="non-scaling-stroke" d="
  M 299.24 389.32
  C 286.79 387.73 274.70 384.45 262.36 382.54
  Q 244.69 379.79 226.56 377.38"
/>
<path stroke="#355974" vector-effect="non-scaling-stroke" d="
  M 283.92 545.11
  Q 278.57 546.82 273.18 544.47"
/>
<path stroke="#968f67" vector-effect="non-scaling-stroke" d="
  M 299.80 389.71
  Q 299.78 390.06 299.68 390.18
  Q 299.68 390.18 299.31 390.32
  Q 289.55 394.08 280.81 399.75"
/>
<path stroke="#948944" vector-effect="non-scaling-stroke" d="
  M 301.11 390.51
  L 281.01 400.00"
/>
<path stroke="#f7e97b" vector-effect="non-scaling-stroke" d="
  M 273.39 537.23
  Q 272.45 536.86 271.85 538.12
  Q 271.58 538.68 270.95 538.71
  L 264.51 538.98
  A 0.99 0.97 -17.6 0 1 263.66 538.55
  Q 263.20 537.87 262.81 538.24"
/>
<path stroke="#c7a44f" vector-effect="non-scaling-stroke" d="
  M 313.85 384.73
  Q 313.47 392.38 315.58 399.48
  Q 315.73 400.00 316.26 400.15
  Q 320.75 401.37 325.30 400.28"
/>
<path stroke="#baa090" vector-effect="non-scaling-stroke" d="
  M 315.04 386.89
  L 316.80 398.43
  A 0.95 0.95 0.0 0 0 317.70 399.23
  L 324.72 399.53"
/>
<path stroke="#4a758f" vector-effect="non-scaling-stroke" d="
  M 404.20 386.08
  Q 403.71 394.70 403.97 403.25
  C 404.05 405.85 404.76 408.23 405.17 410.87"
/>
<path stroke="#355974" vector-effect="non-scaling-stroke" d="
  M 330.55 550.74
  L 327.19 549.43
  A 0.82 0.78 53.4 0 0 326.84 549.37
  C 323.19 549.44 320.27 547.78 316.67 548.03
  Q 316.19 548.06 315.92 547.66
  Q 315.21 546.60 313.65 546.73"
/>
<path stroke="#c7a44f" vector-effect="non-scaling-stroke" d="
  M 359.73 405.84
  Q 366.17 409.08 373.03 410.01"
/>
<path stroke="#f7e97b" vector-effect="non-scaling-stroke" d="
  M 373.03 410.01
  Q 373.88 411.27 374.71 410.95
  C 379.22 409.25 382.73 398.73 384.97 394.49
  Q 385.27 393.93 384.75 393.31"
/>
<path stroke="#c9a972" vector-effect="non-scaling-stroke" d="
  M 373.03 410.01
  Q 373.70 410.11 374.19 409.43
  Q 378.80 403.03 382.39 395.99
  Q 382.53 395.73 382.51 395.49
  Q 382.50 395.24 382.44 394.96"
/>
<path stroke="#baa090" vector-effect="non-scaling-stroke" d="
  M 360.48 405.41
  L 372.76 408.68
  A 0.70 0.69 22.1 0 0 373.53 408.36
  Q 377.27 401.95 381.46 395.73
  Q 381.55 395.61 381.19 395.39"
/>
<path stroke="#c17c4d" vector-effect="non-scaling-stroke" d="
  M 315.56 405.76
  L 317.81 411.39
  Q 317.99 411.85 317.73 412.28
  L 317.47 412.73"
/>
<path stroke="#c17c4d" vector-effect="non-scaling-stroke" d="
  M 337.60 426.47
  L 332.49 425.64
  Q 331.93 425.55 331.54 425.16
  Q 330.87 424.50 329.84 424.76
  A 0.81 0.79 67.4 0 1 328.95 424.38
  Q 327.52 421.92 324.46 421.79"
/>
<path stroke="#c17c4d" vector-effect="non-scaling-stroke" d="
  M 359.69 427.37
  Q 348.59 430.23 339.37 426.92"
/>
<path stroke="#f7e97b" vector-effect="non-scaling-stroke" d="
  M 405.22 411.98
  L 413.57 424.03
  Q 413.82 424.39 413.80 424.82
  L 413.75 426.22"
/>
<path stroke="#f7e97b" vector-effect="non-scaling-stroke" d="
  M 345.62 551.04
  Q 344.81 550.35 343.96 551.09
  Q 343.55 551.46 343.54 550.90
  L 343.54 550.38
  Q 343.54 549.98 343.23 549.73
  Q 340.18 547.17 336.27 546.50
  Q 336.00 546.45 336.00 546.18
  Q 336.00 546.06 336.00 545.93
  Q 336.01 545.77 335.86 545.71
  Q 335.20 545.43 334.80 545.79
  A 1.57 0.45 -36.4 0 0 334.22 546.54
  Q 333.81 547.91 333.41 547.24"
/>
</g>
<path fill="#2f526d" d="
  M 333.12 281.56
  Q 306.06 276.28 278.52 272.78
  C 276.70 272.55 274.51 272.88 272.52 272.88
  Q 271.93 272.89 271.87 272.30
  L 266.94 228.07
  Q 266.17 219.38 266.97 210.12
  Q 269.14 193.69 271.29 177.51
  Q 272.15 171.02 277.78 150.07
  L 281.49 141.55
  A 0.56 0.55 -43.2 0 1 282.52 141.58
  C 291.60 167.09 301.21 192.55 309.99 218.24
  Q 320.88 250.13 333.12 281.56
  Z"
/>
<path fill="#253949" d="
  M 277.78 150.07
  Q 272.15 171.02 271.29 177.51
  Q 269.14 193.69 266.97 210.12
  Q 266.61 187.12 271.53 167.75
  Q 273.31 160.72 273.52 158.58
  Q 274.60 154.12 277.78 150.07
  Z"
/>
<path fill="#6497b0" d="
  M 273.52 158.58
  Q 273.31 160.72 271.53 167.75
  Q 266.61 187.12 266.97 210.12
  Q 266.17 219.38 266.94 228.07
  Q 266.06 230.53 266.35 234.44
  Q 268.04 256.81 270.18 271.63
  C 270.66 274.94 268.98 277.89 268.55 281.00
  C 267.22 290.50 267.44 300.38 269.52 309.92
  Q 270.37 313.82 271.18 317.94
  Q 267.00 310.41 263.76 302.67
  C 255.94 283.96 256.51 263.34 256.52 243.50
  C 256.54 214.51 261.36 185.10 273.52 158.58
  Z"
/>
<path fill="#3a607a" d="
  M 553.21 181.44
  Q 547.43 194.66 541.26 207.72
  C 536.88 217.01 531.68 225.88 526.52 234.85
  Q 524.76 235.63 522.32 235.34
  A 1.24 1.23 -62.4 0 0 521.37 235.64
  C 519.73 237.09 517.53 239.69 515.10 239.30
  C 512.16 238.83 509.60 239.79 507.02 241.14
  Q 506.54 241.39 506.01 241.31
  Q 501.98 240.72 498.16 242.10
  A 0.63 0.63 0.0 0 1 497.78 242.10
  L 490.45 239.63
  A 2.33 2.31 0.9 0 1 488.98 238.13
  L 487.89 234.72
  Q 487.70 234.13 487.11 234.30
  Q 485.66 234.70 484.51 233.96
  Q 517.77 206.65 552.73 180.05
  Q 553.35 179.58 553.71 180.26
  Q 553.92 180.67 553.21 181.44
  Z"
/>
<path fill="#253949" d="
  M 553.21 181.44
  Q 553.78 181.87 553.62 182.42
  Q 541.37 225.23 524.30 261.53
  C 510.64 290.58 489.66 317.24 466.47 341.23
  Q 454.92 353.19 442.59 361.54
  Q 442.16 361.83 441.76 361.50
  L 432.34 353.80
  A 1.63 1.60 -77.8 0 1 431.79 352.93
  C 427.07 333.73 422.81 314.43 418.01 295.25
  Q 417.59 293.56 419.04 292.11
  Q 453.23 292.45 485.97 297.02
  A 1.95 1.94 21.5 0 0 487.82 296.22
  Q 508.86 266.66 526.52 234.85
  C 531.68 225.88 536.88 217.01 541.26 207.72
  Q 547.43 194.66 553.21 181.44
  Z"
/>
<path fill="#253949" d="
  M 266.94 228.07
  L 271.87 272.30
  Q 271.93 272.89 272.52 272.88
  C 274.51 272.88 276.70 272.55 278.52 272.78
  Q 306.06 276.28 333.12 281.56
  L 333.30 281.88
  A 0.64 0.64 0.0 0 1 333.30 282.54
  C 322.23 301.31 308.92 319.27 295.52 336.43
  C 293.92 338.47 292.10 338.90 289.85 339.92
  Q 289.40 340.13 288.97 339.88
  C 281.80 335.71 274.85 325.05 271.18 317.94
  Q 270.37 313.82 269.52 309.92
  C 267.44 300.38 267.22 290.50 268.55 281.00
  C 268.98 277.89 270.66 274.94 270.18 271.63
  Q 268.04 256.81 266.35 234.44
  Q 266.06 230.53 266.94 228.07
  Z"
/>
<path fill="#2f526d" d="
  M 484.51 233.96
  Q 485.66 234.70 487.11 234.30
  Q 487.70 234.13 487.89 234.72
  L 488.98 238.13
  A 2.33 2.31 0.9 0 0 490.45 239.63
  L 497.78 242.10
  A 0.63 0.63 0.0 0 0 498.16 242.10
  Q 501.98 240.72 506.01 241.31
  Q 506.54 241.39 507.02 241.14
  C 509.60 239.79 512.16 238.83 515.10 239.30
  C 517.53 239.69 519.73 237.09 521.37 235.64
  A 1.24 1.23 -62.4 0 1 522.32 235.34
  Q 524.76 235.63 526.52 234.85
  Q 508.86 266.66 487.82 296.22
  A 1.95 1.94 21.5 0 1 485.97 297.02
  Q 453.23 292.45 419.04 292.11
  Q 450.55 260.66 484.51 233.96
  Z"
/>
<path fill="#8883a7" fill-opacity="0.996" d="
  M 459.62 252.10
  Q 459.21 253.14 457.58 253.73
  Q 452.36 251.03 446.44 249.75
  Q 426.63 244.18 406.07 242.09
  Q 405.57 242.03 405.28 242.45
  Q 404.33 243.83 404.45 245.42
  Q 402.99 246.86 403.93 247.39
  Q 402.89 247.63 402.60 249.02
  C 401.97 252.10 400.45 255.14 399.67 258.41
  L 396.85 266.50
  L 391.04 280.39
  L 390.54 282.15
  L 390.13 283.34
  L 387.61 289.37
  Q 387.40 289.87 387.94 289.96
  Q 398.09 291.59 407.44 295.94
  A 1.91 1.89 39.1 0 0 409.36 295.75
  L 414.37 292.05
  Q 416.18 290.90 418.45 288.95
  Q 418.93 288.54 419.84 288.87
  L 416.13 293.16
  Q 413.15 293.44 410.00 296.87
  C 401.09 302.82 391.40 308.94 383.48 316.23
  Q 382.36 317.26 382.78 317.75
  A 2.72 2.72 0.0 0 0 386.02 318.41
  Q 387.90 317.50 390.75 316.74
  Q 404.08 313.15 417.35 309.38
  Q 417.75 309.26 418.01 309.61
  Q 418.72 310.58 417.76 310.79
  Q 402.20 314.18 386.08 319.37
  A 0.37 0.37 0.0 0 0 386.16 320.09
  L 422.85 322.52
  L 423.12 323.50
  C 421.42 324.97 419.79 323.79 418.30 323.67
  Q 403.10 322.37 387.13 322.01
  L 379.64 317.36
  L 407.76 297.18
  Q 408.29 296.80 407.69 296.56
  Q 397.85 292.60 387.35 291.09
  Q 386.91 291.03 386.76 291.44
  L 377.69 316.04
  L 376.58 315.37
  L 384.67 292.73
  L 385.60 289.85
  L 388.38 283.30
  L 396.44 262.63
  L 397.65 259.40
  C 398.56 257.26 401.38 251.22 400.96 248.98
  Q 400.87 248.52 401.31 248.34
  Q 402.50 247.87 402.17 246.79
  L 403.89 241.97
  Q 404.09 241.39 403.48 241.33
  L 364.04 237.13
  L 357.49 236.90
  L 325.50 236.69
  Q 324.85 236.69 324.89 237.34
  Q 325.07 240.52 326.74 243.51
  L 327.99 247.01
  L 329.87 252.46
  L 334.65 264.07
  A 1.21 1.21 0.0 0 0 335.26 264.71
  Q 345.88 269.75 357.12 273.24
  A 1.48 1.47 -54.0 0 0 358.42 273.03
  L 369.49 265.05
  Q 369.98 264.70 369.92 264.10
  L 368.43 250.42
  L 368.42 248.05
  Q 368.29 245.28 369.30 245.72
  L 369.93 250.94
  L 371.17 263.27
  Q 371.37 265.25 369.75 266.41
  Q 363.67 270.73 359.21 274.01
  Q 358.30 274.68 359.48 276.16
  Q 359.62 276.84 358.69 277.64
  Q 358.33 277.95 358.27 277.48
  L 358.09 276.19
  C 357.80 275.11 356.90 274.19 355.73 273.85
  Q 344.75 270.62 334.26 265.72
  Q 333.81 265.50 333.62 265.04
  L 328.53 252.35
  L 324.59 240.20
  L 323.74 237.67
  Q 323.58 237.20 323.09 237.10
  Q 320.78 236.64 318.72 237.47
  Q 318.09 236.71 317.89 235.25
  Q 365.65 232.91 411.26 240.78
  C 427.98 243.67 443.62 246.42 459.62 252.10
  Z"
/>
<path fill="#696b6c" fill-opacity="0.427" d="
  M 357.49 236.90
  L 364.04 237.13
  L 403.48 241.33
  Q 404.09 241.39 403.89 241.97
  L 402.17 246.79
  L 398.74 247.93
  Q 396.01 246.98 393.12 246.74
  Q 390.76 246.55 388.46 245.82
  Q 386.14 245.08 383.71 244.86
  C 379.15 244.45 375.10 243.44 370.50 243.83
  Q 370.01 243.87 369.89 243.39
  Q 369.57 242.07 368.51 241.41
  L 368.13 239.60
  A 0.36 0.36 0.0 0 0 367.42 239.65
  L 367.22 242.11
  Q 366.80 245.46 364.86 245.28
  Q 360.27 244.84 355.31 244.84
  L 329.56 244.81
  Q 329.08 244.81 328.66 244.57
  L 326.74 243.51
  Q 325.07 240.52 324.89 237.34
  Q 324.85 236.69 325.50 236.69
  L 357.49 236.90
  Z"
/>
<path fill="#949697" fill-opacity="0.592" d="
  M 357.49 236.90
  L 364.04 237.13
  L 357.49 236.90
  Z"
/>
<path fill="#696b6c" fill-opacity="0.427" d="
  M 324.59 240.20
  L 324.65 243.64
  Q 324.66 244.10 324.45 244.51
  Q 323.85 245.67 322.55 245.64
  Q 322.24 245.63 322.16 245.32
  Q 321.66 243.44 320.28 242.44
  L 318.72 237.47
  Q 320.78 236.64 323.09 237.10
  Q 323.58 237.20 323.74 237.67
  L 324.59 240.20
  Z"
/>
<path fill="#949697" fill-opacity="0.592" d="
  M 368.51 241.41
  L 369.30 245.72
  Q 368.29 245.28 368.42 248.05
  L 367.92 244.22
  L 367.22 242.11
  L 367.42 239.65
  A 0.36 0.36 0.0 0 1 368.13 239.60
  L 368.51 241.41
  Z"
/>
<path fill="#858688" fill-opacity="0.533" d="
  M 324.59 240.20
  L 328.53 252.35
  L 329.59 257.18
  A 0.57 0.56 85.6 0 1 329.01 257.86
  Q 327.72 257.79 326.49 257.21
  Q 326.10 257.03 325.97 256.62
  Q 325.60 255.35 324.60 254.54
  L 320.28 242.44
  Q 321.66 243.44 322.16 245.32
  Q 322.24 245.63 322.55 245.64
  Q 323.85 245.67 324.45 244.51
  Q 324.66 244.10 324.65 243.64
  L 324.59 240.20
  Z"
/>
<path fill="#78797a" fill-opacity="0.482" d="
  M 368.51 241.41
  Q 369.57 242.07 369.89 243.39
  Q 370.01 243.87 370.50 243.83
  C 375.10 243.44 379.15 244.45 383.71 244.86
  Q 386.14 245.08 388.46 245.82
  Q 390.76 246.55 393.12 246.74
  Q 396.01 246.98 398.74 247.93
  L 391.27 252.47
  L 384.09 257.30
  Q 383.43 257.74 383.49 256.95
  L 383.54 256.31
  Q 383.54 256.29 383.56 256.30
  L 383.94 256.45
  Q 383.96 256.46 383.96 256.44
  L 384.00 255.95
  Q 384.04 255.32 383.43 255.19
  L 381.32 254.75
  Q 381.12 254.71 381.13 254.68
  Q 381.19 254.49 381.12 254.37
  Q 380.98 254.11 380.82 254.36
  L 380.58 254.72
  Q 380.26 255.22 379.87 254.77
  Q 379.12 253.90 378.64 254.67
  A 0.48 0.48 0.0 0 1 377.94 254.80
  Q 375.04 252.65 372.23 254.78
  Q 371.82 255.09 371.61 254.63
  L 369.93 250.94
  L 369.30 245.72
  L 368.51 241.41
  Z"
/>
<path fill="#696b6c" fill-opacity="0.427" d="
  M 446.44 249.75
  Q 445.75 249.39 445.00 250.93
  Q 443.29 252.81 441.89 253.21
  Q 434.92 254.48 428.92 253.85
  Q 427.38 253.69 425.43 252.14
  C 423.42 249.89 421.16 247.87 419.14 245.55
  C 415.32 241.18 405.70 246.51 404.45 245.42
  Q 404.33 243.83 405.28 242.45
  Q 405.57 242.03 406.07 242.09
  Q 426.63 244.18 446.44 249.75
  Z"
/>
<path fill="#78797a" fill-opacity="0.482" d="
  M 367.22 242.11
  L 367.92 244.22
  L 367.21 249.47
  Q 367.16 249.86 366.76 249.86
  Q 348.22 249.78 329.72 249.87
  A 0.99 0.99 0.0 0 1 328.79 248.54
  Q 329.19 247.44 327.99 247.01
  L 326.74 243.51
  L 328.66 244.57
  Q 329.08 244.81 329.56 244.81
  L 355.31 244.84
  Q 360.27 244.84 364.86 245.28
  Q 366.80 245.46 367.22 242.11
  Z"
/>
<path fill="#8883a7" fill-opacity="0.996" d="
  M 254.84 243.67
  Q 255.24 245.15 254.70 245.36
  Q 238.26 248.66 222.68 254.00
  A 0.36 0.35 46.2 0 0 222.67 254.67
  L 231.45 258.07
  L 237.24 260.21
  Q 245.46 263.67 253.59 267.13
  Q 254.20 267.39 254.97 266.45
  L 255.40 269.55
  L 235.25 260.69
  L 228.71 258.18
  L 220.93 254.88
  Q 220.48 254.69 220.01 254.84
  Q 198.00 262.02 177.63 273.06
  A 0.47 0.47 0.0 0 0 177.79 273.94
  L 192.23 275.85
  L 198.62 276.70
  Q 227.75 281.84 256.14 288.85
  Q 256.60 288.96 257.03 288.77
  L 257.63 288.50
  L 258.19 290.77
  Q 228.47 283.47 198.71 278.19
  L 178.67 275.38
  L 175.59 274.61
  Q 175.11 274.49 174.67 274.72
  Q 154.44 285.25 137.71 299.93
  L 129.70 308.50
  A 0.48 0.48 0.0 0 0 130.06 309.31
  L 142.72 308.99
  Q 155.94 307.79 169.15 308.01
  C 171.04 308.04 173.02 307.13 175.03 307.20
  Q 194.19 307.94 197.32 307.68
  Q 201.43 307.34 214.94 308.03
  L 264.15 310.52
  Q 264.68 310.55 264.70 310.02
  L 264.79 308.47
  L 266.71 312.80
  Q 207.72 308.19 149.25 310.36
  Q 138.48 310.75 126.84 310.85
  A 0.72 0.72 0.0 0 1 126.29 309.65
  C 136.84 297.74 148.77 288.16 162.71 279.67
  Q 205.13 253.82 254.84 243.67
  Z"
/>
<path fill="#5a5454" d="
  M 425.43 252.14
  L 431.04 261.22
  Q 430.39 262.10 429.52 262.17
  Q 428.98 262.21 428.79 261.70
  Q 425.43 252.42 417.61 246.40
  C 414.54 244.05 407.99 246.12 403.93 247.39
  Q 402.99 246.86 404.45 245.42
  C 405.70 246.51 415.32 241.18 419.14 245.55
  C 421.16 247.87 423.42 249.89 425.43 252.14
  Z"
/>
<path fill="#858688" fill-opacity="0.533" d="
  M 367.92 244.22
  L 368.42 248.05
  L 368.43 250.42
  Q 368.63 253.76 366.78 255.49
  Q 366.34 255.90 365.73 255.90
  L 334.67 255.87
  Q 334.19 255.87 333.90 256.26
  L 333.14 257.29
  A 0.36 0.36 0.0 0 1 332.51 256.98
  Q 332.82 255.85 331.95 255.74
  A 0.86 0.85 -88.8 0 1 331.21 254.96
  Q 331.05 253.01 329.87 252.46
  L 327.99 247.01
  Q 329.19 247.44 328.79 248.54
  A 0.99 0.99 0.0 0 0 329.72 249.87
  Q 348.22 249.78 366.76 249.86
  Q 367.16 249.86 367.21 249.47
  L 367.92 244.22
  Z"
/>
<path fill="#b4aeae" d="
  M 431.04 261.22
  L 441.89 253.21
  Q 443.29 252.81 445.00 250.93
  L 445.39 250.97
  Q 446.06 251.04 445.54 251.47
  L 439.00 256.69
  L 431.79 262.02
  A 1.53 1.53 0.0 0 0 431.36 263.99
  Q 433.44 267.76 434.08 272.26
  Q 434.18 272.95 434.49 273.23
  Q 434.89 273.58 435.52 273.68
  L 419.84 288.87
  Q 418.93 288.54 418.45 288.95
  Q 416.18 290.90 414.37 292.05
  Q 402.88 285.27 390.13 283.34
  L 390.54 282.15
  Q 402.41 284.43 413.07 289.94
  Q 413.27 290.04 413.48 290.05
  Q 413.86 290.07 413.91 290.01
  A 1.18 1.10 -53.0 0 0 413.73 288.25
  L 408.98 285.43
  Q 408.48 285.13 407.91 285.25
  Q 406.68 285.50 405.90 284.66
  Q 405.60 284.34 405.17 284.22
  L 391.04 280.39
  L 396.85 266.50
  L 398.33 268.85
  A 0.63 0.62 -28.4 0 0 399.12 269.08
  L 411.35 263.42
  A 1.40 1.38 -48.6 0 1 412.33 263.35
  L 421.82 266.11
  A 0.27 0.27 0.0 0 0 422.06 265.64
  Q 412.44 257.97 399.67 258.41
  C 400.45 255.14 401.97 252.10 402.60 249.02
  Q 402.89 247.63 403.93 247.39
  C 407.99 246.12 414.54 244.05 417.61 246.40
  Q 425.43 252.42 428.79 261.70
  Q 428.98 262.21 429.52 262.17
  Q 430.39 262.10 431.04 261.22
  Z"
/>
<path fill="#696b6c" fill-opacity="0.427" d="
  M 254.70 245.36
  Q 255.25 247.68 254.93 249.17
  C 253.87 250.31 253.72 252.78 251.46 252.81
  Q 250.86 252.82 250.32 253.07
  Q 245.63 255.22 240.52 256.29
  A 2.18 2.15 -72.7 0 0 239.49 256.84
  Q 237.52 258.73 234.58 258.69
  Q 234.55 258.69 234.55 258.66
  L 234.50 258.34
  Q 234.48 258.15 234.29 258.15
  L 231.45 258.07
  L 222.67 254.67
  A 0.36 0.35 46.2 0 1 222.68 254.00
  Q 238.26 248.66 254.70 245.36
  Z"
/>
<path fill="#b4aeae" d="
  M 402.17 246.79
  Q 402.50 247.87 401.31 248.34
  Q 400.87 248.52 400.96 248.98
  C 401.38 251.22 398.56 257.26 397.65 259.40
  Q 394.23 258.98 391.64 260.58
  Q 390.77 261.12 391.79 261.14
  Q 394.46 261.19 396.44 262.63
  L 388.38 283.30
  Q 374.82 282.25 362.19 286.61
  L 357.77 287.96
  A 0.36 0.35 -60.1 0 0 357.95 288.65
  L 362.20 287.59
  C 369.92 287.99 377.45 288.20 385.01 289.71
  Q 385.02 289.90 385.01 290.05
  Q 384.99 290.43 384.62 290.37
  Q 375.31 288.83 365.90 289.25
  Q 365.67 289.26 364.61 289.16
  Q 363.59 289.06 363.39 289.82
  A 1.33 1.33 0.0 0 0 364.94 291.46
  C 368.56 290.71 372.34 292.13 375.45 292.24
  Q 379.95 292.40 384.67 292.73
  L 376.58 315.37
  L 373.62 313.42
  Q 373.17 313.12 372.64 313.26
  L 353.28 318.23
  L 334.70 316.92
  L 317.77 315.73
  L 315.75 315.53
  Q 315.10 314.98 313.71 315.44
  Q 313.62 313.85 315.44 312.28
  Q 314.49 314.36 318.29 314.18
  Q 318.85 314.16 319.19 313.72
  L 323.81 307.81
  Q 324.09 307.45 323.64 307.36
  L 319.46 306.59
  L 320.82 304.38
  C 321.58 306.89 323.66 306.38 325.09 304.84
  Q 329.55 300.03 334.40 295.56
  Q 334.79 295.20 334.48 294.77
  Q 332.44 291.90 329.28 291.56
  Q 330.04 290.98 330.75 289.55
  C 332.40 291.39 335.13 294.35 337.71 293.47
  Q 342.87 291.72 348.09 289.96
  Q 348.58 289.80 348.84 289.33
  C 349.68 287.78 350.96 287.12 351.87 285.74
  Q 354.34 281.99 357.86 279.13
  A 0.81 0.81 0.0 0 0 358.13 278.33
  Q 357.85 277.23 358.09 276.19
  L 358.27 277.48
  Q 358.33 277.95 358.69 277.64
  Q 359.62 276.84 359.48 276.16
  Q 363.22 272.92 366.90 269.89
  C 371.20 266.35 376.67 266.24 380.70 262.12
  Q 385.67 257.04 391.27 252.47
  L 398.74 247.93
  L 402.17 246.79
  Z"
/>
<path fill="#78797a" fill-opacity="0.482" d="
  M 254.93 249.17
  L 255.01 253.24
  Q 253.64 253.01 253.79 254.79
  A 1.04 0.98 59.6 0 1 253.66 255.36
  Q 252.77 256.97 251.22 256.90
  Q 250.72 256.88 250.25 257.06
  C 248.24 257.82 243.43 258.41 243.19 260.84
  A 0.53 0.52 -81.1 0 1 242.56 261.30
  L 237.24 260.21
  L 231.45 258.07
  L 234.29 258.15
  Q 234.48 258.15 234.50 258.34
  L 234.55 258.66
  Q 234.55 258.69 234.58 258.69
  Q 237.52 258.73 239.49 256.84
  A 2.18 2.15 -72.7 0 1 240.52 256.29
  Q 245.63 255.22 250.32 253.07
  Q 250.86 252.82 251.46 252.81
  C 253.72 252.78 253.87 250.31 254.93 249.17
  Z"
/>
<path fill="#78797a" fill-opacity="0.482" d="
  M 446.44 249.75
  Q 452.36 251.03 457.58 253.73
  L 453.09 257.83
  L 448.06 261.85
  A 0.50 0.50 0.0 0 1 447.25 261.42
  Q 447.31 260.77 446.50 260.78
  Q 441.16 260.85 435.77 260.70
  Q 435.10 260.68 435.67 260.32
  Q 437.88 258.94 439.00 256.69
  L 445.54 251.47
  Q 446.06 251.04 445.39 250.97
  L 445.00 250.93
  Q 445.75 249.39 446.44 249.75
  Z"
/>
<path fill="#949697" fill-opacity="0.592" d="
  M 368.43 250.42
  L 369.92 264.10
  Q 369.98 264.70 369.49 265.05
  L 358.42 273.03
  A 1.48 1.47 -54.0 0 1 357.12 273.24
  Q 345.88 269.75 335.26 264.71
  A 1.21 1.21 0.0 0 1 334.65 264.07
  L 329.87 252.46
  Q 331.05 253.01 331.21 254.96
  A 0.86 0.85 -88.8 0 0 331.95 255.74
  Q 332.82 255.85 332.51 256.98
  A 0.36 0.36 0.0 0 0 333.14 257.29
  L 333.90 256.26
  Q 334.19 255.87 334.67 255.87
  L 365.73 255.90
  Q 366.34 255.90 366.78 255.49
  Q 368.63 253.76 368.43 250.42
  Z"
/>
<path fill="#949697" fill-opacity="0.592" d="
  M 369.93 250.94
  L 371.61 254.63
  Q 371.82 255.09 372.23 254.78
  Q 375.04 252.65 377.94 254.80
  A 0.48 0.48 0.0 0 0 378.64 254.67
  Q 379.12 253.90 379.87 254.77
  Q 380.26 255.22 380.58 254.72
  L 380.82 254.36
  Q 380.98 254.11 381.12 254.37
  Q 381.19 254.49 381.13 254.68
  Q 381.12 254.71 381.32 254.75
  L 383.43 255.19
  Q 384.04 255.32 384.00 255.95
  L 383.96 256.44
  Q 383.96 256.46 383.94 256.45
  L 383.56 256.30
  Q 383.54 256.29 383.54 256.31
  L 383.49 256.95
  Q 383.43 257.74 384.09 257.30
  L 391.27 252.47
  Q 385.67 257.04 380.70 262.12
  C 376.67 266.24 371.20 266.35 366.90 269.89
  Q 363.22 272.92 359.48 276.16
  Q 358.30 274.68 359.21 274.01
  Q 363.67 270.73 369.75 266.41
  Q 371.37 265.25 371.17 263.27
  L 369.93 250.94
  Z"
/>
<path fill="#78797a" fill-opacity="0.482" d="
  M 425.43 252.14
  Q 427.38 253.69 428.92 253.85
  Q 434.92 254.48 441.89 253.21
  L 431.04 261.22
  L 425.43 252.14
  Z"
/>
<path fill="#949697" fill-opacity="0.592" d="
  M 328.53 252.35
  L 333.62 265.04
  Q 333.81 265.50 334.26 265.72
  Q 344.75 270.62 355.73 273.85
  C 356.90 274.19 357.80 275.11 358.09 276.19
  Q 357.85 277.23 358.13 278.33
  A 0.81 0.81 0.0 0 1 357.86 279.13
  Q 354.34 281.99 351.87 285.74
  C 350.96 287.12 349.68 287.78 348.84 289.33
  Q 348.58 289.80 348.09 289.96
  Q 342.87 291.72 337.71 293.47
  C 335.13 294.35 332.40 291.39 330.75 289.55
  L 334.23 283.97
  A 3.67 3.64 50.9 0 0 334.55 280.74
  L 324.60 254.54
  Q 325.60 255.35 325.97 256.62
  Q 326.10 257.03 326.49 257.21
  Q 327.72 257.79 329.01 257.86
  A 0.57 0.56 85.6 0 0 329.59 257.18
  L 328.53 252.35
  Z"
/>
<path fill="#858688" fill-opacity="0.533" d="
  M 255.01 253.24
  L 254.97 266.45
  Q 254.20 267.39 253.59 267.13
  Q 245.46 263.67 237.24 260.21
  L 242.56 261.30
  A 0.53 0.52 -81.1 0 0 243.19 260.84
  C 243.43 258.41 248.24 257.82 250.25 257.06
  Q 250.72 256.88 251.22 256.90
  Q 252.77 256.97 253.66 255.36
  A 1.04 0.98 59.6 0 0 253.79 254.79
  Q 253.64 253.01 255.01 253.24
  Z"
/>
<path fill="#696b6c" fill-opacity="0.427" d="
  M 228.71 258.18
  L 230.49 260.23
  Q 230.82 260.61 230.40 260.89
  Q 225.72 263.92 220.28 265.06
  Q 219.50 265.22 217.71 266.45
  C 214.85 268.40 210.80 268.31 208.54 269.82
  Q 206.59 271.12 204.98 270.79
  Q 204.38 270.67 203.90 271.05
  L 197.94 275.84
  A 0.52 0.49 23.7 0 1 197.61 275.96
  L 192.23 275.85
  L 177.79 273.94
  A 0.47 0.47 0.0 0 1 177.63 273.06
  Q 198.00 262.02 220.01 254.84
  Q 220.48 254.69 220.93 254.88
  L 228.71 258.18
  Z"
/>
<path fill="#949697" fill-opacity="0.592" d="
  M 439.00 256.69
  Q 437.88 258.94 435.67 260.32
  Q 435.10 260.68 435.77 260.70
  Q 441.16 260.85 446.50 260.78
  Q 447.31 260.77 447.25 261.42
  A 0.50 0.50 0.0 0 0 448.06 261.85
  L 453.09 257.83
  L 435.52 273.68
  Q 434.89 273.58 434.49 273.23
  Q 434.18 272.95 434.08 272.26
  Q 433.44 267.76 431.36 263.99
  A 1.53 1.53 0.0 0 1 431.79 262.02
  L 439.00 256.69
  Z"
/>
<path fill="#858688" fill-opacity="0.533" d="
  M 228.71 258.18
  L 235.25 260.69
  L 240.46 263.69
  Q 240.89 263.93 240.77 264.41
  Q 240.72 264.62 240.56 264.75
  Q 240.39 264.90 239.75 264.89
  Q 239.28 264.88 238.93 265.14
  Q 238.52 265.45 238.02 265.34
  Q 235.99 264.91 234.55 266.48
  Q 234.27 266.79 233.84 266.80
  L 231.77 266.86
  Q 231.28 266.87 230.96 267.24
  Q 230.11 268.22 228.74 267.80
  A 0.69 0.69 0.0 0 0 227.89 268.22
  Q 227.62 268.95 227.07 268.87
  Q 226.74 268.81 226.45 268.96
  L 223.28 270.58
  Q 222.85 270.80 222.38 270.77
  Q 221.37 270.70 220.63 271.38
  Q 220.18 271.78 219.59 271.81
  L 217.81 271.87
  Q 217.36 271.89 217.11 272.25
  Q 216.58 273.04 215.85 272.80
  Q 215.31 272.63 214.99 273.10
  Q 214.42 273.91 213.81 273.76
  A 2.82 2.74 5.2 0 0 210.34 276.57
  Q 210.39 277.39 208.84 277.48
  C 205.14 277.69 202.62 276.15 198.62 276.70
  L 192.23 275.85
  L 197.61 275.96
  A 0.52 0.49 23.7 0 0 197.94 275.84
  L 203.90 271.05
  Q 204.38 270.67 204.98 270.79
  Q 206.59 271.12 208.54 269.82
  C 210.80 268.31 214.85 268.40 217.71 266.45
  Q 219.50 265.22 220.28 265.06
  Q 225.72 263.92 230.40 260.89
  Q 230.82 260.61 230.49 260.23
  L 228.71 258.18
  Z"
/>
<path fill="#f9ee9e" d="
  M 399.67 258.41
  Q 412.44 257.97 422.06 265.64
  A 0.27 0.27 0.0 0 1 421.82 266.11
  L 412.33 263.35
  A 1.40 1.38 -48.6 0 0 411.35 263.42
  L 399.12 269.08
  A 0.63 0.62 -28.4 0 1 398.33 268.85
  L 396.85 266.50
  L 399.67 258.41
  Z"
/>
<path fill="#f9ee9e" d="
  M 397.65 259.40
  L 396.44 262.63
  Q 394.46 261.19 391.79 261.14
  Q 390.77 261.12 391.64 260.58
  Q 394.23 258.98 397.65 259.40
  Z"
/>
<path fill="#949697" fill-opacity="0.592" d="
  M 235.25 260.69
  L 255.40 269.55
  L 257.63 288.50
  L 257.03 288.77
  Q 256.60 288.96 256.14 288.85
  Q 227.75 281.84 198.62 276.70
  C 202.62 276.15 205.14 277.69 208.84 277.48
  Q 210.39 277.39 210.34 276.57
  A 2.82 2.74 5.2 0 1 213.81 273.76
  Q 214.42 273.91 214.99 273.10
  Q 215.31 272.63 215.85 272.80
  Q 216.58 273.04 217.11 272.25
  Q 217.36 271.89 217.81 271.87
  L 219.59 271.81
  Q 220.18 271.78 220.63 271.38
  Q 221.37 270.70 222.38 270.77
  Q 222.85 270.80 223.28 270.58
  L 226.45 268.96
  Q 226.74 268.81 227.07 268.87
  Q 227.62 268.95 227.89 268.22
  A 0.69 0.69 0.0 0 1 228.74 267.80
  Q 230.11 268.22 230.96 267.24
  Q 231.28 266.87 231.77 266.86
  L 233.84 266.80
  Q 234.27 266.79 234.55 266.48
  Q 235.99 264.91 238.02 265.34
  Q 238.52 265.45 238.93 265.14
  Q 239.28 264.88 239.75 264.89
  Q 240.39 264.90 240.56 264.75
  Q 240.72 264.62 240.77 264.41
  Q 240.89 263.93 240.46 263.69
  L 235.25 260.69
  Z"
/>
<path fill="#696b6c" fill-opacity="0.427" d="
  M 178.67 275.38
  Q 181.05 277.01 184.52 276.91
  A 0.73 0.72 38.8 0 1 184.68 278.35
  Q 181.23 278.98 177.81 280.71
  C 171.54 283.89 166.35 286.27 161.31 290.42
  Q 159.93 291.55 156.30 294.03
  C 155.07 294.88 153.33 295.48 151.98 296.42
  Q 150.34 297.57 148.82 298.24
  C 146.70 299.16 145.49 300.33 143.09 300.98
  Q 141.13 301.52 139.42 302.76
  Q 139.22 302.90 138.99 302.83
  Q 138.86 302.79 138.72 302.73
  Q 138.42 302.60 138.25 302.88
  Q 137.21 304.60 136.01 304.97
  Q 134.38 305.48 133.88 306.69
  Q 133.68 307.17 133.19 307.02
  L 132.89 306.92
  A 0.45 0.45 0.0 0 1 132.94 306.05
  L 133.77 305.89
  A 0.34 0.34 0.0 0 0 133.95 305.77
  L 137.71 299.93
  Q 154.44 285.25 174.67 274.72
  Q 175.11 274.49 175.59 274.61
  L 178.67 275.38
  Z"
/>
<path fill="#858688" fill-opacity="0.533" d="
  M 178.67 275.38
  L 198.71 278.19
  L 206.02 280.65
  Q 206.28 280.74 206.02 280.82
  Q 205.80 280.89 205.53 280.85
  Q 205.18 280.81 205.43 281.06
  L 205.69 281.31
  A 0.27 0.27 0.0 0 1 205.50 281.77
  L 200.61 281.81
  A 0.87 0.86 13.8 0 0 199.87 282.25
  Q 198.99 283.77 197.33 283.85
  Q 196.76 283.88 196.26 284.14
  L 191.18 286.88
  Q 191.05 286.95 191.01 286.80
  Q 190.98 286.69 190.97 286.53
  Q 190.95 286.36 190.79 286.43
  Q 187.07 288.27 183.21 290.04
  A 2.09 0.05 -17.4 0 1 181.60 290.59
  Q 179.75 291.17 178.74 292.31
  A 0.07 0.07 0.0 0 0 178.76 292.42
  Q 178.89 292.48 179.11 292.48
  A 0.13 0.13 0.0 0 1 179.13 292.73
  Q 174.34 293.57 171.70 297.76
  A 0.64 0.63 19.1 0 1 171.10 298.05
  L 170.27 297.95
  Q 170.04 297.92 169.91 298.12
  Q 169.65 298.51 169.99 298.50
  A 0.11 0.10 31.2 0 1 170.04 298.70
  Q 168.11 299.60 166.89 301.41
  Q 166.67 301.74 166.54 301.37
  L 166.43 301.04
  A 0.13 0.13 0.0 0 0 166.21 300.99
  L 163.37 303.78
  Q 163.27 303.88 163.13 303.88
  L 162.62 303.87
  Q 162.09 303.87 161.86 304.34
  Q 161.52 305.06 160.85 304.81
  Q 160.32 304.61 160.08 305.11
  Q 159.53 306.26 158.00 306.04
  Q 157.29 305.94 157.22 306.59
  Q 157.14 307.22 156.51 307.27
  L 148.43 307.84
  Q 147.98 307.88 147.58 308.09
  C 145.84 309.00 145.16 308.01 143.69 308.28
  Q 142.89 308.43 142.72 308.99
  L 130.06 309.31
  A 0.48 0.48 0.0 0 1 129.70 308.50
  L 137.71 299.93
  L 133.95 305.77
  A 0.34 0.34 0.0 0 1 133.77 305.89
  L 132.94 306.05
  A 0.45 0.45 0.0 0 0 132.89 306.92
  L 133.19 307.02
  Q 133.68 307.17 133.88 306.69
  Q 134.38 305.48 136.01 304.97
  Q 137.21 304.60 138.25 302.88
  Q 138.42 302.60 138.72 302.73
  Q 138.86 302.79 138.99 302.83
  Q 139.22 302.90 139.42 302.76
  Q 141.13 301.52 143.09 300.98
  C 145.49 300.33 146.70 299.16 148.82 298.24
  Q 150.34 297.57 151.98 296.42
  C 153.33 295.48 155.07 294.88 156.30 294.03
  Q 159.93 291.55 161.31 290.42
  C 166.35 286.27 171.54 283.89 177.81 280.71
  Q 181.23 278.98 184.68 278.35
  A 0.73 0.72 38.8 0 0 184.52 276.91
  Q 181.05 277.01 178.67 275.38
  Z"
/>
<path fill="#949697" fill-opacity="0.592" d="
  M 198.71 278.19
  Q 228.47 283.47 258.19 290.77
  Q 260.29 300.04 264.79 308.47
  L 264.70 310.02
  Q 264.68 310.55 264.15 310.52
  L 214.94 308.03
  Q 201.43 307.34 197.32 307.68
  Q 194.19 307.94 175.03 307.20
  C 173.02 307.13 171.04 308.04 169.15 308.01
  Q 155.94 307.79 142.72 308.99
  Q 142.89 308.43 143.69 308.28
  C 145.16 308.01 145.84 309.00 147.58 308.09
  Q 147.98 307.88 148.43 307.84
  L 156.51 307.27
  Q 157.14 307.22 157.22 306.59
  Q 157.29 305.94 158.00 306.04
  Q 159.53 306.26 160.08 305.11
  Q 160.32 304.61 160.85 304.81
  Q 161.52 305.06 161.86 304.34
  Q 162.09 303.87 162.62 303.87
  L 163.13 303.88
  Q 163.27 303.88 163.37 303.78
  L 166.21 300.99
  A 0.13 0.13 0.0 0 1 166.43 301.04
  L 166.54 301.37
  Q 166.67 301.74 166.89 301.41
  Q 168.11 299.60 170.04 298.70
  A 0.11 0.10 31.2 0 0 169.99 298.50
  Q 169.65 298.51 169.91 298.12
  Q 170.04 297.92 170.27 297.95
  L 171.10 298.05
  A 0.64 0.63 19.1 0 0 171.70 297.76
  Q 174.34 293.57 179.13 292.73
  A 0.13 0.13 0.0 0 0 179.11 292.48
  Q 178.89 292.48 178.76 292.42
  A 0.07 0.07 0.0 0 1 178.74 292.31
  Q 179.75 291.17 181.60 290.59
  A 2.09 0.05 -17.4 0 0 183.21 290.04
  Q 187.07 288.27 190.79 286.43
  Q 190.95 286.36 190.97 286.53
  Q 190.98 286.69 191.01 286.80
  Q 191.05 286.95 191.18 286.88
  L 196.26 284.14
  Q 196.76 283.88 197.33 283.85
  Q 198.99 283.77 199.87 282.25
  A 0.87 0.86 13.8 0 1 200.61 281.81
  L 205.50 281.77
  A 0.27 0.27 0.0 0 0 205.69 281.31
  L 205.43 281.06
  Q 205.18 280.81 205.53 280.85
  Q 205.80 280.89 206.02 280.82
  Q 206.28 280.74 206.02 280.65
  L 198.71 278.19
  Z"
/>
<path fill="#dbdbdb" d="
  M 390.54 282.15
  L 391.04 280.39
  L 405.17 284.22
  Q 405.60 284.34 405.90 284.66
  Q 406.68 285.50 407.91 285.25
  Q 408.48 285.13 408.98 285.43
  L 413.73 288.25
  A 1.18 1.10 -53.0 0 1 413.91 290.01
  Q 413.86 290.07 413.48 290.05
  Q 413.27 290.04 413.07 289.94
  Q 402.41 284.43 390.54 282.15
  Z"
/>
<path fill="#8883a7" fill-opacity="0.996" d="
  M 516.14 280.51
  C 548.18 299.93 577.21 322.69 601.00 350.66
  C 610.61 361.95 617.22 372.48 622.54 385.61
  A 0.64 0.64 0.0 0 1 621.99 386.49
  Q 621.23 386.54 620.06 386.20
  C 570.58 371.81 521.78 356.77 471.11 345.27
  Q 470.95 345.40 469.55 344.89
  L 466.13 343.90
  L 469.14 340.90
  Q 469.06 342.94 471.31 343.33
  Q 476.95 344.29 492.93 348.54
  Q 495.67 349.27 498.46 349.81
  C 502.79 350.65 507.70 352.12 512.25 353.26
  Q 531.00 357.95 553.69 364.93
  C 557.25 366.02 562.54 366.85 566.82 368.82
  A 1.34 1.29 -37.7 0 0 567.64 368.91
  Q 569.15 368.60 570.29 369.60
  Q 570.67 369.93 571.16 370.04
  Q 577.51 371.45 583.71 373.36
  Q 601.79 378.95 619.92 384.36
  Q 620.39 384.50 620.30 384.02
  Q 619.83 381.51 618.49 379.50
  L 612.04 367.93
  Q 606.65 359.19 599.53 351.50
  C 597.09 348.54 595.34 345.59 591.91 345.61
  L 585.79 344.85
  Q 584.50 344.17 583.00 344.26
  L 478.79 330.60
  Q 480.48 328.94 479.60 329.77
  L 488.21 330.55
  A 1.34 1.34 0.0 0 0 489.61 329.63
  Q 491.60 323.60 493.92 317.52
  Q 494.56 315.85 495.48 315.66
  Q 513.96 311.86 532.75 309.86
  L 543.73 309.23
  Q 545.70 309.01 547.32 309.61
  L 538.50 310.43
  Q 525.77 311.70 500.25 315.75
  C 497.33 316.21 495.60 316.21 494.33 319.27
  Q 492.16 324.49 490.58 330.15
  Q 490.41 330.78 491.06 330.86
  L 571.57 341.28
  L 575.03 341.97
  L 580.79 342.64
  L 591.82 344.31
  A 0.58 0.58 0.0 0 0 592.33 343.34
  C 570.69 320.02 544.95 300.11 517.83 283.53
  Q 516.47 283.20 514.70 284.27
  L 513.99 284.26
  L 516.14 280.51
  Z"
/>
<path fill="#f9ee9e" d="
  M 388.38 283.30
  L 385.60 289.85
  L 385.01 289.71
  C 377.45 288.20 369.92 287.99 362.20 287.59
  Q 362.34 287.16 362.19 286.61
  Q 374.82 282.25 388.38 283.30
  Z"
/>
<path fill="#f9ee9e" d="
  M 390.13 283.34
  Q 402.88 285.27 414.37 292.05
  L 409.36 295.75
  A 1.91 1.89 39.1 0 1 407.44 295.94
  Q 398.09 291.59 387.94 289.96
  Q 387.40 289.87 387.61 289.37
  L 390.13 283.34
  Z"
/>
<path fill="#78797a" fill-opacity="0.482" d="
  M 517.83 283.53
  Q 516.10 284.47 515.52 285.81
  Q 515.32 286.28 515.66 286.66
  C 520.72 292.41 524.99 297.59 531.98 302.76
  Q 532.08 303.05 532.32 302.82
  A 0.23 0.23 0.0 0 1 532.64 302.82
  L 537.66 307.35
  Q 537.83 307.50 537.83 307.51
  Q 537.78 307.64 537.74 307.78
  Q 537.63 308.17 538.03 308.19
  L 548.24 308.80
  L 543.74 309.02
  L 533.38 307.96
  Q 532.88 307.91 532.59 307.49
  Q 531.98 306.57 530.77 306.58
  A 0.81 0.80 81.8 0 1 530.00 306.00
  Q 529.61 304.66 528.45 304.77
  Q 527.88 304.82 527.47 304.43
  Q 521.66 298.86 515.98 293.15
  Q 515.82 292.99 515.47 292.41
  Q 515.14 291.86 514.56 291.86
  Q 514.08 291.85 513.80 291.46
  Q 512.37 289.46 513.34 286.37
  Q 513.53 285.10 514.70 284.27
  Q 516.47 283.20 517.83 283.53
  Z"
/>
<path fill="#696b6c" fill-opacity="0.427" d="
  M 517.83 283.53
  C 544.95 300.11 570.69 320.02 592.33 343.34
  A 0.58 0.58 0.0 0 1 591.82 344.31
  L 580.79 342.64
  L 577.24 341.28
  Q 576.84 341.13 576.87 340.70
  C 577.03 338.53 573.49 336.50 572.08 335.00
  C 570.00 332.80 567.47 331.66 565.35 329.47
  C 562.51 326.53 559.19 324.42 556.43 321.30
  Q 556.02 320.83 554.97 320.58
  A 0.85 0.85 0.0 0 1 554.34 319.95
  Q 554.13 319.04 553.28 318.83
  Q 552.77 318.71 552.39 318.36
  C 550.64 316.73 548.77 315.23 547.24 313.38
  Q 546.47 312.45 545.02 312.28
  Q 544.65 312.24 544.59 311.93
  Q 544.50 311.48 544.95 311.50
  Q 545.81 311.53 546.00 310.86
  Q 546.15 310.34 546.68 310.25
  L 549.53 309.81
  Q 550.56 309.88 550.93 309.50
  Q 551.25 309.17 550.86 308.93
  Q 550.06 308.44 548.24 308.80
  L 538.03 308.19
  Q 537.63 308.17 537.74 307.78
  Q 537.78 307.64 537.83 307.51
  Q 537.83 307.50 537.66 307.35
  L 532.64 302.82
  A 0.23 0.23 0.0 0 0 532.32 302.82
  Q 532.08 303.05 531.98 302.76
  C 524.99 297.59 520.72 292.41 515.66 286.66
  Q 515.32 286.28 515.52 285.81
  Q 516.10 284.47 517.83 283.53
  Z"
/>
<path fill="#949697" fill-opacity="0.592" d="
  M 513.99 284.26
  L 514.70 284.27
  Q 513.53 285.10 513.34 286.37
  Q 510.93 288.99 510.93 292.51
  A 0.80 0.78 77.9 0 1 510.49 293.21
  Q 509.71 293.59 509.76 294.52
  A 0.37 0.37 0.0 0 0 510.31 294.82
  Q 510.73 294.59 511.05 294.95
  Q 512.99 297.14 514.15 298.17
  Q 514.24 298.26 514.19 298.37
  Q 514.16 298.42 514.14 298.47
  Q 514.10 298.56 514.38 298.71
  Q 515.91 299.52 517.01 300.94
  Q 517.24 301.22 517.29 301.58
  Q 517.50 302.84 518.55 302.82
  Q 519.12 302.81 519.33 303.35
  Q 520.04 305.17 522.12 305.00
  A 0.14 0.14 0.0 0 1 522.27 305.17
  Q 522.24 305.31 522.17 305.43
  Q 521.91 305.89 522.49 305.75
  Q 522.94 305.64 523.24 306.00
  Q 524.77 307.81 526.89 308.13
  A 0.12 0.12 0.0 0 1 526.97 308.30
  L 526.79 308.63
  A 0.39 0.38 -72.9 0 0 527.08 309.19
  L 532.75 309.86
  Q 513.96 311.86 495.48 315.66
  Q 494.56 315.85 493.92 317.52
  Q 491.60 323.60 489.61 329.63
  A 1.34 1.34 0.0 0 1 488.21 330.55
  L 479.60 329.77
  Q 495.88 312.13 508.51 293.11
  C 510.10 290.72 511.75 287.02 513.99 284.26
  Z"
/>
<path fill="#858688" fill-opacity="0.533" d="
  M 513.34 286.37
  Q 512.37 289.46 513.80 291.46
  Q 514.08 291.85 514.56 291.86
  Q 515.14 291.86 515.47 292.41
  Q 515.82 292.99 515.98 293.15
  Q 521.66 298.86 527.47 304.43
  Q 527.88 304.82 528.45 304.77
  Q 529.61 304.66 530.00 306.00
  A 0.81 0.80 81.8 0 0 530.77 306.58
  Q 531.98 306.57 532.59 307.49
  Q 532.88 307.91 533.38 307.96
  L 543.74 309.02
  Q 543.73 309.12 543.73 309.23
  L 532.75 309.86
  L 527.08 309.19
  A 0.39 0.38 -72.9 0 1 526.79 308.63
  L 526.97 308.30
  A 0.12 0.12 0.0 0 0 526.89 308.13
  Q 524.77 307.81 523.24 306.00
  Q 522.94 305.64 522.49 305.75
  Q 521.91 305.89 522.17 305.43
  Q 522.24 305.31 522.27 305.17
  A 0.14 0.14 0.0 0 0 522.12 305.00
  Q 520.04 305.17 519.33 303.35
  Q 519.12 302.81 518.55 302.82
  Q 517.50 302.84 517.29 301.58
  Q 517.24 301.22 517.01 300.94
  Q 515.91 299.52 514.38 298.71
  Q 514.10 298.56 514.14 298.47
  Q 514.16 298.42 514.19 298.37
  Q 514.24 298.26 514.15 298.17
  Q 512.99 297.14 511.05 294.95
  Q 510.73 294.59 510.31 294.82
  A 0.37 0.37 0.0 0 1 509.76 294.52
  Q 509.71 293.59 510.49 293.21
  A 0.80 0.78 77.9 0 0 510.93 292.51
  Q 510.93 288.99 513.34 286.37
  Z"
/>
<path fill="#dbdbdb" d="
  M 362.19 286.61
  Q 362.34 287.16 362.20 287.59
  L 357.95 288.65
  A 0.36 0.35 -60.1 0 1 357.77 287.96
  L 362.19 286.61
  Z"
/>
<path fill="#dbdbdb" d="
  M 385.01 289.71
  L 385.60 289.85
  L 384.67 292.73
  Q 379.95 292.40 375.45 292.24
  C 372.34 292.13 368.56 290.71 364.94 291.46
  A 1.33 1.33 0.0 0 1 363.39 289.82
  Q 363.59 289.06 364.61 289.16
  Q 365.67 289.26 365.90 289.25
  Q 375.31 288.83 384.62 290.37
  Q 384.99 290.43 385.01 290.05
  Q 385.02 289.90 385.01 289.71
  Z"
/>
<path fill="#b4aeae" d="
  M 379.64 317.36
  L 377.69 316.04
  L 386.76 291.44
  Q 386.91 291.03 387.35 291.09
  Q 397.85 292.60 407.69 296.56
  Q 408.29 296.80 407.76 297.18
  L 379.64 317.36
  Z"
/>
<path fill="#949697" fill-opacity="0.592" d="
  M 320.82 304.38
  L 329.28 291.56
  Q 332.44 291.90 334.48 294.77
  Q 334.79 295.20 334.40 295.56
  Q 329.55 300.03 325.09 304.84
  C 323.66 306.38 321.58 306.89 320.82 304.38
  Z"
/>
<path fill="#f9ee9e" d="
  M 416.13 293.16
  L 417.50 300.64
  L 410.00 296.87
  Q 413.15 293.44 416.13 293.16
  Z"
/>
<path fill="#b4aeae" d="
  M 410.00 296.87
  L 417.50 300.64
  L 422.85 322.52
  L 386.16 320.09
  A 0.37 0.37 0.0 0 1 386.08 319.37
  Q 402.20 314.18 417.76 310.79
  Q 418.72 310.58 418.01 309.61
  Q 417.75 309.26 417.35 309.38
  Q 404.08 313.15 390.75 316.74
  Q 387.90 317.50 386.02 318.41
  A 2.72 2.72 0.0 0 1 382.78 317.75
  Q 382.36 317.26 383.48 316.23
  C 391.40 308.94 401.09 302.82 410.00 296.87
  Z"
/>
<path fill="#949697" fill-opacity="0.592" d="
  M 319.46 306.59
  L 323.64 307.36
  Q 324.09 307.45 323.81 307.81
  L 319.19 313.72
  Q 318.85 314.16 318.29 314.18
  Q 314.49 314.36 315.44 312.28
  L 319.46 306.59
  Z"
/>
<path fill="#949697" fill-opacity="0.592" d="
  M 548.24 308.80
  Q 550.06 308.44 550.86 308.93
  Q 551.25 309.17 550.93 309.50
  Q 550.56 309.88 549.53 309.81
  L 547.32 309.61
  Q 545.70 309.01 543.73 309.23
  Q 543.73 309.12 543.74 309.02
  L 548.24 308.80
  Z"
/>
<path fill="#78797a" fill-opacity="0.482" d="
  M 547.32 309.61
  L 549.53 309.81
  L 546.68 310.25
  Q 546.15 310.34 546.00 310.86
  Q 545.81 311.53 544.95 311.50
  Q 544.50 311.48 544.59 311.93
  Q 544.65 312.24 545.02 312.28
  Q 546.47 312.45 547.24 313.38
  C 548.77 315.23 550.64 316.73 552.39 318.36
  Q 552.77 318.71 553.28 318.83
  Q 554.13 319.04 554.34 319.95
  A 0.85 0.85 0.0 0 0 554.97 320.58
  Q 556.02 320.83 556.43 321.30
  C 559.19 324.42 562.51 326.53 565.35 329.47
  C 567.47 331.66 570.00 332.80 572.08 335.00
  C 573.49 336.50 577.03 338.53 576.87 340.70
  Q 576.84 341.13 577.24 341.28
  L 580.79 342.64
  L 575.03 341.97
  Q 574.84 340.51 572.32 340.88
  A 1.19 1.18 -0.4 0 1 570.97 339.55
  Q 571.02 339.14 570.12 338.43
  C 567.21 336.13 565.27 333.30 562.08 331.19
  Q 557.92 328.43 554.95 324.37
  A 1.29 1.29 0.0 0 0 554.21 323.88
  Q 551.57 323.24 550.49 320.82
  Q 550.47 320.77 550.42 320.80
  L 550.18 320.92
  Q 550.09 320.97 550.00 320.90
  Q 546.51 317.93 542.64 315.48
  C 541.17 314.55 540.53 312.85 538.24 312.41
  Q 537.67 312.30 538.01 311.83
  Q 538.53 311.11 539.52 310.72
  Q 539.44 310.46 538.50 310.43
  L 547.32 309.61
  Z"
/>
<path fill="#949697" fill-opacity="0.592" d="
  M 538.50 310.43
  Q 539.44 310.46 539.52 310.72
  L 533.76 312.42
  Q 533.03 312.64 533.52 313.22
  Q 534.19 314.02 534.43 314.98
  Q 534.56 315.51 535.06 315.71
  Q 537.03 316.50 538.49 318.05
  Q 538.82 318.40 539.26 318.57
  Q 541.65 319.53 543.56 321.69
  Q 543.77 321.93 544.02 321.91
  Q 544.39 321.89 544.61 322.17
  Q 545.66 323.48 547.22 323.99
  Q 547.73 324.16 548.07 324.56
  Q 550.04 326.89 552.96 328.06
  Q 553.40 328.24 553.70 328.59
  C 555.95 331.23 558.38 334.56 561.33 336.44
  Q 562.49 337.18 563.36 338.37
  A 0.09 0.09 0.0 0 1 563.27 338.51
  Q 562.81 338.40 562.75 338.73
  Q 562.65 339.36 563.29 339.37
  Q 567.81 339.43 571.57 341.28
  L 491.06 330.86
  Q 490.41 330.78 490.58 330.15
  Q 492.16 324.49 494.33 319.27
  C 495.60 316.21 497.33 316.21 500.25 315.75
  Q 525.77 311.70 538.50 310.43
  Z"
/>
<path fill="#858688" fill-opacity="0.533" d="
  M 539.52 310.72
  Q 538.53 311.11 538.01 311.83
  Q 537.67 312.30 538.24 312.41
  C 540.53 312.85 541.17 314.55 542.64 315.48
  Q 546.51 317.93 550.00 320.90
  Q 550.09 320.97 550.18 320.92
  L 550.42 320.80
  Q 550.47 320.77 550.49 320.82
  Q 551.57 323.24 554.21 323.88
  A 1.29 1.29 0.0 0 1 554.95 324.37
  Q 557.92 328.43 562.08 331.19
  C 565.27 333.30 567.21 336.13 570.12 338.43
  Q 571.02 339.14 570.97 339.55
  A 1.19 1.18 -0.4 0 0 572.32 340.88
  Q 574.84 340.51 575.03 341.97
  L 571.57 341.28
  Q 567.81 339.43 563.29 339.37
  Q 562.65 339.36 562.75 338.73
  Q 562.81 338.40 563.27 338.51
  A 0.09 0.09 0.0 0 0 563.36 338.37
  Q 562.49 337.18 561.33 336.44
  C 558.38 334.56 555.95 331.23 553.70 328.59
  Q 553.40 328.24 552.96 328.06
  Q 550.04 326.89 548.07 324.56
  Q 547.73 324.16 547.22 323.99
  Q 545.66 323.48 544.61 322.17
  Q 544.39 321.89 544.02 321.91
  Q 543.77 321.93 543.56 321.69
  Q 541.65 319.53 539.26 318.57
  Q 538.82 318.40 538.49 318.05
  Q 537.03 316.50 535.06 315.71
  Q 534.56 315.51 534.43 314.98
  Q 534.19 314.02 533.52 313.22
  Q 533.03 312.64 533.76 312.42
  L 539.52 310.72
  Z"
/>
<path fill="#2f526d" d="
  M 440.44 362.71
  Q 433.15 364.69 426.53 368.28
  C 424.81 369.21 422.28 369.93 420.46 371.41
  Q 420.08 371.71 419.59 371.79
  C 415.81 372.43 413.62 374.70 409.66 375.64
  Q 406.97 376.27 397.88 381.17
  C 386.81 369.77 373.36 359.26 357.98 355.57
  Q 357.22 353.02 352.59 352.73
  A 0.90 0.90 0.0 0 1 351.79 352.11
  Q 351.43 350.99 352.17 350.29
  Q 352.56 349.92 352.69 349.40
  C 355.06 339.99 360.59 331.15 366.11 323.21
  L 370.48 317.54
  Q 370.56 317.44 370.52 317.32
  Q 370.48 317.20 370.44 317.06
  Q 370.36 316.84 370.17 316.98
  C 361.89 322.90 354.06 329.50 345.59 335.13
  Q 342.76 337.01 345.30 334.75
  Q 356.02 325.26 369.08 315.72
  L 372.84 315.00
  Q 373.35 314.90 373.78 315.19
  C 387.13 324.06 399.67 333.35 413.29 342.54
  Q 426.56 351.50 439.19 361.34
  Q 441.10 362.83 440.44 362.71
  Z"
/>
<path fill="#696b6c" fill-opacity="0.427" d="
  M 315.75 315.53
  Q 315.77 315.93 315.61 316.33
  Q 315.43 316.80 315.06 316.79
  Q 314.40 316.78 313.71 315.44
  Q 315.10 314.98 315.75 315.53
  Z"
/>
<path fill="#332f2f" d="
  M 317.77 315.73
  L 334.70 316.92
  Q 333.79 320.96 334.80 323.90
  L 311.60 331.78
  A 0.53 0.53 0.0 0 1 310.93 331.11
  Q 313.62 323.17 317.77 315.73
  Z"
/>
<path fill="#6497b0" d="
  M 369.08 315.72
  Q 356.02 325.26 345.30 334.75
  Q 342.76 337.01 345.59 335.13
  C 354.06 329.50 361.89 322.90 370.17 316.98
  Q 370.36 316.84 370.44 317.06
  Q 370.48 317.20 370.52 317.32
  Q 370.56 317.44 370.48 317.54
  L 366.11 323.21
  Q 365.37 322.88 364.40 324.14
  Q 356.70 334.02 352.77 342.76
  Q 352.10 344.27 351.58 344.79
  Q 351.27 345.10 351.26 345.54
  Q 351.25 346.59 350.35 347.23
  Q 349.93 347.53 349.73 348.01
  L 347.27 354.06
  Q 331.55 352.81 317.32 357.81
  Q 317.28 357.67 317.25 357.56
  A 0.55 0.55 0.0 0 1 317.46 357.04
  Q 328.94 348.41 340.10 339.36
  Q 340.24 339.25 340.23 339.06
  Q 340.20 338.59 339.81 338.86
  Q 326.80 347.86 314.64 358.01
  Q 314.59 358.05 314.56 358.11
  L 314.44 358.35
  Q 309.81 361.91 305.51 362.69
  L 291.49 340.88
  Q 329.07 326.12 369.08 315.72
  Z"
/>
<path fill="#5a5454" d="
  M 334.70 316.92
  L 353.28 318.23
  L 334.80 323.90
  Q 333.79 320.96 334.70 316.92
  Z"
/>
<path fill="#332f2f" d="
  M 306.27 326.30
  A 0.81 0.80 -56.1 0 1 306.04 325.11
  L 311.92 317.45
  A 1.44 1.44 0.0 0 1 314.38 318.89
  L 310.52 327.83
  Q 310.20 328.58 309.49 328.17
  L 306.27 326.30
  Z"
/>
<path fill="#b4aeae" d="
  M 423.12 323.50
  L 425.47 333.63
  Q 413.30 331.54 401.57 327.84
  Q 398.94 327.01 396.72 326.53
  Q 394.38 326.02 391.79 325.46
  L 387.13 322.01
  Q 403.10 322.37 418.30 323.67
  C 419.79 323.79 421.42 324.97 423.12 323.50
  Z"
/>
<path fill="#3a607a" d="
  M 366.11 323.21
  C 360.59 331.15 355.06 339.99 352.69 349.40
  Q 352.56 349.92 352.17 350.29
  Q 351.43 350.99 351.79 352.11
  A 0.90 0.90 0.0 0 0 352.59 352.73
  Q 357.22 353.02 357.98 355.57
  L 347.27 354.06
  L 349.73 348.01
  Q 349.93 347.53 350.35 347.23
  Q 351.25 346.59 351.26 345.54
  Q 351.27 345.10 351.58 344.79
  Q 352.10 344.27 352.77 342.76
  Q 356.70 334.02 364.40 324.14
  Q 365.37 322.88 366.11 323.21
  Z"
/>
<path fill="#8883a7" fill-opacity="0.996" d="
  M 425.47 333.63
  L 425.67 335.56
  L 416.83 333.69
  L 395.46 327.96
  Q 393.94 327.69 391.79 325.46
  Q 394.38 326.02 396.72 326.53
  Q 398.94 327.01 401.57 327.84
  Q 413.30 331.54 425.47 333.63
  Z"
/>
<path fill="#5a5454" d="
  M 416.83 333.69
  Q 413.19 336.54 407.75 334.52
  Q 406.52 334.06 405.06 335.02
  L 395.46 327.96
  L 416.83 333.69
  Z"
/>
<path fill="#5a5454" d="
  M 269.03 363.04
  C 268.43 357.75 264.03 357.40 260.06 359.39
  Q 259.31 359.77 259.57 358.96
  Q 264.99 342.65 275.48 329.05
  A 0.56 0.55 46.9 0 1 276.38 329.08
  Q 280.25 334.84 285.59 339.27
  A 0.65 0.65 0.0 0 1 285.75 340.08
  Q 279.11 352.62 269.76 363.27
  Q 269.14 363.98 269.03 363.04
  Z"
/>
<path fill="#949697" fill-opacity="0.592" d="
  M 478.79 330.60
  L 583.00 344.26
  L 571.69 344.07
  A 0.26 0.26 0.0 0 0 571.57 344.56
  C 573.45 345.55 574.90 346.06 576.44 347.44
  Q 578.64 349.40 580.84 351.29
  Q 581.21 351.60 581.66 351.74
  Q 582.85 352.11 583.26 353.34
  Q 583.41 353.77 583.86 353.74
  Q 584.46 353.70 584.68 354.08
  Q 586.35 357.07 588.87 358.28
  Q 588.97 358.33 588.96 358.34
  L 588.65 358.61
  Q 588.53 358.72 588.58 358.87
  Q 588.90 359.76 589.81 359.81
  Q 590.31 359.83 590.58 360.27
  Q 592.32 363.06 595.27 364.11
  Q 595.37 364.15 595.33 364.24
  Q 595.29 364.38 595.24 364.53
  Q 595.19 364.67 595.34 364.70
  L 596.30 364.90
  A 0.24 0.07 10.1 0 1 596.50 365.00
  Q 596.53 365.15 596.49 365.29
  Q 596.41 365.59 596.66 365.77
  C 597.70 366.52 597.44 367.64 598.22 368.34
  Q 598.84 368.89 599.68 368.83
  Q 600.12 368.80 600.50 369.03
  L 609.89 375.00
  A 0.89 0.88 -66.2 0 1 610.27 375.99
  Q 609.99 376.97 610.85 377.74
  Q 611.13 377.99 611.25 378.36
  L 611.93 380.61
  Q 612.08 381.10 612.55 381.29
  L 618.02 383.47
  A 0.85 0.84 -85.3 0 0 619.16 382.50
  L 618.49 379.50
  Q 619.83 381.51 620.30 384.02
  Q 620.39 384.50 619.92 384.36
  Q 601.79 378.95 583.71 373.36
  Q 577.51 371.45 571.16 370.04
  Q 570.67 369.93 570.29 369.60
  Q 569.15 368.60 567.64 368.91
  A 1.34 1.29 -37.7 0 1 566.82 368.82
  C 562.54 366.85 557.25 366.02 553.69 364.93
  Q 531.00 357.95 512.25 353.26
  C 507.70 352.12 502.79 350.65 498.46 349.81
  Q 495.67 349.27 492.93 348.54
  Q 476.95 344.29 471.31 343.33
  Q 469.06 342.94 469.14 340.90
  L 478.79 330.60
  Z"
/>
<path fill="#332f2f" d="
  M 416.83 333.69
  L 425.67 335.56
  L 429.87 351.68
  Q 430.04 352.31 429.51 351.94
  L 405.06 335.02
  Q 406.52 334.06 407.75 334.52
  Q 413.19 336.54 416.83 333.69
  Z"
/>
<path fill="#b4aeae" d="
  M 274.21 338.27
  Q 278.13 331.65 275.71 338.94
  Q 275.03 340.97 272.21 344.49
  A 0.30 0.30 0.0 0 1 271.69 344.22
  Q 272.58 341.03 274.21 338.27
  Z"
/>
<path fill="#2f526d" d="
  M 317.32 357.81
  Q 315.76 358.67 314.44 358.35
  L 314.56 358.11
  Q 314.59 358.05 314.64 358.01
  Q 326.80 347.86 339.81 338.86
  Q 340.20 338.59 340.23 339.06
  Q 340.24 339.25 340.10 339.36
  Q 328.94 348.41 317.46 357.04
  A 0.55 0.55 0.0 0 0 317.25 357.56
  Q 317.28 357.67 317.32 357.81
  Z"
/>
<path fill="#2f526d" d="
  M 291.49 340.88
  L 305.51 362.69
  L 289.35 365.08
  A 0.54 0.54 0.0 0 1 288.73 364.49
  Q 289.60 354.63 290.34 344.51
  Q 290.52 342.16 291.49 340.88
  Z"
/>
<path fill="#332f2f" d="
  M 466.13 343.90
  L 469.55 344.89
  Q 469.22 345.10 469.29 345.23
  Q 475.04 356.23 478.22 368.25
  Q 472.53 375.35 470.37 386.03
  Q 462.43 368.13 460.66 349.66
  Q 460.62 349.16 460.98 348.82
  L 466.13 343.90
  Z"
/>
<path fill="#858688" fill-opacity="0.533" d="
  M 583.00 344.26
  Q 584.50 344.17 585.79 344.85
  L 582.17 344.79
  A 0.70 0.70 0.0 0 0 581.74 346.06
  C 588.37 350.94 593.78 357.46 600.70 361.89
  C 602.72 363.18 604.40 364.54 606.62 365.88
  Q 608.38 366.95 609.97 369.74
  A 0.92 0.92 0.0 0 0 611.66 369.50
  L 612.04 367.93
  L 618.49 379.50
  L 619.16 382.50
  A 0.85 0.84 -85.3 0 1 618.02 383.47
  L 612.55 381.29
  Q 612.08 381.10 611.93 380.61
  L 611.25 378.36
  Q 611.13 377.99 610.85 377.74
  Q 609.99 376.97 610.27 375.99
  A 0.89 0.88 -66.2 0 0 609.89 375.00
  L 600.50 369.03
  Q 600.12 368.80 599.68 368.83
  Q 598.84 368.89 598.22 368.34
  C 597.44 367.64 597.70 366.52 596.66 365.77
  Q 596.41 365.59 596.49 365.29
  Q 596.53 365.15 596.50 365.00
  A 0.24 0.07 10.1 0 0 596.30 364.90
  L 595.34 364.70
  Q 595.19 364.67 595.24 364.53
  Q 595.29 364.38 595.33 364.24
  Q 595.37 364.15 595.27 364.11
  Q 592.32 363.06 590.58 360.27
  Q 590.31 359.83 589.81 359.81
  Q 588.90 359.76 588.58 358.87
  Q 588.53 358.72 588.65 358.61
  L 588.96 358.34
  Q 588.97 358.33 588.87 358.28
  Q 586.35 357.07 584.68 354.08
  Q 584.46 353.70 583.86 353.74
  Q 583.41 353.77 583.26 353.34
  Q 582.85 352.11 581.66 351.74
  Q 581.21 351.60 580.84 351.29
  Q 578.64 349.40 576.44 347.44
  C 574.90 346.06 573.45 345.55 571.57 344.56
  A 0.26 0.26 0.0 0 1 571.69 344.07
  L 583.00 344.26
  Z"
/>
<path fill="#78797a" fill-opacity="0.482" d="
  M 585.79 344.85
  L 591.91 345.61
  Q 588.99 346.31 592.43 348.23
  C 593.99 349.11 595.00 350.25 596.22 351.43
  Q 596.54 351.74 596.99 351.79
  Q 598.39 351.92 599.20 353.12
  Q 599.59 353.70 599.74 353.02
  Q 599.85 352.54 599.53 352.50
  A 0.36 0.36 0.0 0 1 599.23 352.05
  Q 599.32 351.74 599.53 351.50
  Q 606.65 359.19 612.04 367.93
  L 611.66 369.50
  A 0.92 0.92 0.0 0 1 609.97 369.74
  Q 608.38 366.95 606.62 365.88
  C 604.40 364.54 602.72 363.18 600.70 361.89
  C 593.78 357.46 588.37 350.94 581.74 346.06
  A 0.70 0.70 0.0 0 1 582.17 344.79
  L 585.79 344.85
  Z"
/>
<path fill="#696b6c" fill-opacity="0.427" d="
  M 591.91 345.61
  C 595.34 345.59 597.09 348.54 599.53 351.50
  Q 599.32 351.74 599.23 352.05
  A 0.36 0.36 0.0 0 0 599.53 352.50
  Q 599.85 352.54 599.74 353.02
  Q 599.59 353.70 599.20 353.12
  Q 598.39 351.92 596.99 351.79
  Q 596.54 351.74 596.22 351.43
  C 595.00 350.25 593.99 349.11 592.43 348.23
  Q 588.99 346.31 591.91 345.61
  Z"
/>
<path fill="#6497b0" d="
  M 347.31 355.36
  Q 347.29 356.49 346.27 357.51
  Q 345.92 357.86 345.80 358.35
  C 345.35 360.29 345.36 363.91 344.12 365.27
  Q 343.78 365.64 343.72 366.15
  Q 342.73 374.49 340.93 382.68
  C 339.75 388.06 339.47 393.66 338.43 399.17
  C 337.89 402.04 337.75 404.73 337.47 407.55
  Q 337.44 407.90 337.10 407.99
  Q 336.90 408.04 336.71 408.13
  Q 317.61 393.98 309.94 371.52
  C 309.22 369.42 308.46 363.10 311.54 361.74
  Q 328.48 354.27 347.31 355.36
  Z"
/>
<path fill="#3a607a" d="
  M 347.31 355.36
  L 349.80 355.66
  C 348.64 361.35 346.23 367.07 345.13 372.28
  C 343.04 382.20 340.41 392.66 339.64 402.76
  Q 339.41 405.72 338.77 408.75
  L 336.71 408.13
  Q 336.90 408.04 337.10 407.99
  Q 337.44 407.90 337.47 407.55
  C 337.75 404.73 337.89 402.04 338.43 399.17
  C 339.47 393.66 339.75 388.06 340.93 382.68
  Q 342.73 374.49 343.72 366.15
  Q 343.78 365.64 344.12 365.27
  C 345.36 363.91 345.35 360.29 345.80 358.35
  Q 345.92 357.86 346.27 357.51
  Q 347.29 356.49 347.31 355.36
  Z"
/>
<path fill="#2f526d" d="
  M 349.80 355.66
  C 369.23 357.92 383.09 368.48 396.06 381.45
  A 0.74 0.74 0.0 0 1 396.12 382.44
  C 392.92 386.38 389.87 388.12 384.47 391.60
  C 371.94 399.66 353.93 408.52 338.77 408.75
  Q 339.41 405.72 339.64 402.76
  C 340.41 392.66 343.04 382.20 345.13 372.28
  C 346.23 367.07 348.64 361.35 349.80 355.66
  Z"
/>
<path fill="#dbdbdb" d="
  M 266.31 360.19
  C 269.66 362.04 266.78 366.66 264.74 368.47
  Q 264.36 368.80 263.86 368.88
  L 256.99 369.94
  Q 256.53 370.01 256.64 369.56
  C 257.85 364.53 260.42 356.93 266.31 360.19
  Z"
/>
<path fill="#253949" d="
  M 440.44 362.71
  L 430.30 394.23
  A 0.74 0.73 -69.3 0 1 429.31 394.68
  L 397.88 381.17
  Q 406.97 376.27 409.66 375.64
  C 413.62 374.70 415.81 372.43 419.59 371.79
  Q 420.08 371.71 420.46 371.41
  C 422.28 369.93 424.81 369.21 426.53 368.28
  Q 433.15 364.69 440.44 362.71
  Z"
/>
<path fill="#6497b0" d="
  M 311.65 405.59
  Q 309.92 404.66 308.81 403.00
  C 306.67 399.81 304.28 397.88 303.52 393.88
  C 303.34 392.96 302.86 392.46 301.93 392.47
  L 302.24 389.58
  Q 302.29 389.05 301.80 388.85
  Q 300.97 388.53 299.98 388.58
  Q 280.15 384.75 260.26 381.14
  C 251.36 379.52 241.17 377.90 231.89 377.30
  Q 229.53 377.15 227.60 375.86
  L 305.80 364.07
  Q 308.00 363.73 307.94 365.96
  C 307.62 378.18 306.13 393.94 311.65 405.59
  Z"
/>
<path fill="#5a5454" d="
  M 478.22 368.25
  L 482.49 383.46
  Q 482.76 384.42 481.98 383.79
  L 480.23 382.38
  Q 479.79 382.03 479.21 382.03
  Q 473.87 382.09 471.57 386.60
  Q 471.32 387.09 470.89 386.75
  Q 470.37 386.34 470.37 386.03
  Q 472.53 375.35 478.22 368.25
  Z"
/>
<path fill="#332f2f" d="
  M 442.67 387.58
  Q 445.49 387.09 446.28 384.44
  A 0.62 0.62 0.0 0 1 447.49 384.51
  L 450.84 403.18
  A 0.69 0.69 0.0 0 1 449.87 403.93
  L 434.70 396.94
  A 0.74 0.73 16.4 0 1 434.28 396.18
  L 435.19 389.16
  Q 435.38 387.74 436.71 388.24
  Q 438.23 388.81 439.55 388.16
  A 0.42 0.42 0.0 0 0 439.45 387.37
  L 435.35 386.49
  A 0.56 0.56 0.0 0 1 434.94 385.78
  L 439.14 371.99
  Q 439.86 369.63 440.99 371.82
  C 443.56 376.81 447.46 378.92 444.80 385.07
  Q 444.58 385.58 444.14 385.89
  L 442.47 387.09
  Q 441.51 387.78 442.67 387.58
  Z"
/>
<path fill="#332f2f" d="
  M 227.60 375.86
  Q 229.53 377.15 231.89 377.30
  C 241.17 377.90 251.36 379.52 260.26 381.14
  Q 280.15 384.75 299.98 388.58
  Q 299.71 389.33 299.24 389.32
  C 286.79 387.73 274.70 384.45 262.36 382.54
  Q 244.69 379.79 226.56 377.38
  Q 225.00 376.82 227.60 375.86
  Z"
/>
<path fill="#f9ee9e" d="
  M 299.24 389.32
  L 299.80 389.71
  Q 299.78 390.06 299.68 390.18
  Q 299.68 390.18 299.31 390.32
  Q 289.55 394.08 280.81 399.75
  L 272.66 403.54
  Q 272.20 403.76 271.74 403.53
  Q 248.77 391.95 226.56 377.38
  Q 244.69 379.79 262.36 382.54
  C 274.70 384.45 286.79 387.73 299.24 389.32
  Z"
/>
<path fill="#f5e358" d="
  M 313.85 384.73
  Q 313.47 392.38 315.58 399.48
  Q 315.73 400.00 316.26 400.15
  Q 320.75 401.37 325.30 400.28
  L 329.20 403.74
  Q 329.81 404.29 328.99 404.28
  L 314.31 404.18
  A 0.75 0.75 0.0 0 1 313.61 403.65
  Q 311.98 397.99 311.42 392.20
  C 311.08 388.62 310.04 383.08 310.28 378.47
  Q 310.33 377.57 310.73 378.38
  L 313.85 384.73
  Z"
/>
<path fill="#2f526d" d="
  M 404.20 386.08
  Q 403.71 394.70 403.97 403.25
  C 404.05 405.85 404.76 408.23 405.17 410.87
  L 396.96 409.94
  A 2.09 2.08 15.6 0 0 394.83 411.14
  Q 381.61 440.25 367.64 469.31
  C 354.74 496.16 342.87 523.62 330.55 550.74
  L 327.19 549.43
  A 0.82 0.78 53.4 0 0 326.84 549.37
  C 323.19 549.44 320.27 547.78 316.67 548.03
  Q 316.19 548.06 315.92 547.66
  Q 315.21 546.60 313.65 546.73
  L 308.94 540.11
  A 0.75 0.74 -27.3 0 1 309.31 538.97
  L 320.39 535.16
  A 0.80 0.77 -88.7 0 0 320.86 534.69
  L 330.74 507.89
  Q 330.92 507.40 330.66 506.96
  L 325.23 497.76
  A 0.87 0.86 -22.9 0 1 325.75 496.49
  L 335.45 493.82
  A 1.11 1.10 2.7 0 0 336.18 493.16
  L 345.69 469.16
  A 1.56 1.55 -49.2 0 0 345.60 467.83
  L 340.45 458.66
  Q 340.06 457.96 340.80 457.65
  L 352.10 452.86
  Q 352.51 452.69 352.65 452.28
  L 361.77 426.24
  A 2.39 2.39 0.0 0 1 363.50 424.70
  Q 383.90 420.13 393.21 400.72
  Q 395.38 396.20 397.73 383.61
  Q 397.85 382.93 398.47 383.24
  L 404.20 386.08
  Z"
/>
<path fill="#dbdbdb" d="
  M 483.76 410.48
  Q 476.06 400.62 472.58 388.56
  A 1.57 1.53 -41.6 0 1 472.66 387.46
  Q 474.44 383.59 478.80 383.48
  Q 479.31 383.47 479.73 383.77
  C 485.06 387.63 485.04 404.47 484.54 410.25
  A 0.44 0.44 0.0 0 1 483.76 410.48
  Z"
/>
<path fill="#986445" d="
  M 313.85 384.73
  L 315.04 386.89
  L 316.80 398.43
  A 0.95 0.95 0.0 0 0 317.70 399.23
  L 324.72 399.53
  L 325.30 400.28
  Q 320.75 401.37 316.26 400.15
  Q 315.73 400.00 315.58 399.48
  Q 313.47 392.38 313.85 384.73
  Z"
/>
<path fill="#332f2f" d="
  M 393.94 387.71
  Q 396.21 383.00 395.15 388.12
  C 392.89 399.13 388.83 408.48 379.70 415.40
  A 0.10 0.10 0.0 0 1 379.55 415.27
  Q 387.20 401.71 393.94 387.71
  Z"
/>
<path fill="#6497b0" d="
  M 404.20 386.08
  Q 445.01 403.14 484.45 421.83
  A 0.26 0.26 0.0 0 1 484.29 422.33
  C 458.11 417.71 431.33 414.56 405.17 410.87
  C 404.76 408.23 404.05 405.85 403.97 403.25
  Q 403.71 394.70 404.20 386.08
  Z"
/>
<path fill="#dbdbdb" d="
  M 315.04 386.89
  L 324.72 399.53
  L 317.70 399.23
  A 0.95 0.95 0.0 0 1 316.80 398.43
  L 315.04 386.89
  Z"
/>
<path fill="#f5e358" d="
  M 359.73 405.84
  Q 366.17 409.08 373.03 410.01
  Q 373.88 411.27 374.71 410.95
  C 379.22 409.25 382.73 398.73 384.97 394.49
  Q 385.27 393.93 384.75 393.31
  L 390.90 389.15
  Q 391.93 388.46 391.35 389.55
  L 377.66 415.54
  A 1.19 1.19 0.0 0 1 376.23 416.11
  L 353.52 408.44
  Q 352.74 408.18 353.52 407.92
  L 359.73 405.84
  Z"
/>
<path fill="#332f2f" d="
  M 299.80 389.71
  Q 300.09 390.14 301.11 390.51
  L 281.01 400.00
  Q 280.92 399.70 280.81 399.75
  Q 289.55 394.08 299.31 390.32
  Q 299.68 390.18 299.68 390.18
  Q 299.78 390.06 299.80 389.71
  Z"
/>
<path fill="#f5e358" d="
  M 301.11 390.51
  C 289.52 438.33 282.79 485.36 273.39 537.23
  Q 272.45 536.86 271.85 538.12
  Q 271.58 538.68 270.95 538.71
  L 264.51 538.98
  A 0.99 0.97 -17.6 0 1 263.66 538.55
  Q 263.20 537.87 262.81 538.24
  Q 266.85 497.44 270.50 456.58
  Q 271.08 450.12 271.41 441.76
  C 271.93 428.79 273.65 417.56 273.97 405.37
  A 2.82 2.81 76.7 0 1 275.44 402.98
  L 281.01 400.00
  L 301.11 390.51
  Z"
/>
<path fill="#2f526d" d="
  M 301.93 392.47
  C 302.86 392.46 303.34 392.96 303.52 393.88
  C 304.28 397.88 306.67 399.81 308.81 403.00
  Q 309.92 404.66 311.65 405.59
  C 314.77 411.11 316.98 415.65 322.52 419.22
  A 1.28 1.27 -65.1 0 1 323.04 420.65
  Q 319.69 431.89 316.89 442.58
  C 316.01 445.92 320.61 452.06 322.46 454.76
  A 0.60 0.60 0.0 0 1 322.17 455.66
  L 312.49 459.14
  Q 311.94 459.34 311.75 459.89
  L 302.99 485.19
  A 0.98 0.98 0.0 0 0 303.07 486.01
  L 308.33 494.82
  A 0.75 0.75 0.0 0 1 307.95 495.91
  L 298.23 499.58
  A 0.67 0.65 89.3 0 0 297.83 500.00
  L 289.37 526.26
  A 2.83 2.81 -52.7 0 0 289.69 528.68
  L 295.47 537.50
  A 0.58 0.58 0.0 0 1 295.27 538.33
  C 292.13 540.04 284.47 541.55 283.92 545.11
  Q 278.57 546.82 273.18 544.47
  C 274.49 536.62 276.42 528.49 277.59 521.04
  C 280.36 503.35 283.68 485.77 286.64 468.13
  C 290.88 442.95 295.30 417.13 301.93 392.47
  Z"
/>
<path fill="#f9ee9e" d="
  M 384.75 393.31
  Q 385.27 393.93 384.97 394.49
  C 382.73 398.73 379.22 409.25 374.71 410.95
  Q 373.88 411.27 373.03 410.01
  Q 373.70 410.11 374.19 409.43
  Q 378.80 403.03 382.39 395.99
  Q 382.53 395.73 382.51 395.49
  Q 382.50 395.24 382.44 394.96
  L 384.75 393.31
  Z"
/>
<path fill="#986445" d="
  M 382.44 394.96
  Q 382.50 395.24 382.51 395.49
  Q 382.53 395.73 382.39 395.99
  Q 378.80 403.03 374.19 409.43
  Q 373.70 410.11 373.03 410.01
  Q 366.17 409.08 359.73 405.84
  Q 361.76 405.03 360.48 405.41
  L 372.76 408.68
  A 0.70 0.69 22.1 0 0 373.53 408.36
  Q 377.27 401.95 381.46 395.73
  Q 381.55 395.61 381.19 395.39
  L 382.44 394.96
  Z"
/>
<path fill="#dbdbdb" d="
  M 381.19 395.39
  Q 381.55 395.61 381.46 395.73
  Q 377.27 401.95 373.53 408.36
  A 0.70 0.69 22.1 0 1 372.76 408.68
  L 360.48 405.41
  Q 371.91 401.05 381.19 395.39
  Z"
/>
<path fill="#5a5454" d="
  M 256.13 419.68
  C 254.86 420.72 253.66 422.45 252.24 423.58
  A 0.49 0.49 0.0 0 1 251.47 423.04
  Q 255.42 411.19 262.94 401.17
  Q 263.25 400.76 263.71 401.00
  L 271.20 404.87
  A 1.79 1.77 15.8 0 1 272.16 406.57
  L 271.90 410.56
  A 0.70 0.68 73.7 0 1 271.63 411.07
  L 266.66 414.84
  Q 266.07 415.29 265.46 414.87
  Q 264.27 414.03 263.32 414.57
  Q 260.54 416.12 256.13 419.68
  Z"
/>
<path fill="#986445" d="
  M 315.56 405.76
  L 317.81 411.39
  Q 317.99 411.85 317.73 412.28
  L 317.47 412.73
  L 313.81 406.45
  Q 313.45 405.84 314.16 405.82
  L 315.56 405.76
  Z"
/>
<path fill="#ea9454" d="
  M 315.56 405.76
  Q 322.04 405.72 328.26 406.12
  C 332.17 406.37 334.46 408.38 337.43 410.63
  Q 337.93 411.01 337.58 411.53
  L 332.88 418.58
  A 1.06 1.06 0.0 0 0 333.35 420.15
  L 340.34 423.10
  A 0.61 0.61 0.0 0 1 340.49 424.13
  L 337.60 426.47
  L 332.49 425.64
  Q 331.93 425.55 331.54 425.16
  Q 330.87 424.50 329.84 424.76
  A 0.81 0.79 67.4 0 1 328.95 424.38
  Q 327.52 421.92 324.46 421.79
  L 324.97 419.65
  Q 325.10 419.12 324.63 418.85
  Q 320.44 416.49 317.47 412.73
  L 317.73 412.28
  Q 317.99 411.85 317.81 411.39
  L 315.56 405.76
  Z"
/>
<path fill="#ea9454" d="
  M 359.69 427.37
  Q 348.59 430.23 339.37 426.92
  L 342.74 423.59
  Q 343.24 423.09 342.60 422.79
  L 334.97 419.14
  Q 334.38 418.86 334.74 418.32
  L 339.27 411.48
  Q 339.55 411.05 340.05 410.95
  C 343.58 410.21 347.55 408.73 351.11 409.82
  Q 363.20 413.52 375.09 417.69
  Q 375.80 417.94 375.19 418.37
  Q 369.16 422.71 361.78 423.68
  Q 361.29 423.75 361.09 424.20
  L 359.69 427.37
  Z"
/>
<path fill="#dbdbdb" d="
  M 240.04 424.24
  C 245.26 419.13 249.72 414.03 255.58 409.44
  A 0.25 0.25 0.0 0 1 255.94 409.78
  Q 252.02 415.59 250.46 422.43
  Q 250.32 423.05 249.69 423.17
  L 240.41 424.94
  Q 239.08 425.19 240.04 424.24
  Z"
/>
<path fill="#f5e358" d="
  M 405.22 411.98
  L 413.57 424.03
  Q 413.82 424.39 413.80 424.82
  L 413.75 426.22
  Q 410.96 424.27 408.53 421.97
  Q 408.49 421.69 408.21 421.76
  Q 407.77 421.88 408.10 422.19
  L 419.61 433.01
  Q 420.00 433.38 419.79 433.86
  Q 419.08 435.47 418.14 436.84
  Q 390.06 477.52 370.33 510.32
  Q 352.10 540.64 345.62 551.04
  Q 344.81 550.35 343.96 551.09
  Q 343.55 551.46 343.54 550.90
  L 343.54 550.38
  Q 343.54 549.98 343.23 549.73
  Q 340.18 547.17 336.27 546.50
  Q 336.00 546.45 336.00 546.18
  Q 336.00 546.06 336.00 545.93
  Q 336.01 545.77 335.86 545.71
  Q 335.20 545.43 334.80 545.79
  A 1.57 0.45 -36.4 0 0 334.22 546.54
  Q 333.81 547.91 333.41 547.24
  C 346.39 518.59 358.97 489.62 372.69 461.33
  Q 384.52 436.95 395.42 412.18
  A 0.40 0.39 30.6 0 1 396.03 412.03
  L 406.81 420.74
  Q 408.49 422.10 407.07 420.46
  Q 402.72 415.45 397.13 411.87
  A 0.48 0.48 0.0 0 1 397.45 410.99
  L 405.22 411.98
  Z"
/>
<path fill="#f9ee9e" d="
  M 405.22 411.98
  C 432.62 415.65 459.04 419.33 485.82 423.42
  C 486.54 423.53 487.81 423.18 488.46 424.10
  A 0.19 0.18 69.6 0 1 488.33 424.39
  L 421.16 431.92
  Q 420.66 431.97 420.27 431.65
  L 413.75 426.22
  L 413.80 424.82
  Q 413.82 424.39 413.57 424.03
  L 405.22 411.98
  Z"
/>
<path fill="#dbdbdb" d="
  M 251.52 429.77
  C 252.20 424.49 255.28 422.06 259.08 419.12
  C 260.77 417.81 261.96 416.40 264.33 415.97
  A 0.39 0.38 -84.8 0 1 264.76 416.49
  Q 259.43 430.24 251.35 442.58
  A 0.40 0.40 0.0 0 1 250.62 442.36
  Q 250.71 436.08 251.52 429.77
  Z"
/>
<path fill="#986445" d="
  M 324.46 421.79
  Q 327.52 421.92 328.95 424.38
  A 0.81 0.79 67.4 0 0 329.84 424.76
  Q 330.87 424.50 331.54 425.16
  Q 331.93 425.55 332.49 425.64
  L 337.60 426.47
  L 333.45 429.93
  A 0.60 0.60 0.0 0 0 333.34 430.73
  L 334.00 431.74
  Q 334.86 433.04 333.53 432.24
  Q 328.15 428.99 323.83 424.47
  A 0.76 0.75 -55.9 0 1 323.68 423.67
  L 324.46 421.79
  Z"
/>
<path fill="#986445" d="
  M 339.37 426.92
  Q 348.59 430.23 359.69 427.37
  L 357.25 433.74
  Q 357.07 434.21 356.58 434.33
  C 349.97 435.93 340.46 436.35 335.53 431.01
  Q 335.19 430.63 335.51 430.23
  Q 337.47 427.78 339.37 426.92
  Z"
/>
<path fill="#332f2f" d="
  M 440.41 440.08
  L 438.66 432.11
  Q 438.52 431.47 439.17 431.40
  L 450.60 430.28
  A 1.04 1.03 -4.0 0 1 451.73 431.26
  C 451.97 436.24 452.24 452.42 448.68 455.91
  Q 448.29 456.28 448.22 455.75
  C 447.53 451.04 445.96 442.90 441.02 440.81
  Q 440.52 440.60 440.41 440.08
  Z"
/>
<path fill="#b4aeae" d="
  M 440.20 443.33
  A 1.08 1.08 0.0 0 1 442.15 442.84
  Q 446.51 448.97 446.49 456.43
  C 446.47 461.16 442.83 466.52 440.51 470.81
  Q 438.98 473.64 438.88 470.42
  Q 438.48 456.81 440.20 443.33
  Z"
/>
<path fill="#b4aeae" d="
  M 455.81 465.43
  L 449.55 458.98
  Q 449.11 458.53 449.41 457.97
  Q 452.56 452.13 452.77 445.46
  A 0.35 0.35 0.0 0 1 453.47 445.41
  L 456.75 464.96
  A 0.55 0.55 0.0 0 1 455.81 465.43
  Z"
/>
<path fill="#f9ee9e" d="
  M 273.39 537.23
  L 264.23 583.79
  Q 264.12 584.34 263.60 584.55
  L 260.60 585.80
  A 0.59 0.59 0.0 0 1 259.78 585.22
  L 262.81 538.24
  Q 263.20 537.87 263.66 538.55
  A 0.99 0.97 -17.6 0 0 264.51 538.98
  L 270.95 538.71
  Q 271.58 538.68 271.85 538.12
  Q 272.45 536.86 273.39 537.23
  Z"
/>
<path fill="#3a607a" d="
  M 273.18 544.47
  Q 278.57 546.82 283.92 545.11
  L 272.50 585.30
  A 1.42 1.42 0.0 0 0 272.75 586.57
  L 279.83 595.53
  A 0.60 0.60 0.0 0 1 279.41 596.50
  L 260.10 598.04
  A 0.68 0.68 0.0 0 1 259.37 597.34
  L 259.84 587.39
  Q 259.87 586.79 260.44 586.59
  L 263.83 585.43
  A 2.04 2.04 0.0 0 0 265.17 583.90
  L 273.18 544.47
  Z"
/>
<path fill="#f9ee9e" d="
  M 345.62 551.04
  L 312.97 601.30
  A 0.40 0.40 0.0 0 1 312.30 601.31
  L 309.58 597.23
  Q 309.26 596.77 309.52 596.27
  Q 322.24 572.12 333.41 547.24
  Q 333.81 547.91 334.22 546.54
  A 1.57 0.45 -36.4 0 1 334.80 545.79
  Q 335.20 545.43 335.86 545.71
  Q 336.01 545.77 336.00 545.93
  Q 336.00 546.06 336.00 546.18
  Q 336.00 546.45 336.27 546.50
  Q 340.18 547.17 343.23 549.73
  Q 343.54 549.98 343.54 550.38
  L 343.54 550.90
  Q 343.55 551.46 343.96 551.09
  Q 344.81 550.35 345.62 551.04
  Z"
/>
<path fill="#3a607a" d="
  M 330.55 550.74
  L 308.50 596.35
  Q 308.28 596.80 308.57 597.21
  L 311.72 601.73
  A 1.10 1.09 44.8 0 1 311.73 602.97
  L 306.27 611.12
  Q 305.56 612.19 304.51 611.44
  L 289.51 600.73
  A 0.66 0.66 0.0 0 1 289.63 599.59
  L 297.93 595.85
  A 2.00 1.98 89.0 0 0 298.98 594.75
  Q 307.65 572.99 315.22 551.22
  Q 315.91 549.23 313.65 546.73
  Q 315.21 546.60 315.92 547.66
  Q 316.19 548.06 316.67 548.03
  C 320.27 547.78 323.19 549.44 326.84 549.37
  A 0.82 0.78 53.4 0 1 327.19 549.43
  L 330.55 550.74
  Z"
/>
</svg>
