<?xml version="1.0" encoding="UTF-8" standalone="no"?>
<svg xmlns="http://www.w3.org/2000/svg" version="1.2" baseProfile="tiny" viewBox="0.00 0.00 500.00 500.00">
<path fill="#000000" d="
  M 200.37 297.24
  A 0.67 0.66 67.1 0 0 200.68 296.46
  Q 197.34 285.89 205.70 279.04
  Q 206.16 278.66 206.20 278.07
  Q 206.79 268.74 203.65 259.95
  Q 203.45 259.38 202.88 259.58
  Q 187.68 264.94 172.27 264.97
  C 164.76 264.99 160.63 261.47 156.89 254.85
  C 139.31 223.72 134.13 180.62 151.76 148.54
  C 165.05 124.36 182.54 125.12 201.12 144.61
  A 0.60 0.60 0.0 0 0 202.15 144.21
  C 203.43 101.78 222.65 61.10 250.10 29.46
  C 258.51 19.76 268.83 10.32 279.44 4.69
  C 287.44 0.44 302.32 -1.99 311.49 2.70
  C 338.06 16.28 342.72 65.60 342.77 91.11
  Q 342.82 114.87 340.72 138.54
  C 339.32 154.27 338.13 166.95 335.52 181.00
  C 334.10 188.60 327.20 190.01 319.99 191.15
  Q 297.68 194.68 275.32 192.23
  A 0.43 0.42 -83.3 0 0 274.85 192.61
  Q 272.65 211.27 273.95 230.01
  A 0.53 0.53 0.0 0 0 274.92 230.26
  C 285.78 213.36 311.93 198.07 331.57 195.58
  C 348.59 193.43 358.17 202.98 358.64 219.80
  Q 359.54 251.83 347.60 281.56
  Q 342.60 294.02 329.02 294.95
  Q 315.24 295.90 304.67 293.61
  Q 304.10 293.49 303.64 293.83
  L 299.86 296.68
  A 0.87 0.87 0.0 0 0 300.50 298.23
  Q 304.67 297.65 307.57 300.73
  A 1.22 1.22 0.0 0 0 309.32 300.77
  C 310.33 299.79 311.72 298.91 313.13 298.48
  C 324.90 294.84 333.99 301.97 334.15 313.56
  C 334.29 324.66 323.61 331.60 313.27 330.39
  A 0.39 0.39 0.0 0 0 312.86 330.90
  Q 318.02 346.24 316.04 362.51
  C 312.68 390.07 287.79 408.19 261.71 412.07
  Q 259.55 412.39 257.40 412.93
  Q 256.89 413.05 256.63 413.51
  Q 256.18 414.31 255.93 415.18
  C 252.54 426.90 247.96 445.32 251.38 458.92
  A 1.75 1.74 13.9 0 0 251.94 459.84
  Q 260.46 467.27 270.18 461.07
  C 273.52 458.93 277.17 456.44 279.75 457.60
  Q 280.17 457.79 280.39 458.21
  Q 282.68 462.58 280.82 466.54
  C 275.29 478.29 260.26 481.01 250.93 472.10
  A 0.54 0.54 0.0 0 0 250.09 472.77
  C 257.00 484.01 270.42 492.12 283.52 486.72
  C 287.81 484.96 293.93 486.41 290.43 492.18
  Q 286.85 498.10 279.23 499.23
  Q 265.53 501.26 254.90 492.79
  C 248.15 487.42 241.88 480.86 240.62 471.71
  A 0.62 0.62 0.0 0 0 239.45 471.52
  Q 230.59 489.39 212.02 492.97
  C 202.19 494.87 193.95 493.25 187.76 485.32
  C 182.65 478.78 191.81 476.90 196.23 477.98
  C 203.09 479.64 213.59 481.64 219.76 479.28
  C 227.87 476.18 235.31 458.66 237.26 451.51
  C 238.73 446.14 245.91 417.85 242.56 413.85
  Q 242.22 413.45 241.70 413.36
  C 222.18 410.04 201.90 399.81 193.60 380.99
  C 185.44 362.48 190.45 339.69 202.11 323.71
  A 0.81 0.81 0.0 0 0 201.96 322.59
  C 194.35 316.63 189.82 303.09 200.37 297.24
  Z
  M 218.59 253.95
  C 222.68 258.70 228.03 263.58 234.32 268.50
  A 1.01 1.00 52.2 0 0 235.31 268.63
  L 240.43 266.51
  Q 240.93 266.31 241.20 265.84
  C 241.50 265.32 242.14 264.54 242.33 264.06
  Q 255.78 228.70 259.29 191.31
  A 0.92 0.90 7.3 0 0 258.51 190.32
  Q 244.11 188.24 230.02 184.60
  A 0.53 0.52 -6.6 0 0 229.42 185.35
  Q 240.19 205.50 240.55 227.96
  C 240.76 241.03 229.36 247.25 218.75 253.07
  Q 218.12 253.41 218.59 253.95
  Z"
/>
<g stroke-width="2.00" fill="none" stroke-linecap="butt">
<path stroke="#a680a0" vector-effect="non-scaling-stroke" d="
  M 286.73 191.33
  Q 286.96 189.54 289.25 189.76
  Q 299.91 190.80 311.67 189.00
  C 316.83 188.20 322.29 188.69 327.63 185.55
  A 1.19 1.18 -43.1 0 0 327.70 183.55
  Q 319.55 178.01 310.54 174.94
  C 309.71 174.66 309.00 175.01 308.32 174.36
  C 306.71 172.82 304.35 171.97 302.19 171.60
  Q 301.68 171.52 301.31 171.16
  Q 300.48 170.33 299.30 170.50
  Q 298.72 170.58 298.33 170.15
  Q 296.24 167.88 293.00 168.33
  A 0.92 0.90 64.6 0 1 292.19 168.03
  C 291.34 167.07 288.85 167.97 287.37 167.04
  Q 286.97 166.79 286.50 166.70
  Q 283.90 166.19 276.49 164.59
  Q 251.61 159.23 224.73 161.97
  C 221.04 162.35 203.25 164.15 208.04 171.76
  C 209.48 174.03 212.77 174.94 215.31 175.82
  Q 228.61 180.37 242.34 185.34"
/>
<path stroke="#e8e3d3" vector-effect="non-scaling-stroke" d="
  M 273.94 185.99
  C 274.30 182.02 271.18 182.68 268.79 181.86
  C 266.13 180.95 264.13 181.17 261.54 181.75"
/>
<path stroke="#bfa2c6" vector-effect="non-scaling-stroke" d="
  M 238.84 225.20
  Q 238.78 229.13 237.30 227.10"
/>
<path stroke="#a18ba5" vector-effect="non-scaling-stroke" d="
  M 237.30 227.10
  Q 237.20 226.18 237.17 226.68"
/>
<path stroke="#bfa2c6" vector-effect="non-scaling-stroke" d="
  M 237.17 226.68
  Q 237.32 224.80 236.46 223.11
  Q 236.24 222.67 235.80 222.44
  Q 233.75 221.32 231.55 220.44
  C 229.57 219.64 228.13 220.33 226.06 220.11
  C 213.31 218.73 200.78 221.78 189.76 228.17
  C 188.05 229.16 187.02 231.08 184.48 231.48
  Q 184.00 231.56 183.63 231.88
  C 177.80 236.91 172.04 240.82 168.31 247.82
  C 166.25 251.68 164.05 261.49 171.20 261.40
  A 0.77 0.77 0.0 0 1 171.30 262.94
  L 169.74 263.11"
/>
<path stroke="#a680a0" vector-effect="non-scaling-stroke" d="
  M 237.17 226.68
  C 232.76 221.62 227.68 219.89 221.72 220.57
  Q 211.16 221.79 204.48 223.68
  C 195.90 226.11 189.74 230.01 182.76 234.50
  Q 172.00 241.43 168.06 253.55
  Q 166.46 258.48 170.30 260.69
  C 172.58 262.01 175.82 261.48 178.52 261.44
  Q 179.04 261.43 179.31 261.87
  Q 179.59 262.34 179.51 262.96"
/>
<path stroke="#a680a0" vector-effect="non-scaling-stroke" d="
  M 237.30 227.10
  C 238.08 237.04 230.41 242.04 222.45 247.45
  A 0.48 0.48 0.0 0 0 222.40 248.20
  Q 222.76 248.51 223.30 248.56"
/>
<path stroke="#969196" vector-effect="non-scaling-stroke" d="
  M 305.82 261.21
  C 305.01 241.91 290.26 253.79 284.12 245.89
  C 278.04 238.05 283.39 226.28 288.11 218.70"
/>
<path stroke="#7c7382" vector-effect="non-scaling-stroke" d="
  M 304.65 261.84
  C 303.05 250.44 300.08 250.71 289.86 249.86
  C 276.62 248.74 279.17 232.85 283.74 225.04
  Q 285.16 222.59 286.01 219.89"
/>
<path stroke="#e8e3d3" vector-effect="non-scaling-stroke" d="
  M 209.79 241.97
  C 205.45 242.00 203.51 244.71 200.39 246.83"
/>
<path stroke="#e8e3d3" vector-effect="non-scaling-stroke" d="
  M 292.85 303.00
  L 288.80 307.02
  A 0.42 0.41 13.7 0 0 289.22 307.71
  Q 291.97 306.82 293.76 304.24"
/>
<path stroke="#e8e3d3" vector-effect="non-scaling-stroke" d="
  M 292.45 397.63
  Q 286.97 398.43 281.69 399.71
  Q 276.47 400.97 272.15 401.34
  C 262.51 402.15 253.11 403.40 243.59 403.24
  Q 243.10 403.24 242.64 403.03
  Q 241.72 402.63 239.57 402.43
  C 233.50 401.87 225.86 399.57 218.67 397.84
  Q 212.22 396.28 206.62 392.55
  Q 206.20 392.27 205.78 392.55
  Q 205.04 393.04 204.56 393.85"
/>
<path stroke="#e8e3d3" vector-effect="non-scaling-stroke" d="
  M 251.29 426.80
  L 244.25 426.06"
/>
<path stroke="#ebf1d1" vector-effect="non-scaling-stroke" d="
  M 248.26 447.92
  L 248.24 449.17
  Q 248.24 449.64 247.77 449.64
  Q 243.48 449.64 240.12 447.01"
/>
<path stroke="#b6c093" vector-effect="non-scaling-stroke" d="
  M 249.04 457.07
  L 248.06 462.44"
/>
<path stroke="#b6c093" vector-effect="non-scaling-stroke" d="
  M 241.27 468.47
  L 241.17 465.70
  Q 241.12 464.19 240.63 465.62
  L 239.87 467.81"
/>
</g>
<path fill="#f7d2db" d="
  M 236.68 123.16
  C 218.89 133.12 213.41 113.93 212.38 100.99
  Q 212.16 98.33 213.15 95.65
  Q 227.19 57.47 254.39 27.15
  C 263.79 16.68 278.10 4.63 291.35 2.67
  C 300.28 1.35 308.63 1.54 315.69 7.31
  C 326.05 15.77 330.55 26.68 334.40 40.37
  C 343.02 71.08 342.04 105.20 339.21 134.50
  C 338.74 139.39 332.59 147.89 327.58 141.19
  Q 323.57 135.82 318.91 125.79
  C 313.42 113.94 305.65 118.90 296.88 122.86
  C 289.35 126.26 286.41 114.21 284.58 109.67
  C 276.73 90.27 256.01 104.62 247.17 113.45
  C 243.80 116.82 240.60 120.97 236.68 123.16
  Z"
/>
<path fill="#c497c0" d="
  M 286.73 191.33
  Q 286.96 189.54 289.25 189.76
  Q 299.91 190.80 311.67 189.00
  C 316.83 188.20 322.29 188.69 327.63 185.55
  A 1.19 1.18 -43.1 0 0 327.70 183.55
  Q 319.55 178.01 310.54 174.94
  C 309.71 174.66 309.00 175.01 308.32 174.36
  C 306.71 172.82 304.35 171.97 302.19 171.60
  Q 301.68 171.52 301.31 171.16
  Q 300.48 170.33 299.30 170.50
  Q 298.72 170.58 298.33 170.15
  Q 296.24 167.88 293.00 168.33
  A 0.92 0.90 64.6 0 1 292.19 168.03
  C 291.34 167.07 288.85 167.97 287.37 167.04
  Q 286.97 166.79 286.50 166.70
  Q 283.90 166.19 276.49 164.59
  Q 251.61 159.23 224.73 161.97
  C 221.04 162.35 203.25 164.15 208.04 171.76
  C 209.48 174.03 212.77 174.94 215.31 175.82
  Q 228.61 180.37 242.34 185.34
  Q 228.02 183.21 212.58 176.89
  C 205.39 173.95 203.96 169.09 203.65 161.82
  Q 202.35 131.45 210.83 102.18
  A 0.32 0.32 0.0 0 1 211.45 102.26
  C 211.80 111.28 213.94 121.26 222.16 126.09
  C 228.26 129.68 236.58 125.75 241.22 121.42
  C 248.74 114.40 257.99 104.34 268.90 101.98
  C 287.56 97.95 281.37 123.83 293.87 124.93
  C 298.05 125.30 301.85 121.47 305.99 120.34
  Q 313.84 118.19 317.45 125.74
  C 320.15 131.39 329.32 153.46 338.02 140.82
  A 0.37 0.37 0.0 0 1 338.70 141.06
  Q 337.28 158.88 334.59 176.81
  C 333.21 185.99 330.34 187.94 321.57 189.34
  Q 304.28 192.11 286.73 191.33
  Z"
/>
<path stroke="#443540" stroke-width="2.00" fill="none" stroke-linecap="butt" vector-effect="non-scaling-stroke" d="
  M 271.89 144.66
  Q 271.54 144.81 271.21 144.37"
/>
<path fill="#000000" d="
  M 246.59 152.70
  Q 245.89 152.32 245.89 151.74
  Q 245.84 139.90 251.04 129.35
  A 0.10 0.10 0.0 0 1 251.22 129.42
  Q 248.31 140.40 247.37 151.81
  Q 247.31 152.53 246.81 152.71
  A 0.25 0.24 46.3 0 1 246.59 152.70
  Z"
/>
<path fill="#ede8f2" d="
  M 226.53 183.65
  A 0.67 0.65 84.4 0 1 226.94 184.00
  C 228.38 186.98 232.58 194.30 232.40 197.39
  C 231.95 204.73 225.54 203.08 221.55 199.86
  C 218.42 197.35 215.24 191.81 210.30 191.06
  Q 204.49 190.19 199.75 195.02
  C 195.54 199.31 191.03 193.30 186.85 192.39
  C 178.42 190.56 172.13 197.69 170.25 205.27
  Q 168.04 214.16 164.68 222.68
  C 162.77 227.53 161.07 231.66 155.82 231.60
  C 151.93 231.55 147.81 229.25 146.81 225.12
  C 140.38 198.50 140.37 172.07 154.07 147.82
  C 161.83 134.07 173.67 125.92 188.76 136.49
  Q 196.57 141.96 201.39 147.28
  Q 201.73 147.67 201.69 148.18
  C 201.11 154.53 200.90 172.82 207.76 176.32
  Q 216.39 180.73 226.53 183.65
  Z"
/>
<path fill="#88697f" d="
  M 271.89 144.66
  Q 271.54 144.81 271.21 144.37
  L 271.83 141.27
  Q 272.02 140.30 272.19 141.27
  Q 272.50 143.04 271.89 144.66
  Z"
/>
<path fill="#000000" d="
  M 271.21 144.37
  Q 271.54 144.81 271.89 144.66
  L 271.03 153.56
  A 0.41 0.41 0.0 0 1 270.22 153.59
  Q 269.39 149.04 271.21 144.37
  Z"
/>
<path fill="#000000" d="
  M 311.58 161.44
  A 0.13 0.13 0.0 0 1 311.49 161.28
  L 313.21 154.26
  A 5.98 0.43 -76.2 0 1 315.06 148.55
  L 315.45 148.65
  A 5.98 0.43 -76.2 0 1 314.44 154.56
  L 312.71 161.58
  A 0.13 0.13 0.0 0 1 312.55 161.68
  L 311.58 161.44
  Z"
/>
<path fill="#88697f" d="
  M 286.73 191.33
  L 275.58 190.62
  Q 274.96 190.58 275.05 189.96
  L 277.96 169.56
  A 0.74 0.74 0.0 0 1 278.83 168.93
  Q 301.23 172.98 320.88 184.34
  A 0.21 0.21 0.0 0 0 321.20 184.18
  L 321.25 183.82
  Q 321.29 183.50 321.02 183.32
  C 294.50 165.79 256.68 161.56 225.82 164.89
  C 222.72 165.22 212.36 167.02 211.79 169.96
  Q 211.68 170.53 212.17 170.21
  Q 215.24 168.18 219.75 167.46
  Q 239.37 164.30 258.31 166.10
  Q 259.70 166.23 259.71 167.63
  L 259.72 188.15
  Q 259.72 188.72 259.14 188.67
  Q 250.07 187.78 242.34 185.34
  Q 228.61 180.37 215.31 175.82
  C 212.77 174.94 209.48 174.03 208.04 171.76
  C 203.25 164.15 221.04 162.35 224.73 161.97
  Q 251.61 159.23 276.49 164.59
  Q 283.90 166.19 286.50 166.70
  Q 286.97 166.79 287.37 167.04
  C 288.85 167.97 291.34 167.07 292.19 168.03
  A 0.92 0.90 64.6 0 0 293.00 168.33
  Q 296.24 167.88 298.33 170.15
  Q 298.72 170.58 299.30 170.50
  Q 300.48 170.33 301.31 171.16
  Q 301.68 171.52 302.19 171.60
  C 304.35 171.97 306.71 172.82 308.32 174.36
  C 309.00 175.01 309.71 174.66 310.54 174.94
  Q 319.55 178.01 327.70 183.55
  A 1.19 1.18 -43.1 0 1 327.63 185.55
  C 322.29 188.69 316.83 188.20 311.67 189.00
  Q 299.91 190.80 289.25 189.76
  Q 286.96 189.54 286.73 191.33
  Z"
/>
<path fill="#d1cab4" d="
  M 273.94 185.99
  C 274.30 182.02 271.18 182.68 268.79 181.86
  C 266.13 180.95 264.13 181.17 261.54 181.75
  L 261.15 167.16
  A 0.84 0.84 0.0 0 1 262.10 166.31
  L 275.93 168.21
  Q 276.55 168.30 276.46 168.92
  L 273.94 185.99
  Z"
/>
<path fill="#fefbf1" d="
  M 273.94 185.99
  Q 270.50 209.57 272.66 233.14
  Q 272.70 233.66 272.46 234.12
  C 268.85 240.92 265.03 248.64 265.84 255.59
  C 266.74 263.32 272.00 271.54 277.40 276.97
  A 0.41 0.41 0.0 0 1 277.18 277.66
  Q 270.24 278.81 266.18 284.53
  Q 265.93 284.89 265.81 284.47
  Q 261.13 267.61 243.58 265.95
  Q 243.14 265.91 243.31 265.50
  C 252.99 242.78 258.58 216.58 261.06 191.56
  Q 261.55 186.67 261.54 181.75
  C 264.13 181.17 266.13 180.95 268.79 181.86
  C 271.18 182.68 274.30 182.02 273.94 185.99
  Z"
/>
<path fill="#baaccb" d="
  M 238.84 225.20
  Q 238.78 229.13 237.30 227.10
  Q 237.20 226.18 237.17 226.68
  Q 237.32 224.80 236.46 223.11
  Q 236.24 222.67 235.80 222.44
  Q 233.75 221.32 231.55 220.44
  C 229.57 219.64 228.13 220.33 226.06 220.11
  C 213.31 218.73 200.78 221.78 189.76 228.17
  C 188.05 229.16 187.02 231.08 184.48 231.48
  Q 184.00 231.56 183.63 231.88
  C 177.80 236.91 172.04 240.82 168.31 247.82
  C 166.25 251.68 164.05 261.49 171.20 261.40
  A 0.77 0.77 0.0 0 1 171.30 262.94
  L 169.74 263.11
  C 164.81 262.24 161.65 260.12 159.08 255.55
  Q 152.38 243.61 148.21 230.53
  A 0.21 0.21 0.0 0 1 148.53 230.30
  C 163.83 240.47 168.31 219.70 170.65 209.08
  C 173.03 198.29 180.65 188.40 192.34 196.97
  C 200.49 202.94 205.33 183.15 217.25 198.01
  C 220.15 201.64 230.78 208.88 232.88 199.49
  A 0.40 0.39 -48.4 0 1 233.64 199.44
  Q 238.00 211.89 238.84 225.20
  Z"
/>
<path fill="#ede8f2" d="
  M 305.82 261.21
  C 305.01 241.91 290.26 253.79 284.12 245.89
  C 278.04 238.05 283.39 226.28 288.11 218.70
  C 305.07 203.85 357.61 176.06 357.04 223.70
  Q 356.74 249.15 348.83 273.37
  Q 348.76 273.59 348.54 273.51
  Q 348.40 273.47 348.26 273.42
  Q 348.11 273.37 348.14 273.22
  C 349.95 261.26 337.15 267.44 333.01 270.49
  C 322.46 278.29 306.83 278.20 305.82 261.21
  Z"
/>
<path fill="#000000" d="
  M 206.2372 217.5714
  A 4.81 0.76 68.7 0 1 203.7819 213.3661
  A 4.81 0.76 68.7 0 1 202.7428 208.6086
  A 4.81 0.76 68.7 0 1 205.1981 212.8139
  A 4.81 0.76 68.7 0 1 206.2372 217.5714
  Z"
/>
<path fill="#000000" d="
  M 181.64 220.83
  L 181.77 219.91
  Q 181.83 219.42 181.49 219.07
  Q 180.84 218.42 181.04 217.51
  Q 181.16 217.00 181.33 217.50
  L 185.19 228.79
  A 0.41 0.41 0.0 0 1 184.50 229.19
  Q 182.50 226.88 181.90 223.92
  A 6.36 1.37 73.0 0 1 181.64 220.83
  Z"
/>
<path fill="#3e3a39" d="
  M 288.11 218.70
  C 283.39 226.28 278.04 238.05 284.12 245.89
  C 290.26 253.79 305.01 241.91 305.82 261.21
  Q 305.29 261.27 304.65 261.84
  C 303.05 250.44 300.08 250.71 289.86 249.86
  C 276.62 248.74 279.17 232.85 283.74 225.04
  Q 285.16 222.59 286.01 219.89
  Q 286.02 219.30 288.11 218.70
  Z"
/>
<path fill="#c497c0" d="
  M 237.17 226.68
  C 232.76 221.62 227.68 219.89 221.72 220.57
  Q 211.16 221.79 204.48 223.68
  C 195.90 226.11 189.74 230.01 182.76 234.50
  Q 172.00 241.43 168.06 253.55
  Q 166.46 258.48 170.30 260.69
  C 172.58 262.01 175.82 261.48 178.52 261.44
  Q 179.04 261.43 179.31 261.87
  Q 179.59 262.34 179.51 262.96
  L 169.74 263.11
  L 171.30 262.94
  A 0.77 0.77 0.0 0 0 171.20 261.40
  C 164.05 261.49 166.25 251.68 168.31 247.82
  C 172.04 240.82 177.80 236.91 183.63 231.88
  Q 184.00 231.56 184.48 231.48
  C 187.02 231.08 188.05 229.16 189.76 228.17
  C 200.78 221.78 213.31 218.73 226.06 220.11
  C 228.13 220.33 229.57 219.64 231.55 220.44
  Q 233.75 221.32 235.80 222.44
  Q 236.24 222.67 236.46 223.11
  Q 237.32 224.80 237.17 226.68
  Z"
/>
<path fill="#baaccb" d="
  M 286.01 219.89
  Q 285.16 222.59 283.74 225.04
  C 279.17 232.85 276.62 248.74 289.86 249.86
  C 300.08 250.71 303.05 250.44 304.65 261.84
  C 305.79 267.81 307.29 274.20 313.96 276.25
  C 321.38 278.53 328.30 275.17 334.23 270.96
  C 337.40 268.70 346.39 263.50 347.01 271.43
  C 347.82 281.77 342.09 291.32 331.47 292.87
  C 322.34 294.20 300.37 294.61 294.63 285.51
  Q 289.90 278.02 280.57 277.45
  Q 280.07 277.42 279.72 277.06
  C 272.05 269.26 264.62 257.60 268.59 246.07
  Q 273.79 230.94 286.01 219.89
  Z"
/>
<path fill="#88697f" d="
  M 237.17 226.68
  Q 237.20 226.18 237.30 227.10
  C 238.08 237.04 230.41 242.04 222.45 247.45
  A 0.48 0.48 0.0 0 0 222.40 248.20
  Q 222.76 248.51 223.30 248.56
  L 217.70 251.52
  A 0.67 0.67 0.0 0 1 216.81 251.28
  Q 210.09 240.41 206.60 228.07
  Q 206.55 227.88 206.74 227.83
  C 213.76 225.91 224.93 223.63 231.98 225.29
  Q 232.21 225.35 232.38 225.22
  Q 232.71 224.97 232.32 224.85
  C 214.88 219.09 190.84 230.49 178.42 242.13
  C 174.66 245.66 169.52 252.16 173.03 257.45
  A 0.24 0.24 0.0 0 0 173.46 257.24
  C 170.33 248.56 185.58 237.75 192.47 233.91
  Q 193.07 233.57 193.34 234.21
  L 202.76 256.98
  Q 203.09 257.77 202.27 258.05
  Q 191.15 261.81 179.51 262.96
  Q 179.59 262.34 179.31 261.87
  Q 179.04 261.43 178.52 261.44
  C 175.82 261.48 172.58 262.01 170.30 260.69
  Q 166.46 258.48 168.06 253.55
  Q 172.00 241.43 182.76 234.50
  C 189.74 230.01 195.90 226.11 204.48 223.68
  Q 211.16 221.79 221.72 220.57
  C 227.68 219.89 232.76 221.62 237.17 226.68
  Z"
/>
<path fill="#c497c0" d="
  M 238.84 225.20
  C 240.07 236.92 232.25 243.33 223.30 248.56
  Q 222.76 248.51 222.40 248.20
  A 0.48 0.48 0.0 0 1 222.45 247.45
  C 230.41 242.04 238.08 237.04 237.30 227.10
  Q 238.78 229.13 238.84 225.20
  Z"
/>
<path fill="#d1cab4" d="
  M 209.79 241.97
  C 205.45 242.00 203.51 244.71 200.39 246.83
  L 194.43 233.25
  Q 194.19 232.72 194.73 232.50
  L 204.60 228.46
  Q 205.12 228.24 205.31 228.78
  L 209.79 241.97
  Z"
/>
<path fill="#fefbf1" d="
  M 209.79 241.97
  Q 217.42 258.85 233.01 269.38
  Q 233.54 269.73 233.04 270.12
  Q 229.37 272.97 226.77 276.81
  Q 226.41 277.35 225.83 277.05
  Q 217.01 272.52 208.35 277.39
  A 0.42 0.42 0.0 0 1 207.72 277.00
  C 208.30 266.09 204.96 256.97 200.39 246.83
  C 203.51 244.71 205.45 242.00 209.79 241.97
  Z"
/>
<path fill="#3e3a39" d="
  M 283.24 265.76
  A 0.12 0.12 0.0 0 1 283.07 265.78
  L 283.03 265.75
  A 2.33 1.33 -51.6 0 1 283.44 263.10
  L 285.37 260.67
  A 2.33 1.33 -51.6 0 1 287.85 259.67
  L 287.89 259.70
  A 0.12 0.12 0.0 0 1 287.91 259.87
  L 283.24 265.76
  Z"
/>
<path fill="#fefbf1" d="
  M 292.85 303.00
  L 288.80 307.02
  A 0.42 0.41 13.7 0 0 289.22 307.71
  Q 291.97 306.82 293.76 304.24
  C 298.89 296.48 307.67 299.22 309.95 307.49
  A 0.33 0.33 0.0 0 0 310.58 307.50
  Q 311.27 305.20 309.63 303.36
  Q 309.26 302.95 309.69 302.59
  C 316.80 296.64 327.97 298.20 331.28 307.61
  C 336.43 322.28 323.09 331.42 309.94 328.19
  A 0.43 0.43 0.0 0 0 309.45 328.79
  C 310.23 330.50 311.40 331.93 311.88 333.59
  C 318.70 357.50 313.75 383.12 292.45 397.63
  Q 286.97 398.43 281.69 399.71
  Q 276.47 400.97 272.15 401.34
  C 262.51 402.15 253.11 403.40 243.59 403.24
  Q 243.10 403.24 242.64 403.03
  Q 241.72 402.63 239.57 402.43
  C 233.50 401.87 225.86 399.57 218.67 397.84
  Q 212.22 396.28 206.62 392.55
  Q 206.20 392.27 205.78 392.55
  Q 205.04 393.04 204.56 393.85
  C 185.04 374.90 189.33 343.56 204.36 323.42
  Q 204.69 322.98 204.27 322.63
  C 198.36 317.71 194.33 310.99 196.41 303.49
  Q 197.25 300.46 201.06 298.69
  Q 201.50 298.49 201.77 298.89
  Q 205.08 303.79 210.91 305.34
  Q 210.94 305.34 210.94 305.31
  Q 210.94 305.18 210.94 305.04
  Q 210.93 304.93 210.82 304.89
  C 201.49 301.80 198.19 288.71 205.40 281.53
  C 210.36 276.59 218.78 274.70 225.12 278.53
  Q 225.56 278.79 225.37 279.26
  Q 220.70 291.48 229.16 301.10
  Q 229.32 301.28 229.42 301.20
  Q 229.47 301.17 229.48 301.10
  Q 229.49 301.02 229.41 300.92
  Q 226.95 297.87 226.44 295.72
  Q 221.59 275.40 239.56 268.74
  C 243.25 267.37 248.23 267.47 251.47 269.25
  Q 271.26 280.11 260.57 300.58
  Q 260.39 300.92 260.73 301.10
  L 260.99 301.24
  Q 261.08 301.29 261.14 301.21
  Q 264.52 296.74 265.57 291.33
  C 267.49 281.36 276.55 276.45 285.86 280.17
  C 295.13 283.87 297.76 294.40 292.85 303.00
  Z"
/>
<g stroke-width="2.00" fill="none" stroke-linecap="butt">
<path stroke="#6c7359" vector-effect="non-scaling-stroke" d="
  M 214.41 365.46
  Q 212.97 358.79 214.66 352.39"
/>
<path stroke="#6c7359" vector-effect="non-scaling-stroke" d="
  M 274.64 355.31
  Q 275.73 363.31 273.74 370.52"
/>
</g>
<path fill="#000000" d="
  M 300.28 282.05
  A 0.14 0.14 0.0 0 1 300.09 282.09
  L 300.00 282.03
  A 2.94 1.45 -56.2 0 1 300.43 278.78
  L 300.88 278.10
  A 2.94 1.45 -56.2 0 1 303.72 276.46
  L 303.81 276.52
  A 0.14 0.14 0.0 0 1 303.85 276.72
  L 300.28 282.05
  Z"
/>
<path fill="#d1cab4" d="
  M 301.78 292.62
  A 0.35 0.35 0.0 0 1 301.85 293.21
  Q 299.01 295.43 297.52 298.77
  A 0.44 0.42 20.0 0 1 297.00 299.00
  Q 296.87 298.96 296.74 298.91
  Q 296.57 298.86 296.62 298.68
  Q 297.94 294.72 296.73 290.75
  Q 296.55 290.16 297.11 290.42
  L 301.78 292.62
  Z"
/>
<path fill="#d1cab4" d="
  M 292.85 303.00
  Q 292.33 304.12 293.76 304.24
  Q 291.97 306.82 289.22 307.71
  A 0.42 0.41 13.7 0 1 288.80 307.02
  L 292.85 303.00
  Z"
/>
<path fill="#000000" d="
  M 214.41 365.46
  Q 212.97 358.79 214.66 352.39
  Q 216.26 345.84 219.84 341.59
  C 223.76 336.94 228.40 340.39 229.81 344.98
  Q 233.31 356.47 230.97 368.64
  C 230.32 372.05 228.13 378.02 224.16 378.72
  C 217.96 379.80 215.16 369.94 214.41 365.46
  Z"
/>
<path fill="#3e3a39" d="
  M 221.44 376.31
  C 211.77 370.83 216.08 337.02 225.59 341.54
  C 232.70 344.92 231.44 381.98 221.44 376.31
  Z"
/>
<path fill="#000000" d="
  M 274.64 355.31
  Q 275.73 363.31 273.74 370.52
  Q 272.18 377.32 267.27 381.15
  Q 266.81 381.50 266.25 381.45
  C 258.79 380.79 256.93 371.98 256.48 366.03
  C 255.93 358.88 257.63 348.43 264.06 343.83
  C 271.91 338.21 274.33 350.86 274.64 355.31
  Z"
/>
<path fill="#3e3a39" d="
  M 263.19 379.06
  C 260.09 377.68 258.65 369.81 258.34 366.96
  C 257.52 359.21 259.00 351.44 264.24 345.49
  Q 265.36 344.21 266.99 344.16
  C 276.55 343.88 274.84 384.26 263.19 379.06
  Z"
/>
<path fill="#d8e6b1" d="
  M 214.66 352.39
  Q 212.97 358.79 214.41 365.46
  Q 210.63 368.82 207.09 367.21
  C 200.53 364.21 201.88 348.69 209.52 348.81
  Q 212.46 348.86 214.66 352.39
  Z"
/>
<path fill="#d8e6b1" d="
  M 273.74 370.52
  Q 275.73 363.31 274.64 355.31
  C 290.74 348.32 287.93 382.45 273.74 370.52
  Z"
/>
<path fill="#d1cab4" d="
  M 292.45 397.63
  Q 276.17 409.33 256.75 411.17
  Q 255.89 411.25 255.21 412.22
  C 253.43 414.77 252.04 423.44 251.29 426.80
  L 244.25 426.06
  Q 244.71 421.02 245.02 415.51
  C 245.13 413.55 244.73 412.40 242.63 411.94
  C 228.61 408.88 215.11 403.86 204.56 393.85
  Q 205.04 393.04 205.78 392.55
  Q 206.20 392.27 206.62 392.55
  Q 212.22 396.28 218.67 397.84
  C 225.86 399.57 233.50 401.87 239.57 402.43
  Q 241.72 402.63 242.64 403.03
  Q 243.10 403.24 243.59 403.24
  C 253.11 403.40 262.51 402.15 272.15 401.34
  Q 276.47 400.97 281.69 399.71
  Q 286.97 398.43 292.45 397.63
  Z"
/>
<path fill="#fefbf1" d="
  M 251.29 426.80
  L 248.26 447.92
  L 248.24 449.17
  Q 248.24 449.64 247.77 449.64
  Q 243.48 449.64 240.12 447.01
  L 244.25 426.06
  L 251.29 426.80
  Z"
/>
<path fill="#d8e6b1" d="
  M 240.12 447.01
  Q 243.48 449.64 247.77 449.64
  Q 248.24 449.64 248.24 449.17
  L 248.26 447.92
  L 249.04 457.07
  L 248.06 462.44
  C 246.01 476.07 257.65 486.45 269.79 489.49
  Q 277.80 491.50 285.75 487.45
  Q 287.00 486.82 288.98 488.09
  Q 289.35 488.32 289.44 488.75
  C 290.41 493.37 283.47 497.08 279.75 497.66
  C 261.32 500.56 244.46 485.82 241.27 468.47
  L 241.17 465.70
  Q 241.12 464.19 240.63 465.62
  L 239.87 467.81
  C 234.27 478.47 227.43 487.22 215.64 490.50
  C 205.59 493.28 194.65 492.75 188.23 483.79
  Q 187.05 482.14 188.80 480.31
  C 190.06 478.99 193.09 478.86 195.11 479.32
  C 208.14 482.25 221.04 485.32 229.60 472.17
  Q 237.26 460.42 240.12 447.01
  Z"
/>
<path fill="#939a74" d="
  M 249.04 457.07
  Q 255.30 469.32 268.19 463.97
  C 271.03 462.79 273.83 460.65 276.66 458.87
  A 2.03 2.03 0.0 0 1 279.75 460.33
  C 280.57 466.78 276.38 472.14 270.49 474.45
  Q 261.68 477.91 252.94 471.77
  C 249.09 469.07 249.26 466.58 248.06 462.44
  L 249.04 457.07
  Z"
/>
<path fill="#939a74" d="
  M 241.27 468.47
  Q 240.55 467.46 239.87 467.81
  L 240.63 465.62
  Q 241.12 464.19 241.17 465.70
  L 241.27 468.47
  Z"
/>
</svg>
