<?xml version="1.0" encoding="UTF-8" standalone="no"?>
<svg xmlns="http://www.w3.org/2000/svg" version="1.2" baseProfile="tiny" viewBox="0.00 0.00 500.00 500.00">
<path fill="#040307" fill-opacity="0.996" d="
  M 395.23 127.22
  Q 395.41 126.41 394.95 126.09
  Q 394.64 125.87 394.00 126.04
  Q 391.64 126.67 389.31 126.84
  A 0.36 0.36 0.0 0 0 389.19 127.52
  Q 391.38 128.53 393.50 127.55
  Q 393.33 128.20 394.03 129.06
  L 382.78 127.05
  L 369.87 124.82
  Q 347.11 120.88 324.22 120.98
  C 332.56 119.70 339.10 120.53 348.73 121.28
  C 360.24 122.18 371.60 124.26 382.93 126.22
  C 387.71 127.05 391.88 126.05 396.63 125.48
  A 0.48 0.48 0.0 0 1 397.12 126.18
  Q 396.56 127.26 395.23 127.22
  Z"
/>
<path fill="#040307" fill-opacity="0.996" d="
  M 324.22 120.98
  Q 323.86 121.26 323.74 121.65
  A 0.43 0.42 11.5 0 0 324.11 122.20
  Q 341.53 123.78 360.50 128.50
  Q 362.59 129.02 363.81 129.85
  C 359.24 129.06 354.23 127.59 350.37 126.83
  Q 336.20 124.05 322.03 122.54
  A 0.63 0.63 0.0 0 1 321.87 121.32
  Q 322.97 120.89 324.22 120.98
  Z"
/>
<path fill="#de81b2" d="
  M 324.22 120.98
  Q 347.11 120.88 369.87 124.82
  Q 366.74 127.06 366.94 130.23
  L 364.19 129.76
  Q 363.51 129.63 363.81 129.85
  Q 362.59 129.02 360.50 128.50
  Q 341.53 123.78 324.11 122.20
  A 0.43 0.42 11.5 0 1 323.74 121.65
  Q 323.86 121.26 324.22 120.98
  Z"
/>
<path fill="#d34794" d="
  M 369.87 124.82
  L 382.78 127.05
  L 386.13 134.19
  A 0.96 0.96 0.0 0 1 385.55 135.51
  L 376.00 138.55
  Q 371.95 133.53 366.94 130.23
  Q 366.74 127.06 369.87 124.82
  Z"
/>
<path fill="#3b3752" d="
  M 395.23 127.22
  L 393.50 127.55
  Q 391.38 128.53 389.19 127.52
  A 0.36 0.36 0.0 0 1 389.31 126.84
  Q 391.64 126.67 394.00 126.04
  Q 394.64 125.87 394.95 126.09
  Q 395.41 126.41 395.23 127.22
  Z"
/>
<path fill="#7c66ab" d="
  M 382.78 127.05
  L 394.03 129.06
  L 394.73 128.92
  Q 395.54 129.65 397.18 130.09
  Q 420.20 136.28 439.33 150.08
  A 1.71 1.69 55.2 0 0 440.77 150.35
  L 450.42 147.85
  Q 458.67 149.19 463.04 155.78
  Q 463.33 156.21 463.25 156.73
  Q 462.96 158.54 464.18 159.85
  Q 464.54 160.25 464.49 160.78
  Q 464.39 162.02 465.28 162.35
  L 459.94 169.94
  A 1.41 1.38 -30.5 0 0 459.70 170.84
  Q 459.84 172.67 460.74 174.29
  Q 467.38 186.23 471.91 199.11
  C 472.55 200.95 472.81 204.21 474.36 206.54
  Q 474.64 206.97 475.15 207.07
  L 485.24 208.99
  C 484.81 211.61 482.84 217.77 485.22 219.57
  C 481.49 221.57 476.03 222.63 477.11 228.36
  L 469.47 226.34
  C 468.69 220.79 468.14 214.78 466.79 209.62
  C 463.10 195.43 456.87 184.77 449.65 172.27
  A 1.42 1.40 41.7 0 1 449.57 171.04
  L 454.64 158.90
  A 1.37 1.37 0.0 0 0 453.12 157.03
  C 448.83 157.84 443.77 159.73 439.39 159.75
  Q 438.89 159.76 438.51 159.42
  C 426.28 148.46 411.22 141.72 395.39 136.83
  A 1.39 1.34 -45.9 0 0 394.47 136.86
  C 390.35 138.53 388.99 141.04 388.41 145.63
  Q 386.81 158.30 384.04 170.75
  L 379.69 168.60
  Q 381.05 158.14 381.95 149.03
  C 382.37 144.67 378.41 141.67 376.00 138.55
  L 385.55 135.51
  A 0.96 0.96 0.0 0 0 386.13 134.19
  L 382.78 127.05
  Z"
/>
<path fill="#040307" fill-opacity="0.996" d="
  M 394.73 128.92
  Q 418.25 134.43 437.80 148.21
  C 439.16 149.16 441.32 149.43 443.08 148.92
  Q 459.76 144.15 476.44 139.42
  C 477.46 139.14 478.69 139.28 479.71 139.26
  A 1.29 1.29 0.0 0 1 480.81 141.26
  Q 474.77 150.26 468.84 158.97
  C 466.82 161.94 463.03 166.64 460.84 171.02
  A 2.21 2.20 42.9 0 0 460.92 173.12
  Q 470.04 188.31 474.54 205.44
  Q 474.69 205.99 475.25 206.13
  C 483.19 208.07 491.28 208.77 499.18 210.77
  A 0.97 0.96 37.7 0 1 499.41 212.55
  L 478.46 224.07
  A 0.83 0.82 81.7 0 0 478.06 224.61
  C 476.90 229.84 478.34 235.87 477.99 241.76
  Q 476.57 266.01 467.38 288.48
  C 464.56 295.38 461.62 303.83 457.12 309.79
  A 0.51 0.51 0.0 0 1 456.20 309.53
  Q 455.44 301.89 456.04 294.25
  C 456.20 292.13 457.51 289.78 456.83 286.98
  Q 453.07 271.60 447.29 258.20
  Q 441.90 245.72 433.94 233.13
  Q 451.15 257.76 457.78 287.60
  A 0.36 0.35 -38.7 0 0 458.45 287.67
  Q 472.64 257.00 468.34 225.37
  L 468.05 222.25
  L 466.09 209.46
  Q 462.54 196.59 455.70 184.27
  L 448.68 172.52
  A 1.59 1.59 0.0 0 1 448.58 171.09
  L 453.84 158.57
  A 0.50 0.50 0.0 0 0 453.26 157.89
  L 441.17 160.85
  A 3.48 3.45 56.9 0 1 438.19 160.21
  L 427.43 151.80
  Q 412.51 142.79 395.67 137.65
  A 1.35 1.33 -48.6 0 0 394.71 137.72
  C 389.05 140.45 389.60 144.04 388.77 149.35
  Q 386.78 162.13 384.21 174.93
  A 1.07 1.06 -5.9 0 1 383.58 175.70
  L 376.66 178.65
  A 0.65 0.65 0.0 0 0 376.30 179.48
  Q 378.56 185.53 378.46 191.17
  L 375.67 198.26
  A 0.47 0.47 0.0 0 0 376.36 198.83
  L 383.81 194.13
  L 396.08 186.41
  A 1.02 1.02 0.0 0 1 397.34 188.01
  L 389.91 195.20
  L 358.61 227.11
  Q 353.48 232.29 348.65 226.63
  Q 343.20 219.00 350.82 214.58
  L 356.73 210.89
  A 0.39 0.39 0.0 0 0 356.46 210.17
  L 349.21 211.24
  A 0.93 0.93 0.0 0 0 349.24 213.08
  Q 350.39 213.20 350.67 214.16
  Q 346.79 212.53 344.81 213.56
  Q 334.41 218.99 339.00 230.66
  Q 342.13 236.81 348.41 240.46
  A 0.69 0.69 0.0 0 0 349.31 240.28
  C 352.27 236.36 354.87 236.35 359.42 235.14
  A 0.67 0.66 -10.7 0 0 359.91 234.43
  L 359.18 227.27
  L 380.80 231.74
  Q 381.28 231.84 381.74 231.64
  L 387.50 229.19
  L 382.13 232.42
  A 1.14 1.11 -51.9 0 1 381.25 232.54
  C 376.40 231.17 368.85 229.28 360.98 228.39
  A 0.60 0.60 0.0 0 0 360.31 228.99
  Q 360.31 233.51 360.93 237.95
  C 361.63 242.94 364.88 247.31 367.48 251.60
  Q 363.65 247.45 361.52 242.55
  A 1.42 1.42 0.0 0 0 359.48 241.90
  L 354.83 244.71
  Q 354.18 245.10 354.39 245.83
  Q 355.02 248.04 356.84 249.58
  A 1.27 1.26 15.5 0 1 357.25 250.30
  L 357.43 251.28
  L 348.39 240.94
  A 0.67 0.66 -37.0 0 0 347.52 240.82
  C 345.44 242.15 343.53 243.23 341.76 245.05
  Q 338.41 248.49 334.73 251.56
  C 332.49 253.42 331.26 255.71 329.46 257.95
  C 332.10 251.98 337.88 247.84 342.55 243.45
  A 0.92 0.91 43.6 0 0 342.51 242.08
  Q 340.52 240.40 338.26 240.60
  Q 328.95 239.37 321.36 244.22
  Q 321.00 244.46 320.81 244.84
  Q 319.13 248.24 316.11 250.46
  Q 315.68 250.78 315.98 251.22
  L 322.86 261.34
  L 325.33 266.65
  A 0.50 0.50 0.0 0 0 326.27 266.37
  Q 325.97 264.26 327.56 262.28
  Q 325.65 267.91 326.72 270.76
  Q 330.87 281.81 331.49 293.40
  A 1.84 1.83 5.3 0 0 332.90 295.09
  L 348.61 298.88
  Q 348.80 298.93 348.95 299.07
  L 349.41 299.53
  A 0.39 0.38 -30.4 0 1 349.24 300.17
  Q 340.92 302.52 332.30 302.73
  A 0.85 0.84 6.4 0 0 331.51 303.35
  C 330.47 307.42 329.62 311.70 328.08 315.37
  C 314.14 348.58 279.66 369.30 243.73 364.33
  L 267.01 363.15
  C 296.80 358.12 324.04 334.35 330.14 304.42
  Q 330.38 303.23 329.16 303.24
  L 328.11 303.25
  L 319.43 303.60
  Q 318.88 303.63 318.79 304.17
  Q 315.42 322.95 301.65 336.96
  Q 291.36 347.11 277.79 353.26
  Q 267.93 357.71 257.55 360.28
  Q 257.07 360.40 256.70 360.73
  C 254.88 362.33 253.06 361.44 251.41 361.66
  Q 246.42 362.31 241.49 363.16
  Q 241.17 363.21 241.24 364.12
  C 236.84 363.18 232.71 361.87 228.20 361.35
  Q 208.46 359.10 190.65 350.27
  C 188.23 349.06 186.24 349.44 183.75 348.29
  Q 185.01 348.46 186.20 347.03
  Q 192.78 350.61 199.51 351.73
  A 0.44 0.44 0.0 0 0 199.95 351.05
  L 197.45 347.35
  A 1.32 1.31 -28.1 0 1 198.05 345.39
  Q 206.96 341.84 211.94 333.80
  Q 212.40 333.76 212.94 334.07
  L 207.92 343.03
  A 1.94 1.94 0.0 0 0 208.56 345.61
  C 214.62 349.52 220.65 348.91 227.47 347.60
  L 227.96 347.81
  Q 228.25 347.93 228.26 348.23
  Q 228.27 348.35 228.26 348.49
  Q 220.61 349.66 216.50 349.24
  C 213.02 348.89 204.44 346.67 207.71 341.95
  A 0.48 0.48 0.0 0 0 207.06 341.27
  L 199.67 345.93
  A 1.54 1.53 -32.9 0 0 199.20 348.07
  L 201.64 351.76
  Q 202.22 352.63 201.18 352.83
  L 199.98 353.06
  A 0.40 0.39 -40.7 0 0 199.92 353.82
  C 215.18 359.26 234.32 363.13 250.03 360.87
  A 0.61 0.61 0.0 0 0 250.43 359.89
  Q 247.10 355.59 245.41 350.28
  Q 246.08 349.65 245.50 348.29
  C 247.02 343.46 249.74 336.39 255.71 341.91
  Q 255.77 342.27 256.36 342.70
  Q 256.77 343.01 256.76 342.49
  L 256.56 333.76
  Q 257.22 326.77 250.91 324.30
  Q 251.40 323.77 251.12 323.72
  Q 254.49 324.51 256.23 327.11
  Q 256.51 327.53 256.56 327.03
  C 257.27 319.88 257.31 311.68 253.74 305.32
  Q 253.59 304.53 254.09 304.05
  L 257.40 310.11
  L 258.13 338.34
  A 0.55 0.54 -11.4 0 0 258.88 338.83
  C 274.77 332.56 285.79 323.16 286.15 304.97
  L 286.88 305.32
  C 286.11 323.32 275.43 333.81 258.86 339.85
  Q 258.39 340.02 258.35 340.51
  C 257.80 346.72 259.54 351.93 257.80 358.24
  A 0.70 0.70 0.0 0 0 258.66 359.10
  C 279.00 353.38 295.56 344.46 308.37 327.39
  C 311.76 322.88 318.38 311.18 317.74 304.33
  A 0.74 0.74 0.0 0 0 317.03 303.66
  L 291.02 302.98
  A 0.67 0.67 0.0 0 1 290.75 301.70
  Q 303.53 295.78 317.54 294.58
  A 0.43 0.41 -2.4 0 0 317.92 294.18
  Q 318.07 285.19 312.29 278.18
  Q 306.32 271.35 304.00 269.99
  Q 290.56 262.07 275.85 256.82
  Q 275.58 256.73 275.39 256.52
  L 275.18 256.28
  Q 275.29 255.47 275.99 255.46
  Q 288.90 260.43 301.04 267.00
  C 302.54 267.81 304.20 269.30 306.04 269.96
  Q 307.19 271.82 308.67 273.18
  C 314.77 278.83 318.24 285.19 318.75 293.56
  A 1.08 1.07 88.8 0 0 319.80 294.57
  L 330.36 294.80
  A 0.35 0.34 -2.3 0 0 330.71 294.43
  C 330.12 284.27 327.46 269.76 321.61 261.21
  C 314.58 250.53 301.64 244.83 289.70 240.56
  Q 290.11 239.96 290.00 239.55
  C 298.54 242.99 307.45 246.79 314.74 252.49
  A 0.39 0.38 89.1 0 0 315.27 251.94
  C 307.88 242.94 300.45 235.08 289.96 229.57
  Q 289.51 228.92 290.58 228.89
  L 296.48 232.10
  Q 296.99 232.38 297.14 231.81
  L 297.81 229.29
  Q 298.84 227.30 300.20 225.41
  Q 300.61 224.84 300.27 224.60
  Q 299.96 224.39 299.24 224.20
  Q 299.23 224.05 299.24 223.91
  Q 299.27 223.60 299.58 223.55
  Q 299.88 223.50 300.05 223.31
  L 300.95 223.77
  Q 301.46 224.04 301.94 223.73
  Q 305.47 221.47 309.58 220.78
  A 0.74 0.74 0.0 0 0 310.16 219.85
  C 309.29 216.67 302.20 219.61 299.96 220.19
  A 1.21 1.17 -35.4 0 1 299.05 220.05
  Q 294.13 217.01 289.61 213.41
  C 287.63 211.84 288.98 206.94 289.27 204.75
  A 1.25 1.25 0.0 0 0 288.08 203.34
  L 279.63 203.02
  Q 279.04 202.99 278.63 202.57
  Q 273.12 196.89 269.66 189.47
  Q 270.38 190.17 270.38 189.88
  L 277.69 200.39
  A 4.16 4.15 -15.7 0 0 280.85 202.16
  L 288.95 202.64
  Q 290.33 202.72 290.25 204.10
  C 290.08 207.00 288.46 211.09 290.91 213.11
  Q 295.69 217.04 298.71 219.07
  Q 299.14 219.36 299.64 219.24
  C 301.32 218.85 308.53 216.56 310.50 218.81
  Q 310.79 219.14 311.20 219.00
  C 323.00 215.04 309.43 197.87 305.63 192.57
  Q 306.75 192.92 307.22 193.95
  Q 313.55 201.46 316.29 210.26
  Q 317.66 215.63 314.13 219.13
  C 312.64 220.61 311.62 222.27 313.62 223.85
  A 3.03 3.02 -27.1 0 0 315.62 224.49
  Q 319.83 224.31 324.09 222.00
  C 328.28 220.65 329.96 217.43 329.04 213.01
  Q 327.47 205.43 323.98 198.41
  Q 323.74 197.93 323.22 197.77
  L 319.89 196.76
  A 1.55 1.54 12.0 0 1 318.81 195.11
  L 319.32 190.68
  Q 319.38 190.18 319.09 189.76
  L 315.79 184.95
  C 313.79 182.16 304.62 171.51 300.45 173.95
  Q 299.99 174.22 299.92 174.75
  C 299.38 179.43 299.08 181.74 295.23 184.75
  A 0.72 0.72 0.0 0 0 295.73 186.04
  Q 302.72 185.55 305.56 192.35
  C 301.49 186.73 296.36 185.03 289.98 187.39
  Q 281.37 190.57 271.95 188.85
  Q 273.10 188.84 273.38 188.41
  L 276.42 188.40
  C 283.19 189.37 293.62 187.47 297.67 180.92
  C 298.80 179.08 298.59 176.49 299.25 174.24
  Q 299.43 173.63 298.85 173.39
  L 297.06 172.63
  Q 296.52 172.40 296.10 172.00
  Q 294.45 170.39 294.17 168.21
  A 1.56 1.55 -34.4 0 0 291.26 167.67
  L 284.97 179.17
  L 268.19 184.65
  C 266.70 182.35 264.50 183.12 262.69 182.52
  Q 259.58 181.47 256.58 180.23
  A 1.08 1.08 0.0 0 0 255.22 180.72
  Q 250.89 188.85 247.72 197.87
  Q 246.10 202.49 244.12 207.10
  Q 243.92 207.56 243.43 207.63
  L 233.53 209.17
  L 221.22 211.69
  Q 220.47 211.85 221.02 212.38
  Q 224.48 215.73 228.57 217.75
  L 234.70 221.25
  Q 233.96 221.91 234.01 222.99
  Q 221.36 225.62 211.43 231.42
  Q 210.97 231.68 211.30 232.12
  Q 211.55 232.46 211.96 232.34
  L 217.44 230.83
  Q 217.80 231.54 217.72 231.70
  L 211.30 233.51
  Q 210.73 233.67 210.51 233.13
  L 210.03 231.98
  A 1.03 1.02 67.8 0 0 208.71 231.42
  Q 198.62 235.35 190.87 242.85
  A 1.27 1.21 -21.4 0 0 190.49 243.66
  L 190.24 246.70
  Q 189.52 247.22 189.16 247.21
  Q 188.85 247.02 188.55 246.99
  Q 188.30 246.96 188.01 247.19
  Q 171.46 259.88 160.72 278.32
  Q 160.23 278.70 160.24 279.45
  Q 160.24 279.92 160.70 279.96
  Q 161.25 280.01 161.35 280.54
  L 158.14 285.78
  Q 157.54 286.16 159.15 287.48
  Q 155.27 291.48 154.10 296.71
  Q 153.90 297.59 154.54 296.96
  L 159.93 291.67
  Q 160.17 291.68 160.34 291.71
  Q 160.81 291.81 160.56 292.22
  L 160.08 293.01
  C 156.82 296.48 154.26 300.97 149.33 302.83
  Q 131.80 309.43 114.52 316.66
  C 97.23 323.90 79.87 330.42 62.62 337.52
  A 0.20 0.19 42.6 0 0 62.64 337.89
  Q 68.35 339.70 70.50 345.24
  A 0.17 0.17 0.0 0 1 70.20 345.41
  C 66.96 341.27 63.11 337.32 57.18 339.67
  Q 38.39 347.09 19.73 354.95
  A 0.43 0.43 0.0 0 0 19.70 355.73
  L 20.62 356.18
  Q 21.17 356.45 21.46 356.99
  Q 23.98 361.74 21.17 366.21
  L 16.69 371.96
  L 12.04 375.48
  A 0.31 0.31 0.0 0 0 12.31 376.02
  Q 38.05 368.76 63.32 361.35
  Q 64.44 361.02 67.53 359.37
  Q 70.21 355.89 70.54 351.49
  L 70.57 347.79
  Q 70.58 346.83 71.21 347.56
  Q 71.97 348.45 71.77 350.28
  Q 71.95 353.49 70.20 357.55
  Q 68.79 358.39 68.76 359.20
  Q 68.74 359.84 69.35 359.66
  L 163.91 332.66
  L 164.02 334.24
  Q 163.49 334.18 163.50 334.50
  Q 163.51 334.63 163.50 334.78
  Q 163.48 335.04 163.67 335.23
  Q 169.37 340.88 177.20 342.83
  Q 183.19 344.29 189.27 340.28
  Q 201.34 332.31 202.57 318.90
  Q 202.58 318.75 202.74 318.75
  Q 202.87 318.75 202.99 318.75
  Q 203.48 318.76 203.46 319.25
  C 202.93 330.66 195.25 339.58 185.07 343.98
  Q 184.64 344.17 184.20 344.16
  Q 183.77 344.14 183.27 343.98
  Q 182.51 343.73 182.74 344.50
  L 183.06 345.55
  L 178.51 344.15
  A 0.58 0.57 16.4 0 0 177.79 344.54
  Q 177.53 345.43 178.33 345.67
  Q 180.23 346.23 181.25 347.33
  C 176.74 345.64 174.47 343.89 171.10 341.98
  C 169.07 340.83 166.92 339.08 164.75 338.00
  A 1.20 1.19 -42.4 0 0 163.79 337.96
  Q 152.86 342.23 142.00 346.47
  C 140.89 346.91 139.78 347.87 138.52 348.32
  Q 121.28 354.44 104.35 361.41
  Q 103.23 361.87 102.65 361.11
  A 1.00 0.98 39.2 0 1 102.54 360.14
  Q 105.25 353.99 110.56 349.85
  A 0.58 0.58 0.0 0 0 109.96 348.86
  C 106.20 350.55 101.79 351.45 98.75 352.37
  C 86.23 356.14 73.22 359.71 61.13 363.36
  Q 29.57 372.89 4.02 379.54
  C 0.78 380.39 -0.17 377.24 0.23 374.51
  C 1.47 366.21 10.63 357.44 18.09 354.43
  C 40.03 345.58 62.12 336.96 83.91 327.74
  C 98.61 321.51 114.74 315.55 136.72 306.10
  C 140.95 304.28 145.68 302.79 150.14 301.02
  A 1.01 0.99 -5.2 0 0 150.75 300.30
  L 152.02 294.55
  Q 151.84 295.18 152.15 295.53
  A 0.51 0.51 0.0 0 0 152.99 295.41
  L 156.50 288.03
  Q 156.70 287.62 156.27 287.47
  Q 155.77 287.29 155.45 287.76
  Q 154.16 289.70 152.02 294.55
  Q 152.30 289.16 156.05 286.03
  C 160.38 282.42 158.47 281.48 160.33 277.43
  C 165.94 265.23 177.58 253.82 188.10 245.72
  A 1.65 1.62 81.0 0 0 188.65 244.95
  C 190.66 238.89 201.65 233.58 207.74 230.80
  Q 210.22 229.67 212.13 229.67
  Q 212.67 229.67 213.15 229.42
  Q 222.75 224.46 233.37 222.47
  A 0.50 0.50 0.0 0 0 233.50 221.54
  Q 225.95 217.76 219.55 212.22
  A 0.96 0.96 0.0 0 1 220.02 210.55
  L 242.44 206.89
  A 2.21 2.21 0.0 0 0 244.20 205.35
  Q 248.19 192.26 254.74 180.24
  Q 254.96 179.82 254.83 179.36
  L 254.47 178.12
  Q 254.34 177.69 254.79 177.61
  Q 259.26 176.86 258.63 172.51
  Q 258.56 171.98 258.11 171.70
  L 254.89 169.69
  Q 254.52 169.45 254.49 169.02
  Q 254.44 168.44 254.70 167.98
  Q 254.64 168.63 255.04 169.22
  L 259.97 168.38
  A 2.09 2.08 70.6 0 1 262.16 169.43
  L 264.02 172.81
  A 0.48 0.47 -38.7 0 0 264.79 172.89
  C 266.09 171.41 267.86 167.15 269.96 167.51
  L 276.05 167.67
  A 1.30 1.28 72.9 0 1 277.09 168.23
  L 282.11 175.35
  A 0.95 0.94 -49.4 0 0 283.73 175.22
  C 285.21 172.25 286.37 168.59 289.54 167.06
  Q 290.83 166.45 289.96 165.48
  Q 290.05 165.27 289.91 164.99
  Q 289.81 164.80 290.01 164.73
  Q 290.12 164.69 290.29 164.66
  L 293.16 165.77
  Q 297.44 168.85 298.97 166.67
  Q 301.06 165.17 301.62 162.52
  Q 301.68 162.21 301.96 162.35
  Q 302.11 162.43 302.19 162.53
  Q 302.32 162.69 302.18 163.02
  Q 301.43 164.70 300.71 166.61
  Q 298.35 167.62 298.35 169.22
  Q 298.35 169.44 298.15 169.34
  L 295.68 168.15
  Q 295.00 167.82 295.06 168.58
  C 295.80 177.86 317.61 170.47 309.89 162.92
  Q 306.92 159.21 301.95 158.75
  Q 301.83 158.74 301.80 158.86
  Q 301.76 159.01 301.79 159.16
  Q 301.84 159.37 301.63 159.32
  L 294.96 157.57
  Q 295.18 157.11 295.42 156.93
  Q 298.09 157.52 300.68 157.42
  C 305.81 157.20 310.85 157.35 315.97 157.50
  Q 310.74 158.67 311.53 162.93
  C 312.17 166.40 312.08 169.10 314.61 172.02
  Q 313.11 171.66 312.35 169.58
  A 0.65 0.65 0.0 0 0 311.31 169.31
  L 310.68 169.86
  A 0.56 0.55 45.3 0 0 310.68 170.69
  Q 319.08 178.29 325.06 187.92
  A 1.73 1.72 -58.8 0 1 325.32 188.99
  L 325.03 191.91
  A 0.86 0.85 11.1 0 0 325.64 192.81
  Q 329.38 193.93 330.47 195.53
  C 333.98 200.70 339.08 213.81 336.21 220.71
  C 332.94 228.58 325.00 230.72 317.93 234.71
  Q 316.36 237.76 316.00 243.46
  Q 315.83 246.21 313.41 246.36
  Q 312.91 246.40 312.75 245.92
  Q 311.11 241.08 311.89 235.93
  A 0.87 0.86 -69.5 0 0 311.51 235.08
  L 308.12 232.94
  Q 305.59 231.39 305.38 228.71
  Q 305.32 227.90 304.81 228.53
  Q 303.93 229.64 303.85 231.78
  C 301.76 238.57 310.59 245.12 314.87 249.75
  A 0.70 0.69 48.8 0 0 315.80 249.82
  Q 318.80 247.45 320.46 243.99
  Q 320.68 243.52 321.13 243.28
  C 327.31 239.91 337.08 237.51 343.35 241.96
  A 0.69 0.68 -42.1 0 0 344.10 241.99
  L 346.18 240.75
  Q 346.94 240.30 346.22 239.80
  Q 341.15 236.28 338.34 231.01
  Q 334.61 221.94 340.98 214.92
  Q 341.30 214.57 341.14 214.12
  C 335.52 198.52 328.04 185.03 315.84 174.16
  Q 315.59 173.94 315.84 173.19
  Q 322.15 178.59 327.09 185.27
  C 328.30 186.90 329.77 187.63 331.68 187.62
  A 1.35 1.35 0.0 0 1 333.00 189.30
  C 332.43 191.55 332.11 193.07 333.34 195.23
  Q 337.74 202.97 340.83 211.13
  A 0.65 0.64 -46.8 0 0 342.05 211.09
  C 343.01 208.07 344.82 206.78 348.03 206.14
  Q 356.21 204.52 364.39 202.94
  C 367.87 202.27 371.11 192.61 372.19 189.50
  A 1.52 1.49 46.2 0 0 372.20 188.53
  L 368.22 176.33
  A 1.64 1.64 0.0 0 1 369.14 174.31
  L 376.97 171.03
  A 2.83 2.81 -6.6 0 0 378.66 168.91
  Q 380.38 159.09 381.19 148.66
  C 381.52 144.53 374.03 137.40 371.07 134.82
  Q 368.27 130.32 362.68 131.87
  Q 363.88 131.39 364.71 130.98
  Q 365.27 130.70 364.19 129.76
  L 366.94 130.23
  Q 371.95 133.53 376.00 138.55
  C 378.41 141.67 382.37 144.67 381.95 149.03
  Q 381.05 158.14 379.69 168.60
  Q 377.94 172.49 370.40 174.44
  A 1.72 1.72 0.0 0 0 369.20 176.66
  L 372.33 185.88
  L 373.19 189.10
  Q 370.67 196.54 366.67 203.03
  Q 366.41 203.44 365.93 203.53
  L 345.82 207.30
  Q 345.27 207.40 344.92 207.85
  L 341.75 211.98
  A 1.07 1.06 -84.3 0 0 343.06 213.59
  L 344.54 212.86
  Q 344.88 212.69 345.26 212.72
  Q 347.42 212.89 348.25 211.10
  A 1.04 1.04 0.0 0 1 348.94 210.53
  Q 353.42 209.40 358.03 209.15
  C 360.58 209.02 362.20 207.66 364.16 206.28
  C 367.44 203.98 372.68 202.56 374.37 198.50
  Q 376.03 194.53 377.51 190.55
  Q 378.09 187.01 376.42 183.09
  L 375.51 178.84
  Q 375.38 178.23 375.96 177.99
  L 382.86 175.07
  A 0.96 0.95 83.9 0 0 383.43 174.35
  L 384.04 170.75
  Q 386.81 158.30 388.41 145.63
  C 388.99 141.04 390.35 138.53 394.47 136.86
  A 1.39 1.34 -45.9 0 1 395.39 136.83
  C 411.22 141.72 426.28 148.46 438.51 159.42
  Q 438.89 159.76 439.39 159.75
  C 443.77 159.73 448.83 157.84 453.12 157.03
  A 1.37 1.37 0.0 0 1 454.64 158.90
  L 449.57 171.04
  A 1.42 1.40 41.7 0 0 449.65 172.27
  C 456.87 184.77 463.10 195.43 466.79 209.62
  C 468.14 214.78 468.69 220.79 469.47 226.34
  C 469.28 232.99 470.49 239.23 470.09 245.80
  Q 468.58 270.42 457.52 292.33
  C 456.71 293.93 456.73 295.58 456.76 297.29
  L 456.90 307.73
  A 0.35 0.35 0.0 0 0 457.56 307.88
  L 463.17 296.30
  C 472.66 276.41 479.14 250.74 477.11 228.36
  C 476.03 222.63 481.49 221.57 485.22 219.57
  L 497.84 212.25
  A 0.49 0.49 0.0 0 0 497.69 211.35
  L 485.24 208.99
  L 475.15 207.07
  Q 474.64 206.97 474.36 206.54
  C 472.81 204.21 472.55 200.95 471.91 199.11
  Q 467.38 186.23 460.74 174.29
  Q 459.84 172.67 459.70 170.84
  A 1.41 1.38 -30.5 0 1 459.94 169.94
  L 465.28 162.35
  L 479.44 141.46
  A 0.97 0.97 0.0 0 0 479.30 140.20
  Q 478.76 139.70 478.03 139.99
  Q 476.97 140.40 476.92 140.42
  Q 463.66 143.69 450.42 147.85
  L 440.77 150.35
  A 1.71 1.69 55.2 0 1 439.33 150.08
  Q 420.20 136.28 397.18 130.09
  Q 395.54 129.65 394.73 128.92
  Z
  M 267.98 174.21
  Q 266.55 174.21 267.04 175.56
  L 267.27 176.17
  A 0.79 0.78 -5.7 0 0 267.89 176.67
  L 270.34 177.00
  A 0.61 0.61 0.0 0 0 271.01 176.21
  Q 270.37 174.20 267.98 174.21
  Z"
/>
<g stroke-width="2.00" fill="none" stroke-linecap="butt">
<path stroke="#3a1e7e" vector-effect="non-scaling-stroke" d="
  M 317.74 179.69
  Q 316.85 179.91 316.99 180.98
  Q 317.06 181.51 316.70 181.89
  L 315.67 183.00"
/>
<path stroke="#8f3790" vector-effect="non-scaling-stroke" d="
  M 336.21 218.14
  C 333.28 218.20 331.76 218.93 330.00 221.53
  Q 326.61 226.51 319.81 227.48"
/>
<path stroke="#63479b" vector-effect="non-scaling-stroke" d="
  M 319.81 227.48
  Q 323.68 225.00 322.12 223.88"
/>
<path stroke="#9f3583" vector-effect="non-scaling-stroke" d="
  M 316.53 234.85
  L 312.73 234.72"
/>
<path stroke="#7e2e82" vector-effect="non-scaling-stroke" d="
  M 309.12 223.19
  Q 310.13 224.10 310.52 226.09"
/>
<path stroke="#a857a0" vector-effect="non-scaling-stroke" d="
  M 310.52 226.09
  L 310.90 227.32"
/>
<path stroke="#d964a3" vector-effect="non-scaling-stroke" d="
  M 310.90 227.32
  Q 309.37 230.68 312.68 232.68
  A 0.87 0.86 45.3 0 0 313.58 232.69
  Q 316.42 231.03 318.93 228.93
  Q 319.23 228.68 319.29 227.71"
/>
<path stroke="#a857a0" vector-effect="non-scaling-stroke" d="
  M 319.29 227.71
  Q 319.78 227.83 319.81 227.48"
/>
<path stroke="#ad74af" vector-effect="non-scaling-stroke" d="
  M 319.29 227.71
  Q 314.85 228.63 310.90 227.32"
/>
<path stroke="#533e8e" vector-effect="non-scaling-stroke" d="
  M 310.52 226.09
  Q 311.22 224.25 309.85 222.10"
/>
<path stroke="#533e8e" vector-effect="non-scaling-stroke" d="
  M 308.80 222.23
  Q 308.71 222.30 308.62 222.38"
/>
<path stroke="#5d4e95" vector-effect="non-scaling-stroke" d="
  M 302.93 231.15
  Q 301.08 230.97 298.77 229.67"
/>
<path stroke="#9f96bd" vector-effect="non-scaling-stroke" d="
  M 263.38 181.62
  Q 264.62 180.28 263.85 177.49"
/>
<path stroke="#504c74" vector-effect="non-scaling-stroke" d="
  M 270.54 177.68
  Q 270.76 178.78 271.41 179.53
  Q 271.63 179.78 271.75 179.48
  Q 271.98 178.89 272.79 178.98"
/>
<path stroke="#9f96bd" vector-effect="non-scaling-stroke" d="
  M 386.44 197.28
  L 349.25 226.15"
/>
<path stroke="#8278ac" vector-effect="non-scaling-stroke" d="
  M 361.60 222.82
  Q 358.05 223.78 356.14 227.93"
/>
<path stroke="#3a1e7e" vector-effect="non-scaling-stroke" d="
  M 330.87 295.92
  Q 319.89 296.66 310.90 302.39"
/>
<path stroke="#504c74" vector-effect="non-scaling-stroke" d="
  M 121.75 353.33
  Q 122.22 348.93 126.56 344.47"
/>
<path stroke="#504c74" vector-effect="non-scaling-stroke" d="
  M 257.39 350.25
  Q 254.60 351.01 252.25 353.29
  Q 251.90 353.64 252.02 354.11
  Q 252.71 356.70 250.93 358.58"
/>
<path stroke="#504c74" vector-effect="non-scaling-stroke" d="
  M 17.63 369.25
  Q 15.68 369.12 13.87 369.15
  C 11.44 369.20 9.24 370.19 6.91 371.03
  Q 6.45 371.20 6.26 371.66
  Q 4.91 374.97 1.58 374.07"
/>
</g>
<path fill="#040307" fill-opacity="0.996" d="
  M 362.52 131.76
  C 357.36 133.77 350.44 135.89 344.98 134.22
  Q 338.86 132.34 332.69 130.22
  A 1.53 1.53 0.0 0 0 330.98 130.73
  L 323.46 140.60
  Q 323.07 141.11 322.46 141.30
  L 310.56 145.09
  Q 310.09 145.24 309.62 145.10
  C 303.48 143.22 293.98 139.63 287.77 139.75
  Q 287.36 139.28 286.91 139.09
  Q 286.43 138.88 286.16 139.32
  L 279.44 150.49
  C 272.57 154.93 268.92 154.47 261.09 151.63
  L 253.12 149.74
  A 0.51 0.51 0.0 0 0 252.63 150.58
  L 257.80 156.06
  L 261.11 159.92
  A 0.82 0.81 -26.8 0 0 261.91 160.18
  Q 267.13 158.92 272.49 159.26
  A 1.23 1.09 -30.8 0 0 273.19 157.06
  L 272.86 156.96
  A 0.82 0.82 0.0 0 1 273.27 155.38
  Q 279.26 156.51 285.14 154.53
  C 288.27 153.47 293.98 153.39 295.34 150.04
  L 297.77 146.29
  A 2.62 2.61 -65.9 0 1 300.66 145.18
  C 304.92 146.35 308.67 146.97 313.17 145.55
  Q 325.12 141.78 337.43 138.79
  L 316.46 145.50
  L 309.50 147.64
  Q 309.13 147.76 308.75 147.68
  L 299.53 145.76
  A 0.82 0.82 0.0 0 0 298.66 146.14
  L 295.36 151.54
  A 4.72 4.67 -81.3 0 1 292.51 153.65
  L 284.65 155.65
  L 283.97 156.58
  L 274.45 156.13
  Q 273.14 156.07 274.26 156.75
  L 277.26 158.57
  Q 277.18 159.27 276.97 158.97
  C 273.22 158.90 270.63 164.11 267.86 160.73
  A 1.51 1.50 49.7 0 0 265.70 160.55
  Q 263.31 162.64 259.80 163.31
  L 258.54 163.26
  Q 259.03 162.38 259.77 161.99
  A 1.29 1.28 55.4 0 0 260.13 159.99
  L 251.57 150.44
  A 0.96 0.95 76.0 0 1 252.51 148.87
  Q 260.20 150.82 268.26 152.77
  C 272.01 153.68 275.54 151.96 278.71 150.22
  A 1.63 1.61 88.3 0 0 279.37 149.51
  C 280.85 146.24 284.81 137.73 288.19 138.57
  Q 298.50 141.11 309.25 144.22
  A 2.60 2.55 -45.6 0 0 310.77 144.19
  Q 316.08 142.44 321.75 140.98
  Q 322.53 140.78 323.19 139.74
  Q 326.63 134.35 331.10 130.36
  A 2.53 2.53 0.0 0 1 333.69 129.88
  C 338.42 131.66 345.79 134.76 350.81 133.90
  Q 356.67 132.89 362.52 131.76
  Z"
/>
<path fill="#3d367e" d="
  M 362.52 131.76
  Q 362.60 131.82 362.68 131.87
  Q 368.27 130.32 371.07 134.82
  Q 370.61 135.16 370.00 134.97
  Q 347.90 141.33 326.24 148.99
  Q 323.47 149.97 317.88 153.24
  C 316.75 153.90 316.25 154.99 314.43 154.87
  Q 311.75 154.69 309.28 154.76
  A 0.56 0.56 0.0 0 1 308.75 154.00
  Q 308.97 153.45 309.45 153.29
  Q 309.94 153.13 310.01 153.09
  Q 324.52 145.88 335.22 141.43
  Q 337.49 140.49 338.97 139.39
  Q 339.51 138.98 338.86 138.79
  Q 337.75 138.45 337.61 139.89
  L 337.43 138.79
  Q 325.12 141.78 313.17 145.55
  C 308.67 146.97 304.92 146.35 300.66 145.18
  A 2.62 2.61 -65.9 0 0 297.77 146.29
  L 295.34 150.04
  L 288.32 140.72
  L 287.77 139.75
  C 293.98 139.63 303.48 143.22 309.62 145.10
  Q 310.09 145.24 310.56 145.09
  L 322.46 141.30
  Q 323.07 141.11 323.46 140.60
  L 330.98 130.73
  A 1.53 1.53 0.0 0 1 332.69 130.22
  Q 338.86 132.34 344.98 134.22
  C 350.44 135.89 357.36 133.77 362.52 131.76
  Z"
/>
<path fill="#040307" fill-opacity="0.996" d="
  M 370.00 134.97
  C 352.56 141.05 333.40 145.40 317.23 154.33
  Q 316.81 154.56 316.76 155.04
  L 316.67 155.92
  L 308.51 155.10
  Q 304.90 154.74 308.17 153.16
  L 317.62 148.61
  L 337.61 139.89
  Q 337.75 138.45 338.86 138.79
  Q 339.51 138.98 338.97 139.39
  Q 337.49 140.49 335.22 141.43
  Q 324.52 145.88 310.01 153.09
  Q 309.94 153.13 309.45 153.29
  Q 308.97 153.45 308.75 154.00
  A 0.56 0.56 0.0 0 0 309.28 154.76
  Q 311.75 154.69 314.43 154.87
  C 316.25 154.99 316.75 153.90 317.88 153.24
  Q 323.47 149.97 326.24 148.99
  Q 347.90 141.33 370.00 134.97
  Z"
/>
<path fill="#4a278b" d="
  M 427.43 151.80
  L 427.16 155.52
  Q 427.12 156.03 427.52 156.36
  L 436.09 163.32
  A 0.76 0.75 31.2 0 1 436.31 164.20
  L 431.09 176.95
  A 0.50 0.50 0.0 0 0 431.66 177.62
  L 444.95 174.67
  Q 445.55 174.54 445.89 175.06
  L 451.29 183.40
  Q 451.58 183.86 452.10 184.03
  Q 453.93 184.65 455.70 184.27
  Q 462.54 196.59 466.09 209.46
  L 457.17 217.87
  Q 456.63 218.38 457.34 218.62
  L 468.05 222.25
  L 468.34 225.37
  Q 455.20 221.68 442.86 216.91
  Q 441.25 216.28 434.44 214.21
  C 428.76 212.48 423.79 210.01 416.95 207.74
  C 408.39 204.92 400.21 200.83 391.72 197.73
  Q 389.89 197.07 389.91 195.20
  L 397.34 188.01
  A 1.02 1.02 0.0 0 0 396.08 186.41
  L 383.81 194.13
  Q 380.23 193.38 378.46 191.17
  Q 378.56 185.53 376.30 179.48
  A 0.65 0.65 0.0 0 1 376.66 178.65
  L 383.58 175.70
  A 1.07 1.06 -5.9 0 0 384.21 174.93
  Q 386.78 162.13 388.77 149.35
  C 389.60 144.04 389.05 140.45 394.71 137.72
  A 1.35 1.33 -48.6 0 1 395.67 137.65
  Q 412.51 142.79 427.43 151.80
  Z"
/>
<path fill="#a08fc2" d="
  M 287.77 139.75
  L 288.32 140.72
  C 288.00 147.34 282.09 144.91 280.42 150.40
  Q 280.28 150.85 279.82 150.75
  Q 279.50 150.67 279.44 150.49
  L 286.16 139.32
  Q 286.43 138.88 286.91 139.09
  Q 287.36 139.28 287.77 139.75
  Z"
/>
<path fill="#de81b2" d="
  M 337.43 138.79
  L 337.61 139.89
  L 317.62 148.61
  L 316.46 145.50
  L 337.43 138.79
  Z"
/>
<path fill="#a08fc2" d="
  M 465.28 162.35
  Q 464.39 162.02 464.49 160.78
  Q 464.54 160.25 464.18 159.85
  Q 462.96 158.54 463.25 156.73
  Q 463.33 156.21 463.04 155.78
  Q 458.67 149.19 450.42 147.85
  Q 463.66 143.69 476.92 140.42
  Q 476.97 140.40 478.03 139.99
  Q 478.76 139.70 479.30 140.20
  A 0.97 0.97 0.0 0 1 479.44 141.46
  L 465.28 162.35
  Z"
/>
<path fill="#7c66ab" d="
  M 288.32 140.72
  L 295.34 150.04
  C 293.98 153.39 288.27 153.47 285.14 154.53
  Q 279.26 156.51 273.27 155.38
  A 0.82 0.82 0.0 0 0 272.86 156.96
  L 273.19 157.06
  A 1.23 1.09 -30.8 0 1 272.49 159.26
  Q 267.13 158.92 261.91 160.18
  A 0.82 0.81 -26.8 0 1 261.11 159.92
  L 257.80 156.06
  Q 258.97 155.48 259.18 154.03
  Q 259.26 153.55 259.74 153.47
  Q 261.66 153.18 261.09 151.63
  C 268.92 154.47 272.57 154.93 279.44 150.49
  Q 279.50 150.67 279.82 150.75
  Q 280.28 150.85 280.42 150.40
  C 282.09 144.91 288.00 147.34 288.32 140.72
  Z"
/>
<path fill="#d34794" d="
  M 316.46 145.50
  L 317.62 148.61
  L 308.17 153.16
  Q 304.90 154.74 308.51 155.10
  L 316.67 155.92
  Q 319.82 155.86 322.44 156.90
  Q 323.76 157.42 322.34 157.44
  L 315.97 157.50
  C 310.85 157.35 305.81 157.20 300.68 157.42
  Q 298.09 157.52 295.42 156.93
  Q 296.96 156.33 297.01 155.63
  Q 297.05 155.04 296.46 155.00
  C 292.75 154.75 288.12 156.79 284.65 155.65
  L 292.51 153.65
  A 4.72 4.67 -81.3 0 0 295.36 151.54
  L 298.66 146.14
  A 0.82 0.82 0.0 0 1 299.53 145.76
  L 308.75 147.68
  Q 309.13 147.76 309.50 147.64
  L 316.46 145.50
  Z"
/>
<path fill="#a08fc2" d="
  M 261.09 151.63
  Q 261.66 153.18 259.74 153.47
  Q 259.26 153.55 259.18 154.03
  Q 258.97 155.48 257.80 156.06
  L 252.63 150.58
  A 0.51 0.51 0.0 0 1 253.12 149.74
  L 261.09 151.63
  Z"
/>
<path fill="#d34794" d="
  M 427.43 151.80
  L 438.19 160.21
  A 3.48 3.45 56.9 0 0 441.17 160.85
  L 453.26 157.89
  A 0.50 0.50 0.0 0 1 453.84 158.57
  L 448.58 171.09
  A 1.59 1.59 0.0 0 0 448.68 172.52
  L 455.70 184.27
  Q 453.93 184.65 452.10 184.03
  Q 451.58 183.86 451.29 183.40
  L 445.89 175.06
  Q 445.55 174.54 444.95 174.67
  L 431.66 177.62
  A 0.50 0.50 0.0 0 1 431.09 176.95
  L 436.31 164.20
  A 0.76 0.75 31.2 0 0 436.09 163.32
  L 427.52 156.36
  Q 427.12 156.03 427.16 155.52
  L 427.43 151.80
  Z"
/>
<path fill="#9fd8e3" d="
  M 295.42 156.93
  Q 295.18 157.11 294.96 157.57
  L 283.97 156.58
  L 284.65 155.65
  C 288.12 156.79 292.75 154.75 296.46 155.00
  Q 297.05 155.04 297.01 155.63
  Q 296.96 156.33 295.42 156.93
  Z"
/>
<path fill="#d9cbe4" d="
  M 283.97 156.58
  L 294.96 157.57
  L 301.63 159.32
  Q 301.84 159.37 301.79 159.16
  Q 301.76 159.01 301.80 158.86
  Q 301.83 158.74 301.95 158.75
  Q 306.92 159.21 309.89 162.92
  C 308.60 166.42 303.80 166.50 300.71 166.61
  Q 301.43 164.70 302.18 163.02
  Q 302.32 162.69 302.19 162.53
  Q 302.11 162.43 301.96 162.35
  Q 301.68 162.21 301.62 162.52
  Q 301.06 165.17 298.97 166.67
  Q 296.15 165.23 293.16 165.77
  L 290.29 164.66
  L 277.26 158.57
  L 274.26 156.75
  Q 273.14 156.07 274.45 156.13
  L 283.97 156.58
  Z"
/>
<path fill="#3d367e" d="
  M 305.02 158.15
  Q 305.43 157.25 306.28 157.45
  Q 308.79 158.03 311.52 158.34
  Q 312.26 158.42 311.85 159.04
  L 310.56 161.00
  A 0.51 0.50 -58.8 0 1 309.89 161.17
  L 305.14 158.49
  A 0.27 0.26 26.6 0 1 305.02 158.15
  Z"
/>
<path fill="#9fd8e3" d="
  M 277.26 158.57
  L 290.29 164.66
  Q 290.12 164.69 290.01 164.73
  Q 289.81 164.80 289.91 164.99
  Q 290.05 165.27 289.96 165.48
  C 285.62 165.64 284.51 170.04 283.54 173.36
  A 0.53 0.53 0.0 0 1 282.59 173.49
  L 278.24 166.76
  Q 277.93 166.27 277.35 166.26
  L 270.01 166.07
  Q 263.16 165.96 255.94 167.94
  Q 255.25 168.13 255.04 169.22
  Q 254.64 168.63 254.70 167.98
  L 256.76 165.29
  Q 258.25 164.94 259.52 163.91
  Q 263.14 164.64 265.70 162.07
  Q 266.15 161.62 266.71 161.92
  L 269.65 163.44
  A 0.72 0.71 -48.0 0 0 270.37 163.40
  L 276.97 158.97
  Q 277.18 159.27 277.26 158.57
  Z"
/>
<path fill="#de81b2" d="
  M 276.97 158.97
  L 270.37 163.40
  A 0.72 0.71 -48.0 0 1 269.65 163.44
  L 266.71 161.92
  Q 266.15 161.62 265.70 162.07
  Q 263.14 164.64 259.52 163.91
  Q 259.73 163.67 259.80 163.31
  Q 263.31 162.64 265.70 160.55
  A 1.51 1.50 49.7 0 1 267.86 160.73
  C 270.63 164.11 273.22 158.90 276.97 158.97
  Z"
/>
<path fill="#646195" d="
  M 309.89 162.92
  C 317.61 170.47 295.80 177.86 295.06 168.58
  Q 295.00 167.82 295.68 168.15
  L 298.15 169.34
  Q 298.35 169.44 298.35 169.22
  Q 298.35 167.62 300.71 166.61
  C 303.80 166.50 308.60 166.42 309.89 162.92
  Z"
/>
<path fill="#6a2272" d="
  M 258.54 163.26
  L 259.80 163.31
  Q 259.73 163.67 259.52 163.91
  Q 258.25 164.94 256.76 165.29
  L 258.54 163.26
  Z"
/>
<path fill="#d34794" d="
  M 289.96 165.48
  Q 290.83 166.45 289.54 167.06
  C 286.37 168.59 285.21 172.25 283.73 175.22
  A 0.95 0.94 -49.4 0 1 282.11 175.35
  L 277.09 168.23
  A 1.30 1.28 72.9 0 0 276.05 167.67
  L 269.96 167.51
  L 270.42 166.86
  Q 270.66 166.52 270.32 166.29
  L 270.01 166.07
  L 277.35 166.26
  Q 277.93 166.27 278.24 166.76
  L 282.59 173.49
  A 0.53 0.53 0.0 0 0 283.54 173.36
  C 284.51 170.04 285.62 165.64 289.96 165.48
  Z"
/>
<path fill="#646195" d="
  M 298.97 166.67
  Q 297.44 168.85 293.16 165.77
  Q 296.15 165.23 298.97 166.67
  Z"
/>
<path fill="#de81b2" d="
  M 270.01 166.07
  L 270.32 166.29
  Q 270.66 166.52 270.42 166.86
  L 269.96 167.51
  C 267.86 167.15 266.09 171.41 264.79 172.89
  A 0.48 0.47 -38.7 0 1 264.02 172.81
  L 262.16 169.43
  A 2.09 2.08 70.6 0 0 259.97 168.38
  L 255.04 169.22
  Q 255.25 168.13 255.94 167.94
  Q 263.16 165.96 270.01 166.07
  Z"
/>
<path fill="#3d367e" d="
  M 276.42 188.40
  Q 282.76 184.68 284.97 179.17
  L 291.26 167.67
  A 1.56 1.55 -34.4 0 1 294.17 168.21
  Q 294.45 170.39 296.10 172.00
  Q 296.52 172.40 297.06 172.63
  L 298.85 173.39
  Q 299.43 173.63 299.25 174.24
  C 298.59 176.49 298.80 179.08 297.67 180.92
  C 293.62 187.47 283.19 189.37 276.42 188.40
  Z"
/>
<path fill="#a08fc2" d="
  M 379.69 168.60
  L 384.04 170.75
  L 383.43 174.35
  A 0.96 0.95 83.9 0 1 382.86 175.07
  L 375.96 177.99
  Q 375.38 178.23 375.51 178.84
  L 376.42 183.09
  L 372.33 185.88
  L 369.20 176.66
  A 1.72 1.72 0.0 0 1 370.40 174.44
  Q 377.94 172.49 379.69 168.60
  Z"
/>
<path fill="#6a2272" d="
  M 289.61 168.77
  C 288.60 171.61 286.00 177.42 282.63 178.99
  A 0.47 0.47 0.0 0 1 281.99 178.40
  L 282.18 177.88
  Q 282.32 177.49 282.72 177.39
  Q 283.97 177.08 284.62 175.84
  Q 286.34 172.56 288.06 169.27
  C 288.28 168.86 288.83 168.42 289.25 168.34
  Q 289.80 168.24 289.61 168.77
  Z"
/>
<path fill="#6a2272" d="
  M 268.90 173.64
  L 266.99 173.03
  Q 266.40 172.84 266.57 172.25
  C 267.80 167.86 272.36 168.06 276.04 168.91
  A 1.19 1.15 78.2 0 1 276.73 169.38
  L 280.26 174.39
  Q 280.62 174.89 280.09 175.19
  Q 277.36 176.79 275.86 179.62
  A 1.07 1.07 0.0 0 1 274.15 179.86
  C 272.94 178.61 271.99 177.00 271.50 175.18
  Q 271.12 173.81 269.32 174.29
  A 0.26 0.25 82.3 0 1 269.00 174.04
  Q 269.00 173.91 269.00 173.77
  Q 269.00 173.67 268.90 173.64
  Z"
/>
<path fill="#7c66ab" d="
  M 314.61 172.02
  L 315.84 173.19
  Q 315.59 173.94 315.84 174.16
  C 328.04 185.03 335.52 198.52 341.14 214.12
  Q 341.30 214.57 340.98 214.92
  Q 334.61 221.94 338.34 231.01
  Q 328.50 234.13 317.93 234.71
  C 325.00 230.72 332.94 228.58 336.21 220.71
  C 339.08 213.81 333.98 200.70 330.47 195.53
  Q 329.38 193.93 325.64 192.81
  A 0.86 0.85 11.1 0 1 325.03 191.91
  L 325.32 188.99
  A 1.73 1.72 -58.8 0 0 325.06 187.92
  Q 319.08 178.29 310.68 170.69
  A 0.56 0.55 45.3 0 1 310.68 169.86
  L 311.31 169.31
  A 0.65 0.65 0.0 0 1 312.35 169.58
  Q 313.11 171.66 314.61 172.02
  Z"
/>
<path fill="#6a2272" d="
  M 259.97 176.29
  Q 259.87 176.49 259.68 176.62
  Q 259.11 176.99 258.69 176.72
  Q 258.15 176.38 258.62 175.94
  Q 261.17 173.54 258.22 170.73
  A 0.53 0.52 60.2 0 1 258.46 169.84
  L 259.96 169.49
  Q 260.56 169.35 260.91 169.85
  L 263.10 173.01
  A 0.50 0.50 0.0 0 1 262.93 173.74
  Q 261.32 174.62 260.13 176.04
  Q 260.03 176.16 259.97 176.29
  Z"
/>
<path fill="#291570" d="
  M 317.74 179.69
  Q 316.85 179.91 316.99 180.98
  Q 317.06 181.51 316.70 181.89
  L 315.67 183.00
  Q 311.22 177.91 305.62 173.81
  Q 305.00 173.36 305.70 173.05
  L 309.15 171.52
  A 0.73 0.72 -33.6 0 1 309.97 171.68
  L 317.74 179.69
  Z"
/>
<path fill="#3d367e" d="
  M 315.79 184.95
  Q 313.57 191.60 307.22 193.95
  Q 306.75 192.92 305.63 192.57
  Q 305.53 192.42 305.56 192.35
  Q 302.72 185.55 295.73 186.04
  A 0.72 0.72 0.0 0 1 295.23 184.75
  C 299.08 181.74 299.38 179.43 299.92 174.75
  Q 299.99 174.22 300.45 173.95
  C 304.62 171.51 313.79 182.16 315.79 184.95
  Z"
/>
<path fill="#6a2272" d="
  M 266.43 175.07
  Q 266.09 176.10 265.02 176.23
  L 261.30 176.70
  Q 260.41 176.81 261.04 176.17
  Q 262.74 174.47 264.95 173.72
  A 1.20 1.17 -39.7 0 1 265.85 173.79
  Q 266.71 174.24 266.43 175.07
  Z"
/>
<path fill="#646195" d="
  M 263.38 181.62
  Q 264.62 180.28 263.85 177.49
  Q 267.24 176.72 270.54 177.68
  Q 270.76 178.78 271.41 179.53
  Q 271.63 179.78 271.75 179.48
  Q 271.98 178.89 272.79 178.98
  Q 273.19 180.41 274.47 181.15
  Q 275.06 181.49 275.51 180.98
  L 279.19 176.85
  Q 279.59 176.40 280.17 176.55
  L 280.73 176.70
  A 1.26 1.26 0.0 0 1 281.13 178.96
  Q 272.80 184.75 263.38 181.62
  Z"
/>
<path fill="#3b3752" d="
  M 272.79 178.98
  Q 271.98 178.89 271.75 179.48
  Q 271.63 179.78 271.41 179.53
  Q 270.76 178.78 270.54 177.68
  Q 271.36 175.97 272.79 178.98
  Z"
/>
<path fill="#d9cbe4" d="
  M 263.85 177.49
  Q 264.62 180.28 263.38 181.62
  L 256.28 179.00
  A 0.52 0.52 0.0 0 1 256.43 177.99
  L 263.85 177.49
  Z"
/>
<path fill="#7c66ab" d="
  M 284.97 179.17
  Q 282.76 184.68 276.42 188.40
  L 273.38 188.41
  Q 267.97 188.36 263.10 186.23
  L 268.19 184.65
  L 284.97 179.17
  Z"
/>
<path fill="#4a278b" d="
  M 317.74 179.69
  L 324.23 187.83
  A 1.21 1.19 -64.9 0 1 324.50 188.59
  L 324.50 192.26
  A 0.83 0.81 -77.5 0 0 324.96 193.00
  C 327.43 194.22 329.46 194.91 330.78 197.56
  C 334.21 204.45 336.73 210.55 336.21 218.14
  C 333.28 218.20 331.76 218.93 330.00 221.53
  Q 326.61 226.51 319.81 227.48
  Q 323.68 225.00 322.12 223.88
  C 326.94 222.17 331.44 218.92 329.91 213.08
  Q 327.85 205.22 324.49 197.85
  Q 324.27 197.36 323.75 197.22
  L 320.21 196.24
  A 0.83 0.81 -5.0 0 1 319.71 195.83
  C 318.62 193.64 320.82 191.31 319.21 188.50
  Q 317.60 185.67 315.67 183.00
  L 316.70 181.89
  Q 317.06 181.51 316.99 180.98
  Q 316.85 179.91 317.74 179.69
  Z"
/>
<path fill="#3d367e" d="
  M 268.19 184.65
  L 263.10 186.23
  Q 260.92 186.21 257.61 188.10
  A 1.50 1.45 -4.3 0 0 256.99 188.80
  Q 252.22 200.08 249.24 211.97
  A 0.83 0.82 0.5 0 1 248.61 212.58
  L 237.67 214.88
  A 0.73 0.73 0.0 0 0 237.40 216.20
  L 242.08 219.51
  A 0.38 0.38 0.0 0 1 241.91 220.19
  L 234.70 221.25
  L 228.57 217.75
  Q 233.38 213.96 233.53 209.17
  L 243.43 207.63
  Q 243.92 207.56 244.12 207.10
  Q 246.10 202.49 247.72 197.87
  Q 250.89 188.85 255.22 180.72
  A 1.08 1.08 0.0 0 1 256.58 180.23
  Q 259.58 181.47 262.69 182.52
  C 264.50 183.12 266.70 182.35 268.19 184.65
  Z"
/>
<path fill="#7c66ab" d="
  M 376.42 183.09
  Q 378.09 187.01 377.51 190.55
  Q 375.48 190.47 373.19 189.10
  L 372.33 185.88
  L 376.42 183.09
  Z"
/>
<path fill="#7c66ab" d="
  M 315.79 184.95
  L 319.09 189.76
  Q 319.38 190.18 319.32 190.68
  L 318.81 195.11
  A 1.55 1.54 12.0 0 0 319.89 196.76
  L 323.22 197.77
  Q 323.74 197.93 323.98 198.41
  Q 327.47 205.43 329.04 213.01
  C 329.96 217.43 328.28 220.65 324.09 222.00
  C 321.29 217.10 326.37 211.90 318.94 208.00
  Q 318.62 207.83 318.37 208.09
  L 316.29 210.26
  Q 313.55 201.46 307.22 193.95
  Q 313.57 191.60 315.79 184.95
  Z"
/>
<path fill="#3b3752" d="
  M 263.10 186.23
  Q 267.97 188.36 273.38 188.41
  Q 273.10 188.84 271.95 188.85
  L 270.84 188.75
  Q 270.25 188.70 270.22 189.29
  Q 270.21 189.65 270.38 189.88
  Q 270.38 190.17 269.66 189.47
  Q 267.80 188.38 265.44 188.37
  Q 264.83 188.37 265.07 188.92
  C 267.44 194.39 274.20 206.96 281.51 206.00
  Q 283.77 205.71 285.16 206.02
  A 0.74 0.74 0.0 0 1 285.74 206.80
  C 285.49 209.99 284.33 213.26 286.71 215.83
  Q 292.20 221.76 300.05 223.31
  Q 299.88 223.50 299.58 223.55
  Q 299.27 223.60 299.24 223.91
  Q 299.23 224.05 299.24 224.20
  L 288.76 220.40
  Q 286.92 220.28 287.00 219.92
  L 269.73 213.72
  Q 269.76 213.39 269.95 213.17
  Q 270.33 212.71 270.89 212.91
  L 287.28 218.88
  A 0.33 0.33 0.0 0 0 287.64 218.34
  L 284.63 215.18
  A 1.15 1.12 26.0 0 1 284.32 214.31
  L 284.77 207.57
  A 0.47 0.47 0.0 0 0 284.31 207.07
  L 277.27 206.84
  A 0.91 0.90 65.6 0 1 276.72 206.63
  Q 267.93 198.96 263.47 188.18
  A 1.31 1.30 -20.2 0 0 261.85 187.44
  L 258.33 188.62
  A 1.08 1.08 0.0 0 0 257.65 189.30
  L 252.27 205.16
  C 251.45 207.72 250.98 213.19 247.92 213.86
  Q 243.54 214.82 239.34 215.56
  A 0.38 0.37 -33.0 0 0 239.19 216.24
  L 244.34 219.73
  Q 244.67 219.96 245.06 219.96
  L 257.42 220.01
  Q 269.06 220.80 281.47 225.11
  A 0.46 0.46 0.0 0 0 281.88 224.29
  L 267.39 214.52
  A 0.90 0.90 0.0 0 1 267.52 212.96
  Q 268.38 212.57 268.13 213.49
  L 274.51 217.62
  C 275.14 219.33 277.23 219.66 278.43 220.52
  Q 280.75 222.19 283.00 223.98
  Q 283.39 224.30 283.74 223.94
  Q 284.13 223.55 284.29 222.73
  L 285.43 223.02
  Q 285.54 223.76 285.64 223.37
  Q 285.18 223.84 285.04 224.24
  Q 284.90 224.65 285.32 225.14
  Q 287.44 227.59 290.58 228.89
  Q 289.51 228.92 289.96 229.57
  Q 289.92 229.50 289.87 229.43
  C 272.45 222.04 252.68 218.69 234.01 222.99
  Q 233.96 221.91 234.70 221.25
  L 241.91 220.19
  A 0.38 0.38 0.0 0 0 242.08 219.51
  L 237.40 216.20
  A 0.73 0.73 0.0 0 1 237.67 214.88
  L 248.61 212.58
  A 0.83 0.82 0.5 0 0 249.24 211.97
  Q 252.22 200.08 256.99 188.80
  A 1.50 1.45 -4.3 0 1 257.61 188.10
  Q 260.92 186.21 263.10 186.23
  Z"
/>
<path fill="#291570" d="
  M 269.73 213.72
  Q 268.68 212.84 268.13 213.49
  Q 268.38 212.57 267.52 212.96
  A 0.90 0.90 0.0 0 0 267.39 214.52
  L 281.88 224.29
  A 0.46 0.46 0.0 0 1 281.47 225.11
  Q 269.06 220.80 257.42 220.01
  L 253.25 215.14
  A 1.11 1.09 -59.9 0 1 253.01 214.22
  C 253.52 211.52 254.78 207.07 252.27 205.16
  L 257.65 189.30
  A 1.08 1.08 0.0 0 1 258.33 188.62
  L 261.85 187.44
  A 1.31 1.30 -20.2 0 1 263.47 188.18
  Q 267.93 198.96 276.72 206.63
  A 0.91 0.90 65.6 0 0 277.27 206.84
  L 284.31 207.07
  A 0.47 0.47 0.0 0 1 284.77 207.57
  L 284.32 214.31
  A 1.15 1.12 26.0 0 0 284.63 215.18
  L 287.64 218.34
  A 0.33 0.33 0.0 0 1 287.28 218.88
  L 270.89 212.91
  Q 270.33 212.71 269.95 213.17
  Q 269.76 213.39 269.73 213.72
  Z"
/>
<path fill="#d9cbe4" d="
  M 386.44 197.28
  L 349.25 226.15
  C 346.88 222.87 346.09 218.94 349.83 216.43
  Q 358.17 210.82 366.88 205.70
  Q 367.53 205.31 367.50 206.07
  Q 367.42 207.93 368.53 209.44
  Q 368.88 209.92 368.84 209.32
  C 368.73 207.60 367.83 205.19 369.57 204.08
  Q 382.57 195.77 395.53 187.80
  A 0.33 0.33 0.0 0 1 395.93 188.32
  L 386.44 197.28
  Z"
/>
<path fill="#291570" d="
  M 329.48 188.49
  A 0.14 0.14 0.0 0 1 329.52 188.30
  L 329.57 188.27
  A 1.75 1.72 -32.0 0 1 331.96 188.81
  L 332.02 188.91
  A 1.75 1.72 -32.0 0 1 331.45 191.29
  L 331.41 191.32
  A 0.14 0.14 0.0 0 1 331.22 191.27
  L 329.48 188.49
  Z"
/>
<path fill="#3d367e" d="
  M 269.66 189.47
  Q 273.12 196.89 278.63 202.57
  Q 279.04 202.99 279.63 203.02
  L 288.08 203.34
  A 1.25 1.25 0.0 0 1 289.27 204.75
  C 288.98 206.94 287.63 211.84 289.61 213.41
  Q 294.13 217.01 299.05 220.05
  A 1.21 1.17 -35.4 0 0 299.96 220.19
  C 302.20 219.61 309.29 216.67 310.16 219.85
  A 0.74 0.74 0.0 0 1 309.58 220.78
  Q 305.47 221.47 301.94 223.73
  Q 301.46 224.04 300.95 223.77
  L 300.05 223.31
  Q 292.20 221.76 286.71 215.83
  C 284.33 213.26 285.49 209.99 285.74 206.80
  A 0.74 0.74 0.0 0 0 285.16 206.02
  Q 283.77 205.71 281.51 206.00
  C 274.20 206.96 267.44 194.39 265.07 188.92
  Q 264.83 188.37 265.44 188.37
  Q 267.80 188.38 269.66 189.47
  Z"
/>
<path fill="#3d367e" d="
  M 373.19 189.10
  Q 375.48 190.47 377.51 190.55
  Q 376.03 194.53 374.37 198.50
  C 372.68 202.56 367.44 203.98 364.16 206.28
  C 362.20 207.66 360.58 209.02 358.03 209.15
  Q 353.42 209.40 348.94 210.53
  A 1.04 1.04 0.0 0 0 348.25 211.10
  Q 347.42 212.89 345.26 212.72
  Q 344.88 212.69 344.54 212.86
  L 343.06 213.59
  A 1.07 1.06 -84.3 0 1 341.75 211.98
  L 344.92 207.85
  Q 345.27 207.40 345.82 207.30
  L 365.93 203.53
  Q 366.41 203.44 366.67 203.03
  Q 370.67 196.54 373.19 189.10
  Z"
/>
<path fill="#291570" d="
  M 378.46 191.17
  Q 380.23 193.38 383.81 194.13
  L 376.36 198.83
  A 0.47 0.47 0.0 0 1 375.67 198.26
  L 378.46 191.17
  Z"
/>
<path fill="#291570" d="
  M 389.91 195.20
  Q 389.89 197.07 391.72 197.73
  C 400.21 200.83 408.39 204.92 416.95 207.74
  C 423.79 210.01 428.76 212.48 434.44 214.21
  Q 441.25 216.28 442.86 216.91
  Q 455.20 221.68 468.34 225.37
  Q 472.64 257.00 458.45 287.67
  A 0.36 0.35 -38.7 0 1 457.78 287.60
  Q 451.15 257.76 433.94 233.13
  Q 431.16 231.14 429.68 228.07
  Q 424.20 221.15 419.76 218.22
  C 415.11 215.16 405.95 219.11 401.72 221.78
  Q 401.40 221.85 401.08 221.92
  Q 399.23 220.76 397.83 218.57
  A 1.94 1.93 -33.2 0 0 395.12 218.01
  Q 392.73 219.62 391.39 222.16
  C 390.50 223.86 390.30 226.45 388.80 228.45
  L 387.50 229.19
  L 381.74 231.64
  Q 381.28 231.84 380.80 231.74
  L 359.18 227.27
  Q 359.71 227.75 358.61 227.11
  L 389.91 195.20
  Z"
/>
<path fill="#646195" d="
  M 386.44 197.28
  L 372.61 211.92
  Q 372.17 212.39 371.71 211.93
  L 370.52 210.72
  Q 369.94 210.13 369.95 210.95
  Q 369.97 211.93 370.97 212.08
  A 0.67 0.67 0.0 0 1 371.34 213.22
  L 361.60 222.82
  Q 358.05 223.78 356.14 227.93
  Q 352.67 230.10 349.25 226.15
  L 386.44 197.28
  Z"
/>
<path fill="#6a2272" d="
  M 252.27 205.16
  C 254.78 207.07 253.52 211.52 253.01 214.22
  A 1.11 1.09 -59.9 0 0 253.25 215.14
  L 257.42 220.01
  L 245.06 219.96
  Q 244.67 219.96 244.34 219.73
  L 239.19 216.24
  A 0.38 0.37 -33.0 0 1 239.34 215.56
  Q 243.54 214.82 247.92 213.86
  C 250.98 213.19 251.45 207.72 252.27 205.16
  Z"
/>
<path fill="#a08fc2" d="
  M 324.09 222.00
  Q 319.83 224.31 315.62 224.49
  A 3.03 3.02 -27.1 0 1 313.62 223.85
  C 311.62 222.27 312.64 220.61 314.13 219.13
  Q 317.66 215.63 316.29 210.26
  L 318.37 208.09
  Q 318.62 207.83 318.94 208.00
  C 326.37 211.90 321.29 217.10 324.09 222.00
  Z"
/>
<path fill="#a08fc2" d="
  M 485.24 208.99
  L 497.69 211.35
  A 0.49 0.49 0.0 0 1 497.84 212.25
  L 485.22 219.57
  C 482.84 217.77 484.81 211.61 485.24 208.99
  Z"
/>
<path fill="#646195" d="
  M 233.53 209.17
  Q 233.38 213.96 228.57 217.75
  Q 224.48 215.73 221.02 212.38
  Q 220.47 211.85 221.22 211.69
  L 233.53 209.17
  Z"
/>
<path fill="#d34794" d="
  M 466.09 209.46
  L 468.05 222.25
  L 457.34 218.62
  Q 456.63 218.38 457.17 217.87
  L 466.09 209.46
  Z"
/>
<path fill="#291570" d="
  M 350.82 214.58
  Q 350.29 213.77 350.67 214.16
  Q 350.39 213.20 349.24 213.08
  A 0.93 0.93 0.0 0 1 349.21 211.24
  L 356.46 210.17
  A 0.39 0.39 0.0 0 1 356.73 210.89
  L 350.82 214.58
  Z"
/>
<path fill="#d9cbe4" d="
  M 268.13 213.49
  Q 268.68 212.84 269.73 213.72
  L 287.00 219.92
  L 284.15 222.63
  Q 279.64 219.46 274.51 217.62
  L 268.13 213.49
  Z"
/>
<path fill="#7c66ab" d="
  M 350.67 214.16
  Q 350.29 213.77 350.82 214.58
  Q 343.20 219.00 348.65 226.63
  L 339.00 230.66
  Q 334.41 218.99 344.81 213.56
  Q 346.79 212.53 350.67 214.16
  Z"
/>
<path fill="#040307" fill-opacity="0.996" d="
  M 429.68 228.07
  Q 422.01 220.77 418.91 218.59
  C 415.47 216.18 407.29 219.51 401.72 221.78
  C 405.95 219.11 415.11 215.16 419.76 218.22
  Q 424.20 221.15 429.68 228.07
  Z"
/>
<path fill="#646195" d="
  M 274.51 217.62
  Q 279.64 219.46 284.15 222.63
  Q 284.22 222.68 284.29 222.73
  Q 284.13 223.55 283.74 223.94
  Q 283.39 224.30 283.00 223.98
  Q 280.75 222.19 278.43 220.52
  C 277.23 219.66 275.14 219.33 274.51 217.62
  Z"
/>
<path fill="#040307" fill-opacity="0.996" d="
  M 401.08 221.92
  L 404.47 231.12
  Q 404.15 231.50 403.53 230.23
  L 400.83 224.00
  Q 399.58 220.52 396.83 218.71
  Q 396.44 218.45 395.99 218.59
  C 390.13 220.42 394.31 225.34 397.25 226.97
  L 402.52 230.71
  L 402.96 231.80
  L 398.38 228.69
  A 1.21 1.20 33.1 0 0 396.68 229.04
  C 393.81 233.64 393.84 240.60 398.52 244.11
  A 0.60 0.59 23.4 0 0 399.46 243.74
  L 400.63 237.27
  A 0.88 0.87 32.1 0 1 402.20 236.91
  C 404.73 240.40 405.53 246.79 406.33 251.01
  A 1.47 1.46 -36.2 0 1 406.18 251.96
  C 402.51 258.64 395.92 251.59 392.59 248.81
  A 2.56 2.56 0.0 0 0 389.70 248.54
  C 381.47 253.09 375.06 259.76 366.09 262.48
  Q 365.53 262.65 365.20 262.18
  L 357.43 251.28
  Q 361.59 255.33 364.45 260.45
  C 364.81 261.09 365.71 261.59 366.31 261.96
  A 0.57 0.57 0.0 0 0 367.02 261.07
  C 363.91 257.87 366.22 255.31 367.62 252.13
  L 375.89 247.85
  A 0.64 0.64 0.0 0 0 375.84 246.69
  C 371.13 244.75 369.79 241.25 374.58 238.34
  Q 379.73 235.20 386.01 235.14
  A 1.05 1.04 11.5 0 0 386.95 234.52
  L 389.22 229.42
  A 0.63 0.63 0.0 0 0 389.16 228.81
  Q 388.98 228.56 388.80 228.45
  C 390.30 226.45 390.50 223.86 391.39 222.16
  Q 392.73 219.62 395.12 218.01
  A 1.94 1.93 -33.2 0 1 397.83 218.57
  Q 399.23 220.76 401.08 221.92
  Z"
/>
<g stroke-width="2.00" fill="none" stroke-linecap="butt">
<path stroke="#5d4e95" vector-effect="non-scaling-stroke" d="
  M 394.68 232.50
  Q 391.85 232.78 391.18 230.66
  Q 391.00 230.08 390.42 230.25
  L 389.58 230.51"
/>
<path stroke="#5d4e95" vector-effect="non-scaling-stroke" d="
  M 373.61 258.38
  Q 369.76 255.26 370.06 251.70"
/>
<path stroke="#d964a3" vector-effect="non-scaling-stroke" d="
  M 381.34 241.04
  Q 378.17 240.19 378.24 237.58"
/>
<path stroke="#d964a3" vector-effect="non-scaling-stroke" d="
  M 404.62 248.00
  Q 401.40 249.27 400.14 245.27"
/>
</g>
<path fill="#d34794" d="
  M 336.21 218.14
  C 333.08 228.31 324.60 230.20 316.53 234.85
  L 312.73 234.72
  C 308.03 232.15 302.32 228.63 309.12 223.19
  Q 310.13 224.10 310.52 226.09
  L 310.90 227.32
  Q 309.37 230.68 312.68 232.68
  A 0.87 0.86 45.3 0 0 313.58 232.69
  Q 316.42 231.03 318.93 228.93
  Q 319.23 228.68 319.29 227.71
  Q 319.78 227.83 319.81 227.48
  Q 326.61 226.51 330.00 221.53
  C 331.76 218.93 333.28 218.20 336.21 218.14
  Z"
/>
<path fill="#d34794" d="
  M 400.83 224.00
  C 398.25 222.96 397.53 224.97 397.25 226.97
  C 394.31 225.34 390.13 220.42 395.99 218.59
  Q 396.44 218.45 396.83 218.71
  Q 399.58 220.52 400.83 224.00
  Z"
/>
<path fill="#a08fc2" d="
  M 287.00 219.92
  Q 286.92 220.28 288.76 220.40
  Q 286.32 220.53 285.43 223.02
  L 284.29 222.73
  Q 284.22 222.68 284.15 222.63
  L 287.00 219.92
  Z"
/>
<path fill="#7c66ab" d="
  M 322.12 223.88
  Q 323.68 225.00 319.81 227.48
  Q 319.78 227.83 319.29 227.71
  Q 314.85 228.63 310.90 227.32
  L 310.52 226.09
  Q 311.22 224.25 309.85 222.10
  Q 310.56 220.91 311.31 220.44
  Q 311.90 220.08 311.84 220.77
  C 311.34 227.22 318.50 225.23 322.12 223.88
  Z"
/>
<path fill="#d9cbe4" d="
  M 288.76 220.40
  L 299.24 224.20
  Q 299.96 224.39 300.27 224.60
  Q 300.61 224.84 300.20 225.41
  Q 298.84 227.30 297.81 229.29
  L 285.64 223.37
  Q 285.54 223.76 285.43 223.02
  Q 286.32 220.53 288.76 220.40
  Z"
/>
<path fill="#7c66ab" d="
  M 289.87 229.43
  Q 288.91 231.30 289.03 231.46
  A 2.60 2.59 -27.3 0 1 287.76 235.41
  Q 286.31 235.91 285.77 237.81
  C 264.07 229.77 239.98 226.43 217.44 230.83
  L 211.96 232.34
  Q 211.55 232.46 211.30 232.12
  Q 210.97 231.68 211.43 231.42
  Q 221.36 225.62 234.01 222.99
  C 252.68 218.69 272.45 222.04 289.87 229.43
  Z"
/>
<path fill="#7c66ab" d="
  M 308.80 222.23
  Q 308.71 222.30 308.62 222.38
  Q 304.58 225.78 302.93 231.15
  Q 301.08 230.97 298.77 229.67
  Q 301.56 223.55 307.50 222.00
  Q 308.33 221.78 308.80 222.23
  Z"
/>
<path fill="#291570" d="
  M 309.85 222.10
  Q 311.22 224.25 310.52 226.09
  Q 310.13 224.10 309.12 223.19
  L 308.62 222.38
  Q 308.71 222.30 308.80 222.23
  Q 309.52 222.33 309.85 222.10
  Z"
/>
<path fill="#a08fc2" d="
  M 361.60 222.82
  L 356.14 227.93
  Q 358.05 223.78 361.60 222.82
  Z"
/>
<path fill="#3d367e" d="
  M 394.68 232.50
  Q 391.85 232.78 391.18 230.66
  Q 391.00 230.08 390.42 230.25
  L 389.58 230.51
  L 391.76 223.57
  A 0.42 0.41 -57.6 0 1 392.46 223.41
  L 395.88 227.11
  Q 396.20 227.46 396.07 227.91
  L 394.68 232.50
  Z"
/>
<path fill="#646195" d="
  M 285.64 223.37
  L 297.81 229.29
  L 297.14 231.81
  Q 296.99 232.38 296.48 232.10
  L 290.58 228.89
  Q 287.44 227.59 285.32 225.14
  Q 284.90 224.65 285.04 224.24
  Q 285.18 223.84 285.64 223.37
  Z"
/>
<path fill="#de81b2" d="
  M 400.83 224.00
  L 403.53 230.23
  Q 403.64 230.97 402.52 230.71
  L 397.25 226.97
  C 397.53 224.97 398.25 222.96 400.83 224.00
  Z"
/>
<path fill="#3d367e" d="
  M 469.47 226.34
  L 477.11 228.36
  C 479.14 250.74 472.66 276.41 463.17 296.30
  L 457.72 296.02
  Q 457.23 295.99 457.07 296.44
  L 456.76 297.29
  C 456.73 295.58 456.71 293.93 457.52 292.33
  Q 468.58 270.42 470.09 245.80
  C 470.49 239.23 469.28 232.99 469.47 226.34
  Z"
/>
<path fill="#3d367e" d="
  M 348.65 226.63
  Q 353.48 232.29 358.61 227.11
  Q 359.71 227.75 359.18 227.27
  L 359.91 234.43
  A 0.67 0.66 -10.7 0 1 359.42 235.14
  C 354.87 236.35 352.27 236.36 349.31 240.28
  A 0.69 0.69 0.0 0 1 348.41 240.46
  Q 342.13 236.81 339.00 230.66
  L 348.65 226.63
  Z"
/>
<path fill="#de81b2" d="
  M 310.90 227.32
  Q 314.85 228.63 319.29 227.71
  Q 319.23 228.68 318.93 228.93
  Q 316.42 231.03 313.58 232.69
  A 0.87 0.86 45.3 0 1 312.68 232.68
  Q 309.37 230.68 310.90 227.32
  Z"
/>
<path fill="#7c66ab" d="
  M 308.12 232.94
  Q 306.43 234.10 303.85 231.78
  Q 303.93 229.64 304.81 228.53
  Q 305.32 227.90 305.38 228.71
  Q 305.59 231.39 308.12 232.94
  Z"
/>
<path fill="#3b3752" d="
  M 285.77 237.81
  L 290.00 239.55
  Q 290.11 239.96 289.70 240.56
  L 283.77 238.51
  Q 251.06 226.67 217.72 231.70
  Q 217.80 231.54 217.44 230.83
  C 239.98 226.43 264.07 229.77 285.77 237.81
  Z"
/>
<path fill="#4a278b" d="
  M 289.87 229.43
  Q 289.92 229.50 289.96 229.57
  C 300.45 235.08 307.88 242.94 315.27 251.94
  A 0.39 0.38 89.1 0 1 314.74 252.49
  C 307.45 246.79 298.54 242.99 290.00 239.55
  L 285.77 237.81
  Q 286.31 235.91 287.76 235.41
  A 2.60 2.59 -27.3 0 0 289.03 231.46
  Q 288.91 231.30 289.87 229.43
  Z"
/>
<path fill="#3d367e" d="
  M 298.77 229.67
  Q 301.08 230.97 302.93 231.15
  L 302.98 236.54
  Q 302.98 236.94 302.62 236.77
  Q 296.33 233.77 298.77 229.67
  Z"
/>
<path fill="#a08fc2" d="
  M 283.77 238.51
  Q 272.55 243.36 260.98 244.24
  Q 260.48 244.28 260.06 244.55
  Q 258.29 245.66 256.15 245.97
  Q 255.68 246.03 255.44 246.44
  L 254.61 247.87
  A 1.84 1.84 0.0 0 1 252.44 248.67
  Q 249.23 247.58 246.67 247.04
  C 244.54 246.59 242.34 247.46 239.93 247.29
  Q 215.71 243.92 192.20 251.36
  Q 191.67 251.52 191.37 251.06
  Q 190.18 249.27 190.24 246.70
  L 190.49 243.66
  A 1.27 1.21 -21.4 0 1 190.87 242.85
  Q 198.62 235.35 208.71 231.42
  A 1.03 1.02 67.8 0 1 210.03 231.98
  L 210.51 233.13
  Q 210.73 233.67 211.30 233.51
  L 217.72 231.70
  Q 251.06 226.67 283.77 238.51
  Z"
/>
<path fill="#7c66ab" d="
  M 394.68 232.50
  Q 392.30 240.68 398.65 244.89
  Q 399.10 245.18 399.03 245.72
  L 398.33 251.49
  Q 398.26 252.09 397.78 251.73
  L 392.06 247.53
  A 2.15 2.15 0.0 0 0 389.57 247.48
  L 373.61 258.38
  Q 369.76 255.26 370.06 251.70
  C 374.69 249.01 380.84 245.45 386.29 246.47
  Q 386.76 246.55 387.20 246.36
  Q 388.27 245.87 389.07 246.67
  A 0.30 0.29 11.3 0 0 389.56 246.35
  Q 389.43 246.06 389.25 245.86
  Q 389.10 245.69 388.78 245.67
  Q 382.32 245.15 375.94 246.39
  A 0.38 0.38 0.0 0 1 375.49 246.00
  Q 375.50 245.86 375.50 245.74
  Q 375.50 245.51 375.71 245.43
  C 379.47 244.01 382.34 241.20 385.47 239.51
  Q 387.67 238.33 389.97 236.95
  A 0.73 0.73 0.0 0 0 389.85 235.64
  L 388.34 235.08
  Q 387.79 234.88 388.01 234.34
  L 389.58 230.51
  L 390.42 230.25
  Q 391.00 230.08 391.18 230.66
  Q 391.85 232.78 394.68 232.50
  Z"
/>
<path fill="#6a2272" d="
  M 403.53 230.23
  Q 404.15 231.50 404.47 231.12
  Q 404.28 231.61 404.13 231.90
  Q 403.93 232.26 403.60 232.25
  Q 403.22 232.24 402.96 231.80
  L 402.52 230.71
  Q 403.64 230.97 403.53 230.23
  Z"
/>
<path fill="#3d367e" d="
  M 338.34 231.01
  Q 341.15 236.28 346.22 239.80
  Q 346.94 240.30 346.18 240.75
  L 344.10 241.99
  A 0.69 0.68 -42.1 0 1 343.35 241.96
  C 337.08 237.51 327.31 239.91 321.13 243.28
  Q 320.68 243.52 320.46 243.99
  Q 318.80 247.45 315.80 249.82
  A 0.70 0.69 48.8 0 1 314.87 249.75
  C 310.59 245.12 301.76 238.57 303.85 231.78
  Q 306.43 234.10 308.12 232.94
  L 311.51 235.08
  A 0.87 0.86 -69.5 0 1 311.89 235.93
  Q 311.11 241.08 312.75 245.92
  Q 312.91 246.40 313.41 246.36
  Q 315.83 246.21 316.00 243.46
  Q 316.36 237.76 317.93 234.71
  Q 328.50 234.13 338.34 231.01
  Z"
/>
<path fill="#6a2272" d="
  M 316.53 234.85
  L 315.09 244.95
  A 0.71 0.71 0.0 0 1 314.14 245.51
  L 313.49 245.26
  Q 312.95 245.06 312.81 244.50
  Q 311.61 239.88 312.73 234.72
  L 316.53 234.85
  Z"
/>
<path fill="#de81b2" d="
  M 381.34 241.04
  Q 378.17 240.19 378.24 237.58
  L 388.40 235.70
  A 0.59 0.59 0.0 0 1 388.80 236.79
  L 381.34 241.04
  Z"
/>
<path fill="#3d367e" d="
  M 350.25 241.06
  A 1.42 1.42 0.0 0 1 350.79 239.13
  L 355.80 236.30
  A 3.37 3.15 -29.4 0 1 360.28 237.39
  L 360.28 237.39
  A 3.37 3.15 -29.4 0 1 358.89 241.79
  L 353.88 244.61
  A 1.42 1.42 0.0 0 1 351.95 244.07
  L 350.25 241.06
  Z"
/>
<path fill="#d34794" d="
  M 378.24 237.58
  Q 378.17 240.19 381.34 241.04
  C 379.44 242.82 375.46 246.35 372.94 243.85
  A 2.23 2.23 0.0 0 1 372.87 240.76
  Q 374.98 238.46 378.24 237.58
  Z"
/>
<path fill="#de81b2" d="
  M 404.62 248.00
  Q 401.40 249.27 400.14 245.27
  L 401.15 238.38
  A 0.50 0.50 0.0 0 1 402.10 238.25
  Q 404.00 242.62 404.62 248.00
  Z"
/>
<path fill="#7c66ab" d="
  M 283.77 238.51
  L 289.70 240.56
  C 301.64 244.83 314.58 250.53 321.61 261.21
  Q 319.93 269.52 313.87 275.55
  Q 313.45 275.96 313.07 275.52
  Q 309.99 272.02 306.04 269.96
  C 304.20 269.30 302.54 267.81 301.04 267.00
  Q 288.90 260.43 275.99 255.46
  L 271.12 246.90
  A 3.17 3.16 -28.2 0 0 266.93 245.64
  L 258.65 249.81
  Q 258.20 250.04 257.70 249.97
  L 239.93 247.29
  C 242.34 247.46 244.54 246.59 246.67 247.04
  Q 249.23 247.58 252.44 248.67
  A 1.84 1.84 0.0 0 0 254.61 247.87
  L 255.44 246.44
  Q 255.68 246.03 256.15 245.97
  Q 258.29 245.66 260.06 244.55
  Q 260.48 244.28 260.98 244.24
  Q 272.55 243.36 283.77 238.51
  Z"
/>
<path fill="#d9cbe4" d="
  M 197.78 242.46
  C 198.16 241.46 199.09 240.45 200.17 240.21
  A 0.43 0.43 0.0 0 1 200.56 240.94
  L 198.48 242.92
  A 0.43 0.43 0.0 0 1 197.78 242.46
  Z"
/>
<path fill="#291570" d="
  M 338.26 240.60
  Q 327.56 248.81 322.86 261.34
  L 315.98 251.22
  Q 315.68 250.78 316.11 250.46
  Q 319.13 248.24 320.81 244.84
  Q 321.00 244.46 321.36 244.22
  Q 328.95 239.37 338.26 240.60
  Z"
/>
<path fill="#6a2272" d="
  M 329.46 257.95
  L 327.56 262.28
  Q 325.97 264.26 326.27 266.37
  A 0.50 0.50 0.0 0 1 325.33 266.65
  L 322.86 261.34
  Q 327.56 248.81 338.26 240.60
  Q 340.52 240.40 342.51 242.08
  A 0.92 0.91 43.6 0 1 342.55 243.45
  C 337.88 247.84 332.10 251.98 329.46 257.95
  Z"
/>
<path fill="#291570" d="
  M 367.48 251.60
  Q 367.55 251.87 367.62 252.13
  C 366.22 255.31 363.91 257.87 367.02 261.07
  A 0.57 0.57 0.0 0 1 366.31 261.96
  C 365.71 261.59 364.81 261.09 364.45 260.45
  Q 361.59 255.33 357.43 251.28
  L 357.25 250.30
  A 1.27 1.26 15.5 0 0 356.84 249.58
  Q 355.02 248.04 354.39 245.83
  Q 354.18 245.10 354.83 244.71
  L 359.48 241.90
  A 1.42 1.42 0.0 0 1 361.52 242.55
  Q 363.65 247.45 367.48 251.60
  Z"
/>
<path fill="#d34794" d="
  M 400.14 245.27
  Q 401.40 249.27 404.62 248.00
  C 408.33 255.33 395.54 257.37 400.14 245.27
  Z"
/>
<path fill="#3b3752" d="
  M 275.99 255.46
  Q 275.29 255.47 275.18 256.28
  L 270.27 248.24
  Q 269.07 246.28 267.03 247.33
  L 258.49 251.73
  Q 258.08 251.94 257.62 251.86
  L 241.03 248.83
  Q 215.61 244.66 192.08 252.64
  Q 191.58 252.80 191.17 252.48
  Q 189.00 250.75 189.16 247.21
  Q 189.52 247.22 190.24 246.70
  Q 190.18 249.27 191.37 251.06
  Q 191.67 251.52 192.20 251.36
  Q 215.71 243.92 239.93 247.29
  L 257.70 249.97
  Q 258.20 250.04 258.65 249.81
  L 266.93 245.64
  A 3.17 3.16 -28.2 0 1 271.12 246.90
  L 275.99 255.46
  Z"
/>
<path fill="#7c66ab" d="
  M 189.16 247.21
  Q 189.00 250.75 191.17 252.48
  Q 191.58 252.80 192.08 252.64
  Q 215.61 244.66 241.03 248.83
  Q 238.55 251.40 235.69 252.77
  C 225.43 257.68 232.17 262.85 227.85 269.60
  C 219.87 267.99 211.97 268.96 211.36 278.55
  Q 208.93 278.50 207.11 279.58
  Q 199.29 271.70 188.11 268.92
  A 0.69 0.68 10.7 0 1 187.60 268.18
  Q 188.20 263.12 189.78 257.25
  Q 190.37 255.10 188.47 254.59
  Q 188.02 254.47 187.60 254.70
  Q 178.48 259.75 173.16 266.66
  Q 168.91 272.18 164.39 275.48
  Q 163.56 276.09 162.87 277.17
  Q 161.73 278.97 160.72 278.32
  Q 171.46 259.88 188.01 247.19
  Q 188.30 246.96 188.55 246.99
  Q 188.85 247.02 189.16 247.21
  Z"
/>
<path fill="#4a278b" d="
  M 275.18 256.28
  L 275.39 256.52
  Q 275.58 256.73 275.85 256.82
  Q 290.56 262.07 304.00 269.99
  Q 306.32 271.35 312.29 278.18
  C 306.96 282.69 302.10 287.47 296.43 291.38
  Q 291.28 294.93 285.81 298.70
  C 283.62 288.20 278.55 283.77 268.38 280.69
  Q 248.20 274.56 227.85 269.60
  C 232.17 262.85 225.43 257.68 235.69 252.77
  Q 238.55 251.40 241.03 248.83
  L 257.62 251.86
  Q 258.08 251.94 258.49 251.73
  L 267.03 247.33
  Q 269.07 246.28 270.27 248.24
  L 275.18 256.28
  Z"
/>
<path fill="#3d367e" d="
  M 370.06 251.70
  Q 369.76 255.26 373.61 258.38
  C 364.07 264.98 364.49 254.52 370.06 251.70
  Z"
/>
<path fill="#3b3752" d="
  M 207.11 279.58
  L 210.99 284.20
  Q 211.75 285.10 211.47 283.96
  Q 210.75 281.11 211.36 278.55
  C 211.97 268.96 219.87 267.99 227.85 269.60
  Q 248.20 274.56 268.38 280.69
  C 278.55 283.77 283.62 288.20 285.81 298.70
  Q 287.12 300.64 286.88 305.32
  L 286.15 304.97
  Q 286.33 301.49 284.92 298.83
  C 282.73 291.22 279.20 285.13 271.26 282.73
  Q 248.45 275.85 226.09 270.58
  C 220.48 269.53 213.62 270.01 212.88 277.37
  C 211.84 282.19 214.37 289.78 216.31 294.23
  C 216.10 296.05 217.47 298.66 219.77 297.45
  Q 236.62 298.12 245.44 299.31
  Q 250.30 299.97 254.09 304.05
  Q 253.59 304.53 253.74 305.32
  C 248.81 299.55 241.60 298.94 236.55 304.89
  C 229.39 313.31 236.27 323.91 239.47 332.65
  A 0.28 0.28 0.0 0 0 240.00 332.63
  Q 242.52 323.08 251.12 323.72
  Q 251.40 323.77 250.91 324.30
  C 245.84 323.00 241.69 329.27 241.19 333.23
  C 240.65 337.60 243.86 343.79 245.50 348.29
  Q 246.08 349.65 245.41 350.28
  L 243.32 346.24
  Q 243.07 345.76 242.53 345.86
  L 228.26 348.49
  Q 228.27 348.35 228.26 348.23
  Q 228.25 347.93 227.96 347.81
  L 227.47 347.60
  L 241.59 344.75
  Q 242.96 344.47 242.44 343.17
  L 234.80 323.98
  Q 234.45 323.08 233.50 323.28
  L 217.52 326.64
  Q 217.08 326.73 216.85 327.13
  L 212.94 334.07
  Q 212.40 333.76 211.94 333.80
  C 213.78 330.23 214.99 326.11 219.32 325.10
  Q 226.24 323.48 233.15 322.32
  A 0.75 0.75 0.0 0 0 233.74 321.36
  L 232.37 316.96
  Q 230.68 306.38 239.66 300.76
  A 0.32 0.32 0.0 0 0 239.50 300.17
  L 218.67 299.18
  A 3.27 3.27 0.0 0 1 215.79 297.13
  C 213.34 290.92 212.10 287.01 206.82 281.10
  Q 198.91 272.47 187.29 270.05
  Q 186.71 269.93 186.60 269.34
  C 186.02 266.19 187.90 260.07 188.74 256.97
  A 0.83 0.83 0.0 0 0 187.55 256.02
  Q 177.85 261.14 171.79 270.37
  Q 170.67 272.09 168.89 273.31
  Q 164.53 276.32 161.35 280.54
  Q 161.25 280.01 160.70 279.96
  Q 160.24 279.92 160.24 279.45
  Q 160.23 278.70 160.72 278.32
  Q 161.73 278.97 162.87 277.17
  Q 163.56 276.09 164.39 275.48
  Q 168.91 272.18 173.16 266.66
  Q 178.48 259.75 187.60 254.70
  Q 188.02 254.47 188.47 254.59
  Q 190.37 255.10 189.78 257.25
  Q 188.20 263.12 187.60 268.18
  A 0.69 0.68 10.7 0 0 188.11 268.92
  Q 199.29 271.70 207.11 279.58
  Z"
/>
<path fill="#de81b2" d="
  M 206.82 281.10
  Q 204.90 281.35 203.04 281.84
  C 200.95 282.39 199.35 283.79 197.10 284.48
  Q 196.57 284.63 196.28 285.09
  Q 195.68 286.02 194.56 285.68
  Q 194.06 285.52 193.57 285.72
  L 192.63 286.09
  C 181.29 276.31 169.75 274.89 158.67 286.10
  Q 158.42 286.35 158.24 286.05
  Q 158.18 285.94 158.14 285.78
  L 161.35 280.54
  Q 164.53 276.32 168.89 273.31
  Q 170.67 272.09 171.79 270.37
  Q 177.85 261.14 187.55 256.02
  A 0.83 0.83 0.0 0 1 188.74 256.97
  C 187.90 260.07 186.02 266.19 186.60 269.34
  Q 186.71 269.93 187.29 270.05
  Q 198.91 272.47 206.82 281.10
  Z"
/>
<path fill="#3d367e" d="
  M 321.61 261.21
  C 327.46 269.76 330.12 284.27 330.71 294.43
  A 0.35 0.34 -2.3 0 1 330.36 294.80
  L 319.80 294.57
  A 1.08 1.07 88.8 0 1 318.75 293.56
  C 318.24 285.19 314.77 278.83 308.67 273.18
  Q 307.19 271.82 306.04 269.96
  Q 309.99 272.02 313.07 275.52
  Q 313.45 275.96 313.87 275.55
  Q 319.93 269.52 321.61 261.21
  Z"
/>
<path fill="#d9cbe4" d="
  M 174.0999 271.4573
  A 1.50 0.61 126.4 0 1 174.4990 269.8880
  A 1.50 0.61 126.4 0 1 175.8801 269.0427
  A 1.50 0.61 126.4 0 1 175.4810 270.6120
  A 1.50 0.61 126.4 0 1 174.0999 271.4573
  Z"
/>
<path fill="#a08fc2" d="
  M 226.09 270.58
  Q 224.12 272.62 219.87 272.28
  A 0.73 0.73 0.0 0 0 219.08 272.96
  Q 218.85 276.17 215.61 276.37
  Q 215.08 276.40 214.70 276.77
  Q 213.37 278.06 212.88 277.37
  C 213.62 270.01 220.48 269.53 226.09 270.58
  Z"
/>
<path fill="#7c66ab" d="
  M 226.09 270.58
  Q 248.45 275.85 271.26 282.73
  C 279.20 285.13 282.73 291.22 284.92 298.83
  L 257.40 310.11
  L 254.09 304.05
  Q 250.30 299.97 245.44 299.31
  Q 236.62 298.12 219.77 297.45
  Q 217.48 296.35 216.31 294.23
  C 214.37 289.78 211.84 282.19 212.88 277.37
  Q 213.37 278.06 214.70 276.77
  Q 215.08 276.40 215.61 276.37
  Q 218.85 276.17 219.08 272.96
  A 0.73 0.73 0.0 0 1 219.87 272.28
  Q 224.12 272.62 226.09 270.58
  Z"
/>
<path fill="#6a2272" d="
  M 192.63 286.09
  Q 204.48 299.25 203.68 317.70
  Q 203.65 318.25 204.20 318.29
  Q 218.14 319.18 232.37 316.96
  L 233.74 321.36
  A 0.75 0.75 0.0 0 1 233.15 322.32
  Q 226.24 323.48 219.32 325.10
  C 214.99 326.11 213.78 330.23 211.94 333.80
  Q 206.96 341.84 198.05 345.39
  A 1.32 1.31 -28.1 0 0 197.45 347.35
  L 199.95 351.05
  A 0.44 0.44 0.0 0 1 199.51 351.73
  Q 192.78 350.61 186.20 347.03
  L 183.06 345.55
  L 182.74 344.50
  Q 182.51 343.73 183.27 343.98
  Q 183.77 344.14 184.20 344.16
  Q 184.64 344.17 185.07 343.98
  C 195.25 339.58 202.93 330.66 203.46 319.25
  Q 203.48 318.76 202.99 318.75
  Q 202.87 318.75 202.74 318.75
  Q 202.58 318.75 202.57 318.90
  Q 201.34 332.31 189.27 340.28
  Q 183.19 344.29 177.20 342.83
  C 177.50 339.75 176.35 339.48 175.19 337.02
  C 185.91 335.58 189.63 325.71 189.11 316.22
  L 201.42 317.84
  Q 202.48 317.97 202.53 316.91
  C 202.99 306.69 199.12 293.81 191.44 286.63
  C 182.91 278.33 171.28 276.99 161.82 284.93
  L 159.15 287.48
  Q 157.54 286.16 158.14 285.78
  Q 158.18 285.94 158.24 286.05
  Q 158.42 286.35 158.67 286.10
  C 169.75 274.89 181.29 276.31 192.63 286.09
  Z"
/>
<path fill="#291570" d="
  M 312.29 278.18
  Q 318.07 285.19 317.92 294.18
  A 0.43 0.41 -2.4 0 1 317.54 294.58
  Q 303.53 295.78 290.75 301.70
  A 0.67 0.67 0.0 0 0 291.02 302.98
  L 317.03 303.66
  A 0.74 0.74 0.0 0 1 317.74 304.33
  C 318.38 311.18 311.76 322.88 308.37 327.39
  C 295.56 344.46 279.00 353.38 258.66 359.10
  A 0.70 0.70 0.0 0 1 257.80 358.24
  C 259.54 351.93 257.80 346.72 258.35 340.51
  Q 258.39 340.02 258.86 339.85
  C 275.43 333.81 286.11 323.32 286.88 305.32
  Q 287.12 300.64 285.81 298.70
  Q 291.28 294.93 296.43 291.38
  C 302.10 287.47 306.96 282.69 312.29 278.18
  Z"
/>
<path fill="#4a278b" d="
  M 211.36 278.55
  Q 210.75 281.11 211.47 283.96
  Q 211.75 285.10 210.99 284.20
  L 207.11 279.58
  Q 208.93 278.50 211.36 278.55
  Z"
/>
<path fill="#de81b2" d="
  M 191.44 286.63
  L 179.38 293.07
  C 174.48 288.63 167.13 286.40 161.26 290.75
  C 160.99 288.49 164.22 286.96 161.82 284.93
  C 171.28 276.99 182.91 278.33 191.44 286.63
  Z"
/>
<path fill="#d34794" d="
  M 206.82 281.10
  C 212.10 287.01 213.34 290.92 215.79 297.13
  A 3.27 3.27 0.0 0 0 218.67 299.18
  L 239.50 300.17
  A 0.32 0.32 0.0 0 1 239.66 300.76
  Q 230.68 306.38 232.37 316.96
  Q 218.14 319.18 204.20 318.29
  Q 203.65 318.25 203.68 317.70
  Q 204.48 299.25 192.63 286.09
  L 193.57 285.72
  Q 194.06 285.52 194.56 285.68
  Q 195.68 286.02 196.28 285.09
  Q 196.57 284.63 197.10 284.48
  C 199.35 283.79 200.95 282.39 203.04 281.84
  Q 204.90 281.35 206.82 281.10
  Z"
/>
<path fill="#d34794" d="
  M 161.82 284.93
  C 164.22 286.96 160.99 288.49 161.26 290.75
  L 159.93 291.67
  L 154.54 296.96
  Q 153.90 297.59 154.10 296.71
  Q 155.27 291.48 159.15 287.48
  L 161.82 284.93
  Z"
/>
<path fill="#d34794" d="
  M 191.44 286.63
  C 199.12 293.81 202.99 306.69 202.53 316.91
  Q 202.48 317.97 201.42 317.84
  L 189.11 316.22
  Q 188.75 302.91 179.38 293.07
  L 191.44 286.63
  Z"
/>
<path fill="#7c66ab" d="
  M 152.02 294.55
  Q 154.16 289.70 155.45 287.76
  Q 155.77 287.29 156.27 287.47
  Q 156.70 287.62 156.50 288.03
  L 152.99 295.41
  A 0.51 0.51 0.0 0 1 152.15 295.53
  Q 151.84 295.18 152.02 294.55
  Z"
/>
<path fill="#3b3752" d="
  M 179.38 293.07
  Q 188.75 302.91 189.11 316.22
  C 189.63 325.71 185.91 335.58 175.19 337.02
  Q 170.24 337.07 166.56 334.94
  Q 165.13 334.11 164.02 334.24
  L 163.91 332.66
  Q 169.95 335.58 176.77 335.24
  Q 183.63 334.21 186.31 326.06
  Q 187.75 321.68 187.77 317.61
  Q 188.05 316.65 187.80 316.48
  C 187.51 302.83 176.37 282.15 160.08 293.01
  L 160.56 292.22
  Q 160.81 291.81 160.34 291.71
  Q 160.17 291.68 159.93 291.67
  L 161.26 290.75
  C 167.13 286.40 174.48 288.63 179.38 293.07
  Z"
/>
<path fill="#d9cbe4" d="
  M 187.80 316.48
  Q 178.39 316.08 172.25 317.50
  Q 155.00 321.50 133.27 330.03
  L 113.38 337.15
  Q 113.05 336.64 111.99 336.98
  Q 92.97 343.17 74.00 349.51
  Q 73.37 349.72 72.76 350.48
  Q 72.70 350.77 72.44 350.78
  Q 72.28 350.78 72.12 350.62
  Q 71.94 350.45 71.77 350.28
  Q 71.97 348.45 71.21 347.56
  Q 70.58 346.83 70.57 347.79
  L 70.54 351.49
  L 68.16 351.83
  Q 56.66 355.24 45.30 359.08
  C 38.48 361.39 30.78 363.22 23.58 365.61
  Q 22.87 365.85 22.49 366.45
  Q 22.08 366.85 21.50 366.74
  Q 21.19 366.67 21.17 366.21
  Q 23.98 361.74 21.46 356.99
  Q 21.17 356.45 20.62 356.18
  L 19.70 355.73
  A 0.43 0.43 0.0 0 1 19.73 354.95
  Q 38.39 347.09 57.18 339.67
  C 63.11 337.32 66.96 341.27 70.20 345.41
  A 0.17 0.17 0.0 0 0 70.50 345.24
  Q 68.35 339.70 62.64 337.89
  A 0.20 0.19 42.6 0 1 62.62 337.52
  C 79.87 330.42 97.23 323.90 114.52 316.66
  Q 131.80 309.43 149.33 302.83
  C 154.26 300.97 156.82 296.48 160.08 293.01
  C 176.37 282.15 187.51 302.83 187.80 316.48
  Z"
/>
<path fill="#3d367e" d="
  M 216.31 294.23
  Q 217.48 296.35 219.77 297.45
  C 217.47 298.66 216.10 296.05 216.31 294.23
  Z"
/>
<path fill="#291570" d="
  M 330.87 295.92
  Q 319.89 296.66 310.90 302.39
  L 293.97 302.27
  A 0.67 0.67 0.0 0 1 293.75 300.97
  C 306.19 296.49 316.36 294.13 330.87 295.92
  Z"
/>
<path fill="#4a278b" d="
  M 330.87 295.92
  Q 338.80 296.80 346.20 299.16
  A 0.64 0.64 0.0 0 1 346.11 300.40
  Q 329.33 303.08 310.90 302.39
  Q 319.89 296.66 330.87 295.92
  Z"
/>
<path fill="#7c66ab" d="
  M 463.17 296.30
  L 457.56 307.88
  A 0.35 0.35 0.0 0 1 456.90 307.73
  L 456.76 297.29
  L 457.07 296.44
  Q 457.23 295.99 457.72 296.02
  L 463.17 296.30
  Z"
/>
<path fill="#3d367e" d="
  M 284.92 298.83
  Q 286.33 301.49 286.15 304.97
  C 285.79 323.16 274.77 332.56 258.88 338.83
  A 0.55 0.54 -11.4 0 1 258.13 338.34
  L 257.40 310.11
  L 284.92 298.83
  Z"
/>
<path fill="#d9cbe4" d="
  M 253.74 305.32
  C 257.31 311.68 257.27 319.88 256.56 327.03
  Q 256.51 327.53 256.23 327.11
  Q 254.49 324.51 251.12 323.72
  Q 242.52 323.08 240.00 332.63
  A 0.28 0.28 0.0 0 1 239.47 332.65
  C 236.27 323.91 229.39 313.31 236.55 304.89
  C 241.60 298.94 248.81 299.55 253.74 305.32
  Z"
/>
<path fill="#3d367e" d="
  M 328.11 303.25
  Q 326.28 308.16 326.05 313.19
  Q 326.03 313.67 325.66 313.96
  Q 325.10 314.39 324.77 315.59
  C 323.69 319.57 320.25 320.74 317.88 323.60
  Q 311.21 331.65 301.65 336.96
  Q 315.42 322.95 318.79 304.17
  Q 318.88 303.63 319.43 303.60
  L 328.11 303.25
  Z"
/>
<path fill="#7c66ab" d="
  M 328.11 303.25
  L 329.16 303.24
  Q 330.38 303.23 330.14 304.42
  C 324.04 334.35 296.80 358.12 267.01 363.15
  C 267.88 358.83 272.36 358.23 274.93 356.10
  Q 275.29 355.80 275.73 355.62
  Q 277.42 354.96 277.79 353.26
  Q 291.36 347.11 301.65 336.96
  Q 311.21 331.65 317.88 323.60
  C 320.25 320.74 323.69 319.57 324.77 315.59
  Q 325.10 314.39 325.66 313.96
  Q 326.03 313.67 326.05 313.19
  Q 326.28 308.16 328.11 303.25
  Z"
/>
<path fill="#a08fc2" d="
  M 187.80 316.48
  Q 188.05 316.65 187.77 317.61
  Q 179.42 316.59 172.00 318.75
  Q 152.67 324.38 133.27 330.03
  Q 155.00 321.50 172.25 317.50
  Q 178.39 316.08 187.80 316.48
  Z"
/>
<path fill="#646195" d="
  M 187.77 317.61
  Q 187.75 321.68 186.31 326.06
  Q 183.63 334.21 176.77 335.24
  Q 167.89 332.00 164.75 331.69
  Q 161.93 331.41 154.01 332.83
  Q 153.49 332.93 152.77 332.64
  Q 152.34 332.47 151.90 332.57
  C 147.11 333.68 142.34 334.19 137.89 336.24
  C 134.27 337.90 131.01 339.70 127.13 340.74
  Q 108.13 345.81 100.77 348.30
  Q 95.90 349.94 93.48 350.22
  Q 92.98 350.27 92.60 350.58
  C 90.50 352.24 87.32 352.51 85.60 353.09
  C 82.89 353.99 80.23 354.18 77.57 355.26
  Q 74.03 356.70 70.20 357.55
  Q 71.95 353.49 71.77 350.28
  Q 71.94 350.45 72.12 350.62
  Q 72.28 350.78 72.44 350.78
  Q 72.70 350.77 72.76 350.48
  Q 73.12 350.45 73.42 350.58
  Q 73.85 350.76 74.31 350.63
  C 81.14 348.77 87.50 346.99 94.35 344.25
  C 100.61 341.75 107.00 339.32 113.38 337.15
  L 133.27 330.03
  Q 152.67 324.38 172.00 318.75
  Q 179.42 316.59 187.77 317.61
  Z"
/>
<path fill="#3d367e" d="
  M 227.47 347.60
  C 220.65 348.91 214.62 349.52 208.56 345.61
  A 1.94 1.94 0.0 0 1 207.92 343.03
  L 212.94 334.07
  L 216.85 327.13
  Q 217.08 326.73 217.52 326.64
  L 233.50 323.28
  Q 234.45 323.08 234.80 323.98
  L 242.44 343.17
  Q 242.96 344.47 241.59 344.75
  L 227.47 347.60
  Z"
/>
<path fill="#d9cbe4" d="
  M 250.91 324.30
  Q 257.22 326.77 256.56 333.76
  L 255.71 341.91
  C 249.74 336.39 247.02 343.46 245.50 348.29
  C 243.86 343.79 240.65 337.60 241.19 333.23
  C 241.69 329.27 245.84 323.00 250.91 324.30
  Z"
/>
<path fill="#a08fc2" d="
  M 176.77 335.24
  Q 169.95 335.58 163.91 332.66
  L 69.35 359.66
  Q 68.74 359.84 68.76 359.20
  Q 68.79 358.39 70.20 357.55
  Q 74.03 356.70 77.57 355.26
  C 80.23 354.18 82.89 353.99 85.60 353.09
  C 87.32 352.51 90.50 352.24 92.60 350.58
  Q 92.98 350.27 93.48 350.22
  Q 95.90 349.94 100.77 348.30
  Q 108.13 345.81 127.13 340.74
  C 131.01 339.70 134.27 337.90 137.89 336.24
  C 142.34 334.19 147.11 333.68 151.90 332.57
  Q 152.34 332.47 152.77 332.64
  Q 153.49 332.93 154.01 332.83
  Q 161.93 331.41 164.75 331.69
  Q 167.89 332.00 176.77 335.24
  Z"
/>
<path fill="#a08fc2" d="
  M 256.56 333.76
  L 256.76 342.49
  Q 256.77 343.01 256.36 342.70
  Q 255.77 342.27 255.71 341.91
  L 256.56 333.76
  Z"
/>
<path fill="#d34794" d="
  M 164.02 334.24
  Q 165.13 334.11 166.56 334.94
  Q 170.24 337.07 175.19 337.02
  C 176.35 339.48 177.50 339.75 177.20 342.83
  Q 169.37 340.88 163.67 335.23
  Q 163.48 335.04 163.50 334.78
  Q 163.51 334.63 163.50 334.50
  Q 163.49 334.18 164.02 334.24
  Z"
/>
<path fill="#3b3752" d="
  M 121.75 353.33
  Q 122.22 348.93 126.56 344.47
  L 160.94 334.69
  Q 161.38 334.57 161.68 334.90
  L 163.22 336.63
  A 0.47 0.47 0.0 0 1 163.04 337.38
  Q 148.15 343.19 133.55 349.03
  Q 131.71 349.76 130.18 348.10
  A 0.19 0.19 0.0 0 0 129.89 348.33
  L 130.48 349.19
  A 0.77 0.77 0.0 0 1 130.10 350.35
  L 121.75 353.33
  Z"
/>
<path fill="#a08fc2" d="
  M 113.38 337.15
  C 107.00 339.32 100.61 341.75 94.35 344.25
  C 87.50 346.99 81.14 348.77 74.31 350.63
  Q 73.85 350.76 73.42 350.58
  Q 73.12 350.45 72.76 350.48
  Q 73.37 349.72 74.00 349.51
  Q 92.97 343.17 111.99 336.98
  Q 113.05 336.64 113.38 337.15
  Z"
/>
<path fill="#3b3752" d="
  M 257.39 350.25
  Q 254.60 351.01 252.25 353.29
  Q 251.90 353.64 252.02 354.11
  Q 252.71 356.70 250.93 358.58
  Q 244.71 351.09 249.02 342.58
  Q 249.74 341.15 252.14 341.08
  Q 252.61 341.06 252.98 341.34
  Q 257.51 344.63 257.39 350.25
  Z"
/>
<path fill="#291570" d="
  M 228.26 348.49
  L 242.53 345.86
  Q 243.07 345.76 243.32 346.24
  L 245.41 350.28
  Q 247.10 355.59 250.43 359.89
  A 0.61 0.61 0.0 0 1 250.03 360.87
  C 234.32 363.13 215.18 359.26 199.92 353.82
  A 0.40 0.39 -40.7 0 1 199.98 353.06
  L 201.18 352.83
  Q 202.22 352.63 201.64 351.76
  L 199.20 348.07
  A 1.54 1.53 -32.9 0 1 199.67 345.93
  L 207.06 341.27
  A 0.48 0.48 0.0 0 1 207.71 341.95
  C 204.44 346.67 213.02 348.89 216.50 349.24
  Q 220.61 349.66 228.26 348.49
  Z"
/>
<path fill="#3b3752" d="
  M 183.06 345.55
  L 186.20 347.03
  Q 185.01 348.46 183.75 348.29
  L 181.25 347.33
  Q 180.23 346.23 178.33 345.67
  Q 177.53 345.43 177.79 344.54
  A 0.58 0.57 16.4 0 1 178.51 344.15
  L 183.06 345.55
  Z"
/>
<path fill="#646195" d="
  M 126.56 344.47
  Q 122.22 348.93 121.75 353.33
  L 104.21 360.18
  A 0.45 0.45 0.0 0 1 103.65 359.55
  C 108.68 350.11 116.61 346.96 126.56 344.47
  Z"
/>
<path fill="#646195" d="
  M 257.39 350.25
  C 257.72 353.65 257.75 358.58 254.76 360.46
  Q 254.33 360.73 253.83 360.61
  Q 251.97 360.17 250.93 358.58
  Q 252.71 356.70 252.02 354.11
  Q 251.90 353.64 252.25 353.29
  Q 254.60 351.01 257.39 350.25
  Z"
/>
<path fill="#646195" d="
  M 70.54 351.49
  Q 70.21 355.89 67.53 359.37
  Q 67.58 358.91 67.24 358.70
  Q 67.01 358.57 66.62 358.68
  Q 43.14 365.32 19.76 372.29
  Q 18.84 372.57 16.69 371.96
  L 21.17 366.21
  Q 21.19 366.67 21.50 366.74
  Q 22.08 366.85 22.49 366.45
  Q 23.14 366.60 24.25 366.26
  Q 46.13 359.57 67.92 352.62
  Q 68.40 352.47 68.16 351.83
  L 70.54 351.49
  Z"
/>
<path fill="#a08fc2" d="
  M 68.16 351.83
  Q 68.40 352.47 67.92 352.62
  Q 46.13 359.57 24.25 366.26
  Q 23.14 366.60 22.49 366.45
  Q 22.87 365.85 23.58 365.61
  C 30.78 363.22 38.48 361.39 45.30 359.08
  Q 56.66 355.24 68.16 351.83
  Z"
/>
<path fill="#3d367e" d="
  M 277.79 353.26
  Q 277.42 354.96 275.73 355.62
  Q 275.29 355.80 274.93 356.10
  C 272.36 358.23 267.88 358.83 267.01 363.15
  L 243.73 364.33
  L 241.24 364.12
  Q 241.17 363.21 241.49 363.16
  Q 246.42 362.31 251.41 361.66
  C 253.06 361.44 254.88 362.33 256.70 360.73
  Q 257.07 360.40 257.55 360.28
  Q 267.93 357.71 277.79 353.26
  Z"
/>
<path fill="#3b3752" d="
  M 17.63 369.25
  Q 15.68 369.12 13.87 369.15
  C 11.44 369.20 9.24 370.19 6.91 371.03
  Q 6.45 371.20 6.26 371.66
  Q 4.91 374.97 1.58 374.07
  Q 4.24 364.78 13.35 358.13
  Q 17.79 354.89 21.06 357.95
  A 1.27 1.26 -67.1 0 1 21.47 358.97
  Q 21.07 365.33 17.63 369.25
  Z"
/>
<path fill="#a08fc2" d="
  M 67.53 359.37
  Q 64.44 361.02 63.32 361.35
  Q 38.05 368.76 12.31 376.02
  A 0.31 0.31 0.0 0 1 12.04 375.48
  L 16.69 371.96
  Q 18.84 372.57 19.76 372.29
  Q 43.14 365.32 66.62 358.68
  Q 67.01 358.57 67.24 358.70
  Q 67.58 358.91 67.53 359.37
  Z"
/>
<path fill="#646195" d="
  M 17.63 369.25
  Q 12.30 375.98 4.78 378.12
  Q 2.64 378.73 1.96 377.68
  Q 1.24 376.58 1.58 374.07
  Q 4.91 374.97 6.26 371.66
  Q 6.45 371.20 6.91 371.03
  C 9.24 370.19 11.44 369.20 13.87 369.15
  Q 15.68 369.12 17.63 369.25
  Z"
/>
</svg>
