<?xml version="1.0" encoding="UTF-8" standalone="no"?>
<svg xmlns="http://www.w3.org/2000/svg" version="1.2" baseProfile="tiny" viewBox="0.00 0.00 500.00 500.00">
<path fill="#000001" d="
  M 474.78 229.25
  L 474.53 227.48
  L 480.25 218.56
  A 0.39 0.39 0.0 0 0 479.85 217.96
  L 472.23 219.32
  Q 471.83 219.23 471.52 218.92
  Q 471.28 218.69 471.28 218.39
  Q 471.27 218.11 471.37 217.78
  C 479.89 216.42 493.43 214.69 496.90 204.94
  C 499.55 197.50 498.12 184.69 490.07 180.77
  C 478.51 174.21 466.75 170.92 453.64 167.80
  L 427.04 164.33
  Q 421.76 164.05 416.51 163.75
  C 409.01 163.34 401.53 164.00 393.99 164.26
  C 377.57 164.84 361.20 167.89 345.42 172.42
  A 0.33 0.33 0.0 0 0 345.54 173.07
  C 351.20 172.71 356.47 171.76 362.18 171.74
  Q 368.05 171.66 371.94 172.33
  Q 372.32 172.39 372.21 172.90
  Q 372.11 173.37 371.63 173.35
  C 357.64 172.91 348.85 172.80 337.19 175.99
  C 326.88 178.82 317.26 184.00 308.16 189.88
  Q 304.49 192.26 303.54 194.39
  C 300.58 201.04 309.22 218.70 316.78 214.30
  Q 322.13 211.18 324.91 209.84
  Q 323.46 211.82 321.36 212.87
  A 0.35 0.34 28.1 0 0 321.56 213.52
  C 327.34 212.78 332.83 212.33 338.84 212.23
  Q 359.55 211.87 380.25 210.99
  C 385.64 210.77 391.58 212.58 397.29 211.67
  A 0.95 0.95 0.0 0 0 397.42 209.82
  C 389.26 207.27 381.77 204.92 372.72 203.42
  Q 367.01 202.48 361.28 201.00
  C 375.61 200.59 393.73 206.46 406.08 211.86
  Q 404.16 213.19 400.84 210.91
  A 0.56 0.56 0.0 0 0 400.00 211.57
  L 402.88 219.29
  L 408.11 231.09
  A 0.67 0.67 0.0 0 0 409.26 231.23
  L 414.83 223.99
  L 418.93 218.22
  A 1.00 1.00 0.0 0 0 418.11 216.63
  Q 415.99 216.65 414.63 214.87
  L 433.55 217.29
  Q 433.18 219.45 433.60 218.44
  L 421.16 217.45
  Q 420.63 217.41 420.36 217.87
  Q 415.90 225.36 410.30 232.00
  A 2.09 2.08 53.5 0 1 406.79 231.47
  L 399.27 213.78
  A 1.66 1.66 0.0 0 0 397.58 212.78
  C 383.86 214.16 372.53 216.29 360.89 224.23
  Q 359.61 225.10 360.62 226.28
  L 374.05 241.94
  A 1.92 1.92 0.0 0 1 372.87 245.09
  L 340.67 249.85
  A 1.48 1.46 -75.4 0 0 339.73 250.41
  C 329.30 264.27 319.51 279.16 307.89 292.55
  Q 307.57 292.91 307.64 293.40
  Q 309.36 305.18 311.26 316.83
  Q 312.12 322.07 311.77 323.51
  Q 311.20 325.84 308.94 324.80
  Q 297.09 319.35 284.78 311.85
  Q 284.32 311.57 283.86 311.83
  Q 271.19 318.79 257.19 322.46
  A 0.99 0.99 0.0 0 0 256.46 323.30
  Q 255.82 328.77 255.37 334.56
  C 254.47 346.31 241.02 330.48 238.45 327.78
  A 0.96 0.96 0.0 0 0 237.60 327.49
  C 219.90 330.25 203.05 329.65 187.42 320.24
  Q 187.01 319.99 186.58 320.19
  L 164.00 330.56
  A 0.94 0.88 -50.0 0 1 163.43 330.63
  Q 161.27 330.23 161.70 327.99
  Q 163.98 316.18 168.34 304.95
  Q 168.52 304.49 168.17 304.13
  C 158.24 294.08 148.78 283.48 135.81 277.26
  Q 135.31 277.03 134.86 277.33
  L 117.87 288.59
  A 1.46 1.45 50.0 0 1 116.05 288.42
  C 114.91 287.33 115.23 285.59 115.34 284.06
  Q 115.72 278.22 116.41 272.40
  Q 116.47 271.85 115.92 271.79
  Q 111.00 271.30 106.26 271.27
  Q 90.84 271.19 76.15 266.62
  Q 75.67 266.47 75.31 266.81
  L 61.96 278.96
  A 1.79 1.79 0.0 0 1 58.97 277.79
  L 57.35 257.82
  Q 57.31 257.31 56.87 257.02
  Q 33.94 242.06 18.84 220.41
  C 14.29 213.88 12.24 206.60 12.58 198.38
  Q 14.48 189.75 20.58 182.14
  Q 27.05 177.58 29.05 176.80
  C 44.47 170.81 64.17 174.44 74.88 187.87
  C 89.03 205.60 103.04 215.55 126.21 217.89
  C 149.27 220.21 171.99 221.79 194.02 229.75
  C 210.90 235.85 231.74 248.66 240.14 265.40
  A 0.73 0.73 0.0 0 0 241.39 265.49
  Q 247.14 257.33 252.08 248.32
  C 253.53 245.66 255.72 243.53 257.06 241.03
  Q 264.68 226.75 273.47 217.22
  Q 293.56 195.45 315.19 183.18
  C 329.97 174.79 349.02 168.68 366.59 165.67
  C 401.41 159.72 437.89 160.57 471.19 170.93
  Q 481.32 174.09 490.56 179.47
  C 500.35 185.17 502.28 199.17 496.56 208.13
  C 493.56 212.83 488.33 215.40 483.08 217.07
  A 1.39 1.37 7.4 0 0 482.33 217.64
  L 474.78 229.25
  Z"
/>
<g stroke-width="2.00" fill="none" stroke-linecap="butt">
<path stroke="#b93d43" vector-effect="non-scaling-stroke" d="
  M 90.82 206.44
  C 87.73 206.93 85.54 207.78 82.48 207.75
  A 0.74 0.74 0.0 0 0 81.74 208.35
  L 81.25 210.77
  Q 81.17 211.19 80.78 211.36
  Q 77.08 213.01 73.40 212.07
  Q 70.07 211.23 69.01 211.23
  Q 63.41 211.25 58.29 213.52
  C 54.11 215.38 49.33 214.59 45.00 213.72
  Q 44.54 213.63 44.17 213.34
  C 41.61 211.32 38.42 210.65 36.28 207.55
  Q 35.93 207.05 36.29 206.56
  Q 37.29 205.20 38.73 206.36
  A 0.48 0.47 -71.6 0 0 39.50 205.97
  C 39.45 204.60 35.12 203.19 33.81 201.21
  Q 33.55 200.80 33.07 200.74
  L 28.36 200.18"
/>
<path stroke="#6b2223" vector-effect="non-scaling-stroke" d="
  M 28.36 200.18
  C 25.68 192.92 24.49 185.89 30.76 180.08
  Q 31.08 179.78 31.17 179.48
  Q 31.30 179.03 31.16 178.71"
/>
<path stroke="#c84044" vector-effect="non-scaling-stroke" d="
  M 31.16 178.71
  Q 31.44 178.77 30.92 177.83"
/>
<path stroke="#4e1c21" vector-effect="non-scaling-stroke" d="
  M 28.36 200.18
  Q 26.62 198.69 26.08 196.79"
/>
<path stroke="#5d1e22" vector-effect="non-scaling-stroke" d="
  M 31.16 178.71
  C 24.72 182.62 24.09 189.81 26.08 196.79"
/>
<path stroke="#ab3a42" vector-effect="non-scaling-stroke" d="
  M 26.08 196.79
  Q 23.00 196.21 21.23 192.13
  Q 21.02 191.63 20.52 191.43
  L 17.27 190.14"
/>
<path stroke="#a04141" vector-effect="non-scaling-stroke" d="
  M 304.62 208.13
  Q 292.31 217.17 282.73 228.24
  C 274.41 237.87 268.39 249.79 261.76 260.42
  C 259.41 264.18 257.10 269.01 254.36 273.09"
/>
<path stroke="#855439" vector-effect="non-scaling-stroke" d="
  M 248.08 259.22
  Q 254.78 250.62 260.32 241.34
  C 267.38 229.52 275.37 218.29 285.53 208.91
  Q 285.95 208.52 285.94 208.16
  Q 285.92 207.62 285.21 207.42"
/>
<path stroke="#b93d43" vector-effect="non-scaling-stroke" d="
  M 305.79 223.25
  Q 300.66 226.45 298.02 232.09"
/>
<path stroke="#6b2223" vector-effect="non-scaling-stroke" d="
  M 298.02 232.09
  Q 294.80 231.06 291.14 231.83
  A 0.26 0.26 0.0 0 0 291.21 232.34
  C 298.96 231.85 302.42 237.47 303.28 244.46
  C 303.60 247.00 304.11 252.42 302.63 254.63"
/>
<path stroke="#b93d43" vector-effect="non-scaling-stroke" d="
  M 302.63 254.63
  Q 300.00 254.12 295.70 251.28
  Q 286.95 245.50 281.77 239.88
  Q 281.46 239.54 281.00 239.52
  Q 280.07 239.49 279.35 238.99"
/>
<path stroke="#6b2223" vector-effect="non-scaling-stroke" d="
  M 279.35 238.99
  Q 280.09 236.82 282.07 235.37
  A 0.21 0.20 26.1 0 0 281.94 235.00
  Q 281.44 235.02 281.13 235.41
  Q 280.76 235.88 280.71 235.93
  Q 271.07 245.18 278.65 256.33"
/>
<path stroke="#b93d43" vector-effect="non-scaling-stroke" d="
  M 278.65 256.33
  Q 277.09 257.86 278.47 259.15
  A 2.01 2.01 0.0 0 1 278.73 261.79
  Q 273.59 268.96 270.87 277.12"
/>
<path stroke="#4e1c21" vector-effect="non-scaling-stroke" d="
  M 279.35 238.99
  Q 273.86 247.81 280.04 255.17
  C 284.48 260.46 295.82 258.70 301.34 256.34
  C 302.07 256.03 302.58 255.37 302.63 254.63"
/>
<path stroke="#ab3a42" vector-effect="non-scaling-stroke" d="
  M 372.99 212.50
  Q 373.83 213.19 373.43 214.26
  Q 373.26 214.73 372.79 214.90
  C 364.65 217.87 358.52 221.91 352.72 228.59
  Q 349.84 231.91 346.54 235.24
  A 1.31 1.31 0.0 0 0 346.55 237.09
  Q 346.72 237.26 347.16 237.24"
/>
<path stroke="#4e1c21" vector-effect="non-scaling-stroke" d="
  M 278.65 256.33
  Q 283.46 259.90 286.26 260.23
  Q 297.16 261.51 304.58 256.09"
/>
<path stroke="#9f513a" vector-effect="non-scaling-stroke" d="
  M 304.58 256.09
  Q 306.53 257.45 308.76 257.50
  C 322.54 257.80 337.62 244.51 344.24 233.58
  C 347.87 227.59 346.10 220.57 338.49 220.74
  Q 332.99 220.87 327.41 223.34
  Q 314.19 229.20 304.81 241.84"
/>
<path stroke="#4e1c21" vector-effect="non-scaling-stroke" d="
  M 304.81 241.84
  Q 302.69 234.06 298.02 232.09"
/>
<path stroke="#51351a" vector-effect="non-scaling-stroke" d="
  M 304.58 256.09
  Q 305.99 247.30 304.81 241.84"
/>
<path stroke="#5f3739" vector-effect="non-scaling-stroke" d="
  M 113.00 241.52
  C 110.26 241.22 107.45 241.34 104.93 240.01
  Q 97.69 236.21 90.05 233.15
  C 88.51 232.54 86.39 233.31 85.52 230.85
  A 1.30 1.25 5.5 0 0 84.91 230.14
  Q 79.13 227.03 78.23 220.20"
/>
<path stroke="#78343a" vector-effect="non-scaling-stroke" d="
  M 94.72 257.86
  Q 81.46 256.22 69.47 251.20
  C 68.37 250.74 67.05 251.13 66.19 249.87
  Q 65.90 249.44 65.42 249.24
  Q 54.77 244.59 46.01 237.03"
/>
<path stroke="#78343a" vector-effect="non-scaling-stroke" d="
  M 95.85 259.06
  Q 95.99 258.64 96.26 258.35
  Q 96.60 257.99 97.02 258.25
  C 97.92 258.82 98.61 258.29 99.39 258.30
  C 105.75 258.42 112.16 258.48 118.46 259.44
  C 124.18 260.31 128.98 260.11 134.42 262.70
  Q 145.96 268.21 156.10 276.86"
/>
<path stroke="#78343a" vector-effect="non-scaling-stroke" d="
  M 156.77 277.72
  Q 162.54 283.44 167.84 289.42
  Q 171.56 293.61 179.47 298.27
  C 189.26 304.03 196.97 308.97 207.21 308.25"
/>
<path stroke="#ab3a42" vector-effect="non-scaling-stroke" d="
  M 208.84 310.47
  L 211.00 316.59"
/>
<path stroke="#833b40" vector-effect="non-scaling-stroke" d="
  M 215.08 322.05
  Q 211.77 321.08 208.52 320.77
  Q 198.24 319.78 187.90 313.21"
/>
<path stroke="#ab3a42" vector-effect="non-scaling-stroke" d="
  M 184.12 308.22
  Q 183.01 309.08 182.49 308.34
  Q 182.28 308.04 181.96 307.88
  L 179.94 306.87
  Q 179.49 306.64 178.99 306.75
  Q 176.46 307.29 174.08 307.22
  Q 170.18 307.10 171.88 303.98
  Q 171.90 303.94 172.44 301.77"
/>
<path stroke="#833b40" vector-effect="non-scaling-stroke" d="
  M 143.29 278.92
  Q 140.76 272.57 135.70 267.60
  Q 135.39 267.29 134.97 267.39
  Q 133.62 267.70 133.60 266.93"
/>
<path stroke="#4e1c21" vector-effect="non-scaling-stroke" d="
  M 133.60 266.93
  Q 130.98 263.36 126.68 262.71
  A 0.37 0.37 0.0 0 0 126.44 263.40
  L 132.26 266.86"
/>
<path stroke="#833b40" vector-effect="non-scaling-stroke" d="
  M 132.26 266.86
  C 128.23 272.30 124.50 277.90 119.88 282.76
  Q 118.27 284.46 118.48 286.53"
/>
<path stroke="#833b40" vector-effect="non-scaling-stroke" d="
  M 76.84 262.41
  Q 73.55 261.15 72.52 258.79
  Q 72.32 258.33 71.90 258.06
  C 70.00 256.83 68.34 254.38 65.51 255.78
  Q 65.11 255.98 65.01 256.42
  L 64.48 258.89
  Q 64.39 259.30 64.12 259.62
  Q 61.50 262.65 60.89 266.57
  Q 60.79 267.20 60.48 267.38
  Q 60.09 267.60 59.43 267.49"
/>
<path stroke="#ab3a42" vector-effect="non-scaling-stroke" d="
  M 185.23 310.66
  L 167.28 325.84
  Q 166.99 326.08 167.15 326.42
  Q 167.37 326.90 167.08 327.95"
/>
<path stroke="#ab3a42" vector-effect="non-scaling-stroke" d="
  M 227.87 317.67
  Q 226.59 319.57 224.00 319.54
  Q 219.87 319.49 216.38 321.36"
/>
<path stroke="#351f20" vector-effect="non-scaling-stroke" d="
  M 133.60 266.93
  Q 132.96 267.49 132.26 266.86"
/>
<path stroke="#5f3739" vector-effect="non-scaling-stroke" d="
  M 229.34 254.56
  Q 223.32 248.77 217.92 245.66
  Q 217.47 245.40 217.00 245.62
  C 215.74 246.24 214.73 246.67 213.59 247.69
  C 209.43 251.41 204.37 252.58 198.90 253.84
  C 195.76 254.56 192.83 253.16 189.30 253.91
  Q 188.67 254.04 185.47 255.64
  C 182.86 256.95 179.33 256.37 176.11 255.87
  C 172.69 255.32 170.52 253.34 166.70 252.53
  Q 166.18 252.41 165.85 252.00
  Q 161.57 246.75 155.17 248.94
  Q 154.71 249.10 154.57 249.57
  Q 154.04 251.40 152.03 250.73
  Q 151.59 250.58 150.75 250.99
  Q 150.28 251.22 149.86 250.92
  Q 143.11 246.13 135.15 243.87
  C 132.39 243.08 127.31 243.70 125.31 242.50
  Q 123.61 241.48 121.02 240.52"
/>
<path stroke="#a04141" vector-effect="non-scaling-stroke" d="
  M 253.90 274.28
  C 246.62 286.62 235.86 300.52 222.28 305.95"
/>
<path stroke="#923d41" vector-effect="non-scaling-stroke" d="
  M 222.28 305.95
  Q 215.60 308.27 208.70 308.60"
/>
<path stroke="#855439" vector-effect="non-scaling-stroke" d="
  M 234.70 276.61
  Q 235.10 278.28 236.93 276.18
  Q 241.48 270.95 244.32 264.62"
/>
<path stroke="#b93d43" vector-effect="non-scaling-stroke" d="
  M 230.72 316.42
  Q 228.83 316.85 227.87 317.67"
/>
<path stroke="#c84044" vector-effect="non-scaling-stroke" d="
  M 227.87 317.67
  L 222.49 318.54
  Q 221.94 318.63 221.75 318.10
  Q 220.77 315.23 221.44 312.28
  Q 221.55 311.84 221.35 311.44
  Q 219.77 308.20 222.28 305.95"
/>
<path stroke="#ab3a42" vector-effect="non-scaling-stroke" d="
  M 323.70 269.26
  Q 318.86 272.94 315.68 278.74
  A 0.51 0.51 0.0 0 1 314.77 278.72
  C 312.90 275.05 302.93 278.67 300.22 280.05
  Q 299.78 280.28 299.29 280.22
  Q 292.99 279.52 288.46 283.54
  C 285.32 286.32 282.65 285.38 279.33 286.81
  C 277.63 287.55 276.56 289.68 275.07 291.05
  Q 274.68 291.41 274.86 291.92
  L 275.89 294.85"
/>
<path stroke="#9f513a" vector-effect="non-scaling-stroke" d="
  M 275.89 294.85
  C 269.05 299.03 259.17 308.13 258.45 316.60
  Q 258.40 317.09 258.56 317.55
  Q 259.04 318.99 258.48 320.44"
/>
<path stroke="#833b40" vector-effect="non-scaling-stroke" d="
  M 253.50 305.51
  Q 252.32 304.13 251.55 304.25
  Q 250.89 304.35 251.41 304.77
  L 252.94 306.00"
/>
<path stroke="#b93d43" vector-effect="non-scaling-stroke" d="
  M 232.60 313.73
  Q 240.78 324.47 251.34 333.20
  A 0.63 0.63 0.0 0 0 252.37 332.65
  C 251.48 323.37 249.25 314.30 247.96 304.96
  A 1.46 1.45 -8.2 0 1 249.19 303.32
  C 252.23 302.86 252.91 300.18 254.29 298.67
  Q 261.26 291.14 266.55 282.31
  Q 267.33 281.01 270.39 278.87"
/>
<path stroke="#ae533b" vector-effect="non-scaling-stroke" d="
  M 298.76 299.32
  Q 300.66 293.17 297.67 290.27
  C 293.07 285.82 280.36 291.89 275.89 294.85"
/>
<path stroke="#ae533b" vector-effect="non-scaling-stroke" d="
  M 287.32 307.75
  L 293.78 300.93
  Q 294.13 300.56 294.31 300.07
  L 295.60 296.50
  Q 295.74 296.12 295.59 295.74
  C 293.71 291.00 287.22 292.84 283.49 294.56
  Q 272.33 299.71 265.11 309.62
  Q 260.75 315.59 265.33 318.29"
/>
<path stroke="#ab3a42" vector-effect="non-scaling-stroke" d="
  M 359.43 245.66
  Q 357.65 245.54 360.27 244.17
  A 1.50 1.45 32.0 0 1 361.02 244.01
  Q 363.30 244.17 365.30 243.01
  A 0.66 0.65 66.6 0 0 365.60 242.23
  Q 364.87 239.90 365.72 237.72
  A 1.01 0.99 35.4 0 0 365.54 236.70
  L 357.53 227.62"
/>
</g>
<path fill="#e57156" d="
  M 427.04 164.33
  L 426.01 164.58
  A 0.50 0.50 0.0 0 0 425.98 165.54
  L 450.43 173.04
  Q 450.96 173.20 451.29 172.76
  Q 453.04 170.44 453.64 167.80
  C 466.75 170.92 478.51 174.21 490.07 180.77
  Q 485.14 186.40 477.84 187.11
  Q 477.37 187.16 476.98 187.43
  Q 476.49 187.78 475.89 187.43
  A 0.44 0.44 0.0 0 1 475.94 186.65
  Q 478.23 185.66 482.01 184.51
  Q 483.05 184.19 482.72 183.12
  A 0.50 0.50 0.0 0 0 482.13 182.78
  L 473.36 184.86
  Q 472.95 184.96 472.76 185.35
  Q 472.25 186.40 471.00 186.43
  Q 464.26 186.61 457.53 187.05
  C 455.24 187.20 453.16 188.55 452.23 185.17
  Q 452.17 184.95 452.33 184.80
  L 452.54 184.58
  A 0.21 0.21 0.0 0 0 452.41 184.22
  L 446.48 183.61
  A 3.00 2.99 20.6 0 0 443.73 184.85
  C 442.17 187.05 439.34 184.84 437.61 184.45
  C 435.44 183.95 433.20 182.99 430.96 183.09
  C 429.42 183.17 427.57 182.22 426.54 181.98
  Q 417.10 179.86 407.65 177.83
  C 405.11 177.29 400.65 175.57 397.00 175.61
  A 1.96 1.94 -63.3 0 1 395.85 172.08
  Q 396.26 171.78 396.27 171.22
  Q 396.28 170.66 395.75 170.48
  Q 393.42 169.67 391.02 170.32
  A 1.95 1.93 45.3 0 1 389.98 170.31
  C 382.39 168.10 375.84 166.19 369.34 169.65
  Q 368.92 169.87 368.45 169.82
  Q 365.30 169.48 362.18 171.74
  C 356.47 171.76 351.20 172.71 345.54 173.07
  A 0.33 0.33 0.0 0 1 345.42 172.42
  C 361.20 167.89 377.57 164.84 393.99 164.26
  C 401.53 164.00 409.01 163.34 416.51 163.75
  Q 421.76 164.05 427.04 164.33
  Z"
/>
<path fill="#ec9325" d="
  M 427.04 164.33
  L 453.64 167.80
  Q 453.04 170.44 451.29 172.76
  Q 450.96 173.20 450.43 173.04
  L 425.98 165.54
  A 0.50 0.50 0.0 0 1 426.01 164.58
  L 427.04 164.33
  Z"
/>
<path fill="#d64344" d="
  M 490.07 180.77
  C 498.12 184.69 499.55 197.50 496.90 204.94
  C 493.43 214.69 479.89 216.42 471.37 217.78
  Q 465.85 207.22 455.15 201.88
  C 450.60 199.62 437.72 213.35 434.96 216.73
  Q 434.10 217.79 433.55 217.29
  L 414.63 214.87
  C 413.00 214.54 411.60 214.49 410.09 213.48
  Q 408.04 212.12 406.08 211.86
  C 393.73 206.46 375.61 200.59 361.28 201.00
  C 356.11 200.04 352.15 201.03 345.64 202.23
  Q 334.22 204.35 324.91 209.84
  Q 322.13 211.18 316.78 214.30
  C 309.22 218.70 300.58 201.04 303.54 194.39
  Q 304.49 192.26 308.16 189.88
  C 317.26 184.00 326.88 178.82 337.19 175.99
  C 348.85 172.80 357.64 172.91 371.63 173.35
  Q 372.11 173.37 372.21 172.90
  Q 372.32 172.39 371.94 172.33
  Q 368.05 171.66 362.18 171.74
  Q 365.30 169.48 368.45 169.82
  Q 368.92 169.87 369.34 169.65
  C 375.84 166.19 382.39 168.10 389.98 170.31
  A 1.95 1.93 45.3 0 0 391.02 170.32
  Q 393.42 169.67 395.75 170.48
  Q 396.28 170.66 396.27 171.22
  Q 396.26 171.78 395.85 172.08
  A 1.96 1.94 -63.3 0 0 397.00 175.61
  C 400.65 175.57 405.11 177.29 407.65 177.83
  Q 417.10 179.86 426.54 181.98
  C 427.57 182.22 429.42 183.17 430.96 183.09
  C 433.20 182.99 435.44 183.95 437.61 184.45
  C 439.34 184.84 442.17 187.05 443.73 184.85
  A 3.00 2.99 20.6 0 1 446.48 183.61
  L 452.41 184.22
  A 0.21 0.21 0.0 0 1 452.54 184.58
  L 452.33 184.80
  Q 452.17 184.95 452.23 185.17
  C 453.16 188.55 455.24 187.20 457.53 187.05
  Q 464.26 186.61 471.00 186.43
  Q 472.25 186.40 472.76 185.35
  Q 472.95 184.96 473.36 184.86
  L 482.13 182.78
  A 0.50 0.50 0.0 0 1 482.72 183.12
  Q 483.05 184.19 482.01 184.51
  Q 478.23 185.66 475.94 186.65
  A 0.44 0.44 0.0 0 0 475.89 187.43
  Q 476.49 187.78 476.98 187.43
  Q 477.37 187.16 477.84 187.11
  Q 485.14 186.40 490.07 180.77
  Z"
/>
<g stroke-width="2.00" fill="none" stroke-linecap="butt">
<path stroke="#4e1c21" vector-effect="non-scaling-stroke" d="
  M 448.04 199.84
  Q 447.47 199.67 447.05 199.75"
/>
<path stroke="#736418" vector-effect="non-scaling-stroke" d="
  M 447.05 199.75
  Q 447.02 199.59 446.98 199.49
  Q 446.94 199.36 446.81 199.33
  Q 432.60 196.24 419.02 191.00
  Q 418.33 190.74 418.11 191.44
  L 414.78 201.92"
/>
<path stroke="#7f7a50" vector-effect="non-scaling-stroke" d="
  M 414.78 201.92
  L 413.64 206.85
  A 0.96 0.95 -53.4 0 1 411.88 207.11
  L 407.04 198.53"
/>
<path stroke="#736418" vector-effect="non-scaling-stroke" d="
  M 407.04 198.53
  L 404.04 185.93
  Q 403.91 185.41 403.42 185.22
  L 388.10 179.45"
/>
<path stroke="#4e1c21" vector-effect="non-scaling-stroke" d="
  M 388.10 179.45
  Q 387.73 179.15 386.67 179.24"
/>
<path stroke="#f1de67" vector-effect="non-scaling-stroke" d="
  M 424.83 209.57
  L 423.83 209.45
  A 0.07 0.07 0.0 0 1 423.82 209.31
  L 424.25 209.17
  A 0.60 0.60 0.0 0 0 424.14 208.00
  L 419.17 207.31
  Q 418.65 207.24 418.34 206.81
  L 414.78 201.92"
/>
<path stroke="#f1de67" vector-effect="non-scaling-stroke" d="
  M 407.04 198.53
  L 404.37 201.31
  A 1.05 1.05 0.0 0 1 403.38 201.61
  Q 400.64 200.98 399.82 201.94"
/>
<path stroke="#c18038" vector-effect="non-scaling-stroke" d="
  M 388.10 179.45
  C 389.92 188.12 393.32 196.00 399.82 201.94"
/>
<path stroke="#cd9570" vector-effect="non-scaling-stroke" d="
  M 399.82 201.94
  Q 410.29 211.16 424.83 209.57"
/>
<path stroke="#c18038" vector-effect="non-scaling-stroke" d="
  M 424.83 209.57
  Q 437.72 208.91 447.05 199.75"
/>
<path stroke="#4e1c21" vector-effect="non-scaling-stroke" d="
  M 492.49 184.00
  Q 492.04 184.25 491.71 184.68"
/>
<path stroke="#736418" vector-effect="non-scaling-stroke" d="
  M 491.71 184.68
  L 483.67 191.00
  Q 483.27 191.32 483.20 191.83
  Q 482.26 198.40 479.78 204.46"
/>
<path stroke="#7f7a50" vector-effect="non-scaling-stroke" d="
  M 479.78 204.46
  Q 478.93 207.46 476.78 209.42
  Q 475.81 210.29 475.32 209.09
  L 473.42 204.44"
/>
<path stroke="#736418" vector-effect="non-scaling-stroke" d="
  M 473.42 204.44
  L 471.47 198.69
  A 0.68 0.68 0.0 0 0 470.60 198.27
  L 461.97 201.30"
/>
<path stroke="#4e1c21" vector-effect="non-scaling-stroke" d="
  M 461.97 201.30
  Q 461.99 201.64 461.15 201.84"
/>
<path stroke="#f1de67" vector-effect="non-scaling-stroke" d="
  M 489.35 207.39
  L 482.86 206.19
  A 1.34 1.33 75.6 0 1 482.07 205.72
  Q 481.14 204.57 479.78 204.46"
/>
<path stroke="#c18038" vector-effect="non-scaling-stroke" d="
  M 461.97 201.30
  Q 465.12 205.99 470.20 208.57"
/>
<path stroke="#cd9570" vector-effect="non-scaling-stroke" d="
  M 470.20 208.57
  Q 480.09 214.82 489.35 207.39"
/>
<path stroke="#c18038" vector-effect="non-scaling-stroke" d="
  M 489.35 207.39
  Q 497.43 197.36 492.36 184.99
  A 0.32 0.32 0.0 0 0 492.14 184.80
  L 491.71 184.68"
/>
<path stroke="#f1de67" vector-effect="non-scaling-stroke" d="
  M 473.42 204.44
  Q 470.50 204.93 470.20 208.57"
/>
</g>
<path fill="#d64344" d="
  M 90.82 206.44
  C 87.73 206.93 85.54 207.78 82.48 207.75
  A 0.74 0.74 0.0 0 0 81.74 208.35
  L 81.25 210.77
  Q 81.17 211.19 80.78 211.36
  Q 77.08 213.01 73.40 212.07
  Q 70.07 211.23 69.01 211.23
  Q 63.41 211.25 58.29 213.52
  C 54.11 215.38 49.33 214.59 45.00 213.72
  Q 44.54 213.63 44.17 213.34
  C 41.61 211.32 38.42 210.65 36.28 207.55
  Q 35.93 207.05 36.29 206.56
  Q 37.29 205.20 38.73 206.36
  A 0.48 0.47 -71.6 0 0 39.50 205.97
  C 39.45 204.60 35.12 203.19 33.81 201.21
  Q 33.55 200.80 33.07 200.74
  L 28.36 200.18
  C 25.68 192.92 24.49 185.89 30.76 180.08
  Q 31.08 179.78 31.17 179.48
  Q 31.30 179.03 31.16 178.71
  Q 31.44 178.77 30.92 177.83
  C 32.09 177.85 32.99 177.02 34.03 176.79
  C 50.84 173.07 65.47 178.27 75.93 191.61
  Q 82.25 199.67 90.82 206.44
  Z"
/>
<path fill="#000001" d="
  M 448.04 199.84
  Q 447.47 199.67 447.05 199.75
  Q 447.02 199.59 446.98 199.49
  Q 446.94 199.36 446.81 199.33
  Q 432.60 196.24 419.02 191.00
  Q 418.33 190.74 418.11 191.44
  L 414.78 201.92
  L 413.64 206.85
  A 0.96 0.95 -53.4 0 1 411.88 207.11
  L 407.04 198.53
  L 404.04 185.93
  Q 403.91 185.41 403.42 185.22
  L 388.10 179.45
  Q 387.73 179.15 386.67 179.24
  Q 386.62 178.09 387.09 177.68
  Q 387.47 177.35 388.35 177.72
  Q 417.24 189.92 447.40 198.41
  Q 448.51 198.72 448.04 199.84
  Z"
/>
<g stroke-width="2.00" fill="none" stroke-linecap="butt">
<path stroke="#9f513a" vector-effect="non-scaling-stroke" d="
  M 415.21 194.89
  L 407.75 195.14"
/>
<path stroke="#c39931" vector-effect="non-scaling-stroke" d="
  M 413.99 198.56
  L 410.92 198.36
  Q 410.42 198.32 410.14 197.91
  Q 409.30 196.67 408.49 197.15"
/>
</g>
<path fill="#ba3c43" d="
  M 30.92 177.83
  Q 31.44 178.77 31.16 178.71
  C 24.72 182.62 24.09 189.81 26.08 196.79
  Q 23.00 196.21 21.23 192.13
  Q 21.02 191.63 20.52 191.43
  L 17.27 190.14
  Q 21.68 181.75 30.92 177.83
  Z"
/>
<path fill="#000001" d="
  M 31.16 178.71
  Q 31.30 179.03 31.17 179.48
  Q 31.08 179.78 30.76 180.08
  C 24.49 185.89 25.68 192.92 28.36 200.18
  Q 26.62 198.69 26.08 196.79
  C 24.09 189.81 24.72 182.62 31.16 178.71
  Z"
/>
<path fill="#9c3741" d="
  M 386.67 179.24
  Q 387.73 179.15 388.10 179.45
  C 389.92 188.12 393.32 196.00 399.82 201.94
  Q 410.29 211.16 424.83 209.57
  Q 437.72 208.91 447.05 199.75
  Q 447.47 199.67 448.04 199.84
  C 439.75 210.12 426.08 212.75 413.50 210.50
  C 398.75 207.87 388.86 193.16 386.67 179.24
  Z"
/>
<path fill="#e5c82e" d="
  M 388.10 179.45
  L 403.42 185.22
  Q 403.91 185.41 404.04 185.93
  L 407.04 198.53
  L 404.37 201.31
  A 1.05 1.05 0.0 0 1 403.38 201.61
  Q 400.64 200.98 399.82 201.94
  C 393.32 196.00 389.92 188.12 388.10 179.45
  Z"
/>
<path fill="#a16a33" d="
  M 20.58 182.14
  Q 14.48 189.75 12.58 198.38
  Q 6.82 201.81 1.00 202.45
  A 0.45 0.45 0.0 0 1 0.57 201.76
  Q 8.05 189.78 20.58 182.14
  Z"
/>
<path fill="#000001" d="
  M 492.49 184.00
  Q 492.04 184.25 491.71 184.68
  L 483.67 191.00
  Q 483.27 191.32 483.20 191.83
  Q 482.26 198.40 479.78 204.46
  Q 478.93 207.46 476.78 209.42
  Q 475.81 210.29 475.32 209.09
  L 473.42 204.44
  L 471.47 198.69
  A 0.68 0.68 0.0 0 0 470.60 198.27
  L 461.97 201.30
  Q 461.99 201.64 461.15 201.84
  Q 460.46 201.28 460.27 200.69
  Q 460.11 200.19 460.62 200.06
  Q 477.52 195.67 490.30 183.80
  Q 492.37 181.89 492.49 184.00
  Z"
/>
<path stroke="#c87c4e" stroke-width="2.00" fill="none" stroke-linecap="butt" vector-effect="non-scaling-stroke" d="
  M 479.09 201.67
  Q 477.83 202.31 477.17 204.04
  Q 476.98 204.54 476.45 204.65
  Q 475.42 204.87 475.17 205.43"
/>
<path fill="#9c3741" d="
  M 492.49 184.00
  C 495.54 188.10 495.66 193.44 494.84 198.34
  C 493.61 205.70 489.14 211.19 481.73 212.41
  C 473.43 213.76 465.78 208.56 461.15 201.84
  Q 461.99 201.64 461.97 201.30
  Q 465.12 205.99 470.20 208.57
  Q 480.09 214.82 489.35 207.39
  Q 497.43 197.36 492.36 184.99
  A 0.32 0.32 0.0 0 0 492.14 184.80
  L 491.71 184.68
  Q 492.04 184.25 492.49 184.00
  Z"
/>
<path fill="#e5c82e" d="
  M 491.71 184.68
  L 492.14 184.80
  A 0.32 0.32 0.0 0 1 492.36 184.99
  Q 497.43 197.36 489.35 207.39
  L 482.86 206.19
  A 1.34 1.33 75.6 0 1 482.07 205.72
  Q 481.14 204.57 479.78 204.46
  Q 482.26 198.40 483.20 191.83
  Q 483.27 191.32 483.67 191.00
  L 491.71 184.68
  Z"
/>
<path fill="#9c3741" d="
  M 415.21 194.89
  L 407.75 195.14
  L 405.74 186.76
  Q 405.59 186.13 406.20 186.35
  L 416.27 190.13
  Q 416.82 190.34 416.62 190.88
  L 415.21 194.89
  Z"
/>
<path fill="#9c3741" d="
  M 17.27 190.14
  L 20.52 191.43
  Q 21.02 191.63 21.23 192.13
  Q 23.00 196.21 26.08 196.79
  Q 26.62 198.69 28.36 200.18
  L 33.07 200.74
  Q 33.55 200.80 33.81 201.21
  C 35.12 203.19 39.45 204.60 39.50 205.97
  A 0.48 0.47 -71.6 0 1 38.73 206.36
  Q 37.29 205.20 36.29 206.56
  Q 35.93 207.05 36.28 207.55
  C 38.42 210.65 41.61 211.32 44.17 213.34
  Q 44.54 213.63 45.00 213.72
  C 49.33 214.59 54.11 215.38 58.29 213.52
  Q 63.41 211.25 69.01 211.23
  Q 70.07 211.23 73.40 212.07
  Q 77.08 213.01 80.78 211.36
  Q 81.17 211.19 81.25 210.77
  L 81.74 208.35
  A 0.74 0.74 0.0 0 1 82.48 207.75
  C 85.54 207.78 87.73 206.93 90.82 206.44
  L 99.08 211.50
  A 0.46 0.46 0.0 0 1 98.97 212.33
  Q 76.50 218.85 54.22 226.77
  Q 52.15 227.50 51.35 227.87
  Q 50.88 228.07 50.53 227.71
  L 37.64 214.39
  Q 36.29 213.00 37.38 214.60
  Q 42.53 222.18 49.60 227.98
  A 0.80 0.80 0.0 0 1 49.71 229.09
  C 46.12 233.52 43.13 238.87 43.82 244.99
  Q 43.89 245.63 43.39 245.22
  Q 31.26 235.20 21.93 222.57
  C 14.47 212.46 11.57 202.06 17.27 190.14
  Z"
/>
<path fill="#e5c82e" d="
  M 447.05 199.75
  Q 437.72 208.91 424.83 209.57
  L 423.83 209.45
  A 0.07 0.07 0.0 0 1 423.82 209.31
  L 424.25 209.17
  A 0.60 0.60 0.0 0 0 424.14 208.00
  L 419.17 207.31
  Q 418.65 207.24 418.34 206.81
  L 414.78 201.92
  L 418.11 191.44
  Q 418.33 190.74 419.02 191.00
  Q 432.60 196.24 446.81 199.33
  Q 446.94 199.36 446.98 199.49
  Q 447.02 199.59 447.05 199.75
  Z"
/>
<path fill="#9c3741" d="
  M 479.09 201.67
  Q 477.83 202.31 477.17 204.04
  Q 476.98 204.54 476.45 204.65
  Q 475.42 204.87 475.17 205.43
  L 472.86 198.15
  A 0.59 0.58 -24.4 0 1 473.12 197.46
  L 481.32 192.79
  A 0.27 0.27 0.0 0 1 481.71 193.11
  L 479.09 201.67
  Z"
/>
<path fill="#693e3e" d="
  M 304.62 208.13
  Q 292.31 217.17 282.73 228.24
  C 274.41 237.87 268.39 249.79 261.76 260.42
  C 259.41 264.18 257.10 269.01 254.36 273.09
  Q 248.40 267.41 248.08 259.22
  Q 254.78 250.62 260.32 241.34
  C 267.38 229.52 275.37 218.29 285.53 208.91
  Q 285.95 208.52 285.94 208.16
  Q 285.92 207.62 285.21 207.42
  L 301.52 194.44
  A 0.41 0.41 0.0 0 1 302.18 194.84
  Q 300.82 201.79 304.62 208.13
  Z"
/>
<path fill="#fdf39f" d="
  M 491.1848 196.1803
  A 4.36 2.94 -19.7 0 1 488.0711 200.4179
  A 4.36 2.94 -19.7 0 1 482.9752 199.1197
  A 4.36 2.94 -19.7 0 1 486.0889 194.8821
  A 4.36 2.94 -19.7 0 1 491.1848 196.1803
  Z"
/>
<path fill="#a16a33" d="
  M 415.21 194.89
  L 413.99 198.56
  L 410.92 198.36
  Q 410.42 198.32 410.14 197.91
  Q 409.30 196.67 408.49 197.15
  Q 407.98 196.57 407.75 195.14
  L 415.21 194.89
  Z"
/>
<path fill="#e5c82e" d="
  M 413.99 198.56
  L 412.55 204.57
  Q 412.35 205.39 411.85 204.71
  Q 409.52 201.52 408.49 197.15
  Q 409.30 196.67 410.14 197.91
  Q 410.42 198.32 410.92 198.36
  L 413.99 198.56
  Z"
/>
<path fill="#fdf39f" d="
  M 422.30 200.11
  C 423.03 197.43 426.66 198.26 427.86 199.86
  A 0.60 0.59 65.6 0 1 427.51 200.80
  L 423.73 201.61
  A 1.22 1.21 1.6 0 1 422.30 200.11
  Z"
/>
<path fill="#e5c82e" d="
  M 473.42 204.44
  Q 470.50 204.93 470.20 208.57
  Q 465.12 205.99 461.97 201.30
  L 470.60 198.27
  A 0.68 0.68 0.0 0 1 471.47 198.69
  L 473.42 204.44
  Z"
/>
<path fill="#fdf39f" d="
  M 407.04 198.53
  L 411.88 207.11
  A 0.96 0.95 -53.4 0 0 413.64 206.85
  L 414.78 201.92
  L 418.34 206.81
  Q 418.65 207.24 419.17 207.31
  L 424.14 208.00
  A 0.60 0.60 0.0 0 1 424.25 209.17
  L 423.82 209.31
  A 0.07 0.07 0.0 0 0 423.83 209.45
  L 424.83 209.57
  Q 410.29 211.16 399.82 201.94
  Q 400.64 200.98 403.38 201.61
  A 1.05 1.05 0.0 0 0 404.37 201.31
  L 407.04 198.53
  Z"
/>
<path fill="#9c3741" d="
  M 361.28 201.00
  Q 367.01 202.48 372.72 203.42
  C 381.77 204.92 389.26 207.27 397.42 209.82
  A 0.95 0.95 0.0 0 1 397.29 211.67
  C 391.58 212.58 385.64 210.77 380.25 210.99
  Q 359.55 211.87 338.84 212.23
  C 332.83 212.33 327.34 212.78 321.56 213.52
  A 0.35 0.34 28.1 0 1 321.36 212.87
  Q 323.46 211.82 324.91 209.84
  Q 334.22 204.35 345.64 202.23
  C 352.15 201.03 356.11 200.04 361.28 201.00
  Z"
/>
<path fill="#9c3741" d="
  M 471.37 217.78
  Q 471.27 218.11 471.28 218.39
  Q 471.28 218.69 471.52 218.92
  Q 471.83 219.23 472.23 219.32
  Q 471.59 220.64 472.08 221.42
  Q 473.51 223.68 474.53 227.48
  L 474.78 229.25
  Q 475.56 236.21 474.06 243.49
  A 0.64 0.64 0.0 0 1 473.11 243.92
  Q 460.05 236.61 453.80 223.01
  A 0.56 0.56 0.0 0 0 452.80 222.98
  Q 444.86 238.05 428.97 244.25
  A 1.35 1.35 0.0 0 1 427.14 243.17
  Q 425.36 230.26 433.60 218.44
  Q 433.18 219.45 433.55 217.29
  Q 434.10 217.79 434.96 216.73
  C 437.72 213.35 450.60 199.62 455.15 201.88
  Q 465.85 207.22 471.37 217.78
  Z"
/>
<g stroke-width="2.00" fill="none" stroke-linecap="butt">
<path stroke="#f0aa40" vector-effect="non-scaling-stroke" d="
  M 470.60 220.16
  L 462.71 224.64
  A 1.50 1.44 -59.4 0 1 462.03 224.83
  Q 460.20 224.86 459.11 226.28
  Q 458.76 226.74 458.46 226.24
  Q 457.30 224.35 456.32 225.45"
/>
<path stroke="#f0aa40" vector-effect="non-scaling-stroke" d="
  M 451.24 223.13
  Q 451.03 222.20 450.31 222.19
  Q 449.90 222.18 449.33 222.67
  Q 446.64 225.01 443.20 224.74
  Q 442.67 224.70 442.23 224.99
  Q 439.61 226.67 436.47 226.50
  Q 435.92 226.47 435.66 226.95
  L 434.75 228.69
  A 1.09 1.08 9.0 0 1 433.97 229.25
  Q 432.49 229.49 432.44 231.02
  A 0.59 0.58 1.0 0 1 431.85 231.58
  L 431.29 231.58
  Q 431.00 231.58 431.00 231.29
  L 431.00 230.45
  Q 431.00 229.90 430.46 229.79
  L 429.67 229.62"
/>
</g>
<path fill="#f3c15a" d="
  M 479.09 201.67
  L 476.74 207.42
  Q 476.39 208.26 476.03 207.42
  L 475.17 205.43
  Q 475.42 204.87 476.45 204.65
  Q 476.98 204.54 477.17 204.04
  Q 477.83 202.31 479.09 201.67
  Z"
/>
<path fill="#ec9325" d="
  M 470.60 220.16
  L 462.71 224.64
  A 1.50 1.44 -59.4 0 1 462.03 224.83
  Q 460.20 224.86 459.11 226.28
  Q 458.76 226.74 458.46 226.24
  Q 457.30 224.35 456.32 225.45
  Q 455.72 222.52 453.94 220.53
  Q 453.50 220.03 453.11 220.57
  L 451.24 223.13
  Q 451.03 222.20 450.31 222.19
  Q 449.90 222.18 449.33 222.67
  Q 446.64 225.01 443.20 224.74
  Q 442.67 224.70 442.23 224.99
  Q 439.61 226.67 436.47 226.50
  Q 435.92 226.47 435.66 226.95
  L 434.75 228.69
  A 1.09 1.08 9.0 0 1 433.97 229.25
  Q 432.49 229.49 432.44 231.02
  A 0.59 0.58 1.0 0 1 431.85 231.58
  L 431.29 231.58
  Q 431.00 231.58 431.00 231.29
  L 431.00 230.45
  Q 431.00 229.90 430.46 229.79
  L 429.67 229.62
  Q 436.12 211.90 453.01 202.63
  A 1.32 1.30 43.6 0 1 454.23 202.61
  Q 465.55 208.31 470.60 220.16
  Z"
/>
<path fill="#fdf39f" d="
  M 473.42 204.44
  L 475.32 209.09
  Q 475.81 210.29 476.78 209.42
  Q 478.93 207.46 479.78 204.46
  Q 481.14 204.57 482.07 205.72
  A 1.34 1.33 75.6 0 0 482.86 206.19
  L 489.35 207.39
  Q 480.09 214.82 470.20 208.57
  Q 470.50 204.93 473.42 204.44
  Z"
/>
<path fill="#a16a33" d="
  M 285.21 207.42
  Q 285.92 207.62 285.94 208.16
  Q 285.95 208.52 285.53 208.91
  C 275.37 218.29 267.38 229.52 260.32 241.34
  Q 254.78 250.62 248.08 259.22
  Q 256.66 244.29 265.95 229.94
  C 267.62 227.35 270.60 224.52 272.61 221.57
  C 276.07 216.50 280.94 211.83 285.21 207.42
  Z"
/>
<path fill="#d64344" d="
  M 304.62 208.13
  Q 307.76 214.22 313.65 215.69
  A 0.46 0.46 0.0 0 1 313.77 216.53
  Q 309.09 219.30 305.79 223.25
  Q 300.66 226.45 298.02 232.09
  Q 294.80 231.06 291.14 231.83
  A 0.26 0.26 0.0 0 0 291.21 232.34
  C 298.96 231.85 302.42 237.47 303.28 244.46
  C 303.60 247.00 304.11 252.42 302.63 254.63
  Q 300.00 254.12 295.70 251.28
  Q 286.95 245.50 281.77 239.88
  Q 281.46 239.54 281.00 239.52
  Q 280.07 239.49 279.35 238.99
  Q 280.09 236.82 282.07 235.37
  A 0.21 0.20 26.1 0 0 281.94 235.00
  Q 281.44 235.02 281.13 235.41
  Q 280.76 235.88 280.71 235.93
  Q 271.07 245.18 278.65 256.33
  Q 277.09 257.86 278.47 259.15
  A 2.01 2.01 0.0 0 1 278.73 261.79
  Q 273.59 268.96 270.87 277.12
  Q 260.75 278.38 254.36 273.09
  C 257.10 269.01 259.41 264.18 261.76 260.42
  C 268.39 249.79 274.41 237.87 282.73 228.24
  Q 292.31 217.17 304.62 208.13
  Z"
/>
<path fill="#9c3741" d="
  M 406.08 211.86
  Q 408.04 212.12 410.09 213.48
  C 411.60 214.49 413.00 214.54 414.63 214.87
  Q 415.99 216.65 418.11 216.63
  A 1.00 1.00 0.0 0 1 418.93 218.22
  L 414.83 223.99
  L 406.89 222.93
  Q 406.37 222.86 406.15 222.38
  L 404.49 218.71
  A 0.76 0.76 0.0 0 0 403.08 218.76
  L 402.88 219.29
  L 400.00 211.57
  A 0.56 0.56 0.0 0 1 400.84 210.91
  Q 404.16 213.19 406.08 211.86
  Z"
/>
<path fill="#9c3741" d="
  M 372.99 212.50
  Q 373.83 213.19 373.43 214.26
  Q 373.26 214.73 372.79 214.90
  C 364.65 217.87 358.52 221.91 352.72 228.59
  Q 349.84 231.91 346.54 235.24
  A 1.31 1.31 0.0 0 0 346.55 237.09
  Q 346.72 237.26 347.16 237.24
  L 328.73 262.54
  Q 328.44 262.94 327.96 263.10
  C 310.40 268.88 290.25 274.95 270.87 277.12
  Q 273.59 268.96 278.73 261.79
  A 2.01 2.01 0.0 0 0 278.47 259.15
  Q 277.09 257.86 278.65 256.33
  Q 283.46 259.90 286.26 260.23
  Q 297.16 261.51 304.58 256.09
  Q 306.53 257.45 308.76 257.50
  C 322.54 257.80 337.62 244.51 344.24 233.58
  C 347.87 227.59 346.10 220.57 338.49 220.74
  Q 332.99 220.87 327.41 223.34
  Q 314.19 229.20 304.81 241.84
  Q 302.69 234.06 298.02 232.09
  Q 300.66 226.45 305.79 223.25
  Q 310.57 219.70 315.44 216.70
  C 319.12 214.42 326.08 213.99 329.18 213.71
  Q 343.11 212.44 372.99 212.50
  Z"
/>
<path fill="#ba3c43" d="
  M 372.99 212.50
  L 385.19 212.56
  Q 385.57 212.57 385.45 212.93
  Q 385.29 213.36 384.94 213.42
  C 373.57 215.04 361.14 219.94 353.93 229.32
  Q 350.76 233.44 347.16 237.24
  Q 346.72 237.26 346.55 237.09
  A 1.31 1.31 0.0 0 1 346.54 235.24
  Q 349.84 231.91 352.72 228.59
  C 358.52 221.91 364.65 217.87 372.79 214.90
  Q 373.26 214.73 373.43 214.26
  Q 373.83 213.19 372.99 212.50
  Z"
/>
<path fill="#693e3e" d="
  M 113.00 241.52
  C 110.26 241.22 107.45 241.34 104.93 240.01
  Q 97.69 236.21 90.05 233.15
  C 88.51 232.54 86.39 233.31 85.52 230.85
  A 1.30 1.25 5.5 0 0 84.91 230.14
  Q 79.13 227.03 78.23 220.20
  L 100.65 212.91
  Q 101.13 212.75 101.60 212.93
  C 115.81 218.25 128.59 220.58 143.99 220.94
  Q 144.94 220.96 147.95 221.45
  C 151.79 222.06 155.04 221.88 159.60 222.81
  C 162.62 223.43 168.04 223.63 172.05 225.21
  Q 172.86 225.53 172.02 225.75
  L 113.00 241.52
  Z"
/>
<path fill="#ba3c43" d="
  M 474.53 227.48
  Q 473.51 223.68 472.08 221.42
  Q 471.59 220.64 472.23 219.32
  L 479.85 217.96
  A 0.39 0.39 0.0 0 1 480.25 218.56
  L 474.53 227.48
  Z"
/>
<path fill="#d64344" d="
  M 414.83 223.99
  L 409.26 231.23
  A 0.67 0.67 0.0 0 1 408.11 231.09
  L 402.88 219.29
  L 403.08 218.76
  A 0.76 0.76 0.0 0 1 404.49 218.71
  L 406.15 222.38
  Q 406.37 222.86 406.89 222.93
  L 414.83 223.99
  Z"
/>
<path fill="#543033" d="
  M 78.23 220.20
  Q 79.13 227.03 84.91 230.14
  A 1.30 1.25 5.5 0 1 85.52 230.85
  C 86.39 233.31 88.51 232.54 90.05 233.15
  Q 97.69 236.21 104.93 240.01
  C 107.45 241.34 110.26 241.22 113.00 241.52
  Q 106.78 243.73 100.89 246.58
  C 95.11 249.38 79.86 244.86 73.89 242.60
  Q 73.88 242.60 73.88 242.61
  Q 73.84 242.77 73.82 242.86
  Q 73.81 242.94 73.88 242.97
  Q 85.06 247.91 97.25 248.70
  Q 97.84 248.74 97.54 249.25
  Q 94.90 253.65 94.72 257.86
  Q 81.46 256.22 69.47 251.20
  C 68.37 250.74 67.05 251.13 66.19 249.87
  Q 65.90 249.44 65.42 249.24
  Q 54.77 244.59 46.01 237.03
  Q 47.55 232.92 50.90 229.65
  A 0.35 0.34 -48.3 0 1 51.36 229.62
  C 54.31 231.99 63.02 238.73 66.17 238.63
  Q 66.60 238.62 66.24 238.38
  L 53.48 230.13
  Q 51.68 228.97 53.72 228.29
  L 78.23 220.20
  Z"
/>
<path fill="#f3c15a" d="
  M 470.60 220.16
  Q 475.01 229.94 473.21 241.26
  Q 473.05 242.26 472.17 241.76
  Q 462.25 236.11 456.32 225.45
  Q 457.30 224.35 458.46 226.24
  Q 458.76 226.74 459.11 226.28
  Q 460.20 224.86 462.03 224.83
  A 1.50 1.44 -59.4 0 0 462.71 224.64
  L 470.60 220.16
  Z"
/>
<path fill="#a16a33" d="
  M 304.58 256.09
  Q 305.99 247.30 304.81 241.84
  Q 314.19 229.20 327.41 223.34
  Q 332.99 220.87 338.49 220.74
  C 346.10 220.57 347.87 227.59 344.24 233.58
  C 337.62 244.51 322.54 257.80 308.76 257.50
  Q 306.53 257.45 304.58 256.09
  Z"
/>
<path fill="#f3c15a" d="
  M 451.24 223.13
  C 446.78 232.14 437.78 238.79 429.06 243.18
  Q 428.53 243.45 428.45 242.87
  Q 427.47 236.27 429.67 229.62
  L 430.46 229.79
  Q 431.00 229.90 431.00 230.45
  L 431.00 231.29
  Q 431.00 231.58 431.29 231.58
  L 431.85 231.58
  A 0.59 0.58 1.0 0 0 432.44 231.02
  Q 432.49 229.49 433.97 229.25
  A 1.09 1.08 9.0 0 0 434.75 228.69
  L 435.66 226.95
  Q 435.92 226.47 436.47 226.50
  Q 439.61 226.67 442.23 224.99
  Q 442.67 224.70 443.20 224.74
  Q 446.64 225.01 449.33 222.67
  Q 449.90 222.18 450.31 222.19
  Q 451.03 222.20 451.24 223.13
  Z"
/>
<path fill="#9c3741" d="
  M 310.28 240.36
  C 314.87 234.04 322.53 228.30 329.76 225.52
  C 337.26 222.64 347.17 225.52 340.21 235.46
  Q 332.33 246.72 319.21 251.96
  C 316.34 253.11 311.59 254.60 309.09 252.19
  C 306.06 249.26 308.15 243.28 310.28 240.36
  Z"
/>
<path fill="#693e3e" d="
  M 229.34 254.56
  Q 223.32 248.77 217.92 245.66
  Q 217.47 245.40 217.00 245.62
  C 215.74 246.24 214.73 246.67 213.59 247.69
  C 209.43 251.41 204.37 252.58 198.90 253.84
  C 195.76 254.56 192.83 253.16 189.30 253.91
  Q 188.67 254.04 185.47 255.64
  C 182.86 256.95 179.33 256.37 176.11 255.87
  C 172.69 255.32 170.52 253.34 166.70 252.53
  Q 166.18 252.41 165.85 252.00
  Q 161.57 246.75 155.17 248.94
  Q 154.71 249.10 154.57 249.57
  Q 154.04 251.40 152.03 250.73
  Q 151.59 250.58 150.75 250.99
  Q 150.28 251.22 149.86 250.92
  Q 143.11 246.13 135.15 243.87
  C 132.39 243.08 127.31 243.70 125.31 242.50
  Q 123.61 241.48 121.02 240.52
  Q 128.43 237.75 140.00 234.73
  Q 161.41 229.14 175.51 226.28
  Q 176.77 226.02 178.95 226.52
  Q 203.86 232.18 223.60 248.21
  Q 223.67 248.26 226.14 250.00
  Q 228.65 251.75 229.34 254.56
  Z"
/>
<path fill="#ba3c43" d="
  M 359.43 245.66
  Q 357.65 245.54 360.27 244.17
  A 1.50 1.45 32.0 0 1 361.02 244.01
  Q 363.30 244.17 365.30 243.01
  A 0.66 0.65 66.6 0 0 365.60 242.23
  Q 364.87 239.90 365.72 237.72
  A 1.01 0.99 35.4 0 0 365.54 236.70
  L 357.53 227.62
  Q 357.75 226.85 358.48 226.71
  A 0.84 0.81 63.8 0 1 359.24 226.98
  L 372.71 242.57
  A 0.52 0.52 0.0 0 1 372.41 243.42
  L 359.43 245.66
  Z"
/>
<path fill="#9c3741" d="
  M 357.53 227.62
  L 365.54 236.70
  A 1.01 0.99 35.4 0 1 365.72 237.72
  Q 364.87 239.90 365.60 242.23
  A 0.66 0.65 66.6 0 1 365.30 243.01
  Q 363.30 244.17 361.02 244.01
  A 1.50 1.45 32.0 0 0 360.27 244.17
  Q 357.65 245.54 359.43 245.66
  L 342.83 247.87
  A 0.66 0.66 0.0 0 1 342.23 246.81
  L 357.53 227.62
  Z"
/>
<path fill="#000001" d="
  M 298.02 232.09
  Q 302.69 234.06 304.81 241.84
  Q 305.99 247.30 304.58 256.09
  Q 297.16 261.51 286.26 260.23
  Q 283.46 259.90 278.65 256.33
  Q 271.07 245.18 280.71 235.93
  Q 280.76 235.88 281.13 235.41
  Q 281.44 235.02 281.94 235.00
  A 0.21 0.20 26.1 0 1 282.07 235.37
  Q 280.09 236.82 279.35 238.99
  Q 273.86 247.81 280.04 255.17
  C 284.48 260.46 295.82 258.70 301.34 256.34
  C 302.07 256.03 302.58 255.37 302.63 254.63
  C 304.11 252.42 303.60 247.00 303.28 244.46
  C 302.42 237.47 298.96 231.85 291.21 232.34
  A 0.26 0.26 0.0 0 1 291.14 231.83
  Q 294.80 231.06 298.02 232.09
  Z"
/>
<path fill="#9c3741" d="
  M 46.01 237.03
  Q 54.77 244.59 65.42 249.24
  Q 65.90 249.44 66.19 249.87
  C 67.05 251.13 68.37 250.74 69.47 251.20
  Q 81.46 256.22 94.72 257.86
  Q 93.96 261.36 95.29 262.93
  Q 95.84 263.59 95.85 262.73
  L 95.85 259.06
  Q 95.99 258.64 96.26 258.35
  Q 96.60 257.99 97.02 258.25
  C 97.92 258.82 98.61 258.29 99.39 258.30
  C 105.75 258.42 112.16 258.48 118.46 259.44
  C 124.18 260.31 128.98 260.11 134.42 262.70
  Q 145.96 268.21 156.10 276.86
  Q 154.37 279.11 154.60 281.96
  Q 154.67 282.83 155.00 282.02
  L 156.77 277.72
  Q 162.54 283.44 167.84 289.42
  Q 171.56 293.61 179.47 298.27
  C 189.26 304.03 196.97 308.97 207.21 308.25
  Q 207.24 309.83 208.24 311.17
  Q 208.69 311.78 208.78 311.03
  L 208.84 310.47
  L 211.00 316.59
  Q 210.93 319.01 215.08 322.05
  Q 211.77 321.08 208.52 320.77
  Q 198.24 319.78 187.90 313.21
  L 184.12 308.22
  Q 183.01 309.08 182.49 308.34
  Q 182.28 308.04 181.96 307.88
  L 179.94 306.87
  Q 179.49 306.64 178.99 306.75
  Q 176.46 307.29 174.08 307.22
  Q 170.18 307.10 171.88 303.98
  Q 171.90 303.94 172.44 301.77
  Q 176.10 301.61 179.73 303.78
  A 0.14 0.14 0.0 0 0 179.94 303.67
  Q 179.96 303.41 179.81 303.44
  C 176.82 301.27 172.48 298.37 169.53 302.41
  A 0.78 0.78 0.0 0 1 168.31 302.45
  Q 156.73 288.79 143.29 278.92
  Q 140.76 272.57 135.70 267.60
  Q 135.39 267.29 134.97 267.39
  Q 133.62 267.70 133.60 266.93
  Q 130.98 263.36 126.68 262.71
  A 0.37 0.37 0.0 0 0 126.44 263.40
  L 132.26 266.86
  C 128.23 272.30 124.50 277.90 119.88 282.76
  Q 118.27 284.46 118.48 286.53
  Q 117.58 287.51 116.91 287.52
  Q 116.33 287.53 116.36 286.95
  C 116.69 280.41 116.67 270.12 120.24 264.61
  Q 120.66 263.97 119.98 264.32
  Q 116.65 266.00 116.42 269.71
  Q 116.39 270.06 116.04 270.05
  L 99.84 269.43
  Q 99.30 269.41 98.95 269.00
  Q 98.03 267.94 97.21 266.81
  Q 96.94 266.43 96.50 266.57
  Q 95.99 266.73 96.30 267.17
  L 97.30 268.64
  Q 97.67 269.17 97.03 269.13
  Q 86.90 268.39 77.14 265.64
  A 1.02 1.02 0.0 0 1 76.76 263.87
  Q 77.76 263.03 76.84 262.41
  Q 73.55 261.15 72.52 258.79
  Q 72.32 258.33 71.90 258.06
  C 70.00 256.83 68.34 254.38 65.51 255.78
  Q 65.11 255.98 65.01 256.42
  L 64.48 258.89
  Q 64.39 259.30 64.12 259.62
  Q 61.50 262.65 60.89 266.57
  Q 60.79 267.20 60.48 267.38
  Q 60.09 267.60 59.43 267.49
  C 59.13 263.34 56.50 255.92 62.17 254.42
  Q 68.94 252.63 74.06 256.89
  A 0.14 0.14 0.0 0 0 74.26 256.69
  C 70.60 252.15 62.59 250.64 58.30 255.51
  Q 57.96 255.90 57.51 255.65
  C 54.11 253.73 45.59 248.70 44.97 244.66
  Q 44.39 240.93 46.01 237.03
  Z"
/>
<path fill="#9c3741" d="
  M 279.35 238.99
  Q 280.07 239.49 281.00 239.52
  Q 281.46 239.54 281.77 239.88
  Q 286.95 245.50 295.70 251.28
  Q 300.00 254.12 302.63 254.63
  C 302.58 255.37 302.07 256.03 301.34 256.34
  C 295.82 258.70 284.48 260.46 280.04 255.17
  Q 273.86 247.81 279.35 238.99
  Z"
/>
<path fill="#543033" d="
  M 121.02 240.52
  Q 123.61 241.48 125.31 242.50
  C 127.31 243.70 132.39 243.08 135.15 243.87
  Q 143.11 246.13 149.86 250.92
  Q 150.28 251.22 150.75 250.99
  Q 151.59 250.58 152.03 250.73
  Q 154.04 251.40 154.57 249.57
  Q 154.71 249.10 155.17 248.94
  Q 161.57 246.75 165.85 252.00
  Q 166.18 252.41 166.70 252.53
  C 170.52 253.34 172.69 255.32 176.11 255.87
  C 179.33 256.37 182.86 256.95 185.47 255.64
  Q 188.67 254.04 189.30 253.91
  C 192.83 253.16 195.76 254.56 198.90 253.84
  C 204.37 252.58 209.43 251.41 213.59 247.69
  C 214.73 246.67 215.74 246.24 217.00 245.62
  Q 217.47 245.40 217.92 245.66
  Q 223.32 248.77 229.34 254.56
  Q 226.16 254.88 225.01 255.08
  Q 216.87 256.47 208.80 258.19
  C 195.09 261.12 180.97 263.60 167.22 267.42
  Q 166.73 267.56 166.35 267.20
  L 165.61 266.52
  A 0.43 0.43 0.0 0 0 165.01 267.14
  L 165.31 267.43
  Q 165.80 267.93 165.14 268.17
  Q 159.42 270.30 156.10 276.86
  Q 145.96 268.21 134.42 262.70
  C 128.98 260.11 124.18 260.31 118.46 259.44
  C 112.16 258.48 105.75 258.42 99.39 258.30
  C 98.61 258.29 97.92 258.82 97.02 258.25
  Q 96.60 257.99 96.26 258.35
  Q 95.99 258.64 95.85 259.06
  C 95.87 256.32 97.54 247.80 100.89 248.52
  Q 102.20 248.80 102.65 248.79
  C 115.23 248.50 126.17 246.74 139.20 250.77
  A 0.40 0.40 0.0 0 0 139.70 250.27
  Q 139.52 249.69 138.75 249.45
  C 126.27 245.75 114.48 247.56 101.85 247.65
  A 0.42 0.41 35.5 0 1 101.71 246.84
  L 121.02 240.52
  Z"
/>
<path fill="#693e3e" d="
  M 76.84 262.41
  Q 69.96 270.78 61.40 277.65
  A 0.56 0.55 -22.5 0 1 60.50 277.28
  L 59.43 267.49
  Q 60.09 267.60 60.48 267.38
  Q 60.79 267.20 60.89 266.57
  Q 61.50 262.65 64.12 259.62
  Q 64.39 259.30 64.48 258.89
  L 65.01 256.42
  Q 65.11 255.98 65.51 255.78
  C 68.34 254.38 70.00 256.83 71.90 258.06
  Q 72.32 258.33 72.52 258.79
  Q 73.55 261.15 76.84 262.41
  Z"
/>
<path fill="#543033" d="
  M 207.21 308.25
  C 196.97 308.97 189.26 304.03 179.47 298.27
  Q 171.56 293.61 167.84 289.42
  Q 162.54 283.44 156.77 277.72
  Q 159.13 271.85 165.90 269.16
  A 1.42 1.40 61.0 0 1 167.56 269.65
  Q 170.12 273.18 173.47 276.52
  Q 173.79 276.84 174.06 276.82
  Q 174.43 276.80 174.20 276.51
  L 168.63 269.38
  A 0.73 0.72 -27.5 0 1 168.99 268.24
  C 180.36 264.78 195.81 261.96 203.66 260.26
  Q 217.10 257.35 230.73 255.52
  Q 231.26 255.45 231.64 255.83
  Q 236.56 260.77 239.52 267.06
  Q 239.75 267.56 239.56 268.06
  Q 239.07 269.36 238.18 270.43
  Q 229.69 280.66 218.25 287.46
  C 211.14 291.69 205.05 291.53 197.04 292.85
  Q 195.77 293.06 197.05 293.25
  Q 204.86 294.36 212.22 291.68
  A 0.38 0.38 0.0 0 1 212.67 292.25
  Q 208.10 299.08 207.21 308.25
  Z"
/>
<path fill="#693e3e" d="
  M 253.90 274.28
  C 246.62 286.62 235.86 300.52 222.28 305.95
  Q 215.60 308.27 208.70 308.60
  C 208.62 300.95 211.81 293.05 218.73 289.12
  Q 227.74 284.00 234.70 276.61
  Q 235.10 278.28 236.93 276.18
  Q 241.48 270.95 244.32 264.62
  Q 244.83 262.68 246.94 260.76
  Q 247.02 260.68 247.05 260.79
  Q 249.04 269.65 253.90 274.28
  Z"
/>
<path fill="#000001" d="
  M 133.60 266.93
  Q 132.96 267.49 132.26 266.86
  L 126.44 263.40
  A 0.37 0.37 0.0 0 1 126.68 262.71
  Q 130.98 263.36 133.60 266.93
  Z"
/>
<path fill="#a16a33" d="
  M 244.32 264.62
  Q 241.48 270.95 236.93 276.18
  Q 235.10 278.28 234.70 276.61
  L 244.32 264.62
  Z"
/>
<path fill="#9c3741" d="
  M 323.70 269.26
  Q 318.86 272.94 315.68 278.74
  A 0.51 0.51 0.0 0 1 314.77 278.72
  C 312.90 275.05 302.93 278.67 300.22 280.05
  Q 299.78 280.28 299.29 280.22
  Q 292.99 279.52 288.46 283.54
  C 285.32 286.32 282.65 285.38 279.33 286.81
  C 277.63 287.55 276.56 289.68 275.07 291.05
  Q 274.68 291.41 274.86 291.92
  L 275.89 294.85
  C 269.05 299.03 259.17 308.13 258.45 316.60
  Q 258.40 317.09 258.56 317.55
  Q 259.04 318.99 258.48 320.44
  Q 257.59 321.15 257.05 321.02
  Q 256.55 320.90 256.66 320.40
  Q 256.96 318.97 256.58 317.65
  Q 256.44 317.17 256.57 316.68
  C 257.23 314.30 257.25 305.91 253.50 305.51
  Q 252.32 304.13 251.55 304.25
  Q 250.89 304.35 251.41 304.77
  L 252.94 306.00
  Q 255.76 309.15 255.65 311.81
  Q 255.16 324.18 253.38 336.51
  A 1.26 1.26 0.0 0 1 251.37 337.33
  Q 241.76 329.94 234.10 320.36
  C 232.44 318.28 232.27 316.21 232.60 313.73
  Q 240.78 324.47 251.34 333.20
  A 0.63 0.63 0.0 0 0 252.37 332.65
  C 251.48 323.37 249.25 314.30 247.96 304.96
  A 1.46 1.45 -8.2 0 1 249.19 303.32
  C 252.23 302.86 252.91 300.18 254.29 298.67
  Q 261.26 291.14 266.55 282.31
  Q 267.33 281.01 270.39 278.87
  C 289.53 276.22 305.83 271.18 326.12 265.30
  Q 326.63 265.16 326.44 265.65
  Q 325.43 268.33 323.70 269.26
  Z"
/>
<path fill="#693e3e" d="
  M 132.26 266.86
  Q 132.96 267.49 133.60 266.93
  Q 133.62 267.70 134.97 267.39
  Q 135.39 267.29 135.70 267.60
  Q 140.76 272.57 143.29 278.92
  L 136.66 275.96
  Q 136.25 275.77 136.26 275.32
  L 136.33 273.57
  A 0.33 0.33 0.0 0 0 135.71 273.41
  C 133.44 277.81 126.31 281.56 118.48 286.53
  Q 118.27 284.46 119.88 282.76
  C 124.50 277.90 128.23 272.30 132.26 266.86
  Z"
/>
<path fill="#ba3c43" d="
  M 323.70 269.26
  C 317.05 279.62 308.30 290.86 298.76 299.32
  Q 300.66 293.17 297.67 290.27
  C 293.07 285.82 280.36 291.89 275.89 294.85
  L 274.86 291.92
  Q 274.68 291.41 275.07 291.05
  C 276.56 289.68 277.63 287.55 279.33 286.81
  C 282.65 285.38 285.32 286.32 288.46 283.54
  Q 292.99 279.52 299.29 280.22
  Q 299.78 280.28 300.22 280.05
  C 302.93 278.67 312.90 275.05 314.77 278.72
  A 0.51 0.51 0.0 0 0 315.68 278.74
  Q 318.86 272.94 323.70 269.26
  Z"
/>
<path fill="#d64344" d="
  M 253.90 274.28
  C 259.63 277.09 263.02 279.28 270.39 278.87
  Q 267.33 281.01 266.55 282.31
  Q 261.26 291.14 254.29 298.67
  C 252.91 300.18 252.23 302.86 249.19 303.32
  A 1.46 1.45 -8.2 0 0 247.96 304.96
  C 249.25 314.30 251.48 323.37 252.37 332.65
  A 0.63 0.63 0.0 0 1 251.34 333.20
  Q 240.78 324.47 232.60 313.73
  Q 233.77 305.83 241.23 303.41
  C 242.02 303.15 243.29 303.33 244.32 302.81
  A 0.13 0.13 0.0 0 0 244.26 302.57
  L 238.82 302.85
  A 0.61 0.55 -59.1 0 0 238.59 302.92
  Q 230.63 307.45 230.72 316.42
  Q 228.83 316.85 227.87 317.67
  L 222.49 318.54
  Q 221.94 318.63 221.75 318.10
  Q 220.77 315.23 221.44 312.28
  Q 221.55 311.84 221.35 311.44
  Q 219.77 308.20 222.28 305.95
  C 235.86 300.52 246.62 286.62 253.90 274.28
  Z"
/>
<path fill="#a16a33" d="
  M 298.76 299.32
  Q 294.08 303.71 287.32 307.75
  L 293.78 300.93
  Q 294.13 300.56 294.31 300.07
  L 295.60 296.50
  Q 295.74 296.12 295.59 295.74
  C 293.71 291.00 287.22 292.84 283.49 294.56
  Q 272.33 299.71 265.11 309.62
  Q 260.75 315.59 265.33 318.29
  L 258.48 320.44
  Q 259.04 318.99 258.56 317.55
  Q 258.40 317.09 258.45 316.60
  C 259.17 308.13 269.05 299.03 275.89 294.85
  C 280.36 291.89 293.07 285.82 297.67 290.27
  Q 300.66 293.17 298.76 299.32
  Z"
/>
<path fill="#ba3c43" d="
  M 287.32 307.75
  Q 277.17 314.37 265.33 318.29
  Q 260.75 315.59 265.11 309.62
  Q 272.33 299.71 283.49 294.56
  C 287.22 292.84 293.71 291.00 295.59 295.74
  Q 295.74 296.12 295.60 296.50
  L 294.31 300.07
  Q 294.13 300.56 293.78 300.93
  L 287.32 307.75
  Z"
/>
<path fill="#d64344" d="
  M 286.99 311.12
  Q 286.22 310.61 286.99 310.11
  Q 297.34 303.40 305.94 294.57
  A 0.19 0.19 0.0 0 1 306.26 294.67
  L 310.70 322.19
  A 1.05 1.04 -82.4 0 1 309.24 323.31
  Q 297.63 318.07 286.99 311.12
  Z"
/>
<path fill="#ba3c43" d="
  M 172.44 301.77
  Q 171.90 303.94 171.88 303.98
  Q 170.18 307.10 174.08 307.22
  Q 176.46 307.29 178.99 306.75
  Q 179.49 306.64 179.94 306.87
  L 181.96 307.88
  Q 182.28 308.04 182.49 308.34
  Q 183.01 309.08 184.12 308.22
  L 185.23 310.66
  L 167.28 325.84
  Q 166.99 326.08 167.15 326.42
  Q 167.37 326.90 167.08 327.95
  L 163.80 329.35
  A 0.88 0.88 0.0 0 1 162.60 328.33
  Q 165.42 317.04 169.21 306.66
  C 170.02 304.44 169.90 302.91 172.44 301.77
  Z"
/>
<path fill="#693e3e" d="
  M 253.50 305.51
  Q 252.98 305.35 252.94 306.00
  L 251.41 304.77
  Q 250.89 304.35 251.55 304.25
  Q 252.32 304.13 253.50 305.51
  Z"
/>
<path fill="#ba3c43" d="
  M 222.28 305.95
  Q 219.77 308.20 221.35 311.44
  Q 221.55 311.84 221.44 312.28
  Q 220.77 315.23 221.75 318.10
  Q 221.94 318.63 222.49 318.54
  L 227.87 317.67
  Q 226.59 319.57 224.00 319.54
  Q 219.87 319.49 216.38 321.36
  L 211.00 316.59
  L 208.84 310.47
  Q 208.58 309.74 208.70 308.60
  Q 215.60 308.27 222.28 305.95
  Z"
/>
<path fill="#9c3741" d="
  M 185.23 310.66
  Q 187.49 314.44 186.60 318.03
  Q 186.48 318.54 186.01 318.76
  L 167.08 327.95
  Q 167.37 326.90 167.15 326.42
  Q 166.99 326.08 167.28 325.84
  L 185.23 310.66
  Z"
/>
<path fill="#693e3e" d="
  M 187.90 313.21
  Q 198.24 319.78 208.52 320.77
  Q 211.77 321.08 215.08 322.05
  Q 223.12 326.24 233.94 325.98
  Q 234.50 325.97 234.64 326.37
  Q 234.75 326.70 234.40 326.73
  Q 221.51 327.73 217.26 327.47
  Q 201.90 326.52 188.48 318.93
  Q 188.00 318.66 188.20 318.14
  Q 188.91 316.38 187.90 313.21
  Z"
/>
<path fill="#9c3741" d="
  M 230.72 316.42
  Q 231.61 321.82 235.36 324.21
  A 0.59 0.59 0.0 0 1 234.93 325.29
  Q 232.75 324.84 230.26 324.72
  Q 223.03 324.37 216.38 321.36
  Q 219.87 319.49 224.00 319.54
  Q 226.59 319.57 227.87 317.67
  Q 228.83 316.85 230.72 316.42
  Z"
/>
</svg>
