<?xml version="1.0" encoding="UTF-8" standalone="no"?>
<svg xmlns="http://www.w3.org/2000/svg" version="1.2" baseProfile="tiny" viewBox="0.00 0.00 500.00 500.00">
<path fill="#070707" fill-opacity="0.996" d="
  M 164.26 388.46
  C 182.25 381.92 193.02 367.30 192.98 347.60
  Q 192.98 347.08 192.49 346.89
  Q 191.63 346.56 190.71 347.05
  A 2.10 2.10 0.0 0 1 189.66 347.31
  C 161.60 347.28 130.12 339.70 104.82 327.71
  Q 104.37 327.50 103.88 327.53
  C 90.80 328.53 79.12 318.29 73.32 307.60
  Q 72.14 305.44 70.41 304.02
  C 54.64 291.07 39.31 275.17 28.64 257.60
  A 1.58 1.56 -3.2 0 0 27.95 256.99
  C 5.03 246.43 -2.35 222.83 0.82 199.31
  C 1.70 192.76 4.71 185.52 6.69 178.69
  Q 7.38 176.31 10.66 169.04
  C 24.19 138.96 58.43 123.91 90.11 131.83
  Q 119.38 139.15 136.00 164.12
  C 141.56 172.47 144.49 181.56 146.32 191.43
  C 148.94 205.58 145.96 220.61 139.72 233.49
  C 137.91 237.23 135.49 240.52 136.56 245.09
  Q 139.62 258.10 147.34 272.94
  C 151.81 281.53 157.67 289.09 164.12 296.37
  C 168.40 301.20 174.07 305.00 179.25 309.14
  A 0.52 0.52 0.0 0 0 180.02 308.47
  C 174.13 298.40 167.01 286.87 163.34 276.97
  Q 157.36 260.84 157.85 243.42
  Q 158.01 237.41 157.62 233.05
  C 155.81 213.08 155.67 193.19 159.99 173.50
  C 163.72 156.52 172.61 141.41 183.78 128.14
  C 213.13 93.27 263.66 77.73 307.97 82.34
  C 325.82 84.21 341.27 88.00 357.77 94.82
  C 384.22 105.76 409.38 125.70 425.77 149.44
  C 446.58 179.56 454.69 218.99 446.48 254.36
  C 443.34 267.89 437.17 279.32 430.02 290.46
  A 0.69 0.69 0.0 0 0 430.61 291.52
  C 457.74 290.89 483.17 306.82 495.02 330.96
  C 507.79 356.97 494.17 384.68 470.40 397.82
  Q 469.97 398.06 469.83 398.54
  C 467.79 405.80 461.45 408.08 455.29 410.79
  C 444.22 415.65 429.62 416.28 417.74 414.91
  C 409.96 414.01 402.57 414.63 397.07 407.39
  A 0.98 0.97 -18.1 0 0 396.29 407.00
  Q 390.77 406.95 385.45 405.56
  Q 384.95 405.43 384.45 405.58
  C 369.87 410.06 354.75 406.82 343.97 395.75
  Q 343.60 395.37 343.07 395.47
  Q 332.08 397.49 321.26 394.70
  Q 320.79 394.58 320.56 395.00
  Q 320.20 395.68 320.79 395.97
  Q 324.44 397.79 326.12 400.83
  A 1.41 1.36 37.7 0 1 326.26 401.79
  C 324.92 408.00 315.74 411.97 310.03 413.11
  C 292.78 416.53 274.26 409.95 264.68 394.78
  A 0.88 0.88 0.0 0 0 263.11 394.95
  C 259.11 406.22 251.77 415.37 240.15 419.18
  C 230.21 422.44 222.58 411.37 220.50 403.33
  A 0.47 0.47 0.0 0 0 219.82 403.04
  C 209.20 408.89 196.89 410.47 185.09 408.93
  C 177.32 407.92 165.36 403.95 160.65 396.92
  C 158.12 393.14 160.65 389.77 164.26 388.46
  Z
  M 253.00 89.21
  C 218.76 97.86 188.58 118.30 171.46 149.35
  C 157.34 174.95 156.21 207.00 160.56 235.41
  L 160.43 241.39
  Q 159.60 243.40 159.75 246.75
  Q 160.57 265.54 167.43 281.80
  L 172.93 291.83
  L 182.73 309.54
  L 185.94 315.77
  Q 188.45 319.77 187.88 322.95
  Q 185.18 316.33 180.64 312.01
  Q 178.58 310.77 176.43 309.60
  C 170.91 306.61 167.30 302.66 162.59 297.39
  Q 146.70 279.61 138.98 259.85
  L 135.71 249.75
  L 133.95 242.34
  C 144.23 222.55 147.71 205.89 142.83 184.93
  C 140.27 173.92 135.27 164.63 128.04 156.25
  L 125.15 153.12
  C 107.94 136.95 83.33 127.78 59.75 133.33
  C 39.93 138.00 25.54 146.82 15.21 164.50
  L 9.41 175.97
  A 0.28 0.28 0.0 0 0 9.89 176.25
  C 27.82 150.45 65.46 152.91 83.95 176.16
  C 98.93 196.11 96.99 223.09 81.67 242.20
  C 69.89 257.19 50.29 265.52 31.77 258.62
  A 0.45 0.44 78.7 0 0 31.29 259.34
  Q 32.92 261.10 34.29 263.16
  Q 41.50 273.94 50.90 282.77
  L 57.46 289.75
  Q 63.24 296.48 70.61 301.50
  Q 71.12 301.84 70.95 301.25
  Q 68.65 292.94 70.80 285.13
  Q 71.73 283.81 72.00 282.54
  C 79.94 270.85 92.29 270.23 103.40 277.52
  C 114.22 284.63 121.30 299.39 119.64 312.54
  L 118.16 317.37
  Q 115.34 323.23 108.87 326.55
  Q 108.28 326.85 108.87 327.14
  C 124.15 334.72 141.55 339.40 158.75 342.73
  Q 173.65 345.62 191.86 344.71
  Q 192.38 344.69 192.40 344.17
  L 192.48 341.77
  Q 192.50 341.12 192.82 341.69
  C 196.41 348.08 193.59 360.19 190.76 366.26
  Q 185.76 376.97 176.41 383.94
  C 172.52 386.84 166.97 388.38 162.45 391.32
  Q 161.21 392.42 161.20 393.71
  A 0.67 0.67 0.0 0 0 161.65 394.36
  Q 174.97 399.22 188.72 397.78
  C 202.29 396.36 215.90 388.27 219.30 374.18
  L 219.82 367.55
  Q 219.84 367.21 220.00 367.51
  Q 220.38 368.22 220.35 368.75
  Q 219.69 380.59 223.15 391.79
  Q 225.16 401.32 232.44 407.31
  C 240.69 414.08 250.33 401.85 253.32 395.20
  C 256.06 390.09 263.69 375.72 263.07 370.26
  Q 262.95 369.16 263.40 370.17
  Q 269.24 383.28 279.46 393.25
  Q 292.25 405.24 309.49 404.66
  C 313.31 404.54 318.59 403.09 323.17 403.16
  A 1.39 1.39 0.0 0 0 324.29 400.93
  Q 321.88 397.75 318.99 396.09
  C 314.30 393.41 311.59 391.48 308.27 387.68
  C 304.90 383.53 297.58 372.65 297.74 366.69
  A 0.36 0.36 0.0 0 1 298.42 366.54
  C 299.83 369.33 300.11 371.76 303.17 374.06
  Q 315.81 383.59 331.72 384.67
  Q 332.47 384.73 331.85 384.31
  Q 319.26 375.90 308.75 365.05
  C 307.24 363.49 306.09 361.04 304.30 359.31
  Q 304.23 359.24 304.23 359.15
  Q 304.23 359.02 304.25 358.89
  Q 304.32 358.49 304.60 358.78
  C 318.71 373.47 335.82 386.31 354.50 393.96
  Q 370.32 401.12 387.50 403.79
  Q 393.48 405.57 399.75 405.46
  C 421.47 407.57 447.39 406.46 467.25 397.29
  C 494.14 384.40 507.40 353.61 490.42 326.78
  Q 484.48 317.39 481.53 314.48
  Q 464.01 297.14 439.50 293.71
  Q 434.02 292.49 428.29 292.95
  Q 427.80 292.99 427.49 293.37
  Q 411.98 311.99 390.18 322.67
  Q 385.31 325.06 371.36 328.91
  Q 370.90 329.04 370.68 329.45
  Q 366.98 336.44 366.33 344.33
  Q 366.28 344.90 366.85 344.80
  Q 378.69 342.56 389.52 337.27
  A 0.33 0.33 0.0 0 1 389.85 337.85
  L 384.86 341.10
  L 375.50 344.46
  L 363.75 347.21
  C 350.46 348.83 337.61 347.50 326.18 340.05
  Q 326.10 339.58 325.72 339.31
  Q 325.75 339.13 325.78 338.96
  Q 325.81 338.68 326.27 338.43
  L 328.31 339.35
  Q 328.75 339.54 329.13 339.24
  C 332.79 336.30 336.24 332.94 339.88 330.21
  C 351.34 321.64 359.16 315.12 366.15 307.39
  A 0.28 0.28 0.0 0 0 365.81 306.95
  Q 359.18 310.17 354.35 304.67
  L 352.59 301.55
  C 349.01 290.39 355.56 277.08 363.31 269.07
  C 368.11 264.11 376.44 263.73 380.55 269.16
  L 382.35 272.78
  C 384.05 287.26 373.80 302.96 363.29 313.00
  Q 353.80 322.45 342.59 330.00
  A 0.37 0.36 -63.4 0 0 342.81 330.67
  C 356.22 329.94 370.42 328.30 382.75 323.58
  C 418.23 309.97 443.36 278.96 446.79 239.50
  Q 448.71 223.96 446.21 208.50
  L 442.50 192.01
  Q 439.53 181.19 435.44 171.56
  C 421.95 139.76 395.05 115.24 364.27 100.26
  Q 359.17 97.78 355.75 96.71
  Q 337.68 89.21 318.23 86.27
  Q 309.49 84.44 300.51 84.13
  Q 280.96 83.50 261.74 86.97
  Q 257.29 87.77 253.00 89.21
  Z
  M 353.98 301.78
  Q 356.33 305.04 359.31 306.07
  C 370.03 309.77 379.01 287.77 380.01 280.38
  C 380.68 275.39 380.56 271.20 376.25 268.04
  C 370.89 266.08 366.66 267.82 362.85 272.04
  Q 351.59 284.52 353.98 301.78
  Z
  M 331.52 341.66
  C 341.46 345.55 353.13 347.45 363.46 345.28
  Q 363.97 345.18 364.05 344.66
  Q 365.10 337.28 368.30 330.55
  A 0.75 0.75 0.0 0 0 367.45 329.50
  C 357.93 331.76 349.40 331.83 339.65 332.21
  A 1.14 1.09 21.6 0 0 338.96 332.49
  L 331.14 339.60
  A 1.24 1.23 34.7 0 0 331.52 341.66
  Z
  M 218.82 380.68
  C 208.24 400.78 182.12 403.18 162.48 396.29
  A 0.36 0.36 0.0 0 0 162.07 396.83
  C 165.59 401.91 175.98 405.60 181.46 406.76
  C 193.47 409.32 207.57 407.73 218.79 401.91
  A 1.43 1.42 68.7 0 0 219.51 400.26
  Q 217.65 393.64 217.74 386.75
  A 0.25 0.25 0.0 0 1 217.99 386.50
  Q 218.14 386.50 218.29 386.50
  A 0.29 0.28 -3.3 0 1 218.58 386.75
  C 219.76 396.43 222.65 413.15 232.68 417.18
  C 244.13 421.78 256.72 406.54 260.67 396.83
  Q 261.69 394.32 262.92 391.79
  Q 263.20 391.20 263.64 391.69
  C 266.17 394.55 268.69 398.03 271.21 400.37
  Q 289.26 417.14 313.57 410.30
  C 316.99 409.33 319.83 407.76 322.52 405.62
  A 0.65 0.64 -69.1 0 0 322.01 404.48
  C 316.55 405.43 310.48 406.47 305.30 406.24
  C 286.74 405.39 272.49 391.24 264.33 375.68
  A 0.46 0.46 0.0 0 0 263.49 375.76
  Q 259.35 388.86 251.83 400.57
  C 248.95 405.05 240.19 413.55 234.21 410.10
  C 223.75 404.08 220.66 391.72 219.14 380.74
  Q 219.07 380.20 218.82 380.68
  Z"
/>
<g stroke-width="2.00" fill="none" stroke-linecap="butt">
<path stroke="#79746e" vector-effect="non-scaling-stroke" d="
  M 253.00 89.21
  C 218.76 97.86 188.58 118.30 171.46 149.35
  C 157.34 174.95 156.21 207.00 160.56 235.41"
/>
<path stroke="#7c594d" vector-effect="non-scaling-stroke" d="
  M 160.56 235.41
  L 160.43 241.39"
/>
<path stroke="#7a3a22" vector-effect="non-scaling-stroke" d="
  M 160.43 241.39
  Q 159.60 243.40 159.75 246.75
  Q 160.57 265.54 167.43 281.80"
/>
<path stroke="#7c594d" vector-effect="non-scaling-stroke" d="
  M 167.43 281.80
  L 172.93 291.83"
/>
<path stroke="#79746e" vector-effect="non-scaling-stroke" d="
  M 172.93 291.83
  L 182.73 309.54"
/>
<path stroke="#655952" vector-effect="non-scaling-stroke" d="
  M 182.73 309.54
  L 185.94 315.77"
/>
<path stroke="#5d5149" vector-effect="non-scaling-stroke" d="
  M 185.94 315.77
  Q 188.45 319.77 187.88 322.95"
/>
<path stroke="#655952" vector-effect="non-scaling-stroke" d="
  M 187.88 322.95
  Q 185.18 316.33 180.64 312.01"
/>
<path stroke="#79746e" vector-effect="non-scaling-stroke" d="
  M 180.64 312.01
  Q 178.58 310.77 176.43 309.60
  C 170.91 306.61 167.30 302.66 162.59 297.39
  Q 146.70 279.61 138.98 259.85"
/>
<path stroke="#655952" vector-effect="non-scaling-stroke" d="
  M 138.98 259.85
  L 135.71 249.75"
/>
<path stroke="#36282a" vector-effect="non-scaling-stroke" d="
  M 135.71 249.75
  L 133.95 242.34"
/>
<path stroke="#1d1d29" vector-effect="non-scaling-stroke" d="
  M 133.95 242.34
  C 144.23 222.55 147.71 205.89 142.83 184.93
  C 140.27 173.92 135.27 164.63 128.04 156.25"
/>
<path stroke="#242134" vector-effect="non-scaling-stroke" d="
  M 128.04 156.25
  L 125.15 153.12"
/>
<path stroke="#332c3c" vector-effect="non-scaling-stroke" d="
  M 125.15 153.12
  C 107.94 136.95 83.33 127.78 59.75 133.33"
/>
<path stroke="#503437" vector-effect="non-scaling-stroke" d="
  M 59.75 133.33
  C 39.93 138.00 25.54 146.82 15.21 164.50"
/>
<path stroke="#332c3c" vector-effect="non-scaling-stroke" d="
  M 15.21 164.50
  L 9.41 175.97
  A 0.28 0.28 0.0 0 0 9.89 176.25
  C 27.82 150.45 65.46 152.91 83.95 176.16"
/>
<path stroke="#242134" vector-effect="non-scaling-stroke" d="
  M 83.95 176.16
  C 98.93 196.11 96.99 223.09 81.67 242.20"
/>
<path stroke="#1d1d29" vector-effect="non-scaling-stroke" d="
  M 81.67 242.20
  C 69.89 257.19 50.29 265.52 31.77 258.62
  A 0.45 0.44 78.7 0 0 31.29 259.34
  Q 32.92 261.10 34.29 263.16
  Q 41.50 273.94 50.90 282.77"
/>
<path stroke="#36282a" vector-effect="non-scaling-stroke" d="
  M 50.90 282.77
  L 57.46 289.75"
/>
<path stroke="#5d5149" vector-effect="non-scaling-stroke" d="
  M 57.46 289.75
  Q 63.24 296.48 70.61 301.50
  Q 71.12 301.84 70.95 301.25
  Q 68.65 292.94 70.80 285.13"
/>
<path stroke="#655952" vector-effect="non-scaling-stroke" d="
  M 70.80 285.13
  Q 71.73 283.81 72.00 282.54"
/>
<path stroke="#79746e" vector-effect="non-scaling-stroke" d="
  M 72.00 282.54
  C 79.94 270.85 92.29 270.23 103.40 277.52
  C 114.22 284.63 121.30 299.39 119.64 312.54"
/>
<path stroke="#655952" vector-effect="non-scaling-stroke" d="
  M 119.64 312.54
  L 118.16 317.37"
/>
<path stroke="#5d5149" vector-effect="non-scaling-stroke" d="
  M 118.16 317.37
  Q 115.34 323.23 108.87 326.55
  Q 108.28 326.85 108.87 327.14
  C 124.15 334.72 141.55 339.40 158.75 342.73
  Q 173.65 345.62 191.86 344.71
  Q 192.38 344.69 192.40 344.17
  L 192.48 341.77
  Q 192.50 341.12 192.82 341.69
  C 196.41 348.08 193.59 360.19 190.76 366.26
  Q 185.76 376.97 176.41 383.94
  C 172.52 386.84 166.97 388.38 162.45 391.32"
/>
<path stroke="#655952" vector-effect="non-scaling-stroke" d="
  M 162.45 391.32
  Q 161.21 392.42 161.20 393.71
  A 0.67 0.67 0.0 0 0 161.65 394.36
  Q 174.97 399.22 188.72 397.78
  C 202.29 396.36 215.90 388.27 219.30 374.18"
/>
<path stroke="#5d5149" vector-effect="non-scaling-stroke" d="
  M 219.30 374.18
  L 219.82 367.55
  Q 219.84 367.21 220.00 367.51
  Q 220.38 368.22 220.35 368.75
  Q 219.69 380.59 223.15 391.79"
/>
<path stroke="#655952" vector-effect="non-scaling-stroke" d="
  M 223.15 391.79
  Q 225.16 401.32 232.44 407.31
  C 240.69 414.08 250.33 401.85 253.32 395.20"
/>
<path stroke="#5d5149" vector-effect="non-scaling-stroke" d="
  M 253.32 395.20
  C 256.06 390.09 263.69 375.72 263.07 370.26
  Q 262.95 369.16 263.40 370.17
  Q 269.24 383.28 279.46 393.25"
/>
<path stroke="#655952" vector-effect="non-scaling-stroke" d="
  M 279.46 393.25
  Q 292.25 405.24 309.49 404.66
  C 313.31 404.54 318.59 403.09 323.17 403.16
  A 1.39 1.39 0.0 0 0 324.29 400.93
  Q 321.88 397.75 318.99 396.09
  C 314.30 393.41 311.59 391.48 308.27 387.68"
/>
<path stroke="#5d5149" vector-effect="non-scaling-stroke" d="
  M 308.27 387.68
  C 304.90 383.53 297.58 372.65 297.74 366.69
  A 0.36 0.36 0.0 0 1 298.42 366.54
  C 299.83 369.33 300.11 371.76 303.17 374.06
  Q 315.81 383.59 331.72 384.67
  Q 332.47 384.73 331.85 384.31
  Q 319.26 375.90 308.75 365.05
  C 307.24 363.49 306.09 361.04 304.30 359.31
  Q 304.23 359.24 304.23 359.15
  Q 304.23 359.02 304.25 358.89
  Q 304.32 358.49 304.60 358.78
  C 318.71 373.47 335.82 386.31 354.50 393.96"
/>
<path stroke="#655952" vector-effect="non-scaling-stroke" d="
  M 354.50 393.96
  Q 370.32 401.12 387.50 403.79"
/>
<path stroke="#36282a" vector-effect="non-scaling-stroke" d="
  M 387.50 403.79
  Q 393.48 405.57 399.75 405.46"
/>
<path stroke="#1d1d29" vector-effect="non-scaling-stroke" d="
  M 399.75 405.46
  C 421.47 407.57 447.39 406.46 467.25 397.29"
/>
<path stroke="#242134" vector-effect="non-scaling-stroke" d="
  M 467.25 397.29
  C 494.14 384.40 507.40 353.61 490.42 326.78
  Q 484.48 317.39 481.53 314.48
  Q 464.01 297.14 439.50 293.71"
/>
<path stroke="#1d1d29" vector-effect="non-scaling-stroke" d="
  M 439.50 293.71
  Q 434.02 292.49 428.29 292.95
  Q 427.80 292.99 427.49 293.37
  Q 411.98 311.99 390.18 322.67
  Q 385.31 325.06 371.36 328.91
  Q 370.90 329.04 370.68 329.45
  Q 366.98 336.44 366.33 344.33
  Q 366.28 344.90 366.85 344.80
  Q 378.69 342.56 389.52 337.27
  A 0.33 0.33 0.0 0 1 389.85 337.85
  L 384.86 341.10"
/>
<path stroke="#242134" vector-effect="non-scaling-stroke" d="
  M 384.86 341.10
  L 375.50 344.46"
/>
<path stroke="#503437" vector-effect="non-scaling-stroke" d="
  M 375.50 344.46
  L 363.75 347.21"
/>
<path stroke="#79746e" vector-effect="non-scaling-stroke" d="
  M 363.75 347.21
  C 350.46 348.83 337.61 347.50 326.18 340.05"
/>
<path stroke="#655952" vector-effect="non-scaling-stroke" d="
  M 326.18 340.05
  Q 326.10 339.58 325.72 339.31"
/>
<path stroke="#5d5149" vector-effect="non-scaling-stroke" d="
  M 325.72 339.31
  Q 325.75 339.13 325.78 338.96"
/>
<path stroke="#36282a" vector-effect="non-scaling-stroke" d="
  M 325.78 338.96
  Q 325.81 338.68 326.27 338.43"
/>
<path stroke="#5d5149" vector-effect="non-scaling-stroke" d="
  M 326.27 338.43
  L 328.31 339.35
  Q 328.75 339.54 329.13 339.24
  C 332.79 336.30 336.24 332.94 339.88 330.21
  C 351.34 321.64 359.16 315.12 366.15 307.39
  A 0.28 0.28 0.0 0 0 365.81 306.95
  Q 359.18 310.17 354.35 304.67"
/>
<path stroke="#655952" vector-effect="non-scaling-stroke" d="
  M 354.35 304.67
  L 352.59 301.55"
/>
<path stroke="#79746e" vector-effect="non-scaling-stroke" d="
  M 352.59 301.55
  C 349.01 290.39 355.56 277.08 363.31 269.07
  C 368.11 264.11 376.44 263.73 380.55 269.16"
/>
<path stroke="#655952" vector-effect="non-scaling-stroke" d="
  M 380.55 269.16
  L 382.35 272.78"
/>
<path stroke="#5d5149" vector-effect="non-scaling-stroke" d="
  M 382.35 272.78
  C 384.05 287.26 373.80 302.96 363.29 313.00"
/>
<path stroke="#655952" vector-effect="non-scaling-stroke" d="
  M 363.29 313.00
  Q 353.80 322.45 342.59 330.00
  A 0.37 0.36 -63.4 0 0 342.81 330.67
  C 356.22 329.94 370.42 328.30 382.75 323.58
  C 418.23 309.97 443.36 278.96 446.79 239.50"
/>
<path stroke="#5d5149" vector-effect="non-scaling-stroke" d="
  M 446.79 239.50
  Q 448.71 223.96 446.21 208.50"
/>
<path stroke="#655952" vector-effect="non-scaling-stroke" d="
  M 446.21 208.50
  L 442.50 192.01"
/>
<path stroke="#79746e" vector-effect="non-scaling-stroke" d="
  M 442.50 192.01
  Q 439.53 181.19 435.44 171.56
  C 421.95 139.76 395.05 115.24 364.27 100.26
  Q 359.17 97.78 355.75 96.71"
/>
<path stroke="#7c594d" vector-effect="non-scaling-stroke" d="
  M 355.75 96.71
  Q 337.68 89.21 318.23 86.27"
/>
<path stroke="#79746e" vector-effect="non-scaling-stroke" d="
  M 318.23 86.27
  Q 309.49 84.44 300.51 84.13"
/>
<path stroke="#7c594d" vector-effect="non-scaling-stroke" d="
  M 300.51 84.13
  Q 280.96 83.50 261.74 86.97
  Q 257.29 87.77 253.00 89.21"
/>
<path stroke="#edc5b4" vector-effect="non-scaling-stroke" d="
  M 300.51 84.13
  L 298.11 84.24
  Q 297.61 84.26 297.30 84.66
  C 289.30 95.00 268.67 112.93 256.04 100.43
  C 252.98 97.39 252.68 94.52 253.87 90.51
  Q 254.19 89.42 253.00 89.21"
/>
<path stroke="#edc5b4" vector-effect="non-scaling-stroke" d="
  M 318.23 86.27
  Q 318.52 86.52 318.63 86.76
  Q 318.87 87.26 318.33 87.37
  C 313.12 88.38 311.39 98.42 312.08 102.20
  C 314.06 113.01 325.69 113.87 334.27 111.84
  C 342.69 109.85 350.42 103.33 355.75 96.71"
/>
<path stroke="#d6c6b8" vector-effect="non-scaling-stroke" d="
  M 442.50 192.01
  Q 440.15 220.42 422.33 240.86
  Q 412.60 252.03 399.96 259.71
  Q 395.32 262.52 380.55 269.16"
/>
<path stroke="#d6c6b8" vector-effect="non-scaling-stroke" d="
  M 352.59 301.55
  Q 329.82 315.20 304.34 322.44
  C 295.96 324.82 286.96 325.00 278.32 325.81
  Q 271.22 326.48 265.52 326.26
  Q 246.56 325.56 227.83 322.52
  C 226.18 322.25 224.25 321.61 222.32 321.40
  C 217.65 320.89 213.33 319.04 208.49 318.57
  Q 207.83 318.50 207.39 318.05
  Q 207.04 317.69 206.55 317.60
  Q 200.78 316.55 195.38 314.29
  C 192.42 313.05 189.62 313.58 186.93 310.80
  Q 186.59 310.45 186.10 310.48
  Q 184.25 310.56 182.73 309.54"
/>
<path stroke="#edc5b4" vector-effect="non-scaling-stroke" d="
  M 172.93 291.83
  Q 181.30 297.49 189.53 295.38
  Q 194.07 294.21 200.94 288.42
  C 208.40 282.13 215.13 274.93 222.12 268.09
  C 227.22 263.09 232.19 261.61 238.35 265.99
  Q 241.77 268.42 242.50 269.52
  C 257.40 292.10 269.85 316.91 301.29 315.90
  C 316.05 315.43 330.36 307.90 338.80 296.01
  C 349.67 280.69 349.79 257.27 340.90 240.94
  Q 337.21 234.16 332.06 227.94
  Q 310.67 202.12 286.52 180.75
  C 278.09 173.29 265.71 168.02 258.92 180.03
  C 257.44 182.64 257.51 186.29 257.47 189.29
  Q 257.47 189.75 257.01 189.72
  L 245.04 188.88
  A 0.69 0.69 0.0 0 1 244.43 188.00
  C 247.21 178.24 243.85 169.40 232.65 169.15
  Q 224.76 168.97 216.72 172.98
  Q 187.60 187.50 170.83 213.31
  Q 164.37 223.26 160.56 235.41"
/>
<path stroke="#ef8b68" vector-effect="non-scaling-stroke" d="
  M 167.43 281.80
  Q 168.80 281.47 169.17 282.05
  Q 173.43 288.83 180.73 289.38
  C 195.47 290.50 210.04 265.99 222.70 259.88
  C 236.66 253.15 246.00 261.46 253.48 272.53
  Q 263.11 286.78 266.96 291.77
  C 280.44 309.30 307.24 315.16 324.61 299.86
  C 336.65 289.25 342.21 274.00 339.04 258.31
  C 336.81 247.29 330.97 238.39 323.65 229.60
  Q 309.67 212.79 295.22 199.12"
/>
<path stroke="#ef9774" vector-effect="non-scaling-stroke" d="
  M 295.22 199.12
  C 290.49 194.27 270.32 172.44 265.30 186.71
  C 263.82 190.89 266.98 196.55 269.53 199.84
  A 0.24 0.24 0.0 0 1 269.27 200.21
  Q 249.16 194.12 228.21 196.78
  A 0.44 0.44 0.0 0 1 227.85 196.02
  C 231.12 192.91 236.06 187.55 236.29 182.83
  C 237.18 165.14 199.07 192.67 195.46 195.38"
/>
<path stroke="#ef8b68" vector-effect="non-scaling-stroke" d="
  M 195.46 195.38
  C 182.71 204.72 166.06 222.39 162.18 238.03
  Q 161.70 239.94 160.43 241.39"
/>
<path stroke="#bba393" vector-effect="non-scaling-stroke" d="
  M 354.35 304.67
  C 352.64 305.74 351.67 307.23 349.94 308.08
  C 344.68 310.65 340.53 313.82 334.50 315.25
  C 328.74 316.61 324.48 321.13 317.40 321.66
  Q 316.96 321.69 316.64 321.99
  C 314.38 324.05 306.30 325.67 303.14 326.37
  C 298.97 327.29 294.38 329.15 288.98 328.64
  Q 288.92 328.63 288.01 329.00
  Q 287.18 329.33 287.24 330.19
  Q 287.31 331.04 286.47 331.09
  L 281.31 331.44
  Q 281.25 331.44 281.25 331.51
  Q 281.25 331.66 281.25 331.81
  A 0.28 0.28 0.0 0 1 280.99 332.10
  L 273.29 332.68
  Q 272.79 332.71 272.42 332.38
  Q 270.41 330.57 267.70 331.22
  C 264.49 331.99 257.86 330.94 256.03 333.46
  A 0.29 0.29 0.0 0 1 255.50 333.28
  Q 255.50 333.16 255.50 333.02
  Q 255.49 332.56 255.03 332.48
  Q 252.74 332.12 250.39 332.26
  Q 250.21 332.27 250.11 332.35
  Q 249.97 332.47 249.95 332.66
  Q 249.92 332.99 249.60 332.92
  Q 242.18 331.27 234.61 330.83
  C 223.10 330.15 213.54 324.42 202.37 322.65
  Q 201.82 322.56 201.36 322.25
  L 198.32 320.20
  Q 197.93 319.94 197.47 319.93
  C 194.53 319.83 193.01 317.96 190.74 317.27
  Q 188.55 316.60 185.94 315.77"
/>
<path stroke="#bba393" vector-effect="non-scaling-stroke" d="
  M 446.21 208.50
  L 443.72 209.60
  Q 443.30 209.79 443.20 210.24
  C 438.52 232.25 421.65 251.28 402.81 262.47
  C 395.10 267.06 389.22 269.31 382.35 272.78"
/>
<path stroke="#ee7849" vector-effect="non-scaling-stroke" d="
  M 295.22 199.12
  Q 291.93 202.59 287.84 204.36
  C 285.05 205.56 283.14 207.27 280.52 208.59
  C 277.42 210.15 274.92 212.70 270.77 212.94
  Q 270.28 212.96 269.85 213.19
  L 268.81 213.73
  A 0.71 0.70 57.1 0 1 267.94 213.54
  C 265.81 210.88 257.75 215.74 254.72 216.34
  Q 240.56 219.15 226.12 218.82
  C 222.08 218.73 218.13 217.42 214.17 216.42
  C 211.83 215.84 210.08 214.20 207.83 213.19
  Q 207.40 212.99 206.94 213.03
  Q 205.66 213.11 204.93 211.99
  Q 204.62 211.51 204.04 211.59
  Q 201.42 211.96 199.41 210.35
  A 1.51 1.48 14.0 0 1 198.90 209.52
  C 198.45 207.38 196.60 206.71 195.74 205.27
  Q 194.21 202.71 193.45 199.77
  Q 193.32 199.28 193.69 198.92
  L 196.13 196.56
  Q 196.58 196.12 196.06 195.78
  L 195.46 195.38"
/>
<path stroke="#8c726c" vector-effect="non-scaling-stroke" d="
  M 326.27 338.43
  Q 325.19 337.21 323.73 336.66
  Q 322.99 336.38 323.35 337.08
  Q 324.03 338.41 325.78 338.96"
/>
<path stroke="#bba393" vector-effect="non-scaling-stroke" d="
  M 325.72 339.31
  C 324.02 338.54 322.95 338.79 322.03 340.47
  Q 318.52 346.90 315.18 353.44
  C 312.85 357.99 321.01 360.87 323.81 362.89
  Q 338.63 373.57 355.68 380.19
  C 357.44 380.87 358.47 382.46 360.73 382.74
  A 1.01 0.98 78.2 0 1 361.47 383.24
  C 362.70 385.43 362.38 386.48 361.34 388.95
  C 360.23 391.58 364.77 392.70 366.49 393.47
  Q 367.00 393.70 367.00 394.26
  L 367.00 395.83
  A 1.35 1.35 0.0 0 1 365.12 397.07
  L 355.73 393.05
  A 1.02 0.93 30.1 0 0 354.58 393.30
  Q 354.40 393.52 354.50 393.96"
/>
<path stroke="#bba393" vector-effect="non-scaling-stroke" d="
  M 308.27 387.68
  L 307.37 387.90
  Q 306.96 388.00 307.20 388.34
  Q 311.10 393.79 316.82 397.21
  Q 317.37 397.54 317.11 398.13
  L 316.77 398.90
  A 0.45 0.45 0.0 0 1 316.15 399.11
  L 310.94 396.40
  Q 310.47 396.16 310.10 396.53
  L 309.73 396.90
  Q 309.40 397.23 308.94 397.35
  Q 302.56 399.09 296.71 396.73
  C 291.50 394.64 288.17 393.56 283.82 392.02
  C 280.17 390.73 277.93 388.69 275.13 386.22
  A 0.26 0.26 0.0 0 0 274.77 386.59
  L 280.26 392.55
  Q 280.53 392.85 280.15 392.99
  L 279.46 393.25"
/>
<path stroke="#bba393" vector-effect="non-scaling-stroke" d="
  M 253.32 395.20
  Q 253.12 393.99 252.25 394.60
  Q 251.93 394.83 251.71 395.36
  Q 250.11 399.24 247.01 401.95
  Q 246.65 402.26 246.19 402.34
  C 243.94 402.71 241.91 404.06 240.07 404.35
  Q 235.76 405.02 231.85 402.72
  A 1.66 1.64 -31.3 0 0 230.92 402.50
  Q 230.60 402.53 230.28 402.45
  Q 229.75 402.33 229.34 401.81
  Q 225.88 397.45 224.36 392.04
  Q 224.23 391.56 223.15 391.79"
/>
<path stroke="#bba393" vector-effect="non-scaling-stroke" d="
  M 219.30 374.18
  Q 217.58 372.36 217.13 375.05
  C 216.83 376.87 215.43 378.61 214.46 380.14
  Q 214.39 380.25 214.27 380.25
  Q 214.12 380.25 213.98 380.25
  Q 213.74 380.26 213.58 380.44
  C 209.58 384.93 200.39 392.32 194.24 392.90
  Q 193.66 392.96 193.32 393.36
  Q 193.04 393.71 192.58 393.73
  C 188.51 393.88 184.51 395.66 180.76 395.55
  Q 172.34 395.31 164.02 393.18
  Q 163.55 393.06 163.55 392.57
  Q 163.57 391.55 162.45 391.32"
/>
<path stroke="#bba393" vector-effect="non-scaling-stroke" d="
  M 118.16 317.37
  Q 121.49 317.13 124.30 318.86
  C 129.41 322.00 134.77 324.41 140.23 326.86
  C 142.83 328.03 146.49 328.91 149.83 330.43
  C 150.32 330.65 151.57 330.43 152.33 330.72
  C 157.72 332.76 191.14 342.56 188.07 328.21
  C 187.67 326.33 188.12 324.79 187.88 322.95"
/>
<path stroke="#bba393" vector-effect="non-scaling-stroke" d="
  M 446.79 239.50
  Q 447.53 236.25 444.78 235.26
  A 0.78 0.78 0.0 0 0 443.93 235.48
  C 440.06 239.91 439.95 251.29 440.22 257.06
  C 440.37 260.43 438.84 262.77 437.18 265.44
  Q 436.92 265.85 436.98 266.34
  Q 437.17 267.95 435.69 269.19
  Q 430.18 273.82 425.24 280.47
  C 423.92 282.25 422.84 284.95 420.90 287.16
  Q 416.61 292.03 412.67 295.17
  A 1.27 1.24 29.5 0 1 411.71 295.42
  Q 408.03 294.85 406.95 295.16
  Q 401.70 296.65 396.52 301.34
  Q 394.45 303.21 392.26 304.14
  C 386.11 306.74 380.06 310.19 373.54 311.67
  Q 369.53 312.58 365.79 314.35
  Q 365.32 314.58 365.02 314.15
  Q 364.34 313.17 363.29 313.00"
/>
<path stroke="#d6c6b8" vector-effect="non-scaling-stroke" d="
  M 326.18 340.05
  Q 326.03 339.98 325.83 339.99
  Q 325.66 340.00 325.57 340.16
  L 317.61 354.10
  A 0.95 0.94 34.9 0 0 317.83 355.29
  C 338.88 372.76 362.63 382.18 388.99 387.75
  Q 389.50 387.86 389.84 388.24
  Q 391.01 389.50 392.19 389.27"
/>
<path stroke="#ae8682" vector-effect="non-scaling-stroke" d="
  M 392.19 389.27
  L 392.14 390.68"
/>
<path stroke="#947a75" vector-effect="non-scaling-stroke" d="
  M 392.14 390.68
  C 391.06 395.58 390.45 400.64 387.50 403.79"
/>
<path stroke="#7f555a" vector-effect="non-scaling-stroke" d="
  M 402.21 391.50
  L 392.14 390.68"
/>
<path stroke="#c2a19e" vector-effect="non-scaling-stroke" d="
  M 363.75 347.21
  Q 374.90 348.96 382.31 358.44
  Q 393.28 372.45 392.19 389.27"
/>
<path stroke="#d6c6b8" vector-effect="non-scaling-stroke" d="
  M 180.64 312.01
  Q 184.47 321.11 186.02 330.37
  A 0.93 0.91 -23.8 0 1 185.67 331.25
  Q 182.91 333.41 179.25 333.00
  Q 149.95 329.68 124.07 315.69
  Q 121.66 314.39 119.64 312.54"
/>
<path stroke="#d6c6b8" vector-effect="non-scaling-stroke" d="
  M 72.00 282.54
  Q 71.73 282.59 71.53 282.51
  Q 70.93 282.26 71.26 281.70
  L 71.45 281.38
  Q 71.58 281.17 71.41 280.99
  L 67.01 276.45"
/>
<path stroke="#3a3755" vector-effect="non-scaling-stroke" d="
  M 439.50 293.71
  L 439.05 293.74
  Q 438.57 293.78 438.71 294.25
  L 438.92 294.90
  Q 439.07 295.37 439.55 295.45
  C 466.55 300.28 488.81 316.64 495.45 344.22
  C 498.28 355.97 492.21 366.67 485.76 376.53
  C 480.32 384.85 476.36 389.96 468.44 394.68
  Q 467.08 395.49 467.25 397.29"
/>
<path stroke="#4c3e4c" vector-effect="non-scaling-stroke" d="
  M 399.75 405.46
  Q 402.33 398.98 402.54 392.00"
/>
<path stroke="#3a3755" vector-effect="non-scaling-stroke" d="
  M 402.54 392.00
  Q 404.49 391.75 406.44 392.03
  Q 413.25 393.01 419.64 391.05
  C 423.82 389.76 426.10 391.19 426.97 385.23
  C 429.69 366.67 411.09 352.74 396.74 346.43
  Q 390.86 343.84 384.86 341.10"
/>
<path stroke="#534257" vector-effect="non-scaling-stroke" d="
  M 402.54 392.00
  L 402.21 391.50"
/>
<path stroke="#6d4e64" vector-effect="non-scaling-stroke" d="
  M 402.21 391.50
  C 403.47 373.09 392.14 352.67 375.50 344.46"
/>
<path stroke="#d6c6b8" vector-effect="non-scaling-stroke" d="
  M 138.98 259.85
  Q 133.92 256.16 130.42 250.65"
/>
<path stroke="#ae8682" vector-effect="non-scaling-stroke" d="
  M 131.25 250.04
  Q 130.63 250.73 130.42 250.65"
/>
<path stroke="#c2a19e" vector-effect="non-scaling-stroke" d="
  M 130.42 250.65
  Q 128.57 250.42 124.26 251.05
  C 102.46 254.24 82.48 261.33 67.01 276.45"
/>
<path stroke="#ae8682" vector-effect="non-scaling-stroke" d="
  M 67.01 276.45
  L 64.83 279.16"
/>
<path stroke="#a67e79" vector-effect="non-scaling-stroke" d="
  M 64.83 279.16
  Q 65.17 278.76 64.61 279.25"
/>
<path stroke="#7f555a" vector-effect="non-scaling-stroke" d="
  M 64.61 279.25
  L 59.60 274.59
  Q 59.44 274.44 59.28 274.60
  L 59.05 274.83
  Q 58.78 275.09 58.47 274.90
  Q 58.03 274.63 57.75 274.21"
/>
<path stroke="#bba393" vector-effect="non-scaling-stroke" d="
  M 70.80 285.13
  L 64.83 279.16"
/>
<path stroke="#947a75" vector-effect="non-scaling-stroke" d="
  M 135.71 249.75
  L 131.25 250.04"
/>
<path stroke="#7f555a" vector-effect="non-scaling-stroke" d="
  M 131.25 250.04
  C 127.98 248.21 125.86 243.61 123.51 243.18"
/>
<path stroke="#664a59" vector-effect="non-scaling-stroke" d="
  M 74.12 259.45
  C 68.17 264.24 62.79 268.46 57.75 274.21"
/>
<path stroke="#4c3e4c" vector-effect="non-scaling-stroke" d="
  M 57.75 274.21
  L 50.90 282.77"
/>
<path stroke="#3a3755" vector-effect="non-scaling-stroke" d="
  M 128.04 156.25
  Q 127.64 158.02 126.41 157.84
  A 1.23 1.23 0.0 0 0 125.07 159.48
  Q 126.30 162.93 127.54 165.97
  C 130.42 173.10 131.28 182.66 132.35 190.31
  C 133.22 196.48 133.16 202.90 133.28 209.22
  C 133.32 211.66 132.34 213.14 130.68 214.70
  A 0.99 0.94 -15.4 0 0 130.39 215.18
  L 124.07 241.17
  Q 123.95 241.63 124.25 242.00
  Q 124.72 242.59 125.50 242.79"
/>
<path stroke="#534257" vector-effect="non-scaling-stroke" d="
  M 125.50 242.79
  L 123.51 243.18"
/>
<path stroke="#6d4e64" vector-effect="non-scaling-stroke" d="
  M 123.51 243.18
  C 109.30 244.23 89.39 248.63 77.68 257.18
  Q 75.15 259.03 74.12 259.45"
/>
<path stroke="#3a3755" vector-effect="non-scaling-stroke" d="
  M 74.12 259.45
  Q 79.13 252.35 82.20 243.93
  Q 82.34 243.54 82.04 243.26
  Q 81.71 242.94 81.67 242.20"
/>
<path stroke="#8c726c" vector-effect="non-scaling-stroke" d="
  M 64.61 279.25
  Q 60.32 284.07 57.46 289.75"
/>
<path stroke="#4c3e4c" vector-effect="non-scaling-stroke" d="
  M 133.95 242.34
  L 125.50 242.79"
/>
<path stroke="#504669" vector-effect="non-scaling-stroke" d="
  M 125.15 153.12
  Q 123.17 155.85 123.45 158.96
  Q 123.50 159.46 123.17 159.85
  C 122.26 160.92 121.91 162.97 120.32 163.18
  Q 119.80 163.25 119.51 163.68
  Q 118.41 165.25 116.44 165.70
  Q 115.98 165.81 115.68 166.18
  C 114.66 167.49 114.38 168.39 112.99 169.38
  Q 104.89 175.13 98.76 176.50
  Q 96.68 176.97 88.59 176.44
  Q 88.07 176.41 87.71 176.03
  Q 86.17 174.40 83.95 176.16"
/>
<path stroke="#7c596c" vector-effect="non-scaling-stroke" d="
  M 15.21 164.50
  Q 15.44 165.13 16.01 165.01
  Q 16.48 164.91 16.72 164.49
  C 26.57 147.71 41.10 139.40 59.62 134.61
  Q 60.17 134.47 60.17 134.16
  Q 60.17 133.82 59.75 133.33"
/>
<path stroke="#ee7849" vector-effect="non-scaling-stroke" d="
  M 82.54 177.50
  C 80.38 183.54 76.20 189.49 69.54 190.35
  C 66.60 190.73 64.04 189.28 61.27 188.25
  Q 60.82 188.09 60.50 187.74
  Q 59.72 186.91 58.59 186.74
  Q 58.13 186.67 57.75 186.40
  C 51.60 182.07 48.66 176.45 40.77 175.64
  Q 37.75 175.33 34.71 175.15
  C 30.23 174.88 25.68 176.72 21.01 177.10
  C 19.06 177.25 17.45 178.12 15.26 178.06
  A 1.18 1.18 0.0 0 0 14.36 178.45
  Q 7.52 186.05 5.20 196.09
  A 0.82 0.81 5.5 0 1 4.43 196.72
  L 3.29 196.75"
/>
<path stroke="#da6139" vector-effect="non-scaling-stroke" d="
  M 88.04 227.95
  Q 83.57 229.88 79.09 231.87
  C 74.77 233.79 72.54 236.82 66.98 237.23
  C 64.75 237.39 62.80 238.33 60.72 238.50
  Q 48.50 239.51 42.76 238.97
  Q 32.35 238.00 20.74 232.27
  C 16.71 230.28 13.41 227.17 10.00 224.19
  Q 9.63 223.87 9.53 223.39
  Q 9.28 222.16 8.07 221.69
  A 1.56 1.51 85.6 0 1 7.29 221.00
  Q 5.75 218.12 2.54 217.25"
/>
<path stroke="#672f1f" vector-effect="non-scaling-stroke" d="
  M 353.98 301.78
  Q 356.33 305.04 359.31 306.07
  C 370.03 309.77 379.01 287.77 380.01 280.38
  C 380.68 275.39 380.56 271.20 376.25 268.04"
/>
<path stroke="#7a3a22" vector-effect="non-scaling-stroke" d="
  M 376.25 268.04
  C 370.89 266.08 366.66 267.82 362.85 272.04
  Q 351.59 284.52 353.98 301.78"
/>
<path stroke="#da6139" vector-effect="non-scaling-stroke" d="
  M 376.25 268.04
  Q 373.59 272.70 372.50 278.08
  A 0.72 0.72 0.0 0 0 372.87 278.86
  C 375.47 280.28 376.45 282.12 375.58 285.17
  C 374.26 289.81 372.68 294.98 367.66 295.88
  Q 367.21 295.96 367.04 295.55
  Q 366.71 294.79 367.45 294.31"
/>
<path stroke="#7a3a22" vector-effect="non-scaling-stroke" d="
  M 367.45 294.31
  C 369.81 292.55 377.15 281.95 371.52 280.03
  Q 371.03 279.86 370.62 280.20
  Q 364.36 285.46 364.72 293.19"
/>
<path stroke="#da6139" vector-effect="non-scaling-stroke" d="
  M 364.72 293.19
  Q 359.03 296.68 353.98 301.78"
/>
<path stroke="#672f1f" vector-effect="non-scaling-stroke" d="
  M 364.72 293.19
  Q 365.65 294.63 367.45 294.31"
/>
<path stroke="#da6139" vector-effect="non-scaling-stroke" d="
  M 117.54 304.00
  L 117.08 312.85
  Q 117.05 313.34 116.58 313.47
  Q 115.78 313.69 115.74 313.20
  Q 115.71 312.76 115.32 312.56
  L 110.03 309.82
  A 1.19 1.18 -35.0 0 0 109.33 309.70
  Q 107.11 310.01 105.14 309.05
  Q 104.62 308.79 104.03 308.77
  Q 102.51 308.74 101.30 307.80
  Q 100.92 307.51 100.46 307.36
  Q 94.09 305.18 88.50 301.45
  C 86.93 300.41 85.34 298.62 83.71 297.34
  C 80.67 294.94 79.04 291.76 76.64 288.85
  Q 75.21 287.12 72.21 286.57"
/>
<path stroke="#da6139" vector-effect="non-scaling-stroke" d="
  M 114.73 318.70
  Q 109.28 323.41 105.01 323.69
  Q 97.36 324.18 95.03 323.27
  Q 78.36 316.81 73.99 299.58
  Q 73.87 299.12 73.52 298.81
  Q 72.89 298.26 72.29 299.00"
/>
<path stroke="#242134" vector-effect="non-scaling-stroke" d="
  M 218.82 380.68
  C 208.24 400.78 182.12 403.18 162.48 396.29
  A 0.36 0.36 0.0 0 0 162.07 396.83
  C 165.59 401.91 175.98 405.60 181.46 406.76
  C 193.47 409.32 207.57 407.73 218.79 401.91
  A 1.43 1.42 68.7 0 0 219.51 400.26
  Q 217.65 393.64 217.74 386.75
  A 0.25 0.25 0.0 0 1 217.99 386.50
  Q 218.14 386.50 218.29 386.50
  A 0.29 0.28 -3.3 0 1 218.58 386.75
  C 219.76 396.43 222.65 413.15 232.68 417.18
  C 244.13 421.78 256.72 406.54 260.67 396.83
  Q 261.69 394.32 262.92 391.79
  Q 263.20 391.20 263.64 391.69
  C 266.17 394.55 268.69 398.03 271.21 400.37
  Q 289.26 417.14 313.57 410.30
  C 316.99 409.33 319.83 407.76 322.52 405.62
  A 0.65 0.64 -69.1 0 0 322.01 404.48
  C 316.55 405.43 310.48 406.47 305.30 406.24
  C 286.74 405.39 272.49 391.24 264.33 375.68
  A 0.46 0.46 0.0 0 0 263.49 375.76
  Q 259.35 388.86 251.83 400.57
  C 248.95 405.05 240.19 413.55 234.21 410.10
  C 223.75 404.08 220.66 391.72 219.14 380.74
  Q 219.07 380.20 218.82 380.68"
/>
</g>
<path fill="#f0aa93" d="
  M 300.51 84.13
  L 298.11 84.24
  Q 297.61 84.26 297.30 84.66
  C 289.30 95.00 268.67 112.93 256.04 100.43
  C 252.98 97.39 252.68 94.52 253.87 90.51
  Q 254.19 89.42 253.00 89.21
  Q 257.29 87.77 261.74 86.97
  Q 280.96 83.50 300.51 84.13
  Z"
/>
<path fill="#eae0d4" d="
  M 300.51 84.13
  Q 309.49 84.44 318.23 86.27
  Q 318.52 86.52 318.63 86.76
  Q 318.87 87.26 318.33 87.37
  C 313.12 88.38 311.39 98.42 312.08 102.20
  C 314.06 113.01 325.69 113.87 334.27 111.84
  C 342.69 109.85 350.42 103.33 355.75 96.71
  Q 359.17 97.78 364.27 100.26
  C 395.05 115.24 421.95 139.76 435.44 171.56
  Q 439.53 181.19 442.50 192.01
  Q 440.15 220.42 422.33 240.86
  Q 412.60 252.03 399.96 259.71
  Q 395.32 262.52 380.55 269.16
  C 376.44 263.73 368.11 264.11 363.31 269.07
  C 355.56 277.08 349.01 290.39 352.59 301.55
  Q 329.82 315.20 304.34 322.44
  C 295.96 324.82 286.96 325.00 278.32 325.81
  Q 271.22 326.48 265.52 326.26
  Q 246.56 325.56 227.83 322.52
  C 226.18 322.25 224.25 321.61 222.32 321.40
  C 217.65 320.89 213.33 319.04 208.49 318.57
  Q 207.83 318.50 207.39 318.05
  Q 207.04 317.69 206.55 317.60
  Q 200.78 316.55 195.38 314.29
  C 192.42 313.05 189.62 313.58 186.93 310.80
  Q 186.59 310.45 186.10 310.48
  Q 184.25 310.56 182.73 309.54
  L 172.93 291.83
  Q 181.30 297.49 189.53 295.38
  Q 194.07 294.21 200.94 288.42
  C 208.40 282.13 215.13 274.93 222.12 268.09
  C 227.22 263.09 232.19 261.61 238.35 265.99
  Q 241.77 268.42 242.50 269.52
  C 257.40 292.10 269.85 316.91 301.29 315.90
  C 316.05 315.43 330.36 307.90 338.80 296.01
  C 349.67 280.69 349.79 257.27 340.90 240.94
  Q 337.21 234.16 332.06 227.94
  Q 310.67 202.12 286.52 180.75
  C 278.09 173.29 265.71 168.02 258.92 180.03
  C 257.44 182.64 257.51 186.29 257.47 189.29
  Q 257.47 189.75 257.01 189.72
  L 245.04 188.88
  A 0.69 0.69 0.0 0 1 244.43 188.00
  C 247.21 178.24 243.85 169.40 232.65 169.15
  Q 224.76 168.97 216.72 172.98
  Q 187.60 187.50 170.83 213.31
  Q 164.37 223.26 160.56 235.41
  C 156.21 207.00 157.34 174.95 171.46 149.35
  C 188.58 118.30 218.76 97.86 253.00 89.21
  Q 254.19 89.42 253.87 90.51
  C 252.68 94.52 252.98 97.39 256.04 100.43
  C 268.67 112.93 289.30 95.00 297.30 84.66
  Q 297.61 84.26 298.11 84.24
  L 300.51 84.13
  Z"
/>
<path stroke="#d9ab98" stroke-width="2.00" fill="none" stroke-linecap="butt" vector-effect="non-scaling-stroke" d="
  M 227.71 151.50
  Q 229.80 148.59 227.57 146.35
  Q 227.19 145.96 227.26 145.41
  Q 227.39 144.54 226.65 143.97
  Q 226.17 143.60 225.61 143.34
  Q 224.77 142.95 224.50 142.06
  A 0.91 0.90 -6.2 0 0 223.71 141.43
  Q 221.02 141.23 220.54 138.50"
/>
<path fill="#f0aa93" d="
  M 318.23 86.27
  Q 337.68 89.21 355.75 96.71
  C 350.42 103.33 342.69 109.85 334.27 111.84
  C 325.69 113.87 314.06 113.01 312.08 102.20
  C 311.39 98.42 313.12 88.38 318.33 87.37
  Q 318.87 87.26 318.63 86.76
  Q 318.52 86.52 318.23 86.27
  Z"
/>
<path stroke="#ee7849" stroke-width="2.00" fill="none" stroke-linecap="butt" vector-effect="non-scaling-stroke" d="
  M 335.82 103.94
  L 319.85 97.65
  Q 319.37 97.47 318.96 97.77
  Q 317.82 98.60 317.56 100.46"
/>
<path fill="#ee8355" d="
  M 335.82 103.94
  L 319.85 97.65
  Q 319.37 97.47 318.96 97.77
  Q 317.82 98.60 317.56 100.46
  Q 318.18 94.33 322.44 89.98
  C 324.25 88.14 325.87 88.50 327.71 89.84
  Q 329.95 91.46 336.98 95.20
  C 338.57 96.05 341.53 96.70 343.43 98.42
  Q 343.82 98.77 343.47 99.16
  Q 339.71 103.33 335.82 103.94
  Z"
/>
<path fill="#ee8355" d="
  M 275.26 91.84
  Q 276.15 91.07 277.34 91.56
  Q 277.84 91.76 278.33 91.52
  L 283.35 89.05
  A 0.71 0.71 0.0 0 1 284.31 89.99
  Q 283.93 90.82 282.84 91.61
  C 277.58 95.41 265.75 100.83 261.00 93.81
  A 0.65 0.65 0.0 0 1 261.49 92.80
  L 271.08 92.11
  Q 271.60 92.07 272.08 92.28
  Q 273.29 92.80 274.56 92.28
  Q 274.94 92.12 275.26 91.84
  Z"
/>
<path fill="#ed6c3c" d="
  M 335.82 103.94
  C 329.47 107.41 320.67 108.22 317.56 100.46
  Q 317.82 98.60 318.96 97.77
  Q 319.37 97.47 319.85 97.65
  L 335.82 103.94
  Z"
/>
<path fill="#f0aa93" d="
  M 227.71 151.50
  Q 229.80 148.59 227.57 146.35
  Q 227.19 145.96 227.26 145.41
  Q 227.39 144.54 226.65 143.97
  Q 226.17 143.60 225.61 143.34
  Q 224.77 142.95 224.50 142.06
  A 0.91 0.90 -6.2 0 0 223.71 141.43
  Q 221.02 141.23 220.54 138.50
  Q 220.94 125.50 231.36 116.83
  C 237.57 111.67 245.96 109.39 252.57 114.61
  C 266.32 125.45 245.56 158.84 227.71 151.50
  Z"
/>
<path fill="#ee8355" d="
  M 236.76 118.76
  C 242.68 114.63 251.25 117.03 249.91 125.50
  C 248.69 133.18 243.47 143.48 235.68 145.77
  C 229.92 147.46 225.84 142.10 226.25 136.84
  Q 227.15 125.47 236.76 118.76
  Z"
/>
<path fill="#f0aa93" d="
  M 286.5236 161.5368
  A 23.29 17.32 122.8 0 1 284.5814 132.5776
  A 23.29 17.32 122.8 0 1 311.7564 122.3832
  A 23.29 17.32 122.8 0 1 313.6986 151.3424
  A 23.29 17.32 122.8 0 1 286.5236 161.5368
  Z"
/>
<path fill="#ee8355" d="
  M 289.7627 156.6123
  A 17.11 11.30 119.7 0 1 288.4245 136.1513
  A 17.11 11.30 119.7 0 1 306.7173 126.8877
  A 17.11 11.30 119.7 0 1 308.0555 147.3487
  A 17.11 11.30 119.7 0 1 289.7627 156.6123
  Z"
/>
<path fill="#5f5071" d="
  M 125.15 153.12
  Q 123.17 155.85 123.45 158.96
  Q 123.50 159.46 123.17 159.85
  C 122.26 160.92 121.91 162.97 120.32 163.18
  Q 119.80 163.25 119.51 163.68
  Q 118.41 165.25 116.44 165.70
  Q 115.98 165.81 115.68 166.18
  C 114.66 167.49 114.38 168.39 112.99 169.38
  Q 104.89 175.13 98.76 176.50
  Q 96.68 176.97 88.59 176.44
  Q 88.07 176.41 87.71 176.03
  Q 86.17 174.40 83.95 176.16
  C 65.46 152.91 27.82 150.45 9.89 176.25
  A 0.28 0.28 0.0 0 1 9.41 175.97
  L 15.21 164.50
  Q 15.44 165.13 16.01 165.01
  Q 16.48 164.91 16.72 164.49
  C 26.57 147.71 41.10 139.40 59.62 134.61
  Q 60.17 134.47 60.17 134.16
  Q 60.17 133.82 59.75 133.33
  C 83.33 127.78 107.94 136.95 125.15 153.12
  Z"
/>
<path fill="#996167" d="
  M 59.75 133.33
  Q 60.17 133.82 60.17 134.16
  Q 60.17 134.47 59.62 134.61
  C 41.10 139.40 26.57 147.71 16.72 164.49
  Q 16.48 164.91 16.01 165.01
  Q 15.44 165.13 15.21 164.50
  C 25.54 146.82 39.93 138.00 59.75 133.33
  Z"
/>
<path fill="#c2ab9c" d="
  M 220.54 138.50
  Q 221.02 141.23 223.71 141.43
  A 0.91 0.90 -6.2 0 1 224.50 142.06
  Q 224.77 142.95 225.61 143.34
  Q 226.17 143.60 226.65 143.97
  Q 227.39 144.54 227.26 145.41
  Q 227.19 145.96 227.57 146.35
  Q 229.80 148.59 227.71 151.50
  C 223.01 150.49 226.98 145.65 223.68 144.46
  Q 219.62 143.00 220.54 138.50
  Z"
/>
<path fill="#996167" d="
  M 60.54 141.47
  C 62.89 140.09 68.69 139.41 70.43 142.05
  Q 70.70 142.47 70.28 142.74
  Q 65.10 146.15 60.48 142.32
  A 0.52 0.52 0.0 0 1 60.54 141.47
  Z"
/>
<path fill="#413b60" d="
  M 125.15 153.12
  L 128.04 156.25
  Q 127.64 158.02 126.41 157.84
  A 1.23 1.23 0.0 0 0 125.07 159.48
  Q 126.30 162.93 127.54 165.97
  C 130.42 173.10 131.28 182.66 132.35 190.31
  C 133.22 196.48 133.16 202.90 133.28 209.22
  C 133.32 211.66 132.34 213.14 130.68 214.70
  A 0.99 0.94 -15.4 0 0 130.39 215.18
  L 124.07 241.17
  Q 123.95 241.63 124.25 242.00
  Q 124.72 242.59 125.50 242.79
  L 123.51 243.18
  C 109.30 244.23 89.39 248.63 77.68 257.18
  Q 75.15 259.03 74.12 259.45
  Q 79.13 252.35 82.20 243.93
  Q 82.34 243.54 82.04 243.26
  Q 81.71 242.94 81.67 242.20
  C 96.99 223.09 98.93 196.11 83.95 176.16
  Q 86.17 174.40 87.71 176.03
  Q 88.07 176.41 88.59 176.44
  Q 96.68 176.97 98.76 176.50
  Q 104.89 175.13 112.99 169.38
  C 114.38 168.39 114.66 167.49 115.68 166.18
  Q 115.98 165.81 116.44 165.70
  Q 118.41 165.25 119.51 163.68
  Q 119.80 163.25 120.32 163.18
  C 121.91 162.97 122.26 160.92 123.17 159.85
  Q 123.50 159.46 123.45 158.96
  Q 123.17 155.85 125.15 153.12
  Z"
/>
<path fill="#33334a" d="
  M 128.04 156.25
  C 135.27 164.63 140.27 173.92 142.83 184.93
  C 147.71 205.89 144.23 222.55 133.95 242.34
  L 125.50 242.79
  Q 124.72 242.59 124.25 242.00
  Q 123.95 241.63 124.07 241.17
  L 130.39 215.18
  A 0.99 0.94 -15.4 0 1 130.68 214.70
  C 132.34 213.14 133.32 211.66 133.28 209.22
  C 133.16 202.90 133.22 196.48 132.35 190.31
  C 131.28 182.66 130.42 173.10 127.54 165.97
  Q 126.30 162.93 125.07 159.48
  A 1.23 1.23 0.0 0 1 126.41 157.84
  Q 127.64 158.02 128.04 156.25
  Z"
/>
<path fill="#ee8355" d="
  M 82.54 177.50
  C 80.38 183.54 76.20 189.49 69.54 190.35
  C 66.60 190.73 64.04 189.28 61.27 188.25
  Q 60.82 188.09 60.50 187.74
  Q 59.72 186.91 58.59 186.74
  Q 58.13 186.67 57.75 186.40
  C 51.60 182.07 48.66 176.45 40.77 175.64
  Q 37.75 175.33 34.71 175.15
  C 30.23 174.88 25.68 176.72 21.01 177.10
  C 19.06 177.25 17.45 178.12 15.26 178.06
  A 1.18 1.18 0.0 0 0 14.36 178.45
  Q 7.52 186.05 5.20 196.09
  A 0.82 0.81 5.5 0 1 4.43 196.72
  L 3.29 196.75
  C 10.85 158.13 58.19 145.97 82.54 177.50
  Z"
/>
<path fill="#f0aa93" d="
  M 172.93 291.83
  L 167.43 281.80
  Q 168.80 281.47 169.17 282.05
  Q 173.43 288.83 180.73 289.38
  C 195.47 290.50 210.04 265.99 222.70 259.88
  C 236.66 253.15 246.00 261.46 253.48 272.53
  Q 263.11 286.78 266.96 291.77
  C 280.44 309.30 307.24 315.16 324.61 299.86
  C 336.65 289.25 342.21 274.00 339.04 258.31
  C 336.81 247.29 330.97 238.39 323.65 229.60
  Q 309.67 212.79 295.22 199.12
  C 290.49 194.27 270.32 172.44 265.30 186.71
  C 263.82 190.89 266.98 196.55 269.53 199.84
  A 0.24 0.24 0.0 0 1 269.27 200.21
  Q 249.16 194.12 228.21 196.78
  A 0.44 0.44 0.0 0 1 227.85 196.02
  C 231.12 192.91 236.06 187.55 236.29 182.83
  C 237.18 165.14 199.07 192.67 195.46 195.38
  C 182.71 204.72 166.06 222.39 162.18 238.03
  Q 161.70 239.94 160.43 241.39
  L 160.56 235.41
  Q 164.37 223.26 170.83 213.31
  Q 187.60 187.50 216.72 172.98
  Q 224.76 168.97 232.65 169.15
  C 243.85 169.40 247.21 178.24 244.43 188.00
  A 0.69 0.69 0.0 0 0 245.04 188.88
  L 257.01 189.72
  Q 257.47 189.75 257.47 189.29
  C 257.51 186.29 257.44 182.64 258.92 180.03
  C 265.71 168.02 278.09 173.29 286.52 180.75
  Q 310.67 202.12 332.06 227.94
  Q 337.21 234.16 340.90 240.94
  C 349.79 257.27 349.67 280.69 338.80 296.01
  C 330.36 307.90 316.05 315.43 301.29 315.90
  C 269.85 316.91 257.40 292.10 242.50 269.52
  Q 241.77 268.42 238.35 265.99
  C 232.19 261.61 227.22 263.09 222.12 268.09
  C 215.13 274.93 208.40 282.13 200.94 288.42
  Q 194.07 294.21 189.53 295.38
  Q 181.30 297.49 172.93 291.83
  Z"
/>
<path fill="#ed6c3c" d="
  M 82.54 177.50
  C 93.35 192.99 94.87 210.27 88.04 227.95
  Q 83.57 229.88 79.09 231.87
  C 74.77 233.79 72.54 236.82 66.98 237.23
  C 64.75 237.39 62.80 238.33 60.72 238.50
  Q 48.50 239.51 42.76 238.97
  Q 32.35 238.00 20.74 232.27
  C 16.71 230.28 13.41 227.17 10.00 224.19
  Q 9.63 223.87 9.53 223.39
  Q 9.28 222.16 8.07 221.69
  A 1.56 1.51 85.6 0 1 7.29 221.00
  Q 5.75 218.12 2.54 217.25
  Q 1.00 206.92 3.29 196.75
  L 4.43 196.72
  A 0.82 0.81 5.5 0 0 5.20 196.09
  Q 7.52 186.05 14.36 178.45
  A 1.18 1.18 0.0 0 1 15.26 178.06
  C 17.45 178.12 19.06 177.25 21.01 177.10
  C 25.68 176.72 30.23 174.88 34.71 175.15
  Q 37.75 175.33 40.77 175.64
  C 48.66 176.45 51.60 182.07 57.75 186.40
  Q 58.13 186.67 58.59 186.74
  Q 59.72 186.91 60.50 187.74
  Q 60.82 188.09 61.27 188.25
  C 64.04 189.28 66.60 190.73 69.54 190.35
  C 76.20 189.49 80.38 183.54 82.54 177.50
  Z"
/>
<path fill="#ee8355" d="
  M 295.22 199.12
  Q 291.93 202.59 287.84 204.36
  C 285.05 205.56 283.14 207.27 280.52 208.59
  C 277.42 210.15 274.92 212.70 270.77 212.94
  Q 270.28 212.96 269.85 213.19
  L 268.81 213.73
  A 0.71 0.70 57.1 0 1 267.94 213.54
  C 265.81 210.88 257.75 215.74 254.72 216.34
  Q 240.56 219.15 226.12 218.82
  C 222.08 218.73 218.13 217.42 214.17 216.42
  C 211.83 215.84 210.08 214.20 207.83 213.19
  Q 207.40 212.99 206.94 213.03
  Q 205.66 213.11 204.93 211.99
  Q 204.62 211.51 204.04 211.59
  Q 201.42 211.96 199.41 210.35
  A 1.51 1.48 14.0 0 1 198.90 209.52
  C 198.45 207.38 196.60 206.71 195.74 205.27
  Q 194.21 202.71 193.45 199.77
  Q 193.32 199.28 193.69 198.92
  L 196.13 196.56
  Q 196.58 196.12 196.06 195.78
  L 195.46 195.38
  C 199.07 192.67 237.18 165.14 236.29 182.83
  C 236.06 187.55 231.12 192.91 227.85 196.02
  A 0.44 0.44 0.0 0 0 228.21 196.78
  Q 249.16 194.12 269.27 200.21
  A 0.24 0.24 0.0 0 0 269.53 199.84
  C 266.98 196.55 263.82 190.89 265.30 186.71
  C 270.32 172.44 290.49 194.27 295.22 199.12
  Z"
/>
<path fill="#c2ab9c" d="
  M 442.50 192.01
  L 446.21 208.50
  L 443.72 209.60
  Q 443.30 209.79 443.20 210.24
  C 438.52 232.25 421.65 251.28 402.81 262.47
  C 395.10 267.06 389.22 269.31 382.35 272.78
  L 380.55 269.16
  Q 395.32 262.52 399.96 259.71
  Q 412.60 252.03 422.33 240.86
  Q 440.15 220.42 442.50 192.01
  Z"
/>
<path fill="#ed6c3c" d="
  M 195.46 195.38
  L 196.06 195.78
  Q 196.58 196.12 196.13 196.56
  L 193.69 198.92
  Q 193.32 199.28 193.45 199.77
  Q 194.21 202.71 195.74 205.27
  C 196.60 206.71 198.45 207.38 198.90 209.52
  A 1.51 1.48 14.0 0 0 199.41 210.35
  Q 201.42 211.96 204.04 211.59
  Q 204.62 211.51 204.93 211.99
  Q 205.66 213.11 206.94 213.03
  Q 207.40 212.99 207.83 213.19
  C 210.08 214.20 211.83 215.84 214.17 216.42
  C 218.13 217.42 222.08 218.73 226.12 218.82
  Q 240.56 219.15 254.72 216.34
  C 257.75 215.74 265.81 210.88 267.94 213.54
  A 0.71 0.70 57.1 0 0 268.81 213.73
  L 269.85 213.19
  Q 270.28 212.96 270.77 212.94
  C 274.92 212.70 277.42 210.15 280.52 208.59
  C 283.14 207.27 285.05 205.56 287.84 204.36
  Q 291.93 202.59 295.22 199.12
  Q 309.67 212.79 323.65 229.60
  C 330.97 238.39 336.81 247.29 339.04 258.31
  C 342.21 274.00 336.65 289.25 324.61 299.86
  C 307.24 315.16 280.44 309.30 266.96 291.77
  Q 263.11 286.78 253.48 272.53
  C 246.00 261.46 236.66 253.15 222.70 259.88
  C 210.04 265.99 195.47 290.50 180.73 289.38
  Q 173.43 288.83 169.17 282.05
  Q 168.80 281.47 167.43 281.80
  Q 160.57 265.54 159.75 246.75
  Q 159.60 243.40 160.43 241.39
  Q 161.70 239.94 162.18 238.03
  C 166.06 222.39 182.71 204.72 195.46 195.38
  Z
  M 210.26 220.04
  C 208.28 216.38 202.37 213.92 198.77 213.80
  C 178.21 213.14 161.20 253.79 178.36 265.84
  C 184.60 270.23 193.08 268.30 198.45 263.43
  C 209.37 253.52 218.07 234.51 210.26 220.04
  Z
  M 283.13 283.21
  C 292.26 291.37 306.33 288.83 313.33 279.35
  C 323.43 265.67 326.47 240.31 308.14 231.80
  C 293.01 224.79 279.74 238.27 276.31 251.76
  C 273.41 263.17 274.28 275.31 283.13 283.21
  Z"
/>
<g stroke-width="2.00" fill="none" stroke-linecap="butt">
<path stroke="#7a3a22" vector-effect="non-scaling-stroke" d="
  M 210.26 220.04
  C 208.28 216.38 202.37 213.92 198.77 213.80
  C 178.21 213.14 161.20 253.79 178.36 265.84
  C 184.60 270.23 193.08 268.30 198.45 263.43
  C 209.37 253.52 218.07 234.51 210.26 220.04"
/>
<path stroke="#7a3a22" vector-effect="non-scaling-stroke" d="
  M 283.13 283.21
  C 292.26 291.37 306.33 288.83 313.33 279.35
  C 323.43 265.67 326.47 240.31 308.14 231.80
  C 293.01 224.79 279.74 238.27 276.31 251.76
  C 273.41 263.17 274.28 275.31 283.13 283.21"
/>
</g>
<path fill="#b39b8a" d="
  M 446.21 208.50
  Q 448.71 223.96 446.79 239.50
  Q 447.53 236.25 444.78 235.26
  A 0.78 0.78 0.0 0 0 443.93 235.48
  C 440.06 239.91 439.95 251.29 440.22 257.06
  C 440.37 260.43 438.84 262.77 437.18 265.44
  Q 436.92 265.85 436.98 266.34
  Q 437.17 267.95 435.69 269.19
  Q 430.18 273.82 425.24 280.47
  C 423.92 282.25 422.84 284.95 420.90 287.16
  Q 416.61 292.03 412.67 295.17
  A 1.27 1.24 29.5 0 1 411.71 295.42
  Q 408.03 294.85 406.95 295.16
  Q 401.70 296.65 396.52 301.34
  Q 394.45 303.21 392.26 304.14
  C 386.11 306.74 380.06 310.19 373.54 311.67
  Q 369.53 312.58 365.79 314.35
  Q 365.32 314.58 365.02 314.15
  Q 364.34 313.17 363.29 313.00
  C 373.80 302.96 384.05 287.26 382.35 272.78
  C 389.22 269.31 395.10 267.06 402.81 262.47
  C 421.65 251.28 438.52 232.25 443.20 210.24
  Q 443.30 209.79 443.72 209.60
  L 446.21 208.50
  Z"
/>
<path fill="#070707" fill-opacity="0.996" d="
  M 198.77 213.80
  C 202.37 213.92 208.28 216.38 210.26 220.04
  C 218.07 234.51 209.37 253.52 198.45 263.43
  C 193.08 268.30 184.60 270.23 178.36 265.84
  C 161.20 253.79 178.21 213.14 198.77 213.80
  Z
  M 183.84 223.22
  Q 181.18 225.31 179.33 228.77
  C 174.60 236.54 171.94 246.49 173.96 255.68
  C 176.85 267.59 188.52 269.52 197.14 262.36
  C 206.34 253.89 212.74 241.01 211.21 228.30
  C 209.24 211.98 192.31 213.24 183.84 223.22
  Z"
/>
<g stroke-width="2.00" fill="none" stroke-linecap="butt">
<path stroke="#5e6e72" vector-effect="non-scaling-stroke" d="
  M 183.84 223.22
  Q 181.18 225.31 179.33 228.77"
/>
<path stroke="#3f6269" vector-effect="non-scaling-stroke" d="
  M 179.33 228.77
  C 174.60 236.54 171.94 246.49 173.96 255.68"
/>
<path stroke="#5e6e72" vector-effect="non-scaling-stroke" d="
  M 173.96 255.68
  C 176.85 267.59 188.52 269.52 197.14 262.36"
/>
<path stroke="#3f6269" vector-effect="non-scaling-stroke" d="
  M 197.14 262.36
  C 206.34 253.89 212.74 241.01 211.21 228.30
  C 209.24 211.98 192.31 213.24 183.84 223.22"
/>
<path stroke="#95c8d4" vector-effect="non-scaling-stroke" d="
  M 197.14 262.36
  Q 197.32 260.74 196.68 259.76
  Q 196.16 258.96 196.15 258.95
  Q 195.62 257.05 193.56 256.76
  Q 193.08 256.69 192.72 256.36
  Q 190.94 254.65 188.52 254.32
  Q 188.05 254.25 187.71 253.91
  Q 184.08 250.22 180.94 254.48
  A 1.31 1.27 15.8 0 1 179.99 254.99
  Q 178.25 255.10 176.84 256.08
  Q 176.42 256.37 176.09 255.98
  Q 175.28 255.07 173.96 255.68"
/>
<path stroke="#95c8d4" vector-effect="non-scaling-stroke" d="
  M 179.33 228.77
  Q 183.46 227.44 183.84 223.22"
/>
</g>
<path fill="#76bccb" d="
  M 197.14 262.36
  Q 197.32 260.74 196.68 259.76
  Q 196.16 258.96 196.15 258.95
  Q 195.62 257.05 193.56 256.76
  Q 193.08 256.69 192.72 256.36
  Q 190.94 254.65 188.52 254.32
  Q 188.05 254.25 187.71 253.91
  Q 184.08 250.22 180.94 254.48
  A 1.31 1.27 15.8 0 1 179.99 254.99
  Q 178.25 255.10 176.84 256.08
  Q 176.42 256.37 176.09 255.98
  Q 175.28 255.07 173.96 255.68
  C 171.94 246.49 174.60 236.54 179.33 228.77
  Q 183.46 227.44 183.84 223.22
  C 192.31 213.24 209.24 211.98 211.21 228.30
  C 212.74 241.01 206.34 253.89 197.14 262.36
  Z
  M 202.53 245.19
  C 212.03 242.13 209.31 232.56 201.34 230.41
  C 195.29 228.77 184.73 228.37 180.06 233.31
  C 177.06 236.50 176.05 242.53 180.37 244.84
  C 183.79 246.68 192.01 245.30 196.37 245.54
  Q 200.71 245.78 202.53 245.19
  Z"
/>
<path stroke="#3f6269" stroke-width="2.00" fill="none" stroke-linecap="butt" vector-effect="non-scaling-stroke" d="
  M 202.53 245.19
  C 212.03 242.13 209.31 232.56 201.34 230.41
  C 195.29 228.77 184.73 228.37 180.06 233.31
  C 177.06 236.50 176.05 242.53 180.37 244.84
  C 183.79 246.68 192.01 245.30 196.37 245.54
  Q 200.71 245.78 202.53 245.19"
/>
<path fill="#c75636" d="
  M 2.54 217.25
  Q 5.75 218.12 7.29 221.00
  A 1.56 1.51 85.6 0 0 8.07 221.69
  Q 9.28 222.16 9.53 223.39
  Q 9.63 223.87 10.00 224.19
  C 13.41 227.17 16.71 230.28 20.74 232.27
  Q 32.35 238.00 42.76 238.97
  Q 48.50 239.51 60.72 238.50
  C 62.80 238.33 64.75 237.39 66.98 237.23
  C 72.54 236.82 74.77 233.79 79.09 231.87
  Q 83.57 229.88 88.04 227.95
  C 79.47 244.86 67.04 258.52 46.68 259.17
  C 36.27 259.51 27.85 255.60 19.25 248.99
  C 9.28 241.32 3.87 229.53 2.54 217.25
  Z"
/>
<path fill="#b4d4dc" d="
  M 183.84 223.22
  Q 183.46 227.44 179.33 228.77
  Q 181.18 225.31 183.84 223.22
  Z"
/>
<path fill="#070707" fill-opacity="0.996" d="
  M 201.34 230.41
  C 209.31 232.56 212.03 242.13 202.53 245.19
  Q 200.71 245.78 196.37 245.54
  C 192.01 245.30 183.79 246.68 180.37 244.84
  C 176.05 242.53 177.06 236.50 180.06 233.31
  C 184.73 228.37 195.29 228.77 201.34 230.41
  Z"
/>
<path stroke="#3a3755" stroke-width="2.00" fill="none" stroke-linecap="butt" vector-effect="non-scaling-stroke" d="
  M 178.97 239.41
  C 182.47 240.02 184.85 243.29 188.33 240.69
  Q 188.74 240.39 188.74 239.88
  Q 188.72 238.80 189.60 238.18
  Q 190.00 237.89 190.12 237.41
  L 191.52 231.67"
/>
<path fill="#070707" fill-opacity="0.996" d="
  M 283.13 283.21
  C 274.28 275.31 273.41 263.17 276.31 251.76
  C 279.74 238.27 293.01 224.79 308.14 231.80
  C 326.47 240.31 323.43 265.67 313.33 279.35
  C 306.33 288.83 292.26 291.37 283.13 283.21
  Z
  M 291.68 233.10
  Q 280.57 239.92 277.47 254.24
  C 274.85 266.30 277.64 280.09 289.77 285.40
  C 298.02 289.01 307.77 284.50 312.54 277.50
  C 320.91 265.95 323.00 248.35 313.38 237.51
  Q 305.82 228.99 291.68 233.10
  Z"
/>
<g stroke-width="2.00" fill="none" stroke-linecap="butt">
<path stroke="#5e6e72" vector-effect="non-scaling-stroke" d="
  M 291.68 233.10
  Q 280.57 239.92 277.47 254.24
  C 274.85 266.30 277.64 280.09 289.77 285.40
  C 298.02 289.01 307.77 284.50 312.54 277.50"
/>
<path stroke="#3f6269" vector-effect="non-scaling-stroke" d="
  M 312.54 277.50
  C 320.91 265.95 323.00 248.35 313.38 237.51
  Q 305.82 228.99 291.68 233.10"
/>
<path stroke="#95c8d4" vector-effect="non-scaling-stroke" d="
  M 312.54 277.50
  C 310.42 273.21 305.25 275.49 301.26 273.73
  C 297.85 272.22 296.05 271.78 292.81 271.70
  C 289.40 271.62 286.70 274.42 283.98 275.19
  C 276.82 277.20 278.41 257.41 279.45 253.70
  A 0.89 0.89 0.0 0 1 280.00 253.10
  Q 281.13 252.67 282.21 253.01"
/>
<path stroke="#3f6269" vector-effect="non-scaling-stroke" d="
  M 282.21 253.01
  Q 282.94 258.50 288.42 260.13
  Q 296.14 262.43 303.61 265.34
  C 309.37 267.58 316.78 266.09 315.78 258.23
  C 314.76 250.24 301.79 245.99 295.13 244.25
  C 290.47 243.03 287.06 243.81 283.80 247.10"
/>
<path stroke="#95c8d4" vector-effect="non-scaling-stroke" d="
  M 283.80 247.10
  Q 281.74 246.23 282.54 244.54
  Q 285.71 237.84 291.93 234.66
  Q 292.42 234.41 292.26 233.89
  Q 292.15 233.52 291.68 233.10"
/>
<path stroke="#5e6e72" vector-effect="non-scaling-stroke" d="
  M 283.80 247.10
  Q 282.03 249.70 282.21 253.01"
/>
</g>
<path fill="#33334a" d="
  M 178.97 239.41
  C 182.47 240.02 184.85 243.29 188.33 240.69
  Q 188.74 240.39 188.74 239.88
  Q 188.72 238.80 189.60 238.18
  Q 190.00 237.89 190.12 237.41
  L 191.52 231.67
  Q 197.48 230.42 202.48 232.50
  C 209.54 235.44 206.70 244.36 199.36 243.95
  Q 191.79 243.53 184.22 243.87
  C 180.77 244.03 179.42 242.69 178.97 239.41
  Z"
/>
<path fill="#413b60" d="
  M 191.52 231.67
  L 190.12 237.41
  Q 190.00 237.89 189.60 238.18
  Q 188.72 238.80 188.74 239.88
  Q 188.74 240.39 188.33 240.69
  C 184.85 243.29 182.47 240.02 178.97 239.41
  Q 181.34 230.87 191.52 231.67
  Z"
/>
<path fill="#76bccb" d="
  M 312.54 277.50
  C 310.42 273.21 305.25 275.49 301.26 273.73
  C 297.85 272.22 296.05 271.78 292.81 271.70
  C 289.40 271.62 286.70 274.42 283.98 275.19
  C 276.82 277.20 278.41 257.41 279.45 253.70
  A 0.89 0.89 0.0 0 1 280.00 253.10
  Q 281.13 252.67 282.21 253.01
  Q 282.94 258.50 288.42 260.13
  Q 296.14 262.43 303.61 265.34
  C 309.37 267.58 316.78 266.09 315.78 258.23
  C 314.76 250.24 301.79 245.99 295.13 244.25
  C 290.47 243.03 287.06 243.81 283.80 247.10
  Q 281.74 246.23 282.54 244.54
  Q 285.71 237.84 291.93 234.66
  Q 292.42 234.41 292.26 233.89
  Q 292.15 233.52 291.68 233.10
  Q 305.82 228.99 313.38 237.51
  C 323.00 248.35 320.91 265.95 312.54 277.50
  Z"
/>
<path fill="#b4d4dc" d="
  M 291.68 233.10
  Q 292.15 233.52 292.26 233.89
  Q 292.42 234.41 291.93 234.66
  Q 285.71 237.84 282.54 244.54
  Q 281.74 246.23 283.80 247.10
  Q 282.03 249.70 282.21 253.01
  Q 281.13 252.67 280.00 253.10
  A 0.89 0.89 0.0 0 0 279.45 253.70
  C 278.41 257.41 276.82 277.20 283.98 275.19
  C 286.70 274.42 289.40 271.62 292.81 271.70
  C 296.05 271.78 297.85 272.22 301.26 273.73
  C 305.25 275.49 310.42 273.21 312.54 277.50
  C 307.77 284.50 298.02 289.01 289.77 285.40
  C 277.64 280.09 274.85 266.30 277.47 254.24
  Q 280.57 239.92 291.68 233.10
  Z"
/>
<path fill="#c2ab9c" d="
  M 446.79 239.50
  C 443.36 278.96 418.23 309.97 382.75 323.58
  C 370.42 328.30 356.22 329.94 342.81 330.67
  A 0.37 0.36 -63.4 0 1 342.59 330.00
  Q 353.80 322.45 363.29 313.00
  Q 364.34 313.17 365.02 314.15
  Q 365.32 314.58 365.79 314.35
  Q 369.53 312.58 373.54 311.67
  C 380.06 310.19 386.11 306.74 392.26 304.14
  Q 394.45 303.21 396.52 301.34
  Q 401.70 296.65 406.95 295.16
  Q 408.03 294.85 411.71 295.42
  A 1.27 1.24 29.5 0 0 412.67 295.17
  Q 416.61 292.03 420.90 287.16
  C 422.84 284.95 423.92 282.25 425.24 280.47
  Q 430.18 273.82 435.69 269.19
  Q 437.17 267.95 436.98 266.34
  Q 436.92 265.85 437.18 265.44
  C 438.84 262.77 440.37 260.43 440.22 257.06
  C 439.95 251.29 440.06 239.91 443.93 235.48
  A 0.78 0.78 0.0 0 1 444.78 235.26
  Q 447.53 236.25 446.79 239.50
  Z"
/>
<path fill="#33334a" d="
  M 81.67 242.20
  Q 81.71 242.94 82.04 243.26
  Q 82.34 243.54 82.20 243.93
  Q 79.13 252.35 74.12 259.45
  C 68.17 264.24 62.79 268.46 57.75 274.21
  L 50.90 282.77
  Q 41.50 273.94 34.29 263.16
  Q 32.92 261.10 31.29 259.34
  A 0.45 0.44 78.7 0 1 31.77 258.62
  C 50.29 265.52 69.89 257.19 81.67 242.20
  Z"
/>
<path fill="#65484d" d="
  M 133.95 242.34
  L 135.71 249.75
  L 131.25 250.04
  C 127.98 248.21 125.86 243.61 123.51 243.18
  L 125.50 242.79
  L 133.95 242.34
  Z"
/>
<path fill="#996167" d="
  M 123.51 243.18
  C 125.86 243.61 127.98 248.21 131.25 250.04
  Q 130.63 250.73 130.42 250.65
  Q 128.57 250.42 124.26 251.05
  C 102.46 254.24 82.48 261.33 67.01 276.45
  L 64.83 279.16
  Q 65.17 278.76 64.61 279.25
  L 59.60 274.59
  Q 59.44 274.44 59.28 274.60
  L 59.05 274.83
  Q 58.78 275.09 58.47 274.90
  Q 58.03 274.63 57.75 274.21
  C 62.79 268.46 68.17 264.24 74.12 259.45
  Q 75.15 259.03 77.68 257.18
  C 89.39 248.63 109.30 244.23 123.51 243.18
  Z"
/>
<path fill="#070707" fill-opacity="0.996" d="
  M 282.21 253.01
  Q 282.03 249.70 283.80 247.10
  C 287.06 243.81 290.47 243.03 295.13 244.25
  C 301.79 245.99 314.76 250.24 315.78 258.23
  C 316.78 266.09 309.37 267.58 303.61 265.34
  Q 296.14 262.43 288.42 260.13
  Q 282.94 258.50 282.21 253.01
  Z"
/>
<g stroke-width="2.00" fill="none" stroke-linecap="butt">
<path stroke="#504669" vector-effect="non-scaling-stroke" d="
  M 296.75 246.44
  L 295.21 252.43
  A 3.05 3.04 8.8 0 1 292.09 254.71
  L 283.93 254.24"
/>
<path stroke="#3a3755" vector-effect="non-scaling-stroke" d="
  M 306.79 250.75
  C 303.77 253.67 299.72 252.98 296.53 255.26
  Q 293.87 257.14 291.61 259.45"
/>
</g>
<path fill="#5f5071" d="
  M 296.75 246.44
  L 295.21 252.43
  A 3.05 3.04 8.8 0 1 292.09 254.71
  L 283.93 254.24
  C 282.51 245.98 290.36 243.72 296.75 246.44
  Z"
/>
<path fill="#413b60" d="
  M 296.75 246.44
  L 306.79 250.75
  C 303.77 253.67 299.72 252.98 296.53 255.26
  Q 293.87 257.14 291.61 259.45
  Q 286.20 258.83 283.93 254.24
  L 292.09 254.71
  A 3.05 3.04 8.8 0 0 295.21 252.43
  L 296.75 246.44
  Z"
/>
<path fill="#c2ab9c" d="
  M 135.71 249.75
  L 138.98 259.85
  Q 133.92 256.16 130.42 250.65
  Q 130.63 250.73 131.25 250.04
  L 135.71 249.75
  Z"
/>
<path fill="#eae0d4" d="
  M 130.42 250.65
  Q 133.92 256.16 138.98 259.85
  Q 146.70 279.61 162.59 297.39
  C 167.30 302.66 170.91 306.61 176.43 309.60
  Q 178.58 310.77 180.64 312.01
  Q 184.47 321.11 186.02 330.37
  A 0.93 0.91 -23.8 0 1 185.67 331.25
  Q 182.91 333.41 179.25 333.00
  Q 149.95 329.68 124.07 315.69
  Q 121.66 314.39 119.64 312.54
  C 121.30 299.39 114.22 284.63 103.40 277.52
  C 92.29 270.23 79.94 270.85 72.00 282.54
  Q 71.73 282.59 71.53 282.51
  Q 70.93 282.26 71.26 281.70
  L 71.45 281.38
  Q 71.58 281.17 71.41 280.99
  L 67.01 276.45
  C 82.48 261.33 102.46 254.24 124.26 251.05
  Q 128.57 250.42 130.42 250.65
  Z"
/>
<path fill="#33334a" d="
  M 306.79 250.75
  C 317.40 254.40 316.29 268.50 304.19 264.02
  Q 298.01 261.73 291.61 259.45
  Q 293.87 257.14 296.53 255.26
  C 299.72 252.98 303.77 253.67 306.79 250.75
  Z"
/>
<path fill="#b4d4dc" d="
  M 197.14 262.36
  C 188.52 269.52 176.85 267.59 173.96 255.68
  Q 175.28 255.07 176.09 255.98
  Q 176.42 256.37 176.84 256.08
  Q 178.25 255.10 179.99 254.99
  A 1.31 1.27 15.8 0 0 180.94 254.48
  Q 184.08 250.22 187.71 253.91
  Q 188.05 254.25 188.52 254.32
  Q 190.94 254.65 192.72 256.36
  Q 193.08 256.69 193.56 256.76
  Q 195.62 257.05 196.15 258.95
  Q 196.16 258.96 196.68 259.76
  Q 197.32 260.74 197.14 262.36
  Z"
/>
<path fill="#ed6c3c" d="
  M 376.25 268.04
  Q 373.59 272.70 372.50 278.08
  A 0.72 0.72 0.0 0 0 372.87 278.86
  C 375.47 280.28 376.45 282.12 375.58 285.17
  C 374.26 289.81 372.68 294.98 367.66 295.88
  Q 367.21 295.96 367.04 295.55
  Q 366.71 294.79 367.45 294.31
  C 369.81 292.55 377.15 281.95 371.52 280.03
  Q 371.03 279.86 370.62 280.20
  Q 364.36 285.46 364.72 293.19
  Q 359.03 296.68 353.98 301.78
  Q 351.59 284.52 362.85 272.04
  C 366.66 267.82 370.89 266.08 376.25 268.04
  Z"
/>
<path fill="#c75636" d="
  M 376.25 268.04
  C 380.56 271.20 380.68 275.39 380.01 280.38
  C 379.01 287.77 370.03 309.77 359.31 306.07
  Q 356.33 305.04 353.98 301.78
  Q 359.03 296.68 364.72 293.19
  Q 365.65 294.63 367.45 294.31
  Q 366.71 294.79 367.04 295.55
  Q 367.21 295.96 367.66 295.88
  C 372.68 294.98 374.26 289.81 375.58 285.17
  C 376.45 282.12 375.47 280.28 372.87 278.86
  A 0.72 0.72 0.0 0 1 372.50 278.08
  Q 373.59 272.70 376.25 268.04
  Z"
/>
<path fill="#65484d" d="
  M 57.75 274.21
  Q 58.03 274.63 58.47 274.90
  Q 58.78 275.09 59.05 274.83
  L 59.28 274.60
  Q 59.44 274.44 59.60 274.59
  L 64.61 279.25
  Q 60.32 284.07 57.46 289.75
  L 50.90 282.77
  L 57.75 274.21
  Z"
/>
<path fill="#ed6c3c" d="
  M 117.54 304.00
  L 117.08 312.85
  Q 117.05 313.34 116.58 313.47
  Q 115.78 313.69 115.74 313.20
  Q 115.71 312.76 115.32 312.56
  L 110.03 309.82
  A 1.19 1.18 -35.0 0 0 109.33 309.70
  Q 107.11 310.01 105.14 309.05
  Q 104.62 308.79 104.03 308.77
  Q 102.51 308.74 101.30 307.80
  Q 100.92 307.51 100.46 307.36
  Q 94.09 305.18 88.50 301.45
  C 86.93 300.41 85.34 298.62 83.71 297.34
  C 80.67 294.94 79.04 291.76 76.64 288.85
  Q 75.21 287.12 72.21 286.57
  C 77.32 274.24 89.12 271.79 100.20 277.79
  C 109.72 282.95 116.16 293.33 117.54 304.00
  Z"
/>
<path fill="#c2ab9c" d="
  M 67.01 276.45
  L 71.41 280.99
  Q 71.58 281.17 71.45 281.38
  L 71.26 281.70
  Q 70.93 282.26 71.53 282.51
  Q 71.73 282.59 72.00 282.54
  Q 71.73 283.81 70.80 285.13
  L 64.83 279.16
  L 67.01 276.45
  Z"
/>
<path fill="#b39b8a" d="
  M 64.83 279.16
  L 70.80 285.13
  Q 68.65 292.94 70.95 301.25
  Q 71.12 301.84 70.61 301.50
  Q 63.24 296.48 57.46 289.75
  Q 60.32 284.07 64.61 279.25
  Q 65.17 278.76 64.83 279.16
  Z"
/>
<path fill="#070707" fill-opacity="0.996" d="
  M 367.45 294.31
  Q 365.65 294.63 364.72 293.19
  Q 364.36 285.46 370.62 280.20
  Q 371.03 279.86 371.52 280.03
  C 377.15 281.95 369.81 292.55 367.45 294.31
  Z"
/>
<path fill="#65484d" d="
  M 366.5765 292.5803
  A 5.68 1.57 114.7 0 1 367.5236 286.7639
  A 5.68 1.57 114.7 0 1 371.3235 282.2597
  A 5.68 1.57 114.7 0 1 370.3764 288.0761
  A 5.68 1.57 114.7 0 1 366.5765 292.5803
  Z"
/>
<path fill="#c75636" d="
  M 72.21 286.57
  Q 75.21 287.12 76.64 288.85
  C 79.04 291.76 80.67 294.94 83.71 297.34
  C 85.34 298.62 86.93 300.41 88.50 301.45
  Q 94.09 305.18 100.46 307.36
  Q 100.92 307.51 101.30 307.80
  Q 102.51 308.74 104.03 308.77
  Q 104.62 308.79 105.14 309.05
  Q 107.11 310.01 109.33 309.70
  A 1.19 1.18 -35.0 0 1 110.03 309.82
  L 115.32 312.56
  Q 115.71 312.76 115.74 313.20
  Q 115.78 313.69 116.58 313.47
  Q 117.05 313.34 117.08 312.85
  L 117.54 304.00
  Q 119.58 312.89 114.73 318.70
  Q 109.28 323.41 105.01 323.69
  Q 97.36 324.18 95.03 323.27
  Q 78.36 316.81 73.99 299.58
  Q 73.87 299.12 73.52 298.81
  Q 72.89 298.26 72.29 299.00
  Q 71.00 292.63 72.21 286.57
  Z"
/>
<path fill="#33334a" d="
  M 439.50 293.71
  L 439.05 293.74
  Q 438.57 293.78 438.71 294.25
  L 438.92 294.90
  Q 439.07 295.37 439.55 295.45
  C 466.55 300.28 488.81 316.64 495.45 344.22
  C 498.28 355.97 492.21 366.67 485.76 376.53
  C 480.32 384.85 476.36 389.96 468.44 394.68
  Q 467.08 395.49 467.25 397.29
  C 447.39 406.46 421.47 407.57 399.75 405.46
  Q 402.33 398.98 402.54 392.00
  Q 404.49 391.75 406.44 392.03
  Q 413.25 393.01 419.64 391.05
  C 423.82 389.76 426.10 391.19 426.97 385.23
  C 429.69 366.67 411.09 352.74 396.74 346.43
  Q 390.86 343.84 384.86 341.10
  L 389.85 337.85
  A 0.33 0.33 0.0 0 0 389.52 337.27
  Q 378.69 342.56 366.85 344.80
  Q 366.28 344.90 366.33 344.33
  Q 366.98 336.44 370.68 329.45
  Q 370.90 329.04 371.36 328.91
  Q 385.31 325.06 390.18 322.67
  Q 411.98 311.99 427.49 293.37
  Q 427.80 292.99 428.29 292.95
  Q 434.02 292.49 439.50 293.71
  Z"
/>
<path fill="#413b60" d="
  M 439.50 293.71
  Q 464.01 297.14 481.53 314.48
  Q 484.48 317.39 490.42 326.78
  C 507.40 353.61 494.14 384.40 467.25 397.29
  Q 467.08 395.49 468.44 394.68
  C 476.36 389.96 480.32 384.85 485.76 376.53
  C 492.21 366.67 498.28 355.97 495.45 344.22
  C 488.81 316.64 466.55 300.28 439.55 295.45
  Q 439.07 295.37 438.92 294.90
  L 438.71 294.25
  Q 438.57 293.78 439.05 293.74
  L 439.50 293.71
  Z"
/>
<path fill="#ed6c3c" d="
  M 114.73 318.70
  Q 111.98 324.30 107.04 325.33
  C 89.92 328.93 76.00 314.49 72.29 299.00
  Q 72.89 298.26 73.52 298.81
  Q 73.87 299.12 73.99 299.58
  Q 78.36 316.81 95.03 323.27
  Q 97.36 324.18 105.01 323.69
  Q 109.28 323.41 114.73 318.70
  Z"
/>
<path fill="#c2ab9c" d="
  M 352.59 301.55
  L 354.35 304.67
  C 352.64 305.74 351.67 307.23 349.94 308.08
  C 344.68 310.65 340.53 313.82 334.50 315.25
  C 328.74 316.61 324.48 321.13 317.40 321.66
  Q 316.96 321.69 316.64 321.99
  C 314.38 324.05 306.30 325.67 303.14 326.37
  C 298.97 327.29 294.38 329.15 288.98 328.64
  Q 288.92 328.63 288.01 329.00
  Q 287.18 329.33 287.24 330.19
  Q 287.31 331.04 286.47 331.09
  L 281.31 331.44
  Q 281.25 331.44 281.25 331.51
  Q 281.25 331.66 281.25 331.81
  A 0.28 0.28 0.0 0 1 280.99 332.10
  L 273.29 332.68
  Q 272.79 332.71 272.42 332.38
  Q 270.41 330.57 267.70 331.22
  C 264.49 331.99 257.86 330.94 256.03 333.46
  A 0.29 0.29 0.0 0 1 255.50 333.28
  Q 255.50 333.16 255.50 333.02
  Q 255.49 332.56 255.03 332.48
  Q 252.74 332.12 250.39 332.26
  Q 250.21 332.27 250.11 332.35
  Q 249.97 332.47 249.95 332.66
  Q 249.92 332.99 249.60 332.92
  Q 242.18 331.27 234.61 330.83
  C 223.10 330.15 213.54 324.42 202.37 322.65
  Q 201.82 322.56 201.36 322.25
  L 198.32 320.20
  Q 197.93 319.94 197.47 319.93
  C 194.53 319.83 193.01 317.96 190.74 317.27
  Q 188.55 316.60 185.94 315.77
  L 182.73 309.54
  Q 184.25 310.56 186.10 310.48
  Q 186.59 310.45 186.93 310.80
  C 189.62 313.58 192.42 313.05 195.38 314.29
  Q 200.78 316.55 206.55 317.60
  Q 207.04 317.69 207.39 318.05
  Q 207.83 318.50 208.49 318.57
  C 213.33 319.04 217.65 320.89 222.32 321.40
  C 224.25 321.61 226.18 322.25 227.83 322.52
  Q 246.56 325.56 265.52 326.26
  Q 271.22 326.48 278.32 325.81
  C 286.96 325.00 295.96 324.82 304.34 322.44
  Q 329.82 315.20 352.59 301.55
  Z"
/>
<path fill="#b39b8a" d="
  M 354.35 304.67
  Q 359.18 310.17 365.81 306.95
  A 0.28 0.28 0.0 0 1 366.15 307.39
  C 359.16 315.12 351.34 321.64 339.88 330.21
  C 336.24 332.94 332.79 336.30 329.13 339.24
  Q 328.75 339.54 328.31 339.35
  L 326.27 338.43
  Q 325.19 337.21 323.73 336.66
  Q 322.99 336.38 323.35 337.08
  Q 324.03 338.41 325.78 338.96
  Q 325.75 339.13 325.72 339.31
  C 324.02 338.54 322.95 338.79 322.03 340.47
  Q 318.52 346.90 315.18 353.44
  C 312.85 357.99 321.01 360.87 323.81 362.89
  Q 338.63 373.57 355.68 380.19
  C 357.44 380.87 358.47 382.46 360.73 382.74
  A 1.01 0.98 78.2 0 1 361.47 383.24
  C 362.70 385.43 362.38 386.48 361.34 388.95
  C 360.23 391.58 364.77 392.70 366.49 393.47
  Q 367.00 393.70 367.00 394.26
  L 367.00 395.83
  A 1.35 1.35 0.0 0 1 365.12 397.07
  L 355.73 393.05
  A 1.02 0.93 30.1 0 0 354.58 393.30
  Q 354.40 393.52 354.50 393.96
  C 335.82 386.31 318.71 373.47 304.60 358.78
  Q 304.32 358.49 304.25 358.89
  Q 304.23 359.02 304.23 359.15
  Q 304.23 359.24 304.30 359.31
  C 306.09 361.04 307.24 363.49 308.75 365.05
  Q 319.26 375.90 331.85 384.31
  Q 332.47 384.73 331.72 384.67
  Q 315.81 383.59 303.17 374.06
  C 300.11 371.76 299.83 369.33 298.42 366.54
  A 0.36 0.36 0.0 0 0 297.74 366.69
  C 297.58 372.65 304.90 383.53 308.27 387.68
  L 307.37 387.90
  Q 306.96 388.00 307.20 388.34
  Q 311.10 393.79 316.82 397.21
  Q 317.37 397.54 317.11 398.13
  L 316.77 398.90
  A 0.45 0.45 0.0 0 1 316.15 399.11
  L 310.94 396.40
  Q 310.47 396.16 310.10 396.53
  L 309.73 396.90
  Q 309.40 397.23 308.94 397.35
  Q 302.56 399.09 296.71 396.73
  C 291.50 394.64 288.17 393.56 283.82 392.02
  C 280.17 390.73 277.93 388.69 275.13 386.22
  A 0.26 0.26 0.0 0 0 274.77 386.59
  L 280.26 392.55
  Q 280.53 392.85 280.15 392.99
  L 279.46 393.25
  Q 269.24 383.28 263.40 370.17
  Q 262.95 369.16 263.07 370.26
  C 263.69 375.72 256.06 390.09 253.32 395.20
  Q 253.12 393.99 252.25 394.60
  Q 251.93 394.83 251.71 395.36
  Q 250.11 399.24 247.01 401.95
  Q 246.65 402.26 246.19 402.34
  C 243.94 402.71 241.91 404.06 240.07 404.35
  Q 235.76 405.02 231.85 402.72
  A 1.66 1.64 -31.3 0 0 230.92 402.50
  Q 230.60 402.53 230.28 402.45
  Q 229.75 402.33 229.34 401.81
  Q 225.88 397.45 224.36 392.04
  Q 224.23 391.56 223.15 391.79
  Q 219.69 380.59 220.35 368.75
  Q 220.38 368.22 220.00 367.51
  Q 219.84 367.21 219.82 367.55
  L 219.30 374.18
  Q 217.58 372.36 217.13 375.05
  C 216.83 376.87 215.43 378.61 214.46 380.14
  Q 214.39 380.25 214.27 380.25
  Q 214.12 380.25 213.98 380.25
  Q 213.74 380.26 213.58 380.44
  C 209.58 384.93 200.39 392.32 194.24 392.90
  Q 193.66 392.96 193.32 393.36
  Q 193.04 393.71 192.58 393.73
  C 188.51 393.88 184.51 395.66 180.76 395.55
  Q 172.34 395.31 164.02 393.18
  Q 163.55 393.06 163.55 392.57
  Q 163.57 391.55 162.45 391.32
  C 166.97 388.38 172.52 386.84 176.41 383.94
  Q 185.76 376.97 190.76 366.26
  C 193.59 360.19 196.41 348.08 192.82 341.69
  Q 192.50 341.12 192.48 341.77
  L 192.40 344.17
  Q 192.38 344.69 191.86 344.71
  Q 173.65 345.62 158.75 342.73
  C 141.55 339.40 124.15 334.72 108.87 327.14
  Q 108.28 326.85 108.87 326.55
  Q 115.34 323.23 118.16 317.37
  Q 121.49 317.13 124.30 318.86
  C 129.41 322.00 134.77 324.41 140.23 326.86
  C 142.83 328.03 146.49 328.91 149.83 330.43
  C 150.32 330.65 151.57 330.43 152.33 330.72
  C 157.72 332.76 191.14 342.56 188.07 328.21
  C 187.67 326.33 188.12 324.79 187.88 322.95
  Q 188.45 319.77 185.94 315.77
  Q 188.55 316.60 190.74 317.27
  C 193.01 317.96 194.53 319.83 197.47 319.93
  Q 197.93 319.94 198.32 320.20
  L 201.36 322.25
  Q 201.82 322.56 202.37 322.65
  C 213.54 324.42 223.10 330.15 234.61 330.83
  Q 242.18 331.27 249.60 332.92
  Q 249.92 332.99 249.95 332.66
  Q 249.97 332.47 250.11 332.35
  Q 250.21 332.27 250.39 332.26
  Q 252.74 332.12 255.03 332.48
  Q 255.49 332.56 255.50 333.02
  Q 255.50 333.16 255.50 333.28
  A 0.29 0.29 0.0 0 0 256.03 333.46
  C 257.86 330.94 264.49 331.99 267.70 331.22
  Q 270.41 330.57 272.42 332.38
  Q 272.79 332.71 273.29 332.68
  L 280.99 332.10
  A 0.28 0.28 0.0 0 0 281.25 331.81
  Q 281.25 331.66 281.25 331.51
  Q 281.25 331.44 281.31 331.44
  L 286.47 331.09
  Q 287.31 331.04 287.24 330.19
  Q 287.18 329.33 288.01 329.00
  Q 288.92 328.63 288.98 328.64
  C 294.38 329.15 298.97 327.29 303.14 326.37
  C 306.30 325.67 314.38 324.05 316.64 321.99
  Q 316.96 321.69 317.40 321.66
  C 324.48 321.13 328.74 316.61 334.50 315.25
  C 340.53 313.82 344.68 310.65 349.94 308.08
  C 351.67 307.23 352.64 305.74 354.35 304.67
  Z"
/>
<path fill="#c2ab9c" d="
  M 180.64 312.01
  Q 185.18 316.33 187.88 322.95
  C 188.12 324.79 187.67 326.33 188.07 328.21
  C 191.14 342.56 157.72 332.76 152.33 330.72
  C 151.57 330.43 150.32 330.65 149.83 330.43
  C 146.49 328.91 142.83 328.03 140.23 326.86
  C 134.77 324.41 129.41 322.00 124.30 318.86
  Q 121.49 317.13 118.16 317.37
  L 119.64 312.54
  Q 121.66 314.39 124.07 315.69
  Q 149.95 329.68 179.25 333.00
  Q 182.91 333.41 185.67 331.25
  A 0.93 0.91 -23.8 0 0 186.02 330.37
  Q 184.47 321.11 180.64 312.01
  Z"
/>
<path fill="#65484d" d="
  M 326.27 338.43
  Q 325.81 338.68 325.78 338.96
  Q 324.03 338.41 323.35 337.08
  Q 322.99 336.38 323.73 336.66
  Q 325.19 337.21 326.27 338.43
  Z"
/>
<path fill="#c2ab9c" d="
  M 325.72 339.31
  Q 326.10 339.58 326.18 340.05
  Q 326.03 339.98 325.83 339.99
  Q 325.66 340.00 325.57 340.16
  L 317.61 354.10
  A 0.95 0.94 34.9 0 0 317.83 355.29
  C 338.88 372.76 362.63 382.18 388.99 387.75
  Q 389.50 387.86 389.84 388.24
  Q 391.01 389.50 392.19 389.27
  L 392.14 390.68
  C 391.06 395.58 390.45 400.64 387.50 403.79
  Q 370.32 401.12 354.50 393.96
  Q 354.40 393.52 354.58 393.30
  A 1.02 0.93 30.1 0 1 355.73 393.05
  L 365.12 397.07
  A 1.35 1.35 0.0 0 0 367.00 395.83
  L 367.00 394.26
  Q 367.00 393.70 366.49 393.47
  C 364.77 392.70 360.23 391.58 361.34 388.95
  C 362.38 386.48 362.70 385.43 361.47 383.24
  A 1.01 0.98 78.2 0 0 360.73 382.74
  C 358.47 382.46 357.44 380.87 355.68 380.19
  Q 338.63 373.57 323.81 362.89
  C 321.01 360.87 312.85 357.99 315.18 353.44
  Q 318.52 346.90 322.03 340.47
  C 322.95 338.79 324.02 338.54 325.72 339.31
  Z"
/>
<path fill="#eae0d4" d="
  M 326.18 340.05
  C 337.61 347.50 350.46 348.83 363.75 347.21
  Q 374.90 348.96 382.31 358.44
  Q 393.28 372.45 392.19 389.27
  Q 391.01 389.50 389.84 388.24
  Q 389.50 387.86 388.99 387.75
  C 362.63 382.18 338.88 372.76 317.83 355.29
  A 0.95 0.94 34.9 0 1 317.61 354.10
  L 325.57 340.16
  Q 325.66 340.00 325.83 339.99
  Q 326.03 339.98 326.18 340.05
  Z"
/>
<path fill="#413b60" d="
  M 384.86 341.10
  Q 390.86 343.84 396.74 346.43
  C 411.09 352.74 429.69 366.67 426.97 385.23
  C 426.10 391.19 423.82 389.76 419.64 391.05
  Q 413.25 393.01 406.44 392.03
  Q 404.49 391.75 402.54 392.00
  L 402.21 391.50
  C 403.47 373.09 392.14 352.67 375.50 344.46
  L 384.86 341.10
  Z"
/>
<path fill="#996167" d="
  M 375.50 344.46
  C 392.14 352.67 403.47 373.09 402.21 391.50
  L 392.14 390.68
  L 392.19 389.27
  Q 393.28 372.45 382.31 358.44
  Q 374.90 348.96 363.75 347.21
  L 375.50 344.46
  Z"
/>
<path fill="#c2ab9c" d="
  M 219.30 374.18
  C 215.90 388.27 202.29 396.36 188.72 397.78
  Q 174.97 399.22 161.65 394.36
  A 0.67 0.67 0.0 0 1 161.20 393.71
  Q 161.21 392.42 162.45 391.32
  Q 163.57 391.55 163.55 392.57
  Q 163.55 393.06 164.02 393.18
  Q 172.34 395.31 180.76 395.55
  C 184.51 395.66 188.51 393.88 192.58 393.73
  Q 193.04 393.71 193.32 393.36
  Q 193.66 392.96 194.24 392.90
  C 200.39 392.32 209.58 384.93 213.58 380.44
  Q 213.74 380.26 213.98 380.25
  Q 214.12 380.25 214.27 380.25
  Q 214.39 380.25 214.46 380.14
  C 215.43 378.61 216.83 376.87 217.13 375.05
  Q 217.58 372.36 219.30 374.18
  Z"
/>
<path fill="#413b60" d="
  M 162.48 396.29
  C 182.12 403.18 208.24 400.78 218.82 380.68
  Q 219.07 380.20 219.14 380.74
  C 220.66 391.72 223.75 404.08 234.21 410.10
  C 240.19 413.55 248.95 405.05 251.83 400.57
  Q 259.35 388.86 263.49 375.76
  A 0.46 0.46 0.0 0 1 264.33 375.68
  C 272.49 391.24 286.74 405.39 305.30 406.24
  C 310.48 406.47 316.55 405.43 322.01 404.48
  A 0.65 0.64 -69.1 0 1 322.52 405.62
  C 319.83 407.76 316.99 409.33 313.57 410.30
  Q 289.26 417.14 271.21 400.37
  C 268.69 398.03 266.17 394.55 263.64 391.69
  Q 263.20 391.20 262.92 391.79
  Q 261.69 394.32 260.67 396.83
  C 256.72 406.54 244.13 421.78 232.68 417.18
  C 222.65 413.15 219.76 396.43 218.58 386.75
  A 0.29 0.28 -3.3 0 0 218.29 386.50
  Q 218.14 386.50 217.99 386.50
  A 0.25 0.25 0.0 0 0 217.74 386.75
  Q 217.65 393.64 219.51 400.26
  A 1.43 1.42 68.7 0 1 218.79 401.91
  C 207.57 407.73 193.47 409.32 181.46 406.76
  C 175.98 405.60 165.59 401.91 162.07 396.83
  A 0.36 0.36 0.0 0 1 162.48 396.29
  Z
  M 263.69 388.41
  L 264.32 380.06
  A 0.22 0.22 0.0 0 0 264.12 379.82
  L 263.77 379.79
  A 3.56 1.17 -85.7 0 0 262.34 383.26
  L 262.21 384.95
  A 3.56 1.17 -85.7 0 0 263.11 388.59
  L 263.46 388.62
  A 0.22 0.22 0.0 0 0 263.69 388.41
  Z"
/>
<path stroke="#242134" stroke-width="2.00" fill="none" stroke-linecap="butt" vector-effect="non-scaling-stroke" d="
  M 263.69 388.41
  L 264.32 380.06
  A 0.22 0.22 0.0 0 0 264.12 379.82
  L 263.77 379.79
  A 3.56 1.17 -85.7 0 0 262.34 383.26
  L 262.21 384.95
  A 3.56 1.17 -85.7 0 0 263.11 388.59
  L 263.46 388.62
  A 0.22 0.22 0.0 0 0 263.69 388.41"
/>
<path fill="#33334a" d="
  M 312.81 389.94
  Q 306.67 384.30 303.13 376.88
  A 0.31 0.31 0.0 0 1 303.59 376.49
  C 312.04 382.42 321.55 385.36 331.79 386.02
  Q 335.02 386.23 336.50 387.10
  Q 340.32 389.32 341.62 393.92
  Q 341.74 394.35 341.29 394.40
  C 334.63 395.10 318.02 394.73 312.81 389.94
  Z"
/>
<path fill="#070707" fill-opacity="0.996" d="
  M 263.69 388.41
  A 0.22 0.22 0.0 0 1 263.46 388.62
  L 263.11 388.59
  A 3.56 1.17 -85.7 0 1 262.21 384.95
  L 262.34 383.26
  A 3.56 1.17 -85.7 0 1 263.77 379.79
  L 264.12 379.82
  A 0.22 0.22 0.0 0 1 264.32 380.06
  L 263.69 388.41
  Z"
/>
<path fill="#c2ab9c" d="
  M 308.27 387.68
  C 311.59 391.48 314.30 393.41 318.99 396.09
  Q 321.88 397.75 324.29 400.93
  A 1.39 1.39 0.0 0 1 323.17 403.16
  C 318.59 403.09 313.31 404.54 309.49 404.66
  Q 292.25 405.24 279.46 393.25
  L 280.15 392.99
  Q 280.53 392.85 280.26 392.55
  L 274.77 386.59
  A 0.26 0.26 0.0 0 1 275.13 386.22
  C 277.93 388.69 280.17 390.73 283.82 392.02
  C 288.17 393.56 291.50 394.64 296.71 396.73
  Q 302.56 399.09 308.94 397.35
  Q 309.40 397.23 309.73 396.90
  L 310.10 396.53
  Q 310.47 396.16 310.94 396.40
  L 316.15 399.11
  A 0.45 0.45 0.0 0 0 316.77 398.90
  L 317.11 398.13
  Q 317.37 397.54 316.82 397.21
  Q 311.10 393.79 307.20 388.34
  Q 306.96 388.00 307.37 387.90
  L 308.27 387.68
  Z"
/>
<path fill="#c75636" d="
  M 380.51 405.44
  C 365.63 408.22 350.48 403.41 341.54 390.73
  A 0.36 0.36 0.0 0 1 342.02 390.21
  Q 360.07 400.49 380.52 404.55
  A 0.45 0.45 0.0 0 1 380.51 405.44
  Z"
/>
<path fill="#65484d" d="
  M 402.21 391.50
  L 402.54 392.00
  Q 402.33 398.98 399.75 405.46
  Q 393.48 405.57 387.50 403.79
  C 390.45 400.64 391.06 395.58 392.14 390.68
  L 402.21 391.50
  Z"
/>
<path fill="#c2ab9c" d="
  M 223.15 391.79
  Q 224.23 391.56 224.36 392.04
  Q 225.88 397.45 229.34 401.81
  Q 229.75 402.33 230.28 402.45
  Q 230.60 402.53 230.92 402.50
  A 1.66 1.64 -31.3 0 1 231.85 402.72
  Q 235.76 405.02 240.07 404.35
  C 241.91 404.06 243.94 402.71 246.19 402.34
  Q 246.65 402.26 247.01 401.95
  Q 250.11 399.24 251.71 395.36
  Q 251.93 394.83 252.25 394.60
  Q 253.12 393.99 253.32 395.20
  C 250.33 401.85 240.69 414.08 232.44 407.31
  Q 225.16 401.32 223.15 391.79
  Z"
/>
<path fill="#c75636" d="
  M 399.50 408.60
  A 0.47 0.46 -27.7 0 1 399.77 407.74
  C 423.17 408.79 444.82 408.43 466.86 400.05
  Q 468.42 399.45 467.49 400.84
  C 457.31 416.05 413.48 417.24 399.50 408.60
  Z"
/>
</svg>
