<?xml version="1.0" encoding="UTF-8" standalone="no"?>
<svg xmlns="http://www.w3.org/2000/svg" version="1.2" baseProfile="tiny" viewBox="0.00 0.00 500.00 500.00">
<path fill="#0b0b0a" d="
  M 329.28 34.15
  L 326.69 35.93
  A 0.32 0.32 0.0 0 1 326.22 35.52
  Q 330.98 25.46 332.97 14.48
  A 0.45 0.45 0.0 0 0 332.26 14.03
  Q 318.98 23.48 309.67 36.84
  Q 309.24 37.45 308.71 36.94
  L 304.15 32.59
  A 0.71 0.71 0.0 0 0 302.96 32.97
  Q 299.89 48.64 286.47 57.68
  Q 283.94 59.39 278.42 61.12
  Q 270.10 63.73 261.19 70.01
  L 254.70 75.22
  C 240.00 89.11 246.55 106.41 247.23 124.07
  C 247.35 126.95 246.49 130.45 246.73 133.76
  C 246.30 137.28 243.53 140.47 243.83 143.45
  Q 244.33 144.30 244.26 146.14
  A 0.76 0.76 0.0 0 0 245.36 146.85
  Q 254.45 142.36 260.78 134.74
  C 264.32 130.48 266.63 125.07 269.93 120.39
  C 271.20 118.60 271.19 115.34 271.54 113.98
  C 272.57 110.01 274.05 105.91 274.05 101.87
  Q 274.06 95.99 273.16 90.16
  L 272.52 79.24
  A 0.58 0.57 60.4 0 0 271.47 78.95
  L 268.71 83.00
  Q 268.19 83.13 267.83 82.67
  Q 273.85 73.11 283.54 66.96
  C 303.82 53.78 328.36 47.72 343.13 26.62
  A 0.34 0.34 0.0 0 0 342.67 26.13
  L 329.28 34.15
  Q 330.33 32.61 331.91 31.64
  Q 337.82 28.00 343.74 24.35
  Q 344.97 23.59 345.03 25.03
  Q 345.06 25.85 344.10 27.09
  C 334.02 40.27 323.86 46.25 308.86 54.24
  C 296.88 60.62 282.78 66.19 273.58 76.59
  C 272.74 77.54 273.22 78.53 273.31 79.58
  C 274.26 90.55 275.52 103.61 272.75 113.90
  C 269.25 126.90 259.34 142.10 246.21 147.46
  Q 245.25 147.84 245.69 148.78
  L 251.38 160.79
  Q 251.60 161.24 252.01 161.50
  C 262.84 168.30 270.95 180.97 276.32 192.19
  Q 277.28 194.21 277.64 196.49
  C 278.13 199.56 278.05 204.16 282.27 204.37
  C 286.56 204.59 291.77 205.23 295.51 207.49
  Q 315.95 219.82 325.95 241.40
  Q 327.90 245.61 329.95 248.14
  Q 334.65 253.96 340.22 258.99
  C 345.80 264.02 347.99 274.28 348.30 281.43
  C 348.49 285.89 345.40 290.61 342.95 294.14
  Q 342.66 294.55 342.80 295.04
  Q 345.87 305.29 345.41 315.95
  A 0.36 0.36 0.0 0 0 346.09 316.11
  C 352.16 302.77 359.76 289.78 369.07 278.39
  A 1.58 1.58 0.0 0 1 371.84 279.04
  C 375.83 296.65 373.65 312.12 368.53 328.88
  Q 368.38 329.38 368.89 329.25
  L 370.00 328.97
  C 369.05 330.64 367.28 331.62 366.18 332.85
  Q 361.10 338.61 357.02 345.14
  Q 356.60 345.80 356.56 345.02
  Q 356.54 344.55 356.81 344.05
  Q 359.69 338.71 363.51 334.04
  Q 365.32 331.82 366.15 329.46
  C 372.21 312.02 375.21 297.64 370.78 279.83
  A 0.84 0.84 0.0 0 0 369.29 279.52
  Q 355.37 297.73 346.00 319.03
  Q 343.67 324.32 342.00 326.91
  Q 341.41 327.84 341.47 326.74
  C 341.76 321.18 341.93 316.99 342.68 310.23
  Q 343.46 303.28 342.17 296.12
  A 0.65 0.65 0.0 0 0 341.05 295.79
  Q 335.19 302.08 327.17 305.19
  A 0.81 0.81 0.0 0 0 326.70 305.66
  L 320.93 320.40
  A 1.16 1.16 0.0 0 0 321.58 321.91
  C 333.27 326.63 349.31 336.57 353.23 349.49
  Q 353.30 349.74 353.02 349.82
  Q 352.73 349.91 352.62 349.62
  C 349.51 340.98 340.10 333.58 332.50 328.98
  Q 313.56 317.50 291.50 315.35
  Q 291.01 315.30 290.61 315.58
  Q 287.47 317.80 285.81 322.01
  Q 284.14 329.19 285.30 337.24
  Q 287.13 349.82 290.02 363.12
  Q 290.00 363.13 290.21 363.96
  Q 296.10 386.93 304.94 409.00
  Q 305.13 409.48 305.65 409.43
  C 319.72 408.14 336.89 398.08 345.13 385.90
  Q 347.08 383.03 350.60 376.50
  Q 350.77 376.18 351.05 376.41
  Q 351.18 376.51 351.24 376.68
  Q 351.31 376.90 351.16 377.24
  Q 347.31 385.68 341.02 392.38
  A 0.35 0.35 0.0 0 0 341.46 392.91
  C 364.14 378.30 375.73 355.85 379.26 329.47
  Q 379.64 326.63 379.35 324.02
  A 0.88 0.87 -22.7 0 0 377.93 323.44
  L 371.38 328.71
  A 1.29 1.28 -62.7 0 1 370.49 329.00
  L 370.00 328.97
  Q 373.55 325.01 377.95 322.38
  A 1.54 1.54 0.0 0 1 380.27 323.52
  Q 380.74 327.61 380.15 331.74
  C 377.61 349.41 370.04 367.26 358.69 380.21
  Q 358.36 380.59 358.45 381.08
  Q 361.28 396.12 363.84 411.13
  C 366.23 425.08 367.38 439.11 368.61 453.18
  C 368.82 455.59 371.58 455.90 373.65 455.30
  C 381.49 453.01 389.51 455.71 391.16 464.49
  Q 391.25 464.98 391.69 465.22
  Q 400.40 469.95 405.16 478.71
  A 1.09 1.08 -13.0 0 1 404.16 480.31
  Q 403.54 480.28 403.27 479.93
  Q 402.91 479.45 402.31 479.50
  Q 401.81 479.54 401.74 480.15
  A 1.06 1.06 0.0 0 1 400.44 481.05
  Q 394.72 479.67 389.54 478.58
  C 380.26 476.63 367.47 477.13 359.44 477.92
  Q 350.61 478.79 344.65 478.22
  L 360.57 476.77
  Q 368.97 477.35 377.00 476.17
  Q 379.72 476.60 382.50 476.71
  C 387.69 476.93 392.57 478.31 397.68 479.29
  L 400.15 479.97
  A 0.62 0.62 0.0 0 0 400.85 479.05
  Q 396.21 471.38 388.61 466.68
  Q 388.04 466.33 387.33 467.32
  L 379.11 465.49
  A 0.82 0.82 0.0 0 0 378.12 466.19
  L 377.01 474.84
  Q 376.05 469.91 377.56 465.54
  Q 377.73 465.06 377.28 464.82
  Q 373.48 462.81 371.03 459.25
  Q 370.72 458.81 370.74 458.27
  L 370.78 457.00
  A 0.73 0.72 -75.5 0 0 370.38 456.32
  L 368.32 455.26
  A 1.01 1.00 10.0 0 1 367.79 454.51
  L 366.83 447.44
  A 0.32 0.32 0.0 0 0 366.20 447.41
  L 363.33 458.88
  C 361.59 465.38 356.69 471.00 349.50 470.23
  C 342.38 469.46 338.51 464.63 334.79 458.94
  A 0.39 0.39 0.0 0 0 334.09 459.03
  Q 331.91 465.49 331.44 472.24
  Q 331.13 476.65 338.16 477.95
  C 323.13 480.09 335.41 459.79 332.24 453.10
  C 326.80 441.61 320.45 430.55 314.26 419.47
  Q 311.95 415.33 310.22 410.92
  Q 310.01 410.38 309.43 410.44
  L 306.54 410.77
  A 0.71 0.71 0.0 0 0 305.97 411.75
  C 311.07 423.92 316.70 435.73 320.90 447.65
  C 322.05 450.93 323.87 454.44 324.03 457.92
  Q 324.05 458.43 323.61 458.67
  Q 322.80 459.12 322.07 458.38
  Q 322.78 457.96 322.88 456.46
  Q 322.94 455.57 322.51 454.49
  C 310.48 424.44 297.55 397.49 289.39 367.58
  C 287.17 359.46 285.79 349.07 284.27 342.00
  Q 282.20 332.40 284.20 322.22
  Q 285.87 317.28 290.50 314.27
  Q 290.95 313.98 291.04 313.46
  Q 291.53 310.58 289.25 308.93
  A 0.68 0.67 -55.9 0 1 289.08 308.02
  Q 289.76 306.98 289.76 305.75
  Q 289.76 305.22 290.02 304.76
  Q 293.00 299.53 293.03 293.47
  Q 293.03 292.94 293.45 292.62
  Q 294.15 292.09 293.99 291.20
  Q 293.91 290.70 293.54 290.36
  Q 292.03 288.93 293.35 287.22
  A 0.71 0.70 36.8 0 0 293.20 286.21
  L 290.35 284.21
  Q 289.87 283.87 289.52 284.33
  Q 288.27 285.92 287.63 284.78
  L 289.63 279.98
  Q 289.16 279.55 289.44 279.50
  Q 289.51 279.49 289.56 279.47
  Q 289.99 279.25 290.45 279.13
  Q 290.61 280.76 290.20 281.98
  Q 290.04 282.45 290.42 282.76
  Q 301.79 292.21 314.42 299.76
  Q 320.08 303.14 323.15 303.48
  C 333.73 304.65 343.77 292.39 346.90 284.05
  Q 347.20 274.17 343.36 265.18
  C 340.84 259.27 334.91 256.17 331.10 251.02
  C 323.57 240.85 312.58 234.16 301.33 228.79
  C 299.83 228.07 298.06 227.80 296.47 227.71
  A 1.34 1.33 -89.8 0 0 295.06 229.12
  L 296.10 247.64
  A 0.82 0.81 -81.0 0 0 296.61 248.35
  Q 299.27 249.36 301.00 249.50
  Q 309.39 250.13 317.56 252.16
  Q 317.44 252.70 317.53 252.95
  Q 317.05 254.25 316.01 254.51
  Q 304.65 257.27 295.59 263.13
  Q 294.30 264.35 295.54 261.15
  L 301.04 254.89
  A 1.75 1.75 0.0 0 0 300.45 252.14
  L 291.00 247.81
  L 291.11 246.79
  Q 291.92 239.79 291.11 232.78
  Q 291.49 232.16 292.19 232.24
  Q 292.76 232.31 292.79 232.88
  L 293.40 244.49
  Q 293.41 244.64 293.55 244.68
  Q 293.69 244.73 293.82 244.77
  Q 293.98 244.82 293.99 244.66
  Q 294.41 237.48 294.23 230.24
  C 294.16 227.53 295.56 225.88 298.34 226.89
  Q 305.54 229.51 313.27 234.20
  Q 314.31 234.83 314.84 233.59
  Q 315.05 233.12 314.66 232.80
  Q 314.07 232.31 314.25 231.52
  A 1.02 1.01 -60.1 0 0 314.00 230.58
  C 307.59 223.87 297.20 214.36 287.09 217.44
  Q 281.73 219.08 279.32 224.37
  Q 278.21 224.89 277.88 224.50
  A 1.33 0.97 46.0 0 1 277.68 223.06
  C 293.06 202.88 316.38 229.08 324.21 242.27
  Q 324.52 242.78 325.45 242.97
  Q 325.97 243.08 325.74 242.60
  C 319.39 229.90 309.89 217.58 297.55 210.06
  C 288.65 204.63 281.31 204.17 271.54 206.95
  Q 270.55 207.23 271.32 206.55
  Q 271.67 206.23 272.17 206.04
  A 0.93 0.91 0.6 0 0 272.67 205.56
  L 276.53 196.50
  Q 276.73 196.04 276.54 195.57
  C 272.05 184.31 263.96 171.37 254.23 164.01
  Q 253.99 163.83 253.77 163.95
  Q 253.36 164.16 253.68 164.50
  C 257.93 169.01 260.22 185.24 260.85 191.24
  Q 260.82 191.97 260.65 192.55
  Q 260.55 192.88 260.34 192.97
  Q 260.12 193.06 259.78 193.00
  Q 259.61 186.69 257.02 181.43
  A 0.83 0.83 0.0 0 0 255.45 181.79
  L 255.34 195.99
  L 254.16 195.99
  C 255.61 179.58 252.49 161.32 243.49 147.15
  Q 243.20 146.69 242.73 146.94
  Q 234.10 151.52 224.80 154.74
  Q 224.46 154.42 224.46 153.70
  Q 233.81 150.67 242.36 145.84
  A 0.86 0.86 0.0 0 0 242.79 145.06
  Q 242.44 137.24 240.70 129.63
  C 239.90 126.16 239.83 122.32 238.96 118.72
  A 0.33 0.33 0.0 0 0 238.34 118.67
  L 235.10 126.78
  Q 233.31 126.89 234.16 125.40
  L 237.69 117.05
  A 0.99 0.99 0.0 0 1 239.58 117.27
  L 243.23 138.59
  A 0.38 0.37 -34.3 0 0 243.92 138.72
  C 246.80 134.08 246.59 120.64 245.98 117.26
  C 243.63 104.34 242.52 93.33 248.40 81.10
  A 0.61 0.59 -44.4 0 0 248.41 80.58
  Q 240.89 64.06 246.99 47.48
  Q 247.57 45.90 248.49 44.81
  A 0.52 0.52 0.0 0 1 249.40 45.07
  L 250.13 49.75
  A 0.60 0.59 47.2 0 0 251.30 49.80
  Q 254.82 34.21 265.71 22.51
  A 0.90 0.90 0.0 0 1 267.27 23.21
  L 265.85 38.47
  A 0.57 0.57 0.0 0 0 266.86 38.87
  Q 269.36 35.69 272.92 33.86
  A 0.77 0.77 0.0 0 1 274.02 34.72
  Q 270.90 48.19 271.33 62.06
  A 0.56 0.56 0.0 0 0 272.13 62.54
  C 276.33 60.51 281.43 59.51 284.92 57.60
  C 294.81 52.16 300.68 41.88 302.82 31.03
  Q 303.00 30.13 303.63 30.78
  L 308.36 35.62
  A 0.82 0.82 0.0 0 0 309.62 35.51
  Q 318.61 22.51 331.70 13.44
  Q 333.27 12.35 333.79 13.83
  A 0.96 0.95 -50.5 0 1 333.83 14.26
  Q 332.36 23.94 328.18 32.75
  Q 327.77 33.62 328.68 33.94
  L 329.28 34.15
  Z
  M 324.97 304.96
  C 322.52 304.77 320.97 304.67 318.80 303.49
  Q 306.22 296.63 294.88 287.76
  A 0.39 0.38 -72.1 0 0 294.26 288.08
  C 294.56 296.97 291.60 304.79 292.42 313.88
  Q 292.46 314.34 292.93 314.38
  Q 300.29 315.03 307.39 317.17
  A 0.54 0.53 26.8 0 0 307.96 316.99
  L 312.08 311.77
  A 1.09 1.09 0.0 0 1 313.68 311.65
  Q 317.60 315.31 318.99 320.41
  A 0.42 0.42 0.0 0 0 319.78 320.45
  L 325.39 305.63
  A 0.50 0.49 13.2 0 0 324.97 304.96
  Z"
/>
<path stroke="#5e5c63" stroke-width="2.00" fill="none" stroke-linecap="butt" vector-effect="non-scaling-stroke" d="
  M 361.16 402.89
  Q 359.07 402.88 357.97 405.04
  C 355.11 410.62 361.09 418.62 361.47 423.74
  Q 362.35 435.47 364.90 447.50"
/>
<path fill="#a5aca8" d="
  M 329.28 34.15
  L 342.67 26.13
  A 0.34 0.34 0.0 0 1 343.13 26.62
  C 328.36 47.72 303.82 53.78 283.54 66.96
  Q 283.83 66.57 282.36 65.31
  Q 278.53 65.44 274.67 66.15
  Q 272.94 66.47 268.66 68.21
  Q 265.11 69.66 261.19 70.01
  Q 270.10 63.73 278.42 61.12
  Q 283.94 59.39 286.47 57.68
  Q 299.89 48.64 302.96 32.97
  A 0.71 0.71 0.0 0 1 304.15 32.59
  L 308.71 36.94
  Q 309.24 37.45 309.67 36.84
  Q 318.98 23.48 332.26 14.03
  A 0.45 0.45 0.0 0 1 332.97 14.48
  Q 330.98 25.46 326.22 35.52
  A 0.32 0.32 0.0 0 0 326.69 35.93
  L 329.28 34.15
  Z"
/>
<path fill="#cfd1ce" d="
  M 251.08 58.42
  Q 252.70 38.94 265.55 24.31
  A 0.33 0.33 0.0 0 1 266.12 24.57
  Q 265.24 31.66 264.92 39.07
  Q 264.82 41.21 263.37 42.87
  A 0.64 0.63 56.3 0 0 263.25 43.51
  Q 263.29 43.63 263.33 43.75
  A 0.19 0.18 56.3 0 0 263.66 43.82
  Q 267.27 38.98 272.09 35.37
  Q 272.77 34.86 272.61 35.69
  Q 270.07 49.01 270.62 62.56
  Q 270.64 63.02 270.24 63.23
  C 262.45 67.25 254.98 72.36 249.62 79.39
  Q 249.22 79.93 248.95 79.31
  Q 241.94 62.97 248.33 46.40
  A 0.47 0.47 0.0 0 1 249.23 46.51
  L 250.72 58.43
  A 0.18 0.18 0.0 0 0 251.08 58.42
  Z"
/>
<path fill="#cfd1ce" d="
  M 282.36 65.31
  Q 280.38 67.21 277.79 67.47
  C 275.27 67.73 273.84 69.53 271.24 70.07
  Q 268.82 70.57 266.54 71.52
  C 263.28 72.86 260.07 72.76 257.17 75.63
  Q 256.86 75.94 256.55 75.63
  Q 255.95 75.03 254.70 75.22
  L 261.19 70.01
  Q 265.11 69.66 268.66 68.21
  Q 272.94 66.47 274.67 66.15
  Q 278.53 65.44 282.36 65.31
  Z"
/>
<path fill="#f8f7f6" d="
  M 282.36 65.31
  Q 283.83 66.57 283.54 66.96
  Q 273.85 73.11 267.83 82.67
  Q 262.87 90.71 259.59 99.52
  C 256.25 108.46 254.03 121.21 250.91 131.92
  Q 248.51 132.88 247.72 134.64
  Q 247.42 135.31 247.12 134.64
  L 246.73 133.76
  C 246.49 130.45 247.35 126.95 247.23 124.07
  C 246.55 106.41 240.00 89.11 254.70 75.22
  Q 255.95 75.03 256.55 75.63
  Q 256.86 75.94 257.17 75.63
  C 260.07 72.76 263.28 72.86 266.54 71.52
  Q 268.82 70.57 271.24 70.07
  C 273.84 69.53 275.27 67.73 277.79 67.47
  Q 280.38 67.21 282.36 65.31
  Z"
/>
<path fill="#a5aca8" d="
  M 273.16 90.16
  C 274.30 104.39 271.89 117.48 261.11 127.53
  A 0.28 0.27 -12.7 0 1 260.66 127.25
  Q 264.45 115.32 263.03 102.71
  C 262.84 101.03 261.37 98.89 262.11 96.83
  Q 264.28 90.80 268.71 83.00
  L 271.47 78.95
  A 0.58 0.57 60.4 0 1 272.52 79.24
  L 273.16 90.16
  Z"
/>
<path fill="#383730" d="
  M 267.83 82.67
  Q 268.19 83.13 268.71 83.00
  Q 264.28 90.80 262.11 96.83
  C 261.37 98.89 262.84 101.03 263.03 102.71
  Q 264.45 115.32 260.66 127.25
  A 0.28 0.27 -12.7 0 0 261.11 127.53
  C 271.89 117.48 274.30 104.39 273.16 90.16
  Q 274.06 95.99 274.05 101.87
  C 274.05 105.91 272.57 110.01 271.54 113.98
  C 271.19 115.34 271.20 118.60 269.93 120.39
  C 266.63 125.07 264.32 130.48 260.78 134.74
  Q 254.45 142.36 245.36 146.85
  A 0.76 0.76 0.0 0 1 244.26 146.14
  Q 244.33 144.30 243.83 143.45
  Q 248.76 138.79 250.91 131.92
  C 254.03 121.21 256.25 108.46 259.59 99.52
  Q 262.87 90.71 267.83 82.67
  Z
  M 251.89 135.97
  Q 256.45 133.99 259.57 130.43
  Q 259.86 130.09 259.80 129.66
  L 259.64 128.44
  C 261.85 118.78 263.49 109.75 261.61 99.91
  A 0.54 0.53 51.1 0 0 260.59 99.80
  C 256.68 109.25 255.86 118.18 252.59 129.98
  Q 252.22 131.33 251.52 132.80
  Q 248.60 138.94 251.89 135.97
  Z"
/>
<path stroke="#22211d" stroke-width="2.00" fill="none" stroke-linecap="butt" vector-effect="non-scaling-stroke" d="
  M 251.89 135.97
  Q 256.45 133.99 259.57 130.43
  Q 259.86 130.09 259.80 129.66
  L 259.64 128.44"
/>
<path fill="#0b0b0a" d="
  M 221.26 110.67
  L 221.87 112.20
  Q 222.45 114.67 221.80 115.99
  A 0.39 0.38 47.3 0 1 221.10 115.96
  Q 216.20 103.70 209.94 92.06
  A 0.55 0.54 34.8 0 0 208.92 92.24
  Q 206.78 108.00 206.23 124.14
  C 206.18 125.59 206.83 127.67 206.00 129.63
  Q 205.81 130.07 205.50 129.70
  L 205.04 129.13
  Q 204.77 128.81 204.36 128.87
  Q 202.89 129.08 201.88 129.89
  Q 201.58 130.56 201.02 130.50
  L 197.86 121.72
  A 0.39 0.39 0.0 0 0 197.11 121.79
  Q 194.75 135.43 194.58 149.44
  C 194.52 153.88 193.92 157.44 195.89 161.62
  A 1.73 1.73 0.0 0 0 197.96 162.53
  L 205.01 160.40
  Q 206.89 160.30 203.82 162.20
  Q 203.38 163.38 203.50 165.50
  Q 203.55 166.29 202.54 166.58
  Q 200.80 166.24 199.21 166.82
  L 197.39 164.26
  Q 196.82 163.46 196.66 164.43
  Q 196.32 166.55 197.97 168.06
  Q 198.16 168.43 197.48 168.62
  L 183.99 174.44
  Q 183.28 174.45 183.11 174.66
  Q 182.45 173.25 183.27 171.80
  A 0.52 0.52 0.0 0 0 182.37 171.27
  L 180.27 174.67
  Q 180.84 180.44 179.64 181.57
  Q 177.19 186.73 176.50 191.18
  Q 176.42 191.70 176.87 191.95
  Q 185.51 196.67 193.26 202.64
  L 193.39 203.01
  Q 193.58 203.51 193.05 203.49
  Q 192.71 203.48 192.47 203.28
  Q 185.36 197.39 176.18 195.17
  A 0.64 0.63 -73.4 0 0 175.43 195.58
  Q 174.01 199.64 169.73 199.40
  L 158.12 201.43
  Q 157.89 201.28 157.64 201.22
  Q 157.34 201.15 157.26 200.85
  Q 157.21 200.67 157.11 200.55
  L 159.81 199.14
  Q 160.26 198.90 160.39 198.41
  Q 163.30 187.56 155.11 179.86
  Q 152.32 178.22 149.51 176.72
  C 146.90 175.31 145.14 173.06 142.50 171.46
  L 137.68 168.81
  Q 137.12 168.50 137.57 168.05
  L 137.91 167.72
  A 0.51 0.51 0.0 0 0 137.73 166.88
  Q 135.34 165.97 135.36 163.22
  A 0.72 0.72 0.0 0 0 134.37 162.55
  C 130.84 164.00 130.26 167.43 127.83 169.34
  C 120.72 174.94 113.84 179.94 111.27 186.30
  Q 106.12 198.98 102.61 214.41
  Q 98.66 226.33 96.19 239.15
  C 95.03 245.17 98.19 251.12 101.86 255.64
  C 102.96 257.00 104.90 260.42 107.26 261.01
  Q 131.02 266.96 157.76 261.33
  L 171.03 259.67
  L 173.45 259.82
  Q 174.02 259.85 174.11 260.41
  L 176.04 271.91
  A 0.75 0.75 0.0 0 0 177.29 272.33
  Q 181.99 267.86 187.80 265.00
  A 0.82 0.82 0.0 0 1 188.93 266.00
  Q 184.56 278.73 182.37 292.01
  Q 182.30 292.41 182.45 292.79
  L 188.53 309.11
  A 0.78 0.78 0.0 0 0 189.18 309.61
  L 193.16 310.05
  Q 193.52 310.09 193.83 309.89
  L 201.46 304.96
  A 1.24 1.24 0.0 0 1 203.37 306.06
  L 203.21 309.11
  Q 203.17 309.90 203.89 309.58
  L 211.50 306.10
  A 0.83 0.83 0.0 0 0 211.77 304.78
  L 199.56 291.71
  A 0.67 0.67 0.0 0 1 200.30 290.63
  Q 207.63 293.59 215.54 294.01
  Q 216.37 294.06 216.38 293.23
  Q 216.39 292.29 215.61 291.19
  Q 208.16 280.60 199.75 270.75
  Q 199.17 270.08 199.09 269.62
  A 0.68 0.68 0.0 0 1 200.08 268.90
  L 209.47 273.81
  Q 211.34 274.66 210.51 275.86
  L 204.05 272.89
  Q 203.29 272.54 203.81 273.20
  Q 212.20 283.91 217.43 292.05
  Q 218.12 293.13 217.15 295.21
  Q 210.45 295.27 203.48 293.09
  A 0.34 0.34 0.0 0 0 203.12 293.64
  L 211.89 303.36
  A 2.46 2.45 -34.6 0 1 211.18 307.19
  L 203.27 311.23
  A 0.76 0.76 0.0 0 0 203.38 312.63
  C 225.34 319.60 235.55 340.40 243.36 359.93
  Q 249.51 375.33 254.20 391.27
  Q 254.96 393.84 257.35 397.37
  C 263.40 417.61 275.00 439.35 291.18 453.43
  Q 294.83 456.60 297.63 460.53
  Q 278.66 445.75 267.69 425.06
  Q 260.55 411.58 254.04 395.04
  L 251.75 388.06
  A 2.59 2.59 0.0 0 0 247.41 387.08
  Q 244.74 389.88 240.60 392.13
  C 228.45 398.73 218.45 401.93 202.94 405.20
  Q 202.44 405.30 201.46 404.96
  Q 201.04 404.82 201.21 404.40
  L 201.51 403.64
  Q 222.76 400.80 241.42 390.17
  Q 243.76 388.84 247.45 385.15
  A 0.83 0.83 0.0 0 1 248.33 384.96
  L 250.47 385.78
  A 0.37 0.37 0.0 0 0 250.95 385.32
  C 245.10 368.00 238.63 347.25 226.77 331.23
  Q 224.62 328.33 221.92 326.29
  Q 214.85 317.43 203.13 313.75
  Q 202.35 313.50 202.23 314.31
  Q 199.54 332.61 198.74 350.93
  Q 198.66 352.93 199.58 354.88
  Q 202.54 361.16 204.01 367.63
  C 207.70 379.28 208.53 396.72 196.55 404.02
  Q 196.51 404.66 198.19 405.37
  Q 198.67 405.58 198.85 406.07
  Q 203.77 419.33 211.18 431.36
  Q 212.84 434.05 215.98 437.17
  Q 219.78 440.94 223.04 445.28
  C 210.49 435.97 202.95 421.16 197.96 405.93
  Q 197.77 405.34 197.15 405.42
  L 187.90 406.62
  A 1.39 1.39 0.0 0 0 186.70 407.79
  Q 183.31 430.53 178.40 453.09
  C 177.52 457.10 180.71 465.40 182.07 471.19
  C 183.01 475.18 181.63 477.29 177.54 477.95
  Q 161.52 480.52 145.59 483.44
  C 140.48 484.38 134.41 486.42 128.65 487.36
  A 1.68 1.68 0.0 0 1 126.79 485.16
  L 127.46 483.20
  A 0.51 0.51 0.0 0 0 126.91 482.53
  Q 119.95 483.39 113.22 484.76
  Q 111.71 485.07 111.33 482.49
  Q 111.29 482.25 111.05 482.30
  L 102.82 484.02
  A 1.57 1.57 0.0 0 1 101.01 481.97
  C 103.43 475.00 110.20 468.62 116.25 464.66
  Q 116.66 464.39 116.76 463.91
  C 117.21 461.81 117.44 459.88 118.82 458.20
  Q 125.23 450.39 135.56 452.26
  Q 136.03 452.35 136.47 452.18
  C 140.46 450.70 143.57 448.07 142.42 443.57
  C 140.38 435.59 138.83 426.89 137.09 419.50
  Q 132.36 399.37 129.04 378.94
  Q 128.96 378.44 128.63 378.07
  L 123.34 372.16
  Q 125.55 372.17 126.69 374.49
  A 0.53 0.53 0.0 0 0 127.69 374.35
  Q 127.91 373.08 127.65 371.41
  Q 126.81 366.06 127.24 360.66
  C 128.21 348.73 144.33 347.00 153.27 349.48
  C 163.44 352.31 173.22 355.64 180.35 363.15
  C 186.42 369.54 192.89 379.95 191.12 389.07
  Q 189.61 396.79 187.90 404.33
  A 0.63 0.63 0.0 0 0 188.48 405.10
  C 191.54 405.25 193.74 404.82 196.27 402.91
  C 202.44 398.24 204.60 391.50 204.97 383.83
  C 205.45 374.10 201.47 364.17 197.78 354.44
  Q 196.95 352.26 197.15 349.96
  Q 199.28 324.75 201.46 310.49
  Q 201.77 308.52 201.79 307.45
  A 0.53 0.53 0.0 0 0 201.07 306.93
  Q 199.29 307.59 197.73 308.74
  C 188.59 315.53 179.03 324.89 174.17 335.36
  Q 173.62 336.53 173.67 335.24
  Q 174.01 325.36 176.20 314.99
  C 179.52 299.27 181.87 283.06 186.88 267.77
  A 0.60 0.60 0.0 0 0 185.95 267.11
  Q 157.89 288.23 146.32 320.02
  C 145.45 322.42 145.88 325.34 144.57 328.05
  Q 144.35 328.51 144.29 328.01
  L 144.04 326.06
  Q 144.90 324.14 144.15 322.33
  Q 140.65 313.92 138.09 305.32
  Q 138.56 304.94 138.58 304.22
  L 142.41 314.63
  A 0.64 0.64 0.0 0 0 143.34 314.96
  L 147.27 312.62
  Q 147.70 312.37 147.91 311.92
  Q 158.07 290.58 175.11 274.15
  Q 175.41 273.86 175.33 273.45
  L 173.02 261.15
  A 0.65 0.64 -10.1 0 0 172.28 260.64
  C 152.15 264.09 132.45 266.25 112.00 263.27
  C 108.36 262.74 105.54 262.07 102.99 259.17
  C 99.87 255.64 93.67 246.43 94.70 241.54
  C 98.41 223.90 103.49 202.52 110.88 184.55
  C 112.85 179.73 118.52 175.40 122.51 172.21
  Q 124.72 170.44 127.57 167.33
  C 131.60 162.95 136.27 160.88 140.81 157.25
  C 143.70 154.93 148.89 153.08 152.49 154.99
  Q 153.81 155.69 155.14 156.40
  Q 155.60 156.64 156.08 156.44
  C 159.10 155.16 162.18 157.69 164.95 159.85
  A 1.10 1.07 -30.9 0 0 165.84 160.06
  L 169.01 159.41
  Q 169.44 159.32 169.83 159.53
  Q 175.59 162.63 175.75 169.08
  Q 175.77 169.58 176.14 169.92
  L 178.21 171.80
  A 1.21 1.19 21.4 0 1 178.61 172.69
  Q 178.61 173.19 178.89 173.38
  Q 179.35 173.71 179.69 173.26
  L 181.93 170.21
  Q 182.26 169.76 182.06 169.23
  L 180.59 165.29
  A 0.73 0.71 -89.3 0 0 180.20 164.88
  L 176.35 163.24
  A 1.18 1.17 0.8 0 1 175.74 162.62
  Q 169.94 147.96 167.84 131.99
  Q 170.49 140.94 172.60 149.84
  C 173.55 153.87 175.48 165.48 181.80 163.24
  A 0.98 0.97 -37.6 0 1 182.68 163.35
  Q 184.13 164.32 185.83 163.85
  A 0.54 0.54 0.0 0 0 186.17 163.09
  L 184.91 160.57
  A 0.96 0.96 0.0 0 0 183.19 160.56
  Q 182.49 161.93 181.09 161.75
  Q 180.58 161.69 180.32 161.25
  L 178.36 158.05
  Q 178.12 157.67 178.31 157.26
  L 179.49 154.63
  A 0.63 0.63 0.0 0 1 180.69 154.83
  Q 180.74 155.39 181.30 155.22
  A 0.41 0.41 0.0 0 0 181.59 154.75
  C 180.65 149.38 175.49 145.28 174.77 139.74
  Q 175.61 140.30 176.06 139.79
  Q 177.40 145.49 181.08 150.51
  Q 181.53 151.12 181.76 150.39
  Q 183.15 145.86 186.05 142.06
  Q 186.40 141.61 186.08 141.14
  L 184.67 139.03
  Q 185.20 139.29 185.63 139.26
  Q 186.21 139.21 186.03 138.66
  Q 184.59 134.43 184.74 129.95
  A 0.87 0.87 0.0 0 1 186.06 129.24
  Q 189.56 131.37 193.57 132.16
  A 0.97 0.97 0.0 0 0 194.72 131.36
  L 196.64 119.28
  A 0.72 0.72 0.0 0 1 198.04 119.16
  L 201.23 128.58
  A 0.58 0.57 -23.0 0 0 202.04 128.90
  L 204.60 127.58
  Q 205.11 127.31 205.12 126.74
  Q 205.49 108.60 208.17 90.63
  A 0.88 0.88 0.0 0 1 209.79 90.30
  Q 216.31 100.84 220.58 112.45
  Q 220.84 113.16 220.96 112.42
  L 221.26 110.67
  Z
  M 186.80 309.84
  A 0.27 0.27 0.0 0 0 187.10 309.49
  L 182.26 295.28
  A 0.38 0.38 0.0 0 0 181.53 295.33
  L 178.77 309.02
  A 0.62 0.61 1.6 0 0 179.46 309.74
  Q 183.13 309.18 186.80 309.84
  Z"
/>
<g stroke-width="2.00" fill="none" stroke-linecap="butt">
<path stroke="#cfd2cf" vector-effect="non-scaling-stroke" d="
  M 193.30 159.10
  L 185.09 160.10"
/>
<path stroke="#bfc058" vector-effect="non-scaling-stroke" d="
  M 152.08 167.45
  Q 150.11 164.18 143.48 165.50"
/>
<path stroke="#bfc058" vector-effect="non-scaling-stroke" d="
  M 162.30 170.42
  Q 158.58 166.58 154.04 167.25"
/>
<path stroke="#bfc058" vector-effect="non-scaling-stroke" d="
  M 164.61 169.93
  Q 164.05 170.28 163.93 169.49"
/>
<path stroke="#bfc058" vector-effect="non-scaling-stroke" d="
  M 161.02 187.64
  L 166.99 186.29
  Q 167.51 186.18 167.82 185.75
  L 171.80 180.20"
/>
<path stroke="#84803c" vector-effect="non-scaling-stroke" d="
  M 171.80 180.20
  L 172.83 179.57"
/>
<path stroke="#bfc058" vector-effect="non-scaling-stroke" d="
  M 172.83 179.57
  L 173.93 178.87
  A 0.58 0.57 -30.6 0 0 174.13 178.11
  C 172.36 174.82 169.40 173.12 165.90 172.38"
/>
<path stroke="#5d6539" vector-effect="non-scaling-stroke" d="
  M 172.83 179.57
  Q 171.32 178.83 169.52 180.00
  Q 169.23 180.18 169.56 180.29
  Q 170.55 180.60 171.80 180.20"
/>
<path stroke="#5e5c63" vector-effect="non-scaling-stroke" d="
  M 185.62 407.46
  L 175.99 410.50
  A 1.22 1.18 -81.7 0 0 175.33 411.01
  C 173.99 413.06 172.74 414.77 172.49 417.34
  C 171.63 426.20 169.96 434.98 169.40 443.78
  Q 169.05 449.26 168.56 454.86"
/>
<path stroke="#2d2e27" vector-effect="non-scaling-stroke" d="
  M 166.54 453.40
  Q 155.20 445.60 144.05 452.20
  Q 143.57 452.49 143.80 453.77"
/>
<path stroke="#cfd2cf" vector-effect="non-scaling-stroke" d="
  M 130.95 455.90
  Q 126.22 454.50 122.34 458.77
  Q 121.96 459.18 121.43 459.01
  Q 120.89 458.84 120.44 458.23"
/>
<path stroke="#cfd2cf" vector-effect="non-scaling-stroke" d="
  M 140.77 454.22
  L 137.24 454.20"
/>
<path stroke="#cfd2cf" vector-effect="non-scaling-stroke" d="
  M 134.72 466.91
  Q 134.11 466.18 135.50 464.96"
/>
<path stroke="#e4e4e2" vector-effect="non-scaling-stroke" d="
  M 137.24 454.20
  Q 136.79 455.18 137.06 455.82
  A 0.48 0.47 83.3 0 0 137.39 456.09
  L 139.00 456.46
  A 0.65 0.64 7.6 0 1 139.50 457.11
  Q 139.32 461.67 135.50 464.96"
/>
<path stroke="#babfbb" vector-effect="non-scaling-stroke" d="
  M 135.50 464.96
  L 137.38 459.57
  A 0.89 0.88 -59.2 0 0 137.15 458.63
  C 134.45 456.16 134.02 458.47 132.06 458.29
  Q 131.43 458.23 131.22 457.49"
/>
<path stroke="#cfd2cf" vector-effect="non-scaling-stroke" d="
  M 147.22 468.52
  Q 146.17 468.29 147.64 467.10
  C 148.71 466.24 149.56 464.89 150.31 463.74"
/>
<path stroke="#e4e4e2" vector-effect="non-scaling-stroke" d="
  M 150.31 463.74
  Q 153.05 460.10 148.31 456.91"
/>
<path stroke="#babfbb" vector-effect="non-scaling-stroke" d="
  M 150.31 463.74
  Q 149.29 463.11 149.51 461.68
  A 0.88 0.82 -55.5 0 0 149.43 461.14
  L 148.33 458.97
  Q 148.13 458.56 147.70 458.72
  Q 145.56 459.52 144.11 461.29
  Q 143.79 461.68 143.28 461.75
  Q 142.66 461.84 142.43 461.43"
/>
<path stroke="#bfc058" vector-effect="non-scaling-stroke" d="
  M 142.85 470.16
  Q 136.32 476.97 131.67 485.35"
/>
</g>
<path fill="#6e6c6f" d="
  M 221.87 112.20
  L 221.99 106.36
  A 0.79 0.79 0.0 0 1 223.44 105.95
  C 226.10 110.08 235.26 125.68 233.05 129.50
  A 0.39 0.39 0.0 0 1 232.33 129.36
  Q 231.76 125.32 228.77 122.62
  A 0.76 0.75 45.6 0 0 227.77 122.60
  L 225.52 124.53
  A 0.39 0.39 0.0 0 1 224.88 124.32
  L 224.20 121.32
  A 0.87 0.87 0.0 0 0 222.57 121.14
  C 221.57 123.29 219.97 128.12 218.07 129.27
  Q 217.75 129.46 218.02 129.73
  L 218.26 129.97
  Q 218.56 130.26 218.42 130.66
  L 214.58 142.20
  Q 211.33 142.76 208.63 149.34
  L 201.88 129.89
  Q 202.89 129.08 204.36 128.87
  Q 204.77 128.81 205.04 129.13
  L 205.50 129.70
  Q 205.81 130.07 206.00 129.63
  C 206.83 127.67 206.18 125.59 206.23 124.14
  Q 206.78 108.00 208.92 92.24
  A 0.55 0.54 34.8 0 1 209.94 92.06
  Q 216.20 103.70 221.10 115.96
  A 0.39 0.38 47.3 0 0 221.80 115.99
  Q 222.45 114.67 221.87 112.20
  Z"
/>
<path fill="#22241d" d="
  M 234.16 125.40
  Q 233.31 126.89 235.10 126.78
  L 229.53 148.80
  A 0.32 0.32 0.0 0 1 228.91 148.80
  L 223.28 124.50
  A 0.45 0.45 0.0 0 0 222.43 124.43
  Q 216.10 140.15 211.93 156.56
  A 1.08 1.08 0.0 0 0 213.35 157.84
  L 224.46 153.70
  Q 224.46 154.42 224.80 154.74
  L 212.99 159.14
  Q 212.53 159.32 212.31 159.75
  L 208.30 167.56
  Q 208.06 168.03 208.58 168.16
  C 210.88 168.72 213.35 168.60 213.03 172.00
  Q 212.65 176.07 212.88 180.20
  Q 212.91 180.72 213.41 180.89
  C 217.64 182.35 223.39 184.97 227.81 183.75
  Q 230.85 182.90 228.03 184.32
  Q 225.09 185.81 220.51 187.26
  L 205.81 191.49
  A 0.64 0.64 0.0 0 0 205.56 192.58
  L 207.34 194.16
  L 211.18 200.14
  Q 211.47 200.60 211.52 201.14
  Q 211.62 202.21 212.46 202.76
  A 0.54 0.54 0.0 0 0 213.24 202.53
  C 216.16 196.09 228.65 207.26 231.39 210.44
  Q 231.27 210.61 231.16 210.73
  Q 230.93 210.97 230.67 210.75
  Q 224.79 205.74 217.99 202.05
  A 0.27 0.27 0.0 0 0 217.63 202.44
  Q 220.84 207.30 224.73 210.58
  Q 232.62 218.64 242.39 221.13
  A 2.30 2.29 -79.1 0 0 245.24 219.19
  C 246.50 209.17 240.46 196.71 235.39 188.31
  Q 235.25 188.06 235.25 187.78
  Q 235.25 187.66 235.24 187.51
  A 0.59 0.58 -72.9 0 1 236.20 187.00
  Q 246.22 195.51 251.85 207.46
  A 0.59 0.59 0.0 0 0 252.98 207.27
  L 254.16 195.99
  L 255.34 195.99
  Q 255.24 203.07 253.56 209.94
  A 0.89 0.88 -51.5 0 1 251.91 210.13
  Q 246.70 199.80 239.13 191.10
  A 0.33 0.33 0.0 0 0 238.55 191.33
  Q 238.57 192.00 239.09 192.45
  Q 239.49 192.80 239.73 193.29
  C 243.70 201.45 247.27 209.10 247.04 217.63
  C 246.66 231.53 224.26 212.72 220.85 208.93
  Q 220.49 208.52 219.94 208.55
  L 216.78 208.70
  Q 216.24 208.72 216.45 209.23
  L 217.07 210.74
  A 0.57 0.57 0.0 0 1 216.26 211.45
  Q 212.86 209.51 210.07 207.52
  Q 209.67 207.23 209.31 207.19
  Q 208.76 207.13 208.47 207.35
  A 1.14 1.13 -45.6 0 0 208.49 209.20
  C 218.38 216.04 229.57 222.74 241.38 225.62
  C 244.19 226.31 246.04 227.75 246.36 230.58
  A 1.38 1.37 -86.7 0 1 244.68 232.08
  L 237.81 230.44
  Q 236.54 230.13 237.56 230.94
  Q 242.02 234.49 246.99 237.32
  C 251.74 240.02 251.28 243.64 252.82 248.24
  A 1.40 1.40 0.0 0 1 251.03 250.00
  L 243.78 247.42
  A 0.81 0.80 75.6 0 0 242.98 248.78
  L 252.64 257.47
  A 0.71 0.71 0.0 0 0 253.48 257.55
  C 255.15 256.59 254.90 254.77 255.46 253.67
  Q 256.69 251.22 258.38 249.00
  Q 258.72 248.55 258.60 248.00
  L 256.14 237.51
  A 0.90 0.89 59.0 0 1 256.33 236.73
  L 261.81 230.24
  A 0.60 0.60 0.0 0 0 261.13 229.30
  L 254.98 231.76
  A 1.29 1.29 0.0 0 1 253.33 231.09
  L 251.07 225.99
  Q 250.71 225.18 251.42 224.67
  C 261.70 217.35 260.52 204.08 259.78 193.00
  Q 260.12 193.06 260.34 192.97
  Q 260.55 192.88 260.65 192.55
  Q 260.82 191.97 260.85 191.24
  C 262.58 201.96 263.28 217.56 253.23 225.33
  Q 252.77 225.68 253.03 226.19
  L 254.72 229.59
  A 0.63 0.63 0.0 0 0 255.49 229.91
  L 263.10 227.31
  A 1.30 1.29 10.6 0 1 264.51 229.37
  L 257.80 237.34
  A 0.75 0.73 -32.5 0 0 257.65 237.99
  L 259.96 247.12
  Q 260.12 247.75 260.72 247.52
  L 267.96 244.79
  Q 268.49 244.60 268.67 245.13
  L 268.87 245.73
  Q 269.08 246.34 269.64 246.02
  C 276.71 242.00 284.25 244.19 291.11 246.79
  L 291.00 247.81
  C 285.71 245.88 276.55 243.53 271.14 246.53
  Q 270.59 246.83 270.95 247.35
  C 273.59 251.23 278.06 247.58 280.94 252.34
  Q 281.21 252.78 281.70 252.92
  C 283.60 253.44 284.76 253.55 286.35 254.87
  Q 290.63 258.39 295.54 261.15
  Q 294.30 264.35 295.59 263.13
  Q 294.85 266.88 292.45 269.52
  Q 292.13 269.88 292.25 270.34
  Q 293.20 274.00 291.45 277.22
  Q 291.10 277.85 291.82 277.75
  L 298.05 276.90
  Q 294.56 278.79 290.45 279.13
  Q 289.99 279.25 289.56 279.47
  Q 289.51 279.49 289.44 279.50
  Q 289.16 279.55 289.63 279.98
  C 288.83 279.93 285.08 284.11 283.57 284.89
  A 0.55 0.55 0.0 0 1 282.93 284.02
  Q 283.13 283.83 283.87 283.61
  C 287.72 280.22 292.44 275.73 291.39 271.11
  A 0.49 0.49 0.0 0 0 290.63 270.82
  C 288.71 272.17 281.99 273.66 281.70 269.82
  A 0.70 0.70 0.0 0 0 280.39 269.54
  Q 276.73 276.28 275.48 282.49
  C 276.59 285.55 282.03 286.54 284.48 287.26
  A 0.86 0.86 0.0 0 0 285.32 287.05
  L 287.63 284.78
  Q 288.27 285.92 289.52 284.33
  Q 289.87 283.87 290.35 284.21
  L 293.20 286.21
  A 0.71 0.70 36.8 0 1 293.35 287.22
  Q 292.03 288.93 293.54 290.36
  Q 293.91 290.70 293.99 291.20
  Q 294.15 292.09 293.45 292.62
  Q 293.03 292.94 293.03 293.47
  Q 293.00 299.53 290.02 304.76
  Q 289.76 305.22 289.76 305.75
  Q 289.76 306.98 289.08 308.02
  A 0.68 0.67 -55.9 0 0 289.25 308.93
  Q 291.53 310.58 291.04 313.46
  Q 290.95 313.98 290.50 314.27
  Q 285.87 317.28 284.20 322.22
  Q 278.68 319.33 272.40 318.19
  Q 271.95 318.11 271.77 318.52
  C 270.90 320.48 265.47 333.50 261.51 335.31
  A 1.02 1.01 -40.3 0 1 260.50 335.23
  C 257.60 333.27 254.43 323.59 251.77 316.99
  C 248.48 308.81 240.07 297.80 233.86 289.41
  C 229.43 283.42 230.00 273.80 234.81 268.22
  Q 235.17 267.81 234.76 267.44
  Q 219.29 253.37 211.01 234.19
  A 0.77 0.77 0.0 0 0 210.19 233.74
  Q 208.42 234.00 207.17 232.73
  A 0.49 0.48 -15.9 0 0 206.93 232.60
  L 200.17 231.08
  A 0.32 0.32 0.0 0 0 199.83 231.56
  Q 210.89 249.02 218.92 268.07
  C 219.86 270.29 222.09 275.56 218.80 277.43
  C 216.92 278.50 212.57 276.46 210.51 275.86
  Q 211.34 274.66 209.47 273.81
  Q 209.71 273.65 210.39 273.83
  L 217.25 276.05
  A 1.79 1.78 -1.4 0 0 219.47 273.72
  C 214.12 259.79 207.26 246.52 199.56 233.66
  C 194.55 225.29 189.24 219.94 180.26 217.48
  Q 169.06 214.40 159.37 216.00
  L 148.46 218.06
  A 1.97 1.96 2.6 0 0 146.92 219.46
  L 144.78 227.10
  L 134.35 241.43
  A 0.73 0.73 0.0 0 1 133.49 241.68
  Q 132.45 241.28 133.28 240.27
  Q 137.72 234.82 142.10 229.26
  C 144.56 226.15 144.88 221.51 146.01 217.78
  C 148.48 209.65 150.00 204.12 157.11 200.55
  Q 157.21 200.67 157.26 200.85
  Q 157.34 201.15 157.64 201.22
  Q 157.89 201.28 158.12 201.43
  Q 152.56 203.95 150.51 209.09
  A 0.31 0.30 -6.7 0 0 150.97 209.45
  L 154.95 206.61
  A 0.30 0.30 0.0 0 1 155.33 207.08
  L 148.64 213.12
  A 0.42 0.42 0.0 0 0 149.14 213.78
  Q 155.81 209.53 164.34 208.63
  Q 177.24 205.92 191.75 210.51
  C 200.72 213.35 213.24 218.32 218.01 225.58
  Q 218.37 226.12 217.81 226.45
  L 211.88 230.05
  A 0.89 0.88 64.1 0 0 211.51 231.12
  Q 219.39 251.58 235.81 266.25
  Q 235.86 266.66 237.00 267.52
  L 242.87 273.01
  A 0.40 0.39 -50.6 0 0 243.45 272.95
  Q 245.64 269.92 245.91 266.26
  Q 245.95 265.74 246.30 265.35
  L 251.95 259.02
  Q 252.34 258.58 251.90 258.20
  L 250.18 256.70
  Q 244.51 252.23 240.31 246.88
  A 0.87 0.86 71.0 0 1 240.99 245.48
  C 243.92 245.47 247.98 247.52 250.88 248.38
  Q 251.47 248.55 251.31 247.97
  L 249.44 241.01
  Q 249.33 240.60 248.97 240.35
  Q 242.80 236.21 236.66 232.04
  Q 235.44 231.21 235.29 229.99
  A 1.21 1.21 0.0 0 1 236.77 228.67
  L 244.26 230.47
  Q 244.75 230.59 244.69 230.08
  Q 244.36 227.67 242.07 227.14
  C 227.82 223.91 212.18 215.18 201.80 204.97
  L 195.05 194.77
  A 1.43 1.41 -17.2 0 0 193.83 194.14
  L 186.93 194.29
  A 3.56 3.55 79.0 0 1 183.52 191.98
  L 179.64 181.57
  Q 180.84 180.44 180.27 174.67
  L 180.83 181.67
  A 0.35 0.34 -41.2 0 0 181.51 181.71
  L 183.11 174.66
  Q 183.28 174.45 183.99 174.44
  Q 183.19 176.03 184.30 176.22
  C 189.58 177.14 191.52 180.54 194.13 184.53
  A 0.57 0.57 0.0 0 0 195.17 184.26
  L 195.57 178.23
  Q 195.61 177.63 196.08 178.01
  Q 196.96 178.72 197.49 178.74
  Q 203.48 178.99 209.24 180.64
  Q 209.51 180.72 209.50 181.00
  Q 209.50 181.16 209.50 181.31
  A 0.26 0.26 0.0 0 1 209.21 181.57
  L 197.34 179.68
  Q 196.76 179.59 196.63 180.16
  L 195.06 187.03
  C 192.20 183.44 189.04 176.91 184.09 177.12
  Q 183.61 177.14 183.45 177.59
  Q 180.84 184.64 184.57 191.16
  Q 184.72 191.43 184.95 191.49
  Q 185.27 191.58 185.24 191.25
  L 184.94 188.13
  A 0.28 0.28 0.0 0 1 185.49 188.04
  L 186.34 191.70
  Q 186.43 192.10 186.74 192.37
  Q 188.13 193.55 190.36 192.71
  Q 190.78 192.39 191.47 192.23
  Q 191.57 192.42 191.85 192.58
  Q 192.04 192.69 192.31 192.68
  Q 197.02 192.44 201.54 191.08
  L 222.13 185.37
  Q 222.82 185.18 222.13 184.98
  L 213.88 182.60
  A 3.22 3.21 -81.2 0 1 211.56 179.42
  L 211.82 171.14
  A 1.29 1.28 6.0 0 0 210.76 169.84
  L 205.06 168.81
  L 204.90 168.37
  Q 204.74 167.91 205.20 167.78
  L 205.76 167.62
  Q 206.36 168.03 206.82 167.32
  Q 208.87 164.13 210.38 160.83
  A 0.44 0.44 0.0 0 0 209.84 160.23
  L 203.82 162.20
  Q 206.89 160.30 205.01 160.40
  L 209.66 158.52
  Q 210.14 158.33 210.03 157.81
  C 209.71 156.27 208.75 154.34 208.41 153.32
  C 205.98 145.86 202.56 138.13 201.02 130.50
  Q 201.58 130.56 201.88 129.89
  L 208.63 149.34
  L 210.40 155.54
  A 0.34 0.34 0.0 0 0 211.06 155.54
  L 214.58 142.20
  L 218.42 130.66
  Q 218.56 130.26 218.26 129.97
  L 218.02 129.73
  Q 217.75 129.46 218.07 129.27
  C 219.97 128.12 221.57 123.29 222.57 121.14
  A 0.87 0.87 0.0 0 1 224.20 121.32
  L 224.88 124.32
  A 0.39 0.39 0.0 0 0 225.52 124.53
  L 227.77 122.60
  A 0.76 0.75 45.6 0 1 228.77 122.62
  Q 231.76 125.32 232.33 129.36
  A 0.39 0.39 0.0 0 0 233.05 129.50
  C 235.26 125.68 226.10 110.08 223.44 105.95
  A 0.79 0.79 0.0 0 0 221.99 106.36
  L 221.87 112.20
  L 221.26 110.67
  L 221.61 105.06
  A 1.01 1.01 0.0 0 1 223.44 104.53
  Q 230.49 114.19 234.16 125.40
  Z"
/>
<g stroke-width="2.00" fill="none" stroke-linecap="butt">
<path stroke="#cfd2cf" vector-effect="non-scaling-stroke" d="
  M 262.76 256.82
  Q 263.26 253.53 262.46 251.87
  A 1.06 1.05 80.6 0 0 261.64 251.28
  Q 259.69 251.05 258.70 252.78
  A 0.49 0.49 0.0 0 1 257.79 252.58
  L 257.72 251.90"
/>
<path stroke="#cfd2cf" vector-effect="non-scaling-stroke" d="
  M 271.19 260.48
  L 271.82 254.71
  A 1.58 1.57 72.0 0 0 269.20 253.37
  L 264.32 257.80"
/>
<path stroke="#cfd2cf" vector-effect="non-scaling-stroke" d="
  M 281.77 264.06
  Q 281.00 264.10 280.67 263.81
  Q 280.27 263.46 280.64 263.08
  C 282.56 261.11 279.94 259.16 278.56 258.03
  Q 278.19 257.73 277.74 257.91
  Q 276.49 258.40 275.70 257.51"
/>
<path stroke="#bfc058" vector-effect="non-scaling-stroke" d="
  M 254.45 272.84
  L 247.07 266.95"
/>
<path stroke="#bfc058" vector-effect="non-scaling-stroke" d="
  M 264.02 278.06
  L 255.37 274.02"
/>
<path stroke="#cfd2cf" vector-effect="non-scaling-stroke" d="
  M 289.48 270.22
  Q 290.02 267.31 288.78 265.58
  A 1.07 1.04 -59.1 0 1 288.60 264.82
  Q 288.74 263.89 287.92 263.18
  Q 287.51 262.83 287.01 263.00
  C 285.70 263.43 284.97 265.13 284.17 265.21
  Q 283.57 265.27 282.91 264.67"
/>
<path stroke="#bfc058" vector-effect="non-scaling-stroke" d="
  M 274.25 281.87
  L 265.23 278.99"
/>
<path stroke="#cfd2cf" vector-effect="non-scaling-stroke" d="
  M 270.37 317.50
  Q 260.70 313.32 250.96 306.78
  Q 249.12 305.54 248.04 304.37
  Q 247.73 304.02 247.26 304.07
  Q 246.72 304.13 246.50 304.74"
/>
</g>
<path fill="#383730" d="
  M 224.46 153.70
  L 213.35 157.84
  A 1.08 1.08 0.0 0 1 211.93 156.56
  Q 216.10 140.15 222.43 124.43
  A 0.45 0.45 0.0 0 1 223.28 124.50
  L 228.91 148.80
  A 0.32 0.32 0.0 0 0 229.53 148.80
  L 235.10 126.78
  L 238.34 118.67
  A 0.33 0.33 0.0 0 1 238.96 118.72
  C 239.83 122.32 239.90 126.16 240.70 129.63
  Q 242.44 137.24 242.79 145.06
  A 0.86 0.86 0.0 0 1 242.36 145.84
  Q 233.81 150.67 224.46 153.70
  Z"
/>
<path fill="#383730" d="
  M 201.02 130.50
  C 202.56 138.13 205.98 145.86 208.41 153.32
  C 208.75 154.34 209.71 156.27 210.03 157.81
  Q 210.14 158.33 209.66 158.52
  L 205.01 160.40
  L 197.96 162.53
  A 1.73 1.73 0.0 0 1 195.89 161.62
  C 193.92 157.44 194.52 153.88 194.58 149.44
  Q 194.75 135.43 197.11 121.79
  A 0.39 0.39 0.0 0 1 197.86 121.72
  L 201.02 130.50
  Z"
/>
<path fill="#22241d" d="
  M 174.77 139.74
  C 175.49 145.28 180.65 149.38 181.59 154.75
  A 0.41 0.41 0.0 0 1 181.30 155.22
  Q 180.74 155.39 180.69 154.83
  A 0.63 0.63 0.0 0 0 179.49 154.63
  L 178.31 157.26
  Q 178.12 157.67 178.36 158.05
  L 180.32 161.25
  Q 180.58 161.69 181.09 161.75
  Q 182.49 161.93 183.19 160.56
  A 0.96 0.96 0.0 0 1 184.91 160.57
  L 186.17 163.09
  A 0.54 0.54 0.0 0 1 185.83 163.85
  Q 184.13 164.32 182.68 163.35
  A 0.98 0.97 -37.6 0 0 181.80 163.24
  C 175.48 165.48 173.55 153.87 172.60 149.84
  Q 170.49 140.94 167.84 131.99
  Q 166.29 127.76 166.53 122.84
  A 0.41 0.41 0.0 0 1 167.32 122.70
  L 174.77 139.74
  Z"
/>
<path fill="#6e6c6f" d="
  M 228.15 124.72
  Q 228.63 124.24 228.99 124.83
  C 232.97 131.50 231.36 135.88 229.42 142.81
  Q 229.23 143.49 229.08 142.80
  Q 227.67 136.45 226.19 130.15
  C 225.60 127.63 226.47 126.40 228.15 124.72
  Z"
/>
<path fill="#0b0b0a" d="
  M 259.64 128.44
  L 259.80 129.66
  Q 259.86 130.09 259.57 130.43
  Q 256.45 133.99 251.89 135.97
  L 259.64 128.44
  Z"
/>
<path fill="#0b0b0a" d="
  M 184.48 138.85
  L 176.05 131.26
  A 0.61 0.61 0.0 0 0 175.04 131.80
  L 175.74 136.51
  Q 175.27 136.12 175.14 136.53
  Q 174.11 133.58 174.47 130.68
  Q 174.60 129.64 175.49 130.18
  Q 181.43 133.79 184.48 138.85
  Z"
/>
<path fill="#4d4c56" d="
  M 186.77 130.04
  C 188.85 131.42 191.57 132.66 194.10 133.02
  A 0.41 0.41 0.0 0 1 194.32 133.73
  L 187.50 139.80
  A 0.66 0.66 0.0 0 1 186.41 139.22
  Q 186.96 134.91 185.74 130.81
  A 0.68 0.68 0.0 0 1 186.77 130.04
  Z"
/>
<path fill="#a5aca8" d="
  M 184.48 138.85
  L 184.67 139.03
  L 186.08 141.14
  Q 186.40 141.61 186.05 142.06
  Q 183.15 145.86 181.76 150.39
  Q 181.53 151.12 181.08 150.51
  Q 177.40 145.49 176.06 139.79
  Q 175.99 139.66 175.91 139.54
  Q 176.24 137.77 175.74 136.51
  L 175.04 131.80
  A 0.61 0.61 0.0 0 1 176.05 131.26
  L 184.48 138.85
  Z"
/>
<path fill="#a5aca8" d="
  M 250.91 131.92
  Q 248.76 138.79 243.83 143.45
  C 243.53 140.47 246.30 137.28 246.73 133.76
  L 247.12 134.64
  Q 247.42 135.31 247.72 134.64
  Q 248.51 132.88 250.91 131.92
  Z"
/>
<path fill="#4d4c56" d="
  M 189.00 141.43
  C 185.85 144.58 184.23 149.77 183.49 154.24
  Q 183.41 154.76 183.05 154.38
  C 179.31 150.36 190.71 137.64 193.79 135.12
  A 0.38 0.37 73.2 0 1 194.40 135.45
  L 193.76 142.62
  Q 193.72 143.12 193.44 143.54
  L 190.27 148.40
  A 0.44 0.43 -27.6 0 1 189.47 148.15
  L 189.67 141.72
  A 0.39 0.39 0.0 0 0 189.00 141.43
  Z"
/>
<path fill="#383730" d="
  M 175.74 136.51
  Q 176.24 137.77 175.91 139.54
  L 175.14 136.53
  Q 175.27 136.12 175.74 136.51
  Z"
/>
<path fill="#4d4c56" d="
  M 214.58 142.20
  L 211.06 155.54
  A 0.34 0.34 0.0 0 1 210.40 155.54
  L 208.63 149.34
  Q 211.33 142.76 214.58 142.20
  Z"
/>
<path fill="#f8f7f6" d="
  M 193.30 159.10
  L 185.09 160.10
  Q 183.31 152.70 188.20 144.36
  A 0.26 0.26 0.0 0 1 188.69 144.51
  L 187.89 156.08
  A 0.12 0.12 0.0 0 0 188.12 156.12
  Q 189.83 150.39 193.13 145.39
  A 0.28 0.28 0.0 0 1 193.65 145.55
  L 193.30 159.10
  Z"
/>
<path fill="#6e6c6f" d="
  M 254.16 195.99
  L 252.98 207.27
  A 0.59 0.59 0.0 0 1 251.85 207.46
  Q 246.22 195.51 236.20 187.00
  A 0.59 0.58 -72.9 0 0 235.24 187.51
  Q 235.25 187.66 235.25 187.78
  Q 235.25 188.06 235.39 188.31
  C 240.46 196.71 246.50 209.17 245.24 219.19
  A 2.30 2.29 -79.1 0 1 242.39 221.13
  Q 232.62 218.64 224.73 210.58
  Q 227.61 210.65 230.25 212.42
  A 1.11 1.11 0.0 0 0 231.67 210.74
  L 231.39 210.44
  C 228.65 207.26 216.16 196.09 213.24 202.53
  A 0.54 0.54 0.0 0 1 212.46 202.76
  Q 211.62 202.21 211.52 201.14
  Q 211.47 200.60 211.18 200.14
  L 207.34 194.16
  C 211.65 192.76 219.54 190.36 220.51 187.26
  Q 225.09 185.81 228.03 184.32
  Q 230.85 182.90 227.81 183.75
  C 223.39 184.97 217.64 182.35 213.41 180.89
  Q 212.91 180.72 212.88 180.20
  Q 212.65 176.07 213.03 172.00
  C 213.35 168.60 210.88 168.72 208.58 168.16
  Q 208.06 168.03 208.30 167.56
  L 212.31 159.75
  Q 212.53 159.32 212.99 159.14
  L 224.80 154.74
  Q 234.10 151.52 242.73 146.94
  Q 243.20 146.69 243.49 147.15
  C 252.49 161.32 255.61 179.58 254.16 195.99
  Z"
/>
<path fill="#e5db5a" d="
  M 152.08 167.45
  Q 150.11 164.18 143.48 165.50
  L 146.77 159.65
  Q 147.08 159.10 146.47 159.27
  C 143.89 160.00 142.38 170.44 137.15 165.17
  A 2.32 2.32 0.0 0 1 137.00 162.06
  Q 141.13 157.01 147.43 155.39
  C 150.72 154.55 152.62 155.98 155.08 157.91
  C 158.34 160.47 153.93 165.73 152.08 167.45
  Z"
/>
<path fill="#e5db5a" d="
  M 162.30 170.42
  Q 158.58 166.58 154.04 167.25
  C 156.12 163.98 158.29 161.06 157.08 157.72
  A 0.40 0.39 -5.2 0 1 157.52 157.20
  Q 161.77 157.89 164.29 161.39
  A 1.16 1.14 -55.8 0 1 164.47 162.36
  L 162.30 170.42
  Z"
/>
<path fill="#a5aca8" d="
  M 193.30 159.10
  L 194.83 162.07
  Q 195.11 162.62 194.50 162.49
  L 188.94 161.25
  Q 188.49 161.15 188.07 161.34
  Q 186.65 161.97 185.09 160.10
  L 193.30 159.10
  Z"
/>
<path fill="#f8f7f6" d="
  M 205.76 167.62
  L 201.95 167.21
  Q 201.54 167.17 201.82 166.88
  Q 201.99 166.71 202.54 166.58
  Q 203.55 166.29 203.50 165.50
  Q 203.38 163.38 203.82 162.20
  L 209.84 160.23
  A 0.44 0.44 0.0 0 1 210.38 160.83
  Q 208.87 164.13 206.82 167.32
  Q 206.36 168.03 205.76 167.62
  Z"
/>
<path fill="#e5db5a" d="
  M 164.61 169.93
  Q 164.05 170.28 163.93 169.49
  C 164.77 166.52 165.02 159.94 169.38 160.70
  Q 169.81 160.78 170.14 161.06
  C 173.86 164.26 176.67 167.57 172.84 172.45
  Q 172.57 172.79 172.21 172.55
  Q 168.62 170.17 164.61 169.93
  Z"
/>
<path fill="#6e6c6f" d="
  M 142.50 171.46
  C 142.83 174.55 143.61 178.72 146.85 180.01
  Q 150.99 181.66 155.11 179.86
  Q 163.30 187.56 160.39 198.41
  Q 160.26 198.90 159.81 199.14
  L 157.11 200.55
  C 150.00 204.12 148.48 209.65 146.01 217.78
  C 144.88 221.51 144.56 226.15 142.10 229.26
  Q 137.72 234.82 133.28 240.27
  Q 132.45 241.28 133.49 241.68
  A 0.73 0.73 0.0 0 0 134.35 241.43
  L 144.78 227.10
  L 159.37 216.00
  Q 169.06 214.40 180.26 217.48
  C 189.24 219.94 194.55 225.29 199.56 233.66
  C 207.26 246.52 214.12 259.79 219.47 273.72
  A 1.79 1.78 -1.4 0 1 217.25 276.05
  L 210.39 273.83
  Q 207.62 269.94 205.28 266.08
  C 202.46 261.41 196.84 257.64 192.99 253.62
  C 191.68 252.25 190.16 251.74 188.45 251.13
  C 184.26 249.65 183.49 253.37 181.74 255.85
  Q 181.45 256.26 180.97 256.42
  L 171.03 259.67
  L 157.76 261.33
  Q 154.28 259.38 149.84 259.29
  C 143.20 259.14 137.12 258.53 130.65 257.82
  C 127.34 257.46 124.61 255.72 121.34 255.07
  A 3.59 3.57 85.3 0 1 118.70 252.82
  C 116.87 247.88 114.57 242.62 108.42 242.26
  Q 104.59 242.04 104.07 237.73
  Q 102.83 227.36 104.23 219.49
  Q 104.59 217.47 102.61 214.41
  Q 106.12 198.98 111.27 186.30
  C 113.84 179.94 120.72 174.94 127.83 169.34
  C 130.26 167.43 130.84 164.00 134.37 162.55
  A 0.72 0.72 0.0 0 1 135.36 163.22
  Q 135.34 165.97 137.73 166.88
  A 0.51 0.51 0.0 0 1 137.91 167.72
  L 137.57 168.05
  Q 137.12 168.50 137.68 168.81
  L 142.50 171.46
  Z"
/>
<path fill="#383730" d="
  M 195.22 164.18
  L 196.20 167.77
  Q 196.37 168.39 195.78 168.62
  L 186.13 172.41
  A 0.95 0.95 0.0 0 1 184.84 171.49
  Q 185.00 167.12 187.66 163.41
  C 189.11 161.38 192.55 163.31 194.55 163.59
  Q 195.08 163.67 195.22 164.18
  Z"
/>
<path fill="#a5aca8" d="
  M 199.58 164.69
  A 0.69 0.69 0.0 0 1 200.05 163.50
  L 200.70 163.50
  A 0.55 0.55 0.0 0 1 201.24 164.16
  Q 200.88 165.92 199.58 164.69
  Z"
/>
<path fill="#0b0b0a" d="
  M 132.71 165.10
  C 133.24 164.68 133.62 164.02 134.33 163.75
  A 0.20 0.20 0.0 0 1 134.55 164.06
  Q 133.61 165.15 132.35 165.82
  Q 131.92 166.05 132.19 165.65
  Q 132.41 165.34 132.71 165.10
  Z"
/>
<path fill="#a5aca8" d="
  M 199.21 166.82
  Q 199.51 167.01 199.46 167.39
  A 0.67 0.67 0.0 0 1 198.86 167.98
  L 197.97 168.06
  Q 196.32 166.55 196.66 164.43
  Q 196.82 163.46 197.39 164.26
  L 199.21 166.82
  Z"
/>
<path fill="#f8f7f6" d="
  M 279.32 224.37
  C 282.65 224.32 286.47 223.42 289.32 225.37
  Q 289.75 225.67 289.85 226.18
  L 291.11 232.78
  Q 291.92 239.79 291.11 246.79
  C 284.25 244.19 276.71 242.00 269.64 246.02
  Q 269.08 246.34 268.87 245.73
  L 268.67 245.13
  Q 268.49 244.60 267.96 244.79
  L 260.72 247.52
  Q 260.12 247.75 259.96 247.12
  L 257.65 237.99
  A 0.75 0.73 -32.5 0 1 257.80 237.34
  L 264.51 229.37
  A 1.30 1.29 10.6 0 0 263.10 227.31
  L 255.49 229.91
  A 0.63 0.63 0.0 0 1 254.72 229.59
  L 253.03 226.19
  Q 252.77 225.68 253.23 225.33
  C 263.28 217.56 262.58 201.96 260.85 191.24
  C 260.22 185.24 257.93 169.01 253.68 164.50
  Q 253.36 164.16 253.77 163.95
  Q 253.99 163.83 254.23 164.01
  C 263.96 171.37 272.05 184.31 276.54 195.57
  Q 276.73 196.04 276.53 196.50
  L 272.67 205.56
  A 0.93 0.91 0.6 0 1 272.17 206.04
  Q 271.67 206.23 271.32 206.55
  Q 270.55 207.23 271.54 206.95
  C 281.31 204.17 288.65 204.63 297.55 210.06
  C 309.89 217.58 319.39 229.90 325.74 242.60
  Q 325.97 243.08 325.45 242.97
  Q 324.52 242.78 324.21 242.27
  C 316.38 229.08 293.06 202.88 277.68 223.06
  A 1.33 0.97 46.0 0 0 277.88 224.50
  Q 278.21 224.89 279.32 224.37
  Z"
/>
<path fill="#a5aca8" d="
  M 182.93 164.71
  A 0.21 0.21 0.0 0 1 183.20 164.84
  L 183.36 165.28
  A 3.40 0.71 70.3 0 1 183.83 168.72
  L 183.68 168.78
  A 3.40 0.71 70.3 0 1 181.87 165.82
  L 181.71 165.37
  A 0.21 0.21 0.0 0 1 181.84 165.10
  L 182.93 164.71
  Z"
/>
<path fill="#98a555" d="
  M 143.48 165.50
  Q 150.11 164.18 152.08 167.45
  Q 149.71 170.33 146.60 171.31
  A 1.51 1.46 -44.0 0 1 145.71 171.31
  L 139.34 169.17
  A 0.69 0.69 0.0 0 1 139.33 167.87
  Q 142.19 166.85 143.48 165.50
  Z"
/>
<path fill="#6e6c6f" d="
  M 202.54 166.58
  Q 201.99 166.71 201.82 166.88
  Q 201.54 167.17 201.95 167.21
  L 205.76 167.62
  L 205.20 167.78
  Q 204.74 167.91 204.90 168.37
  L 205.06 168.81
  L 197.48 168.62
  Q 198.16 168.43 197.97 168.06
  L 198.86 167.98
  A 0.67 0.67 0.0 0 0 199.46 167.39
  Q 199.51 167.01 199.21 166.82
  Q 200.80 166.24 202.54 166.58
  Z"
/>
<path fill="#98a555" d="
  M 154.04 167.25
  Q 158.58 166.58 162.30 170.42
  Q 161.30 173.17 158.96 175.67
  Q 158.62 176.03 158.14 176.14
  C 153.87 177.11 151.87 177.87 148.30 174.68
  Q 147.89 174.31 148.25 173.89
  L 154.04 167.25
  Z"
/>
<path fill="#e5db5a" d="
  M 197.48 168.62
  L 205.06 168.81
  L 210.76 169.84
  A 1.29 1.28 6.0 0 1 211.82 171.14
  L 211.56 179.42
  A 3.22 3.21 -81.2 0 0 213.88 182.60
  L 222.13 184.98
  Q 222.82 185.18 222.13 185.37
  L 201.54 191.08
  L 196.64 190.53
  Q 196.13 190.48 195.82 190.07
  Q 193.52 187.12 195.06 187.03
  L 196.63 180.16
  Q 196.76 179.59 197.34 179.68
  L 209.21 181.57
  A 0.26 0.26 0.0 0 0 209.50 181.31
  Q 209.50 181.16 209.50 181.00
  Q 209.51 180.72 209.24 180.64
  Q 203.48 178.99 197.49 178.74
  Q 196.96 178.72 196.08 178.01
  Q 195.61 177.63 195.57 178.23
  L 195.17 184.26
  A 0.57 0.57 0.0 0 1 194.13 184.53
  C 191.52 180.54 189.58 177.14 184.30 176.22
  Q 183.19 176.03 183.99 174.44
  L 197.48 168.62
  Z"
/>
<path fill="#98a555" d="
  M 163.93 169.49
  Q 164.05 170.28 164.61 169.93
  Q 163.80 170.46 164.06 171.18
  Q 165.41 174.84 166.95 178.54
  A 1.76 1.75 -15.9 0 1 165.61 180.94
  L 158.96 182.01
  A 1.97 1.97 0.0 0 1 156.83 179.30
  C 157.60 177.46 159.47 176.90 160.56 175.33
  Q 162.50 172.53 163.93 169.49
  Z"
/>
<path fill="#0b0b0a" d="
  M 238.16 171.59
  Q 238.14 171.11 238.25 170.91
  A 0.41 0.34 70.5 0 1 238.89 171.29
  Q 237.87 176.03 235.05 179.98
  Q 234.80 180.34 234.58 179.96
  Q 234.51 179.85 234.51 179.69
  C 234.42 178.02 238.26 174.00 238.16 171.59
  Z"
/>
<path fill="#e5db5a" d="
  M 161.02 187.64
  L 166.99 186.29
  Q 167.51 186.18 167.82 185.75
  L 171.80 180.20
  L 172.83 179.57
  L 173.93 178.87
  A 0.58 0.57 -30.6 0 0 174.13 178.11
  C 172.36 174.82 169.40 173.12 165.90 172.38
  Q 165.22 171.71 165.56 171.11
  Q 165.85 170.62 166.39 170.79
  C 171.30 172.38 175.37 175.32 178.02 179.83
  Q 178.29 180.29 178.17 180.80
  Q 176.36 188.25 173.88 195.51
  C 172.57 199.37 164.17 199.12 161.63 199.44
  Q 160.96 199.53 161.17 198.89
  Q 162.87 193.62 161.02 187.64
  Z"
/>
<path fill="#e5db5a" d="
  M 173.55 173.23
  A 0.15 0.14 -53.3 0 1 173.53 173.04
  L 174.91 170.95
  A 0.49 0.47 33.2 0 1 175.58 170.82
  Q 178.30 172.64 177.58 175.98
  Q 177.42 176.69 176.88 176.21
  L 173.55 173.23
  Z"
/>
<path fill="#e5db5a" d="
  M 183.11 174.66
  L 181.51 181.71
  A 0.35 0.34 -41.2 0 1 180.83 181.67
  L 180.27 174.67
  L 182.37 171.27
  A 0.52 0.52 0.0 0 1 183.27 171.80
  Q 182.45 173.25 183.11 174.66
  Z"
/>
<path fill="#4d4c56" d="
  M 142.50 171.46
  C 145.14 173.06 146.90 175.31 149.51 176.72
  Q 152.32 178.22 155.11 179.86
  Q 150.99 181.66 146.85 180.01
  C 143.61 178.72 142.83 174.55 142.50 171.46
  Z"
/>
<path fill="#98a555" d="
  M 172.83 179.57
  Q 171.32 178.83 169.52 180.00
  Q 169.23 180.18 169.56 180.29
  Q 170.55 180.60 171.80 180.20
  L 167.82 185.75
  Q 167.51 186.18 166.99 186.29
  L 161.02 187.64
  Q 160.50 186.85 160.38 185.11
  Q 160.33 184.45 160.98 184.58
  L 165.70 185.56
  Q 166.32 185.69 166.58 185.11
  L 168.55 180.71
  Q 168.75 180.26 168.58 179.80
  L 165.90 172.38
  C 169.40 173.12 172.36 174.82 174.13 178.11
  A 0.58 0.57 -30.6 0 1 173.93 178.87
  L 172.83 179.57
  Z"
/>
<path fill="#98a555" d="
  M 195.06 187.03
  Q 193.52 187.12 195.82 190.07
  Q 196.13 190.48 196.64 190.53
  L 201.54 191.08
  Q 197.02 192.44 192.31 192.68
  Q 192.04 192.69 191.85 192.58
  Q 191.57 192.42 191.47 192.23
  L 189.34 188.10
  Q 189.00 187.45 188.78 188.14
  Q 188.67 188.50 188.86 188.92
  Q 189.70 190.74 190.36 192.71
  Q 188.13 193.55 186.74 192.37
  Q 186.43 192.10 186.34 191.70
  L 185.49 188.04
  A 0.28 0.28 0.0 0 0 184.94 188.13
  L 185.24 191.25
  Q 185.27 191.58 184.95 191.49
  Q 184.72 191.43 184.57 191.16
  Q 180.84 184.64 183.45 177.59
  Q 183.61 177.14 184.09 177.12
  C 189.04 176.91 192.20 183.44 195.06 187.03
  Z"
/>
<path fill="#22241d" d="
  M 172.83 179.57
  L 171.80 180.20
  Q 170.55 180.60 169.56 180.29
  Q 169.23 180.18 169.52 180.00
  Q 171.32 178.83 172.83 179.57
  Z"
/>
<path fill="#383730" d="
  M 259.78 193.00
  C 260.52 204.08 261.70 217.35 251.42 224.67
  Q 250.71 225.18 251.07 225.99
  L 253.33 231.09
  A 1.29 1.29 0.0 0 0 254.98 231.76
  L 261.13 229.30
  A 0.60 0.60 0.0 0 1 261.81 230.24
  L 256.33 236.73
  A 0.90 0.89 59.0 0 0 256.14 237.51
  L 258.60 248.00
  Q 258.72 248.55 258.38 249.00
  Q 256.69 251.22 255.46 253.67
  C 254.90 254.77 255.15 256.59 253.48 257.55
  A 0.71 0.71 0.0 0 1 252.64 257.47
  L 242.98 248.78
  A 0.81 0.80 75.6 0 1 243.78 247.42
  L 251.03 250.00
  A 1.40 1.40 0.0 0 0 252.82 248.24
  C 251.28 243.64 251.74 240.02 246.99 237.32
  Q 242.02 234.49 237.56 230.94
  Q 236.54 230.13 237.81 230.44
  L 244.68 232.08
  A 1.38 1.37 -86.7 0 0 246.36 230.58
  C 246.04 227.75 244.19 226.31 241.38 225.62
  C 229.57 222.74 218.38 216.04 208.49 209.20
  A 1.14 1.13 -45.6 0 1 208.47 207.35
  Q 208.76 207.13 209.31 207.19
  Q 209.67 207.23 210.07 207.52
  Q 212.86 209.51 216.26 211.45
  A 0.57 0.57 0.0 0 0 217.07 210.74
  L 216.45 209.23
  Q 216.24 208.72 216.78 208.70
  L 219.94 208.55
  Q 220.49 208.52 220.85 208.93
  C 224.26 212.72 246.66 231.53 247.04 217.63
  C 247.27 209.10 243.70 201.45 239.73 193.29
  Q 239.49 192.80 239.09 192.45
  Q 238.57 192.00 238.55 191.33
  A 0.33 0.33 0.0 0 1 239.13 191.10
  Q 246.70 199.80 251.91 210.13
  A 0.89 0.88 -51.5 0 0 253.56 209.94
  Q 255.24 203.07 255.34 195.99
  L 255.45 181.79
  A 0.83 0.83 0.0 0 1 257.02 181.43
  Q 259.61 186.69 259.78 193.00
  Z"
/>
<path fill="#6e6c6f" d="
  M 160.49 183.48
  A 0.34 0.34 0.0 0 1 160.51 182.82
  L 166.13 181.82
  Q 166.64 181.73 166.65 182.25
  C 166.67 185.51 162.25 183.88 160.49 183.48
  Z"
/>
<path fill="#a5aca8" d="
  M 179.64 181.57
  L 183.52 191.98
  A 3.56 3.55 79.0 0 0 186.93 194.29
  L 193.83 194.14
  A 1.43 1.41 -17.2 0 1 195.05 194.77
  L 201.80 204.97
  Q 197.80 204.28 194.48 202.22
  Q 194.08 201.98 193.65 202.16
  Q 193.24 202.33 193.26 202.64
  Q 185.51 196.67 176.87 191.95
  Q 176.42 191.70 176.50 191.18
  Q 177.19 186.73 179.64 181.57
  Z"
/>
<path fill="#4d4c56" d="
  M 220.51 187.26
  C 219.54 190.36 211.65 192.76 207.34 194.16
  L 205.56 192.58
  A 0.64 0.64 0.0 0 1 205.81 191.49
  L 220.51 187.26
  Z"
/>
<path fill="#383730" d="
  M 191.47 192.23
  Q 190.78 192.39 190.36 192.71
  Q 189.70 190.74 188.86 188.92
  Q 188.67 188.50 188.78 188.14
  Q 189.00 187.45 189.34 188.10
  L 191.47 192.23
  Z"
/>
<path fill="#4d4c56" d="
  M 198.76 193.28
  L 203.04 192.50
  A 0.94 0.91 59.2 0 1 203.78 192.70
  Q 207.34 195.79 209.53 199.83
  C 211.10 202.74 212.95 204.94 214.54 207.68
  A 0.48 0.48 0.0 0 1 213.86 208.32
  C 211.57 206.80 209.00 205.68 207.06 203.80
  Q 202.23 199.11 198.44 194.09
  Q 197.94 193.43 198.76 193.28
  Z"
/>
<path fill="#f8f7f6" d="
  M 193.26 202.64
  Q 193.24 202.33 193.65 202.16
  Q 194.08 201.98 194.48 202.22
  Q 197.80 204.28 201.80 204.97
  C 212.18 215.18 227.82 223.91 242.07 227.14
  Q 244.36 227.67 244.69 230.08
  Q 244.75 230.59 244.26 230.47
  L 236.77 228.67
  A 1.21 1.21 0.0 0 0 235.29 229.99
  Q 235.44 231.21 236.66 232.04
  Q 242.80 236.21 248.97 240.35
  Q 249.33 240.60 249.44 241.01
  L 251.31 247.97
  Q 251.47 248.55 250.88 248.38
  C 247.98 247.52 243.92 245.47 240.99 245.48
  A 0.87 0.86 71.0 0 0 240.31 246.88
  Q 244.51 252.23 250.18 256.70
  L 249.06 258.68
  Q 248.24 258.14 247.00 258.75
  Q 240.29 262.02 235.81 266.25
  Q 219.39 251.58 211.51 231.12
  A 0.89 0.88 64.1 0 1 211.88 230.05
  L 217.81 226.45
  Q 218.37 226.12 218.01 225.58
  C 213.24 218.32 200.72 213.35 191.75 210.51
  Q 177.24 205.92 164.34 208.63
  Q 163.43 208.57 163.13 208.25
  Q 162.85 207.95 163.32 207.32
  Q 166.35 203.34 169.73 199.40
  Q 174.01 199.64 175.43 195.58
  A 0.64 0.63 -73.4 0 1 176.18 195.17
  Q 185.36 197.39 192.47 203.28
  Q 192.71 203.48 193.05 203.49
  Q 193.58 203.51 193.39 203.01
  L 193.26 202.64
  Z"
/>
<path fill="#a5aca8" d="
  M 169.73 199.40
  Q 166.35 203.34 163.32 207.32
  Q 162.85 207.95 163.13 208.25
  Q 163.43 208.57 164.34 208.63
  Q 155.81 209.53 149.14 213.78
  A 0.42 0.42 0.0 0 1 148.64 213.12
  L 155.33 207.08
  A 0.30 0.30 0.0 0 0 154.95 206.61
  L 150.97 209.45
  A 0.31 0.30 -6.7 0 1 150.51 209.09
  Q 152.56 203.95 158.12 201.43
  L 169.73 199.40
  Z"
/>
<path fill="#22241d" d="
  M 278.11 203.09
  Q 278.36 203.28 278.46 203.63
  Q 278.64 204.27 277.98 204.26
  L 276.22 204.23
  A 0.76 0.75 -86.5 0 1 275.48 203.39
  L 275.84 200.26
  A 0.47 0.47 0.0 0 1 276.75 200.14
  L 277.75 202.63
  Q 277.87 202.91 278.11 203.09
  Z"
/>
<path fill="#4d4c56" d="
  M 231.39 210.44
  L 231.67 210.74
  A 1.11 1.11 0.0 0 1 230.25 212.42
  Q 227.61 210.65 224.73 210.58
  Q 220.84 207.30 217.63 202.44
  A 0.27 0.27 0.0 0 1 217.99 202.05
  Q 224.79 205.74 230.67 210.75
  Q 230.93 210.97 231.16 210.73
  Q 231.27 210.61 231.39 210.44
  Z"
/>
<path fill="#4d4c56" d="
  M 141.76 202.93
  A 0.24 0.24 0.0 0 1 142.01 202.69
  L 146.39 202.79
  A 1.62 0.68 1.3 0 1 147.99 203.51
  L 147.99 203.61
  A 1.62 0.68 1.3 0 1 146.35 204.25
  L 141.97 204.15
  A 0.24 0.24 0.0 0 1 141.74 203.91
  L 141.76 202.93
  Z"
/>
<path fill="#4d4c56" d="
  M 102.61 214.41
  Q 104.59 217.47 104.23 219.49
  Q 102.83 227.36 104.07 237.73
  Q 104.59 242.04 108.42 242.26
  C 114.57 242.62 116.87 247.88 118.70 252.82
  A 3.59 3.57 85.3 0 0 121.34 255.07
  C 124.61 255.72 127.34 257.46 130.65 257.82
  C 137.12 258.53 143.20 259.14 149.84 259.29
  Q 154.28 259.38 157.76 261.33
  Q 131.02 266.96 107.26 261.01
  C 104.90 260.42 102.96 257.00 101.86 255.64
  C 98.19 251.12 95.03 245.17 96.19 239.15
  Q 98.66 226.33 102.61 214.41
  Z"
/>
<path fill="#4d4c56" d="
  M 159.37 216.00
  L 144.78 227.10
  L 146.92 219.46
  A 1.97 1.96 2.6 0 1 148.46 218.06
  L 159.37 216.00
  Z"
/>
<path fill="#383730" d="
  M 291.11 232.78
  L 289.85 226.18
  Q 289.75 225.67 289.32 225.37
  C 286.47 223.42 282.65 224.32 279.32 224.37
  Q 281.73 219.08 287.09 217.44
  C 297.20 214.36 307.59 223.87 314.00 230.58
  A 1.02 1.01 -60.1 0 1 314.25 231.52
  Q 314.07 232.31 314.66 232.80
  Q 315.05 233.12 314.84 233.59
  Q 314.31 234.83 313.27 234.20
  Q 305.54 229.51 298.34 226.89
  C 295.56 225.88 294.16 227.53 294.23 230.24
  Q 294.41 237.48 293.99 244.66
  Q 293.98 244.82 293.82 244.77
  Q 293.69 244.73 293.55 244.68
  Q 293.41 244.64 293.40 244.49
  L 292.79 232.88
  Q 292.76 232.31 292.19 232.24
  Q 291.49 232.16 291.11 232.78
  Z"
/>
<path fill="#6e6c6f" d="
  M 346.90 284.05
  C 343.10 284.85 339.40 284.76 335.78 285.98
  C 328.17 288.55 318.04 285.31 311.19 281.80
  C 309.88 281.13 307.71 280.81 306.36 279.83
  C 303.26 277.57 301.57 276.52 298.05 276.90
  L 291.82 277.75
  Q 291.10 277.85 291.45 277.22
  Q 293.20 274.00 292.25 270.34
  Q 292.13 269.88 292.45 269.52
  Q 294.85 266.88 295.59 263.13
  Q 304.65 257.27 316.01 254.51
  Q 317.05 254.25 317.53 252.95
  L 322.60 254.03
  A 0.11 0.11 0.0 0 0 322.66 253.82
  L 317.56 252.16
  Q 309.39 250.13 301.00 249.50
  Q 299.27 249.36 296.61 248.35
  A 0.82 0.81 -81.0 0 1 296.10 247.64
  L 295.06 229.12
  A 1.34 1.33 -89.8 0 1 296.47 227.71
  C 298.06 227.80 299.83 228.07 301.33 228.79
  C 312.58 234.16 323.57 240.85 331.10 251.02
  C 334.91 256.17 340.84 259.27 343.36 265.18
  Q 347.20 274.17 346.90 284.05
  Z"
/>
<path fill="#383730" d="
  M 284.20 322.22
  Q 282.20 332.40 284.27 342.00
  C 285.79 349.07 287.17 359.46 289.39 367.58
  C 297.55 397.49 310.48 424.44 322.51 454.49
  Q 322.94 455.57 322.88 456.46
  Q 322.78 457.96 322.07 458.38
  Q 320.57 457.68 319.68 456.50
  C 315.09 449.81 312.60 441.86 309.16 434.99
  Q 308.95 434.57 308.80 435.01
  Q 308.55 435.76 308.77 436.24
  Q 312.60 445.03 316.41 453.82
  Q 317.17 455.56 318.46 456.99
  Q 319.44 458.20 319.56 459.17
  Q 321.57 466.45 324.55 471.70
  Q 324.84 472.20 325.92 472.00
  Q 326.99 473.36 326.68 474.53
  A 0.75 0.74 24.9 0 1 325.53 474.95
  L 317.57 469.43
  L 309.64 461.98
  Q 309.28 461.64 308.88 461.93
  L 308.44 462.23
  Q 303.60 457.94 299.93 452.50
  L 293.38 436.45
  Q 293.30 436.27 293.12 436.18
  Q 292.97 436.10 292.87 436.02
  Q 292.70 435.89 292.78 436.09
  L 298.82 453.05
  L 301.70 462.11
  A 0.74 0.74 0.0 0 1 300.53 462.91
  L 297.63 460.53
  Q 294.83 456.60 291.18 453.43
  C 275.00 439.35 263.40 417.61 257.35 397.37
  Q 255.72 383.19 254.74 378.25
  Q 253.04 369.77 248.75 357.78
  C 247.88 355.34 246.32 352.59 245.43 349.76
  C 244.43 346.60 242.10 343.88 240.11 340.31
  C 239.01 338.34 237.26 337.15 236.14 335.42
  Q 232.66 330.06 228.09 325.65
  C 224.02 321.71 223.72 320.64 218.51 320.14
  A 0.75 0.75 0.0 0 1 217.84 319.48
  Q 217.51 316.75 217.97 314.06
  Q 219.71 303.90 217.15 295.21
  Q 218.12 293.13 217.43 292.05
  Q 212.20 283.91 203.81 273.20
  Q 203.29 272.54 204.05 272.89
  L 210.51 275.86
  C 212.57 276.46 216.92 278.50 218.80 277.43
  C 222.09 275.56 219.86 270.29 218.92 268.07
  Q 210.89 249.02 199.83 231.56
  A 0.32 0.32 0.0 0 1 200.17 231.08
  L 206.93 232.60
  A 0.49 0.48 -15.9 0 1 207.17 232.73
  Q 208.42 234.00 210.19 233.74
  A 0.77 0.77 0.0 0 1 211.01 234.19
  Q 219.29 253.37 234.76 267.44
  Q 235.17 267.81 234.81 268.22
  C 230.00 273.80 229.43 283.42 233.86 289.41
  C 240.07 297.80 248.48 308.81 251.77 316.99
  C 254.43 323.59 257.60 333.27 260.50 335.23
  A 1.02 1.01 -40.3 0 0 261.51 335.31
  C 265.47 333.50 270.90 320.48 271.77 318.52
  Q 271.95 318.11 272.40 318.19
  Q 278.68 319.33 284.20 322.22
  Z"
/>
<path fill="#f8f7f6" d="
  M 291.00 247.81
  L 300.45 252.14
  A 1.75 1.75 0.0 0 1 301.04 254.89
  L 295.54 261.15
  Q 290.63 258.39 286.35 254.87
  C 284.76 253.55 283.60 253.44 281.70 252.92
  Q 281.21 252.78 280.94 252.34
  C 278.06 247.58 273.59 251.23 270.95 247.35
  Q 270.59 246.83 271.14 246.53
  C 276.55 243.53 285.71 245.88 291.00 247.81
  Z"
/>
<path fill="#f8f7f6" d="
  M 262.76 256.82
  Q 263.26 253.53 262.46 251.87
  A 1.06 1.05 80.6 0 0 261.64 251.28
  Q 259.69 251.05 258.70 252.78
  A 0.49 0.49 0.0 0 1 257.79 252.58
  L 257.72 251.90
  Q 261.60 246.49 269.70 247.77
  A 1.32 1.32 0.0 0 1 270.14 250.22
  Q 266.55 252.24 262.76 256.82
  Z"
/>
<path fill="#f8f7f6" d="
  M 271.19 260.48
  L 271.82 254.71
  A 1.58 1.57 72.0 0 0 269.20 253.37
  L 264.32 257.80
  Q 267.60 250.65 275.52 250.36
  C 278.07 250.26 281.52 252.31 277.81 254.70
  Q 274.68 256.72 271.19 260.48
  Z"
/>
<path fill="#4d4c56" d="
  M 210.39 273.83
  Q 209.71 273.65 209.47 273.81
  L 200.08 268.90
  A 0.68 0.68 0.0 0 0 199.09 269.62
  Q 199.17 270.08 199.75 270.75
  Q 208.16 280.60 215.61 291.19
  Q 216.39 292.29 216.38 293.23
  Q 216.37 294.06 215.54 294.01
  Q 207.63 293.59 200.30 290.63
  A 0.67 0.67 0.0 0 0 199.56 291.71
  L 211.77 304.78
  A 0.83 0.83 0.0 0 1 211.50 306.10
  L 203.89 309.58
  Q 203.17 309.90 203.21 309.11
  L 203.37 306.06
  A 1.24 1.24 0.0 0 0 201.46 304.96
  L 193.83 309.89
  Q 193.52 310.09 193.16 310.05
  L 189.18 309.61
  A 0.78 0.78 0.0 0 1 188.53 309.11
  L 182.45 292.79
  Q 182.30 292.41 182.37 292.01
  Q 184.56 278.73 188.93 266.00
  A 0.82 0.82 0.0 0 0 187.80 265.00
  Q 181.99 267.86 177.29 272.33
  A 0.75 0.75 0.0 0 1 176.04 271.91
  L 174.11 260.41
  Q 174.02 259.85 173.45 259.82
  L 171.03 259.67
  L 180.97 256.42
  Q 181.45 256.26 181.74 255.85
  C 183.49 253.37 184.26 249.65 188.45 251.13
  C 190.16 251.74 191.68 252.25 192.99 253.62
  C 196.84 257.64 202.46 261.41 205.28 266.08
  Q 207.62 269.94 210.39 273.83
  Z"
/>
<path fill="#383730" d="
  M 300.11 258.25
  C 301.65 256.19 303.70 254.38 302.06 251.63
  A 0.45 0.45 0.0 0 1 302.48 250.95
  Q 308.80 251.28 314.77 253.38
  A 0.31 0.31 0.0 0 1 314.76 253.97
  Q 313.63 254.29 312.49 254.25
  Q 311.95 254.23 311.45 254.42
  L 300.38 258.61
  Q 299.62 258.90 300.11 258.25
  Z"
/>
<path fill="#a5aca8" d="
  M 262.76 256.82
  Q 261.49 256.94 259.50 257.51
  Q 258.12 257.91 257.17 256.86
  C 255.85 255.42 256.73 253.31 257.72 251.90
  L 257.79 252.58
  A 0.49 0.49 0.0 0 0 258.70 252.78
  Q 259.69 251.05 261.64 251.28
  A 1.06 1.05 80.6 0 1 262.46 251.87
  Q 263.26 253.53 262.76 256.82
  Z"
/>
<path fill="#4d4c56" d="
  M 317.56 252.16
  L 322.66 253.82
  A 0.11 0.11 0.0 0 1 322.60 254.03
  L 317.53 252.95
  Q 317.44 252.70 317.56 252.16
  Z"
/>
<path fill="#a5aca8" d="
  M 271.19 260.48
  L 266.44 260.92
  Q 265.93 260.96 265.54 260.64
  Q 264.15 259.52 264.32 257.80
  L 269.20 253.37
  A 1.58 1.57 72.0 0 1 271.82 254.71
  L 271.19 260.48
  Z"
/>
<path fill="#f8f7f6" d="
  M 281.77 264.06
  Q 281.00 264.10 280.67 263.81
  Q 280.27 263.46 280.64 263.08
  C 282.56 261.11 279.94 259.16 278.56 258.03
  Q 278.19 257.73 277.74 257.91
  Q 276.49 258.40 275.70 257.51
  C 277.74 255.50 283.14 252.68 285.40 255.77
  C 287.38 258.49 284.17 261.72 281.77 264.06
  Z"
/>
<path fill="#a5aca8" d="
  M 250.18 256.70
  L 251.90 258.20
  Q 252.34 258.58 251.95 259.02
  L 246.30 265.35
  Q 245.95 265.74 245.91 266.26
  Q 245.64 269.92 243.45 272.95
  A 0.40 0.39 -50.6 0 1 242.87 273.01
  L 237.00 267.52
  L 249.06 258.68
  L 250.18 256.70
  Z"
/>
<path fill="#e5db5a" d="
  M 254.45 272.84
  L 247.07 266.95
  Q 250.45 261.51 255.68 257.87
  Q 256.08 257.60 256.48 257.86
  Q 258.91 259.40 261.56 258.26
  Q 262.23 257.97 261.89 258.62
  L 254.45 272.84
  Z"
/>
<path fill="#a5aca8" d="
  M 275.70 257.51
  Q 276.49 258.40 277.74 257.91
  Q 278.19 257.73 278.56 258.03
  C 279.94 259.16 282.56 261.11 280.64 263.08
  Q 280.27 263.46 280.67 263.81
  Q 281.00 264.10 281.77 264.06
  C 275.71 269.23 269.06 264.02 275.70 257.51
  Z"
/>
<path fill="#cfd1ce" d="
  M 249.06 258.68
  L 237.00 267.52
  Q 235.86 266.66 235.81 266.25
  Q 240.29 262.02 247.00 258.75
  Q 248.24 258.14 249.06 258.68
  Z"
/>
<path fill="#e5db5a" d="
  M 264.02 278.06
  L 255.37 274.02
  Q 258.19 266.26 262.87 259.96
  Q 263.27 259.42 263.62 260.00
  Q 265.78 263.59 270.22 261.94
  A 0.53 0.53 0.0 0 1 270.85 262.73
  Q 266.35 269.60 264.02 278.06
  Z"
/>
<path fill="#f8f7f6" d="
  M 289.48 270.22
  Q 290.02 267.31 288.78 265.58
  A 1.07 1.04 -59.1 0 1 288.60 264.82
  Q 288.74 263.89 287.92 263.18
  Q 287.51 262.83 287.01 263.00
  C 285.70 263.43 284.97 265.13 284.17 265.21
  Q 283.57 265.27 282.91 264.67
  C 289.69 253.33 300.85 263.93 289.48 270.22
  Z"
/>
<path fill="#22241d" d="
  M 119.79 260.51
  A 0.18 0.18 0.0 0 1 119.62 260.71
  L 119.48 260.72
  A 5.72 0.41 -5.2 0 1 113.75 260.83
  L 113.73 260.65
  A 5.72 0.41 -5.2 0 1 119.39 259.73
  L 119.53 259.71
  A 0.18 0.18 0.0 0 1 119.73 259.88
  L 119.79 260.51
  Z"
/>
<path fill="#a5aca8" d="
  M 289.48 270.22
  C 285.50 273.34 280.50 270.30 282.91 264.67
  Q 283.57 265.27 284.17 265.21
  C 284.97 265.13 285.70 263.43 287.01 263.00
  Q 287.51 262.83 287.92 263.18
  Q 288.74 263.89 288.60 264.82
  A 1.07 1.04 -59.1 0 0 288.78 265.58
  Q 290.02 267.31 289.48 270.22
  Z"
/>
<path fill="#e5db5a" d="
  M 274.25 281.87
  L 265.23 278.99
  Q 266.79 271.03 271.28 264.33
  A 0.43 0.43 0.0 0 1 272.02 264.36
  Q 274.34 268.70 279.25 266.72
  A 0.56 0.56 0.0 0 1 279.96 267.50
  Q 276.61 273.95 274.25 281.87
  Z"
/>
<path fill="#22241d" d="
  M 123.34 372.16
  L 120.27 368.27
  C 120.21 367.38 120.17 366.42 119.61 365.65
  C 111.58 354.52 108.86 341.63 108.58 328.15
  Q 108.38 318.85 111.25 309.84
  Q 111.38 309.41 111.82 309.31
  L 114.18 308.75
  L 115.38 313.56
  A 0.35 0.34 39.7 0 0 116.06 313.50
  Q 117.30 291.02 128.68 271.99
  Q 130.38 270.27 131.35 270.94
  Q 132.00 271.38 131.95 272.94
  Q 131.59 284.04 134.44 294.86
  A 1.21 1.20 -81.0 0 0 134.94 295.55
  L 136.28 296.46
  L 138.58 304.22
  Q 138.56 304.94 138.09 305.32
  Q 137.72 303.66 137.29 302.12
  Q 137.18 301.74 136.97 301.59
  Q 136.70 301.39 136.32 301.50
  Q 135.81 301.64 135.94 302.16
  C 137.17 307.29 138.56 311.83 139.92 317.46
  Q 141.03 322.07 144.04 326.06
  L 144.29 328.01
  Q 144.35 328.51 144.57 328.05
  C 145.88 325.34 145.45 322.42 146.32 320.02
  Q 157.89 288.23 185.95 267.11
  A 0.60 0.60 0.0 0 1 186.88 267.77
  C 181.87 283.06 179.52 299.27 176.20 314.99
  Q 174.01 325.36 173.67 335.24
  Q 173.62 336.53 174.17 335.36
  C 179.03 324.89 188.59 315.53 197.73 308.74
  Q 199.29 307.59 201.07 306.93
  A 0.53 0.53 0.0 0 1 201.79 307.45
  Q 201.77 308.52 201.46 310.49
  Q 199.28 324.75 197.15 349.96
  Q 196.95 352.26 197.78 354.44
  C 201.47 364.17 205.45 374.10 204.97 383.83
  C 204.60 391.50 202.44 398.24 196.27 402.91
  C 193.74 404.82 191.54 405.25 188.48 405.10
  A 0.63 0.63 0.0 0 1 187.90 404.33
  Q 189.61 396.79 191.12 389.07
  C 192.89 379.95 186.42 369.54 180.35 363.15
  C 173.22 355.64 163.44 352.31 153.27 349.48
  C 144.33 347.00 128.21 348.73 127.24 360.66
  Q 126.81 366.06 127.65 371.41
  Q 127.91 373.08 127.69 374.35
  A 0.53 0.53 0.0 0 1 126.69 374.49
  Q 125.55 372.17 123.34 372.16
  Z"
/>
<path fill="#98a555" d="
  M 247.07 266.95
  L 254.45 272.84
  L 253.93 274.65
  Q 253.79 275.16 253.31 274.92
  C 250.62 273.60 246.58 270.16 247.07 266.95
  Z"
/>
<path fill="#0b0b0a" d="
  M 136.28 296.46
  L 134.94 295.55
  A 1.21 1.20 -81.0 0 1 134.44 294.86
  Q 131.59 284.04 131.95 272.94
  Q 132.00 271.38 131.35 270.94
  Q 130.38 270.27 128.68 271.99
  L 131.10 268.56
  A 0.87 0.87 0.0 0 1 132.68 269.06
  Q 132.66 282.99 136.28 296.46
  Z"
/>
<path fill="#e5db5a" d="
  M 283.87 283.61
  L 275.48 282.49
  Q 276.73 276.28 280.39 269.54
  A 0.70 0.70 0.0 0 1 281.70 269.82
  C 281.99 273.66 288.71 272.17 290.63 270.82
  A 0.49 0.49 0.0 0 1 291.39 271.11
  C 292.44 275.73 287.72 280.22 283.87 283.61
  Z"
/>
<path fill="#98a555" d="
  M 245.15 279.15
  A 0.94 0.93 89.4 0 1 244.46 278.47
  Q 243.46 274.38 245.79 271.02
  Q 246.21 270.42 246.65 270.99
  Q 249.62 274.81 253.93 277.02
  A 0.39 0.38 42.5 0 1 253.96 277.69
  Q 249.85 280.21 245.15 279.15
  Z"
/>
<path fill="#98a555" d="
  M 255.37 274.02
  L 264.02 278.06
  L 264.15 280.81
  Q 264.17 281.30 263.69 281.21
  Q 256.78 279.95 255.37 274.02
  Z"
/>
<path fill="#4d4c56" d="
  M 298.05 276.90
  C 301.57 276.52 303.26 277.57 306.36 279.83
  C 307.71 280.81 309.88 281.13 311.19 281.80
  C 318.04 285.31 328.17 288.55 335.78 285.98
  C 339.40 284.76 343.10 284.85 346.90 284.05
  C 343.77 292.39 333.73 304.65 323.15 303.48
  Q 320.08 303.14 314.42 299.76
  Q 301.79 292.21 290.42 282.76
  Q 290.04 282.45 290.20 281.98
  Q 290.61 280.76 290.45 279.13
  Q 294.56 278.79 298.05 276.90
  Z"
/>
<path fill="#a5aca8" d="
  M 256.98 280.81
  L 254.43 279.84
  A 0.91 0.74 -19.4 0 1 255.30 278.43
  Q 256.69 278.89 257.47 280.22
  A 0.41 0.41 0.0 0 1 256.98 280.81
  Z"
/>
<path fill="#98a555" d="
  M 265.23 278.99
  L 274.25 281.87
  L 274.65 283.96
  Q 274.74 284.43 274.27 284.41
  Q 267.92 284.20 265.23 278.99
  Z"
/>
<path fill="#4d4c56" d="
  M 370.00 328.97
  L 370.49 329.00
  A 1.29 1.28 -62.7 0 0 371.38 328.71
  L 377.93 323.44
  A 0.88 0.87 -22.7 0 1 379.35 324.02
  Q 379.64 326.63 379.26 329.47
  C 375.73 355.85 364.14 378.30 341.46 392.91
  A 0.35 0.35 0.0 0 1 341.02 392.38
  Q 347.31 385.68 351.16 377.24
  Q 351.31 376.90 351.24 376.68
  Q 351.18 376.51 351.05 376.41
  Q 350.77 376.18 350.60 376.50
  Q 347.08 383.03 345.13 385.90
  C 336.89 398.08 319.72 408.14 305.65 409.43
  Q 305.13 409.48 304.94 409.00
  Q 296.10 386.93 290.21 363.96
  Q 290.00 363.13 290.02 363.12
  Q 294.16 362.76 298.26 362.74
  C 303.93 362.73 307.83 361.49 312.71 359.46
  Q 313.17 359.27 313.20 358.77
  C 313.65 351.67 312.74 347.65 320.62 345.31
  C 323.89 344.33 327.86 344.81 331.43 344.31
  A 0.47 0.47 0.0 0 0 331.76 343.57
  C 327.44 337.42 316.74 333.43 311.16 330.50
  Q 299.55 324.40 285.81 322.01
  Q 287.47 317.80 290.61 315.58
  Q 291.01 315.30 291.50 315.35
  Q 313.56 317.50 332.50 328.98
  C 340.10 333.58 349.51 340.98 352.62 349.62
  Q 352.73 349.91 353.02 349.82
  Q 353.30 349.74 353.23 349.49
  C 349.31 336.57 333.27 326.63 321.58 321.91
  A 1.16 1.16 0.0 0 1 320.93 320.40
  L 326.70 305.66
  A 0.81 0.81 0.0 0 1 327.17 305.19
  Q 335.19 302.08 341.05 295.79
  A 0.65 0.65 0.0 0 1 342.17 296.12
  Q 343.46 303.28 342.68 310.23
  C 341.93 316.99 341.76 321.18 341.47 326.74
  Q 341.41 327.84 342.00 326.91
  Q 343.67 324.32 346.00 319.03
  Q 355.37 297.73 369.29 279.52
  A 0.84 0.84 0.0 0 1 370.78 279.83
  C 375.21 297.64 372.21 312.02 366.15 329.46
  Q 365.32 331.82 363.51 334.04
  Q 359.69 338.71 356.81 344.05
  Q 356.54 344.55 356.56 345.02
  Q 356.60 345.80 357.02 345.14
  Q 361.10 338.61 366.18 332.85
  C 367.28 331.62 369.05 330.64 370.00 328.97
  Z"
/>
<path fill="#98a555" d="
  M 289.63 279.98
  L 287.63 284.78
  L 285.32 287.05
  A 0.86 0.86 0.0 0 1 284.48 287.26
  C 282.03 286.54 276.59 285.55 275.48 282.49
  L 283.87 283.61
  Q 283.13 283.83 282.93 284.02
  A 0.55 0.55 0.0 0 0 283.57 284.89
  C 285.08 284.11 288.83 279.93 289.63 279.98
  Z"
/>
<path fill="#a5aca8" d="
  M 270.37 317.50
  Q 260.70 313.32 250.96 306.78
  Q 249.12 305.54 248.04 304.37
  Q 247.73 304.02 247.26 304.07
  Q 246.72 304.13 246.50 304.74
  L 234.56 288.24
  A 0.16 0.16 0.0 0 1 234.76 288.00
  L 254.79 298.57
  Q 255.93 299.16 256.46 298.00
  L 261.08 287.97
  A 0.98 0.97 -50.3 0 1 262.76 287.81
  Q 266.09 292.54 268.15 297.93
  Q 268.43 298.65 268.97 298.11
  L 278.26 288.93
  Q 278.60 288.60 278.52 289.07
  Q 276.03 303.82 270.37 317.50
  Z"
/>
<path fill="#22241d" d="
  M 217.15 295.21
  Q 219.71 303.90 217.97 314.06
  Q 217.51 316.75 217.84 319.48
  A 0.75 0.75 0.0 0 0 218.51 320.14
  C 223.72 320.64 224.02 321.71 228.09 325.65
  Q 232.66 330.06 236.14 335.42
  C 237.26 337.15 239.01 338.34 240.11 340.31
  C 242.10 343.88 244.43 346.60 245.43 349.76
  C 246.32 352.59 247.88 355.34 248.75 357.78
  Q 253.04 369.77 254.74 378.25
  Q 255.72 383.19 257.35 397.37
  Q 254.96 393.84 254.20 391.27
  Q 249.51 375.33 243.36 359.93
  C 235.55 340.40 225.34 319.60 203.38 312.63
  A 0.76 0.76 0.0 0 1 203.27 311.23
  L 211.18 307.19
  A 2.46 2.45 -34.6 0 0 211.89 303.36
  L 203.12 293.64
  A 0.34 0.34 0.0 0 1 203.48 293.09
  Q 210.45 295.27 217.15 295.21
  Z"
/>
<path fill="#4d4c56" d="
  M 138.09 305.32
  Q 140.65 313.92 144.15 322.33
  Q 144.90 324.14 144.04 326.06
  Q 141.03 322.07 139.92 317.46
  C 138.56 311.83 137.17 307.29 135.94 302.16
  Q 135.81 301.64 136.32 301.50
  Q 136.70 301.39 136.97 301.59
  Q 137.18 301.74 137.29 302.12
  Q 137.72 303.66 138.09 305.32
  Z"
/>
<path fill="#0b0b0a" d="
  M 114.18 308.75
  L 111.82 309.31
  Q 111.38 309.41 111.25 309.84
  Q 108.38 318.85 108.58 328.15
  C 108.86 341.63 111.58 354.52 119.61 365.65
  C 120.17 366.42 120.21 367.38 120.27 368.27
  C 106.59 351.79 103.63 323.77 112.18 304.58
  A 0.72 0.72 0.0 0 1 113.54 304.76
  L 114.18 308.75
  Z"
/>
<path fill="#f8f7f6" d="
  M 270.37 317.50
  Q 267.05 326.19 262.07 332.87
  A 1.31 1.31 0.0 0 1 259.78 332.53
  Q 254.40 317.80 246.50 304.74
  Q 246.72 304.13 247.26 304.07
  Q 247.73 304.02 248.04 304.37
  Q 249.12 305.54 250.96 306.78
  Q 260.70 313.32 270.37 317.50
  Z"
/>
<path fill="#6e6c6f" d="
  M 179.31 310.54
  L 191.49 310.83
  A 0.50 0.50 0.0 0 1 191.80 311.71
  Q 182.52 319.50 175.88 329.64
  Q 175.34 330.47 175.42 329.49
  Q 176.14 320.15 178.55 311.10
  Q 178.71 310.53 179.31 310.54
  Z"
/>
<path fill="#22241d" d="
  M 314.52 313.52
  L 317.99 319.46
  A 0.41 0.41 0.0 0 1 317.51 320.05
  L 310.12 317.52
  Q 309.33 317.25 309.82 316.57
  L 312.11 313.40
  A 1.44 1.44 0.0 0 1 314.52 313.52
  Z"
/>
<path fill="#6e6c6f" d="
  M 221.92 326.29
  Q 228.97 336.10 231.48 346.26
  Q 232.06 348.61 230.51 356.26
  Q 230.41 356.72 230.10 357.08
  C 228.33 359.08 227.30 361.46 225.33 363.06
  C 222.55 365.32 219.92 366.35 217.29 367.82
  C 215.65 368.73 213.79 368.98 212.25 370.31
  A 1.86 1.77 -70.8 0 1 211.43 370.73
  Q 206.42 371.80 204.01 367.63
  Q 202.54 361.16 199.58 354.88
  Q 198.66 352.93 198.74 350.93
  Q 199.54 332.61 202.23 314.31
  Q 202.35 313.50 203.13 313.75
  Q 214.85 317.43 221.92 326.29
  Z"
/>
<path fill="#4d4c56" d="
  M 145.22 319.73
  A 0.05 0.05 0.0 0 1 145.15 319.76
  L 145.11 319.75
  A 2.34 1.97 -71.9 0 1 143.97 316.91
  L 144.09 316.53
  A 2.34 1.97 -71.9 0 1 146.69 314.92
  L 146.73 314.93
  A 0.05 0.05 0.0 0 1 146.76 314.99
  L 145.22 319.73
  Z"
/>
<path fill="#6e6c6f" d="
  M 285.81 322.01
  Q 299.55 324.40 311.16 330.50
  C 316.74 333.43 327.44 337.42 331.76 343.57
  A 0.47 0.47 0.0 0 1 331.43 344.31
  C 327.86 344.81 323.89 344.33 320.62 345.31
  C 312.74 347.65 313.65 351.67 313.20 358.77
  Q 313.17 359.27 312.71 359.46
  C 307.83 361.49 303.93 362.73 298.26 362.74
  Q 294.16 362.76 290.02 363.12
  Q 287.13 349.82 285.30 337.24
  Q 284.14 329.19 285.81 322.01
  Z"
/>
<path fill="#4d4c56" d="
  M 221.92 326.29
  Q 224.62 328.33 226.77 331.23
  C 238.63 347.25 245.10 368.00 250.95 385.32
  A 0.37 0.37 0.0 0 1 250.47 385.78
  L 248.33 384.96
  A 0.83 0.83 0.0 0 0 247.45 385.15
  Q 243.76 388.84 241.42 390.17
  Q 222.76 400.80 201.51 403.64
  Q 198.66 404.51 196.55 404.02
  C 208.53 396.72 207.70 379.28 204.01 367.63
  Q 206.42 371.80 211.43 370.73
  A 1.86 1.77 -70.8 0 0 212.25 370.31
  C 213.79 368.98 215.65 368.73 217.29 367.82
  C 219.92 366.35 222.55 365.32 225.33 363.06
  C 227.30 361.46 228.33 359.08 230.10 357.08
  Q 230.41 356.72 230.51 356.26
  Q 232.06 348.61 231.48 346.26
  Q 228.97 336.10 221.92 326.29
  Z"
/>
<path fill="#4d4c56" d="
  M 185.62 407.46
  L 175.99 410.50
  A 1.22 1.18 -81.7 0 0 175.33 411.01
  C 173.99 413.06 172.74 414.77 172.49 417.34
  C 171.63 426.20 169.96 434.98 169.40 443.78
  Q 169.05 449.26 168.56 454.86
  Q 162.58 426.48 160.83 397.51
  Q 160.81 397.24 160.70 397.01
  Q 160.50 396.59 160.43 396.53
  Q 159.62 395.94 159.49 396.94
  C 157.62 411.40 156.12 423.89 149.92 437.40
  A 1.77 1.77 0.0 0 1 147.04 437.89
  Q 145.27 436.05 144.01 432.96
  C 139.32 421.42 137.48 408.70 135.15 396.29
  A 0.50 0.50 0.0 0 0 134.20 396.17
  L 133.93 396.76
  A 0.26 0.25 50.8 0 1 133.45 396.71
  Q 130.26 382.94 128.78 369.52
  C 128.02 362.62 127.20 357.79 132.57 353.87
  C 143.63 345.80 159.05 350.84 169.89 356.74
  C 181.55 363.07 192.24 377.64 189.01 391.53
  Q 187.06 399.92 185.62 407.46
  Z"
/>
<path fill="#4d4c56" d="
  M 361.16 402.89
  Q 359.07 402.88 357.97 405.04
  C 355.11 410.62 361.09 418.62 361.47 423.74
  Q 362.35 435.47 364.90 447.50
  Q 364.13 455.13 360.77 462.46
  C 356.16 472.55 344.50 470.27 338.74 462.97
  C 335.39 458.72 333.45 452.92 331.67 449.36
  C 325.43 436.92 317.82 424.12 311.40 411.28
  A 0.92 0.91 67.7 0 1 311.93 410.01
  Q 324.56 405.70 334.70 398.45
  C 342.22 393.08 350.62 388.73 356.92 381.91
  A 0.45 0.45 0.0 0 1 357.69 382.14
  L 361.16 402.89
  Z"
/>
<path fill="#22241d" d="
  M 254.04 395.04
  C 254.65 413.33 258.30 429.89 269.58 444.69
  Q 269.46 445.96 268.93 446.24
  Q 268.54 446.44 267.68 445.89
  Q 258.15 439.84 250.00 432.04
  Q 249.89 431.94 249.81 432.06
  Q 249.74 432.17 249.74 432.31
  Q 249.74 432.46 249.88 432.62
  Q 259.36 443.01 272.07 449.06
  Q 272.52 449.27 272.97 449.05
  L 273.74 448.66
  L 279.19 450.96
  A 0.45 0.45 0.0 0 1 279.11 451.82
  Q 264.76 454.68 251.49 451.32
  Q 243.59 446.60 237.85 440.13
  Q 237.66 439.91 237.53 440.18
  Q 237.45 440.35 237.54 440.46
  Q 243.12 447.51 250.97 452.04
  Q 254.02 453.60 255.92 455.99
  A 0.68 0.68 0.0 0 1 255.37 457.09
  Q 236.33 456.40 223.04 445.28
  Q 219.78 440.94 215.98 437.17
  Q 212.84 434.05 211.18 431.36
  Q 203.77 419.33 198.85 406.07
  Q 198.67 405.58 198.19 405.37
  Q 196.51 404.66 196.55 404.02
  Q 198.66 404.51 201.51 403.64
  L 201.21 404.40
  Q 201.04 404.82 201.46 404.96
  Q 202.44 405.30 202.94 405.20
  C 218.45 401.93 228.45 398.73 240.60 392.13
  Q 244.74 389.88 247.41 387.08
  A 2.59 2.59 0.0 0 1 251.75 388.06
  L 254.04 395.04
  Z"
/>
<path fill="#6e6c6f" d="
  M 361.16 402.89
  Q 363.71 415.57 365.56 432.94
  Q 366.40 440.79 364.90 447.50
  Q 362.35 435.47 361.47 423.74
  C 361.09 418.62 355.11 410.62 357.97 405.04
  Q 359.07 402.88 361.16 402.89
  Z"
/>
<path fill="#6e6c6f" d="
  M 185.62 407.46
  Q 181.91 431.06 177.21 453.20
  C 176.65 455.87 175.28 458.48 174.39 461.19
  A 1.14 1.14 0.0 0 1 172.32 461.40
  L 168.56 454.86
  Q 169.05 449.26 169.40 443.78
  C 169.96 434.98 171.63 426.20 172.49 417.34
  C 172.74 414.77 173.99 413.06 175.33 411.01
  A 1.22 1.18 -81.7 0 1 175.99 410.50
  L 185.62 407.46
  Z"
/>
<path fill="#22241d" d="
  M 166.54 453.40
  Q 155.20 445.60 144.05 452.20
  Q 143.57 452.49 143.80 453.77
  Q 141.98 453.05 141.05 451.84
  Q 140.70 451.38 141.17 451.04
  C 145.99 447.53 142.35 436.76 140.92 431.62
  A 0.30 0.29 83.3 0 1 141.21 431.25
  Q 141.36 431.25 141.50 431.25
  Q 141.80 431.24 141.88 431.52
  Q 143.20 436.52 147.22 439.85
  Q 147.68 440.23 148.25 440.03
  C 154.20 437.91 158.70 415.91 159.39 410.18
  A 0.20 0.20 0.0 0 1 159.79 410.17
  L 166.54 453.40
  Z"
/>
<path fill="#0b0b0a" d="
  M 248.21 430.01
  A 0.15 0.15 0.0 0 1 247.96 430.17
  Q 246.72 428.44 245.81 426.50
  A 0.20 0.20 0.0 0 1 246.17 426.32
  L 248.21 430.01
  Z"
/>
<path fill="#0b0b0a" d="
  M 269.58 444.69
  L 273.74 448.66
  L 272.97 449.05
  Q 272.52 449.27 272.07 449.06
  Q 259.36 443.01 249.88 432.62
  Q 249.74 432.46 249.74 432.31
  Q 249.74 432.17 249.81 432.06
  Q 249.89 431.94 250.00 432.04
  Q 258.15 439.84 267.68 445.89
  Q 268.54 446.44 268.93 446.24
  Q 269.46 445.96 269.58 444.69
  Z"
/>
<path fill="#0b0b0a" d="
  M 319.68 456.50
  Q 318.33 456.34 318.46 456.99
  Q 317.17 455.56 316.41 453.82
  Q 312.60 445.03 308.77 436.24
  Q 308.55 435.76 308.80 435.01
  Q 308.95 434.57 309.16 434.99
  C 312.60 441.86 315.09 449.81 319.68 456.50
  Z"
/>
<path fill="#0b0b0a" d="
  M 299.93 452.50
  Q 299.08 452.29 298.82 453.05
  L 292.78 436.09
  Q 292.70 435.89 292.87 436.02
  Q 292.97 436.10 293.12 436.18
  Q 293.30 436.27 293.38 436.45
  L 299.93 452.50
  Z"
/>
<path fill="#0b0b0a" d="
  M 251.49 451.32
  Q 250.97 451.30 250.97 452.04
  Q 243.12 447.51 237.54 440.46
  Q 237.45 440.35 237.53 440.18
  Q 237.66 439.91 237.85 440.13
  Q 243.59 446.60 251.49 451.32
  Z"
/>
<path fill="#383730" d="
  M 377.01 474.84
  L 377.00 476.17
  Q 368.97 477.35 360.57 476.77
  Q 360.11 472.36 361.89 468.47
  A 1.56 1.55 53.8 0 0 362.02 467.61
  C 361.79 465.95 363.03 464.95 363.30 463.88
  Q 363.91 461.52 363.33 458.88
  L 366.20 447.41
  A 0.32 0.32 0.0 0 1 366.83 447.44
  L 367.79 454.51
  A 1.01 1.00 10.0 0 0 368.32 455.26
  L 370.38 456.32
  A 0.73 0.72 -75.5 0 1 370.78 457.00
  L 370.74 458.27
  Q 370.72 458.81 371.03 459.25
  Q 373.48 462.81 377.28 464.82
  Q 377.73 465.06 377.56 465.54
  Q 376.05 469.91 377.01 474.84
  Z"
/>
<path fill="#383730" d="
  M 166.54 453.40
  Q 168.87 458.68 169.81 460.18
  Q 170.69 461.61 172.78 463.14
  A 1.04 1.02 -37.5 0 0 173.78 463.26
  Q 176.31 462.19 176.35 459.42
  A 0.73 0.73 0.0 0 1 177.79 459.24
  L 181.11 471.69
  A 4.15 4.15 0.0 0 1 177.80 476.85
  L 153.04 481.08
  A 0.50 0.49 89.6 0 1 152.47 480.51
  Q 153.39 474.90 151.01 469.71
  A 0.59 0.58 64.6 0 1 151.28 468.94
  C 155.57 466.77 163.98 462.46 157.90 457.54
  Q 153.48 453.98 147.53 455.74
  Q 147.05 455.89 146.62 455.61
  L 143.80 453.77
  Q 143.57 452.49 144.05 452.20
  Q 155.20 445.60 166.54 453.40
  Z"
/>
<path fill="#f8f7f6" d="
  M 130.95 455.90
  Q 126.22 454.50 122.34 458.77
  Q 121.96 459.18 121.43 459.01
  Q 120.89 458.84 120.44 458.23
  Q 125.45 452.32 133.79 453.02
  A 0.58 0.58 0.0 0 1 133.93 454.14
  Q 132.11 454.77 130.95 455.90
  Z"
/>
<path fill="#a5aca8" d="
  M 140.77 454.22
  L 137.24 454.20
  Q 139.00 453.21 140.77 454.22
  Z"
/>
<path fill="#cfd1ce" d="
  M 137.24 454.20
  Q 136.79 455.18 137.06 455.82
  A 0.48 0.47 83.3 0 0 137.39 456.09
  L 139.00 456.46
  A 0.65 0.64 7.6 0 1 139.50 457.11
  Q 139.32 461.67 135.50 464.96
  L 137.38 459.57
  A 0.89 0.88 -59.2 0 0 137.15 458.63
  C 134.45 456.16 134.02 458.47 132.06 458.29
  Q 131.43 458.23 131.22 457.49
  Q 133.72 454.85 137.24 454.20
  Z"
/>
<path fill="#f8f7f6" d="
  M 137.24 454.20
  L 140.77 454.22
  Q 143.21 454.47 145.37 455.95
  A 0.73 0.72 45.2 0 1 145.37 457.14
  Q 141.32 459.91 139.42 464.44
  A 1.31 1.29 89.6 0 1 138.74 465.14
  L 134.72 466.91
  Q 134.11 466.18 135.50 464.96
  Q 139.32 461.67 139.50 457.11
  A 0.65 0.64 7.6 0 0 139.00 456.46
  L 137.39 456.09
  A 0.48 0.47 83.3 0 1 137.06 455.82
  Q 136.79 455.18 137.24 454.20
  Z"
/>
<path fill="#a5aca8" d="
  M 130.95 455.90
  Q 126.42 459.67 125.03 464.55
  Q 124.84 465.20 124.16 465.25
  L 119.69 465.58
  Q 118.22 465.69 118.10 464.22
  Q 117.81 460.69 120.44 458.23
  Q 120.89 458.84 121.43 459.01
  Q 121.96 459.18 122.34 458.77
  Q 126.22 454.50 130.95 455.90
  Z"
/>
<path fill="#f8f7f6" d="
  M 381.30 455.81
  A 0.13 0.13 0.0 0 1 381.29 455.60
  Q 381.63 455.34 382.21 455.54
  Q 388.22 457.62 390.39 463.73
  A 1.28 1.28 0.0 0 1 390.26 464.85
  Q 389.16 466.51 388.53 464.73
  Q 386.60 459.22 381.30 455.81
  Z"
/>
<path fill="#f8f7f6" d="
  M 386.35 466.32
  C 381.66 465.83 373.61 463.52 371.69 458.41
  A 1.31 1.31 0.0 0 1 372.37 456.76
  C 379.26 453.56 384.91 458.20 387.81 464.25
  A 1.45 1.45 0.0 0 1 386.35 466.32
  Z"
/>
<path fill="#f8f7f6" d="
  M 147.22 468.52
  Q 146.17 468.29 147.64 467.10
  C 148.71 466.24 149.56 464.89 150.31 463.74
  Q 153.05 460.10 148.31 456.91
  Q 152.60 455.78 156.31 457.68
  C 160.38 459.77 158.42 463.35 155.65 465.13
  Q 152.17 467.37 147.22 468.52
  Z"
/>
<path fill="#cfd1ce" d="
  M 148.31 456.91
  Q 153.05 460.10 150.31 463.74
  Q 149.29 463.11 149.51 461.68
  A 0.88 0.82 -55.5 0 0 149.43 461.14
  L 148.33 458.97
  Q 148.13 458.56 147.70 458.72
  Q 145.56 459.52 144.11 461.29
  Q 143.79 461.68 143.28 461.75
  Q 142.66 461.84 142.43 461.43
  Q 145.00 458.12 148.31 456.91
  Z"
/>
<path fill="#22241d" d="
  M 359.26 456.47
  A 0.16 0.16 0.0 0 1 359.44 456.61
  L 359.44 456.66
  A 4.83 1.21 -6.0 0 1 354.76 458.37
  L 354.45 458.40
  A 4.83 1.21 -6.0 0 1 349.52 457.70
  L 349.51 457.65
  A 0.16 0.16 0.0 0 1 349.65 457.48
  L 359.26 456.47
  Z"
/>
<path fill="#a5aca8" d="
  M 135.50 464.96
  Q 134.11 466.18 134.72 466.91
  Q 132.13 467.89 129.01 467.46
  C 122.66 466.58 128.80 459.40 131.22 457.49
  Q 131.43 458.23 132.06 458.29
  C 134.02 458.47 134.45 456.16 137.15 458.63
  A 0.89 0.88 -59.2 0 1 137.38 459.57
  L 135.50 464.96
  Z"
/>
<path fill="#a5aca8" d="
  M 150.31 463.74
  C 149.56 464.89 148.71 466.24 147.64 467.10
  Q 146.17 468.29 147.22 468.52
  Q 143.20 469.92 140.44 468.13
  A 1.02 1.01 -73.5 0 1 139.98 467.28
  Q 139.97 464.11 142.43 461.43
  Q 142.66 461.84 143.28 461.75
  Q 143.79 461.68 144.11 461.29
  Q 145.56 459.52 147.70 458.72
  Q 148.13 458.56 148.33 458.97
  L 149.43 461.14
  A 0.88 0.82 -55.5 0 1 149.51 461.68
  Q 149.29 463.11 150.31 463.74
  Z"
/>
<path fill="#22241d" d="
  M 363.33 458.88
  Q 363.91 461.52 363.30 463.88
  C 363.03 464.95 361.79 465.95 362.02 467.61
  A 1.56 1.55 53.8 0 1 361.89 468.47
  Q 360.11 472.36 360.57 476.77
  L 344.65 478.22
  Q 340.73 479.06 338.16 477.95
  Q 331.13 476.65 331.44 472.24
  Q 331.91 465.49 334.09 459.03
  A 0.39 0.39 0.0 0 1 334.79 458.94
  C 338.51 464.63 342.38 469.46 349.50 470.23
  C 356.69 471.00 361.59 465.38 363.33 458.88
  Z"
/>
<path fill="#0b0b0a" d="
  M 319.56 459.17
  L 325.92 472.00
  Q 324.84 472.20 324.55 471.70
  Q 321.57 466.45 319.56 459.17
  Z"
/>
<path fill="#0b0b0a" d="
  M 317.57 469.43
  Q 312.24 466.51 308.44 462.23
  L 308.88 461.93
  Q 309.28 461.64 309.64 461.98
  L 317.57 469.43
  Z"
/>
<path fill="#98a555" d="
  M 103.08 482.98
  A 0.84 0.84 0.0 0 1 102.15 481.78
  Q 107.25 471.83 116.51 465.55
  A 0.70 0.70 0.0 0 1 117.20 465.50
  Q 119.79 466.73 122.74 466.16
  A 0.32 0.31 -70.5 0 1 123.00 466.71
  Q 116.15 472.43 112.26 480.51
  Q 112.02 481.01 111.48 481.12
  L 103.08 482.98
  Z"
/>
<path fill="#98a555" d="
  M 387.33 467.32
  Q 394.35 471.74 397.68 479.29
  C 392.57 478.31 387.69 476.93 382.50 476.71
  Q 379.72 476.60 377.00 476.17
  L 377.01 474.84
  L 378.12 466.19
  A 0.82 0.82 0.0 0 1 379.11 465.49
  L 387.33 467.32
  Z"
/>
<path fill="#e5db5a" d="
  M 391.57 465.99
  C 396.21 468.45 401.51 473.78 404.03 478.35
  Q 404.36 478.94 403.69 478.99
  C 402.63 479.07 401.57 478.61 400.93 477.65
  Q 396.81 471.44 390.84 466.88
  Q 390.58 466.69 390.77 466.43
  L 391.00 466.12
  A 0.45 0.45 0.0 0 1 391.57 465.99
  Z"
/>
<path fill="#98a555" d="
  M 125.18 466.96
  C 129.01 469.67 133.77 469.20 137.63 466.65
  Q 138.03 466.38 138.22 466.83
  Q 138.47 467.39 138.04 467.79
  Q 131.81 473.75 128.32 480.46
  A 1.25 1.23 7.6 0 1 127.47 481.10
  L 114.05 483.81
  Q 112.46 484.13 113.00 482.60
  Q 116.34 473.12 124.23 466.98
  Q 124.70 466.62 125.18 466.96
  Z"
/>
<path fill="#e5db5a" d="
  M 397.68 479.29
  Q 394.35 471.74 387.33 467.32
  Q 388.04 466.33 388.61 466.68
  Q 396.21 471.38 400.85 479.05
  A 0.62 0.62 0.0 0 1 400.15 479.97
  L 397.68 479.29
  Z"
/>
<path fill="#98a555" d="
  M 142.85 470.16
  Q 136.32 476.97 131.67 485.35
  Q 130.24 486.19 128.49 485.75
  Q 127.89 485.60 128.02 485.00
  C 129.38 478.68 134.32 472.79 138.61 468.56
  Q 138.99 468.18 139.40 468.53
  Q 140.79 469.76 142.85 470.16
  Z"
/>
<path fill="#e5db5a" d="
  M 131.67 485.35
  Q 136.32 476.97 142.85 470.16
  L 149.25 469.42
  Q 149.71 469.36 149.89 469.79
  Q 152.12 475.05 151.09 480.67
  Q 151.00 481.17 150.50 481.28
  L 131.67 485.35
  Z"
/>
</svg>
