<?xml version="1.0" encoding="UTF-8" standalone="no"?>
<svg xmlns="http://www.w3.org/2000/svg" version="1.2" baseProfile="tiny" viewBox="0.00 0.00 500.00 500.00">
<path fill="#010101" d="
  M 185.74 344.94
  Q 177.12 358.27 168.21 372.13
  C 167.29 373.56 165.98 374.89 164.82 376.07
  A 0.98 0.98 0.0 0 1 163.15 375.49
  Q 162.91 373.24 163.43 370.78
  Q 167.11 353.45 170.76 336.12
  A 1.28 1.27 -65.2 0 0 170.29 334.84
  L 165.08 330.90
  Q 164.57 330.52 164.05 330.89
  Q 150.16 341.00 137.48 352.48
  Q 136.22 353.62 135.81 353.65
  Q 133.30 353.83 134.33 351.53
  Q 141.53 335.38 149.18 320.46
  Q 149.78 319.30 150.70 318.35
  A 0.57 0.57 0.0 0 0 150.69 317.56
  L 150.46 317.33
  Q 150.16 317.04 149.86 317.32
  C 148.56 318.50 147.61 319.88 146.21 320.88
  Q 105.81 349.64 65.65 378.39
  A 1.22 1.21 -32.4 0 1 63.88 378.00
  Q 63.66 377.61 63.96 376.78
  Q 64.14 376.30 64.57 375.76
  Q 100.55 330.70 136.61 285.44
  Q 137.04 284.91 136.74 284.30
  Q 134.07 278.81 132.65 272.88
  Q 132.54 272.42 132.52 271.95
  L 132.48 270.82
  Q 132.45 270.12 131.75 270.07
  L 39.78 263.81
  A 1.19 1.19 0.0 0 1 39.64 261.45
  Q 40.62 261.26 42.10 261.04
  Q 86.64 254.41 131.16 247.96
  A 0.36 0.36 0.0 0 0 131.46 247.66
  Q 134.37 227.43 144.19 209.45
  Q 144.48 208.92 143.99 208.56
  L 135.54 202.21
  A 0.53 0.53 0.0 0 1 135.81 201.25
  C 138.69 200.98 142.78 203.06 145.11 204.05
  A 2.13 2.13 0.0 0 0 147.85 201.14
  L 100.42 106.30
  A 0.56 0.55 2.5 0 1 101.21 105.58
  C 103.87 107.20 105.74 109.30 107.94 111.49
  Q 140.34 143.74 172.96 175.77
  A 0.62 0.62 0.0 0 0 173.78 175.82
  Q 189.86 163.29 209.92 159.35
  Q 210.46 159.25 210.54 158.71
  L 234.17 1.51
  A 0.89 0.82 68.9 0 1 234.31 1.15
  Q 235.32 -0.31 236.40 0.33
  Q 236.83 0.59 237.04 1.19
  Q 237.30 1.92 237.37 2.68
  Q 244.91 81.99 252.58 161.28
  Q 252.64 161.86 253.20 162.00
  L 259.95 163.67
  Q 260.44 163.79 260.80 163.45
  Q 296.27 130.46 331.55 97.30
  Q 333.35 95.61 335.61 94.66
  A 1.10 1.10 0.0 0 1 336.98 96.25
  L 304.54 148.71
  Q 304.27 149.16 304.78 149.25
  Q 305.73 149.43 306.21 148.64
  Q 306.52 148.14 307.04 147.88
  L 312.20 145.34
  A 0.66 0.66 0.0 0 1 313.03 146.32
  L 289.42 179.14
  A 1.13 1.12 38.2 0 0 289.60 180.64
  Q 298.82 188.62 305.65 198.75
  Q 306.19 199.55 307.00 199.02
  L 352.61 168.67
  Q 352.86 168.50 353.17 168.50
  L 353.69 168.50
  A 0.73 0.73 0.0 0 1 354.26 169.68
  L 316.85 217.34
  Q 316.59 217.66 316.74 218.04
  Q 318.94 223.58 320.94 229.24
  C 321.98 232.18 320.98 233.67 325.25 233.97
  Q 393.05 238.69 460.85 243.23
  Q 461.37 243.27 461.59 243.47
  Q 461.93 243.79 461.78 244.36
  A 1.46 1.46 0.0 0 1 460.60 245.43
  Q 412.26 253.17 363.83 260.92
  Q 361.81 261.25 359.99 260.88
  A 0.66 0.66 0.0 0 0 359.62 262.15
  C 374.94 268.04 382.81 285.89 381.47 301.39
  Q 380.00 318.45 366.76 330.76
  C 362.80 334.44 353.24 338.55 346.44 338.87
  A 0.66 0.66 0.0 0 0 345.81 339.61
  Q 345.88 340.17 346.40 340.46
  Q 346.75 340.66 347.00 340.97
  L 381.96 383.27
  A 0.60 0.60 0.0 0 1 381.56 384.25
  Q 380.82 384.33 380.00 383.75
  Q 338.26 354.03 296.59 324.23
  Q 296.19 323.94 295.78 324.20
  C 292.79 326.04 292.72 328.15 293.95 331.32
  Q 305.00 360.02 315.98 389.03
  A 0.97 0.84 -55.0 0 1 316.02 389.41
  Q 315.73 391.40 314.49 390.01
  Q 293.07 365.95 271.89 341.69
  Q 271.50 341.23 270.96 341.50
  C 261.17 346.26 251.31 349.09 240.43 349.58
  A 0.45 0.45 0.0 0 0 240.01 349.97
  Q 229.28 423.82 218.76 497.68
  Q 218.68 498.28 218.49 498.66
  Q 218.14 499.38 217.74 499.42
  A 1.29 1.24 84.1 0 1 216.37 498.26
  L 201.40 349.48
  Q 201.26 348.11 199.93 347.75
  L 187.37 344.32
  Q 186.33 344.04 185.74 344.94
  Z"
/>
<g stroke-width="2.00" fill="none" stroke-linecap="butt">
<path stroke="#baaabf" vector-effect="non-scaling-stroke" d="
  M 238.39 28.64
  Q 236.38 29.27 235.87 31.26
  Q 235.81 31.50 235.57 31.50
  Q 235.44 31.50 235.30 31.50
  Q 234.82 31.49 234.81 31.01
  Q 234.79 30.40 234.45 30.22"
/>
<path stroke="#ca95b0" vector-effect="non-scaling-stroke" d="
  M 234.45 30.22
  L 233.10 19.44"
/>
<path stroke="#9859a4" vector-effect="non-scaling-stroke" d="
  M 234.45 30.22
  C 234.27 35.49 233.48 42.30 234.51 47.40
  C 234.89 49.28 234.18 50.70 235.06 52.40
  A 0.46 0.46 0.0 0 0 235.92 52.27
  Q 237.41 44.21 237.10 36.07
  Q 237.08 35.54 236.74 35.12
  Q 236.35 34.67 236.25 34.06
  Q 236.16 33.53 236.69 33.47
  L 238.96 33.21"
/>
<path stroke="#9b4495" vector-effect="non-scaling-stroke" d="
  M 243.54 81.25
  L 243.55 81.69
  A 1.39 1.39 0.0 0 1 241.03 82.54
  Q 239.66 80.61 240.87 78.82
  A 0.49 0.49 0.0 0 0 240.81 78.19
  L 238.85 76.29
  Q 238.53 75.98 238.09 76.02
  Q 235.11 76.23 234.16 73.37
  A 0.88 0.88 0.0 0 1 234.26 72.60
  C 235.51 70.71 236.30 69.12 235.50 66.76
  C 233.67 61.37 234.22 55.66 227.65 54.05"
/>
<path stroke="#764596" vector-effect="non-scaling-stroke" d="
  M 244.09 88.22
  C 240.30 94.79 238.30 102.93 233.95 110.62
  C 231.82 114.37 227.24 118.62 222.82 114.95
  Q 219.63 112.30 219.09 110.85"
/>
<path stroke="#443c6e" vector-effect="non-scaling-stroke" d="
  M 245.52 103.45
  Q 242.79 110.10 240.29 116.80
  C 237.86 123.36 228.06 140.77 220.02 127.78
  Q 218.91 125.98 217.45 123.93"
/>
<path stroke="#3f4357" vector-effect="non-scaling-stroke" d="
  M 233.52 161.26
  L 227.95 162.04
  Q 227.35 162.12 227.62 162.67
  C 228.52 164.41 227.78 165.91 228.29 167.55
  C 230.86 175.91 238.76 182.44 246.17 186.97
  A 1.68 1.60 86.2 0 1 246.54 187.31
  L 247.88 189.06
  Q 248.45 189.80 248.46 188.87
  Q 248.49 186.35 247.60 184.08
  Q 247.42 183.62 247.48 183.14
  Q 248.12 177.41 250.64 174.13"
/>
<path stroke="#443c6e" vector-effect="non-scaling-stroke" d="
  M 274.61 152.25
  Q 274.82 153.76 277.03 152.56
  C 283.40 149.08 284.85 154.84 284.65 159.59
  Q 284.32 167.54 286.34 175.43"
/>
<path stroke="#3f4357" vector-effect="non-scaling-stroke" d="
  M 275.15 195.89
  Q 272.19 197.91 267.76 197.47
  A 0.60 0.60 0.0 0 0 267.35 198.55
  C 269.14 199.84 270.31 201.60 272.23 202.74
  C 280.71 207.75 286.45 211.97 297.47 215.90"
/>
<path stroke="#443c6e" vector-effect="non-scaling-stroke" d="
  M 374.72 238.71
  Q 381.66 241.98 385.78 246.94
  Q 386.10 247.33 386.17 247.83
  C 386.65 251.07 383.99 254.42 381.62 256.83"
/>
<path stroke="#242d3d" vector-effect="non-scaling-stroke" d="
  M 180.05 209.44
  Q 180.44 205.65 179.32 201.34
  Q 179.19 200.85 178.80 200.52
  C 174.80 197.08 179.89 190.16 178.68 185.44
  A 1.18 1.13 52.0 0 1 178.76 184.66
  L 181.30 179.65
  Q 181.54 179.16 181.53 178.61
  C 181.49 177.13 182.57 176.99 182.79 176.05
  Q 182.82 175.90 182.76 175.76
  Q 182.59 175.32 182.18 175.55
  L 180.51 176.52"
/>
<path stroke="#3f4357" vector-effect="non-scaling-stroke" d="
  M 180.51 176.52
  Q 182.50 173.50 184.34 171.81
  Q 185.10 171.12 186.21 171.45
  Q 186.68 171.59 187.11 171.35
  L 202.19 162.88"
/>
<path stroke="#393e50" vector-effect="non-scaling-stroke" d="
  M 180.51 176.52
  Q 177.86 177.63 176.22 179.66
  A 0.88 0.87 -40.2 0 0 176.13 180.63
  Q 179.27 186.39 175.20 191.42
  Q 174.86 191.83 174.45 191.49
  C 170.53 188.25 167.71 184.69 163.72 180.67
  Q 161.31 178.24 159.93 175.31"
/>
<path stroke="#594d80" vector-effect="non-scaling-stroke" d="
  M 159.93 175.31
  L 169.14 173.91"
/>
<path stroke="#6c686f" vector-effect="non-scaling-stroke" d="
  M 284.80 185.94
  Q 288.53 186.41 291.02 188.78
  A 0.40 0.40 0.0 0 0 291.64 188.27
  Q 289.73 185.31 286.30 183.65"
/>
<path stroke="#834596" vector-effect="non-scaling-stroke" d="
  M 388.88 239.70
  Q 397.33 244.68 396.32 251.92
  A 1.08 1.08 0.0 0 1 395.74 252.75
  Q 394.02 253.63 393.74 254.86"
/>
<path stroke="#3d3767" vector-effect="non-scaling-stroke" d="
  M 159.93 175.31
  Q 158.82 175.09 159.02 175.40"
/>
<path stroke="#764596" vector-effect="non-scaling-stroke" d="
  M 290.55 168.62
  Q 290.98 164.25 291.17 160.56
  C 291.26 158.74 292.18 157.42 292.33 155.48
  C 292.54 152.67 293.72 149.64 291.26 147.13
  C 288.43 144.25 283.56 145.62 281.06 148.29
  Q 280.67 148.70 280.36 148.22
  Q 280.17 147.92 280.17 147.43"
/>
<path stroke="#4f3e89" vector-effect="non-scaling-stroke" d="
  M 153.74 166.33
  L 157.92 172.36
  A 1.60 1.53 -63.5 0 1 158.20 173.26
  Q 158.20 174.35 159.02 175.40"
/>
<path stroke="#2f2f58" vector-effect="non-scaling-stroke" d="
  M 159.02 175.40
  C 154.79 174.11 145.78 169.85 141.80 170.44
  Q 137.48 171.07 137.85 178.22"
/>
<path stroke="#bd95b0" vector-effect="non-scaling-stroke" d="
  M 114.83 123.84
  L 129.59 140.50
  A 0.24 0.23 -77.5 0 0 129.98 140.25
  L 129.51 139.15"
/>
<path stroke="#9b4495" vector-effect="non-scaling-stroke" d="
  M 129.51 139.15
  C 132.79 138.01 135.66 143.56 137.83 145.35
  C 142.30 149.05 145.72 153.67 150.11 157.32
  A 1.10 1.05 -81.0 0 1 150.44 157.80
  Q 150.72 158.63 150.07 159.02
  Q 149.72 159.23 149.99 159.54
  L 153.18 163.30
  Q 153.50 163.68 153.50 164.17
  L 153.50 165.25
  Q 153.50 165.76 154.01 165.74
  Q 155.07 165.69 155.78 166.16"
/>
<path stroke="#764596" vector-effect="non-scaling-stroke" d="
  M 155.78 166.16
  L 153.74 166.33"
/>
<path stroke="#673d88" vector-effect="non-scaling-stroke" d="
  M 153.74 166.33
  C 146.38 163.21 135.62 157.39 131.96 161.61
  A 0.86 0.86 0.0 0 0 131.77 162.39
  Q 132.32 164.45 133.00 165.96
  Q 133.45 166.95 132.19 167.07"
/>
<path stroke="#834596" vector-effect="non-scaling-stroke" d="
  M 160.53 165.26
  Q 158.67 167.19 155.78 166.16"
/>
<path stroke="#9b4495" vector-effect="non-scaling-stroke" d="
  M 302.76 149.13
  C 299.24 147.51 296.27 146.90 295.39 142.49
  C 294.80 139.48 297.43 137.66 293.06 135.41"
/>
<path stroke="#9859a4" vector-effect="non-scaling-stroke" d="
  M 313.18 116.71
  L 313.59 118.83"
/>
<path stroke="#ca95b0" vector-effect="non-scaling-stroke" d="
  M 313.59 118.83
  Q 311.40 120.70 310.18 123.29"
/>
<path stroke="#9859a4" vector-effect="non-scaling-stroke" d="
  M 310.18 123.29
  L 303.04 131.03
  Q 302.71 131.39 302.24 131.47
  C 298.57 132.12 295.17 137.43 300.55 138.57
  Q 300.99 138.67 301.27 138.32
  Q 302.59 136.67 303.07 134.65
  Q 303.18 134.21 303.62 134.14
  Q 304.85 133.94 306.26 132.76
  Q 311.52 128.37 312.56 123.61"
/>
<path stroke="#ca95b0" vector-effect="non-scaling-stroke" d="
  M 312.56 123.61
  L 317.21 117.69"
/>
<path stroke="#9859a4" vector-effect="non-scaling-stroke" d="
  M 317.21 117.69
  Q 319.47 115.11 321.81 112.06
  Q 322.91 110.63 321.60 108.97"
/>
<path stroke="#baaabf" vector-effect="non-scaling-stroke" d="
  M 117.27 123.20
  Q 116.08 123.24 114.83 123.84"
/>
<path stroke="#8b59a4" vector-effect="non-scaling-stroke" d="
  M 114.83 123.84
  L 111.49 120.00
  Q 111.08 119.52 110.91 120.13
  Q 110.60 121.22 109.02 121.12"
/>
<path stroke="#ca95b0" vector-effect="non-scaling-stroke" d="
  M 122.22 128.05
  C 122.35 132.06 126.67 136.61 129.51 139.15"
/>
<path stroke="#baaabf" vector-effect="non-scaling-stroke" d="
  M 317.21 117.69
  Q 315.98 115.93 313.59 118.83"
/>
<path stroke="#baaabf" vector-effect="non-scaling-stroke" d="
  M 312.56 123.61
  Q 310.21 124.84 310.18 123.29"
/>
<path stroke="#ca95b0" vector-effect="non-scaling-stroke" d="
  M 341.14 184.52
  Q 340.72 181.62 343.65 178.93
  A 0.71 0.70 49.9 0 0 343.73 177.97
  L 342.93 176.96"
/>
<path stroke="#834596" vector-effect="non-scaling-stroke" d="
  M 325.28 204.55
  L 324.64 204.49
  A 0.32 0.32 0.0 0 1 324.40 203.99
  L 326.43 201.05
  Q 326.72 200.63 326.66 200.12
  C 325.86 192.32 316.01 195.51 312.53 198.76"
/>
<path stroke="#693b6d" vector-effect="non-scaling-stroke" d="
  M 312.53 198.76
  L 307.80 201.62"
/>
<path stroke="#443c6e" vector-effect="non-scaling-stroke" d="
  M 315.69 214.58
  Q 320.85 209.28 320.48 202.28
  C 320.23 197.52 315.60 198.65 312.53 198.76"
/>
<path stroke="#7359a5" vector-effect="non-scaling-stroke" d="
  M 314.42 216.35
  Q 315.37 218.42 312.90 219.12
  Q 312.42 219.26 311.92 219.16
  L 299.26 216.75"
/>
<path stroke="#bcb5a5" vector-effect="non-scaling-stroke" d="
  M 159.51 211.92
  Q 158.71 212.51 159.09 213.17
  Q 159.33 213.61 159.81 213.77
  Q 167.25 216.42 170.24 219.53
  C 174.34 223.80 178.60 225.96 181.60 229.54
  Q 181.94 229.94 182.39 229.67
  Q 182.90 229.38 183.10 228.80"
/>
<path stroke="#ccc6b0" vector-effect="non-scaling-stroke" d="
  M 193.40 211.58
  Q 197.22 217.32 196.83 224.44
  Q 196.81 224.84 197.19 224.98
  Q 197.32 225.03 197.49 225.04"
/>
<path stroke="#807d7f" vector-effect="non-scaling-stroke" d="
  M 197.49 225.04
  Q 196.88 225.99 197.65 226.76"
/>
<path stroke="#ccc6b0" vector-effect="non-scaling-stroke" d="
  M 197.65 226.76
  Q 197.05 228.26 197.55 230.80"
/>
<path stroke="#ccc6b0" vector-effect="non-scaling-stroke" d="
  M 197.38 233.02
  L 196.95 235.36
  A 0.58 0.57 -73.4 0 1 196.16 235.79
  Q 193.54 234.69 192.27 235.94"
/>
<path stroke="#57534b" vector-effect="non-scaling-stroke" d="
  M 192.27 235.94
  Q 177.63 237.45 175.64 251.83
  C 175.27 254.45 176.50 257.02 178.44 258.56
  C 186.47 264.94 200.87 265.71 207.33 256.69"
/>
<path stroke="#bcb5a5" vector-effect="non-scaling-stroke" d="
  M 207.33 256.69
  C 209.31 256.78 209.31 257.23 210.65 258.04
  C 234.63 272.48 261.90 276.27 290.44 275.49
  C 292.31 275.44 293.63 276.36 294.62 276.30
  Q 295.36 276.26 295.33 275.69"
/>
<path stroke="#bcb5a5" vector-effect="non-scaling-stroke" d="
  M 311.77 300.20
  L 310.95 300.18
  A 0.49 0.49 0.0 0 0 310.57 300.98
  L 324.32 317.58
  Q 324.62 317.94 324.30 318.30
  C 319.96 323.12 319.31 330.53 319.59 336.65
  A 0.68 0.67 16.7 0 1 318.52 337.22
  L 287.29 314.94
  Q 286.89 314.65 286.58 315.05
  L 286.16 315.59"
/>
<path stroke="#bcb5a5" vector-effect="non-scaling-stroke" d="
  M 283.05 326.24
  L 275.07 327.81
  Q 274.53 327.92 274.29 328.42
  L 273.94 329.14
  Q 273.75 329.55 273.29 329.54
  Q 272.19 329.52 271.44 330.78"
/>
<path stroke="#bcb5a5" vector-effect="non-scaling-stroke" d="
  M 299.08 348.39
  L 295.00 356.17
  Q 294.76 356.63 294.28 356.80
  L 288.44 358.81"
/>
<path stroke="#bcb5a5" vector-effect="non-scaling-stroke" d="
  M 271.42 339.80
  C 270.80 338.65 269.06 338.58 267.90 339.12
  C 261.94 341.84 247.01 347.43 240.78 345.43"
/>
<path stroke="#bcb5a5" vector-effect="non-scaling-stroke" d="
  M 227.63 426.02
  Q 223.15 428.00 220.68 431.43
  Q 217.18 436.29 211.82 439.44"
/>
<path stroke="#bcb5a5" vector-effect="non-scaling-stroke" d="
  M 201.24 340.53
  L 202.75 338.45"
/>
<path stroke="#57534b" vector-effect="non-scaling-stroke" d="
  M 202.75 338.45
  L 211.71 337.58
  A 0.52 0.52 0.0 0 0 211.86 336.59
  Q 211.03 336.23 209.76 336.61"
/>
<path stroke="#bcb5a5" vector-effect="non-scaling-stroke" d="
  M 209.76 336.61
  Q 210.29 336.16 210.41 335.83
  Q 210.54 335.48 209.93 335.24
  Q 207.42 334.23 204.64 334.07
  Q 204.12 334.04 203.81 334.47
  L 202.22 336.73
  Q 201.89 337.20 201.33 337.12
  Q 197.52 336.59 194.20 338.51
  A 2.17 2.13 -57.6 0 1 193.05 338.78
  Q 187.27 338.50 181.41 335.61
  Q 179.42 334.62 176.51 334.81
  Q 176.05 334.84 175.69 334.57
  L 172.94 332.55
  A 0.44 0.40 15.4 0 1 172.78 332.30
  Q 172.12 329.54 169.32 329.71
  Q 168.63 329.75 168.84 329.10
  L 168.96 328.75
  Q 169.15 328.14 168.83 327.59
  Q 166.79 324.00 163.02 322.83
  Q 162.54 322.68 162.06 322.82
  Q 157.07 324.32 153.07 320.88
  Q 152.67 320.54 152.90 320.06
  Q 154.23 317.25 155.40 314.41
  Q 155.60 313.91 154.39 313.67"
/>
<path stroke="#bcb5a5" vector-effect="non-scaling-stroke" d="
  M 154.31 311.49
  Q 156.93 310.73 156.54 308.77"
/>
<path stroke="#989185" vector-effect="non-scaling-stroke" d="
  M 156.54 308.77
  Q 158.46 307.90 157.67 306.48"
/>
<path stroke="#bcb5a5" vector-effect="non-scaling-stroke" d="
  M 157.67 306.48
  Q 158.53 304.93 158.12 303.40
  A 0.83 0.82 -3.6 0 0 157.42 302.79
  C 155.35 302.53 154.61 303.82 153.28 304.75
  Q 136.21 316.70 121.86 331.77
  Q 121.54 332.11 119.37 333.92
  C 117.50 335.49 116.86 337.90 115.06 339.45
  Q 112.61 341.56 111.68 342.17
  C 104.97 346.62 99.02 351.53 93.02 355.46
  Q 92.60 355.73 92.23 355.42
  Q 90.59 354.04 90.45 351.88
  Q 90.41 351.41 90.09 351.07
  C 88.87 349.75 89.18 349.06 90.22 347.70
  C 100.78 333.80 112.66 320.03 122.71 306.71
  Q 123.81 305.27 122.73 304.69"
/>
<path stroke="#dcd6bf" vector-effect="non-scaling-stroke" d="
  M 290.94 271.58
  Q 283.63 272.56 273.25 271.93
  C 249.66 270.50 229.50 266.42 210.43 252.82
  Q 210.05 252.54 209.91 253.00
  Q 209.61 254.00 208.46 253.81"
/>
<path stroke="#777466" vector-effect="non-scaling-stroke" d="
  M 208.46 253.81
  C 209.24 242.81 201.97 237.98 192.27 235.94"
/>
<path stroke="#67635b" vector-effect="non-scaling-stroke" d="
  M 208.46 253.81
  L 207.33 256.69"
/>
<path stroke="#dcd6bf" vector-effect="non-scaling-stroke" d="
  M 226.81 431.22
  C 223.69 433.02 221.55 436.18 219.19 438.05
  Q 215.91 440.65 212.26 443.25"
/>
<path stroke="#a8a195" vector-effect="non-scaling-stroke" d="
  M 157.67 306.48
  Q 156.67 306.47 156.25 307.50
  Q 155.95 308.22 156.54 308.77"
/>
<path stroke="#dcd6bf" vector-effect="non-scaling-stroke" d="
  M 326.28 318.01
  Q 324.95 318.92 327.42 321.23
  Q 327.86 321.64 327.41 322.03
  C 323.21 325.78 323.37 334.23 323.51 339.40
  A 0.65 0.65 0.0 0 1 322.41 339.88
  Q 320.10 337.66 319.06 338.84"
/>
<path stroke="#ccc6b0" vector-effect="non-scaling-stroke" d="
  M 222.10 208.60
  Q 213.44 213.79 207.50 220.75
  C 204.17 224.66 199.62 227.65 199.02 232.23"
/>
<path stroke="#a09d9a" vector-effect="non-scaling-stroke" d="
  M 197.65 226.76
  Q 199.61 225.94 199.14 223.92
  Q 199.01 223.34 198.51 223.67
  Q 197.92 224.07 197.49 225.04"
/>
<path stroke="#67635b" vector-effect="non-scaling-stroke" d="
  M 209.76 336.61
  Q 204.74 336.12 202.75 338.45"
/>
<path stroke="#bcb5a5" vector-effect="non-scaling-stroke" d="
  M 184.45 342.00
  L 182.88 341.19"
/>
<path stroke="#dcd6bf" vector-effect="non-scaling-stroke" d="
  M 165.84 327.61
  Q 165.82 326.92 165.16 326.96
  Q 164.84 326.98 164.45 327.29
  Q 161.62 329.55 158.40 331.66
  A 0.59 0.58 36.6 0 0 158.56 332.71
  L 159.05 332.85"
/>
<path stroke="#bcb5a5" vector-effect="non-scaling-stroke" d="
  M 174.01 337.16
  L 172.04 345.59
  A 1.29 1.29 0.0 0 0 173.25 347.17
  Q 177.19 347.30 180.29 350.72"
/>
<path stroke="#393e50" vector-effect="non-scaling-stroke" d="
  M 148.14 211.74
  Q 145.00 216.68 142.75 221.95
  C 141.57 224.70 136.87 232.13 137.72 235.59
  Q 137.84 236.10 137.67 236.58
  C 135.67 242.26 134.11 247.48 134.35 253.73
  Q 134.54 259.00 133.34 264.30"
/>
<path stroke="#ccc6b0" vector-effect="non-scaling-stroke" d="
  M 214.20 229.05
  Q 213.06 228.87 213.47 226.67"
/>
<path stroke="#2f2f58" vector-effect="non-scaling-stroke" d="
  M 107.47 267.01
  C 102.27 263.36 103.55 259.56 107.19 255.84
  Q 108.72 254.28 109.88 252.34"
/>
<path stroke="#673d88" vector-effect="non-scaling-stroke" d="
  M 97.73 266.38
  Q 94.69 260.28 102.32 253.46"
/>
<path stroke="#8b59a4" vector-effect="non-scaling-stroke" d="
  M 60.97 263.57
  Q 63.17 263.77 63.79 263.11
  A 0.45 0.45 0.0 0 0 63.54 262.35
  Q 60.70 261.85 60.78 259.29"
/>
<path stroke="#393e50" vector-effect="non-scaling-stroke" d="
  M 379.75 299.91
  Q 376.55 302.64 373.85 302.25"
/>
<path stroke="#bcb5a5" vector-effect="non-scaling-stroke" d="
  M 372.28 299.12
  L 365.75 305.93
  Q 365.40 306.30 364.89 306.24
  Q 364.50 306.20 364.19 306.41
  Q 363.74 306.72 363.41 307.15
  Q 362.91 307.80 362.05 307.76
  Q 361.58 307.74 361.42 307.30
  Q 361.16 306.55 359.98 306.71"
/>
<path stroke="#57534b" vector-effect="non-scaling-stroke" d="
  M 359.98 306.71
  C 366.71 296.95 367.26 275.19 350.74 274.38
  Q 346.43 274.17 342.12 274.63"
/>
<path stroke="#989185" vector-effect="non-scaling-stroke" d="
  M 342.12 274.63
  Q 341.06 273.01 340.99 270.50"
/>
<path stroke="#433f3b" vector-effect="non-scaling-stroke" d="
  M 342.12 274.63
  C 329.07 277.86 322.71 291.71 323.99 304.29"
/>
<path stroke="#989185" vector-effect="non-scaling-stroke" d="
  M 323.99 304.29
  Q 321.60 305.91 324.42 309.87
  C 325.38 311.21 325.62 312.64 325.18 314.09"
/>
<path stroke="#bcb5a5" vector-effect="non-scaling-stroke" d="
  M 340.85 329.11
  L 343.52 327.48
  A 0.77 0.75 -4.0 0 0 343.85 327.11
  L 345.60 322.89
  A 1.08 1.05 44.3 0 0 345.58 322.05
  L 344.94 320.63
  Q 344.67 320.03 345.23 319.69
  Q 345.62 319.46 346.27 319.72"
/>
<path stroke="#67635b" vector-effect="non-scaling-stroke" d="
  M 359.98 306.71
  Q 359.15 307.71 359.88 308.59
  C 364.33 314.00 363.69 321.77 356.56 324.03
  Q 354.38 324.72 352.11 325.12
  Q 351.63 325.20 351.20 324.98
  Q 347.76 323.20 346.27 319.72"
/>
<path stroke="#57534b" vector-effect="non-scaling-stroke" d="
  M 346.27 319.72
  L 345.49 316.99
  Q 345.33 316.46 344.81 316.63
  Q 328.18 322.05 323.99 304.29"
/>
</g>
<path fill="#ece6ca" d="
  M 238.39 28.64
  Q 236.38 29.27 235.87 31.26
  Q 235.81 31.50 235.57 31.50
  Q 235.44 31.50 235.30 31.50
  Q 234.82 31.49 234.81 31.01
  Q 234.79 30.40 234.45 30.22
  L 233.10 19.44
  L 235.17 3.14
  A 0.44 0.44 0.0 0 1 236.05 3.15
  L 238.39 28.64
  Z"
/>
<path fill="#a84495" d="
  M 233.10 19.44
  L 234.45 30.22
  C 234.27 35.49 233.48 42.30 234.51 47.40
  C 234.89 49.28 234.18 50.70 235.06 52.40
  A 0.46 0.46 0.0 0 0 235.92 52.27
  Q 237.41 44.21 237.10 36.07
  Q 237.08 35.54 236.74 35.12
  Q 236.35 34.67 236.25 34.06
  Q 236.16 33.53 236.69 33.47
  L 238.96 33.21
  L 243.54 81.25
  L 243.55 81.69
  A 1.39 1.39 0.0 0 1 241.03 82.54
  Q 239.66 80.61 240.87 78.82
  A 0.49 0.49 0.0 0 0 240.81 78.19
  L 238.85 76.29
  Q 238.53 75.98 238.09 76.02
  Q 235.11 76.23 234.16 73.37
  A 0.88 0.88 0.0 0 1 234.26 72.60
  C 235.51 70.71 236.30 69.12 235.50 66.76
  C 233.67 61.37 234.22 55.66 227.65 54.05
  L 233.10 19.44
  Z"
/>
<path fill="#886db3" d="
  M 238.39 28.64
  L 238.96 33.21
  L 236.69 33.47
  Q 236.16 33.53 236.25 34.06
  Q 236.35 34.67 236.74 35.12
  Q 237.08 35.54 237.10 36.07
  Q 237.41 44.21 235.92 52.27
  A 0.46 0.46 0.0 0 1 235.06 52.40
  C 234.18 50.70 234.89 49.28 234.51 47.40
  C 233.48 42.30 234.27 35.49 234.45 30.22
  Q 234.79 30.40 234.81 31.01
  Q 234.82 31.49 235.30 31.50
  Q 235.44 31.50 235.57 31.50
  Q 235.81 31.50 235.87 31.26
  Q 236.38 29.27 238.39 28.64
  Z"
/>
<path fill="#8e4495" d="
  M 227.65 54.05
  C 234.22 55.66 233.67 61.37 235.50 66.76
  C 236.30 69.12 235.51 70.71 234.26 72.60
  A 0.88 0.88 0.0 0 0 234.16 73.37
  Q 235.11 76.23 238.09 76.02
  Q 238.53 75.98 238.85 76.29
  L 240.81 78.19
  A 0.49 0.49 0.0 0 1 240.87 78.82
  Q 239.66 80.61 241.03 82.54
  A 1.39 1.39 0.0 0 0 243.55 81.69
  L 243.54 81.25
  L 244.09 88.22
  C 240.30 94.79 238.30 102.93 233.95 110.62
  C 231.82 114.37 227.24 118.62 222.82 114.95
  Q 219.63 112.30 219.09 110.85
  L 227.65 54.05
  Z"
/>
<path fill="#5d4597" d="
  M 244.09 88.22
  L 245.52 103.45
  Q 242.79 110.10 240.29 116.80
  C 237.86 123.36 228.06 140.77 220.02 127.78
  Q 218.91 125.98 217.45 123.93
  L 219.09 110.85
  Q 219.63 112.30 222.82 114.95
  C 227.24 118.62 231.82 114.37 233.95 110.62
  C 238.30 102.93 240.30 94.79 244.09 88.22
  Z"
/>
<path fill="#a84495" d="
  M 302.76 149.13
  C 299.24 147.51 296.27 146.90 295.39 142.49
  C 294.80 139.48 297.43 137.66 293.06 135.41
  L 313.18 116.71
  L 313.59 118.83
  Q 311.40 120.70 310.18 123.29
  L 303.04 131.03
  Q 302.71 131.39 302.24 131.47
  C 298.57 132.12 295.17 137.43 300.55 138.57
  Q 300.99 138.67 301.27 138.32
  Q 302.59 136.67 303.07 134.65
  Q 303.18 134.21 303.62 134.14
  Q 304.85 133.94 306.26 132.76
  Q 311.52 128.37 312.56 123.61
  L 317.21 117.69
  Q 319.47 115.11 321.81 112.06
  Q 322.91 110.63 321.60 108.97
  L 334.11 97.20
  A 0.43 0.43 0.0 0 1 334.77 97.74
  L 302.76 149.13
  Z"
/>
<path fill="#2a3244" d="
  M 245.52 103.45
  L 251.03 160.66
  Q 251.08 161.25 250.50 161.22
  C 244.91 160.93 238.89 159.11 233.52 161.26
  L 227.95 162.04
  Q 227.35 162.12 227.62 162.67
  C 228.52 164.41 227.78 165.91 228.29 167.55
  C 230.86 175.91 238.76 182.44 246.17 186.97
  A 1.68 1.60 86.2 0 1 246.54 187.31
  L 247.88 189.06
  Q 248.45 189.80 248.46 188.87
  Q 248.49 186.35 247.60 184.08
  Q 247.42 183.62 247.48 183.14
  Q 248.12 177.41 250.64 174.13
  Q 263.49 163.58 274.61 152.25
  Q 274.82 153.76 277.03 152.56
  C 283.40 149.08 284.85 154.84 284.65 159.59
  Q 284.32 167.54 286.34 175.43
  L 274.47 194.67
  Q 274.17 195.16 274.62 195.50
  L 275.15 195.89
  Q 272.19 197.91 267.76 197.47
  A 0.60 0.60 0.0 0 0 267.35 198.55
  C 269.14 199.84 270.31 201.60 272.23 202.74
  C 280.71 207.75 286.45 211.97 297.47 215.90
  Q 299.27 222.38 304.91 226.10
  C 308.54 228.49 313.90 229.47 317.02 225.35
  A 0.68 0.68 0.0 0 1 318.21 225.58
  L 320.11 232.40
  A 0.51 0.51 0.0 0 1 319.48 233.03
  Q 318.19 232.68 317.29 233.55
  A 0.46 0.46 0.0 0 0 317.57 234.34
  L 374.72 238.71
  Q 381.66 241.98 385.78 246.94
  Q 386.10 247.33 386.17 247.83
  C 386.65 251.07 383.99 254.42 381.62 256.83
  L 315.97 267.27
  A 0.65 0.64 -43.8 0 0 315.94 268.54
  Q 317.94 268.93 319.89 268.14
  A 1.08 1.08 0.0 0 1 321.34 269.38
  L 318.61 281.37
  A 1.01 1.01 0.0 0 1 317.27 282.09
  Q 315.95 281.60 313.97 281.49
  C 287.70 280.15 287.63 250.91 266.26 242.19
  C 256.92 238.37 246.18 242.48 237.68 246.77
  Q 230.83 250.23 228.30 250.65
  C 222.42 251.65 213.14 249.18 211.85 241.97
  Q 211.77 241.50 212.25 241.50
  C 218.27 241.43 222.41 238.12 223.97 232.41
  C 225.01 228.57 225.44 223.90 223.14 220.40
  A 0.75 0.75 0.0 0 0 222.09 220.19
  L 219.23 222.15
  A 0.87 0.87 0.0 0 1 217.96 221.06
  L 227.21 201.71
  A 0.50 0.49 13.0 0 0 226.76 201.00
  L 226.23 201.00
  Q 225.93 201.00 225.69 201.19
  L 202.45 219.80
  A 1.15 1.15 0.0 0 1 200.70 219.42
  L 194.73 207.65
  A 0.73 0.72 -38.7 0 0 193.52 207.52
  C 191.29 210.28 191.12 216.45 190.60 219.97
  A 0.70 0.69 32.0 0 1 189.34 220.26
  Q 185.39 214.57 180.05 209.44
  Q 180.44 205.65 179.32 201.34
  Q 179.19 200.85 178.80 200.52
  C 174.80 197.08 179.89 190.16 178.68 185.44
  A 1.18 1.13 52.0 0 1 178.76 184.66
  L 181.30 179.65
  Q 181.54 179.16 181.53 178.61
  C 181.49 177.13 182.57 176.99 182.79 176.05
  Q 182.82 175.90 182.76 175.76
  Q 182.59 175.32 182.18 175.55
  L 180.51 176.52
  Q 182.50 173.50 184.34 171.81
  Q 185.10 171.12 186.21 171.45
  Q 186.68 171.59 187.11 171.35
  L 202.19 162.88
  L 211.06 160.47
  A 0.98 0.97 87.3 0 0 211.77 159.68
  L 217.45 123.93
  Q 218.91 125.98 220.02 127.78
  C 228.06 140.77 237.86 123.36 240.29 116.80
  Q 242.79 110.10 245.52 103.45
  Z"
/>
<path fill="#886db3" d="
  M 117.27 123.20
  Q 116.08 123.24 114.83 123.84
  L 111.49 120.00
  Q 111.08 119.52 110.91 120.13
  Q 110.60 121.22 109.02 121.12
  L 103.35 109.36
  A 0.30 0.30 0.0 0 1 103.83 109.02
  L 117.27 123.20
  Z"
/>
<path fill="#886db3" d="
  M 321.60 108.97
  Q 322.91 110.63 321.81 112.06
  Q 319.47 115.11 317.21 117.69
  Q 315.98 115.93 313.59 118.83
  L 313.18 116.71
  L 321.60 108.97
  Z"
/>
<path fill="#ece6ca" d="
  M 317.21 117.69
  L 312.56 123.61
  Q 310.21 124.84 310.18 123.29
  Q 311.40 120.70 313.59 118.83
  Q 315.98 115.93 317.21 117.69
  Z"
/>
<path fill="#8e4495" d="
  M 114.83 123.84
  L 129.59 140.50
  A 0.24 0.23 -77.5 0 0 129.98 140.25
  L 129.51 139.15
  C 132.79 138.01 135.66 143.56 137.83 145.35
  C 142.30 149.05 145.72 153.67 150.11 157.32
  A 1.10 1.05 -81.0 0 1 150.44 157.80
  Q 150.72 158.63 150.07 159.02
  Q 149.72 159.23 149.99 159.54
  L 153.18 163.30
  Q 153.50 163.68 153.50 164.17
  L 153.50 165.25
  Q 153.50 165.76 154.01 165.74
  Q 155.07 165.69 155.78 166.16
  L 153.74 166.33
  C 146.38 163.21 135.62 157.39 131.96 161.61
  A 0.86 0.86 0.0 0 0 131.77 162.39
  Q 132.32 164.45 133.00 165.96
  Q 133.45 166.95 132.19 167.07
  L 109.02 121.12
  Q 110.60 121.22 110.91 120.13
  Q 111.08 119.52 111.49 120.00
  L 114.83 123.84
  Z"
/>
<path fill="#ece6ca" d="
  M 117.27 123.20
  L 122.22 128.05
  C 122.35 132.06 126.67 136.61 129.51 139.15
  L 129.98 140.25
  A 0.24 0.23 -77.5 0 1 129.59 140.50
  L 114.83 123.84
  Q 116.08 123.24 117.27 123.20
  Z"
/>
<path fill="#886db3" d="
  M 310.18 123.29
  Q 310.21 124.84 312.56 123.61
  Q 311.52 128.37 306.26 132.76
  Q 304.85 133.94 303.62 134.14
  Q 303.18 134.21 303.07 134.65
  Q 302.59 136.67 301.27 138.32
  Q 300.99 138.67 300.55 138.57
  C 295.17 137.43 298.57 132.12 302.24 131.47
  Q 302.71 131.39 303.04 131.03
  L 310.18 123.29
  Z"
/>
<path fill="#a84495" d="
  M 122.22 128.05
  Q 122.97 128.11 123.44 128.56
  Q 135.41 140.22 160.53 165.26
  Q 158.67 167.19 155.78 166.16
  Q 155.07 165.69 154.01 165.74
  Q 153.50 165.76 153.50 165.25
  L 153.50 164.17
  Q 153.50 163.68 153.18 163.30
  L 149.99 159.54
  Q 149.72 159.23 150.07 159.02
  Q 150.72 158.63 150.44 157.80
  A 1.10 1.05 -81.0 0 0 150.11 157.32
  C 145.72 153.67 142.30 149.05 137.83 145.35
  C 135.66 143.56 132.79 138.01 129.51 139.15
  C 126.67 136.61 122.35 132.06 122.22 128.05
  Z"
/>
<path fill="#8e4495" d="
  M 293.06 135.41
  C 297.43 137.66 294.80 139.48 295.39 142.49
  C 296.27 146.90 299.24 147.51 302.76 149.13
  L 290.55 168.62
  Q 290.98 164.25 291.17 160.56
  C 291.26 158.74 292.18 157.42 292.33 155.48
  C 292.54 152.67 293.72 149.64 291.26 147.13
  C 288.43 144.25 283.56 145.62 281.06 148.29
  Q 280.67 148.70 280.36 148.22
  Q 280.17 147.92 280.17 147.43
  L 293.06 135.41
  Z"
/>
<path fill="#5d4597" d="
  M 290.55 168.62
  L 286.34 175.43
  Q 284.32 167.54 284.65 159.59
  C 284.85 154.84 283.40 149.08 277.03 152.56
  Q 274.82 153.76 274.61 152.25
  L 280.17 147.43
  Q 280.17 147.92 280.36 148.22
  Q 280.67 148.70 281.06 148.29
  C 283.56 145.62 288.43 144.25 291.26 147.13
  C 293.72 149.64 292.54 152.67 292.33 155.48
  C 292.18 157.42 291.26 158.74 291.17 160.56
  Q 290.98 164.25 290.55 168.62
  Z"
/>
<path fill="#2a3244" d="
  M 300.15 156.32
  C 302.53 152.63 304.76 150.58 308.54 148.87
  A 0.40 0.40 0.0 0 1 309.03 149.48
  Q 295.10 168.30 281.92 187.39
  Q 281.43 188.10 280.89 188.09
  Q 280.28 188.07 280.59 187.55
  Q 290.36 171.57 300.15 156.32
  Z"
/>
<path fill="#40367a" d="
  M 153.74 166.33
  L 157.92 172.36
  A 1.60 1.53 -63.5 0 1 158.20 173.26
  Q 158.20 174.35 159.02 175.40
  C 154.79 174.11 145.78 169.85 141.80 170.44
  Q 137.48 171.07 137.85 178.22
  L 132.19 167.07
  Q 133.45 166.95 133.00 165.96
  Q 132.32 164.45 131.77 162.39
  A 0.86 0.86 0.0 0 1 131.96 161.61
  C 135.62 157.39 146.38 163.21 153.74 166.33
  Z"
/>
<path fill="#545469" d="
  M 233.52 161.26
  Q 246.12 161.06 258.05 164.66
  A 0.66 0.66 0.0 0 1 258.24 165.83
  Q 253.80 168.93 250.64 174.13
  Q 248.12 177.41 247.48 183.14
  Q 247.42 183.62 247.60 184.08
  Q 248.49 186.35 248.46 188.87
  Q 248.45 189.80 247.88 189.06
  L 246.54 187.31
  A 1.68 1.60 86.2 0 0 246.17 186.97
  C 238.76 182.44 230.86 175.91 228.29 167.55
  C 227.78 165.91 228.52 164.41 227.62 162.67
  Q 227.35 162.12 227.95 162.04
  L 233.52 161.26
  Z"
/>
<path fill="#545469" d="
  M 202.19 162.88
  L 187.11 171.35
  Q 186.68 171.59 186.21 171.45
  Q 185.10 171.12 184.34 171.81
  Q 182.50 173.50 180.51 176.52
  Q 177.86 177.63 176.22 179.66
  A 0.88 0.87 -40.2 0 0 176.13 180.63
  Q 179.27 186.39 175.20 191.42
  Q 174.86 191.83 174.45 191.49
  C 170.53 188.25 167.71 184.69 163.72 180.67
  Q 161.31 178.24 159.93 175.31
  L 169.14 173.91
  L 174.67 179.42
  Q 174.94 179.69 175.20 179.42
  L 175.46 179.16
  A 0.36 0.35 52.0 0 0 175.51 178.71
  L 174.82 177.60
  Q 174.48 177.06 174.98 176.66
  Q 186.92 167.21 202.19 162.88
  Z"
/>
<path fill="#5d4597" d="
  M 160.53 165.26
  L 169.14 173.91
  L 159.93 175.31
  Q 158.82 175.09 159.02 175.40
  Q 158.20 174.35 158.20 173.26
  A 1.60 1.53 -63.5 0 0 157.92 172.36
  L 153.74 166.33
  L 155.78 166.16
  Q 158.67 167.19 160.53 165.26
  Z"
/>
<path fill="#010101" d="
  M 211.44 175.04
  C 216.14 162.03 228.27 177.39 227.67 184.25
  A 1.46 1.46 0.0 0 1 227.29 185.12
  C 224.81 187.91 220.36 188.04 217.07 188.04
  C 208.58 188.04 209.36 180.81 211.44 175.04
  Z"
/>
<path fill="#1d2836" d="
  M 159.02 175.40
  Q 158.82 175.09 159.93 175.31
  Q 161.31 178.24 163.72 180.67
  C 167.71 184.69 170.53 188.25 174.45 191.49
  Q 174.86 191.83 175.20 191.42
  Q 179.27 186.39 176.13 180.63
  A 0.88 0.87 -40.2 0 1 176.22 179.66
  Q 177.86 177.63 180.51 176.52
  L 182.18 175.55
  Q 182.59 175.32 182.76 175.76
  Q 182.82 175.90 182.79 176.05
  C 182.57 176.99 181.49 177.13 181.53 178.61
  Q 181.54 179.16 181.30 179.65
  L 178.76 184.66
  A 1.18 1.13 52.0 0 0 178.68 185.44
  C 179.89 190.16 174.80 197.08 178.80 200.52
  Q 179.19 200.85 179.32 201.34
  Q 180.44 205.65 180.05 209.44
  Q 178.73 210.43 179.01 211.77
  Q 179.89 215.80 179.99 218.48
  Q 180.01 219.14 179.40 218.88
  L 148.34 205.42
  A 0.44 0.44 0.0 0 1 148.14 204.79
  Q 148.92 203.48 150.42 203.76
  A 0.38 0.37 79.9 0 0 150.81 203.20
  Q 143.36 190.52 137.85 178.22
  Q 137.48 171.07 141.80 170.44
  C 145.78 169.85 154.79 174.11 159.02 175.40
  Z"
/>
<path fill="#010101" d="
  M 197.61 171.45
  Q 199.38 172.63 198.38 174.11
  C 195.13 178.96 188.87 190.58 181.82 186.92
  Q 179.43 185.69 181.14 183.56
  C 185.57 178.04 189.36 173.97 195.77 171.27
  Q 196.74 170.86 197.61 171.45
  Z"
/>
<path fill="#5d4597" d="
  M 215.04 171.57
  C 220.61 170.03 225.63 178.85 226.24 182.90
  A 1.43 1.43 0.0 0 1 226.01 183.93
  C 223.73 187.23 216.08 186.58 213.50 185.77
  C 209.55 184.54 212.89 174.70 214.16 172.27
  A 1.42 1.42 0.0 0 1 215.04 171.57
  Z"
/>
<path fill="#ece6ca" d="
  M 341.14 184.52
  Q 340.72 181.62 343.65 178.93
  A 0.71 0.70 49.9 0 0 343.73 177.97
  L 342.93 176.96
  L 350.33 171.83
  A 0.39 0.39 0.0 0 1 350.86 172.40
  L 341.14 184.52
  Z"
/>
<path fill="#5d4597" d="
  M 183.57 185.80
  Q 181.97 185.28 182.93 183.90
  Q 188.02 176.60 195.95 172.62
  A 0.80 0.79 -86.2 0 1 196.96 173.78
  C 194.54 177.36 188.76 187.48 183.57 185.80
  Z"
/>
<path fill="#a84495" d="
  M 342.93 176.96
  L 343.73 177.97
  A 0.71 0.70 49.9 0 1 343.65 178.93
  Q 340.72 181.62 341.14 184.52
  L 325.28 204.55
  L 324.64 204.49
  A 0.32 0.32 0.0 0 1 324.40 203.99
  L 326.43 201.05
  Q 326.72 200.63 326.66 200.12
  C 325.86 192.32 316.01 195.51 312.53 198.76
  L 307.80 201.62
  Q 307.28 201.30 307.24 200.93
  Q 307.21 200.64 307.64 200.34
  Q 325.02 188.21 342.93 176.96
  Z"
/>
<path fill="#545469" d="
  M 297.47 215.90
  C 286.45 211.97 280.71 207.75 272.23 202.74
  C 270.31 201.60 269.14 199.84 267.35 198.55
  A 0.60 0.60 0.0 0 1 267.76 197.47
  Q 272.19 197.91 275.15 195.89
  L 279.38 189.56
  A 0.78 0.77 43.1 0 1 280.64 189.52
  Q 281.01 190.00 281.71 189.70
  Q 282.12 189.51 282.51 188.98
  Q 283.75 187.23 284.80 185.94
  Q 288.53 186.41 291.02 188.78
  A 0.40 0.40 0.0 0 0 291.64 188.27
  Q 289.73 185.31 286.30 183.65
  L 287.81 181.61
  Q 288.17 181.13 288.61 181.53
  Q 297.40 189.41 304.24 199.05
  Q 304.60 199.57 303.97 199.52
  C 296.69 199.00 296.11 210.74 297.47 215.90
  Z"
/>
<path fill="#847c75" d="
  M 286.30 183.65
  Q 289.73 185.31 291.64 188.27
  A 0.40 0.40 0.0 0 1 291.02 188.78
  Q 288.53 186.41 284.80 185.94
  L 286.30 183.65
  Z"
/>
<path fill="#5d4597" d="
  M 325.28 204.55
  L 316.50 215.97
  Q 316.11 216.49 315.83 215.90
  Q 315.59 215.41 315.69 214.58
  Q 320.85 209.28 320.48 202.28
  C 320.23 197.52 315.60 198.65 312.53 198.76
  C 316.01 195.51 325.86 192.32 326.66 200.12
  Q 326.72 200.63 326.43 201.05
  L 324.40 203.99
  A 0.32 0.32 0.0 0 0 324.64 204.49
  L 325.28 204.55
  Z"
/>
<path fill="#2a3244" d="
  M 315.69 214.58
  L 307.80 201.62
  L 312.53 198.76
  C 315.60 198.65 320.23 197.52 320.48 202.28
  Q 320.85 209.28 315.69 214.58
  Z"
/>
<path fill="#886db3" d="
  M 314.42 216.35
  Q 315.37 218.42 312.90 219.12
  Q 312.42 219.26 311.92 219.16
  L 299.26 216.75
  Q 296.77 210.61 299.09 204.33
  C 303.67 191.91 313.02 213.29 314.42 216.35
  Z"
/>
<path fill="#aca595" d="
  M 159.51 211.92
  Q 158.71 212.51 159.09 213.17
  Q 159.33 213.61 159.81 213.77
  Q 167.25 216.42 170.24 219.53
  C 174.34 223.80 178.60 225.96 181.60 229.54
  Q 181.94 229.94 182.39 229.67
  Q 182.90 229.38 183.10 228.80
  Q 183.62 228.77 183.85 228.55
  Q 184.06 228.35 183.94 227.89
  Q 181.92 219.85 180.45 211.90
  A 0.39 0.39 0.0 0 1 181.15 211.59
  L 191.00 224.26
  A 0.36 0.35 -59.9 0 0 191.63 224.09
  L 193.40 211.58
  Q 197.22 217.32 196.83 224.44
  Q 196.81 224.84 197.19 224.98
  Q 197.32 225.03 197.49 225.04
  Q 196.88 225.99 197.65 226.76
  Q 197.05 228.26 197.55 230.80
  L 194.80 229.55
  A 0.53 0.53 0.0 0 0 194.24 230.45
  L 197.38 233.02
  L 196.95 235.36
  A 0.58 0.57 -73.4 0 1 196.16 235.79
  Q 193.54 234.69 192.27 235.94
  Q 177.63 237.45 175.64 251.83
  C 175.27 254.45 176.50 257.02 178.44 258.56
  C 186.47 264.94 200.87 265.71 207.33 256.69
  C 209.31 256.78 209.31 257.23 210.65 258.04
  C 234.63 272.48 261.90 276.27 290.44 275.49
  C 292.31 275.44 293.63 276.36 294.62 276.30
  Q 295.36 276.26 295.33 275.69
  C 301.03 281.42 307.54 283.01 315.16 283.35
  C 317.89 283.48 317.76 285.29 317.00 287.30
  Q 315.05 292.46 312.71 297.92
  A 0.49 0.49 0.0 0 1 311.89 298.05
  Q 307.11 292.43 302.36 286.52
  Q 302.16 286.27 301.94 286.23
  Q 301.33 286.12 301.23 287.01
  A 0.83 0.81 29.2 0 0 301.41 287.62
  L 311.77 300.20
  L 310.95 300.18
  A 0.49 0.49 0.0 0 0 310.57 300.98
  L 324.32 317.58
  Q 324.62 317.94 324.30 318.30
  C 319.96 323.12 319.31 330.53 319.59 336.65
  A 0.68 0.67 16.7 0 1 318.52 337.22
  L 287.29 314.94
  Q 286.89 314.65 286.58 315.05
  L 286.16 315.59
  Q 280.78 312.88 278.39 308.60
  Q 278.12 308.12 277.60 308.24
  A 0.49 0.49 0.0 0 0 277.25 308.87
  L 283.05 326.24
  L 275.07 327.81
  Q 274.53 327.92 274.29 328.42
  L 273.94 329.14
  Q 273.75 329.55 273.29 329.54
  Q 272.19 329.52 271.44 330.78
  L 259.38 318.30
  A 0.40 0.40 0.0 0 0 258.80 318.84
  C 268.67 329.92 278.99 342.29 290.55 351.55
  A 0.62 0.61 -75.7 0 0 291.54 350.96
  C 290.62 345.83 289.13 341.53 287.46 336.62
  C 285.19 329.92 283.73 322.20 281.20 315.33
  Q 280.55 313.56 282.12 314.61
  L 294.27 322.79
  A 0.61 0.60 39.3 0 1 294.37 323.71
  Q 291.91 326.22 289.78 329.27
  Q 289.61 329.50 289.63 329.73
  Q 289.67 330.21 290.01 329.87
  L 291.03 328.85
  Q 291.51 328.37 291.74 329.00
  L 299.08 348.39
  L 295.00 356.17
  Q 294.76 356.63 294.28 356.80
  L 288.44 358.81
  L 272.96 341.24
  Q 272.56 340.79 273.09 340.48
  L 274.73 339.54
  A 0.52 0.52 0.0 0 0 274.84 338.72
  L 274.60 338.47
  Q 274.34 338.22 274.02 338.39
  L 271.42 339.80
  C 270.80 338.65 269.06 338.58 267.90 339.12
  C 261.94 341.84 247.01 347.43 240.78 345.43
  L 240.43 344.93
  A 0.74 0.74 0.0 0 0 239.10 345.26
  L 227.63 426.02
  Q 223.15 428.00 220.68 431.43
  Q 217.18 436.29 211.82 439.44
  Q 206.92 390.68 202.00 341.75
  Q 201.96 341.37 201.24 340.53
  L 202.75 338.45
  L 211.71 337.58
  A 0.52 0.52 0.0 0 0 211.86 336.59
  Q 211.03 336.23 209.76 336.61
  Q 210.29 336.16 210.41 335.83
  Q 210.54 335.48 209.93 335.24
  Q 207.42 334.23 204.64 334.07
  Q 204.12 334.04 203.81 334.47
  L 202.22 336.73
  Q 201.89 337.20 201.33 337.12
  Q 197.52 336.59 194.20 338.51
  A 2.17 2.13 -57.6 0 1 193.05 338.78
  Q 187.27 338.50 181.41 335.61
  Q 179.42 334.62 176.51 334.81
  Q 176.05 334.84 175.69 334.57
  L 172.94 332.55
  A 0.44 0.40 15.4 0 1 172.78 332.30
  Q 172.12 329.54 169.32 329.71
  Q 168.63 329.75 168.84 329.10
  L 168.96 328.75
  Q 169.15 328.14 168.83 327.59
  Q 166.79 324.00 163.02 322.83
  Q 162.54 322.68 162.06 322.82
  Q 157.07 324.32 153.07 320.88
  Q 152.67 320.54 152.90 320.06
  Q 154.23 317.25 155.40 314.41
  Q 155.60 313.91 154.39 313.67
  Q 155.19 312.11 154.31 311.49
  Q 156.93 310.73 156.54 308.77
  Q 158.46 307.90 157.67 306.48
  Q 158.53 304.93 158.12 303.40
  A 0.83 0.82 -3.6 0 0 157.42 302.79
  C 155.35 302.53 154.61 303.82 153.28 304.75
  Q 136.21 316.70 121.86 331.77
  Q 121.54 332.11 119.37 333.92
  C 117.50 335.49 116.86 337.90 115.06 339.45
  Q 112.61 341.56 111.68 342.17
  C 104.97 346.62 99.02 351.53 93.02 355.46
  Q 92.60 355.73 92.23 355.42
  Q 90.59 354.04 90.45 351.88
  Q 90.41 351.41 90.09 351.07
  C 88.87 349.75 89.18 349.06 90.22 347.70
  C 100.78 333.80 112.66 320.03 122.71 306.71
  Q 123.81 305.27 122.73 304.69
  L 141.59 280.96
  A 0.43 0.43 0.0 0 0 141.40 280.29
  Q 141.01 280.16 140.72 280.46
  Q 139.07 282.21 137.99 284.14
  A 0.32 0.32 0.0 0 1 137.39 284.01
  C 136.22 272.53 137.86 260.49 144.59 250.81
  C 149.76 243.39 156.27 246.99 161.84 251.36
  A 1.71 1.69 -22.5 0 0 162.73 251.72
  C 171.22 252.52 173.14 248.16 175.86 241.50
  Q 176.07 240.98 176.60 240.82
  Q 182.35 239.02 184.90 233.46
  Q 185.07 233.09 185.46 233.02
  Q 188.63 232.41 190.97 230.21
  Q 191.62 229.61 190.75 229.80
  Q 186.75 230.68 183.76 233.35
  Q 182.96 234.06 182.08 233.45
  L 139.33 203.68
  A 0.33 0.33 0.0 0 1 139.65 203.10
  L 159.51 211.92
  Z"
/>
<path fill="#ece6ca" d="
  M 222.10 208.60
  Q 213.44 213.79 207.50 220.75
  C 204.17 224.66 199.62 227.65 199.02 232.23
  Q 197.75 231.32 197.55 230.80
  Q 197.05 228.26 197.65 226.76
  Q 199.61 225.94 199.14 223.92
  Q 199.01 223.34 198.51 223.67
  Q 197.92 224.07 197.49 225.04
  Q 197.32 225.03 197.19 224.98
  Q 196.81 224.84 196.83 224.44
  Q 197.22 217.32 193.40 211.58
  L 193.57 209.50
  A 0.40 0.40 0.0 0 1 194.33 209.37
  L 199.99 221.82
  A 1.01 1.00 58.3 0 0 201.53 222.19
  L 223.93 204.18
  Q 224.54 203.69 224.31 204.44
  Q 223.51 207.09 222.10 208.60
  Z"
/>
<path fill="#aca595" d="
  M 222.10 208.60
  C 220.23 213.21 217.21 221.89 213.42 224.67
  Q 207.41 229.09 201.45 233.49
  Q 201.04 233.79 200.59 233.56
  Q 199.26 232.92 199.02 232.23
  C 199.62 227.65 204.17 224.66 207.50 220.75
  Q 213.44 213.79 222.10 208.60
  Z"
/>
<path fill="#545469" d="
  M 148.14 211.74
  Q 145.00 216.68 142.75 221.95
  C 141.57 224.70 136.87 232.13 137.72 235.59
  Q 137.84 236.10 137.67 236.58
  C 135.67 242.26 134.11 247.48 134.35 253.73
  Q 134.54 259.00 133.34 264.30
  C 129.95 246.93 137.05 225.55 145.52 210.45
  Q 145.80 209.97 146.31 210.17
  Q 147.20 210.52 148.14 211.74
  Z"
/>
<path fill="#1d2836" d="
  M 148.14 211.74
  Q 156.72 217.68 165.46 223.82
  Q 167.19 225.04 166.63 226.51
  Q 166.43 227.02 166.43 227.58
  Q 166.35 236.60 173.88 240.94
  Q 174.38 241.22 174.14 241.75
  C 173.42 243.33 173.03 245.25 171.90 246.47
  C 162.66 256.53 157.69 240.90 148.20 245.51
  C 140.87 249.08 136.75 261.22 135.99 268.83
  C 135.79 270.81 136.25 273.35 135.76 275.62
  A 0.52 0.52 0.0 0 1 134.73 275.58
  L 133.34 264.30
  Q 134.54 259.00 134.35 253.73
  C 134.11 247.48 135.67 242.26 137.67 236.58
  Q 137.84 236.10 137.72 235.59
  C 136.87 232.13 141.57 224.70 142.75 221.95
  Q 145.00 216.68 148.14 211.74
  Z"
/>
<path fill="#ccc5b4" d="
  M 159.51 211.92
  L 180.14 221.41
  Q 180.62 221.63 180.80 222.13
  L 183.10 228.80
  Q 182.90 229.38 182.39 229.67
  Q 181.94 229.94 181.60 229.54
  C 178.60 225.96 174.34 223.80 170.24 219.53
  Q 167.25 216.42 159.81 213.77
  Q 159.33 213.61 159.09 213.17
  Q 158.71 212.51 159.51 211.92
  Z"
/>
<path fill="#5d4597" d="
  M 314.42 216.35
  L 316.73 222.73
  Q 316.90 223.18 316.63 223.58
  C 311.33 231.69 301.49 222.70 299.26 216.75
  L 311.92 219.16
  Q 312.42 219.26 312.90 219.12
  Q 315.37 218.42 314.42 216.35
  Z"
/>
<path fill="#a84495" d="
  M 205.08 233.25
  C 213.25 241.00 221.19 233.21 219.39 223.86
  Q 219.28 223.28 219.83 223.06
  L 221.95 222.22
  Q 222.66 221.94 222.83 222.68
  Q 224.71 230.84 220.11 236.82
  C 215.86 242.33 207.28 239.17 203.40 234.92
  Q 203.06 234.55 203.38 234.16
  L 204.07 233.31
  Q 204.54 232.74 205.08 233.25
  Z"
/>
<path fill="#545469" d="
  M 197.65 226.76
  Q 196.88 225.99 197.49 225.04
  Q 197.92 224.07 198.51 223.67
  Q 199.01 223.34 199.14 223.92
  Q 199.61 225.94 197.65 226.76
  Z"
/>
<path fill="#ece6ca" d="
  M 214.20 229.05
  Q 213.06 228.87 213.47 226.67
  L 217.54 224.20
  A 0.51 0.51 0.0 0 1 218.31 224.61
  L 218.56 229.89
  A 0.52 0.52 0.0 0 1 217.58 230.14
  Q 216.44 227.80 214.20 229.05
  Z"
/>
<path fill="#aca595" d="
  M 213.47 226.67
  Q 213.06 228.87 214.20 229.05
  Q 212.33 231.48 214.93 233.49
  Q 215.48 233.92 214.82 234.15
  Q 209.98 235.83 206.30 232.42
  Q 205.83 231.99 206.35 231.63
  L 213.47 226.67
  Z"
/>
<path fill="#8e4495" d="
  M 177.36 236.83
  L 180.54 235.03
  A 0.71 0.70 1.0 0 1 181.49 236.01
  Q 180.41 237.82 177.80 238.55
  C 170.97 240.46 167.80 233.51 168.17 228.19
  A 1.20 1.20 0.0 0 1 170.53 227.96
  C 171.69 232.35 171.76 235.17 176.55 236.90
  A 0.98 0.98 0.0 0 0 177.36 236.83
  Z"
/>
<path fill="#aca595" d="
  M 173.25 229.16
  C 175.28 230.76 177.69 231.86 177.44 235.08
  A 0.54 0.54 0.0 0 1 176.72 235.55
  Q 172.63 234.06 172.67 229.44
  Q 172.67 228.70 173.25 229.16
  Z"
/>
<path fill="#847c75" d="
  M 215.41 230.68
  Q 215.32 229.97 215.94 230.33
  Q 216.43 230.61 216.45 231.11
  A 0.57 0.44 -56.8 0 1 215.49 231.44
  L 215.41 230.68
  Z"
/>
<path fill="#ece6ca" d="
  M 197.38 233.02
  L 209.51 240.87
  Q 209.89 241.12 209.99 241.56
  C 211.74 249.57 220.39 253.55 227.78 252.46
  Q 230.54 252.05 236.76 249.09
  C 245.78 244.81 256.83 239.47 266.86 244.13
  C 278.54 249.55 284.69 263.06 290.94 271.58
  Q 283.63 272.56 273.25 271.93
  C 249.66 270.50 229.50 266.42 210.43 252.82
  Q 210.05 252.54 209.91 253.00
  Q 209.61 254.00 208.46 253.81
  C 209.24 242.81 201.97 237.98 192.27 235.94
  Q 193.54 234.69 196.16 235.79
  A 0.58 0.57 -73.4 0 0 196.95 235.36
  L 197.38 233.02
  Z"
/>
<path fill="#010101" d="
  M 192.27 235.94
  C 201.97 237.98 209.24 242.81 208.46 253.81
  L 207.33 256.69
  C 200.87 265.71 186.47 264.94 178.44 258.56
  C 176.50 257.02 175.27 254.45 175.64 251.83
  Q 177.63 237.45 192.27 235.94
  Z"
/>
<g stroke-width="2.00" fill="none" stroke-linecap="butt">
<path stroke="#9b4495" vector-effect="non-scaling-stroke" d="
  M 206.30 255.14
  Q 198.23 255.14 192.95 251.53
  Q 190.80 250.07 189.56 247.36
  Q 189.32 246.81 188.73 246.93
  Q 186.98 247.29 186.35 246.28"
/>
<path stroke="#55234b" vector-effect="non-scaling-stroke" d="
  M 186.35 246.28
  C 189.70 242.97 197.18 248.46 199.80 250.76
  A 0.42 0.42 0.0 0 0 200.50 250.45
  L 200.50 250.00
  Q 200.50 249.77 200.34 249.60
  Q 195.28 244.46 188.64 243.30"
/>
<path stroke="#9b4495" vector-effect="non-scaling-stroke" d="
  M 188.64 243.30
  Q 188.29 243.51 188.23 242.81
  A 0.94 0.91 61.2 0 1 188.41 242.15
  Q 189.20 241.10 188.93 239.83
  Q 188.83 239.33 188.32 239.25
  Q 187.18 239.05 187.58 237.82"
/>
<path stroke="#48234b" vector-effect="non-scaling-stroke" d="
  M 188.64 243.30
  L 186.76 243.86
  Q 186.25 244.01 185.95 244.45
  L 182.14 249.98
  A 0.60 0.59 35.1 0 0 182.29 250.79
  Q 183.05 251.34 183.52 250.54
  Q 184.87 248.22 186.35 246.28"
/>
</g>
<path fill="#a84495" d="
  M 206.30 255.14
  Q 198.23 255.14 192.95 251.53
  Q 190.80 250.07 189.56 247.36
  Q 189.32 246.81 188.73 246.93
  Q 186.98 247.29 186.35 246.28
  C 189.70 242.97 197.18 248.46 199.80 250.76
  A 0.42 0.42 0.0 0 0 200.50 250.45
  L 200.50 250.00
  Q 200.50 249.77 200.34 249.60
  Q 195.28 244.46 188.64 243.30
  Q 188.29 243.51 188.23 242.81
  A 0.94 0.91 61.2 0 1 188.41 242.15
  Q 189.20 241.10 188.93 239.83
  Q 188.83 239.33 188.32 239.25
  Q 187.18 239.05 187.58 237.82
  C 192.39 237.18 201.82 239.09 204.75 244.24
  Q 208.09 250.12 206.30 255.14
  Z"
/>
<path fill="#8e4495" d="
  M 187.58 237.82
  Q 187.18 239.05 188.32 239.25
  Q 188.83 239.33 188.93 239.83
  Q 189.20 241.10 188.41 242.15
  A 0.94 0.91 61.2 0 0 188.23 242.81
  Q 188.29 243.51 188.64 243.30
  L 186.76 243.86
  Q 186.25 244.01 185.95 244.45
  L 182.14 249.98
  A 0.60 0.59 35.1 0 0 182.29 250.79
  Q 183.05 251.34 183.52 250.54
  Q 184.87 248.22 186.35 246.28
  Q 186.98 247.29 188.73 246.93
  Q 189.32 246.81 189.56 247.36
  Q 190.80 250.07 192.95 251.53
  Q 198.23 255.14 206.30 255.14
  C 201.35 264.99 186.96 262.73 179.68 257.53
  Q 178.17 256.46 177.61 253.92
  C 176.13 247.25 181.73 240.76 187.58 237.82
  Z"
/>
<path fill="#5d4597" d="
  M 374.72 238.71
  L 388.88 239.70
  Q 397.33 244.68 396.32 251.92
  A 1.08 1.08 0.0 0 1 395.74 252.75
  Q 394.02 253.63 393.74 254.86
  L 381.62 256.83
  C 383.99 254.42 386.65 251.07 386.17 247.83
  Q 386.10 247.33 385.78 246.94
  Q 381.66 241.98 374.72 238.71
  Z"
/>
<path fill="#a84495" d="
  M 388.88 239.70
  L 455.39 244.18
  A 0.35 0.35 0.0 0 1 455.42 244.88
  L 393.74 254.86
  Q 394.02 253.63 395.74 252.75
  A 1.08 1.08 0.0 0 0 396.32 251.92
  Q 397.33 244.68 388.88 239.70
  Z"
/>
<path fill="#010101" d="
  M 188.64 243.30
  Q 195.28 244.46 200.34 249.60
  Q 200.50 249.77 200.50 250.00
  L 200.50 250.45
  A 0.42 0.42 0.0 0 1 199.80 250.76
  C 197.18 248.46 189.70 242.97 186.35 246.28
  Q 184.87 248.22 183.52 250.54
  Q 183.05 251.34 182.29 250.79
  A 0.60 0.59 35.1 0 1 182.14 249.98
  L 185.95 244.45
  Q 186.25 244.01 186.76 243.86
  L 188.64 243.30
  Z"
/>
<path fill="#ece6ca" d="
  M 428.98 246.31
  A 0.17 0.17 0.0 0 1 428.80 246.48
  L 428.64 246.47
  A 12.83 0.87 2.3 0 1 415.86 245.09
  L 415.87 244.77
  A 12.83 0.87 2.3 0 1 428.73 244.41
  L 428.89 244.42
  A 0.17 0.17 0.0 0 1 429.05 244.59
  L 428.98 246.31
  Z"
/>
<path fill="#1d2836" d="
  M 107.47 267.01
  C 102.27 263.36 103.55 259.56 107.19 255.84
  Q 108.72 254.28 109.88 252.34
  L 129.96 249.48
  Q 131.11 249.32 131.05 250.48
  Q 130.65 259.29 131.86 268.02
  A 0.69 0.69 0.0 0 1 131.12 268.80
  L 107.47 267.01
  Z"
/>
<path fill="#40367a" d="
  M 109.88 252.34
  Q 108.72 254.28 107.19 255.84
  C 103.55 259.56 102.27 263.36 107.47 267.01
  L 97.73 266.38
  Q 94.69 260.28 102.32 253.46
  L 109.88 252.34
  Z"
/>
<path fill="#ccc5b4" d="
  M 290.94 271.58
  L 295.33 275.69
  Q 295.36 276.26 294.62 276.30
  C 293.63 276.36 292.31 275.44 290.44 275.49
  C 261.90 276.27 234.63 272.48 210.65 258.04
  C 209.31 257.23 209.31 256.78 207.33 256.69
  L 208.46 253.81
  Q 209.61 254.00 209.91 253.00
  Q 210.05 252.54 210.43 252.82
  C 229.50 266.42 249.66 270.50 273.25 271.93
  Q 283.63 272.56 290.94 271.58
  Z"
/>
<path fill="#8e4495" d="
  M 102.32 253.46
  Q 94.69 260.28 97.73 266.38
  L 60.97 263.57
  Q 63.17 263.77 63.79 263.11
  A 0.45 0.45 0.0 0 0 63.54 262.35
  Q 60.70 261.85 60.78 259.29
  L 102.32 253.46
  Z"
/>
<path fill="#886db3" d="
  M 60.78 259.29
  Q 60.70 261.85 63.54 262.35
  A 0.45 0.45 0.0 0 1 63.79 263.11
  Q 63.17 263.77 60.97 263.57
  Q 51.93 262.96 42.80 262.57
  Q 42.36 262.55 42.27 262.34
  Q 42.20 262.21 42.22 262.01
  Q 42.24 261.66 42.59 261.61
  L 60.78 259.29
  Z"
/>
<path fill="#1d2836" d="
  M 379.75 299.91
  Q 376.55 302.64 373.85 302.25
  C 375.62 290.59 371.32 278.73 361.73 271.54
  C 351.66 263.98 338.67 269.04 326.71 273.00
  Q 325.22 273.50 322.99 273.14
  A 0.62 0.62 0.0 0 1 322.47 272.43
  L 322.85 270.05
  Q 322.94 269.49 323.48 269.31
  C 326.61 268.27 329.31 266.68 332.48 266.10
  Q 341.33 264.50 350.21 263.17
  Q 359.61 261.76 366.17 267.58
  C 375.37 275.74 382.02 287.76 379.75 299.91
  Z"
/>
<path fill="#aca595" d="
  M 372.28 299.12
  L 365.75 305.93
  Q 365.40 306.30 364.89 306.24
  Q 364.50 306.20 364.19 306.41
  Q 363.74 306.72 363.41 307.15
  Q 362.91 307.80 362.05 307.76
  Q 361.58 307.74 361.42 307.30
  Q 361.16 306.55 359.98 306.71
  C 366.71 296.95 367.26 275.19 350.74 274.38
  Q 346.43 274.17 342.12 274.63
  Q 341.06 273.01 340.99 270.50
  Q 348.52 268.12 355.85 270.10
  Q 359.19 271.01 362.31 273.75
  Q 365.96 276.94 367.49 279.27
  Q 373.93 289.05 372.28 299.12
  Z"
/>
<path fill="#847c75" d="
  M 340.99 270.50
  Q 341.06 273.01 342.12 274.63
  C 329.07 277.86 322.71 291.71 323.99 304.29
  Q 321.60 305.91 324.42 309.87
  C 325.38 311.21 325.62 312.64 325.18 314.09
  C 320.63 309.08 318.87 302.65 315.52 296.74
  Q 315.25 296.26 315.46 295.76
  Q 319.55 285.83 321.80 275.33
  Q 321.88 274.95 322.27 274.97
  C 328.05 275.18 335.35 272.14 340.99 270.50
  Z"
/>
<path fill="#010101" d="
  M 359.98 306.71
  Q 359.15 307.71 359.88 308.59
  C 364.33 314.00 363.69 321.77 356.56 324.03
  Q 354.38 324.72 352.11 325.12
  Q 351.63 325.20 351.20 324.98
  Q 347.76 323.20 346.27 319.72
  L 345.49 316.99
  Q 345.33 316.46 344.81 316.63
  Q 328.18 322.05 323.99 304.29
  C 322.71 291.71 329.07 277.86 342.12 274.63
  Q 346.43 274.17 350.74 274.38
  C 367.26 275.19 366.71 296.95 359.98 306.71
  Z"
/>
<path stroke="#4f3e89" stroke-width="2.00" fill="none" stroke-linecap="butt" vector-effect="non-scaling-stroke" d="
  M 358.89 309.28
  L 347.65 317.88"
/>
<path fill="#40367a" d="
  M 358.89 309.28
  L 347.65 317.88
  Q 347.25 316.09 346.77 315.23
  Q 346.25 314.30 344.63 314.93
  C 332.13 319.75 325.11 311.17 325.62 299.27
  Q 326.14 287.12 334.80 279.59
  C 339.35 275.64 351.17 273.88 356.39 277.12
  C 366.34 283.28 363.99 298.98 357.96 306.85
  Q 357.64 307.27 357.82 307.76
  Q 358.15 308.61 358.89 309.28
  Z"
/>
<path fill="#010101" d="
  M 345.34 307.67
  C 340.45 309.82 335.83 306.04 334.34 301.59
  C 331.63 293.48 339.68 281.74 348.74 283.43
  C 356.87 284.96 357.30 294.50 354.78 300.70
  A 0.54 0.54 0.0 0 1 353.77 300.68
  C 353.05 298.68 350.44 296.01 348.05 297.34
  C 345.51 298.75 345.60 304.31 345.79 306.91
  A 0.77 0.77 0.0 0 1 345.34 307.67
  Z"
/>
<path stroke="#989185" stroke-width="2.00" fill="none" stroke-linecap="butt" vector-effect="non-scaling-stroke" d="
  M 336.31 302.46
  Q 336.45 301.48 337.33 301.31
  Q 337.77 301.22 338.10 301.52
  L 339.21 302.49
  A 1.48 1.48 0.0 0 0 341.35 300.47
  Q 340.16 298.95 341.56 297.42
  Q 341.89 297.06 342.39 297.02
  C 346.61 296.74 345.10 290.10 344.10 288.04
  Q 343.82 287.47 343.26 287.76
  Q 340.93 288.93 339.61 287.86"
/>
<path fill="#aca595" d="
  M 336.31 302.46
  Q 336.45 301.48 337.33 301.31
  Q 337.77 301.22 338.10 301.52
  L 339.21 302.49
  A 1.48 1.48 0.0 0 0 341.35 300.47
  Q 340.16 298.95 341.56 297.42
  Q 341.89 297.06 342.39 297.02
  C 346.61 296.74 345.10 290.10 344.10 288.04
  Q 343.82 287.47 343.26 287.76
  Q 340.93 288.93 339.61 287.86
  C 348.02 280.11 356.71 286.70 354.32 297.20
  Q 354.12 298.06 353.44 297.50
  C 345.62 291.15 344.16 300.52 344.54 305.72
  Q 344.58 306.27 344.04 306.37
  Q 338.86 307.36 336.31 302.46
  Z"
/>
<path fill="#847c75" d="
  M 339.61 287.86
  Q 340.93 288.93 343.26 287.76
  Q 343.82 287.47 344.10 288.04
  C 345.10 290.10 346.61 296.74 342.39 297.02
  Q 341.89 297.06 341.56 297.42
  Q 340.16 298.95 341.35 300.47
  A 1.48 1.48 0.0 0 1 339.21 302.49
  L 338.10 301.52
  Q 337.77 301.22 337.33 301.31
  Q 336.45 301.48 336.31 302.46
  Q 333.74 294.24 339.61 287.86
  Z"
/>
<path fill="#2a3244" d="
  M 314.45 298.82
  A 0.18 0.18 0.0 0 1 314.70 298.87
  L 314.82 299.08
  A 5.92 0.46 58.2 0 1 317.55 304.35
  L 317.45 304.42
  A 5.92 0.46 58.2 0 1 313.94 299.63
  L 313.81 299.42
  A 0.18 0.18 0.0 0 1 313.87 299.18
  L 314.45 298.82
  Z"
/>
<path fill="#ccc5b4" d="
  M 372.28 299.12
  C 372.21 317.45 359.63 331.12 340.85 329.11
  L 343.52 327.48
  A 0.77 0.75 -4.0 0 0 343.85 327.11
  L 345.60 322.89
  A 1.08 1.05 44.3 0 0 345.58 322.05
  L 344.94 320.63
  Q 344.67 320.03 345.23 319.69
  Q 345.62 319.46 346.27 319.72
  Q 347.76 323.20 351.20 324.98
  Q 351.63 325.20 352.11 325.12
  Q 354.38 324.72 356.56 324.03
  C 363.69 321.77 364.33 314.00 359.88 308.59
  Q 359.15 307.71 359.98 306.71
  Q 361.16 306.55 361.42 307.30
  Q 361.58 307.74 362.05 307.76
  Q 362.91 307.80 363.41 307.15
  Q 363.74 306.72 364.19 306.41
  Q 364.50 306.20 364.89 306.24
  Q 365.40 306.30 365.75 305.93
  L 372.28 299.12
  Z"
/>
<path fill="#ccc5b4" d="
  M 311.77 300.20
  L 326.28 318.01
  Q 324.95 318.92 327.42 321.23
  Q 327.86 321.64 327.41 322.03
  C 323.21 325.78 323.37 334.23 323.51 339.40
  A 0.65 0.65 0.0 0 1 322.41 339.88
  Q 320.10 337.66 319.06 338.84
  L 286.16 315.59
  L 286.58 315.05
  Q 286.89 314.65 287.29 314.94
  L 318.52 337.22
  A 0.68 0.67 16.7 0 0 319.59 336.65
  C 319.31 330.53 319.96 323.12 324.30 318.30
  Q 324.62 317.94 324.32 317.58
  L 310.57 300.98
  A 0.49 0.49 0.0 0 1 310.95 300.18
  L 311.77 300.20
  Z"
/>
<path fill="#545469" d="
  M 379.75 299.91
  C 379.60 313.78 372.10 326.82 359.89 333.23
  C 356.53 335.00 351.91 336.22 347.92 337.60
  A 4.10 4.10 0.0 0 1 343.38 336.27
  L 339.12 330.89
  Q 338.62 330.27 339.40 330.44
  C 358.04 334.40 371.79 319.35 373.85 302.25
  Q 376.55 302.64 379.75 299.91
  Z"
/>
<path fill="#ccc5b4" d="
  M 157.67 306.48
  Q 156.67 306.47 156.25 307.50
  Q 155.95 308.22 156.54 308.77
  Q 156.93 310.73 154.31 311.49
  C 152.81 312.95 152.31 314.51 150.53 315.80
  Q 122.64 336.13 94.54 356.16
  C 86.66 361.77 76.81 368.02 68.19 374.25
  A 0.34 0.34 0.0 0 1 67.73 373.76
  L 122.73 304.69
  Q 123.81 305.27 122.71 306.71
  C 112.66 320.03 100.78 333.80 90.22 347.70
  C 89.18 349.06 88.87 349.75 90.09 351.07
  Q 90.41 351.41 90.45 351.88
  Q 90.59 354.04 92.23 355.42
  Q 92.60 355.73 93.02 355.46
  C 99.02 351.53 104.97 346.62 111.68 342.17
  Q 112.61 341.56 115.06 339.45
  C 116.86 337.90 117.50 335.49 119.37 333.92
  Q 121.54 332.11 121.86 331.77
  Q 136.21 316.70 153.28 304.75
  C 154.61 303.82 155.35 302.53 157.42 302.79
  A 0.83 0.82 -3.6 0 1 158.12 303.40
  Q 158.53 304.93 157.67 306.48
  Z"
/>
<path fill="#010101" d="
  M 260.18 304.23
  Q 261.71 302.78 260.69 304.63
  L 257.61 310.22
  A 0.82 0.82 0.0 0 0 257.50 310.63
  L 257.50 314.73
  A 0.56 0.56 0.0 0 1 256.38 314.80
  Q 255.59 308.59 260.18 304.23
  Z"
/>
<path fill="#aca595" d="
  M 323.99 304.29
  Q 328.18 322.05 344.81 316.63
  Q 345.33 316.46 345.49 316.99
  L 346.27 319.72
  Q 345.62 319.46 345.23 319.69
  Q 344.67 320.03 344.94 320.63
  L 345.58 322.05
  A 1.08 1.05 44.3 0 1 345.60 322.89
  L 343.85 327.11
  A 0.77 0.75 -4.0 0 1 343.52 327.48
  L 340.85 329.11
  C 338.56 328.04 336.69 327.90 334.91 325.90
  Q 329.79 320.14 325.18 314.09
  C 325.62 312.64 325.38 311.21 324.42 309.87
  Q 321.60 305.91 323.99 304.29
  Z"
/>
<path fill="#847c75" d="
  M 157.67 306.48
  Q 158.46 307.90 156.54 308.77
  Q 155.95 308.22 156.25 307.50
  Q 156.67 306.47 157.67 306.48
  Z"
/>
<path fill="#2a3244" d="
  M 167.76 310.96
  Q 167.02 310.45 166.76 309.68
  A 0.60 0.60 0.0 0 1 167.70 309.02
  Q 170.83 311.47 172.53 315.04
  Q 172.70 315.40 172.57 315.78
  L 172.45 316.16
  A 0.17 0.16 -51.5 0 1 172.15 316.20
  C 170.96 314.29 169.64 312.23 167.76 310.96
  Z"
/>
<path fill="#5d4597" d="
  M 358.89 309.28
  C 363.86 316.64 360.33 321.75 352.79 323.50
  A 1.45 1.43 50.7 0 1 351.86 323.40
  Q 347.75 321.51 347.65 317.88
  L 358.89 309.28
  Z"
/>
<path fill="#ccc5b4" d="
  M 154.39 313.67
  Q 155.60 313.91 155.40 314.41
  Q 154.23 317.25 152.90 320.06
  Q 152.67 320.54 153.07 320.88
  Q 157.07 324.32 162.06 322.82
  Q 162.54 322.68 163.02 322.83
  Q 166.79 324.00 168.83 327.59
  Q 169.15 328.14 168.96 328.75
  L 168.84 329.10
  Q 168.63 329.75 169.32 329.71
  Q 172.12 329.54 172.78 332.30
  A 0.44 0.40 15.4 0 0 172.94 332.55
  L 175.69 334.57
  Q 176.05 334.84 176.51 334.81
  Q 179.42 334.62 181.41 335.61
  Q 187.27 338.50 193.05 338.78
  A 2.17 2.13 -57.6 0 0 194.20 338.51
  Q 197.52 336.59 201.33 337.12
  Q 201.89 337.20 202.22 336.73
  L 203.81 334.47
  Q 204.12 334.04 204.64 334.07
  Q 207.42 334.23 209.93 335.24
  Q 210.54 335.48 210.41 335.83
  Q 210.29 336.16 209.76 336.61
  Q 204.74 336.12 202.75 338.45
  L 201.24 340.53
  Q 200.46 340.56 200.29 341.23
  C 200.05 342.13 200.91 344.12 200.70 345.45
  Q 200.62 345.98 200.09 345.92
  Q 192.43 345.11 185.50 341.83
  Q 185.21 341.69 184.96 341.72
  Q 184.50 341.78 184.45 342.00
  L 182.88 341.19
  L 165.98 329.89
  Q 165.30 329.44 166.08 329.18
  Q 167.20 328.81 167.31 327.64
  Q 167.36 327.05 166.76 327.03
  Q 166.33 327.02 165.84 327.61
  Q 165.82 326.92 165.16 326.96
  Q 164.84 326.98 164.45 327.29
  Q 161.62 329.55 158.40 331.66
  A 0.59 0.58 36.6 0 0 158.56 332.71
  L 159.05 332.85
  L 136.73 351.24
  A 0.36 0.36 0.0 0 1 136.18 350.80
  L 154.39 313.67
  Z"
/>
<path fill="#ece6ca" d="
  M 326.28 318.01
  L 376.97 379.06
  A 0.25 0.24 56.2 0 1 376.90 379.44
  Q 376.47 379.66 376.12 379.41
  Q 347.71 359.10 319.06 338.84
  Q 320.10 337.66 322.41 339.88
  A 0.65 0.65 0.0 0 0 323.51 339.40
  C 323.37 334.23 323.21 325.78 327.41 322.03
  Q 327.86 321.64 327.42 321.23
  Q 324.95 318.92 326.28 318.01
  Z"
/>
<path fill="#2a3244" d="
  M 171.8042 322.2856
  A 1.44 0.67 107.2 0 1 171.5900 320.7119
  A 1.44 0.67 107.2 0 1 172.6558 319.5344
  A 1.44 0.67 107.2 0 1 172.8700 321.1081
  A 1.44 0.67 107.2 0 1 171.8042 322.2856
  Z"
/>
<path fill="#ccc5b4" d="
  M 283.05 326.24
  L 289.84 347.90
  A 0.59 0.59 0.0 0 1 288.88 348.52
  Q 279.74 340.35 271.44 330.78
  Q 272.19 329.52 273.29 329.54
  Q 273.75 329.55 273.94 329.14
  L 274.29 328.42
  Q 274.53 327.92 275.07 327.81
  L 283.05 326.24
  Z"
/>
<path fill="#ece6ca" d="
  M 165.84 327.61
  L 159.05 332.85
  L 158.56 332.71
  A 0.59 0.58 36.6 0 1 158.40 331.66
  Q 161.62 329.55 164.45 327.29
  Q 164.84 326.98 165.16 326.96
  Q 165.82 326.92 165.84 327.61
  Z"
/>
<path fill="#ccc5b4" d="
  M 174.01 337.16
  L 172.04 345.59
  A 1.29 1.29 0.0 0 0 173.25 347.17
  Q 177.19 347.30 180.29 350.72
  L 165.80 373.32
  A 0.68 0.67 67.1 0 1 164.57 372.82
  L 171.98 336.79
  Q 172.09 336.26 172.58 336.49
  L 174.01 337.16
  Z"
/>
<path fill="#010101" d="
  M 209.76 336.61
  Q 211.03 336.23 211.86 336.59
  A 0.52 0.52 0.0 0 1 211.71 337.58
  L 202.75 338.45
  Q 204.74 336.12 209.76 336.61
  Z"
/>
<path fill="#aca595" d="
  M 174.01 337.16
  L 182.88 341.19
  L 184.45 342.00
  Q 184.49 342.58 184.94 343.13
  Q 185.26 343.53 184.97 343.94
  L 180.29 350.72
  Q 177.19 347.30 173.25 347.17
  A 1.29 1.29 0.0 0 1 172.04 345.59
  L 174.01 337.16
  Z"
/>
<path fill="#ccc5b4" d="
  M 271.42 339.80
  Q 257.03 347.30 241.06 348.20
  Q 240.55 348.23 240.60 347.72
  L 240.78 345.43
  C 247.01 347.43 261.94 341.84 267.90 339.12
  C 269.06 338.58 270.80 338.65 271.42 339.80
  Z"
/>
<path fill="#ccc5b4" d="
  M 299.08 348.39
  L 313.66 386.54
  A 0.19 0.19 0.0 0 1 313.34 386.73
  L 288.44 358.81
  L 294.28 356.80
  Q 294.76 356.63 295.00 356.17
  L 299.08 348.39
  Z"
/>
<path fill="#ccc5b4" d="
  M 227.63 426.02
  L 226.81 431.22
  C 223.69 433.02 221.55 436.18 219.19 438.05
  Q 215.91 440.65 212.26 443.25
  L 211.82 439.44
  Q 217.18 436.29 220.68 431.43
  Q 223.15 428.00 227.63 426.02
  Z"
/>
<path fill="#ece6ca" d="
  M 226.81 431.22
  L 217.91 494.28
  A 0.30 0.30 0.0 0 1 217.31 494.26
  L 212.26 443.25
  Q 215.91 440.65 219.19 438.05
  C 221.55 436.18 223.69 433.02 226.81 431.22
  Z"
/>
</svg>
